<svg height="512" viewBox="0 0 128 128" width="512" xmlns="http://www.w3.org/2000/svg"><g><g><g><path d="m38.594 20.452v15.589l10.288 4.487a6 6 0 0 1 3.6 5.5v70.972a4 4 0 0 1 -4 4h-32a4 4 0 0 1 -4-4v-70.972a6 6 0 0 1 3.6-5.5l10.287-4.487v-15.589z" fill="#ffd92e"/><path d="m26.372 20.452h12.222v15.589h-12.222z" fill="#2b4177"/><path d="m24.249 7h16.469v13.452h-16.469z" fill="#44538c"/><g fill="#f95353"><path d="m20.24 83.408v-12.954a12.243 12.243 0 0 1 12.243-12.243 12.243 12.243 0 0 1 12.244 12.243v12.954z"/><path d="m12.483 91.164h40v9.5h-40z"/></g></g><g><path d="m101.628 20.452s2.438 15.685 1.151 25.475l9.7 5.518a6 6 0 0 1 3.034 5.215v60.34a4 4 0 0 1 -4 4h-32a4 4 0 0 1 -4-4v-60.34a6 6 0 0 1 3.034-5.215l9.7-5.518c-1.287-9.79 1.152-25.475 1.152-25.475z" fill="#fc9f02"/><g fill="#44538c"><path d="m102.78 45.93h-14.53a71.572 71.572 0 0 1 -.17-12.74h14.88a70.608 70.608 0 0 1 -.18 12.74z"/><path d="m102.76 106.658h-14.487a5 5 0 0 0 -5-5v-29.146a5 5 0 0 0 5-5h14.487a5 5 0 0 0 5 5v29.146a5 5 0 0 0 -5 5z"/><path d="m87.282 7h16.469v13.452h-16.469z"/></g></g><g><path d="m57.889 20.452v18.232a24.559 24.559 0 0 0 -10.215 5.842 16.694 16.694 0 0 0 -5.13 13.7l4.148 47.857-1.842 10.207a4 4 0 0 0 3.936 4.71h30.428a4 4 0 0 0 3.936-4.71l-1.842-10.208 4.148-47.857a16.7 16.7 0 0 0 -5.13-13.7 24.559 24.559 0 0 0 -10.215-5.842v-18.231z" fill="#dff5ff"/><path d="m55.766 7h16.469v13.452h-16.469z" fill="#fc9f02"/><path d="m64 57.621a15.77 15.77 0 0 0 -13.176 6.379l2.855 32.947h20.642l2.855-32.947a15.77 15.77 0 0 0 -13.176-6.379z" fill="#f95353"/><path d="m57.889 20.452h12.222v18.232h-12.222z" fill="#fb7817"/></g></g><g><path d="m115.517 90.85a1.749 1.749 0 0 0 -1.75 1.75v4.971a1.75 1.75 0 0 0 3.5 0v-4.971a1.75 1.75 0 0 0 -1.75-1.75z"/><path d="m113.348 49.924-8.7-4.947c.783-7.846-.421-18.4-1.006-22.775h.107a1.75 1.75 0 0 0 1.75-1.75v-13.452a1.75 1.75 0 0 0 -1.75-1.75h-16.467a1.75 1.75 0 0 0 -1.75 1.75v13.452a1.75 1.75 0 0 0 1.75 1.75h.107c-.589 4.378-1.789 14.929-1.006 22.775l-2.281 1.3a17.424 17.424 0 0 0 -2.585-3.031 27.6 27.6 0 0 0 -9.656-5.865v-15.181h.373a1.75 1.75 0 0 0 1.75-1.75v-13.45a1.75 1.75 0 0 0 -1.75-1.75h-16.468a1.75 1.75 0 0 0 -1.75 1.75v13.452a1.75 1.75 0 0 0 1.75 1.75h12.6v14.732h-8.727v-7.366a1.75 1.75 0 0 0 -3.5 0v7.811a26.49 26.49 0 0 0 -5.068 2.408 7.756 7.756 0 0 0 -1.49-.863l-9.236-4.024v-12.7h.373a1.75 1.75 0 0 0 1.75-1.75v-13.45a1.75 1.75 0 0 0 -1.75-1.75h-16.469a1.75 1.75 0 0 0 -1.749 1.75v13.452a1.75 1.75 0 0 0 1.75 1.75h.373v12.698l-9.236 4.029a7.749 7.749 0 0 0 -4.653 7.1v14.538a1.75 1.75 0 0 0 3.5 0v-14.539a4.249 4.249 0 0 1 2.551-3.9l9.953-4.341h11.492l9.67 4.223q-.708.575-1.421 1.234a18.544 18.544 0 0 0 -5.679 15.132l.077.9a13.982 13.982 0 0 0 -22.388 11.178v12.954a1.75 1.75 0 0 0 1.75 1.75h22.883l.368 4.257h-29.257v-19.732a1.75 1.75 0 0 0 -3.5 0v47.317a5.757 5.757 0 0 0 5.75 5.75h95.034a5.757 5.757 0 0 0 5.75-5.75v-10.314a1.75 1.75 0 0 0 -3.5 0v10.314a2.253 2.253 0 0 1 -2.25 2.25h-27.017a5.744 5.744 0 0 0 .374-3.27l-1.802-9.98.225-2.59a3.251 3.251 0 0 1 3.226 3.247 1.751 1.751 0 0 0 1.75 1.75h14.487a1.75 1.75 0 0 0 1.75-1.75 3.254 3.254 0 0 1 3.25-3.25 1.75 1.75 0 0 0 1.75-1.75v-29.145a1.75 1.75 0 0 0 -1.75-1.75 3.254 3.254 0 0 1 -3.25-3.25 1.75 1.75 0 0 0 -1.75-1.75h-14.487a1.751 1.751 0 0 0 -1.75 1.75 3.228 3.228 0 0 1 -.216 1.155l.893-10.291a18.954 18.954 0 0 0 -1.431-9.022l2.948-1.677h13.6l9.3 5.289a4.258 4.258 0 0 1 2.15 3.694v26.824a1.75 1.75 0 0 0 3.5 0v-26.824a7.763 7.763 0 0 0 -3.919-6.736zm-55.832-41.174h12.968v9.95h-12.968zm-31.516 0h12.968v9.95h-12.968zm10.845 13.45v12.091h-8.723v-12.091zm12.019 23.609a23.488 23.488 0 0 1 9.246-5.375h11.78a23.5 23.5 0 0 1 9.246 5.375 15.023 15.023 0 0 1 4.577 12.265l-4.148 47.857a1.79 1.79 0 0 0 .021.462l1.842 10.207a2.25 2.25 0 0 1 -2.214 2.65h-30.428a2.25 2.25 0 0 1 -2.214-2.65l1.842-10.207a1.79 1.79 0 0 0 .021-.462l-4.148-47.857a15.023 15.023 0 0 1 4.577-12.265zm-26.875 35.849v-11.2a10.482 10.482 0 0 1 19.377-5.558l1.452 16.76zm21.8 11.257.52 6h-30.076v-6zm-29.556 24.085v-14.585h30.384l.311 3.585-1.8 9.978a5.73 5.73 0 0 0 .375 3.271h-27.02a2.253 2.253 0 0 1 -2.25-2.249zm75.56-47.738h11.447a6.77 6.77 0 0 0 4.77 4.77v26.106a6.774 6.774 0 0 0 -4.77 4.77h-11.447a6.774 6.774 0 0 0 -4.77-4.77v-16.653l.846-9.758a6.759 6.759 0 0 0 3.924-4.465zm-.056-34.322h11.563a71.166 71.166 0 0 1 -.09 9.237h-11.384a70.99 70.99 0 0 1 -.089-9.237zm-.7-26.19h12.963v9.95h-12.968zm11.072 13.45c.254 1.866.68 5.309.974 9.238h-11.132c.294-3.928.72-7.372.973-9.238z"/><path d="m53.68 98.7h20.64a1.75 1.75 0 0 0 1.743-1.6l2.856-32.947a1.752 1.752 0 0 0 -.263-1.084 17.439 17.439 0 0 0 -14.656-7.198 17.439 17.439 0 0 0 -14.656 7.2 1.752 1.752 0 0 0 -.263 1.084l2.855 32.945a1.751 1.751 0 0 0 1.744 1.6zm10.32-39.329a14.218 14.218 0 0 1 11.376 5.129l-2.66 30.7h-17.432l-2.66-30.7a14.217 14.217 0 0 1 11.376-5.129z"/></g></g></svg>