<?xml version="1.0" encoding="UTF-8"?>
<svg xmlns="http://www.w3.org/2000/svg" width="512" height="512" viewBox="0 0 128 128"><g><path fill="currentColor" d="M113.348,49.924l-8.7-4.947c.783-7.846-.421-18.4-1.006-22.775h.107a1.75,1.75,0,0,0,1.75-1.75V7a1.75,1.75,0,0,0-1.75-1.75H87.282A1.75,1.75,0,0,0,85.532,7V20.452a1.75,1.75,0,0,0,1.75,1.75h.107C86.8,26.58,85.6,37.131,86.383,44.977l-2.281,1.3a17.424,17.424,0,0,0-2.585-3.031,27.6,27.6,0,0,0-9.656-5.865V22.2h.373a1.75,1.75,0,0,0,1.75-1.75V7a1.75,1.75,0,0,0-1.75-1.75H55.766A1.75,1.75,0,0,0,54.016,7V20.452a1.75,1.75,0,0,0,1.75,1.75h.373V37.379a26.49,26.49,0,0,0-5.068,2.408,7.756,7.756,0,0,0-1.49-.863L40.345,34.9V22.2h.373a1.75,1.75,0,0,0,1.75-1.75V7a1.75,1.75,0,0,0-1.75-1.75H24.249A1.75,1.75,0,0,0,22.5,7V20.452a1.75,1.75,0,0,0,1.75,1.75h.373V34.9l-9.236,4.029a7.749,7.749,0,0,0-4.653,7.1V117a5.757,5.757,0,0,0,5.75,5.75h95.034a5.757,5.757,0,0,0,5.75-5.75V56.66A7.763,7.763,0,0,0,113.348,49.924ZM89.826,44.177a70.99,70.99,0,0,1-.089-9.237H101.3a70.99,70.99,0,0,1-.089,9.237ZM89.032,8.75H102V18.7H89.032ZM100.109,22.2c.253,1.866.679,5.31.973,9.238H89.951c.294-3.928.72-7.372.973-9.238ZM85.023,83.485l.846-9.758a6.759,6.759,0,0,0,3.924-4.465H101.24a6.77,6.77,0,0,0,4.77,4.77v26.106a6.774,6.774,0,0,0-4.77,4.77H89.793a6.774,6.774,0,0,0-4.77-4.77ZM57.516,8.75H70.484V18.7H57.516ZM68.361,22.2V36.934H59.639V22.2ZM26,8.75H38.968V18.7H26ZM36.845,22.2V34.291H28.122V22.2ZM16.784,42.132l9.953-4.341H38.23L47.9,42.01q-.708.575-1.421,1.234A18.544,18.544,0,0,0,40.8,58.376l.077.9A13.982,13.982,0,0,0,18.489,70.454V83.408a1.75,1.75,0,0,0,1.75,1.75H43.122l.368,4.257H14.233V46.028A4.249,4.249,0,0,1,16.784,42.132Zm27.53,56.783H14.233v-6H43.794Zm-1.5-17.257H21.989v-11.2A10.482,10.482,0,0,1,41.366,64.9ZM14.233,117V102.415H44.617L44.928,106l-1.8,9.978a5.73,5.73,0,0,0,.375,3.271H16.483A2.253,2.253,0,0,1,14.233,117Zm34.553,2.25a2.25,2.25,0,0,1-2.214-2.65l1.842-10.207a1.79,1.79,0,0,0,.021-.462L44.287,58.074a15.023,15.023,0,0,1,4.577-12.265,23.488,23.488,0,0,1,9.246-5.375H69.89a23.5,23.5,0,0,1,9.246,5.375,15.023,15.023,0,0,1,4.577,12.265l-4.148,47.857a1.79,1.79,0,0,0,.021.462L81.428,116.6a2.25,2.25,0,0,1-2.214,2.65ZM113.767,117a2.253,2.253,0,0,1-2.25,2.25H84.5a5.744,5.744,0,0,0,.374-3.27L83.072,106l.225-2.59a3.251,3.251,0,0,1,3.226,3.247,1.751,1.751,0,0,0,1.75,1.75H102.76a1.75,1.75,0,0,0,1.75-1.75,3.254,3.254,0,0,1,3.25-3.25,1.75,1.75,0,0,0,1.75-1.75V72.512a1.75,1.75,0,0,0-1.75-1.75,3.254,3.254,0,0,1-3.25-3.25,1.75,1.75,0,0,0-1.75-1.75H88.273a1.751,1.751,0,0,0-1.75,1.75,3.228,3.228,0,0,1-.216,1.155L87.2,58.376a18.954,18.954,0,0,0-1.431-9.022l2.948-1.677h13.6l9.3,5.289a4.258,4.258,0,0,1,2.15,3.694Z"/><path fill="currentColor" d="M64,55.871a17.439,17.439,0,0,0-14.656,7.2,1.752,1.752,0,0,0-.263,1.084L51.936,97.1a1.751,1.751,0,0,0,1.744,1.6H74.32a1.75,1.75,0,0,0,1.743-1.6l2.856-32.947a1.752,1.752,0,0,0-.263-1.084A17.439,17.439,0,0,0,64,55.871ZM72.716,95.2H55.284l-2.66-30.7A14.217,14.217,0,0,1,64,59.371,14.218,14.218,0,0,1,75.376,64.5Z"/></g></svg>
