<?xml version="1.0"?>
<svg xmlns="http://www.w3.org/2000/svg" id="Layer_2" data-name="Layer 2" viewBox="0 0 64 64" width="512" height="512"><title>26. Asian, food, japan, japanese, meal, noodles, ramen</title><path d="M10,39h2a1,1,0,0,0,0-2H10a1,1,0,0,0,0,2Z"/><path d="M16,39h2a1,1,0,0,0,0-2H16a1,1,0,0,0,0,2Z"/><path d="M62,30H59.85c-1.308-7.751-6.26-9.841-6.478-9.929a1,1,0,0,0-.953.115L50.027,21.9c-3.779-1.959-7.205-2.456-10.18-1.449A9.714,9.714,0,0,0,36,22.9V12.062L62.041,11a1,1,0,1,0-.082-2L36,10.061V5.4L62.129,1.991A1,1,0,1,0,61.871.009L36,3.383V1a1,1,0,0,0-2,0V3.644L22.875,5.1V3a1,1,0,0,0-2,0V5.356l-5,.653A1,1,0,0,0,16,8a.987.987,0,0,0,.131-.009l4.746-.619v3.306L12.959,11A1,1,0,0,0,13,13h.042l7.834-.32v5.374a16.494,16.494,0,0,0-7.7,2.478L8.814,14.419A1,1,0,0,0,8.083,14a.989.989,0,0,0-.79.29l-6,6a1,1,0,0,0-.125,1.262L6.8,30H2a1,1,0,0,0-1,1V43.99A13,13,0,0,0,13.993,57H15v6a1,1,0,0,0,1,1H48a1,1,0,0,0,1-1V57h1.063A13.121,13.121,0,0,0,63,43.817V31A1,1,0,0,0,62,30ZM40.489,22.341c2.21-.747,4.794-.453,7.7.87L38.68,30H36V26.234A8.3,8.3,0,0,1,40.489,22.341ZM29.9,30c-.592-3.386-4.129-6-8.4-6s-7.811,2.614-8.4,6H9.06c.6-5.6,6.212-10,13.027-10,6.535,0,11.367,4.149,11.864,10Zm-2.034,0H15.131c.6-2.279,3.23-4,6.369-4S27.265,27.721,27.869,30ZM34,24.016a12.571,12.571,0,0,0-5-4.456V12.348l5-.2ZM22.875,7.111,34,5.66v4.482l-5,.2V9a1,1,0,0,0-2,0v1.428l-4.125.168ZM27,12.429v6.33a15.815,15.815,0,0,0-4.125-.725V12.6ZM7.873,16.542l3.688,5.163a12.769,12.769,0,0,0-4,5.832l-4.273-6.41ZM39,32h8a1,1,0,0,0,0-2h-4.88l10.965-7.833c1.094.648,3.792,2.725,4.747,7.833H51a1,1,0,0,0,0,2H61v5H23a1,1,0,0,0,0,2H61v4H3V32Zm8,30H17V57H47Zm3.058-7H14A11,11,0,0,1,3.049,45H60.936A11.1,11.1,0,0,1,50.058,55Z"/></svg>
