<svg id="Layer_2" height="512" viewBox="0 0 64 64" width="512" xmlns="http://www.w3.org/2000/svg" data-name="Layer 2"><path d="m50 23c-11-6-15 3-15 3v6.25h15z" fill="#e29344"/><path d="m8 30-6-9 6-6 5 7" fill="#24776a"/><path d="m39 31 14-10s5 2 6 10z" fill="#ef6781"/><path d="m45.241 29h11.34a10.047 10.047 0 0 0 -3.481-5.615z" fill="#ef6781"/><path d="m8 31c0-6.929 6.631-12 14.087-12s12.913 5.071 12.913 12z" fill="#fdb25a"/><path d="m16 56h32v7h-32z" fill="#470718"/><path d="m62 31v12.82a12.153 12.153 0 0 1 -11.94 12.18h-36a12.005 12.005 0 0 1 -12.06-12.01v-12.99z" fill="#e90d39"/><path d="m62 31v12.82a12.153 12.153 0 0 1 -11.94 12.18h-7.74c12.24-5.09 12.16-15.14 12.14-25z" fill="#414042" opacity=".3"/><path d="m2 38h60v6h-60z" fill="#970524"/><g fill="#1e0202"><path d="m10 39h2a1 1 0 0 0 0-2h-2a1 1 0 0 0 0 2z"/><path d="m16 39h2a1 1 0 0 0 0-2h-2a1 1 0 0 0 0 2z"/><path d="m62 30h-2.15c-1.308-7.751-6.26-9.841-6.478-9.929a1 1 0 0 0 -.953.115l-2.392 1.714c-3.779-1.959-7.205-2.456-10.18-1.449a9.714 9.714 0 0 0 -3.847 2.449v-10.838l26.041-1.062a1 1 0 1 0 -.082-2l-25.959 1.061v-4.661l26.129-3.409a1 1 0 1 0 -.258-1.982l-25.871 3.374v-2.383a1 1 0 0 0 -2 0v2.644l-11.125 1.456v-2.1a1 1 0 0 0 -2 0v2.356l-5 .653a1 1 0 0 0 .125 1.991.987.987 0 0 0 .131-.009l4.746-.619v3.306l-7.918.322a1 1 0 0 0 .041 2h.042l7.834-.32v5.374a16.494 16.494 0 0 0 -7.7 2.478l-4.362-6.113a1 1 0 0 0 -.731-.419.989.989 0 0 0 -.79.29l-6 6a1 1 0 0 0 -.125 1.262l5.632 8.448h-4.8a1 1 0 0 0 -1 1v12.99a13 13 0 0 0 12.993 13.01h1.007v6a1 1 0 0 0 1 1h32a1 1 0 0 0 1-1v-6h1.063a13.121 13.121 0 0 0 12.937-13.183v-12.817a1 1 0 0 0 -1-1zm-21.511-7.659c2.21-.747 4.794-.453 7.7.87l-9.509 6.789h-2.68v-3.766a8.3 8.3 0 0 1 4.489-3.893zm-10.589 7.659c-.592-3.386-4.129-6-8.4-6s-7.811 2.614-8.4 6h-4.04c.6-5.6 6.212-10 13.027-10 6.535 0 11.367 4.149 11.864 10zm-2.034 0h-12.735c.6-2.279 3.23-4 6.369-4s5.765 1.721 6.369 4zm6.134-5.984a12.571 12.571 0 0 0 -5-4.456v-7.212l5-.2zm-11.125-16.905 11.125-1.451v4.482l-5 .2v-1.342a1 1 0 0 0 -2 0v1.428l-4.125.168zm4.125 5.318v6.33a15.815 15.815 0 0 0 -4.125-.725v-5.434zm-19.127 4.113 3.688 5.163a12.769 12.769 0 0 0 -4 5.832l-4.273-6.41zm31.127 15.458h8a1 1 0 0 0 0-2h-4.88l10.965-7.833c1.094.648 3.792 2.725 4.747 7.833h-6.832a1 1 0 0 0 0 2h10v5h-38a1 1 0 0 0 0 2h38v4h-58v-11zm8 30h-30v-5h30zm3.058-7h-36.058a11 11 0 0 1 -10.951-10h57.887a11.1 11.1 0 0 1 -10.878 10z"/></g></svg>