<svg id="Layer_1_copy" height="512" viewBox="0 0 512 512" width="512" xmlns="http://www.w3.org/2000/svg" data-name="Layer 1 copy"><path d="m352 419.441v-244.456h144v245.027z" fill="#ffb656"/><path d="m352 168v47.985c12 0 12 14 24 14s12-14 24-14 12 14 24 14 12-14 24-14 12 14 24 14 12-14 24-14v-17l10-30.985z" fill="#f4dfcb"/><path d="m352 384h40v-216h-76a28.031 28.031 0 0 0 -28 28v68h16v-68a12.013 12.013 0 0 1 12-12h36z" fill="#fff" opacity=".2"/><path d="m64 472v-376s-21.06-29.881-16-40c8-16 56 8 72 0s96-14.985 152 0c0 0 24 8 40 0s32-8 32 8-24 32-24 32v376z" fill="#a5834e"/><path d="m213.318 47.658c-42.239-2.033-82.475 2.921-93.318 8.342-16 8-64-16-72 0-5.06 10.119 16 40 16 40v376h40v-352c5.13-41.037 66.173-62.338 109.318-72.342z" fill="#fff" opacity=".2"/><g fill="#f4dfcb"><path d="m176 150.985-32-24v26a22 22 0 0 0 22 22h10z"/><path d="m176 214.985-32-24v26a22 22 0 0 0 22 22h10z"/><path d="m176 278.985-32-24v26a22 22 0 0 0 22 22h10z"/><path d="m224 150.985 32-24v26a22 22 0 0 1 -22 22h-10z"/><path d="m224 214.985 32-24v26a22 22 0 0 1 -22 22h-10z"/><path d="m224 278.985 32-24v26a22 22 0 0 1 -22 22h-10z"/><path d="m216 110.985a16 16 0 1 1 -32 0c0-8.837 16-24 16-24s16 15.164 16 24z"/></g><path d="m504 414.985c0 70.693-70.8 57.015-168 57.015s-184 13.678-184-57.015 78.8-128 176-128 176 57.308 176 128z" fill="#a0470a"/><path d="m250.57 399.558 3.441-1.376a20 20 0 0 0 11.368-25.4l-24.912-68.862a179.887 179.887 0 0 0 -40.455 23.217l24.561 61.284a20 20 0 0 0 25.997 11.137z" fill="#fc9149"/><path d="m330.264 374.985h3.471a20 20 0 0 0 19.919-18.185l6.739-67.639a241.609 241.609 0 0 0 -32.393-2.176q-11.666 0-22.945 1.083l5.292 68.728a20 20 0 0 0 19.917 18.189z" fill="#fc9149"/><path d="m402.084 390.548 3.57 2.678a20 20 0 0 0 29.483-6.288l29.163-52.932c-15.3-13.608-34.379-24.885-56.073-32.979l-13.753 69.6a20 20 0 0 0 7.61 19.921z" fill="#fc9149"/><path d="m0 472h512v40h-512z" fill="#e8c28b"/><path d="m8 440h120l-27.692 32h-64.616z" fill="#af4732"/><path d="m24 440 21.509-30.112a24.918 24.918 0 0 1 39.2-1.733l27.291 31.845z" fill="#ffb656"/><path d="m68.211 399.578a24.835 24.835 0 0 0 -22.7 10.31l-21.511 30.112h-16l27.692 32h12.308v-32z" fill="#fff" opacity=".2"/><path d="m152 414.985c0 43.235 32.47 54.53 79.926 56.783-47.681-143.8 176.3-170.741 176.3-170.741a230.125 230.125 0 0 0 -80.226-14.042c-97.2 0-176 57.308-176 128z" fill="#fff" opacity=".2"/><path d="m166 182.985h10a8 8 0 0 0 8-8v-24a8 8 0 0 0 -3.2-6.4l-32-24a8 8 0 0 0 -12.8 6.4v26a30.034 30.034 0 0 0 30 30zm-14-40 16 12v12h-2a14.016 14.016 0 0 1 -14-14z"/><path d="m166 246.985h10a8 8 0 0 0 8-8v-24a8 8 0 0 0 -3.2-6.4l-32-24a8 8 0 0 0 -12.8 6.4v26a30.034 30.034 0 0 0 30 30zm-14-40 16 12v12h-2a14.016 14.016 0 0 1 -14-14z"/><path d="m166 310.985h10a8 8 0 0 0 8-8v-24a8 8 0 0 0 -3.2-6.4l-32-24a8 8 0 0 0 -12.8 6.4v26a30.034 30.034 0 0 0 30 30zm-14-40 16 12v12h-2a14.016 14.016 0 0 1 -14-14z"/><path d="m216 150.985v24a8 8 0 0 0 8 8h10a30.034 30.034 0 0 0 30-30v-26a8 8 0 0 0 -12.8-6.4l-32 24a8 8 0 0 0 -3.2 6.4zm16 4 16-12v10a14.016 14.016 0 0 1 -14 14h-2z"/><path d="m259.578 183.83a8 8 0 0 0 -8.377.755l-32 24a8 8 0 0 0 -3.2 6.4v24a8 8 0 0 0 8 8h10a30.034 30.034 0 0 0 30-30v-26a8 8 0 0 0 -4.423-7.155zm-11.578 33.155a14.016 14.016 0 0 1 -14 14h-2v-12l16-12z"/><path d="m200 134.985a24.027 24.027 0 0 0 24-24c0-5.714-3.116-12.188-9.805-20.376a112.161 112.161 0 0 0 -8.692-9.431 8 8 0 0 0 -11.006 0 112.161 112.161 0 0 0 -8.692 9.431c-6.689 8.191-9.805 14.662-9.805 20.376a24.027 24.027 0 0 0 24 24zm0-36.407c4.456 5.147 7.893 10.325 8 12.419a8 8 0 0 1 -16 0c.1-2.084 3.541-7.268 8-12.419z"/><path d="m504 200.338 7.556-21.708a8 8 0 0 0 -7.556-10.63h-176v-67.9c7.625-5.781 24-20.064 24-36.1 0-10.888-5.662-16.013-9.037-18.1-8.145-5.035-20.734-3.96-34.541 2.943-10.616 5.307-28.074 1.483-33.893-.435q-.229-.076-.462-.139c-55.789-14.928-138.823-8.838-157.646.573-4.633 2.319-18.592-.558-28.785-2.655-19.468-4.009-39.6-8.152-46.793 6.232-3.415 6.83-1.448 16.719 6.19 31.121 3.359 6.334 7 11.981 8.965 14.925v294.474a32.7 32.7 0 0 0 -17 12.3l-19.115 26.761h-11.883a8 8 0 0 0 -6.049 13.235l27.692 32a8 8 0 0 0 6.049 2.765s366.872.247 377.721.247c36.613 0 65.441-3.212 82.571-19.928 10.777-10.519 16.016-25.345 16.016-45.334a104.485 104.485 0 0 0 -8-40.012zm-46.844 117.668c-26.9-19.562-60.607-32.287-97.156-36.984v-49.647c3.159 3.32 7.641 6.611 14.665 6.611 9.483 0 14.338-6 17.551-9.967 2.807-3.468 3.524-4.033 5.115-4.033s2.307.565 5.114 4.033c3.213 3.969 8.067 9.967 17.55 9.967s14.339-6 17.551-9.967c2.808-3.468 3.525-4.033 5.115-4.033s2.309.565 5.117 4.034c3.213 3.969 8.069 9.966 17.552 9.966s14.339-6 17.553-9.966c2.808-3.469 3.525-4.034 5.117-4.034v123.577a150.849 150.849 0 0 0 -30.844-29.557zm-54.843 54.206 12.148-60.077a168.719 168.719 0 0 1 39.785 23.77l-26.1 47.148a12 12 0 0 1 -17.69 3.772l-3.57-2.678a12.05 12.05 0 0 1 -4.573-11.935zm-74.313-77.227c7.87 0 15.612.4 23.2 1.149l-5.51 59.937a11.941 11.941 0 0 1 -11.951 10.914h-3.472a11.941 11.941 0 0 1 -11.951-10.911l-5.489-60.594c4.998-.321 10.057-.495 15.173-.495zm164.745-110.985-4.3 12.355a8.009 8.009 0 0 0 -.444 2.63v9c-9.483 0-14.339 6-17.552 9.966-2.808 3.469-3.525 4.034-5.117 4.034s-2.309-.565-5.117-4.034c-3.213-3.969-8.069-9.966-17.552-9.966s-14.338 6-17.551 9.967c-2.808 3.468-3.525 4.033-5.116 4.033s-2.307-.565-5.114-4.033c-3.213-3.969-8.068-9.967-17.551-9.967s-14.338 6-17.551 9.967c-2.807 3.468-3.524 4.033-5.114 4.033s-2.307-.565-5.114-4.033c-2.149-2.654-5.04-6.208-9.551-8.276v-25.676zm-148.745 0v95.5q-7.939-.5-16-.513v-94.987zm-291.982 230.538a16.918 16.918 0 0 1 26.612-1.177l15.976 18.639h-55.061zm-4.018 49.462h-8.651l-13.849-16h85l-13.849 16zm69.811 0 16.239-18.765a8 8 0 0 0 -6.05-13.235h-12.321l-24.9-29.051a32.7 32.7 0 0 0 -18.779-10.91v-296.039a8.007 8.007 0 0 0 -1.459-4.606c-8.862-12.594-16.078-27.653-15.319-31.907.383-.406 2.175-1.23 6.944-1.107 6.146.166 14.33 1.851 22.245 3.48 15.21 3.131 29.577 6.09 39.166 1.295 14.154-7.077 92.683-13.718 146.152.519 2.983.956 27.866 8.471 45.848-.519 10.086-5.043 16.872-4.941 18.973-3.644.962.594 1.449 2.1 1.449 4.488 0 8.8-13.775 20.877-20.438 25.344a8 8 0 0 0 -3.561 6.657v72.29a28.039 28.039 0 0 0 -24 27.71v68h16v-68a12.01 12.01 0 0 1 8-11.3v94.8a239.869 239.869 0 0 0 -48.741 8.088 29.963 29.963 0 0 0 .741-6.6v-26a8 8 0 0 0 -12.8-6.4l-32 24a8 8 0 0 0 -3.2 6.4v24a7.954 7.954 0 0 0 .826 3.524q-4.508 2.529-8.826 5.276v-168.8h-16v180.27c-31.024 25.066-48 57.36-48 91.728 0 18.1 5.366 32.522 15.95 42.862a53.777 53.777 0 0 0 7.6 6.152zm114.189-169.015v-12l16-12v10a14.016 14.016 0 0 1 -14 14zm3.8 19.738 22.06 60.787a11.948 11.948 0 0 1 -6.82 15.243l-3.44 1.377a12 12 0 0 1 -15.6-6.685l-22.246-55.616a171.152 171.152 0 0 1 26.046-15.106zm249.009 134.145c-17.38 16.96-56.268 16.006-105.5 14.806-13.84-.339-28.152-.688-43.311-.688-14.863 0-29.424.34-43.506.669-54.348 1.27-101.284 2.364-121.362-17.252-7.489-7.317-11.13-17.594-11.13-31.418 0-28.243 13.739-54.233 36.682-74.754l20.462 51.156a27.948 27.948 0 0 0 36.4 15.6l3.442-1.377a27.879 27.879 0 0 0 15.914-35.563l-22.33-61.531a214.711 214.711 0 0 1 46.33-11.461l5.478 60.466a27.865 27.865 0 0 0 27.885 25.465h3.472a27.862 27.862 0 0 0 27.884-25.457l5.448-59.26a214.472 214.472 0 0 1 32.239 8.08l-12.68 62.708a28.139 28.139 0 0 0 10.656 27.892l3.57 2.678a28 28 0 0 0 41.282-8.812l24.243-43.791c18.672 19.333 29.623 42.749 29.623 67.961 0 15.452-3.661 26.535-11.191 33.883z"/><path d="m432 246.985h32v16h-32z"/><path d="m432 270.985h32v16h-32z"/></svg>