<svg id="Layer_1" enable-background="new 0 0 511.988 511.988" height="512" viewBox="0 0 511.988 511.988" width="512" xmlns="http://www.w3.org/2000/svg"><g><path d="m467.131 327.86c-23.691-10.151-44.927-2.177-65.462 5.536-32.057 12.039-55.692 9.44-84.32-9.293-6.685-4.374-13.454-8.802-20.587-12.435 9.575-13.6 17.212-28.506 19.95-45.057 26.945 9.334 57.602 13.699 85.595 6.616 38.18-9.66 70.838-45.157 67.64-86.141-2.923-37.438-30.932-54.751-63.556-64.996-32.683-10.258-48.946-26.188-59.609-58.862-9.471-29.025-23.567-54.134-55.6-61.414-18.72-4.252-38.531-.972-55.78 9.243-16.816 9.961-30.135 25.818-37.503 44.652-3.533 9.03 10.436 14.497 13.969 5.465 6.155-15.732 17.229-28.948 31.179-37.211 13.931-8.252 29.844-10.925 44.811-7.522 28.226 6.416 37.627 30.098 45.81 54.94-7.978 13.119-15.593 38.665 2.505 60.4 16.944 20.352 43.542 18.369 63.775 4.008 27.21 8.566 52.531 20.266 55.044 52.466 2.632 33.696-25.27 62.563-56.364 70.432-26.284 6.651-55.616 1.782-80.668-7.566.605-40.334-29.086-78.869-70.301-81.331-7.621-.614-14.522.208-20.9 2.026-11.401-21.06-18.394-45.068-20.3-69.839-.744-9.673-15.7-8.516-14.956 1.15 2.026 26.331 9.371 51.9 21.339 74.474-9.155 4.981-17.356 11.671-25.429 18.254-28.021 22.846-47.861 27.122-82.948 18.021-48.756-12.65-100.676 4.966-104.219 62.512-1.832 29.748 12.822 59.728 38.243 78.239 42.988 31.584 101.436 40.885 153.648 27.446-.145 18.942 5.704 38.185 17.129 54.42 34.055 48.393 92.945 75.496 151.512 75.496 26.491-.002 52.584-5.469 76.307-16.246 8.829-4.01 2.626-17.666-6.203-13.656-72.74 33.042-164.696 9.223-209.349-54.227-15.058-21.396-18.614-48.891-9.28-71.752 8.027-19.661 24.512-33.127 45.228-36.946 21.076-3.884 39.074 9.353 55.687 20.123 2.373 23.654 17.193 43.894 42.005 45.842 23.666 1.873 41.947-13.296 47.162-35.964 19.666-7.299 39.352-16.009 58.89-7.514 19.039 8.158 31.444 24.211 34.931 45.203 4.983 30-9.917 57.492-32.993 75.625-7.625 5.991 1.641 17.785 9.268 11.795 50.246-36.606 56.757-118.934-5.3-146.412zm-101.769-195.598c-6.717-.575-12.494-3.872-17.662-10.079-8.821-10.594-8.687-21.996-6.376-30.709 8.324 17.774 22.066 30.039 39.985 37.721-4.686 2.028-10.268 3.552-15.947 3.067zm-225.816 102.42c11.711-.279 23.692-3.16 33.91-8.968-1.485 12.102-10.664 19.005-22.221 20.862-11.947 1.92-23.394-1.928-29.351-12.795 4.855.737 10.803 1.2 17.662.901zm142.906 71.187c-8.453-2.469-17.56-3.327-27.692-1.46-31.277 5.347-55.362 30.586-61.047 61.712-51.398 14.604-105.913 5.86-146.394-23.62-21.321-15.526-33.621-40.507-32.101-65.192 3.119-50.657 48.581-58.395 88.834-48.047 6.219 22.965 26.022 35.911 49.564 32.126 23.931-3.846 37.644-23.111 34.649-46.981 17.095-13.307 34.632-31.531 58.194-29.665 20.833 1.674 37.874 13.023 47.986 31.958 11.836 22.164 11.332 49.988-1.313 72.616-3.202 5.723-6.784 11.276-10.68 16.553zm100.249 52.251c-5.75 9.05-14.362 12.98-26.355 12.052-15.438-1.213-22.496-11.472-25.723-20.606 17.102 8.577 35.306 10.321 53.824 5.454-.514 1.03-1.093 2.072-1.746 3.1z"/></g></svg>