<svg id="Layer_1" enable-background="new 0 0 511.988 511.988" height="512" viewBox="0 0 511.988 511.988" width="512" xmlns="http://www.w3.org/2000/svg"><g><g><g><g><path d="m384.889 268.421c-104.548 6.915-192.094-85.749-185.788-183.801 3.614-56.187 59.265-94.543 107.483-69.136 22.54 11.877 27.844 34.947 35.35 57 4.413 12.966 2.609 37.374 12.497 47.156 10.227 10.117 30.484 3.416 44.05 7.836 21.883 7.13 44.516 12.513 56.301 34.428 25.612 47.627-14.777 102.871-69.893 106.517z" fill="#85667d"/><path d="m454.781 161.904c-11.785-21.915-34.418-27.298-56.301-34.428-13.566-4.42-33.823 2.281-44.05-7.836-9.888-9.782-8.083-34.19-12.497-47.156-7.506-22.053-12.81-45.123-35.35-57-18.993-10.008-39.14-10.122-56.806-3.15 2.281.914 4.551 1.962 6.806 3.15 22.54 11.877 27.844 34.947 35.35 57 4.413 12.966 18.535 40.498 56.547 54.992 21.505 8.2 44.516 12.513 56.301 34.428 23.622 43.926-8.898 94.331-57.334 104.76 12.133 1.959 24.66 2.602 37.442 1.757 55.116-3.646 95.505-58.89 69.892-106.517z" fill="#7d5c75"/><path d="m299.677 292.974c-50.762 90.829-176.9 113.757-256.774 55.59-45.77-33.332-48.204-100.393-.502-126.852 22.436-12.444 45.045-4.238 67.988 1.414 0 0 28.179 16.784 41.702 13.856 11.103-2.404 28.001-25.784 28.001-25.784 20.802-15.432 38.643-36.208 66.966-33.933 54.333 4.365 79.38 67.825 52.619 115.709z" fill="#ff525a"/><g><path d="m247.059 177.265c-10.526-.846-19.604 1.493-27.925 5.557 38.523 17.206 53.353 69.337 30.543 110.151-27.628 49.434-77.583 78.755-130.256 85.835 68.964 9.405 143.921-20.819 180.256-85.835 26.761-47.883 1.714-111.343-52.618-115.708z" fill="#f73b44"/></g></g><path d="m476.382 461.158c-77.522 69.942-204.306 51.553-260.983-28.983-32.478-46.15-13.002-110.485 40.721-120.391 25.446-4.691 44.255 10.522 64.283 23.232 11.361 7.21 24.089 19.884 37.667 21.392 14.931 1.658 28.055-9.233 41.967-14.395 21.066-7.816 41.703-16.875 64.141-7.261 49.985 21.419 53.072 89.534 12.204 126.406z" fill="#85667d"/><g><path d="m464.177 334.753c-16.493-7.067-32.012-4.045-47.444 1.156 47.522 22.615 49.808 89.016 9.648 125.249-26.151 23.594-57.908 37.136-90.689 41.632 49.174 6.644 101.293-6.087 140.689-41.632 40.869-36.872 37.782-104.987-12.204-126.405z" fill="#7d5c75"/></g></g><path d="m398.481 127.474s-32.678 28.175-56.545-.492c-21.26-25.535 0-54.498 0-54.498s8.275 25.227 19.474 35.364c13.681 12.384 37.071 19.626 37.071 19.626z" fill="#6e5167"/><path d="m180.087 211.191s9.671 36.791-27.662 42.791-42.034-30.86-42.034-30.86 14.196 6.349 36.948 3.354c22.752-2.994 32.748-15.285 32.748-15.285z" fill="#e82c35"/><path d="m395.733 343.579s-3.777 36.912-39.975 34.069c-35.301-2.772-35.353-42.636-35.353-42.636s22.542 14.508 36.688 15.125c19.332.845 38.64-6.558 38.64-6.558z" fill="#6e5167"/></g><g><path d="m467.131 327.86c-23.691-10.151-44.927-2.177-65.462 5.536-32.057 12.039-55.692 9.44-84.32-9.293-6.685-4.374-13.454-8.802-20.587-12.435 9.575-13.6 17.212-28.506 19.95-45.057 26.945 9.334 57.602 13.699 85.595 6.616 38.18-9.66 70.838-45.157 67.64-86.141-2.923-37.438-30.932-54.751-63.556-64.996-32.683-10.258-48.946-26.188-59.609-58.862-9.471-29.025-23.567-54.134-55.6-61.414-18.72-4.252-38.531-.972-55.78 9.243-16.816 9.961-30.135 25.818-37.503 44.652-3.533 9.03 10.436 14.497 13.969 5.465 6.155-15.732 17.229-28.948 31.179-37.211 13.931-8.252 29.844-10.925 44.811-7.522 28.226 6.416 37.627 30.098 45.81 54.94-7.978 13.119-15.593 38.665 2.505 60.4 16.944 20.352 43.542 18.369 63.775 4.008 27.21 8.566 52.531 20.266 55.044 52.466 2.632 33.696-25.27 62.563-56.364 70.432-26.284 6.651-55.616 1.782-80.668-7.566.605-40.334-29.086-78.869-70.301-81.331-7.621-.614-14.522.208-20.9 2.026-11.401-21.06-18.394-45.068-20.3-69.839-.744-9.673-15.7-8.516-14.956 1.15 2.026 26.331 9.371 51.9 21.339 74.474-9.155 4.981-17.356 11.671-25.429 18.254-28.021 22.846-47.861 27.122-82.948 18.021-48.756-12.65-100.676 4.966-104.219 62.512-1.832 29.748 12.822 59.728 38.243 78.239 42.988 31.584 101.436 40.885 153.648 27.446-.145 18.942 5.704 38.185 17.129 54.42 34.055 48.393 92.945 75.496 151.512 75.496 26.491-.002 52.584-5.469 76.307-16.246 8.829-4.01 2.626-17.666-6.203-13.656-72.74 33.042-164.696 9.223-209.349-54.227-15.058-21.396-18.614-48.891-9.28-71.752 8.027-19.661 24.512-33.127 45.228-36.946 21.076-3.884 39.074 9.353 55.687 20.123 2.373 23.654 17.193 43.894 42.005 45.842 23.666 1.873 41.947-13.296 47.162-35.964 19.666-7.299 39.352-16.009 58.89-7.514 19.039 8.158 31.444 24.211 34.931 45.203 4.983 30-9.917 57.492-32.993 75.625-7.625 5.991 1.641 17.785 9.268 11.795 50.246-36.606 56.757-118.934-5.3-146.412zm-101.769-195.598c-6.717-.575-12.494-3.872-17.662-10.079-8.821-10.594-8.687-21.996-6.376-30.709 8.324 17.774 22.066 30.039 39.985 37.721-4.686 2.028-10.268 3.552-15.947 3.067zm-225.816 102.42c11.711-.279 23.692-3.16 33.91-8.968-1.485 12.102-10.664 19.005-22.221 20.862-11.947 1.92-23.394-1.928-29.351-12.795 4.855.737 10.803 1.2 17.662.901zm142.906 71.187c-8.453-2.469-17.56-3.327-27.692-1.46-31.277 5.347-55.362 30.586-61.047 61.712-51.398 14.604-105.913 5.86-146.394-23.62-21.321-15.526-33.621-40.507-32.101-65.192 3.119-50.657 48.581-58.395 88.834-48.047 6.219 22.965 26.022 35.911 49.564 32.126 23.931-3.846 37.644-23.111 34.649-46.981 17.095-13.307 34.632-31.531 58.194-29.665 20.833 1.674 37.874 13.023 47.986 31.958 11.836 22.164 11.332 49.988-1.313 72.616-3.202 5.723-6.784 11.276-10.68 16.553zm100.249 52.251c-5.75 9.05-14.362 12.98-26.355 12.052-15.438-1.213-22.496-11.472-25.723-20.606 17.102 8.577 35.306 10.321 53.824 5.454-.514 1.03-1.093 2.072-1.746 3.1z"/></g></g></svg>