<svg id="Layer_3" height="512" viewBox="0 0 64 64" width="512" xmlns="http://www.w3.org/2000/svg" data-name="Layer 3"><path d="m4 8h34v46h-34z" fill="#667d8a"/><path d="m4 14h34v34h-34z" fill="#f7c244"/><ellipse cx="21" cy="31" fill="#f3a33a" rx="10" ry="13"/><path d="m2 54h38v6h-38z" fill="#7d909b"/><path d="m2 54v3h33a2 2 0 0 0 2-2v-1z" fill="#94a4ad"/><path d="m20 40h34v22h-34z" fill="#7d909b"/><path d="m20 40v16h26a3 3 0 0 0 3-3v-13z" fill="#94a4ad"/><path d="m20 44h34v14h-34z" fill="#3477cc"/><path d="m49 53v-9h-29v12h26a3 3 0 0 0 3-3z" fill="#4596ec"/><ellipse cx="54" cy="25" fill="#94a4ad" rx="8" ry="15"/><ellipse cx="54" cy="25" fill="#b3bec4" rx="4" ry="10"/><path d="m35.784 54a5.355 5.355 0 0 1 -3.211-1.07l-2.573-1.93 2.573-1.93a5.355 5.355 0 0 1 3.211-1.07 5.351 5.351 0 0 1 3.783 1.567l4.433 4.433v-6l-4.433 4.433a5.351 5.351 0 0 1 -3.783 1.567z" fill="#3477cc"/><path d="m2 2h38v6h-38z" fill="#7d909b"/><path d="m2 2v3h33a2 2 0 0 0 2-2v-1z" fill="#94a4ad"/><path d="m21 18c-5.523 0-10 5.82-10 13a15.543 15.543 0 0 0 2.129 8h8.871a4 4 0 0 0 4-4v-15.247a8.27 8.27 0 0 0 -5-1.753z" fill="#f5b561"/><path d="m63 25c0-8.972-3.953-16-9-16s-9 7.028-9 16c0 6.1 1.83 11.3 4.586 14h-10.586v-30h1a1 1 0 0 0 1-1v-6a1 1 0 0 0 -1-1h-38a1 1 0 0 0 -1 1v6a1 1 0 0 0 1 1h1v44h-1a1 1 0 0 0 -1 1v6a1 1 0 0 0 1 1h17v1a1 1 0 0 0 1 1h34a1 1 0 0 0 1-1v-21.1c4.559-.858 8-7.53 8-15.9zm-10 18h-32v-2h32zm-25.316-4h-7.684a1 1 0 0 0 -1 1v2.687c-4-1.234-7-6.093-7-11.687 0-6.617 4.037-12 9-12s9 5.383 9 12a14.341 14.341 0 0 1 -2.316 8zm-6.684 6h32v12h-32zm9.021-6a16.708 16.708 0 0 0 1.979-8c0-7.72-4.935-14-11-14s-11 6.28-11 14c0 6.835 3.813 12.561 9 13.762v2.238h-14v-32h32v24zm-27.021-36h36v4h-36zm34 6v4h-32v-4zm-32 40h14v4h-14zm-2 10v-4h16v4zm18 2v-2h32v2zm33-22c-3.794 0-7-6.411-7-14s3.206-14 7-14 7 6.411 7 14-3.206 14-7 14z"/><path d="m54 14c-3.248 0-5 5.667-5 11s1.752 11 5 11 5-5.667 5-11-1.752-11-5-11zm0 20c-1.224 0-3-3.506-3-9s1.776-9 3-9 3 3.506 3 9-1.776 9-3 9z"/><path d="m44.383 47.076a1 1 0 0 0 -1.09.217l-2.293 2.293-.726-.726a6.348 6.348 0 0 0 -8.3-.589l-2.574 1.929a1 1 0 0 0 0 1.6l2.573 1.929a6.382 6.382 0 0 0 3.81 1.271 6.313 6.313 0 0 0 4.491-1.86l.726-.726 2.293 2.293a1 1 0 0 0 1.707-.707v-6a1 1 0 0 0 -.617-.924zm-12.716 3.924 1.507-1.13a4.12 4.12 0 0 1 .488-.307 3.226 3.226 0 0 1 0 2.875 4.189 4.189 0 0 1 -.489-.308zm7.193.725a4.324 4.324 0 0 1 -3.077 1.275c-.061 0-.122-.012-.183-.015a5.125 5.125 0 0 0 0-3.97c.061 0 .122-.015.183-.015a4.327 4.327 0 0 1 3.077 1.274l.726.726zm4.14-.139-.586-.586.586-.586z"/></svg>