<?xml version="1.0" encoding="UTF-8"?>
<svg xmlns="http://www.w3.org/2000/svg" id="Layer_3" data-name="Layer 3" viewBox="0 0 64 64" width="512" height="512"><path d="M63,25c0-8.972-3.953-16-9-16s-9,7.028-9,16c0,6.1,1.83,11.3,4.586,14H39V9h1a1,1,0,0,0,1-1V2a1,1,0,0,0-1-1H2A1,1,0,0,0,1,2V8A1,1,0,0,0,2,9H3V53H2a1,1,0,0,0-1,1v6a1,1,0,0,0,1,1H19v1a1,1,0,0,0,1,1H54a1,1,0,0,0,1-1V40.9C59.559,40.042,63,33.37,63,25ZM53,43H21V41H53ZM27.684,39H20a1,1,0,0,0-1,1v2.687C15,41.453,12,36.594,12,31c0-6.617,4.037-12,9-12s9,5.383,9,12A14.341,14.341,0,0,1,27.684,39ZM21,45H53V57H21Zm9.021-6A16.708,16.708,0,0,0,32,31c0-7.72-4.935-14-11-14S10,23.28,10,31c0,6.835,3.813,12.561,9,13.762V47H5V15H37V39ZM3,3H39V7H3ZM37,9v4H5V9ZM5,49H19v4H5ZM3,59V55H19v4Zm18,2V59H53v2ZM54,39c-3.794,0-7-6.411-7-14s3.206-14,7-14,7,6.411,7,14S57.794,39,54,39Z"/><path d="M54,14c-3.248,0-5,5.667-5,11s1.752,11,5,11,5-5.667,5-11S57.248,14,54,14Zm0,20c-1.224,0-3-3.506-3-9s1.776-9,3-9,3,3.506,3,9S55.224,34,54,34Z"/><path d="M44.383,47.076a1,1,0,0,0-1.09.217L41,49.586l-.726-.726a6.348,6.348,0,0,0-8.3-.589L29.4,50.2a1,1,0,0,0,0,1.6l2.573,1.929A6.382,6.382,0,0,0,35.783,55a6.313,6.313,0,0,0,4.491-1.86L41,52.414l2.293,2.293A1,1,0,0,0,45,54V48A1,1,0,0,0,44.383,47.076ZM31.667,51l1.507-1.13a4.12,4.12,0,0,1,.488-.307,3.226,3.226,0,0,1,0,2.875,4.189,4.189,0,0,1-.489-.308Zm7.193.725A4.324,4.324,0,0,1,35.783,53c-.061,0-.122-.012-.183-.015a5.125,5.125,0,0,0,0-3.97c.061,0,.122-.015.183-.015a4.327,4.327,0,0,1,3.077,1.274l.726.726ZM43,51.586,42.414,51,43,50.414Z"/></svg>
