<svg id="Capa_1" enable-background="new 0 0 512 512" height="512" viewBox="0 0 512 512" width="512" xmlns="http://www.w3.org/2000/svg"><g><g><g><path d="m449.909 149.772c-6.029-2.339-12.385-3.525-18.895-3.525-9.337 0-18.656 2.498-26.952 7.223-8.515 4.859-16.31 11.668-22.538 19.689-13.944 17.938-20.193 40.163-23.681 55.321l-1.039 4.516 3.999-2.342c10.452-6.121 22.583-9.356 35.081-9.356 12.169 0 23.913 3.098 33.963 8.958.354.206.605.537.708.93.101.387.046.788-.158 1.135-.277.474-.768.757-1.315.757-.268 0-.524-.07-.76-.208-9.621-5.611-20.848-8.577-32.468-8.577-14.37 0-28.349 4.566-39.364 12.857l-.609.458-.149.747c-7.541 37.633-9.963 78.16-7.406 123.898l.178 3.184 2.789-1.547c9.973-5.532 21.431-8.456 33.135-8.456 8.672 0 17.02 1.582 24.813 4.704.777.31 1.157 1.194.85 1.961-.237.585-.793.963-1.417.963-.189 0-.376-.036-.555-.108-7.465-2.989-15.448-4.505-23.73-4.505-12.456 0-24.436 3.417-34.645 9.882l-1.006.637.08 1.188c1.387 20.597 3.825 42.855 7.247 66.158 1.818 12.378 3.739 23.44 8.868 33.459 5.727 11.222 15.136 19.027 25.168 20.878 1.582.293 3.229.441 4.894.441 10.469 0 21.448-5.694 29.369-15.23 8.42-10.138 12.925-22.836 17.167-36.05 1.112-3.477 2.215-6.985 3.297-10.513l.331-1.079-.753-.841c-8.765-9.797-20.062-14.974-32.67-14.974-2.107 0-4.263.15-6.4.446-.07.009-.14.014-.208.014-.755 0-1.401-.563-1.503-1.321-.056-.396.048-.79.292-1.11.246-.324.603-.534 1.001-.589 2.207-.304 4.438-.458 6.632-.458 11.983 0 23.457 4.647 32.306 13.085l2.363 2.253.934-3.128c10.35-34.668 19.132-71.362 26.101-109.061l.24-1.298-1.099-.731c-12.067-8.027-26.815-12.448-41.528-12.448-5.623 0-11.197.638-16.565 1.896-.115.027-.232.04-.349.04-.706 0-1.31-.48-1.47-1.167-.092-.395-.025-.802.188-1.146.212-.342.545-.581.941-.673 5.591-1.311 11.396-1.976 17.257-1.976 14.468 0 28.557 3.93 40.747 11.366l2.498 1.524.513-2.88c3.546-19.912 6.643-40.363 9.205-60.783 2.599-20.71 4.426-40.864-1.691-59.746-5.225-16.158-16.973-28.821-32.232-34.742z" fill="#f79f3e"/><path d="m276.297 146.577c-4.157-1.042-8.428-1.57-12.697-1.57-11.61 0-22.793 3.772-32.339 10.91-7.836 5.863-14.727 13.585-19.931 22.329-11.624 19.542-15.07 42.359-16.651 57.82l-.471 4.607 3.677-2.815c11.932-9.137 26.992-14.168 42.404-14.168 9.173 0 17.942 1.759 26.067 5.23.766.327 1.123 1.218.794 1.989-.237.559-.781.919-1.386.919-.202 0-.4-.042-.598-.127-7.782-3.322-16.173-5.007-24.94-5.007-17.202 0-33.902 6.615-45.818 18.149l-.547.53-.056.76c-2.824 38.297-.211 78.812 7.987 123.858l.571 3.138 2.576-1.881c11.5-8.396 25.825-13.02 40.337-13.02 5.7 0 11.318.716 16.701 2.13.391.102.718.35.921.697.205.35.26.759.158 1.152-.174.665-.776 1.13-1.465 1.13-.128 0-.256-.017-.382-.05-5.148-1.352-10.52-2.037-15.966-2.037-15.184 0-29.848 5.188-41.294 14.608l-.919.757.227 1.169c3.941 20.298 9.114 42.081 15.376 64.743 3.325 12.035 6.594 22.758 12.944 32.112 7.081 10.427 17.383 17.008 27.557 17.603.507.03 1.016.044 1.526.044 11.415 0 23.158-7.27 30.647-18.974 7.087-11.077 9.991-24.242 12.572-37.892.671-3.596 1.333-7.213 1.974-10.839l.196-1.113-.852-.743c-8.375-7.299-18.349-11.158-28.843-11.158-3.878 0-7.827.529-11.748 1.575-.128.035-.26.053-.39.053-.678 0-1.274-.464-1.452-1.13-.104-.39-.05-.798.153-1.148.202-.35.529-.599.921-.704 4.065-1.085 8.207-1.635 12.313-1.635 9.987 0 19.629 3.233 27.882 9.35l2.624 1.944.54-3.221c5.979-35.659 10.156-73.158 12.414-111.456l.078-1.318-1.181-.589c-10.215-5.099-21.775-7.794-33.431-7.794-8.85 0-17.438 1.516-25.524 4.506-.17.063-.346.094-.523.094-.631 0-1.201-.397-1.419-.988-.289-.783.113-1.654.898-1.943 8.402-3.109 17.333-4.686 26.543-4.686 11.099 0 22.221 2.37 32.161 6.853l2.666 1.202.153-2.92c1.067-20.306 1.613-40.993 1.623-61.486.01-20.875-.675-41.1-9.068-59.069-7.199-15.393-20.425-26.504-36.29-30.48z" fill="#f79f3e"/><path d="m156.119 237.609-.609-.458c-11.02-8.291-25.002-12.857-39.369-12.857-11.618 0-22.847 2.966-32.478 8.58-.231.136-.483.204-.748.204h-.001c-.537 0-1.04-.29-1.314-.762-.201-.343-.256-.744-.155-1.131.103-.393.354-.724.708-.93 10.05-5.86 21.793-8.958 33.959-8.958 12.496 0 24.628 3.235 35.085 9.356l3.998 2.34-1.039-4.515c-3.488-15.158-9.737-37.383-23.68-55.32-6.229-8.022-14.023-14.831-22.54-19.691-8.294-4.725-17.613-7.222-26.95-7.222-6.499 0-12.855 1.186-18.895 3.525-15.259 5.922-27.007 18.584-32.23 34.74-6.117 18.882-4.291 39.036-1.691 59.747 2.563 20.421 5.66 40.871 9.205 60.783l.513 2.88 2.498-1.524c12.189-7.436 26.279-11.366 40.747-11.366 5.861 0 11.666.665 17.26 1.976.393.091.726.33.938.672.213.344.28.751.188 1.145-.16.687-.765 1.167-1.47 1.167-.116 0-.233-.014-.346-.04-5.37-1.258-10.944-1.896-16.567-1.896-14.713 0-29.461 4.421-41.528 12.448l-1.099.731.24 1.298c6.969 37.699 15.75 74.393 26.101 109.061l.934 3.127 2.362-2.251c8.858-8.438 20.333-13.085 32.311-13.085 2.191 0 4.421.154 6.622.457.403.057.761.266 1.006.59.244.32.347.715.29 1.123-.101.746-.745 1.309-1.499 1.309-.07 0-.141-.005-.205-.013-2.143-.296-4.298-.447-6.406-.447-12.608 0-23.905 5.178-32.67 14.974l-.752.841.331 1.079c1.083 3.527 2.185 7.035 3.298 10.514 4.242 13.212 8.746 25.91 17.166 36.048 7.922 9.537 18.901 15.23 29.369 15.23 1.666 0 3.312-.148 4.893-.441 10.033-1.851 19.442-9.656 25.168-20.876 5.129-10.022 7.051-21.084 8.868-33.461 3.403-23.174 5.841-45.432 7.247-66.157l.081-1.188-1.006-.637c-10.209-6.464-22.19-9.882-34.645-9.882-8.282 0-16.266 1.516-23.729 4.505-.18.072-.367.108-.556.108-.624 0-1.18-.378-1.414-.955-.311-.775.069-1.659.847-1.97 7.798-3.123 16.15-4.707 24.824-4.707 11.703 0 23.157 2.925 33.123 8.459l2.79 1.549.178-3.186c2.557-45.738.134-86.265-7.406-123.898z" fill="#f79f3e"/><g fill="#94c668"><path d="m502.531 43.4c-1.254-.738-2.702-1.112-4.304-1.112-4.267 0-8.888 2.664-12.013 4.898-28.866 20.613-47.063 55.534-47.489 91.136l3.914.603c6.122-20.228 15.369-39.255 27.482-56.548.287-.408.755-.652 1.251-.652.309 0 .607.095.869.279.68.475.844 1.42.367 2.103-12.457 17.781-21.822 37.377-27.843 58.278l-.926 2.307 2.148.6.545.162 1.26.348.825-1.015c18.978-23.353 35.383-47.49 53.189-78.26 2.47-4.259 4.557-8.129 5.075-12.348.473-3.815-.69-8.629-4.35-10.779z"/><path d="m449.423 85.02.244-.462-.013-.522c-.005-.188.017-.344.075-.511 4.929-14.576 9.188-27.94 11.377-43.89 1.251-9.116-.069-14.891-4.033-17.649-1.467-1.029-3.301-1.573-5.303-1.573-2.314 0-4.825.723-6.888 1.984-4.062 2.481-6.869 6.639-9.08 10.381-10.175 17.253-15.146 33.922-14.777 49.545l.005.202.045.197c4.39 19.163 6.937 38.872 7.571 58.579l.063 1.954 2.438-.021c.821 0 1.643.02 2.471.06l2.128.103-.032-2.13c-.289-19.292 4.451-38.742 13.709-56.247z"/><path d="m418.24 83.906-.083-.185c-.091-.201-.139-.396-.143-.579l-.009-.499-.103-.211c-2.19-9.448-4.851-18.853-7.91-27.952-1.517-4.54-3.118-8.909-6.009-12.453-1.049-1.282-4.885-5.465-10.192-5.465-.333 0-.668.017-1.005.052-5.762.606-9.841 6.288-11.737 11.405-2.588 6.988-3.076 15.354-1.41 24.196 1.608 8.533 5.004 16.706 8.113 23.574 7.391 16.355 16.399 32.163 26.776 46.985l3.506-1.862-20.439-53.369c-.297-.78.097-1.66.874-1.959.175-.067.357-.101.541-.101.631 0 1.183.381 1.409.978l21.331 55.701 3.867-.78c-.621-19.241-3.087-38.512-7.328-57.278z"/><path d="m315.344 34.508c-.993-.429-2.075-.647-3.216-.647-4.572 0-9.327 3.492-12.512 6.422-26.089 24.041-39.819 60.947-35.833 96.318l3.959.114c3.582-20.867 10.404-40.894 20.277-59.525.264-.498.775-.807 1.335-.807.248 0 .488.06.708.177.739.393 1.022 1.312.633 2.048-10.156 19.171-17.022 39.773-20.404 61.203-.012.068-.027.133-.047.194l-.743 2.235 4.195.669.702-1.123c15.945-25.518 29.237-51.499 43.095-84.24 1.926-4.533 3.52-8.631 3.509-12.883 0-3.845-1.751-8.478-5.658-10.155z"/><path d="m267.801 82.384.186-.489-.078-.517c-.028-.188-.026-.349.011-.521 3.087-15.033 5.658-28.792 5.861-44.96.11-9.186-1.912-14.753-6.188-17.024-1.236-.651-2.626-.981-4.131-.981-2.686 0-5.647 1.087-7.918 2.906-3.734 2.974-6.003 7.447-7.73 11.431-7.958 18.381-10.829 35.534-8.533 50.98l.029.2.069.19c6.725 18.47 11.692 37.714 14.764 57.199l.306 1.939 1.945-.27c.87-.121 1.801-.218 2.932-.307l2.118-.166-.293-2.104c-2.668-19.124-.369-39.01 6.65-57.506z"/><path d="m236.703 85.099-.103-.17c-.107-.177-.177-.362-.204-.537l-.025-.164-.012-.037-.018-.1-.064-.175c-3.357-9.164-7.188-18.234-11.384-26.955-2.065-4.317-4.192-8.455-7.508-11.628-2.79-2.65-6.361-4.231-9.552-4.231-.758 0-1.508.085-2.226.253-5.644 1.306-8.988 7.454-10.236 12.771-1.702 7.241-1.152 15.602 1.593 24.181 2.665 8.284 7.04 15.967 10.967 22.391 9.357 15.313 20.252 29.885 32.383 43.309l3.249-2.282-26.883-50.438c-.191-.354-.231-.762-.114-1.148.118-.389.381-.71.732-.898.221-.118.458-.177.706-.177.566 0 1.085.31 1.35.802l28.051 52.642 3.741-1.251c-2.999-19.036-7.835-37.867-14.375-55.97z"/><path d="m119.216 36.615c-.336-.035-.671-.052-1.004-.052-5.309 0-9.144 4.183-10.196 5.467-2.873 3.522-4.485 7.897-6.017 12.449-3.082 9.198-5.757 18.674-7.952 28.165l-.042.272-.008.187c-.008.209-.06.42-.154.628l-.084.185-.044.198c-4.242 18.767-6.707 38.034-7.328 57.268l3.867.78 21.333-55.708c.224-.59.775-.971 1.406-.971.184 0 .366.034.535.099.782.301 1.177 1.181.88 1.958l-20.44 53.371 3.506 1.862c10.376-14.821 19.385-30.629 26.775-46.984 3.11-6.869 6.505-15.041 8.113-23.575 1.667-8.842 1.179-17.208-1.41-24.196-1.896-5.115-5.975-10.797-11.736-11.403z"/><path d="m90.97 82.525.005-.202c.369-15.623-4.603-32.293-14.778-49.546-2.21-3.74-5.017-7.898-9.076-10.378-2.058-1.262-4.568-1.985-6.888-1.985-2.004 0-3.839.544-5.3 1.569-3.97 2.763-5.291 8.538-4.039 17.654 2.189 15.95 6.448 29.314 11.384 43.91.051.146.073.303.068.491l-.013.522.244.462c9.258 17.505 13.999 36.955 13.708 56.247l-.032 2.13 2.128-.103c.829-.04 1.65-.06 2.471-.06l2.438.021.063-1.954c.634-19.718 3.181-39.427 7.571-58.579z"/><path d="m25.788 47.187c-3.126-2.235-7.747-4.899-12.014-4.899-1.603 0-3.051.375-4.303 1.111-3.662 2.151-4.824 6.965-4.352 10.779.518 4.221 2.605 8.09 5.074 12.348 17.807 30.772 34.211 54.909 53.19 78.262l.825 1.015 1.26-.348.545-.162 2.148-.6-.934-2.34c-6.013-20.868-15.378-40.464-27.833-58.243-.479-.686-.315-1.631.372-2.11.255-.18.554-.275.863-.275.496 0 .963.244 1.248.648 12.116 17.298 21.363 36.325 27.485 56.553l3.914-.603c-.427-35.603-18.624-70.524-47.488-91.136z"/></g><path d="m25.264 194.413c-1.931 14.411.16 29.027 2.361 43.399 6.421 41.926 13.806 83.705 22.147 125.292 6.236 31.089 13.07 62.28 25.373 91.504 4.991 11.855 11.649 24.139 23.251 29.693 7.484 3.583 25.785 8.495 28.922-3.361 1.246-4.71-2.229-9.232-5.381-12.948-6.599-7.782-12.917-16.183-15.685-26.003-2.768-9.821-1.319-21.408 5.981-28.537.886-.865 1.93-1.863 1.794-3.094-.089-.809-.684-1.463-1.286-2.01-6.511-5.924-17.385-6.836-21.552-14.59-3.895-7.248.528-16.219 6.084-22.288 10.861-11.865 26.542-19.184 42.613-19.888-17.545-2.493-34.755-7.337-51.024-14.361-3.689-1.593-7.499-3.433-9.827-6.709-4.376-6.158-1.826-14.928 2.632-21.027 12.23-16.728 29.148-11.913 46.743-8.633-9.97-6.196-21.805-8.479-32.761-12.693-10.956-4.213-21.944-11.427-25.301-22.676-2.941-9.855.896-20.883 7.945-28.371s16.863-11.844 26.835-14.355c5.993-1.509 12.137-2.421 18.31-2.717-14.162-5.855-29.22-10.134-41.755-18.95-7.723-5.432-14.4-13.038-17.781-21.937-1.529-4.025-2.702-8.757-2.243-13.099.434-4.108 2.592-7.667 2.215-11.979-.646-7.397-10.718-.709-15.604 1.663-5.06 2.456-8.595 5.597-11.883 10.176-6.052 8.431-9.747 18.23-11.123 28.499z" fill="#ea8c2f"/><path d="m244.173 196.807c2.611 15.651 17.638 25.656 31.29 33.741-11.759-3.779-24.636 2.35-33.525 10.926-8.756 8.447-15.249 21.51-10.344 32.643 5.255 11.93 20.224 15.391 33.114 17.34l26.727 4.041c-18.358 7.942-37.591 16.564-49.443 32.677-6.157 8.371-9.576 20.911-2.62 28.63 2.528 2.805 6.045 4.486 9.504 6.002 10.006 4.386 20.353 7.995 30.916 10.782-9.493 2.53-17.93 8.813-23.073 17.184-1.669 2.717-3.035 5.828-2.683 8.997.538 4.841 4.935 8.405 9.495 10.116 4.56 1.712 9.52 2.127 14.103 3.776 2.402.864 4.975 2.46 5.262 4.997.25 2.203-1.329 4.138-2.724 5.861-11.399 14.083-16.339 33.193-13.193 51.036.839 4.757 2.225 9.571 1.44 14.337-.786 4.766-4.658 9.502-9.479 9.203-2.858-.177-5.305-2.022-7.536-3.818-6.215-5.003-12.287-10.257-17.37-16.407-12.482-15.102-18.211-34.556-22.815-53.6-13.757-56.903-20.196-115.572-19.107-174.104.357-19.221 1.633-38.909 9.349-56.516 6.358-14.508 17.238-26.861 30.463-35.507 3.707-2.424 15.791-11.099 20.335-9.118 5.289 2.306.739 11.715-.774 15.173-4.333 9.9-9.164 20.505-7.312 31.608z" fill="#ea8c2f"/><path d="m420.249 197.275c2.106 17.556 14.743 33.429 31.38 39.417-18.381-4.731-39.21 1.973-51.381 16.538-3.042 3.64-5.644 7.944-5.885 12.681-.433 8.501 6.655 15.442 13.829 20.024 10.241 6.541 21.88 10.882 33.902 12.645-17.632-.232-33.731 9.993-46.81 21.821-6.854 6.198-13.733 14.532-11.966 23.602 1.734 8.897 10.873 14.013 19.045 17.935 4.865 2.334 9.729 4.668 14.593 7.002-10.136 4.603-19.135 11.685-25.993 20.455-1.988 2.542-3.882 5.523-3.58 8.736.514 5.464 6.684 8.228 11.914 9.89 9.078 2.885 18.156 5.77 27.235 8.656-19.354 9.179-31.243 31.946-27.715 53.074.995 5.959 2.975 12.518-.144 17.693-3.514 5.829-12.224 6.589-18.161 3.261s-9.631-9.525-12.617-15.641c-21.6-44.237-19.694-95.756-19.147-144.982.538-48.464-.129-99.365 22.825-142.052 6.693-12.446 15.477-24.059 27.134-32.048 6.853-4.696 33.108-18.378 34.016-1.48.356 6.625-6.294 12.468-8.788 18.279-3.292 7.67-4.682 16.189-3.686 24.494z" fill="#ea8c2f"/><path d="m33.291 103.177c-5.242-7.039-10.762-13.915-15.107-21.54-5.19-9.106-8.6-19.097-11.98-29.018-.512-1.503-1.031-3.073-.819-4.646s1.4-3.137 2.985-3.215c1.334-.065 2.48.882 3.466 1.783 15.059 13.763 27.784 30.061 37.55 47.969 4.903 8.992 9.232 18.444 12.404 28.193.923 2.838 3.844 8.423.613 10.634-2.249 1.54-6.416-.109-8.346-1.414-4.281-2.894-6.95-9.105-9.8-13.291-3.556-5.222-7.193-10.388-10.966-15.455z" fill="#78ad45"/><path d="m66.128 84.976c-2.002-3.363-4.514-6.404-6.464-9.797-4.215-7.336-5.595-15.92-6.646-24.315-.756-6.035-1.381-12.086-1.873-18.148-.24-2.952-.431-6.03.686-8.773.277-.681.668-1.367 1.319-1.71 1.187-.626 2.622.142 3.65 1.004 2.571 2.156 4.463 5.006 6.119 7.924 5.886 10.369 9.21 21.99 11.715 33.647 4.897 22.79 6.848 46.209 5.802 69.495-.11 2.445.226 10.84-3.816 11.199-2.093.186-1.984-1.765-2.166-3.556-.766-7.547.25-15.311-.398-22.937-.987-11.607-1.825-23.781-7.928-34.033z" fill="#78ad45"/><path d="m119.388 105.473c5.103-10.772 9.804-21.886 11.752-33.645s.946-24.331-4.841-34.751c-.645 8.269-2.971 16.316-5.695 24.15-4.129 11.877-9.193 23.405-14.25 34.917-7.083 16.122-15.828 32.266-21.603 48.871 7.376-2.763 15.227-2.457 19.574-9.807 5.617-9.499 10.342-19.769 15.063-29.735z" fill="#78ad45"/><path d="m197.177 45.467c-2.017 8.697-3.592 17.658-2.543 26.523 2.003 16.925 13.138 31.16 23.847 44.418 7.638 9.457 15.277 18.914 22.915 28.371.504.624 1.109 1.302 1.911 1.333.884.035 1.566-.72 2.182-1.355 2.984-3.074 7.32-4.541 11.591-4.866 4.272-.325 8.547.384 12.773 1.09-16.092-16.006-27.932-35.684-41.611-53.796-8.721-11.547-18.511-23.07-21.672-37.191-.766-3.422-1.192-7.099-3.336-9.874-3.587 3.207-6.226 7.46-7.506 12.098" fill="#78ad45"/><path d="m239.141 82.8c-.913-4.01-1.776-8.067-1.797-12.179-.028-5.583 1.496-11.056 3.328-16.33 4.349-12.519 10.515-24.405 18.244-35.172-2.404 3.349-2.117 12.123-2.519 16.184-.538 5.437-.798 10.898-.897 16.36-.205 11.254.302 22.504.607 33.752.305 11.233.438 22.496-.521 33.703-.18 2.104.439 8.362-2.456 7.418-1.969-.643-3.667-6.686-4.3-8.364-4.286-11.353-6.999-23.559-9.689-35.372z" fill="#78ad45"/><path d="m320.998 36.143c-1.614 27.359-15.435 52.273-28.45 76.392-4.887 9.057-9.822 18.36-17.091 25.774-1.664 1.697-4.289 5.285-6.465 2.849-1.531-1.713-.317-6.557.072-8.471 2.038-10.022 8.843-19.354 13.679-28.217 5.818-10.662 11.718-21.28 17.66-31.874 6.827-12.173 13.711-24.313 20.595-36.453z" fill="#78ad45"/><path d="m383.673 40.031c-2.695 4.411-4.19 9.475-4.924 14.591-2.708 18.864 4.615 37.667 13.12 54.722 5.298 10.624 11.124 21.007 17.896 30.758 1.74 2.505 4.158 5.255 7.184 4.871 1.233-.156 2.329-.833 3.382-1.494 2.798-1.755 5.596-3.51 8.393-5.265-1.699-.581-2.602-2.386-3.331-4.027-7.086-15.937-14.175-31.881-20.493-48.137-6.471-16.651-12.207-34.19-10.893-52.006-1.226 2.391-2.243 4.889-3.037 7.456" fill="#78ad45"/><path d="m426.421 121.6c-1.003-8.052-2.005-16.106-3.294-24.118-1.004-6.238-2.186-12.523-1.774-18.827.381-5.823 2.111-11.468 3.994-16.991 4.633-13.584 10.377-27.006 19.293-38.253-4.722 18.26-6.885 37.18-6.407 56.035.476 18.774 3.533 37.792-.315 56.173-.456 2.178-1.148 4.542-3.015 5.754-1.867 1.211-5.1.152-5.001-2.071" fill="#78ad45"/><path d="m466.463 92.252c8.182-13.065 16.649-26.103 27.457-37.095 2.676-2.721 5.959-5.489 9.767-5.237.66.044 1.355.202 1.821.671.657.662.662 1.713.586 2.643-1.039 12.737-9.001 23.688-16.429 34.086-11.893 16.648-23.145 33.745-34.236 50.938-1.644 2.549-9.03 11.056-11.939 4.942-1.557-3.271 3.087-12.568 4.257-15.686 4.689-12.501 11.655-23.989 18.716-35.262z" fill="#78ad45"/></g></g><g><path d="m317.126 174.934c-7.469-15.984-20.943-27.719-37.203-32.55 15.498-25.049 28.586-50.765 42.189-82.887 2.142-5.057 3.915-9.665 3.906-14.853-.009-5.478-2.697-12.162-8.682-14.749-4.299-1.857-11.452-2.203-21.112 6.696-7.493 6.903-13.982 14.769-19.389 23.303 1.115-7.655 1.852-15.464 1.956-23.942.051-4.137.205-16.727-8.858-21.515-5.202-2.749-12.243-1.769-17.52 2.436-4.594 3.661-7.227 8.805-9.197 13.354-5.173 11.942-8.278 23.422-9.319 34.329-1.439-3.281-2.929-6.542-4.483-9.777-2.197-4.575-4.669-9.352-8.571-13.073-4.774-4.552-10.894-6.512-16.372-5.24-6.694 1.552-11.922 7.724-13.985 16.51-1.911 8.136-1.32 17.423 1.708 26.86 2.815 8.776 7.371 16.792 11.457 23.476 9.453 15.464 20.394 30.105 32.52 43.585-2.731 1.451-5.38 3.114-7.912 5.007-8.358 6.249-15.702 14.471-21.237 23.776-12.752 21.437-16.268 46.562-17.905 66.056-4.962 59.066 2.882 123.297 24.685 202.139 3.324 12.018 6.867 23.629 13.622 33.583 7.945 11.709 19.69 19.109 31.418 19.794.658.039 1.31.057 1.957.057 15.527 0 28.049-10.83 34.735-21.287 7.58-11.854 10.602-25.524 13.269-39.658 7.896-41.838 13.185-85.832 15.846-131.404.017-.029.038-.055.054-.085.536-.979.541-2.096.135-3.049 1.2-21.565 1.814-43.48 1.829-65.689.014-21.463-.705-42.292-9.541-61.203zm-16.158-133.195c3.116-2.871 9.024-7.393 13.592-5.418 3.056 1.321 4.453 5.246 4.459 8.334.006 3.868-1.514 7.774-3.352 12.113-13.828 32.652-27.099 58.593-42.96 83.972-.195-.031-.389-.065-.584-.095.05-.16.097-.32.124-.49 3.347-21.232 10.144-41.629 20.203-60.625.904-1.708.253-3.826-1.456-4.731-1.708-.905-3.826-.253-4.731 1.456-10.011 18.905-16.894 39.153-20.495 60.218-3.969-34.9 9.314-70.889 35.2-94.734zm-51.329-8.731c1.627-3.757 3.748-7.961 7.137-10.661 2.525-2.011 6.695-3.406 9.888-1.721 3.553 1.877 5.23 6.862 5.128 15.24-.195 15.96-2.752 29.634-5.822 44.584-.085.414-.081.824-.022 1.219-7.025 18.508-9.528 38.723-6.761 58.506-1.03.079-2.057.188-3.081.322-3.096-19.667-8.069-38.932-14.856-57.577-2.243-15.078.571-31.863 8.389-49.912zm-50.781 44.687c-2.64-8.227-3.179-16.222-1.559-23.12 1.112-4.736 3.995-10.188 8.752-11.291 3.738-.867 7.596 1.233 9.96 3.487 3.05 2.908 5.095 6.88 7.092 11.037 4.209 8.76 7.978 17.701 11.313 26.792.004.028.007.056.011.084.074.467.244.892.476 1.272 6.52 18.041 11.307 36.673 14.297 55.688l-28.099-52.716c-.909-1.706-3.031-2.352-4.735-1.442-1.706.909-2.352 3.029-1.442 4.735l26.939 50.538c-12.036-13.311-22.884-27.795-32.241-43.102-3.868-6.329-8.173-13.888-10.764-21.962zm90.776 394.555c-7.41 11.588-19.339 18.652-30.387 18.012-9.57-.559-19.302-6.816-26.034-16.736-6.166-9.086-9.385-19.65-12.667-31.519-6.277-22.696-11.377-44.152-15.345-64.613 15.201-12.516 36.452-17.185 55.5-12.185 1.866.491 3.783-.627 4.274-2.497s-.627-3.783-2.497-4.274c-19.958-5.241-42.096-.932-58.73 11.226-8.218-45.134-10.769-85.415-7.963-123.392 17.784-17.219 45.802-22.481 68.597-12.743 1.778.759 3.834-.066 4.594-1.844.759-1.778-.066-3.835-1.844-4.594-22.995-9.823-50.769-5.909-70.48 9.208 1.809-17.707 5.611-38.936 16.383-57.043 5.071-8.524 11.784-16.045 19.413-21.749 12.659-9.465 28.465-12.75 43.367-9.011 15.284 3.835 28.029 14.551 34.968 29.4 8.228 17.608 8.896 37.593 8.883 58.233-.014 20.744-.563 41.221-1.617 61.399-18.787-8.477-40.881-9.385-60.239-2.225-1.813.67-2.739 2.684-2.069 4.497s2.684 2.739 4.497 2.069c18.505-6.845 39.753-5.606 57.389 3.203-2.257 38.347-6.398 75.55-12.391 111.278-12.175-9.03-27.187-11.982-41.915-8.047-1.868.499-2.977 2.417-2.478 4.285.5 1.868 2.422 2.981 4.285 2.478 13.981-3.734 27.714-.468 38.764 9.172-.639 3.623-1.293 7.235-1.971 10.826-2.534 13.433-5.381 26.385-12.287 37.186z"/><path d="m505.079 39.071c-4.035-2.375-11.089-3.604-21.778 4.03-8.29 5.922-15.702 12.925-22.123 20.724 2.053-7.458 3.752-15.115 4.904-23.515.562-4.099 2.273-16.573-6.127-22.446-4.822-3.371-11.93-3.271-17.688.249-5.012 3.065-8.262 7.843-10.78 12.113-6.611 11.211-11.113 22.217-13.496 32.911-1.021-3.434-2.096-6.854-3.238-10.257-1.615-4.812-3.478-9.86-6.887-14.032-4.174-5.108-10.003-7.817-15.598-7.226-6.835.711-12.786 6.189-15.921 14.652-2.902 7.836-3.466 17.125-1.629 26.864 1.708 9.058 5.237 17.576 8.463 24.714 7.466 16.514 16.512 32.397 26.876 47.274-2.889 1.102-5.724 2.424-8.471 3.989-9.067 5.167-17.372 12.417-24.016 20.966-15.307 19.693-21.905 44.191-25.943 63.333-12.234 58-12.4 122.707-.521 203.639 1.811 12.336 3.889 24.296 9.36 35.012 6.436 12.602 17.175 21.398 28.727 23.529 2.053.379 4.077.556 6.069.556 13.713-.001 25.757-8.395 32.969-17.081 8.988-10.826 13.679-24.015 18.075-37.711 13.014-40.541 23.708-83.546 31.989-128.442.019-.025.044-.042.063-.068.653-.905.797-2.013.512-3.009 3.86-21.251 7.181-42.921 9.944-64.957 2.671-21.294 4.535-42.053-1.893-61.912-5.434-16.785-17.352-30.097-32.888-36.904 18.48-22.939 34.65-46.838 52.123-77.028 2.751-4.753 5.08-9.107 5.714-14.256.668-5.438-1.172-12.404-6.791-15.711zm-67.562-5.29c2.079-3.526 4.704-7.435 8.402-9.696 2.753-1.684 7.065-2.554 10.025-.484 3.294 2.302 4.341 7.457 3.202 15.757-2.168 15.814-6.398 29.066-11.295 43.521-.136.4-.182.807-.172 1.207-9.262 17.497-14.247 37.247-13.95 57.22-1.032-.049-2.064-.068-3.098-.061-.638-19.898-3.189-39.631-7.616-58.974-.359-15.238 4.51-31.546 14.502-48.49zm-55.92 38.06c-1.602-8.491-1.147-16.491 1.314-23.135 1.689-4.561 5.225-9.615 10.082-10.121 3.821-.392 7.385 2.164 9.452 4.694 2.665 3.261 4.203 7.457 5.671 11.83 3.092 9.214 5.726 18.553 7.91 27.987.001.028 0 .056.001.084.016.486.131.945.324 1.36 4.232 18.698 6.673 37.765 7.286 56.99l-21.358-55.787c-.692-1.806-2.717-2.71-4.52-2.017-1.805.691-2.709 2.715-2.017 4.52l20.477 53.484c-10.295-14.698-19.268-30.413-26.658-46.761-3.058-6.761-6.393-14.795-7.964-23.128zm98.663 113.283c5.986 18.491 4.175 38.405 1.608 58.885-2.58 20.574-5.658 40.819-9.199 60.703-17.593-10.735-39.415-14.347-59.505-9.64-1.882.441-3.05 2.324-2.609 4.206s2.324 3.053 4.206 2.609c19.212-4.502 40.142-.642 56.552 10.281-6.986 37.773-15.699 74.177-26.067 108.889-10.963-10.467-25.492-15.255-40.597-13.173-1.915.264-3.253 2.03-2.989 3.945s2.029 3.253 3.945 2.989c14.339-1.975 27.559 2.966 37.331 13.899-1.083 3.516-2.178 7.019-3.296 10.499-4.178 13.016-8.606 25.516-16.795 35.379-8.787 10.582-21.498 16.122-32.382 14.113-9.427-1.739-18.311-9.152-23.763-19.829-4.994-9.78-6.881-20.661-8.669-32.845-3.419-23.298-5.825-45.219-7.23-66.013 16.633-10.538 38.301-12.543 56.582-5.225 1.794.719 3.832-.153 4.55-1.948.719-1.795-.153-3.832-1.948-4.55-19.156-7.67-41.658-6.134-59.668 3.871-2.569-45.802-.116-86.089 7.369-123.428 19.779-14.888 48.232-16.64 69.647-4.156 1.67.973 3.814.409 4.787-1.261s.409-3.813-1.261-4.787c-21.6-12.591-49.647-12.145-71.078.415 3.986-17.347 10.387-37.942 23.317-54.577 6.086-7.831 13.678-14.463 21.955-19.18 8.115-4.625 17.053-6.971 25.964-6.971 6.169 0 12.324 1.125 18.184 3.397 14.69 5.698 26.011 17.909 31.059 33.503zm24.662-131.198c-.473 3.84-2.465 7.527-4.825 11.604-17.761 30.689-34.142 54.788-53.022 78.011-.188-.055-.376-.112-.564-.165.068-.152.132-.307.18-.473 5.948-20.653 15.218-40.053 27.55-57.659 1.109-1.583.725-3.766-.859-4.875-1.582-1.109-3.766-.725-4.875.859-12.274 17.522-21.609 36.762-27.79 57.218.381-35.122 18.017-69.191 46.654-89.649 3.447-2.463 9.871-6.219 14.158-3.694 2.869 1.69 3.77 5.758 3.393 8.823z"/><path d="m134.431 170.08c-6.644-8.549-14.949-15.799-24.016-20.966-2.747-1.565-5.581-2.887-8.471-3.989 10.364-14.877 19.41-30.76 26.875-47.273 3.226-7.137 6.755-15.655 8.464-24.714 1.837-9.74 1.273-19.029-1.629-26.865-3.135-8.463-9.088-13.94-15.921-14.652-5.59-.585-11.424 2.119-15.599 7.226-3.409 4.171-5.272 9.219-6.886 14.032-1.142 3.403-2.218 6.823-3.239 10.258-2.383-10.695-6.885-21.702-13.496-32.912-2.518-4.27-5.768-9.048-10.78-12.113-5.757-3.519-12.866-3.619-17.688-.249-8.4 5.873-6.689 18.347-6.127 22.446 1.152 8.401 2.851 16.058 4.904 23.515-6.421-7.799-13.833-14.802-22.123-20.724-10.69-7.636-17.743-6.405-21.778-4.031-5.619 3.308-7.459 10.274-6.79 15.71.634 5.149 2.963 9.503 5.714 14.256 17.474 30.192 33.644 54.091 52.123 77.028-15.537 6.807-27.455 20.119-32.889 36.904-6.428 19.859-4.563 40.617-1.893 61.911 2.763 22.036 6.084 43.706 9.944 64.957-.285.996-.141 2.104.512 3.009.019.026.044.043.063.068 8.281 44.896 18.975 87.9 31.989 128.442 4.396 13.696 9.086 26.885 18.075 37.711 7.213 8.686 19.255 17.081 32.969 17.081 1.991 0 4.018-.177 6.07-.556 11.552-2.132 22.291-10.927 28.727-23.529 5.471-10.715 7.55-22.675 9.36-35.012 11.879-80.932 11.713-145.64-.521-203.639-4.038-19.139-10.636-43.637-25.943-63.33zm-30.548-114.972c1.468-4.374 3.006-8.57 5.671-11.83 2.067-2.529 5.638-5.089 9.453-4.694 4.857.506 8.393 5.56 10.082 10.121 2.461 6.644 2.916 14.644 1.314 23.136-1.571 8.334-4.907 16.368-7.963 23.127-7.389 16.347-16.362 32.062-26.658 46.76l20.477-53.484c.692-1.805-.212-3.829-2.017-4.52-1.804-.691-3.829.212-4.52 2.017l-21.359 55.787c.613-19.227 3.055-38.296 7.287-56.993.192-.414.307-.872.323-1.357.001-.028 0-.057.001-.085 2.184-9.433 4.817-18.772 7.909-27.985zm-39.734 27.771c-4.897-14.455-9.127-27.707-11.295-43.521-1.139-8.301-.091-13.455 3.202-15.757 2.961-2.069 7.272-1.2 10.025.483 3.698 2.262 6.322 6.171 8.402 9.697 9.992 16.944 14.861 33.252 14.501 48.489-4.427 19.342-6.977 39.075-7.616 58.973-1.033-.007-2.065.013-3.097.062.297-19.973-4.687-39.723-13.95-57.22.01-.398-.036-.805-.172-1.206zm-57.071-28.953c-.377-3.065.523-7.133 3.393-8.822 4.284-2.524 10.71 1.231 14.158 3.694 28.637 20.458 46.272 54.526 46.654 89.648-6.181-20.456-15.516-39.696-27.79-57.217-1.11-1.584-3.292-1.968-4.875-.859s-1.968 3.292-.859 4.875c12.332 17.606 21.601 37.005 27.551 57.659.048.165.111.32.18.473-.188.053-.376.11-.564.165-18.879-23.221-35.26-47.32-53.022-78.011-2.361-4.078-4.353-7.766-4.826-11.605zm154.607 308.245c-18.011-10.006-40.511-11.542-59.668-3.871-1.795.718-2.667 2.755-1.948 4.55.718 1.795 2.757 2.667 4.55 1.948 18.282-7.318 39.949-5.314 56.582 5.225-1.406 20.793-3.811 42.715-7.23 66.013-1.788 12.184-3.674 23.065-8.669 32.845-5.452 10.677-14.336 18.09-23.763 19.829-10.885 2.007-23.595-3.531-32.382-14.113-8.19-9.863-12.618-22.363-16.795-35.379-1.117-3.48-2.213-6.983-3.296-10.499 9.772-10.932 22.997-15.875 37.331-13.898 1.913.265 3.681-1.075 3.945-2.989.264-1.915-1.074-3.681-2.989-3.945-15.104-2.08-29.633 2.706-40.597 13.173-10.368-34.712-19.082-71.117-26.067-108.889 16.41-10.924 37.342-14.782 56.551-10.281 1.884.445 3.766-.727 4.206-2.609.441-1.882-.727-3.765-2.609-4.206-20.092-4.707-41.913-1.094-59.505 9.64-3.541-19.885-6.619-40.129-9.199-60.703-2.568-20.48-4.378-40.394 1.608-58.884 5.048-15.595 16.369-27.806 31.061-33.502 5.86-2.272 12.014-3.397 18.184-3.397 8.91 0 17.85 2.347 25.964 6.971 8.277 4.716 15.869 11.349 21.955 19.18h.001c12.93 16.635 19.331 37.23 23.317 54.577-21.431-12.561-49.477-13.008-71.079-.415-1.67.974-2.234 3.117-1.261 4.787s3.116 2.234 4.787 1.261c21.416-12.484 49.868-10.731 69.647 4.156 7.483 37.336 9.937 77.623 7.368 123.425z"/></g></g></svg>