<svg id="Filled" height="512" viewBox="0 0 512 512" width="512" xmlns="http://www.w3.org/2000/svg"><path d="m128 88h48v64h-48z" fill="#8fbad9"/><path d="m280 248h32v240h-32z" fill="#c48669"/><path d="m336 56v176a31.964 31.964 0 0 1 -32 32h-16a31.964 31.964 0 0 1 -32-32v-176a32 32 0 0 1 32-32h16a32 32 0 0 1 32 32z" fill="#ffe76c"/><path d="m384 184h32v240h-32z" fill="#c48669"/><path d="m457.15 105.42a120.122 120.122 0 0 0 -14.66-6.41 124.056 124.056 0 0 0 -34.49-7.2q-3.99-.255-8-.26t-8 .26a124.3 124.3 0 0 0 -33.02 6.67 121.59 121.59 0 0 0 -14.74 6.23 124.11 124.11 0 0 0 -32.24 23.29l48 56 16 32h48l16-32 48-56a123.93 123.93 0 0 0 -30.85-22.58z" fill="#c7a552"/><path d="m424 216h-48l-16-32h80z" fill="#b37a60"/><rect fill="#dadcde" height="88" rx="26.7" width="288" x="200" y="400"/><rect fill="#dadcde" height="96" rx="26.705" transform="matrix(-1 0 0 -1 688 704)" width="288" x="200" y="304"/><path d="m488 488h-16l-8-8-8 8h-8-8l-8-8-8 8h-8-8l-8-8-8 8h-8-8l-8-8-8 8h-16v-56h144z" fill="#ffe76c"/><path d="m400 368-16 32h104v32h-144v-32l32-64h112v32z" fill="#c48669"/><path d="m200 232v-96h-96v16l8 16-8 16 8 16-8 16v16l-48 48c-28.5 30.5-32 78.717-32 120v48a40 40 0 0 0 40 40h128a40 40 0 0 0 40-40v-96c0-21.17-32-120-32-120z" fill="#a3d4f7"/><path d="m192 352.53v95.47h-128v-48c0-48 5.54-75.73 24-96h92.12c6.49 22.74 11.3 41.72 11.88 48.53z" fill="#8fbad9"/><path d="m224 104h-96l-24-32h-40v-48h72c49.573 0 73.755 32.517 88 80z" fill="#dadcde"/><path d="m32 32h32v32h-32z" fill="#c3c6c7"/><path d="m192 456h-128a8 8 0 0 1 -8-8v-48c0-44.91 4.364-77.535 26.085-101.387a8 8 0 0 1 5.915-2.613h92.12a8 8 0 0 1 7.693 5.805c5.134 17.99 11.411 41.276 12.158 50.047.019.225.029.452.029.678v95.47a8 8 0 0 1 -8 8zm-120-16h112v-87.1c-.556-5.478-4.208-20.5-9.93-40.9h-82.417c-14.277 17.376-19.653 41.85-19.653 88z"/><path d="m496 336a40.045 40.045 0 0 0 -40-40h-32v-72a8 8 0 0 0 7.155-4.422l15.559-31.118 47.36-55.253a8 8 0 0 0 -.417-10.864 132.679 132.679 0 0 0 -149.657-26.379v-39.964a40.045 40.045 0 0 0 -40-40h-16a40.045 40.045 0 0 0 -40 40v176a40.051 40.051 0 0 0 24 36.65v27.35h-44.227c-7.908-28.2-17.192-57.258-19.773-65.26v-94.74a8 8 0 0 0 -8-8h-24v-16h48a8 8 0 0 0 7.663-10.3c-11.037-36.789-32.963-85.7-95.663-85.7h-72a8 8 0 0 0 -8 8h-24a8 8 0 0 0 -8 8v32a8 8 0 0 0 8 8h24a8 8 0 0 0 8 8h22.987a32.056 32.056 0 0 1 -30.987 24 8 8 0 0 0 0 16 48.077 48.077 0 0 0 46.6-36.528l19 25.328a8 8 0 0 0 6.4 3.2v16h-24a8 8 0 0 0 -8 8v16a7.994 7.994 0 0 0 .845 3.578l6.211 12.422-6.211 12.422a8 8 0 0 0 0 7.156l6.211 12.422-6.211 12.422a7.994 7.994 0 0 0 -.845 3.578v12.686l-45.657 45.657c-.064.064-.127.129-.188.195-30.097 32.209-34.155 81.497-34.155 125.462v48a48.055 48.055 0 0 0 48 48h296a8 8 0 0 0 5.657-2.343l2.343-2.344 2.343 2.344a8 8 0 0 0 5.657 2.343h16a8 8 0 0 0 5.657-2.343l2.343-2.344 2.343 2.344a8 8 0 0 0 5.657 2.343h16a8 8 0 0 0 5.657-2.343l2.343-2.344 2.343 2.344a8 8 0 0 0 5.657 2.343h16a8 8 0 0 0 5.657-2.343l2.343-2.344 2.343 2.344a8 8 0 0 0 5.657 2.343h16a8 8 0 0 0 8-8v-88a8 8 0 0 0 -8-8h-.022a39.788 39.788 0 0 0 8.022-24zm-440-280h-16v-16h16zm420.953 72.6-40.633 47.4h-8.5l25.421-63.551a115.7 115.7 0 0 1 23.712 16.151zm-68.953-28.7a116.829 116.829 0 0 1 30.526 6.242l-27.942 69.858h-2.584zm19.056 92.1-8 16h-38.112l-8-16zm-19.056 32v72h-16v-72zm-32 0v72h-56v-27.35a40.052 40.052 0 0 0 24-36.65v-54.374l9.286 10.834 15.559 31.118a8 8 0 0 0 7.155 4.422zm16-124.1v76.1h-2.584l-27.942-69.856a116.829 116.829 0 0 1 30.526-6.244zm-45.237 12.547 25.421 63.553h-8.5l-40.633-47.4a115.7 115.7 0 0 1 23.712-16.151zm-82.763-56.447a24.027 24.027 0 0 1 24-24h16a24.027 24.027 0 0 1 24 24v4.184l-29.029-11.612a8.008 8.008 0 0 0 -5.942 0l-29.029 11.612zm0 21.416 32-12.8 32 12.8v14.768l-29.029-11.612a8.008 8.008 0 0 0 -5.942 0l-29.029 11.612zm0 32 32-12.8 27.728 11.091a132.273 132.273 0 0 0 -12.327 9.837l-12.43-4.972a8.008 8.008 0 0 0 -5.942 0l-29.029 11.612zm0 32 32-12.8 9.282 3.713a8.026 8.026 0 0 0 .644.878l18.453 21.529-25.408-10.164a8.008 8.008 0 0 0 -5.942 0l-29.029 11.612zm0 32 32-12.8 32 12.8v14.768l-29.029-11.612a8.008 8.008 0 0 0 -5.942 0l-29.029 11.612zm0 32 32-12.8 32 12.8v14.768l-29.029-11.612a8.008 8.008 0 0 0 -5.942 0l-29.029 11.612zm.571 31.772 31.429-12.572 31.429 12.572a24.037 24.037 0 0 1 -23.429 18.812h-16a24.037 24.037 0 0 1 -23.429-18.812zm39.429 34.812v24h-16v-24zm152 40a24.039 24.039 0 0 1 22.624 16h-102.624a8 8 0 0 0 -7.155 4.422l-5.789 11.578h-123.807c-1.229-8.162-3.867-19.54-7.128-32zm-345.6-244.8a8 8 0 0 0 -6.4-3.2h-32v-32h64c37.357 0 61.406 19.84 76.987 64h-80.987zm49.6 44.8v16h-16v-16zm64 336a32.036 32.036 0 0 1 -32 32h-128a32.036 32.036 0 0 1 -32-32v-48c0-40.8 3.538-86.288 29.754-114.44l47.9-47.9a8 8 0 0 0 2.346-5.66v-14.111l7.155-14.311a8 8 0 0 0 0-7.156l-6.211-12.422 6.211-12.422a8 8 0 0 0 0-7.156l-7.155-14.311v-6.111h80v88a7.989 7.989 0 0 0 .389 2.464c12.711 39.245 31.611 102.936 31.611 117.536zm112-16h-64a8 8 0 0 0 0 16h64v32h-108.261a47.806 47.806 0 0 0 12.261-32v-40h96zm-96-40v-32h115.056l-16 32zm240 88h-4.687l-5.656-5.657a8 8 0 0 0 -11.314 0l-5.656 5.657h-9.374l-5.656-5.657a8 8 0 0 0 -11.314 0l-5.656 5.657h-9.374l-5.656-5.657a8 8 0 0 0 -11.314 0l-5.656 5.657h-9.374l-5.656-5.657a8 8 0 0 0 -11.314 0l-5.656 5.657h-4.687v-40h128zm0-120h-80a8 8 0 0 0 -7.155 4.422l-16 32a8 8 0 0 0 7.155 11.578h96v16h-128v-22.111l28.944-57.889h99.056zm-1.376 16a24.039 24.039 0 0 1 -22.624 16h-59.056l8-16z"/></svg>