<?xml version="1.0" encoding="UTF-8"?>
<svg xmlns="http://www.w3.org/2000/svg" id="Outline" viewBox="0 0 512 512" width="512" height="512"><path d="M192,456H64a8,8,0,0,1-8-8V400c0-44.91,4.364-77.535,26.085-101.387A8,8,0,0,1,88,296h92.12a8,8,0,0,1,7.693,5.805c5.134,17.99,11.411,41.276,12.158,50.047.019.225.029.452.029.678V448A8,8,0,0,1,192,456ZM72,440H184V352.9c-.556-5.478-4.208-20.5-9.93-40.9H91.653C77.376,329.376,72,353.85,72,400Z"/><path d="M496,336a40.045,40.045,0,0,0-40-40H424V224a8,8,0,0,0,7.155-4.422l15.559-31.118,47.36-55.253a8,8,0,0,0-.417-10.864A132.679,132.679,0,0,0,344,95.964V56a40.045,40.045,0,0,0-40-40H288a40.045,40.045,0,0,0-40,40V232a40.051,40.051,0,0,0,24,36.65V296H227.773c-7.908-28.2-17.192-57.258-19.773-65.26V136a8,8,0,0,0-8-8H176V112h48a8,8,0,0,0,7.663-10.3C220.626,64.911,198.7,16,136,16H64a8,8,0,0,0-8,8H32a8,8,0,0,0-8,8V64a8,8,0,0,0,8,8H56a8,8,0,0,0,8,8H86.987A32.056,32.056,0,0,1,56,104a8,8,0,0,0,0,16,48.077,48.077,0,0,0,46.6-36.528l19,25.328A8,8,0,0,0,128,112v16H104a8,8,0,0,0-8,8v16a7.994,7.994,0,0,0,.845,3.578L103.056,168l-6.211,12.422a8,8,0,0,0,0,7.156L103.056,200l-6.211,12.422A7.994,7.994,0,0,0,96,216v12.686L50.343,274.343c-.064.064-.127.129-.188.195C20.058,306.747,16,356.035,16,400v48a48.055,48.055,0,0,0,48,48H360a8,8,0,0,0,5.657-2.343L368,491.313l2.343,2.344A8,8,0,0,0,376,496h16a8,8,0,0,0,5.657-2.343L400,491.313l2.343,2.344A8,8,0,0,0,408,496h16a8,8,0,0,0,5.657-2.343L432,491.313l2.343,2.344A8,8,0,0,0,440,496h16a8,8,0,0,0,5.657-2.343L464,491.313l2.343,2.344A8,8,0,0,0,472,496h16a8,8,0,0,0,8-8V400a8,8,0,0,0-8-8h-.022A39.788,39.788,0,0,0,496,368ZM56,56H40V40H56Zm420.953,72.6L436.32,176h-8.5l25.421-63.551A115.7,115.7,0,0,1,476.953,128.6ZM408,99.9a116.829,116.829,0,0,1,30.526,6.242L410.584,176H408ZM427.056,192l-8,16H380.944l-8-16ZM408,224v72H392V224Zm-32,0v72H320V268.65A40.052,40.052,0,0,0,344,232V177.626l9.286,10.834,15.559,31.118A8,8,0,0,0,376,224ZM392,99.9V176h-2.584l-27.942-69.856A116.829,116.829,0,0,1,392,99.9Zm-45.237,12.547L372.184,176h-8.5l-40.633-47.4A115.7,115.7,0,0,1,346.763,112.449ZM264,56a24.027,24.027,0,0,1,24-24h16a24.027,24.027,0,0,1,24,24v4.184L298.971,48.572a8.008,8.008,0,0,0-5.942,0L264,60.184Zm0,21.416,32-12.8,32,12.8V92.184L298.971,80.572a8.008,8.008,0,0,0-5.942,0L264,92.184Zm0,32,32-12.8,27.728,11.091a132.273,132.273,0,0,0-12.327,9.837l-12.43-4.972a8.008,8.008,0,0,0-5.942,0L264,124.184Zm0,32,32-12.8,9.282,3.713a8.026,8.026,0,0,0,.644.878l18.453,21.529-25.408-10.164a8.008,8.008,0,0,0-5.942,0L264,156.184Zm0,32,32-12.8,32,12.8v14.768l-29.029-11.612a8.008,8.008,0,0,0-5.942,0L264,188.184Zm0,32,32-12.8,32,12.8v14.768l-29.029-11.612a8.008,8.008,0,0,0-5.942,0L264,220.184Zm.571,31.772L296,224.616l31.429,12.572A24.037,24.037,0,0,1,304,256H288A24.037,24.037,0,0,1,264.571,237.188ZM304,272v24H288V272Zm152,40a24.039,24.039,0,0,1,22.624,16H376a8,8,0,0,0-7.155,4.422L363.056,344H239.249c-1.229-8.162-3.867-19.54-7.128-32ZM110.4,67.2A8,8,0,0,0,104,64H72V32h64c37.357,0,61.406,19.84,76.987,64H132ZM160,112v16H144V112Zm64,336a32.036,32.036,0,0,1-32,32H64a32.036,32.036,0,0,1-32-32V400c0-40.8,3.538-86.288,29.754-114.44l47.9-47.9A8,8,0,0,0,112,232V217.889l7.155-14.311a8,8,0,0,0,0-7.156L112.944,184l6.211-12.422a8,8,0,0,0,0-7.156L112,150.111V144h80v88a7.989,7.989,0,0,0,.389,2.464C205.1,273.709,224,337.4,224,352Zm112-16H272a8,8,0,0,0,0,16h64v32H227.739A47.806,47.806,0,0,0,240,448V408h96Zm-96-40V360H355.056l-16,32Zm240,88h-4.687l-5.656-5.657a8,8,0,0,0-11.314,0L452.687,480h-9.374l-5.656-5.657a8,8,0,0,0-11.314,0L420.687,480h-9.374l-5.656-5.657a8,8,0,0,0-11.314,0L388.687,480h-9.374l-5.656-5.657a8,8,0,0,0-11.314,0L356.687,480H352V440H480Zm0-120H400a8,8,0,0,0-7.155,4.422l-16,32A8,8,0,0,0,384,408h96v16H352V401.889L380.944,344H480Zm-1.376,16A24.039,24.039,0,0,1,456,392H396.944l8-16Z"/></svg>
