<?xml version="1.0" encoding="iso-8859-1"?>
<!-- Generator: Adobe Illustrator 19.0.0, SVG Export Plug-In . SVG Version: 6.00 Build 0)  -->
<svg version="1.1" id="Capa_1" xmlns="http://www.w3.org/2000/svg" xmlns:xlink="http://www.w3.org/1999/xlink" x="0px" y="0px"
	 viewBox="0 0 512.001 512.001" style="enable-background:new 0 0 512.001 512.001;" xml:space="preserve">
<path style="fill:#81573D;" d="M473.657,267.882c19.047,23.338,30.49,53.151,30.49,85.6c0,74.834-60.68,135.513-135.513,135.513
	c-21.08,0-40.956-4.818-58.722-13.401c-45.472-21.833-76.791-68.359-76.791-122.114c0-74.834,60.68-135.514,135.513-135.514
	C411.02,217.967,448.813,237.391,473.657,267.882z"/>
<path style="fill:#A57050;" d="M474.034,255.61c0,4.141-0.076,8.206-0.377,12.271c-24.844-30.49-62.637-49.915-105.023-49.915
	c-74.834,0-135.513,60.68-135.513,135.513c0,53.754,31.319,100.281,76.791,122.113l-1.506,3.388
	c-21.456,6.55-44.193,10.013-67.757,10.013c-128.889,0-233.385-104.496-233.385-233.385c0-48.258,14.605-93.053,39.676-130.244
	c7.755,6.098,17.466,9.787,28.082,9.787c18.069,0,33.577-10.616,40.805-25.898c9.787,6.776,21.683,10.841,34.481,10.841
	c33.276,0,60.228-26.952,60.228-60.229c0-12.648-3.915-24.317-10.54-34.03c13.175-2.334,26.802-3.614,40.654-3.614
	C369.537,22.226,474.034,126.722,474.034,255.61z"/>
<path style="fill:#81573D;" d="M82.549,255.61c0-48.258,14.605-93.053,39.676-130.244c7.755,6.098,17.466,9.787,28.082,9.787
	c18.069,0,33.577-10.616,40.805-25.898c9.787,6.775,21.683,10.841,34.481,10.841c33.276,0,60.229-26.952,60.229-60.229
	c0-12.648-3.915-24.318-10.54-34.03c1.075-0.19,2.172-0.33,3.252-0.506c-12.335-2.014-24.979-3.108-37.883-3.108
	c-13.852,0-27.479,1.28-40.654,3.614c6.625,9.712,10.54,21.381,10.54,34.03c0,33.276-26.952,60.229-60.228,60.229
	c-12.798,0-24.694-4.066-34.481-10.841c-7.228,15.282-22.736,25.898-40.805,25.898c-10.615,0-20.327-3.688-28.082-9.787
	C21.869,162.557,7.264,207.353,7.264,255.61c0,128.889,104.496,233.385,233.385,233.385c12.787,0,25.301-1.105,37.528-3.085
	C167.248,467.857,82.549,371.639,82.549,255.61z"/>
<g>
	<path style="fill:#A57050;" d="M413.805,285.725c12.497,0,22.586,10.089,22.586,22.586s-10.089,22.586-22.586,22.586
		s-22.586-10.089-22.586-22.586C391.22,295.812,401.308,285.725,413.805,285.725z"/>
	<path style="fill:#A57050;" d="M338.52,368.538c12.497,0,22.586,10.089,22.586,22.586c0,12.497-10.089,22.586-22.586,22.586
		c-12.497,0-22.586-10.089-22.586-22.586S326.023,368.538,338.52,368.538z"/>
</g>
<g>
	<path style="fill:#81573D;" d="M278.292,97.51c12.497,0,22.586,10.089,22.586,22.586s-10.089,22.586-22.586,22.586
		c-12.497,0-22.586-10.089-22.586-22.586C255.705,107.599,265.794,97.51,278.292,97.51z"/>
	<path style="fill:#81573D;" d="M142.777,338.424c12.497,0,22.586,10.089,22.586,22.586s-10.089,22.586-22.586,22.586
		c-12.497,0-22.586-10.089-22.586-22.586C120.192,348.513,130.28,338.424,142.777,338.424z"/>
	<path style="fill:#81573D;" d="M127.721,180.325c12.497,0,22.586,10.089,22.586,22.586c0,12.497-10.089,22.586-22.586,22.586
		s-22.586-10.089-22.586-22.586C105.135,190.413,115.223,180.325,127.721,180.325z"/>
</g>
<g>
	<path style="fill:#231F20;" d="M481.672,265.829c0.183-3.655,0.214-7.091,0.214-9.83c0-71.064-31.158-138.161-85.486-184.086
		l-9.759,11.544c49.239,41.624,78.17,101.802,80.029,165.952c-26.343-24.728-61.041-38.611-97.741-38.611
		c-78.89,0-143.073,64.182-143.073,143.073c0,27.443,7.794,54.106,22.539,77.107c11.654,18.179,27.173,33.4,45.38,44.628
		c-17.15,4.129-34.864,6.222-52.832,6.222c-60.318,0-117.026-23.492-159.681-66.146c-42.654-42.655-66.145-99.364-66.145-159.682
		c0-42.664,11.829-83.887,34.282-119.71c7.903,4.475,16.728,6.811,25.916,6.811c17.453,0,33.75-8.809,43.48-22.991
		c9.81,5.211,20.663,7.934,31.804,7.934c37.377,0,67.787-30.409,67.787-67.787c0-9.806-2.106-19.387-6.156-28.214
		c9.601-1.242,19.219-1.869,28.713-1.869c47.376,0,92.723,14.507,131.136,41.957l8.789-12.3
		c-40.992-29.291-89.378-44.774-139.924-44.774c-13.881,0-28.003,1.255-41.973,3.729l-11.517,2.039l6.591,9.662
		c6.035,8.847,9.226,19.142,9.226,29.77c0,29.042-23.628,52.671-52.671,52.671c-10.769,0-21.204-3.284-30.178-9.497l-7.326-5.072
		l-3.809,8.055c-6.197,13.104-19.531,21.571-33.972,21.571c-8.518,0-16.614-2.826-23.409-8.17l-6.393-5.028l-4.547,6.744
		C14.166,161.29,0,207.787,0,255.999c0,64.355,25.064,124.861,70.573,170.371c45.51,45.509,106.015,70.572,170.369,70.572
		c23.944,0,47.484-3.48,69.964-10.344c0,0,37.536,10.344,58.022,10.344c13.505,0,26.875-1.882,39.737-5.595l-4.191-14.524
		c-11.5,3.32-23.459,5.002-35.545,5.002c-19.409,0-38.061-4.256-55.451-12.656c-21.398-10.274-39.504-26.303-52.356-46.352
		c-13.181-20.561-20.149-44.402-20.149-68.948c0-70.555,57.4-127.956,127.956-127.956c38.615,0,74.759,17.179,99.167,47.135
		c18.565,22.746,28.788,51.448,28.788,80.82c0,24.273-6.825,47.891-19.74,68.303c-12.574,19.876-30.331,35.904-51.351,46.352
		l6.729,13.536c23.496-11.68,43.343-29.593,57.396-51.806c14.446-22.832,22.082-49.246,22.082-76.385
		C512,322.022,501.249,290.877,481.672,265.829z"/>
	<path style="fill:#231F20;" d="M248.442,120.486c0,16.621,13.523,30.144,30.144,30.144c16.622,0,30.144-13.523,30.144-30.144
		s-13.522-30.144-30.144-30.144C261.964,90.341,248.442,103.864,248.442,120.486z M293.614,120.486
		c0,8.287-6.742,15.027-15.027,15.027c-8.287,0-15.027-6.741-15.027-15.027s6.742-15.027,15.027-15.027
		C286.872,105.457,293.614,112.199,293.614,120.486z"/>
	<path style="fill:#231F20;" d="M128.015,173.156c-16.622,0-30.144,13.523-30.144,30.144s13.522,30.144,30.144,30.144
		c16.621,0,30.144-13.523,30.144-30.144S144.636,173.156,128.015,173.156z M128.015,218.327c-8.287,0-15.028-6.741-15.028-15.027
		s6.741-15.027,15.028-15.027c8.286,0,15.027,6.741,15.027,15.027C143.042,211.586,136.301,218.327,128.015,218.327z"/>
	<path style="fill:#231F20;" d="M143.072,391.543c16.622,0,30.144-13.523,30.144-30.144c0-16.621-13.523-30.144-30.144-30.144
		s-30.144,13.523-30.144,30.144C112.929,378.02,126.451,391.543,143.072,391.543z M143.072,346.372
		c8.287,0,15.027,6.742,15.027,15.027c0,8.287-6.741,15.027-15.027,15.027c-8.286,0-15.027-6.741-15.027-15.027
		C128.045,353.113,134.786,346.372,143.072,346.372z"/>
	<path style="fill:#231F20;" d="M444.243,308.699c0-16.621-13.522-30.144-30.144-30.144s-30.144,13.523-30.144,30.144
		c0,16.621,13.522,30.144,30.144,30.144C430.721,338.843,444.243,325.32,444.243,308.699z M399.072,308.699
		c0-8.287,6.741-15.027,15.027-15.027c8.286,0,15.027,6.742,15.027,15.027c0,8.287-6.741,15.027-15.027,15.027
		C405.814,323.727,399.072,316.986,399.072,308.699z"/>
	<path style="fill:#231F20;" d="M338.814,421.658c16.622,0,30.144-13.523,30.144-30.144c0-16.621-13.522-30.144-30.144-30.144
		s-30.144,13.523-30.144,30.144S322.193,421.658,338.814,421.658z M338.814,376.486c8.287,0,15.027,6.742,15.027,15.027
		c0,8.287-6.741,15.027-15.027,15.027c-8.287,0-15.027-6.742-15.027-15.027C323.786,383.227,330.528,376.486,338.814,376.486z"/>
</g>
<g>
	<polygon style="fill:#FFFFFF;" points="368.928,165.686 368.928,150.57 353.872,150.57 353.872,135.513 338.814,135.513 
		338.814,150.63 353.872,150.63 353.872,165.686 	"/>
	<polygon style="fill:#FFFFFF;" points="45.201,286.085 45.201,301.201 60.258,301.201 60.258,286.143 75.315,286.143 
		75.315,271.027 60.258,271.027 60.258,286.085 	"/>
</g>
<rect x="210.83" y="180.689" style="fill:#231F20;" width="15.057" height="15.116"/>
<rect x="158.125" y="263.495" style="fill:#FFFFFF;" width="15.057" height="15.116"/>
<g>
	<polygon style="fill:#231F20;" points="180.715,421.658 195.772,421.658 195.772,406.541 180.715,406.541 180.715,421.598 
		165.657,421.598 165.657,436.714 180.715,436.714 	"/>
	<polygon style="fill:#231F20;" points="331.286,301.201 346.343,301.201 346.343,286.085 331.286,286.085 331.286,301.141 
		316.228,301.141 316.228,316.258 331.286,316.258 	"/>
</g>
<polygon style="fill:#FFFFFF;" points="459.271,368.958 459.271,353.901 474.328,353.901 474.328,338.785 459.271,338.785 
	459.271,353.841 444.214,353.841 444.214,368.958 "/>
<rect x="391.509" y="421.6" style="fill:#231F20;" width="15.057" height="15.116"/>
<rect x="278.581" y="338.784" style="fill:#FFFFFF;" width="15.057" height="15.116"/>
<g>
</g>
<g>
</g>
<g>
</g>
<g>
</g>
<g>
</g>
<g>
</g>
<g>
</g>
<g>
</g>
<g>
</g>
<g>
</g>
<g>
</g>
<g>
</g>
<g>
</g>
<g>
</g>
<g>
</g>
</svg>
