<?xml version="1.0" encoding="iso-8859-1"?>
<!-- Generator: Adobe Illustrator 19.0.0, SVG Export Plug-In . SVG Version: 6.00 Build 0)  -->
<svg version="1.1" id="Capa_1" xmlns="http://www.w3.org/2000/svg" xmlns:xlink="http://www.w3.org/1999/xlink" x="0px" y="0px"
	 viewBox="0 0 512.001 512.001" style="enable-background:new 0 0 512.001 512.001;" xml:space="preserve">
<g>
	<g>
		<g>
			<path d="M481.672,265.829c0.183-3.655,0.214-7.091,0.214-9.83c0-71.064-31.159-138.161-85.486-184.086l-9.759,11.544
				c49.239,41.624,78.17,101.802,80.029,165.952c-26.343-24.728-61.041-38.611-97.741-38.611
				c-78.89,0-143.073,64.182-143.073,143.073c0,27.443,7.794,54.106,22.539,77.107c11.654,18.179,27.173,33.4,45.38,44.628
				c-17.15,4.129-34.864,6.222-52.832,6.222c-60.318,0-117.026-23.492-159.681-66.146c-42.654-42.655-66.145-99.364-66.145-159.682
				c0-42.664,11.829-83.887,34.282-119.71c7.903,4.475,16.728,6.811,25.916,6.811c17.453,0,33.75-8.809,43.48-22.991
				c9.81,5.211,20.663,7.934,31.804,7.934c37.377,0,67.787-30.409,67.787-67.787c0-9.806-2.106-19.387-6.156-28.214
				c9.601-1.242,19.219-1.869,28.713-1.869c47.376,0,92.723,14.508,131.136,41.957l8.789-12.3
				c-40.992-29.291-89.378-44.774-139.924-44.774c-13.881,0-28.003,1.255-41.973,3.729l-11.516,2.039l6.591,9.662
				c6.035,8.847,9.226,19.142,9.226,29.77c0,29.042-23.628,52.671-52.671,52.671c-10.769,0-21.204-3.284-30.178-9.497l-7.326-5.072
				l-3.809,8.055c-6.197,13.104-19.531,21.571-33.972,21.571c-8.518,0-16.614-2.826-23.409-8.17l-6.393-5.028l-4.547,6.744
				C14.166,161.29,0,207.787,0,255.999c0,64.355,25.064,124.861,70.573,170.371c45.51,45.509,106.015,70.572,170.369,70.572
				c23.944,0,47.484-3.48,69.964-10.343c0,0,37.536,10.343,58.022,10.343c13.505,0,26.875-1.882,39.737-5.595l-4.191-14.524
				c-11.5,3.32-23.459,5.002-35.545,5.002c-19.409,0-38.061-4.256-55.451-12.656c-21.398-10.274-39.504-26.303-52.356-46.352
				c-13.181-20.561-20.149-44.402-20.149-68.948c0-70.555,57.4-127.956,127.956-127.956c38.615,0,74.759,17.179,99.167,47.135
				c18.565,22.746,28.788,51.448,28.788,80.82c0,24.273-6.826,47.891-19.74,68.303c-12.574,19.876-30.331,35.904-51.351,46.352
				l6.729,13.536c23.496-11.68,43.343-29.593,57.396-51.806c14.446-22.833,22.082-49.247,22.082-76.385
				C512,322.022,501.249,290.876,481.672,265.829z"/>
			<path d="M248.442,120.486c0,16.621,13.523,30.144,30.144,30.144c16.622,0,30.144-13.523,30.144-30.144
				s-13.522-30.144-30.144-30.144C261.964,90.341,248.442,103.864,248.442,120.486z M293.614,120.486
				c0,8.287-6.742,15.027-15.027,15.027c-8.287,0-15.028-6.741-15.028-15.027s6.742-15.028,15.028-15.028
				C286.872,105.457,293.614,112.199,293.614,120.486z"/>
			<path d="M128.015,173.156c-16.622,0-30.144,13.523-30.144,30.144c0,16.621,13.522,30.144,30.144,30.144
				c16.621,0,30.144-13.523,30.144-30.144C158.158,186.679,144.636,173.156,128.015,173.156z M128.015,218.327
				c-8.287,0-15.028-6.741-15.028-15.027s6.741-15.028,15.028-15.028c8.286,0,15.027,6.741,15.027,15.028
				C143.042,211.586,136.301,218.327,128.015,218.327z"/>
			<path d="M143.072,391.543c16.622,0,30.144-13.523,30.144-30.144s-13.523-30.144-30.144-30.144s-30.144,13.523-30.144,30.144
				C112.929,378.02,126.451,391.543,143.072,391.543z M143.072,346.372c8.287,0,15.027,6.742,15.027,15.027
				c0,8.287-6.741,15.027-15.027,15.027c-8.286,0-15.028-6.741-15.028-15.027C128.045,353.113,134.786,346.372,143.072,346.372z"/>
			<path d="M444.243,308.699c0-16.621-13.522-30.144-30.144-30.144c-16.622,0-30.144,13.523-30.144,30.144
				s13.522,30.144,30.144,30.144C430.721,338.843,444.243,325.32,444.243,308.699z M399.072,308.699
				c0-8.287,6.741-15.027,15.027-15.027c8.286,0,15.028,6.742,15.028,15.027c0,8.287-6.741,15.027-15.028,15.027
				C405.814,323.727,399.072,316.986,399.072,308.699z"/>
			<path d="M338.814,421.658c16.622,0,30.144-13.523,30.144-30.144s-13.522-30.144-30.144-30.144
				c-16.622,0-30.144,13.523-30.144,30.144C308.67,408.135,322.193,421.658,338.814,421.658z M338.814,376.486
				c8.287,0,15.027,6.742,15.027,15.027c0,8.287-6.741,15.027-15.027,15.027s-15.027-6.742-15.027-15.027
				C323.786,383.227,330.528,376.486,338.814,376.486z"/>
			<polygon points="368.928,165.686 368.928,150.57 353.872,150.57 353.872,135.513 338.814,135.513 338.814,150.63 353.872,150.63 
				353.872,165.686 			"/>
			<polygon points="45.201,286.085 45.201,301.201 60.258,301.201 60.258,286.143 75.315,286.143 75.315,271.027 60.258,271.027 
				60.258,286.085 			"/>
			<rect x="210.83" y="180.689" width="15.057" height="15.116"/>
			<rect x="158.125" y="263.495" width="15.057" height="15.116"/>
			<polygon points="180.715,421.658 195.772,421.658 195.772,406.541 180.715,406.541 180.715,421.598 165.657,421.598 
				165.657,436.714 180.715,436.714 			"/>
			<polygon points="331.286,301.201 346.343,301.201 346.343,286.085 331.286,286.085 331.286,301.141 316.228,301.141 
				316.228,316.258 331.286,316.258 			"/>
			<polygon points="459.271,368.958 459.271,353.901 474.328,353.901 474.328,338.785 459.271,338.785 459.271,353.841 
				444.214,353.841 444.214,368.958 			"/>
			<rect x="391.509" y="421.6" width="15.057" height="15.116"/>
			<rect x="278.581" y="338.784" width="15.057" height="15.116"/>
		</g>
	</g>
</g>
<g>
</g>
<g>
</g>
<g>
</g>
<g>
</g>
<g>
</g>
<g>
</g>
<g>
</g>
<g>
</g>
<g>
</g>
<g>
</g>
<g>
</g>
<g>
</g>
<g>
</g>
<g>
</g>
<g>
</g>
</svg>
