<?xml version="1.0" encoding="iso-8859-1"?>
<!-- Generator: Adobe Illustrator 19.0.0, SVG Export Plug-In . SVG Version: 6.00 Build 0)  -->
<svg version="1.1" id="Capa_1" xmlns="http://www.w3.org/2000/svg" xmlns:xlink="http://www.w3.org/1999/xlink" x="0px" y="0px"
	 viewBox="0 0 512 512" style="enable-background:new 0 0 512 512;" xml:space="preserve">
<path style="fill:#9CDD03;" d="M477.548,260.075c-19.103-25.837-28.729-57.425-28.518-89.556c0.007-1.13-0.008-2.264-0.047-3.404
	c-1.469-43.429-37.028-78.599-80.47-79.611c-46.458-1.083-84.459,36.253-84.459,82.466c0,0.291,0.002,0.582,0.005,0.872
	c0.336,32.32-9.998,63.68-28.971,89.841c17.027,22.873,27.106,51.223,27.106,81.929c0,30.449-9.915,58.578-26.683,81.35
	c25.111,33.988,65.466,55.997,111.034,55.996C442.735,479.957,504.5,418.191,504.5,342
	C504.5,311.322,494.485,282.984,477.548,260.075z"/>
<path style="fill:#40A559;" d="M215.545,184.57c18.505-18.505,24.59-44.71,18.295-68.299c-23.589-6.295-49.794-0.21-68.299,18.295
	s-24.59,44.71-18.295,68.299C170.835,209.161,197.04,203.075,215.545,184.57z"/>
<path style="fill:#317E46;" d="M215.545,184.57c18.505-18.505,24.59-44.71,18.295-68.299l-86.594,86.594
	C170.835,209.161,197.04,203.075,215.545,184.57z"/>
<path style="fill:#F18700;" d="M255.086,260.682c-19.022-25.553-46.721-44.256-78.732-51.772
	c-10.119-2.376-20.664-3.645-31.508-3.645C68.992,205.266,7.5,266.758,7.5,342.612s61.492,137.346,137.346,137.346
	c10.843,0,21.387-1.27,31.505-3.646c32.251-7.573,60.125-26.502,79.158-52.35c16.768-22.772,26.683-50.901,26.683-81.35
	C282.192,311.906,272.113,283.555,255.086,260.682z"/>
<path style="fill:#E57F0E;" d="M70.55,342.612c0-64.999,45.154-119.448,105.804-133.701c-10.119-2.376-20.664-3.645-31.508-3.645
	C68.992,205.266,7.5,266.758,7.5,342.612s61.492,137.346,137.346,137.346c10.843,0,21.387-1.27,31.505-3.646
	C115.703,462.057,70.55,407.61,70.55,342.612z"/>
<path style="fill:#FF9911;" d="M255.509,423.962c16.768-22.772,26.683-50.901,26.683-81.35c0-30.706-10.079-59.057-27.106-81.929
	c-19.022-25.553-46.721-44.256-78.732-51.772C115.704,223.164,70.55,277.613,70.55,342.612c0,64.998,45.152,119.445,105.801,133.7
	C208.602,468.739,236.475,449.81,255.509,423.962z"/>
<path style="fill:#8FCC05;" d="M323.191,375.748c2.63-10.612,4.026-21.711,4.026-33.136c0-17.781-3.38-34.771-9.531-50.366
	c-7.99-20.257-8.318-42.847,0.018-62.965c7.63-18.415,11.588-38.24,11.378-58.44c-0.003-0.291-0.005-0.581-0.005-0.873
	c0-37.729,25.333-69.531,59.915-79.35c-6.544-1.865-13.404-2.951-20.48-3.116c-46.458-1.083-84.459,36.253-84.459,82.466
	c0,0.291,0.002,0.582,0.005,0.873c0.336,32.32-9.998,63.68-28.971,89.841c17.027,22.873,27.106,51.223,27.106,81.929
	c0,30.449-9.915,58.578-26.683,81.35c25.111,33.988,65.466,55.997,111.034,55.996c7.669,0,15.188-0.636,22.516-1.839
	C341.86,469.817,311.574,422.615,323.191,375.748z"/>
<g>
	<path style="fill:#FFFFFF;" d="M206.727,439.025c30.982-22.267,49.479-58.309,49.479-96.413c0-1.171-0.017-2.338-0.05-3.501
		l-14.994,0.438c0.029,1.017,0.044,2.039,0.044,3.063c0,33.288-16.162,64.777-43.233,84.233L206.727,439.025z"/>
	<path style="fill:#FFFFFF;" d="M168.897,457.079c8.628-2.357,17.003-5.709,24.892-9.962l-7.118-13.203
		c-6.887,3.713-14.196,6.639-21.727,8.696L168.897,457.079z"/>
	<path style="fill:#FFFFFF;" d="M475.889,392.401l-13.658-6.201c6.24-13.743,9.403-28.43,9.403-43.652
		c0-9.105-1.158-18.145-3.442-26.864l14.511-3.801c2.609,9.96,3.932,20.277,3.932,30.665
		C486.634,359.924,483.019,376.697,475.889,392.401z"/>
	<path style="fill:#FFFFFF;" d="M433.187,442.798l-8.369-12.449c12.204-8.204,22.794-19.113,30.625-31.549l12.693,7.992
		C459.198,420.984,447.113,433.436,433.187,442.798z"/>
	<path style="fill:#FFFFFF;" d="M414.766,154.729c-4.925-16.648-18.316-30.119-34.947-35.155l4.348-14.355
		c21.406,6.481,38.642,23.822,44.983,45.255L414.766,154.729z"/>
</g>
<path d="M483.579,255.616c-17.646-23.866-27.252-54.07-27.049-85.049c0.008-1.237-0.009-2.485-0.051-3.707
	c-0.775-22.925-10.264-44.514-26.716-60.79c-14.687-14.529-33.554-23.444-53.749-25.574V67.582c0-23.732-19.308-43.04-43.04-43.04
	v15c15.461,0,28.04,12.579,28.04,28.04v12.571c-47.043,2.863-84.459,42.054-84.459,89.816l0.005,0.951
	c0.284,27.309-7.299,53.785-22.001,77.152c-12.185-14.106-27.092-25.89-43.622-34.381c-5.049-2.594-10.199-4.869-15.439-6.833
	c9.367-3.878,17.969-9.602,25.352-16.985c19.668-19.668,27.423-48.612,20.239-75.536l-1.119-4.193l-4.194-1.119
	c-6.598-1.761-13.412-2.653-20.254-2.653c-20.886,0-40.519,8.13-55.281,22.892c-8.128,8.128-14.215,17.842-18.06,28.341
	c-7.901-9.348-19.702-15.3-32.871-15.3v15c15.461,0,28.04,12.579,28.04,28.04v12.613C60.949,201.874,0,265.259,0,342.611
	c0,79.869,64.978,144.847,144.846,144.847c23.084,0,46.054-5.568,66.426-16.102c16.836-8.705,31.969-20.823,44.246-35.334
	c12.325,14.524,27.511,26.648,44.401,35.35c20.423,10.523,43.461,16.086,66.624,16.086C446.749,487.457,512,422.205,512,342
	C512,310.637,502.172,280.766,483.579,255.616z M170.845,139.871c11.929-11.93,27.795-18.499,44.675-18.499
	c4.055,0,8.097,0.387,12.066,1.153c3.95,20.499-2.495,41.894-17.344,56.741c-11.93,11.931-27.796,18.5-44.675,18.499
	c-4.055,0-8.097-0.387-12.066-1.153C149.55,176.113,155.996,154.719,170.845,139.871z M144.846,472.458
	C73.249,472.458,15,414.209,15,342.611s58.249-129.846,129.846-129.846c41.449,0,79.437,19.098,104.224,52.396
	c16.762,22.517,25.622,49.298,25.622,77.45c0,27.901-8.722,54.494-25.223,76.903C225.059,452.666,185.947,472.458,144.846,472.458z
	 M366.543,472.458c-40.063,0-76.835-17.676-101.716-48.686c0.006-0.01,0.012-0.019,0.019-0.029c0.951-1.402,1.871-2.819,2.769-4.247
	c0.084-0.134,0.171-0.267,0.255-0.401c0.857-1.372,1.685-2.758,2.493-4.153c0.111-0.192,0.224-0.383,0.334-0.576
	c0.782-1.365,1.538-2.742,2.273-4.129c0.118-0.223,0.237-0.446,0.354-0.67c0.72-1.375,1.416-2.76,2.089-4.154
	c0.114-0.236,0.226-0.472,0.339-0.708c0.667-1.4,1.311-2.808,1.931-4.226c0.099-0.225,0.195-0.452,0.292-0.678
	c0.621-1.441,1.221-2.891,1.794-4.351c0.075-0.191,0.147-0.384,0.221-0.575c0.583-1.504,1.144-3.016,1.676-4.538
	c0.043-0.122,0.082-0.245,0.124-0.367c0.541-1.564,1.057-3.136,1.544-4.719c0.014-0.045,0.029-0.09,0.043-0.135
	c0.486-1.588,0.94-3.186,1.371-4.79c0.042-0.156,0.086-0.311,0.128-0.466c0.408-1.542,0.787-3.093,1.144-4.65
	c0.05-0.217,0.102-0.434,0.151-0.651c0.342-1.524,0.657-3.055,0.949-4.592c0.047-0.249,0.096-0.498,0.142-0.747
	c0.282-1.524,0.539-3.055,0.772-4.591c0.039-0.259,0.078-0.517,0.116-0.776c0.225-1.541,0.427-3.088,0.604-4.64
	c0.028-0.246,0.053-0.492,0.08-0.738c0.171-1.577,0.319-3.158,0.439-4.745c0.015-0.205,0.028-0.411,0.042-0.616
	c0.116-1.635,0.21-3.274,0.272-4.918c0.005-0.133,0.007-0.266,0.012-0.4c0.06-1.723,0.095-3.45,0.095-5.183
	c0-1.758-0.036-3.51-0.098-5.258c-0.005-0.128-0.006-0.257-0.011-0.385c-0.063-1.671-0.16-3.337-0.279-4.998
	c-0.014-0.198-0.026-0.396-0.041-0.594c-0.123-1.615-0.275-3.223-0.451-4.827c-0.026-0.238-0.051-0.475-0.078-0.713
	c-0.181-1.58-0.389-3.154-0.621-4.722c-0.037-0.25-0.074-0.5-0.112-0.75c-0.239-1.562-0.504-3.119-0.794-4.668
	c-0.046-0.244-0.093-0.487-0.14-0.73c-0.3-1.56-0.623-3.114-0.974-4.66c-0.049-0.216-0.101-0.43-0.151-0.646
	c-0.365-1.576-0.753-3.145-1.171-4.705c-0.043-0.161-0.089-0.321-0.133-0.482c-0.438-1.614-0.9-3.22-1.395-4.816
	c-0.023-0.073-0.047-0.146-0.07-0.219c-0.508-1.632-1.045-3.255-1.612-4.868c-0.017-0.048-0.032-0.096-0.049-0.143
	c-0.561-1.591-1.155-3.171-1.773-4.742c-0.055-0.14-0.108-0.281-0.163-0.421c-0.6-1.513-1.23-3.014-1.882-4.507
	c-0.083-0.19-0.164-0.38-0.248-0.57c-0.645-1.459-1.317-2.906-2.011-4.345c-0.103-0.214-0.206-0.428-0.31-0.642
	c-0.695-1.421-1.414-2.832-2.157-4.232c-0.116-0.218-0.232-0.436-0.349-0.654c-0.751-1.398-1.525-2.786-2.324-4.163
	c-0.118-0.204-0.239-0.407-0.358-0.61c-0.815-1.389-1.652-2.769-2.516-4.135c-0.108-0.171-0.219-0.341-0.328-0.512
	c-0.891-1.396-1.804-2.781-2.746-4.152c-0.024-0.036-0.047-0.072-0.071-0.108c18.199-26.898,27.614-57.854,27.281-89.869
	l-0.004-0.798c0-41.945,34.619-75.91,76.785-74.968c39.676,0.925,71.807,32.712,73.149,72.37c0.035,1.021,0.049,2.064,0.042,3.099
	c-0.224,34.2,10.426,67.606,29.988,94.064C488.188,287.083,497,313.87,497,342C497,413.934,438.478,472.457,366.543,472.458z"/>
<g>
</g>
<g>
</g>
<g>
</g>
<g>
</g>
<g>
</g>
<g>
</g>
<g>
</g>
<g>
</g>
<g>
</g>
<g>
</g>
<g>
</g>
<g>
</g>
<g>
</g>
<g>
</g>
<g>
</g>
</svg>
