<svg id="Gift_Discount" enable-background="new 0 0 64 64" height="512" viewBox="0 0 64 64" width="512" xmlns="http://www.w3.org/2000/svg"><path d="m46.39621 55.78984c-.16737 0-.33675-.04033-.49403-.12704-.50008-.27222-.68559-.89933-.41135-1.39941l7.06559-12.94754c.27424-.50209.89732-.68761 1.39941-.41135.50008.27222.68559.89933.41135 1.39941l-7.06559 12.94754c-.18753.34481-.54041.53839-.90538.53839zm.11663-13.82511c-.87107 0-1.57721.70618-1.57721 1.57729s.70614 1.57729 1.57721 1.57729 1.57721-.70618 1.57721-1.57729-.70614-1.57729-1.57721-1.57729zm6.83279 9.48398c-.87107 0-1.57721.70618-1.57721 1.57729s.70614 1.57729 1.57721 1.57729 1.57721-.70618 1.57721-1.57729-.70614-1.57729-1.57721-1.57729zm9.83339-2.75675c-.08875-.26819-.08875-.54846 0-.81665l.65332-2.01239c.45575-1.39941-.03833-2.92383-1.23004-3.79089l-1.71393-1.24615c-.22791-.16333-.39325-.39124-.47992-.66345l-.65533-2.01038c-.45374-1.40143-1.74829-2.34308-3.22229-2.34308h-2.11725c-.27826 0-.5545-.08875-.77838-.25208l-.8252-.599v-8.12506c1.68005-.56378 2.90002-2.13403 2.90002-4.00287v-7.78998c0-2.33997-1.90002-4.22998-4.24005-4.22998h-4.93073c.91302-2.47595 1.13391-5.48145-.10925-7.46002-.71002-1.12-1.83997-1.85999-3.27997-2.13-2.93005-.56-6.51001.85999-8.60004 2.40002-1.04998.77001-1.90997 1.51-2.61999 2.21997-1.15997-.79999-2.56-1.26001-4.08002-1.26001-1.50995 0-2.90997.46002-4.06995 1.26001-.72002-.69996-1.58001-1.44996-2.63-2.21997-2.08001-1.54004-5.66003-2.95002-8.59002-2.40003-1.44.27002-2.57001 1.01001-3.27997 2.13-1.24323 1.97858-1.02234 4.98408-.10931 7.46003h-4.94074c-2.32996 0-4.22998 1.89001-4.22998 4.22998v7.78998c0 1.87079 1.22241 3.4422 2.90002 4.00446v22.83557c0 3.57001 2.89996 6.47003 6.45996 6.47003h29.9574c.0506.08435.10327.16785.13422.26282l.65332 2.01642c.45776 1.39941 1.75226 2.33905 3.2243 2.33905h2.11725c.28229 0 .55048.08673.77832.25208l1.71399 1.24817c.59485.4295 1.29254.64526 1.99023.64526s1.39539-.21576 1.99225-.64728l1.71594-1.24615c.22186-.16333.49811-.25208.77637-.25208h2.11725c1.474 0 2.76855-.94165 3.22229-2.34106l.65533-2.0144c.08667-.26819.25201-.49603.47992-.66138l1.71393-1.24615c1.19171-.86505 1.68579-2.38751 1.23004-3.78693zm-27.15332-2.83106.65533 2.0144c.08466.26416.08466.5545 0 .81866l-.65533 2.0144c-.38861 1.19507-.08014 2.47455.75665 3.36163h-2.23169v-27h16.19934v6.7041c-.95239-.23938-1.98309-.06641-2.81323.53864l-1.71198 1.24213c-.22784.16736-.49603.25409-.77832.25409h-2.11725c-1.47205 0-2.76862.94165-3.2243 2.34308l-.65332 2.01038c-.08875.2702-.25409.50012-.48193.66547l-1.71198 1.24414c-1.1897.86505-1.68573 2.38745-1.23199 3.78888zm-3.53986-32.99097v41.19989h-9.26355v-41.19989zm21.16418 2.17005v7.78998c0 1.20001-.98004 2.18005-2.18005 2.18005h-16.91931v-12.14001h16.91931c1.20001 0 2.18005.96997 2.18005 2.16998zm-17.86999-9.76001c1.79999-1.32001 4.76996-2.45001 6.98999-2.02997.88.16998 1.51001.56 1.90997 1.19.86194 1.38092.67291 4.07898-.38464 6.37h-9.26398c-.19098-1.34485-.7464-2.57886-1.57135-3.58002.63001-.60998 1.38996-1.26001 2.32001-1.95001zm-7.93005 1.36004c.97003 0 1.89001.26996 2.67004.75.59998.34998 1.12.82996 1.52997 1.38995.43549.58765.7356 1.27979.88629 2.02515h-10.16254c.1507-.74536.45074-1.4375.88623-2.02515.41003-.57001.93005-1.03998 1.53003-1.38995.77997-.48004 1.69-.75 2.65998-.75zm-16.81995-2.20001c.39996-.63 1.02997-1.02002 1.90997-1.19.32001-.06.65997-.09003 1-.09003 2.04999 0 4.45001.98999 5.98999 2.12.91998.67999 1.67999 1.33002 2.31 1.95001-.81696 1.00116-1.37085 2.23517-1.56152 3.58002h-9.26385c-1.0575-2.29102-1.24653-4.98908-.38459-6.37zm-8.97003 18.38996v-7.78998c0-1.20001.97998-2.16998 2.16998-2.16998h16.92749v12.14001h-16.92749c-1.19 0-2.16998-.98004-2.16998-2.18005zm2.90997 26.84002v-22.59997h16.1875v27h-11.79748c-2.41999 0-4.39002-1.97003-4.39002-4.40003zm56.41846 3.1557-1.71399 1.24414c-.58276.4234-1.00818 1.01019-1.23004 1.6958l-.65533 2.0144c-.17743.54645-.68353.91345-1.25824.91345h-2.11725c-.71179 0-1.41956.22986-1.99225.64728l-1.71198 1.24414c-.46777.34082-1.09491.33673-1.55872.00201l-1.71191-1.24817c-.58478-.42145-1.2724-.64526-1.99225-.64526h-2.11725c-.57471 0-1.08282-.367-1.26031-.91345l-.65332-2.01642c-.22583-.68561-.65131-1.27039-1.23199-1.69177l-1.71399-1.24817c-.46381-.33679-.65735-.92963-.47992-1.47809l.65533-2.0144c.2218-.68561.2218-1.40948 0-2.09308l-.65533-2.0144c-.17743-.54846.01611-1.14331.48193-1.48206l1.71198-1.24213c.58069-.42145 1.00616-1.00824 1.23199-1.69788l.65332-2.01038c.17749-.54846.68561-.91748 1.26031-.91748h2.11725c.71985 0 1.40747-.22382 1.99225-.64728l1.71191-1.24414c.46381-.33875 1.09296-.33875 1.5567 0l1.71198 1.24414c.57471.41742 1.28247.64728 1.99426.64728h2.11725c.57471 0 1.08081.367 1.25824.91748l.65533 2.01038c.22186.68762.64728 1.27441 1.23004 1.69586l1.71198 1.24414c.46777.33875.65936.93359.48193 1.48206l-.65131 2.01038c-.22583.68561-.22583 1.4115-.00201 2.09711l.65332 2.01642c.17945.54645-.01415 1.13929-.47991 1.47809z"/></svg>