<svg id="Gift_Discount" enable-background="new 0 0 64 64" height="512" viewBox="0 0 64 64" width="512" xmlns="http://www.w3.org/2000/svg"><g><g><path d="m29.13632 11.94709c.82775 1.80482 1.95395 4.25721 6.03139 7.27411 2.99877 2.21879 8.46376 3.61624 10.38314.55953 1.2221-1.94625.74199-5.45561-.60246-7.943 1.34444-2.48739 1.82456-5.99674.60246-7.943-1.91938-3.05671-7.38437-1.65926-10.38314.55953-4.07744 3.0169-5.20363 5.46929-6.03139 7.27411.04633.03879.04633.17992 0 .21872z" fill="#f7524b"/><path d="m41.78461 22.5771c-2.61129 0-5.4585-1.2149-7.22993-2.5266-4.294-3.17589-5.48572-5.77508-6.35682-7.67254l-.06251-.13712-.26819-.22181.08368-.18047-.07864-.17241.32565-.368c.8711-1.89848 2.06281-4.49766 6.35682-7.67355 2.086-1.54459 5.66316-2.96215 8.59305-2.4046 1.44175.27121 2.57499 1.00721 3.27873 2.12533 1.42159 2.26446.92958 5.87388-.32061 8.49223 1.25019 2.61834 1.7422 6.22777.32061 8.49223-.70374 1.11811-1.83698 1.85411-3.27873 2.12533-.44159.08367-.89932.12198-1.36311.12198zm-11.56225-10.73854c.80254 1.73111 1.92166 3.86047 5.55932 6.55241 1.79665 1.32883 4.77291 2.45199 6.98494 2.03559.88522-.16736 1.51031-.55855 1.90956-1.19575.93361-1.48511.65333-4.51682-.63518-6.90227l-.26617-.491.26617-.491c1.28851-2.38545 1.56879-5.41716.63518-6.90227-.39925-.63719-1.02435-1.02838-1.90956-1.19575-2.21405-.41438-5.18829.70676-6.98292 2.03559-3.63967 2.69096-4.75779 4.82132-5.56134 6.55445z" fill="#131319"/></g><g><path d="m26.5707 11.94889c-.82668 1.80048-1.94749 4.26246-6.02616 7.27548-2.99474 2.22313-8.46974 3.61946-10.38057.55127-1.23093-1.94749-.75323-5.45672.58794-7.93698-.69817-1.28611-1.15748-2.84773-1.28611-4.31763-.09184-1.37794.11023-2.68233.69817-3.61935 1.35956-2.18634 4.55648-2.11289 7.34904-1.06564 1.1207.40426 2.16795.9738 3.03152 1.6168 4.07867 3.01313 5.19948 5.475 6.02616 7.27559-.03666.03667-.03666.18368.00001.22046z" fill="#f7524b"/><path d="m13.92451 22.5771c-.46479 0-.92252-.03831-1.36513-.12199-1.44074-.27121-2.57398-1.00721-3.27671-2.12533-1.42159-2.26446-.92958-5.87388.3196-8.49223-1.24918-2.61834-1.74119-6.22777-.3196-8.49223.70273-1.11811 1.83597-1.85411 3.27671-2.12532 2.92585-.5525 6.50704.86001 8.59507 2.4046 4.29299 3.17589 5.48471 5.77508 6.35581 7.67355l.06856.14922.2571.21878-.07864.17241.08368.18047-.3307.35893c-.87009 1.89747-2.06282 4.49666-6.35581 7.67254-1.77245 1.3117-4.61966 2.5266-7.22994 2.5266zm.01915-19.41729c-.34582 0-.68156.02823-1.00116.08872-.88622.16736-1.51132.55855-1.91158 1.19575-.9326 1.48511-.65333 4.51682.63719 6.90227l.26516.491-.26516.491c-1.29052 2.38544-1.5698 5.41716-.63719 6.90227.40026.63719 1.02536 1.02838 1.91158 1.19575 2.21506.42143 5.18829-.70676 6.98393-2.03559 3.63765-2.69194 4.75678-4.8213 5.55932-6.55241-.80355-1.73313-1.92167-3.86349-5.55932-6.55443-1.53551-1.13627-3.93507-2.12433-5.98277-2.12433z" fill="#131319"/></g><g><circle cx="27.854" cy="11.838" fill="#f56f6b" r="6.226"/><path d="m27.85406 19.09572c-4.00263 0-7.25817-3.25554-7.25817-7.25817s3.25554-7.25817 7.25817-7.25817 7.25817 3.25554 7.25817 7.25817-3.25554 7.25817-7.25817 7.25817zm0-12.4515c-2.86334 0-5.19333 2.32999-5.19333 5.19333s2.32999 5.19333 5.19333 5.19333 5.19334-2.32999 5.19334-5.19333-2.33-5.19333-5.19334-5.19333z" fill="#131319"/></g><g><path d="m46.3467 55.10323h-36.98537c-3.00057 0-5.43302-2.43245-5.43302-5.43302v-34.95115h47.85141v34.95114c0 3.00058-2.43244 5.43303-5.43302 5.43303z" fill="#383841"/><path d="m51.7769 14.72149v34.9373c0 3.02213-2.4435 5.44418-5.42285 5.44418h-36.99501c-3.00067 0-5.42272-2.42205-5.42272-5.44418v-4.00814c11.68152 4.20097 24.24179 2.37914 32.38665-4.77986 7.00894-6.13007 10.43832-15.9254 9.79533-26.1493z" opacity=".1"/><path d="m46.33975 56.13868h-36.98449c-3.55699 0-6.45159-2.90367-6.45159-6.47075v-35.97727h49.90683v35.97728c0 3.56707-2.90367 6.47074-6.47075 6.47074zm-41.37125-40.38319v33.91245c0 2.42981 1.96804 4.40592 4.38676 4.40592h36.98449c2.42981 0 4.40591-1.97611 4.40591-4.40592v-33.91245z" fill="#131319"/></g><g><path d="m54.67043 15.04292v7.78053c0 1.77905-1.43604 3.21509-3.19364 3.21509h-47.24036c-1.77905 0-3.21509-1.43604-3.21509-3.21509v-7.78053c0-1.77905 1.43604-3.21509 3.21509-3.21509h47.24036c1.7576 0 3.19364 1.43603 3.19364 3.21509z" fill="#404049"/><path d="m54.67043 15.04292v7.78053c0 1.77905-1.43604 3.21509-3.19364 3.21509h-6.38727c1.15739-4.47962 1.41458-9.32371.70723-14.21071h5.68005c1.75759 0 3.19363 1.43603 3.19363 3.21509z" opacity=".1"/><path d="m51.46553 27.07275h-47.23605c-2.33201 0-4.22948-1.90554-4.22948-4.24763v-7.7895c0-2.33201 1.89747-4.22948 4.22948-4.22948h47.23605c2.3431 0 4.24863 1.89747 4.24863 4.22948v7.7895c0 2.34209-1.90553 4.24763-4.24863 4.24763zm-47.23605-14.20177c-1.19373 0-2.16465.97091-2.16465 2.16465v7.7895c0 1.20381.97091 2.18279 2.16465 2.18279h47.23605c1.20382 0 2.1838-.97898 2.1838-2.18279v-7.7895c0-1.19373-.97999-2.16465-2.1838-2.16465z" fill="#131319"/></g><g><path d="m22.19 11.838h11.328v43.266h-11.328z" fill="#f7524b"/><path d="m33.51513 43.01419v12.08878h-11.31705v-7.71617c4.11528-.68591 7.97336-2.16485 11.31705-4.37261z" opacity=".1"/><path d="m34.55065 56.13465h-13.39318v-45.32951h13.39318zm-11.32835-2.06483h9.26351v-41.19985h-9.26351z" fill="#131319"/></g><g><path d="m51.31433 35.14684 1.71313 1.24473c.4026.29252.88746.45007 1.38509.45007h2.11755c1.02088 0 1.92566.65739 2.24113 1.62836l.65436 2.01402c.15378.4733.45344.88577.85603 1.17829l1.71313 1.24473c.82591.60009 1.1715 1.66378.85604 2.63474l-.65436 2.01402c-.15378.4733-.15378.98314 0 1.45645l.65436 2.01402c.31547.97097-.03012 2.03465-.85604 2.63474l-1.71313 1.24473c-.4026.29252-.70226.70499-.85603 1.1783l-.65436 2.01401c-.31547.97097-1.22025 1.62836-2.24113 1.62836h-2.11755c-.49763 0-.9825.15755-1.38509.45007l-1.71313 1.24473c-.82591.60009-1.94428.60009-2.77019 0l-1.71313-1.24473c-.4026-.29251-.88746-.45007-1.38509-.45007h-2.11755c-1.02088 0-1.92566-.65739-2.24113-1.62836l-.65436-2.01401c-.15378-.4733-.45344-.88578-.85603-1.1783l-1.71313-1.24473c-.82591-.60009-1.1715-1.66377-.85604-2.63474l.65436-2.01402c.15378-.4733.15378-.98314 0-1.45645l-.65436-2.01402c-.31547-.97097.03012-2.03465.85604-2.63474l1.71313-1.24473c.4026-.29252.70226-.70499.85603-1.17829l.65435-2.01402c.31547-.97097 1.22025-1.62836 2.24113-1.62836h2.11755c.49763 0 .9825-.15755 1.38509-.45007l1.71313-1.24473c.82592-.60009 1.94428-.60009 2.7702 0z" fill="#ffdc6e"/><g fill="#131319"><path d="m46.39621 55.78984c-.16737 0-.33675-.04033-.49403-.12704-.50008-.27222-.68559-.89933-.41135-1.39941l7.06559-12.94754c.27424-.50209.89732-.68761 1.39941-.41135.50008.27222.68559.89933.41135 1.39941l-7.06559 12.94754c-.18753.34481-.54041.53839-.90538.53839zm.11663-13.82511c-.87107 0-1.57721.70618-1.57721 1.57729s.70614 1.57729 1.57721 1.57729 1.57721-.70618 1.57721-1.57729-.70614-1.57729-1.57721-1.57729zm6.83279 9.48398c-.87107 0-1.57721.70618-1.57721 1.57729s.70614 1.57729 1.57721 1.57729 1.57721-.70618 1.57721-1.57729-.70614-1.57729-1.57721-1.57729z"/><path d="m49.929 62.90383c-.69769 0-1.39537-.21576-1.99022-.64526l-1.71397-1.24818c-.22786-.16535-.49604-.25205-.77835-.25205h-2.11726c-1.472 0-2.76655-.93966-3.22429-2.33907l-.65332-2.01644c-.08671-.26617-.25407-.49604-.48193-.65937l-1.71196-1.24818c-1.19172-.86303-1.68776-2.38544-1.23204-3.78687l.65534-2.01442c.08469-.26415.08469-.55452 0-.81867l-.65534-2.01442c-.4537-1.40142.04235-2.92383 1.23204-3.78889l1.71196-1.24414c.22786-.16535.3932-.39522.48193-.66542l.65332-2.01039c.45572-1.40142 1.75229-2.3431 3.22429-2.3431h2.11726c.2823 0 .55049-.0867.77835-.25407l1.71196-1.24213c1.1897-.86707 2.79478-.86707 3.98448 0l1.71397 1.24414c.22382.16333.50008.25205.77834.25205h2.11726c1.47401 0 2.76857.94168 3.22227 2.3431l.65534 2.01039c.08671.27222.25206.50008.47991.66341l1.71397 1.24615c1.19172.86707 1.68574 2.39149 1.23003 3.7909l-.65333 2.01241c-.08872.26818-.08872.54847 0 .81665l.65333 2.01644c.45571 1.39941-.03831 2.92182-1.23003 3.78687l-1.71397 1.24616c-.22786.16535-.3932.39321-.47991.66139l-.65534 2.01442c-.4537 1.39941-1.74825 2.34109-3.22227 2.34109h-2.11726c-.27827 0-.55452.08872-.77633.25205l-1.71599 1.24616c-.59686.43153-1.29455.64729-1.99224.64729zm-6.59979-25.03004c-.57469 0-1.08283.36901-1.26028.91748l-.65332 2.01039c-.22584.68962-.65131 1.27641-1.23204 1.69784l-1.71195 1.24213c-.4658.33876-.65938.93361-.48193 1.48208l.65534 2.01442c.22181.68357.22181 1.40747 0 2.09306l-.65534 2.01442c-.17745.54847.01613 1.1413.47991 1.47805l1.71397 1.24818c.58073.42144 1.0062 1.0062 1.23204 1.69179l.65332 2.01644c.17745.54646.68559.91344 1.26028.91344h2.11726c.71987 0 1.40747.22383 1.99224.64526l1.71196 1.24818c.46378.33473 1.09089.33876 1.5587-.00202l1.71196-1.24414c.57267-.4174 1.28044-.64728 1.99224-.64728h2.11726c.57468 0 1.08081-.36699 1.25826-.91344l.65534-2.01442c.22181-.68559.64728-1.27237 1.23003-1.69582l1.71397-1.24414c.4658-.33876.65937-.93159.47991-1.47805l-.65332-2.01643c-.22383-.68559-.22383-1.41151.00201-2.0971l.65131-2.01039c.17745-.54847-.01411-1.14332-.48193-1.48208l-1.71195-1.24414c-.58275-.42143-1.00822-1.00822-1.23003-1.69582l-.65534-2.01039c-.17744-.55049-.68357-.91748-1.25826-.91748h-2.11726c-.7118 0-1.41957-.22987-1.99426-.64728l-1.71196-1.24414c-.46378-.33876-1.09291-.33876-1.55669 0l-1.71196 1.24414c-.58477.42345-1.27237.64728-1.99224.64728h-2.11725z"/></g></g></g></svg>