<svg id="Layer_25" height="512" viewBox="0 0 64 64" width="512" xmlns="http://www.w3.org/2000/svg" data-name="Layer 25"><path d="m34.67 14.67v-5.34h23.1a2.233 2.233 0 0 1 2.23 2.23v.88a2.233 2.233 0 0 1 -2.23 2.23z" fill="#ff9a55"/><g fill="#ffc112"><path d="m34.67 8v8c0 2.375-2.75 2.67-2.75 2.67a2.654 2.654 0 0 1 -.59-1.67v-8a2.676 2.676 0 0 1 2.67-2.67 2.77 2.77 0 0 1 .67 1.67z"/><path d="m29.33 6.67v10.66c0 2.392-2.74 2.67-2.74 2.67a2.654 2.654 0 0 1 -.59-1.67v-10.66a2.676 2.676 0 0 1 2.67-2.67 2.565 2.565 0 0 1 .66 1.67z"/><path d="m24 8v8a2.676 2.676 0 0 1 -2.67 2.67h-.07a2.654 2.654 0 0 1 -.59-1.67v-8a2.667 2.667 0 0 1 2.66-2.67h.08a2.654 2.654 0 0 1 .59 1.67z"/><path d="m18.67 9.33v5.34a2.667 2.667 0 0 1 -2.67 2.66h-.08a2.606 2.606 0 0 1 -.59-1.66v-5.34a2.667 2.667 0 0 1 2.67-2.66h.08a2.606 2.606 0 0 1 .59 1.66z"/></g><path d="m43.78 44h-2.45l-2.67 5.34 1.7 3.39-1.66 3.98a5.322 5.322 0 0 1 -4.92 3.29h-16.56a5.328 5.328 0 0 1 -4.92-3.28l-4.37-10.49a12.025 12.025 0 0 1 -.93-4.65c0-4.6 2.2-6.81 4.12-9.68a3.392 3.392 0 0 1 1.88-.73c2.74.25 6.2.98 8.69 1.47a59.334 59.334 0 0 0 11.11 1.48c5.186 0 6.732-1.8 7.2-2.01 5.75 6.56 3.78 11.89 3.78 11.89z" fill="#ff8500"/><path d="m60 54.67-2.66 5.33h-3.68l-2.66-5.33 2.66-5.34h3.68z" fill="#ffc112"/><path d="m60 44-2.66 5.33h-3.68l-2.66-5.33 2.66-5.33h3.68z" fill="#ffc112"/><path d="m50.67 49.33-2.67 5.34h-3.67l-2.67-5.34 2.67-5.33h3.67z" fill="#ffc112"/><path d="m57.77 8.33h-22.1v-.33a3.663 3.663 0 0 0 -5.76-3.01 3.641 3.641 0 0 0 -6.49 0 3.629 3.629 0 0 0 -5.33 1.34 3.583 3.583 0 0 0 -2.09-.66 3.67 3.67 0 0 0 -3.67 3.66v5.34a3.67 3.67 0 0 0 3.67 3.66 3.583 3.583 0 0 0 2.09-.66 3.629 3.629 0 0 0 5.33 1.34 3.641 3.641 0 0 0 6.49 0 3.663 3.663 0 0 0 5.76-3.01v-.33h22.1a3.235 3.235 0 0 0 3.23-3.23v-.88a3.235 3.235 0 0 0 -3.23-3.23zm-40.1 6.34a1.67 1.67 0 0 1 -3.34 0v-5.34a1.67 1.67 0 0 1 3.34 0zm5.33 1.33a1.665 1.665 0 1 1 -3.33 0v-8a1.665 1.665 0 1 1 3.33 0zm5.33 1.33a1.665 1.665 0 1 1 -3.33 0v-10.66a1.665 1.665 0 1 1 3.33 0zm5.34-1.33a1.67 1.67 0 0 1 -3.34 0v-8a1.67 1.67 0 1 1 3.34 0zm25.33-3.56a1.236 1.236 0 0 1 -1.23 1.23h-22.1v-3.34h22.1a1.236 1.236 0 0 1 1.23 1.23z" fill="#2d2d2d"/><path d="m58.45 49.33 2.44-4.88a.957.957 0 0 0 0-.9l-2.66-5.33a1 1 0 0 0 -.9-.55h-6.66a1 1 0 0 0 -.9.55l-2.39 4.78h-2.46a13.144 13.144 0 0 0 -2.79-9.61 18.433 18.433 0 0 1 -3.53-7.13 2.555 2.555 0 0 0 -2.47-1.93h-24.26a2.555 2.555 0 0 0 -2.47 1.93 18.433 18.433 0 0 1 -3.53 7.13 13.191 13.191 0 0 0 -2.87 8.19 13.033 13.033 0 0 0 1.01 5.04l4.37 10.48a6.305 6.305 0 0 0 5.84 3.9h19.56a6.305 6.305 0 0 0 5.84-3.9l.83-1.97a.993.993 0 0 0 .88.54h6.05l2.39 4.78a1 1 0 0 0 .9.55h6.66a1 1 0 0 0 .9-.55l2.66-5.34a.937.937 0 0 0 0-.89zm-7.17-9.66h5.44l2.16 4.33-2.16 4.33h-5.44l-2.16-4.33zm-39.94-12.93a.555.555 0 0 1 .53-.41h24.26a.544.544 0 0 1 .53.42 20.31 20.31 0 0 0 2.03 5.05c-3.51 2.47-11.07.98-17.79-.34-4.51-.89-8.21-1.67-10.74-1.34a20.477 20.477 0 0 0 1.18-3.38zm26.43 23.04 1.49 2.99-1.48 3.56a4.335 4.335 0 0 1 -4 2.67h-19.56a4.335 4.335 0 0 1 -4-2.67l-4.37-10.48a11.178 11.178 0 0 1 -.85-4.27c0-4.59 2.46-6.72 3.87-8.99 1.57-1.15 6.9-.1 11.64.83 5.57 1.1 14.66 3.16 19.23.07 2.1 3.02 3.73 5.1 3.16 9.51h-1.57a.988.988 0 0 0 -.89.55l-2.67 5.34a1 1 0 0 0 0 .89zm9.61 3.89h-5.43l-2.17-4.34 2.17-4.33h5.43l2.17 4.33zm9.34 5.33h-5.44l-2.16-4.33 2.16-4.34h5.44l2.16 4.34z" fill="#2d2d2d"/></svg>