<?xml version="1.0" encoding="UTF-8"?>
<svg xmlns="http://www.w3.org/2000/svg" id="Layer_25" data-name="Layer 25" viewBox="0 0 48 48" width="512" height="512"><path d="M12,14a2.964,2.964,0,0,0,1.471-.4,2.954,2.954,0,0,0,4,1,2.983,2.983,0,0,0,5.058,0A2.964,2.964,0,0,0,24,15a3,3,0,0,0,3-3H43a3,3,0,0,0,0-6H27a3,3,0,0,0-3-3,2.963,2.963,0,0,0-1.471.4,2.983,2.983,0,0,0-5.058,0A2.963,2.963,0,0,0,16,3a2.993,2.993,0,0,0-2.529,1.4A2.963,2.963,0,0,0,12,4,3,3,0,0,0,9,7v4A3,3,0,0,0,12,14ZM43,8a1,1,0,0,1,0,2H27V8H43ZM24,5a1,1,0,0,1,1,1v6a1,1,0,0,1-2,0V6A1,1,0,0,1,24,5ZM19,5a1,1,0,0,1,2,0v8a1,1,0,0,1-2,0V5ZM15,6a1,1,0,0,1,2,0v6a1,1,0,0,1-2,0V6ZM11,7a1,1,0,0,1,2,0v4a1,1,0,0,1-2,0V7Z"/><path d="M45.895,32.553l-2-4A1,1,0,0,0,43,28H38a1,1,0,0,0-.895.553L35.382,32H33.959c0.022-.271.041-0.543,0.041-0.815a10.113,10.113,0,0,0-2.208-6.3,13.66,13.66,0,0,1-2.6-5.254A2.155,2.155,0,0,0,27.1,18H8.9a2.155,2.155,0,0,0-2.094,1.635,13.648,13.648,0,0,1-2.6,5.254A10.076,10.076,0,0,0,2.775,35.061l3.275,7.862A4.987,4.987,0,0,0,10.667,46H25.333a4.986,4.986,0,0,0,4.615-3.077L30.416,41.8A0.992,0.992,0,0,0,31,42h4.382l1.724,3.447A1,1,0,0,0,38,46h5a1,1,0,0,0,.895-0.553l2-4a1,1,0,0,0,0-.895L44.118,37l1.776-3.553A1,1,0,0,0,45.895,32.553ZM38.618,30h3.764l1.5,3-1.5,3H38.618l-1.5-3ZM8.9,20H27.1a0.158,0.158,0,0,1,.153.12,15.673,15.673,0,0,0,1.428,3.639c-2.649,1.616-8.321.5-12.956-.41A35.517,35.517,0,0,0,8,22.325a15.758,15.758,0,0,0,.748-2.205A0.158,0.158,0,0,1,8.9,20ZM28.1,42.153A2.991,2.991,0,0,1,25.333,44H10.667A2.992,2.992,0,0,1,7.9,42.153L4.622,34.291A8.076,8.076,0,0,1,5.77,26.139a15.855,15.855,0,0,0,1.074-1.53c1.134-.744,5.195.054,8.491,0.7,4.238,0.836,10.86,2.317,14.4.142C30.852,27.007,32,28.506,32,31.185a8.069,8.069,0,0,1-.042.815H31a1,1,0,0,0-.895.553l-2,4a1,1,0,0,0,0,.895l1.068,2.136ZM30.118,37l1.5-3h3.764l1.5,3-1.5,3H31.618Zm12.264,7H38.618l-1.5-3,1.5-3h3.764l1.5,3Z"/></svg>
