<?xml version="1.0" encoding="UTF-8"?>
<svg xmlns="http://www.w3.org/2000/svg" xmlns:xlink="http://www.w3.org/1999/xlink" version="1.1" id="Capa_1" x="0px" y="0px" viewBox="0 0 512 512" style="enable-background:new 0 0 512 512;" xml:space="preserve" width="512" height="512">
<g>
	<g>
		<path style="fill:none;stroke:#000000;stroke-width:15;stroke-linecap:round;stroke-linejoin:round;stroke-miterlimit:10;" d="&#10;&#9;&#9;&#9;M377.639,278.145c44.174-5.911,66.726-32.802,76.057-58.584c14.789-40.86-6.347-85.972-47.207-100.76&#10;&#9;&#9;&#9;c-14.465-5.235-29.462-5.968-43.458-2.917c-22.422,4.888-45.445-3.444-59.545-21.551c-8.801-11.302-20.793-20.338-35.258-25.573&#10;&#9;&#9;&#9;c-40.86-14.788-85.972,6.347-100.76,47.207c-4.716,13.03-7.01,28.441-4.241,44.732"/>
		<path style="fill:none;stroke:#000000;stroke-width:15;stroke-linecap:round;stroke-linejoin:round;stroke-miterlimit:10;" d="&#10;&#9;&#9;&#9;M287.767,79.12c-11.116,2.597-20.739,10.58-24.913,22.113c-6.561,18.127-2.593,46.632,48.268,65.04s72.154-0.954,78.715-19.082&#10;&#9;&#9;&#9;c4.174-11.534,1.889-23.826-4.989-32.936"/>
	</g>
	<g>
		<path style="fill:none;stroke:#000000;stroke-width:15;stroke-linecap:round;stroke-linejoin:round;stroke-miterlimit:10;" d="&#10;&#9;&#9;&#9;M289.887,224.203c-18.904-38.296-65.065-54.597-103.92-36.394c-13.93,6.526-25.052,16.613-32.792,28.667&#10;&#9;&#9;&#9;c-12.399,19.312-34.57,29.699-57.343,26.866c-14.215-1.769-29.084,0.322-43.014,6.848c-39.349,18.436-56.303,65.28-37.868,104.629&#10;&#9;&#9;&#9;c14.738,31.458,50.778,62.755,121.052,47.616"/>
		<path style="fill:none;stroke:#000000;stroke-width:15;stroke-linecap:round;stroke-linejoin:round;stroke-miterlimit:10;" d="&#10;&#9;&#9;&#9;M167.778,393.137c8.818-3.205,18.063-7.037,27.771-11.585c12.818-6.005,24.189-12.187,34.248-18.484"/>
		<path style="fill:none;stroke:#000000;stroke-width:15;stroke-linecap:round;stroke-linejoin:round;stroke-miterlimit:10;" d="&#10;&#9;&#9;&#9;M73.959,243.701c-6.023,9.697-7.184,22.146-1.98,33.253c8.179,17.457,31.14,34.808,80.121,11.859&#10;&#9;&#9;&#9;c48.981-22.948,50.346-51.695,42.167-69.152c-5.204-11.107-15.512-18.183-26.817-19.761"/>
	</g>
	<g>
		<path style="fill:none;stroke:#000000;stroke-width:15;stroke-linecap:round;stroke-linejoin:round;stroke-miterlimit:10;" d="&#10;&#9;&#9;&#9;M214.333,286.237c-9.815,39.707,5.305,95.046,103.289,138.681c111.379,49.6,162.375,9.506,180.053-30.189&#10;&#9;&#9;&#9;c17.678-39.696-0.171-86.206-39.867-103.884c-14.053-6.258-28.959-8.063-43.137-6.022c-22.715,3.269-45.081-6.691-57.848-25.761&#10;&#9;&#9;&#9;c-7.969-11.904-19.282-21.775-33.335-28.034c-34.377-15.309-73.85-3.96-95.296,25.134"/>
		<path style="fill:none;stroke:#000000;stroke-width:15;stroke-linecap:round;stroke-linejoin:round;stroke-miterlimit:10;" d="&#10;&#9;&#9;&#9;M342.234,242.761c-11.273,1.794-21.444,9.067-26.434,20.272c-7.843,17.611-5.928,46.326,43.485,68.331s72.037,4.218,79.879-13.393&#10;&#9;&#9;&#9;c4.99-11.205,3.591-23.629-2.617-33.209"/>
	</g>
</g>















</svg>
