<?xml version="1.0" encoding="UTF-8"?>
<svg xmlns="http://www.w3.org/2000/svg" xmlns:xlink="http://www.w3.org/1999/xlink" version="1.1" id="Capa_1" x="0px" y="0px" viewBox="0 0 512 512" style="enable-background:new 0 0 512 512;" xml:space="preserve" width="512" height="512">
<g>
	<g>
		<g>
			<path style="fill:#E9A999;" d="M453.696,219.561c14.788-40.86-6.347-85.972-47.207-100.761&#10;&#9;&#9;&#9;&#9;c-14.465-5.235-29.462-5.968-43.458-2.916c-22.423,4.888-45.445-3.444-59.545-21.551c-8.801-11.302-20.793-20.338-35.258-25.573&#10;&#9;&#9;&#9;&#9;c-40.86-14.788-85.972,6.347-100.761,47.207c-14.788,40.86-5.846,105.112,108.8,146.605S438.908,260.421,453.696,219.561z"/>
			<path style="fill:#E39382;" d="M453.692,219.563c-14.787,40.855-62.776,84.5-177.422,43.007&#10;&#9;&#9;&#9;&#9;c-9.485-3.433-18.238-7.019-26.32-10.739c108.458,36.28,154.409-6.182,168.824-46.011c12.326-34.057-0.314-71.082-28.545-91.018&#10;&#9;&#9;&#9;&#9;c5.446,0.736,10.897,2.054,16.261,3.995C447.355,133.586,468.482,178.698,453.692,219.563z"/>
			<path style="fill:#A64B35;" d="M389.836,147.192c4.174-11.534,1.889-23.826-4.989-32.936c-7.396-0.487-14.734,0.084-21.815,1.628&#10;&#9;&#9;&#9;&#9;c-22.423,4.888-45.445-3.444-59.545-21.551c-4.453-5.719-9.726-10.854-15.72-15.214c-11.116,2.597-20.739,10.58-24.913,22.113&#10;&#9;&#9;&#9;&#9;c-6.561,18.127-2.593,46.632,48.268,65.04S383.276,165.319,389.836,147.192z"/>
			<path style="fill:#8B3D2A;" d="M389.834,147.195c-6.477,17.897-27.305,36.99-76.769,19.764&#10;&#9;&#9;&#9;&#9;c27.883,1.555,41.143-12.771,46.074-26.395c2.917-8.061,2.682-16.49-0.085-23.945c1.327-0.196,2.65-0.437,3.979-0.729&#10;&#9;&#9;&#9;&#9;c7.079-1.551,14.415-2.117,21.809-1.631C391.726,123.364,394.009,135.659,389.834,147.195z"/>
		</g>
		<g>
			<path style="fill:#E9A999;" d="M290.596,225.678c-18.435-39.349-65.279-56.304-104.629-37.868&#10;&#9;&#9;&#9;&#9;c-13.93,6.526-25.053,16.613-32.792,28.667c-12.398,19.312-34.57,29.699-57.343,26.866c-14.215-1.769-29.084,0.322-43.014,6.848&#10;&#9;&#9;&#9;&#9;C13.469,268.626-3.485,315.47,14.951,354.819s70.192,78.459,180.599,26.732S309.032,265.027,290.596,225.678z"/>
			<path style="fill:#E39382;" d="M298.838,270.354c-39.149-15.92-84.146,1.977-101.467,40.871&#10;&#9;&#9;&#9;&#9;c-8.47,19.02-11.881,43.788-0.894,69.883C270.584,346.146,295.911,305.283,298.838,270.354z"/>
			<path style="fill:#E39382;" d="M290.594,225.682c18.433,39.344,15.361,104.14-95.046,155.867&#10;&#9;&#9;&#9;&#9;c-9.134,4.28-17.86,7.933-26.205,11.017c102.345-51.038,104.812-113.555,86.842-151.912&#10;&#9;&#9;&#9;&#9;c-15.366-32.798-50.484-50.041-84.544-44.175c4.372-3.331,9.157-6.253,14.324-8.673&#10;&#9;&#9;&#9;&#9;C225.318,169.368,272.157,186.328,290.594,225.682z"/>
			<path style="fill:#A64B35;" d="M194.268,219.661c-5.204-11.107-15.512-18.183-26.817-19.761&#10;&#9;&#9;&#9;&#9;c-5.574,4.885-10.359,10.478-14.274,16.577c-12.399,19.312-34.57,29.699-57.343,26.866c-7.193-0.895-14.552-0.798-21.873,0.358&#10;&#9;&#9;&#9;&#9;c-6.023,9.697-7.184,22.146-1.98,33.253c8.179,17.457,31.14,34.808,80.121,11.859&#10;&#9;&#9;&#9;&#9;C201.082,265.865,202.447,237.118,194.268,219.661z"/>
			<path style="fill:#8B3D2A;" d="M194.268,219.664c8.075,17.235,6.849,45.463-40.309,68.259&#10;&#9;&#9;&#9;&#9;c20.815-18.617,20.062-38.123,13.915-51.244c-3.637-7.763-9.763-13.556-16.992-16.871c0.8-1.077,1.564-2.183,2.298-3.329&#10;&#9;&#9;&#9;&#9;c3.909-6.102,8.696-11.69,14.268-16.575C178.755,201.476,189.063,208.555,194.268,219.664z"/>
		</g>
		<g>
			<path style="fill:#FFF2BB;" d="M497.675,394.729c17.678-39.696-0.171-86.206-39.867-103.884&#10;&#9;&#9;&#9;&#9;c-14.053-6.258-28.959-8.063-43.137-6.022c-22.715,3.269-45.081-6.691-57.848-25.762c-7.969-11.904-19.282-21.775-33.335-28.033&#10;&#9;&#9;&#9;&#9;c-39.696-17.678-86.206,0.171-103.884,39.867s-13.361,104.423,98.018,154.023S479.998,434.425,497.675,394.729z"/>
			<path style="fill:#FDE784;" d="M497.671,394.73c-17.676,39.691-68.669,79.786-180.048,30.185&#10;&#9;&#9;&#9;&#9;c-9.215-4.104-17.688-8.308-25.483-12.597c105.58,43.957,154.455,4.896,171.687-33.798c14.734-33.086,4.78-70.922-21.951-92.829&#10;&#9;&#9;&#9;&#9;c5.38,1.124,10.722,2.829,15.933,5.15C497.509,308.52,515.35,355.03,497.671,394.73z"/>
			<path style="fill:#C2583F;" d="M439.164,317.971c4.99-11.205,3.591-23.629-2.617-33.209c-7.342-1.015-14.702-0.971-21.876,0.061&#10;&#9;&#9;&#9;&#9;c-22.715,3.269-45.081-6.691-57.848-25.762c-4.032-6.023-8.923-11.523-14.59-16.301c-11.273,1.794-21.444,9.067-26.434,20.272&#10;&#9;&#9;&#9;&#9;c-7.843,17.611-5.928,46.326,43.485,68.331S431.322,335.581,439.164,317.971z"/>
			<path style="fill:#A64B35;" d="M439.161,317.973c-7.743,17.387-29.885,34.939-77.988,14.213&#10;&#9;&#9;&#9;&#9;c27.7,3.548,41.952-9.79,47.847-23.027c3.487-7.831,3.857-16.255,1.63-23.89c1.338-0.1,2.674-0.246,4.021-0.442&#10;&#9;&#9;&#9;&#9;c7.172-1.039,14.529-1.079,21.87-0.065C442.756,294.339,444.152,306.766,439.161,317.973z"/>
		</g>
	</g>
	<g>
		<g>
			<path style="fill:none;stroke:#000000;stroke-width:15;stroke-linecap:round;stroke-linejoin:round;stroke-miterlimit:10;" d="&#10;&#9;&#9;&#9;&#9;M377.639,278.145c44.174-5.911,66.726-32.802,76.057-58.584c14.789-40.86-6.347-85.972-47.207-100.76&#10;&#9;&#9;&#9;&#9;c-14.465-5.235-29.462-5.968-43.458-2.917c-22.422,4.888-45.445-3.444-59.545-21.551c-8.801-11.302-20.793-20.338-35.258-25.573&#10;&#9;&#9;&#9;&#9;c-40.86-14.788-85.972,6.347-100.76,47.207c-4.716,13.03-7.01,28.441-4.241,44.732"/>
			<path style="fill:none;stroke:#000000;stroke-width:15;stroke-linecap:round;stroke-linejoin:round;stroke-miterlimit:10;" d="&#10;&#9;&#9;&#9;&#9;M287.767,79.12c-11.116,2.597-20.739,10.58-24.913,22.113c-6.561,18.127-2.593,46.632,48.268,65.04s72.154-0.954,78.715-19.082&#10;&#9;&#9;&#9;&#9;c4.174-11.534,1.889-23.826-4.989-32.936"/>
		</g>
		<g>
			<path style="fill:none;stroke:#000000;stroke-width:15;stroke-linecap:round;stroke-linejoin:round;stroke-miterlimit:10;" d="&#10;&#9;&#9;&#9;&#9;M289.887,224.203c-18.904-38.296-65.065-54.597-103.92-36.394c-13.93,6.526-25.052,16.613-32.792,28.667&#10;&#9;&#9;&#9;&#9;c-12.399,19.312-34.57,29.699-57.343,26.866c-14.215-1.769-29.084,0.322-43.014,6.848&#10;&#9;&#9;&#9;&#9;c-39.349,18.436-56.303,65.28-37.868,104.629c14.738,31.458,50.778,62.755,121.052,47.616"/>
			<path style="fill:none;stroke:#000000;stroke-width:15;stroke-linecap:round;stroke-linejoin:round;stroke-miterlimit:10;" d="&#10;&#9;&#9;&#9;&#9;M167.778,393.137c8.818-3.205,18.063-7.037,27.771-11.585c12.818-6.005,24.189-12.187,34.248-18.484"/>
			<path style="fill:none;stroke:#000000;stroke-width:15;stroke-linecap:round;stroke-linejoin:round;stroke-miterlimit:10;" d="&#10;&#9;&#9;&#9;&#9;M73.959,243.701c-6.023,9.697-7.184,22.146-1.98,33.253c8.179,17.457,31.14,34.808,80.121,11.859&#10;&#9;&#9;&#9;&#9;c48.981-22.948,50.346-51.695,42.167-69.152c-5.204-11.107-15.512-18.183-26.817-19.761"/>
		</g>
		<g>
			<path style="fill:none;stroke:#000000;stroke-width:15;stroke-linecap:round;stroke-linejoin:round;stroke-miterlimit:10;" d="&#10;&#9;&#9;&#9;&#9;M214.333,286.237c-9.815,39.707,5.305,95.046,103.289,138.681c111.379,49.6,162.375,9.506,180.053-30.189&#10;&#9;&#9;&#9;&#9;c17.678-39.696-0.171-86.206-39.867-103.884c-14.053-6.258-28.959-8.063-43.137-6.022c-22.715,3.269-45.081-6.691-57.848-25.761&#10;&#9;&#9;&#9;&#9;c-7.969-11.904-19.282-21.775-33.335-28.034c-34.377-15.309-73.85-3.96-95.296,25.134"/>
			<path style="fill:none;stroke:#000000;stroke-width:15;stroke-linecap:round;stroke-linejoin:round;stroke-miterlimit:10;" d="&#10;&#9;&#9;&#9;&#9;M342.234,242.761c-11.273,1.794-21.444,9.067-26.434,20.272c-7.843,17.611-5.928,46.326,43.485,68.331&#10;&#9;&#9;&#9;&#9;s72.037,4.218,79.879-13.393c4.99-11.205,3.591-23.629-2.617-33.209"/>
		</g>
	</g>
</g>















</svg>
