<svg id="filled_copy" height="300" viewBox="0 0 64 64" width="300" xmlns="http://www.w3.org/2000/svg" data-name="filled copy" version="1.1" xmlns:xlink="http://www.w3.org/1999/xlink" xmlns:svgjs="http://svgjs.dev/svgjs"><g width="100%" height="100%" transform="matrix(1,0,0,1,0,0)"><g fill="#d56a00"><path d="m61 34v27l-7-6v-21z" fill="#d56a00" fill-opacity="0" data-original-color="#d56a00ff" stroke="none" stroke-opacity="1"/><path d="m54 22 7 12h-7-7z" fill="#d56a00" fill-opacity="0" data-original-color="#d56a00ff" stroke="none" stroke-opacity="1"/><path d="m61 61h-14l7-6z" fill="#d56a00" fill-opacity="0" data-original-color="#d56a00ff" stroke="none" stroke-opacity="1"/><path d="m54 34v21l-7 6v-27z" fill="#d56a00" fill-opacity="0" data-original-color="#d56a00ff" stroke="none" stroke-opacity="1"/></g><path d="m54 22-7 12h-44l8-12z" fill="#e09000" fill-opacity="0" data-original-color="#e09000ff" stroke="none" stroke-opacity="1"/><path d="m3 34h44v27h-44z" fill="#f8bf3c" fill-opacity="0" data-original-color="#f8bf3cff" stroke="none" stroke-opacity="1"/><path d="m31.687 61h15.313v-27h-3z" fill="#d28e14" fill-opacity="0" data-original-color="#d28e14ff" stroke="none" stroke-opacity="1"/><path d="m54 16v6h-43v-6a6 6 0 0 1 6-6h31a6 6 0 0 1 6 6zm-12 2v-2a2.006 2.006 0 0 0 -2-2h-16a2.006 2.006 0 0 0 -2 2v2z" fill="#f8bf3c" fill-opacity="0" data-original-color="#f8bf3cff" stroke="none" stroke-opacity="1"/><path d="m50.542 10.573-2.542 11.427h6v-6a6 6 0 0 0 -3.458-5.427z" fill="#d28b15" fill-opacity="0" data-original-color="#d28b15ff" stroke="none" stroke-opacity="1"/><path d="m39 57h-26a13 13 0 0 1 26 0z" fill="#a0a0a0" fill-opacity="0" data-original-color="#a0a0a0ff" stroke="none" stroke-opacity="1"/><path d="m61.864 33.5-6.864-11.77v-5.73a7.008 7.008 0 0 0 -7-7h-31a7.008 7.008 0 0 0 -7 7v5.7l-7.832 11.745a.993.993 0 0 0 -.163.555h-.005v27a1 1 0 0 0 1 1h58a1 1 0 0 0 1-1v-27a1 1 0 0 0 -.136-.5zm-13.864 1.5h5v19.54l-5 4.286zm6 21.317 4.3 3.683h-8.6zm1-1.777v-19.54h5v23.826zm-6.259-21.54 5.259-9.016 5.259 9.016zm-36.741-17a5.006 5.006 0 0 1 5-5h31a5.006 5.006 0 0 1 5 5v5h-41zm-.465 7h40.724l-5.833 10h-41.557zm-7.535 12h42v25h-42z" fill="#000000" fill-opacity="1" data-original-color="#000000ff" stroke="none" stroke-opacity="1"/><path d="m40 13h-16a3 3 0 0 0 -3 3v2a1 1 0 0 0 1 1h20a1 1 0 0 0 1-1v-2a3 3 0 0 0 -3-3zm1 4h-18v-1a1 1 0 0 1 1-1h16a1 1 0 0 1 1 1z" fill="#000000" fill-opacity="1" data-original-color="#000000ff" stroke="none" stroke-opacity="1"/><path d="m39.949 56a14 14 0 0 0 -12.949-12.949v-1.051h-2v1.051a14 14 0 0 0 -12.949 12.949h-2.051v2h32v-2zm-13.949-11a12.009 12.009 0 0 1 11.949 11h-23.9a12.009 12.009 0 0 1 11.951-11z" fill="#000000" fill-opacity="1" data-original-color="#000000ff" stroke="none" stroke-opacity="1"/><path d="m26 47v2a7.981 7.981 0 0 1 5.333 2.042l1.334-1.49a9.975 9.975 0 0 0 -6.667-2.552z" fill="#000000" fill-opacity="1" data-original-color="#000000ff" stroke="none" stroke-opacity="1"/><path d="m34.311 51.443-1.662 1.114a7.939 7.939 0 0 1 .894 1.777l1.885-.668a10.046 10.046 0 0 0 -1.117-2.223z" fill="#000000" fill-opacity="1" data-original-color="#000000ff" stroke="none" stroke-opacity="1"/><path d="m20 40h8a1 1 0 0 1 1 1v1h2v-1a2.966 2.966 0 0 0 -.184-1h2.184a1 1 0 0 1 1 1v1h2v-1a3 3 0 0 0 -3-3h-13a1 1 0 0 1 -1-1h-2a3 3 0 0 0 3 3z" fill="#000000" fill-opacity="1" data-original-color="#000000ff" stroke="none" stroke-opacity="1"/></g></svg>