<svg height="512pt" viewBox="0 0 512 512.00152" width="512pt" xmlns="http://www.w3.org/2000/svg"><path d="m432.703125 173.21875-60.789063 72.9375-85.9375 24.316406v-76.332031l-.253906-10.609375-1.773437-74.800781c2.039062-11.0625 4.945312-21.652344 8.621093-31.628907 11.074219-30 29.121094-54.46875 51.277344-69.503906 22.160156 15.035156 40.203125 39.503906 51.265625 69.503906 3.6875 9.976563 6.597657 20.566407 8.621094 31.628907l28.339844 63.089843zm0 0" fill="#9fd179"/><path d="m432.074219 171.820312-92.308594 31.671876-54.042969-19.960938-1.773437-74.800781c2.039062-11.0625 4.945312-21.652344 8.621093-31.628907 16.992188 16.472657 32.542969 37.515626 44.90625 62.023438 2.472657 4.90625 4.589844 9.472656 6.371094 13.78125 1.773438-4.308594 3.890625-8.875 6.363282-13.78125 12.359374-24.515625 27.914062-45.5625 44.902343-62.023438 3.6875 9.976563 6.597657 20.566407 8.621094 31.628907zm0 0" fill="#55b774"/><path d="m347.921875 203.492188h-115.15625c-18.003906-46.789063-19.261719-93.089844-5.003906-124.8125 18.628906 4.0625 38.023437 14.480468 56.179687 30.042968v.007813c20.332032 17.417969 39.105469 41.296875 53.535156 69.910156 2.472657 4.902344 4.589844 9.480469 6.371094 13.789063 1.621094 3.898437 2.96875 7.578124 4.074219 11.0625zm0 0" fill="#9fd179"/><path d="m454.925781 203.492188c18.003907-46.789063 19.257813-93.089844 5.003907-124.8125-18.632813 4.0625-38.023438 14.480468-56.179688 30.042968v.007813c-20.332031 17.417969-39.109375 41.296875-53.535156 69.910156-2.472656 4.902344-4.589844 9.480469-6.371094 13.789063-1.621094 3.898437-2.96875 7.578124-4.074219 11.0625" fill="#9fd179"/><path d="m290.6875 203.492188h-57.921875c-18.003906-46.789063-19.261719-93.089844-5.003906-124.8125zm0 0" fill="#55b774"/><path d="m189.9375 442.871094c-9.613281 2.007812-19.078125 4.429687-28.359375 7.265625-30.472656 9.320312-23.765625 54.265625 8.097656 54.265625h172.296875c31.863282 0 38.570313-44.945313 8.097656-54.265625-9.28125-2.835938-18.746093-5.257813-28.359374-7.265625 105.113281-28.855469 182.339843-125.105469 182.339843-239.378906h-496.453125c0 114.273437 77.226563 210.523437 182.339844 239.378906zm0 0" fill="#f7e680"/><path d="m192.148438 203.492188h-116.75l-18.953126-108.085938 84.921876-23.574219 8.5625 22.207031zm0 0" fill="#996136"/><path d="m192.148438 203.492188h-89.441407l-13.714843-78.195313c-1.359376-7.761719 3.394531-15.285156 10.984374-17.390625l49.953126-13.867188zm0 0" fill="#c28e63"/><path d="m205.511719 504.402344h-35.835938c-31.863281 0-38.570312-44.945313-8.097656-54.265625 9.28125-2.835938 18.746094-5.257813 28.359375-7.265625-105.113281-28.855469-182.339844-125.105469-182.339844-239.378906h103.253906c0 114.273437 45.105469 210.523437 106.492188 239.378906-5.613281 2.007812-11.144531 4.429687-16.5625 7.265625-17.804688 9.320312-13.882812 54.265625 4.730469 54.265625zm0 0" fill="#eda532"/><path d="m161.355469 50.121094c0 9.320312-6.167969 17.871094-15.589844 20.484375l-67.722656 18.804687-21.597657 5.996094c-11.316406 3.144531-23.050781-3.484375-26.191406-14.800781-.527344-1.90625-.78125-3.820313-.78125-5.703125 0-9.320313 6.171875-17.871094 15.59375-20.496094l43.199219-11.996094 46.121094-12.796875c11.316406-3.152343 23.039062 3.484375 26.191406 14.800781.527344 1.90625.777344 3.820313.777344 5.707032zm0 0" fill="#996136"/><path d="m161.355469 50.121094c0 9.320312-6.167969 17.871094-15.589844 20.484375l-67.722656 18.804687c-11.316407 3.140625-23.046875-3.484375-26.1875-14.800781-.527344-1.90625-.78125-3.820313-.78125-5.707031 0-9.320313 6.171875-17.871094 15.59375-20.496094l21.597656-5.996094 46.121094-12.796875c11.316406-3.152343 23.039062 3.484375 26.191406 14.800781.527344 1.90625.777344 3.820313.777344 5.707032zm0 0" fill="#c28e63"/><path d="m504.050781 195.894531h-38.34375c14.820313-44.355469 15.367188-88.695312 1.152344-120.328125-1.472656-3.277344-5.039063-5.074218-8.546875-4.308594-16.449219 3.582032-33.453125 11.785157-49.734375 23.894532-10.007813-40.507813-31.640625-74.277344-60.464844-93.839844-2.578125-1.75-5.957031-1.75-8.535156 0-28.816406 19.558594-50.453125 53.328125-60.472656 93.835938-16.28125-12.105469-33.28125-20.304688-49.722657-23.890626-3.511718-.765624-7.078124 1.03125-8.550781 4.308594-14.21875 31.644532-13.675781 75.980469 1.144531 120.328125h-24.613281l-20.398437-52.886719c-1.511719-3.914062-5.910156-5.867187-9.824219-4.355468-3.914063 1.511718-5.867187 5.910156-4.355469 9.824218l18.289063 47.417969h-99.289063l-16.664062-95.007812 71.636718-19.890625 15.328126 39.746094c1.511718 3.914062 5.910156 5.863281 9.824218 4.355468 3.917969-1.507812 5.867188-5.910156 4.355469-9.824218l-14.886719-38.597657c5.828125-2.46875 10.664063-6.753906 13.828125-12.355469 3.796875-6.714843 4.75-14.503906 2.6875-21.933593-2.0625-7.433594-6.898437-13.617188-13.609375-17.410157-6.714844-3.796874-14.507812-4.75-21.9375-2.6875l-89.320312 24.800782c-15.339844 4.257812-24.355469 20.203125-20.09375 35.546875 3.492187 12.574219 14.835937 20.878906 27.261718 21.128906l16.160157 92.128906h-58.757813c-4.195312 0-7.597656 3.402344-7.597656 7.597657 0 57.179687 18.445312 111.25 53.339844 156.371093 28.363281 36.679688 66.582031 65.167969 109.449218 81.980469-1.148437.335938-2.292968.679688-3.433593 1.027344-17.144531 5.246094-27.269531 21.292968-24.621094 39.027344 2.652344 17.722656 17.019531 30.101562 34.941406 30.101562h172.300781c17.917969 0 32.285157-12.378906 34.9375-30.101562 2.648438-17.734376-7.472656-33.78125-24.625-39.027344-1.125-.34375-2.257812-.683594-3.390624-1.015625 15.46875-6.042969 30.335937-13.601563 44.417968-22.59375 3.539063-2.257813 4.574219-6.957031 2.316406-10.492188-2.257812-3.539062-6.957031-4.574219-10.492187-2.316406-20.289063 12.953125-42.304687 22.742187-65.441406 29.09375-3.386719.929687-5.691407 4.054687-5.582031 7.5625.105468 3.507813 2.605468 6.488281 6.042968 7.203125 9.375 1.957031 18.6875 4.34375 27.6875 7.09375 12.253906 3.746094 15.21875 14.324219 14.035156 22.246094-1.183593 7.914062-7.109374 17.152344-19.90625 17.152344h-172.300781c-12.800781 0-18.726562-9.238282-19.910156-17.152344-1.183594-7.921875 1.78125-18.5 14.035156-22.246094 8.765625-2.679688 17.832031-5.007812 26.960938-6.933594h88.457031c4.195312 0 7.597656-3.402344 7.597656-7.597656s-3.402344-7.597656-7.597656-7.597656h-88.21875c-49.449219-13.800782-94.039062-43.851563-125.636719-84.710938-31.265625-40.429687-48.492187-88.507812-50.046875-139.472656h481.019532c-2.175782 69.871094-34.261719 134.832031-88.792969 179.179688-3.253907 2.648437-3.746094 7.433593-1.101563 10.6875 2.648438 3.257812 7.4375 3.75 10.691406 1.101562 60.066407-48.851562 94.515626-121.226562 94.515626-198.566406 0-4.199219-3.402344-7.601563-7.597657-7.601563zm-466.476562-117.324219c-2.015625-7.265624 2.253906-14.820312 9.519531-16.835937l89.320312-24.804687c1.21875-.335938 2.453126-.503907 3.679688-.503907 2.328125 0 4.628906.601563 6.710938 1.777344 3.179687 1.800781 5.46875 4.726563 6.445312 8.246094.980469 3.523437.527344 7.210937-1.269531 10.390625-1.796875 3.179687-4.726563 5.472656-8.246094 6.449218l-89.320313 24.796876c-.007812.003906-.011718.003906-.015624.007812-7.261719 2.007812-14.808594-2.261719-16.824219-9.523438zm412.054687 117.324219h-40.292968l19.132812-37.9375c1.886719-3.746093.382812-8.316406-3.363281-10.207031-3.746094-1.886719-8.316407-.382812-10.207031 3.363281l-22.582032 44.777344h-38.960937c-.40625-1.117187-.832031-2.246094-1.277344-3.386719 1.453125-3.339844 3.09375-6.839844 4.910156-10.445312 13.511719-26.792969 31.386719-50.152344 51.699219-67.558594 15.226562-13.058594 31.242188-22.238281 46.703125-26.8125 10.566406 28.96875 8.488281 68.554688-5.761719 108.207031zm-105.78125-178.949219c25.210938 19.058594 43.761719 51.019532 51.59375 88.972657-16.644531 14.945312-31.625 33.558593-43.996094 54.601562v-96.367187c0-4.195313-3.402343-7.597656-7.597656-7.597656-4.199218 0-7.597656 3.402343-7.597656 7.597656v96.382812c-12.378906-21.058594-27.363281-39.671875-44.007812-54.613281 7.84375-37.957031 26.394531-69.917969 51.605468-88.976563zm-111.542968 70.746094c15.367187 4.546875 31.292968 13.648438 46.445312 26.585938.082031.078125.164062.152344.25.226562 20.300781 17.386719 38.175781 40.746094 51.691406 67.554688 2.378906 4.714844 4.445313 9.179687 6.140625 13.285156 0 0 .003907 0 .003907.003906.074218.183594.144531.363282.21875.546875h-41.6875l-22.582032-44.78125c-1.890625-3.746093-6.460937-5.25-10.207031-3.359375-3.746094 1.886719-5.253906 6.457032-3.363281 10.203125l19.132812 37.9375h-40.292968c-14.25-39.640625-16.328126-79.226562-5.75-108.203125zm0 0"/></svg>