<svg id="Layer_3" enable-background="new 0 0 64 64" height="512" viewBox="0 0 64 64" width="512" xmlns="http://www.w3.org/2000/svg"><g><path d="m44.067 8h-2.067c-2.462 0-4.928-.583-7.13-1.684l-2.422-1.211c-.259-.129-.562-.14-.83-.029s-.474.333-.566.607l-.98 2.94c-.574 1.721-1.783 3.115-3.404 3.925-2.233 1.117-3.891 3.139-4.548 5.548l-1.109 4.067c-.225.015-.453.022-.677.039-5.866.451-11.028 4.121-13.47 9.368l-.805.23c-2.979.851-5.059 3.609-5.059 6.706 0 1.141.284 2.276.82 3.282l4.124 7.732c2.167 4.064 5.768 7.104 10.137 8.561 1.829.61 3.734.919 5.663.919 6.9 0 13.625-1.958 19.447-5.663.17-.108.334-.226.497-.346 1.981 1.314 4.284 2.009 6.662 2.009 2.013 0 3.65-1.638 3.65-3.65 0-.526.254-1.025.68-1.335 6.462-4.7 10.32-12.276 10.32-20.267v-2.815c0-4.721-1.749-9.244-4.924-12.736-3.58-3.938-8.686-6.197-14.009-6.197zm-23.581 16.196c1.693-.13 3.413-.196 5.112-.196h4.071c2.571 0 5.105.87 7.135 2.448 3.135 2.439 5.255 5.867 6.039 9.73l-4.863.811c-4.004.667-8.085.878-12.136.624-6.072-.379-11.978-1.774-17.606-4.165 1.909-5.152 6.726-8.827 12.248-9.252zm-14.465 9.749c-.013.411.229.816.616.987 6.053 2.69 12.474 4.264 19.083 4.677 1.15.072 2.303.108 3.457.108 3.057 0 6.117-.252 9.133-.755l5.855-.976c.536-.089.902-.59.825-1.128-.048-.338-.126-.667-.192-1 1.531.496 2.984 1.198 4.333 2.097.377.251.639.624.771 1.044h-.548c-2.348 0-4.7.555-6.801 1.605-1.824.914-3.867 1.396-5.907 1.396-4.387 0-8.831-.148-13.21-.439l-3.77-.251c-2.976-.199-5.935-.734-8.793-1.592-2.636-.791-4.931-2.309-6.692-4.399.493-.588 1.116-1.063 1.84-1.374zm34.095 17.705c-5.5 3.5-11.853 5.35-18.372 5.35-1.713 0-3.405-.274-5.03-.816-3.881-1.294-7.08-3.994-9.005-7.604l-4.124-7.732c-.383-.718-.585-1.528-.585-2.342 0-.446.075-.876.189-1.293 1.934 2.075 4.359 3.595 7.109 4.42 3.002.9 6.109 1.463 9.235 1.671l3.77.251c4.423.296 8.912.445 13.343.445 2.349 0 4.701-.555 6.801-1.605 1.825-.913 3.867-1.395 5.907-1.395h.024c-.259.243-.581.421-.948.494-1.986.397-3.596 1.766-4.308 3.663l-1.083 2.887c-.553 1.478-1.591 2.759-2.923 3.606zm20.884-21.902c0 7.353-3.55 14.325-9.497 18.649-.941.686-1.503 1.789-1.503 2.953 0 .91-.74 1.65-1.65 1.65-1.817 0-3.571-.508-5.125-1.432.721-.833 1.3-1.787 1.689-2.822l1.083-2.887c.467-1.245 1.523-2.144 2.827-2.404 1.84-.368 3.176-1.997 3.176-3.875 0-1.325-.658-2.554-1.76-3.289-1.848-1.232-3.874-2.115-6.02-2.663-1.143-3.447-3.268-6.487-6.188-8.759-2.379-1.85-5.349-2.869-8.363-2.869h-.538c.148-1.252.419-2.487.818-3.684l-1.897-.633c-.467 1.401-.772 2.85-.928 4.316h-1.526c-.825 0-1.654.018-2.483.048l.934-3.425c.507-1.861 1.788-3.423 3.513-4.285 2.1-1.05 3.665-2.854 4.407-5.082l.615-1.847 1.391.696c2.479 1.241 5.254 1.896 8.025 1.896h2.067c4.76 0 9.327 2.021 12.53 5.543 2.839 3.123 4.403 7.168 4.403 11.39z"/><path d="m39.025 11.49-1.353-1.229-1.346 1.479 1.353 1.229c6.032 5.483 9.698 12.979 10.323 21.107l1.994-.153c-.663-8.638-4.56-16.606-10.971-22.433z"/><path d="m20.056 53h-2.056v2h2.056c6.005 0 12.019-1.42 17.392-4.105l-.895-1.789c-5.096 2.547-10.801 3.894-16.497 3.894z"/></g></svg>