<svg id="Layer_3" enable-background="new 0 0 64 64" height="512" viewBox="0 0 64 64" width="512" xmlns="http://www.w3.org/2000/svg"><g><path d="m21.789 23.107 1.295-4.748c.583-2.138 2.049-3.926 4.031-4.917 1.848-.924 3.252-2.544 3.906-4.503l.979-2.94 2.423 1.212c2.352 1.176 4.947 1.789 7.577 1.789h2.067c5.053 0 9.871 2.131 13.269 5.87 3.001 3.301 4.664 7.602 4.664 12.063v2.815c0 7.698-3.683 14.93-9.908 19.458-.686.499-1.092 1.296-1.092 2.144 0 1.464-1.187 2.65-2.65 2.65-2.184 0-4.319-.647-6.137-1.858l-.575-.384" fill="#672a0d"/><path d="m57.211 27.749v-2.815c0-4.461-1.663-8.762-4.664-12.063-1.183-1.302-2.547-2.395-4.025-3.285-1.444-.371-2.936-.586-4.455-.586h-2.067c-2.63 0-5.225-.613-7.577-1.789l-1.579-.79c-.301-.08-.599-.169-.896-.266l-.928 2.784c-.653 1.96-2.058 3.58-3.906 4.503-1.982.991-3.448 2.779-4.031 4.917l-1.295 4.748 19.849 28.651.14.093c.587.096 1.183.149 1.783.149 1.464 0 2.65-1.187 2.65-2.65 0-.848.406-1.645 1.091-2.143 6.227-4.527 9.91-11.76 9.91-19.458z" fill="#893b1b"/><path d="m7.576 32.407-1.243.355c-2.565.733-4.333 3.077-4.333 5.744 0 .981.241 1.946.703 2.811l4.124 7.732c2.038 3.82 5.463 6.713 9.571 8.083 1.723.575 3.528.868 5.345.868 6.699 0 13.258-1.91 18.91-5.507 1.523-.969 2.69-2.408 3.324-4.098l1.083-2.887c.585-1.56 1.934-2.707 3.568-3.034 1.379-.275 2.372-1.487 2.372-2.894 0-.987-.493-1.909-1.315-2.456-1.909-1.273-4.028-2.175-6.244-2.672" fill="#893b1b"/><path d="m49.685 37.124c-1.909-1.273-4.028-2.175-6.244-2.672l-35.865-2.045-1.243.355c-.246.07-.478.168-.709.267-1.01 1.081-1.624 2.515-1.624 4.071 0 .981.241 1.946.703 2.811l4.124 7.732c2.037 3.82 5.463 6.713 9.571 8.083 1.724.575 3.529.868 5.346.868 6.382 0 12.628-1.752 18.092-5.026.943-.875 1.685-1.954 2.141-3.172l1.083-2.887c.585-1.56 1.934-2.707 3.568-3.034 1.379-.276 2.372-1.488 2.372-2.895 0-.987-.493-1.909-1.315-2.456z" fill="#a44b2f"/><path d="m49.685 37.124c-1.909-1.273-4.028-2.175-6.244-2.672l-35.865-2.045-1.243.355c-1.462.418-2.649 1.369-3.414 2.595 1.919 2.528 4.599 4.398 7.666 5.318 2.934.88 5.958 1.427 9.014 1.631l3.77.251c4.419.296 8.847.443 13.277.443 2.206 0 4.381-.514 6.354-1.5s4.148-1.5 6.354-1.5h1.609c.02-.138.037-.277.037-.42 0-.987-.493-1.909-1.315-2.456z" fill="#522006"/><g fill="#672a0d"><path d="m48.003 34.077c-.625-8.128-4.291-15.624-10.323-21.107l-1.353-1.229 1.346-1.479 1.353 1.229c6.411 5.828 10.307 13.795 10.972 22.434z"/><path d="m29 24.035-2-.07.035-1c.108-1.813.45-3.582 1.016-5.282l1.897.633c-.511 1.534-.819 3.129-.916 4.743z"/><path d="m20.056 55h-2.056v-2h2.056c5.696 0 11.401-1.347 16.497-3.895l.895 1.789c-5.373 2.686-11.387 4.106-17.392 4.106z"/></g><path d="m44 37-5.855.976c-4.083.681-8.231.894-12.362.636-6.47-.404-12.816-1.959-18.739-4.592l-.044-.02c1.808-6.026 7.137-10.318 13.41-10.801 1.726-.133 3.457-.199 5.188-.199h4.071c2.807 0 5.534.936 7.749 2.659 3.581 2.785 5.941 6.851 6.582 11.341z" fill="#e7b532"/><path d="m38.145 37.976 3.678-.613c-.816-4.121-3.072-7.829-6.404-10.422-2.216-1.723-4.942-2.659-7.749-2.659h-4.071c-1.731 0-3.462.066-5.188.199-2.154.166-4.191.789-6.018 1.769-2.518 1.909-4.444 4.586-5.393 7.75l.043.019c5.924 2.633 12.27 4.188 18.739 4.592 4.132.259 8.28.045 12.363-.635z" fill="#f9cb66"/><path d="m44.067 8h-2.067c-2.462 0-4.928-.583-7.13-1.684l-2.422-1.211c-.259-.129-.562-.14-.83-.029s-.474.333-.566.607l-.98 2.94c-.574 1.721-1.783 3.115-3.404 3.925-2.233 1.117-3.891 3.139-4.548 5.548l-1.109 4.067c-.225.015-.453.022-.677.039-5.866.451-11.028 4.121-13.47 9.368l-.805.23c-2.979.851-5.059 3.609-5.059 6.706 0 1.141.284 2.276.82 3.282l4.124 7.732c2.167 4.064 5.768 7.104 10.137 8.561 1.829.61 3.734.919 5.663.919 6.9 0 13.625-1.958 19.447-5.663.17-.108.334-.226.497-.346 1.981 1.314 4.284 2.009 6.662 2.009 2.013 0 3.65-1.638 3.65-3.65 0-.526.254-1.025.68-1.335 6.462-4.7 10.32-12.276 10.32-20.267v-2.815c0-4.721-1.749-9.244-4.924-12.736-3.58-3.938-8.686-6.197-14.009-6.197zm-23.581 16.196c1.693-.13 3.413-.196 5.112-.196h4.071c2.571 0 5.105.87 7.135 2.448 3.135 2.439 5.255 5.867 6.039 9.73l-4.863.811c-4.004.667-8.085.878-12.136.624-6.072-.379-11.978-1.774-17.606-4.165 1.909-5.152 6.726-8.827 12.248-9.252zm-14.465 9.749c-.013.411.229.816.616.987 6.053 2.69 12.474 4.264 19.083 4.677 1.15.072 2.303.108 3.457.108 3.057 0 6.117-.252 9.133-.755l5.855-.976c.536-.089.902-.59.825-1.128-.048-.338-.126-.667-.192-1 1.531.496 2.984 1.198 4.333 2.097.377.251.639.624.771 1.044h-.548c-2.348 0-4.7.555-6.801 1.605-1.824.914-3.867 1.396-5.907 1.396-4.387 0-8.831-.148-13.21-.439l-3.77-.251c-2.976-.199-5.935-.734-8.793-1.592-2.636-.791-4.931-2.309-6.692-4.399.493-.588 1.116-1.063 1.84-1.374zm34.095 17.705c-5.5 3.5-11.853 5.35-18.372 5.35-1.713 0-3.405-.274-5.03-.816-3.881-1.294-7.08-3.994-9.005-7.604l-4.124-7.732c-.383-.718-.585-1.528-.585-2.342 0-.446.075-.876.189-1.293 1.934 2.075 4.359 3.595 7.109 4.42 3.002.9 6.109 1.463 9.235 1.671l3.77.251c4.423.296 8.912.445 13.343.445 2.349 0 4.701-.555 6.801-1.605 1.825-.913 3.867-1.395 5.907-1.395h.024c-.259.243-.581.421-.948.494-1.986.397-3.596 1.766-4.308 3.663l-1.083 2.887c-.553 1.478-1.591 2.759-2.923 3.606zm20.884-21.902c0 7.353-3.55 14.325-9.497 18.649-.941.686-1.503 1.789-1.503 2.953 0 .91-.74 1.65-1.65 1.65-1.817 0-3.571-.508-5.125-1.432.721-.833 1.3-1.787 1.689-2.822l1.083-2.887c.467-1.245 1.523-2.144 2.827-2.404 1.84-.368 3.176-1.997 3.176-3.875 0-1.325-.658-2.554-1.76-3.289-1.848-1.232-3.874-2.115-6.02-2.663-1.143-3.447-3.268-6.487-6.188-8.759-2.379-1.85-5.349-2.869-8.363-2.869h-.538c.148-1.252.419-2.487.818-3.684l-1.897-.633c-.467 1.401-.772 2.85-.928 4.316h-1.526c-.825 0-1.654.018-2.483.048l.934-3.425c.507-1.861 1.788-3.423 3.513-4.285 2.1-1.05 3.665-2.854 4.407-5.082l.615-1.847 1.391.696c2.479 1.241 5.254 1.896 8.025 1.896h2.067c4.76 0 9.327 2.021 12.53 5.543 2.839 3.123 4.403 7.168 4.403 11.39z"/><path d="m39.025 11.49-1.353-1.229-1.346 1.479 1.353 1.229c6.032 5.483 9.698 12.979 10.323 21.107l1.994-.153c-.663-8.638-4.56-16.606-10.971-22.433z"/><path d="m20.056 53h-2.056v2h2.056c6.005 0 12.019-1.42 17.392-4.105l-.895-1.789c-5.096 2.547-10.801 3.894-16.497 3.894z"/></g></svg>