<?xml version="1.0" encoding="UTF-8"?>
<svg xmlns="http://www.w3.org/2000/svg" id="simpleline" viewBox="0 0 512 512" width="512" height="512"><path d="M496,288a151.249,151.249,0,0,0-35.86-97.849c20.891-56.365,10.609-125.036-5.46-154.034A8.029,8.029,0,0,0,447.875,32h-.195a7.993,7.993,0,0,0-6.8,3.789c-11.063,17.844-44.672,36.742-65.094,40.492-25.922,4.664-48.055,11.242-67.672,20.117-1.425.65-2.825,1.414-4.227,2.185.047-.86.11-1.717.11-2.583a47.924,47.924,0,0,0-34.586-46.094,39.99,39.99,0,0,0-76.742,6.766A39.958,39.958,0,0,0,172.719,125.2a39.883,39.883,0,0,0-3.2,29.735,47.648,47.648,0,0,0-10.534,12.385,39.929,39.929,0,0,0-49.911-29.792,47.56,47.56,0,0,0-33.344-17.382,31.966,31.966,0,1,0-50.726,38.078A48.021,48.021,0,0,0,32.305,195a40.113,40.113,0,0,0,9.64,31.375,47.963,47.963,0,0,0-1.434,6.6,31.873,31.873,0,0,0-.315,61.945A198.938,198.938,0,0,0,117.07,445.742a8,8,0,1,0,9.86-12.609A183.065,183.065,0,0,1,56.172,296H192.405c4.188,79.866,70.128,143.618,150.937,143.967A183.311,183.311,0,0,1,240,472a181.342,181.342,0,0,1-86.852-21.844,8,8,0,0,0-7.578,14.094,199.523,199.523,0,0,0,227.481-27.107C443.005,423.539,496,361.873,496,288ZM378.648,92.023c20.454-3.757,49.93-19.179,67.086-36.843,10.432,28.443,15.465,78.731,1.963,122a152.456,152.456,0,0,0-34.758-24.47,176.925,176.925,0,0,0,19.788-41.363,8,8,0,1,0-15.219-4.922,161.357,161.357,0,0,1-19.4,39.708,146.342,146.342,0,0,0-78.266-8.021c.03-.709.159-1.4.159-2.109a47.929,47.929,0,0,0-6.7-24.291c.477-.237.954-.522,1.432-.74C333.117,102.648,354.008,96.453,378.648,92.023ZM183.375,164.672a8.01,8.01,0,0,0,2.984-10.414A22.905,22.905,0,0,1,184,144a24.437,24.437,0,0,1,5.688-15.539,8,8,0,0,0-2.079-11.977A23.609,23.609,0,0,1,176,96a24.027,24.027,0,0,1,24-24,8,8,0,0,0,8-8,23.988,23.988,0,0,1,47.336-5.516,8,8,0,0,0,6.367,6.032A31.941,31.941,0,0,1,288,96a30.227,30.227,0,0,1-.562,5.875,8,8,0,0,0,3.257,8.117,29.084,29.084,0,0,1,5.078,4.6A31.806,31.806,0,0,1,304,136a32.563,32.563,0,0,1-.532,5.655,151.007,151.007,0,0,0-32.874,13.334,7.824,7.824,0,0,0-1.334.811,152.394,152.394,0,0,0-13.707,8.829q-5.634-38.731-11.2-77.488L242.562,74.7a8,8,0,1,0-15.843,2.281l1.789,12.438q6.258,43.5,12.592,87.031A152.342,152.342,0,0,0,202.824,232H191.281a48.434,48.434,0,0,0,.719-8,47.844,47.844,0,0,0-22.635-40.676A31.808,31.808,0,0,1,183.375,164.672ZM40,168a32.836,32.836,0,0,1,1.617-10.125,8,8,0,0,0-2.984-8.961A15.653,15.653,0,0,1,32,136a16.021,16.021,0,0,1,16-16,15.822,15.822,0,0,1,14.992,10.672A8.23,8.23,0,0,0,72,136a31.826,31.826,0,0,1,27.328,15.375,8.015,8.015,0,0,0,10.414,2.984A22.905,22.905,0,0,1,120,152a24.027,24.027,0,0,1,24,24,22.81,22.81,0,0,1-.875,6.367,8,8,0,0,0,6.32,10.156,30.259,30.259,0,0,1,7.578,2.321A31.842,31.842,0,0,1,176,224a32.437,32.437,0,0,1-1.118,8H120.951c-10.614-21.229-21.251-37.117-35.607-58.469l-6.7-9.976a8,8,0,1,0-13.3,8.89l6.718,10.008C84.4,200.8,93.913,215,102.952,232H57.119a31.531,31.531,0,0,1,1.436-4.609,8,8,0,0,0-2.211-9.282A23.494,23.494,0,0,1,48,200a21.04,21.04,0,0,1,.562-5.039,7.969,7.969,0,0,0-1.523-6.922A31.764,31.764,0,0,1,40,168Zm8,112a16,16,0,0,1,0-32H197.518a151.147,151.147,0,0,0-5.113,32ZM344,424c-74.992,0-136-61.008-136-136s61.008-136,136-136,136,61.008,136,136S418.992,424,344,424Z" fill="rgb(0,0,0)"/><path d="M440,248H408a71.527,71.527,0,0,0-39.243,11.713A71.352,71.352,0,0,0,312,232H248a8,8,0,0,0-8,8v16a72.079,72.079,0,0,0,72,72h24v56a8,8,0,0,0,16,0V328h24a72.079,72.079,0,0,0,72-72A8,8,0,0,0,440,248Zm-184,8v-8h56a55.484,55.484,0,0,1,44.391,21.9,72.35,72.35,0,0,0-11.82,16.075c-18.845-11.541-37.394-18.894-55.251-21.87a8,8,0,1,0-2.64,15.782c16.562,2.761,34,9.938,51.91,21.252A71.207,71.207,0,0,0,336.472,312H312A56.068,56.068,0,0,1,256,256Zm120,56H352.57A56.085,56.085,0,0,1,408,264h23.43A56.085,56.085,0,0,1,376,312Z" fill="rgb(0,0,0)"/></svg>
