<svg height="682pt" viewBox="-72 -21 682 682.66669" width="682pt" xmlns="http://www.w3.org/2000/svg"><path d="m192.085938 472.742188c10.054687.050781 20.164062-1.625 29.816406-5.132813 28.378906-10.320313 60.0625-10.3125 88.4375 0 31.835937 11.566406 68.289062 3.28125 92.035156-20.820313 16.542969-16.796874 25.460938-39.039062 25.097656-62.632812-.335937-22.367188-9.222656-43.570312-25.023437-59.699219-23.421875-23.910156-59.738281-32.46875-91.324219-21.332031-29 10.226562-61.011719 10.226562-90.007812 0-31.757813-11.203125-67.792969-2.6875-91.324219 21.332031-15.800781 16.128907-24.6875 37.332031-25.023438 59.699219-.359375 23.59375 8.558594 45.835938 25.097657 62.632812 16.492187 16.734376 39.222656 25.847657 62.21875 25.953126zm-48.898438-135.164063c18.425781-18.808594 46.839844-25.53125 71.691406-16.773437 33.007813 11.636718 69.480469 11.640624 102.480469.007812 24.949219-8.800781 53.21875-2.097656 71.695313 16.765625 12.421874 12.679687 19.40625 29.320313 19.671874 46.867187.28125 18.527344-6.71875 35.992188-19.710937 49.183594-18.601563 18.890625-47.34375 25.417969-72.269531 16.355469-32.492188-11.804687-68.761719-11.804687-101.246094 0-25 9.085937-53.632812 2.574219-72.273438-16.355469-12.988281-13.191406-19.992187-30.65625-19.714843-49.183594.269531-17.546874 7.257812-34.191406 19.675781-46.867187zm0 0"/><path d="m190.730469 398.0625c5.175781 0 9.375-4.195312 9.375-9.375v-13.644531c0-5.179688-4.199219-9.375-9.375-9.375-5.179688 0-9.375 4.195312-9.375 9.375v13.644531c0 5.179688 4.195312 9.375 9.375 9.375zm0 0"/><path d="m341.515625 398.0625c5.175781 0 9.375-4.195312 9.375-9.375v-13.644531c0-5.179688-4.199219-9.375-9.375-9.375-5.179687 0-9.375 4.195312-9.375 9.375v13.644531c0 5.179688 4.195313 9.375 9.375 9.375zm0 0"/><path d="m266.121094 405.347656c9.957031 0 19.3125-4.171875 25.667968-11.441406 3.402344-3.898438 3.007813-9.820312-.886718-13.226562-3.902344-3.410157-9.824219-3.007813-13.234375.886718-2.792969 3.195313-7 5.03125-11.546875 5.03125s-8.753906-1.835937-11.546875-5.03125c-3.410157-3.894531-9.332031-4.296875-13.230469-.886718-3.898438 3.40625-4.296875 9.328124-.886719 13.226562 6.351563 7.269531 15.707031 11.441406 25.664063 11.441406zm0 0"/><path d="m110.285156 640h311.671875c26.808594 0 52.949219-10.851562 71.699219-29.765625 34.441406-34.734375 41.667969-68.457031 41.667969-90.628906v-266.417969c0-63.820312-55.882813-105.171875-72.789063-116.214844v-76.773437c0-33.191407-27.003906-60.199219-60.199218-60.199219h-272.429688c-33.195312 0-60.203125 27.007812-60.203125 60.199219v76.773437c-16.898437 11.042969-72.785156 52.394532-72.785156 116.214844v266.417969c0 40.167969 22.660156 71.457031 41.667969 90.628906 18.753906 18.914063 44.886718 29.765625 71.699218 29.765625zm-28.542968-488.453125h271.730468c5.183594 0 9.375-4.199219 9.375-9.375 0-5.179687-4.191406-9.375-9.375-9.375h-265.019531v-72.597656c0-22.855469 18.59375-41.449219 41.453125-41.449219h272.429688c22.855468 0 41.449218 18.59375 41.449218 41.449219v72.597656h-52.8125c-5.175781 0-9.375 4.195313-9.375 9.375 0 5.175781 4.199219 9.375 9.375 9.375h59.527344c10.6875 6.832031 60.035156 40.996094 65.570312 92.265625h-499.902343c5.539062-51.273438 54.898437-85.445312 65.574219-92.265625zm17.980468 358.683594h-84.054687v-247.667969h500.910156v247.667969h-379.355469c-5.175781 0-9.375 4.199219-9.375 9.375s4.199219 9.375 9.375 9.375h378.847656c-3.183593 29.410156-20.753906 52.953125-35.730468 68.050781-15.253906 15.390625-36.535156 24.21875-58.382813 24.21875h-311.671875c-21.84375 0-43.128906-8.828125-58.382812-24.21875-14.972656-15.097656-32.550782-38.640625-35.726563-68.050781h83.546875c5.183594 0 9.375-4.199219 9.375-9.375s-4.191406-9.375-9.375-9.375zm0 0"/></svg>