<svg height="512pt" viewBox="-41 0 512 512" width="512pt" xmlns="http://www.w3.org/2000/svg"><path d="m423.226562 202.550781-207.863281 34.511719-207.863281-34.511719c0-55.21875 58.230469-88.8125 58.230469-88.8125l149.632812-53.117187 149.632813 53.117187s58.230468 33.59375 58.230468 88.8125zm0 0" fill="#f3c13b"/><path d="m47.5 202.550781c0-55.21875 58.230469-88.8125 58.230469-88.8125l129.632812-46.015625-20-7.097656-149.632812 53.113281s-58.230469 33.59375-58.230469 88.8125l207.863281 34.511719 20-3.320312zm0 0" fill="#e6a700"/><path d="m423.226562 415.683594c0 28.910156-15.953124 51.886718-31.160156 67.222656-13.75 13.871094-32.507812 21.59375-52.035156 21.59375h-249.335938c-19.523437 0-38.285156-7.722656-52.035156-21.59375-15.207031-15.335938-31.160156-38.3125-31.160156-67.222656l207.863281-35.730469zm0 0" fill="#f3c13b"/><path d="m47.5 415.683594 187.863281-32.292969-20-3.4375-207.863281 35.730469c0 28.910156 15.953125 51.886718 31.160156 67.222656 13.75 13.871094 32.511719 21.59375 52.039063 21.59375h40c-19.527344 0-38.289063-7.722656-52.039063-21.59375-15.207031-15.335938-31.160156-38.316406-31.160156-67.222656zm0 0" fill="#e6a700"/><path d="m7.5 202.550781h415.726562v213.132813h-415.726562zm0 0" fill="#ff5f7f"/><path d="m7.5 202.550781h40v213.132813h-40zm0 0" fill="#f4375c"/><path d="m276.820312 246.082031c-8.070312-.28125-15.8125.972657-22.960937 3.492188-24.988281 8.808593-52.003906 8.808593-76.992187 0-7.144532-2.519531-14.886719-3.773438-22.960938-3.492188-32.988281 1.148438-59.625 28.351563-60.125 61.355469-.527344 34.886719 27.589844 63.332031 62.355469 63.332031 7.476562 0 14.648437-1.320312 21.292969-3.734375 24.460937-8.890625 51.40625-8.890625 75.871093 0 6.644531 2.414063 13.8125 3.734375 21.292969 3.734375 34.761719 0 62.882812-28.445312 62.355469-63.332031-.5-33.003906-27.136719-60.207031-60.128907-61.355469zm0 0" fill="#f3c13b"/><path d="m123.78125 307.4375c.433594-28.632812 20.542969-52.886719 47.398438-59.5625-5.503907-1.363281-11.296876-2.003906-17.273438-1.792969-32.988281 1.148438-59.628906 28.351563-60.128906 61.359375-.527344 34.882813 27.59375 63.328125 62.359375 63.328125 5.171875 0 10.191406-.644531 14.996093-1.832031-27.492187-6.792969-47.800781-31.804688-47.351562-61.5zm0 0" fill="#e6a700"/><path d="m324.335938 7.5h-217.945313c-22.453125 0-40.660156 18.203125-40.660156 40.660156v65.578125h299.265625v-65.578125c0-22.457031-18.207032-40.660156-40.660156-40.660156zm0 0" fill="#ff5f7f"/><path d="m146.390625 7.5h-40c-22.453125 0-40.660156 18.203125-40.660156 40.660156v65.578125h40v-65.578125c0-22.457031 18.207031-40.660156 40.660156-40.660156zm0 0" fill="#f4375c"/><path d="m156.136719 378.195312c8.042969.039063 16.128906-1.300781 23.851562-4.109374 22.703125-8.253907 48.050781-8.25 70.75 0 25.46875 9.253906 54.632813 2.625 73.628907-16.65625 13.234374-13.4375 20.367187-31.230469 20.078124-50.105469-.269531-17.894531-7.378906-34.855469-20.019531-47.757813-18.738281-19.128906-47.789062-25.976562-73.058593-17.066406-23.199219 8.179688-48.808594 8.179688-72.007813 0-25.40625-8.960938-54.234375-2.148438-73.058594 17.066406-12.640625 12.902344-19.75 29.863282-20.019531 47.757813-.285156 18.875 6.847656 36.667969 20.078125 50.105469 13.195313 13.390624 31.378906 20.679687 49.777344 20.765624zm-39.121094-108.132812c14.742187-15.046875 37.472656-20.425781 57.355469-13.417969 26.40625 9.308594 55.582031 9.3125 81.984375.003907 19.957031-7.039063 42.574219-1.675782 57.355469 13.414062 9.9375 10.144531 15.523437 23.457031 15.738281 37.492188.222656 14.824218-5.375 28.796874-15.769531 39.347656-14.882813 15.113281-37.875 20.335937-57.816407 13.085937-25.992187-9.445312-55.007812-9.445312-80.996093 0-20 7.269531-42.90625 2.058594-57.820313-13.085937-10.390625-10.550782-15.992187-24.523438-15.769531-39.347656.214844-14.035157 5.804687-27.351563 15.738281-37.492188zm0 0"/><path d="m155.050781 318.449219c4.140625 0 7.5-3.355469 7.5-7.5v-10.914063c0-4.144531-3.359375-7.5-7.5-7.5-4.144531 0-7.5 3.355469-7.5 7.5v10.914063c0 4.144531 3.355469 7.5 7.5 7.5zm0 0"/><path d="m275.679688 318.449219c4.140624 0 7.5-3.355469 7.5-7.5v-10.914063c0-4.144531-3.359376-7.5-7.5-7.5-4.144532 0-7.5 3.355469-7.5 7.5v10.914063c0 4.144531 3.355468 7.5 7.5 7.5zm0 0"/><path d="m215.363281 324.277344c7.964844 0 15.449219-3.335938 20.535157-9.152344 2.722656-3.117188 2.40625-7.855469-.710938-10.582031-3.121094-2.726563-7.859375-2.40625-10.585938.710937-2.234374 2.554688-5.601562 4.023438-9.238281 4.023438s-7.003906-1.46875-9.238281-4.023438c-2.726562-3.117187-7.464844-3.4375-10.582031-.710937-3.121094 2.726562-3.4375 7.464843-.710938 10.582031 5.082031 5.816406 12.566407 9.152344 20.53125 9.152344zm0 0"/><path d="m90.695312 512h249.335938c21.449219 0 42.359375-8.679688 57.359375-23.8125 27.554687-27.789062 33.335937-54.765625 33.335937-72.503906v-213.132813c0-51.058593-44.707031-84.136719-58.230468-92.972656v-61.417969c0-26.554687-21.605469-48.160156-48.160156-48.160156h-217.945313c-26.554687 0-48.160156 21.605469-48.160156 48.160156v61.417969c-13.519531 8.835937-58.230469 41.914063-58.230469 92.972656v213.132813c0 32.136718 18.128906 57.167968 33.335938 72.503906 15.003906 15.132812 35.910156 23.8125 57.359374 23.8125zm-22.835937-390.761719h217.386719c4.144531 0 7.5-3.359375 7.5-7.5 0-4.144531-3.355469-7.5-7.5-7.5h-212.015625v-58.078125c0-18.285156 14.875-33.160156 33.160156-33.160156h217.945313c18.285156 0 33.160156 14.875 33.160156 33.160156v58.078125h-42.25c-4.140625 0-7.5 3.355469-7.5 7.5 0 4.140625 3.359375 7.5 7.5 7.5h47.621094c8.550781 5.464844 48.027343 32.796875 52.457031 73.8125h-399.921875c4.429687-41.019531 43.917968-68.355469 52.457031-73.8125zm14.386719 286.945313h-67.246094v-198.132813h400.730469v198.132813h-303.484375c-4.140625 0-7.5 3.359375-7.5 7.5s3.359375 7.5 7.5 7.5h303.078125c-2.546875 23.527344-16.605469 42.363281-28.585938 54.441406-12.203125 12.3125-29.226562 19.375-46.707031 19.375h-249.335938c-17.476562 0-34.503906-7.0625-46.707031-19.375-11.976562-12.078125-26.039062-30.914062-28.582031-54.441406h66.839844c4.144531 0 7.5-3.359375 7.5-7.5s-3.355469-7.5-7.5-7.5zm0 0"/></svg>