<svg clip-rule="evenodd" fill-rule="evenodd" stroke-linejoin="round" stroke-miterlimit="2" viewBox="0 0 64 64" xmlns="http://www.w3.org/2000/svg"><g><path d="m10.145 47.544c.694 1.611 1.692 3.092 2.956 4.355 2.625 2.626 6.186 4.101 9.899 4.101h18c3.713 0 7.274-1.475 9.899-4.101 1.264-1.263 2.262-2.744 2.956-4.355" fill="#fed269"/><path d="m7.051 22c-.04-.427-.055-.859-.05-1.3.009-.701.181-1.599.721-2.115.797-.761 2.011-.797 2.801-1.589 1.264-1.267 2.211-2.886 3.99-3.562 1.376-.522 2.942.114 4.321-.434.776-.307 1.457-.744 2.046-1.323.679-.666 1.27-1.526 2.071-2.064.604-.405 1.345-.584 2.059-.707 1.117-.192 2.621-.242 3.719.139 1.199.417 1.737 1.253 3.18 1.243.342-.003.697-.059 1.03-.138 1.136-.273 2.219-.725 3.33-1.075 1.731-.545 3.57-.953 5.393-1.029.92-.039 2-.132 2.896.154 1.056.336 2.024 1.069 2.709 1.918.481.597.736 1.211 1.387 1.691 1.415 1.046 3.524 1.004 4.771 2.311.632.662.657 1.6.88 2.432.15.558.443 1.06.765 1.539.619.921 2.128 1.997 1.908 3.265-.038.224-.101.439-.183.644" fill="#efedef"/><g fill="#c5c1c5"><path d="m40.194 13.981c-.541.107-1.068-.245-1.175-.787-.107-.541.245-1.068.787-1.175 1.756-.348 3.065.16 3.99 1.376.334.439.249 1.067-.191 1.401-.439.334-1.067.249-1.401-.191-.461-.606-1.134-.797-2.01-.624z"/><path d="m34.197 13.405c.328-.444.955-.537 1.398-.208.444.328.537.955.208 1.398-.25.339-.398.652-.396.962.003.281.139.54.357.797.356.422.303 1.053-.118 1.41-.422.356-1.053.303-1.41-.118-.555-.658-.823-1.354-.829-2.072-.005-.689.233-1.418.79-2.169z"/><path d="m19.853 18.521c-.287.471-.903.62-1.374.332-.471-.287-.62-.903-.332-1.374.516-.846 1.142-1.37 1.831-1.609.72-.249 1.538-.209 2.452.227.498.238.71.835.473 1.333-.238.498-.835.71-1.333.473-.352-.168-.66-.239-.937-.143-.308.107-.549.384-.78.761z"/><path d="m27.015 14.825c.097-.544.617-.906 1.16-.81.544.097.906.617.81 1.16-.149.836.073 1.532.684 2.082.41.369.443 1.002.074 1.412s-1.002.443-1.412.074c-1.152-1.037-1.596-2.342-1.316-3.918z"/><path d="m47.831 18.556c-.307.459-.928.582-1.387.275s-.582-.928-.275-1.387c.624-.934 1.53-1.483 2.861-1.444.551.017.986.478.97 1.03-.017.551-.478.986-1.03.97-.526-.016-.892.186-1.139.556z"/></g><path d="m60 24c0-1.105-.895-2-2-2h-52c-1.105 0-2 .895-2 2v10c0 4.774 1.896 9.352 5.272 12.728s7.954 5.272 12.728 5.272h20c4.774 0 9.352-1.896 12.728-5.272s5.272-7.954 5.272-12.728z" fill="#ebad52"/><path d="m9.318 48.148c-.257-.23-.508-.468-.753-.713-3.563-3.563-5.565-8.396-5.565-13.435v-10c0-1.657 1.343-3 3-3-.001-.104 0-.208.001-.313.012-.943.303-2.131 1.031-2.825.408-.39.895-.644 1.406-.859.478-.201.997-.333 1.377-.714 1.363-1.365 2.426-3.062 4.343-3.789.813-.309 1.679-.302 2.549-.273.597.021 1.198.066 1.759-.156.649-.258 1.22-.623 1.714-1.107.721-.708 1.362-1.609 2.214-2.181.719-.483 1.596-.715 2.446-.862 1.267-.219 2.972-.253 4.217.18.551.191.983.454 1.406.706.408.244.8.485 1.439.481.266-.002.544-.048.803-.111 1.114-.267 2.174-.713 3.264-1.056 1.813-.571 3.741-.994 5.651-1.074 1.031-.043 2.239-.12 3.242.2 1.239.395 2.38 1.247 3.183 2.243.426.528.627 1.09 1.203 1.515.624.461 1.409.662 2.168.912 1.018.335 1.995.739 2.733 1.513.751.787.856 1.874 1.122 2.863.121.452.369.853.629 1.24.372.554 1.065 1.164 1.513 1.838.341.514.56 1.06.585 1.629h.002c1.657 0 3 1.343 3 3v10c0 5.039-2.002 9.872-5.565 13.435-.245.245-.496.483-.753.713-.739 1.645-1.776 3.159-3.075 4.459-2.813 2.813-6.629 4.393-10.607 4.393h-18c-3.978 0-7.794-1.58-10.607-4.393-1.299-1.3-2.336-2.814-3.075-4.459zm28.682-25.148h-32c-.552 0-1 .448-1 1v10c0 4.509 1.791 8.833 4.979 12.021.264.264.536.518.814.762.008.007.015.013.022.019 3.087 2.698 7.059 4.198 11.185 4.198h20c4.126 0 8.098-1.5 11.185-4.198.007-.006.014-.012.022-.019.278-.244.55-.498.814-.762 3.188-3.188 4.979-7.512 4.979-12.021v-10c0-.552-.448-1-1-1h-11c-.552 0-1-.448-1-1s.448-1 1-1h8.998c-.033-.283-.245-.533-.445-.788-.444-.564-.992-1.085-1.313-1.563-.383-.571-.722-1.173-.901-1.838-.092-.345-.153-.708-.234-1.063-.076-.338-.154-.676-.403-.938-.51-.534-1.21-.762-1.913-.994-.961-.317-1.938-.618-2.729-1.202-.727-.537-1.035-1.202-1.572-1.868-.566-.702-1.361-1.315-2.234-1.594-.788-.251-1.74-.141-2.55-.107-1.736.073-3.487.465-5.135.984-1.133.357-2.238.815-3.397 1.093-.406.097-.838.162-1.255.166-.933.006-1.576-.252-2.177-.588-.417-.233-.802-.523-1.34-.71-.95-.331-2.253-.265-3.22-.098-.577.099-1.183.223-1.671.551-.752.505-1.292 1.324-1.928 1.948-.685.672-1.477 1.181-2.378 1.539-.819.325-1.691.326-2.565.296-.603-.02-1.207-.071-1.77.143-.743.282-1.304.773-1.819 1.314-.622.653-1.18 1.38-1.818 2.019-.409.41-.898.676-1.413.896-.487.208-1.015.338-1.405.71-.354.338-.406.945-.412 1.404-.001.096-.001.192 0 .288h29.999c.552 0 1 .448 1 1s-.448 1-1 1zm-24.286 28.098c.031.032.062.063.094.094 2.438 2.438 5.744 3.808 9.192 3.808h18c3.448 0 6.754-1.37 9.192-3.808.032-.031.063-.062.094-.094-2.559 1.24-5.389 1.902-8.286 1.902h-20c-2.897 0-5.727-.662-8.286-1.902zm29.286-30.098c.552 0 1 .448 1 1s-.448 1-1 1h-1c-.552 0-1-.448-1-1s.448-1 1-1zm-2.806-7.019c-.541.107-1.068-.245-1.175-.787-.107-.541.245-1.068.787-1.175 1.756-.348 3.065.16 3.99 1.376.334.439.249 1.067-.191 1.401-.439.334-1.067.249-1.401-.191-.461-.606-1.134-.797-2.01-.624zm-13.179.844c.097-.544.617-.906 1.16-.81.544.097.906.617.81 1.16-.149.836.073 1.532.684 2.082.41.369.443 1.002.074 1.412s-1.002.443-1.412.074c-1.152-1.037-1.596-2.342-1.316-3.918zm7.182-1.42c.328-.444.955-.537 1.398-.208.444.328.537.955.208 1.398-.25.339-.398.652-.396.962.003.281.139.54.357.797.356.422.303 1.053-.118 1.41-.422.356-1.053.303-1.41-.118-.555-.658-.823-1.354-.829-2.072-.005-.689.233-1.418.79-2.169zm-14.344 5.116c-.287.471-.903.62-1.374.332-.471-.287-.62-.903-.332-1.374.516-.846 1.142-1.37 1.831-1.609.72-.249 1.538-.209 2.452.227.498.238.71.835.473 1.333-.238.498-.835.71-1.333.473-.352-.168-.66-.239-.937-.143-.308.107-.549.384-.78.761zm27.978.035c-.307.459-.928.582-1.387.275s-.582-.928-.275-1.387c.624-.934 1.53-1.483 2.861-1.444.551.017.986.478.97 1.03-.017.551-.478.986-1.03.97-.526-.016-.892.186-1.139.556z"/></g></svg>