<?xml version="1.0" encoding="UTF-8" standalone="no"?>
<!-- Created with Inkscape (http://www.inkscape.org/) -->

<svg
   version="1.1"
   id="svg4245"
   xml:space="preserve"
   width="682.66669"
   height="682.66669"
   viewBox="0 0 682.66669 682.66669"
   xmlns="http://www.w3.org/2000/svg"
   xmlns:svg="http://www.w3.org/2000/svg"><defs
     id="defs4249"><clipPath
       clipPathUnits="userSpaceOnUse"
       id="clipPath4259"><path
         d="M 0,512 H 512 V 0 H 0 Z"
         id="path4257" /></clipPath></defs><g
     id="g4251"
     transform="matrix(1.3333333,0,0,-1.3333333,0,682.66667)"><g
       id="g4253"><g
         id="g4255"
         clip-path="url(#clipPath4259)"><g
           id="g4261"
           transform="translate(159.4111,504.5)"><path
             d="m 0,0 h -19.421 c -2.005,0 -3.686,-1.518 -3.889,-3.514 L -35.984,-128.023 H 16.563 L 3.889,-3.514 C 3.686,-1.518 2.006,0 0,0"
             style="fill:#f47c7c;fill-opacity:1;fill-rule:nonzero;stroke:none"
             id="path4263" /></g><g
           id="g4265"
           transform="translate(166.1348,500.9863)"><path
             d="m 0,0 c -0.203,1.996 -1.883,3.514 -3.889,3.514 h -19.842 c 2.005,0 3.686,-1.518 3.889,-3.514 l 12.674,-124.51 h 19.842 z"
             style="fill:#ee6161;fill-opacity:1;fill-rule:nonzero;stroke:none"
             id="path4267" /></g><path
           d="m 106.163,396.457 h 89.91 V 337.82 h -89.91 z"
           style="fill:#d83131;fill-opacity:1;fill-rule:nonzero;stroke:none"
           id="path4269" /><g
           id="g4271"
           transform="translate(100.2998,396.457)"><path
             d="m 0,0 h 101.637 c 4.318,0 7.818,3.5 7.818,7.818 V 21.5 c 0,4.317 -3.5,7.818 -7.818,7.818 L 0,29.318 c -4.318,0 -7.818,-3.501 -7.818,-7.818 V 7.818 C -7.818,3.5 -4.318,0 0,0"
             style="fill:#e94444;fill-opacity:1;fill-rule:nonzero;stroke:none"
             id="path4273" /></g><path
           d="m 106.163,396.457 h 89.91 V 337.82 h -89.91 z"
           style="fill:#ca2c2c;fill-opacity:1;fill-rule:nonzero;stroke:none"
           id="path4275" /><g
           id="g4277"
           transform="translate(201.9365,425.7754)"><path
             d="m 0,0 h -28.346 c 4.318,0 7.818,-3.5 7.818,-7.818 V -21.5 c 0,-4.318 -3.5,-7.818 -7.818,-7.818 H 0 c 4.318,0 7.818,3.5 7.818,7.818 V -7.818 C 7.818,-3.5 4.318,0 0,0"
             style="fill:#d83131;fill-opacity:1;fill-rule:nonzero;stroke:none"
             id="path4279" /></g><g
           id="g4281"
           transform="translate(232.7539,30.9736)"><path
             d="m 0,0 -14.205,320.244 c -0.371,8.359 -7.254,14.943 -15.621,14.943 H -136.28 c -8.366,0 -15.251,-6.584 -15.621,-14.943 L -166.106,0 c -0.568,-12.792 9.65,-23.474 22.455,-23.474 H -22.455 C -9.65,-23.474 0.567,-12.792 0,0"
             style="fill:#e94444;fill-opacity:1;fill-rule:nonzero;stroke:none"
             id="path4283" /></g><g
           id="g4285"
           transform="translate(231.9355,113.3301)"><path
             d="m 0,0 h -9.358 v 147.072 h 2.835 l -4.029,90.816 c -0.371,8.358 -7.255,14.943 -15.621,14.943 H -54.52 c 8.367,0 15.251,-6.585 15.622,-14.943 l 14.205,-320.244 c 0.567,-12.792 -9.651,-23.474 -22.455,-23.474 h 28.346 c 12.805,0 23.023,10.682 22.455,23.474 z"
             style="fill:#d83131;fill-opacity:1;fill-rule:nonzero;stroke:none"
             id="path4287" /></g><g
           id="g4289"
           transform="translate(76.8213,260.3301)"><path
             d="M 0,0 -6.521,-147 H 152.28 L 145.759,0 Z"
             style="fill:#f9c6c6;fill-opacity:1;fill-rule:nonzero;stroke:none"
             id="path4291" /></g><g
           id="g4293"
           transform="translate(225.415,260.3301)"><path
             d="m 0,0 h -28.346 l 6.52,-147 H 6.521 Z"
             style="fill:#f9b0b0;fill-opacity:1;fill-rule:nonzero;stroke:none"
             id="path4295" /></g><g
           id="g4297"
           transform="translate(369.1748,504.5)"><path
             d="m 0,0 h -19.421 c -2.005,0 -3.685,-1.518 -3.889,-3.514 L -35.984,-128.023 H 16.563 L 3.889,-3.514 C 3.686,-1.518 2.006,0 0,0"
             style="fill:#fddba6;fill-opacity:1;fill-rule:nonzero;stroke:none"
             id="path4299" /></g><g
           id="g4301"
           transform="translate(375.8989,500.9863)"><path
             d="m 0,0 c -0.203,1.996 -1.884,3.514 -3.889,3.514 h -19.843 c 2.006,0 3.686,-1.518 3.889,-3.514 l 12.674,-124.51 h 19.843 z"
             style="fill:#fece85;fill-opacity:1;fill-rule:nonzero;stroke:none"
             id="path4303" /></g><path
           d="m 315.927,396.457 h 89.91 V 337.82 h -89.91 z"
           style="fill:#d83131;fill-opacity:1;fill-rule:nonzero;stroke:none"
           id="path4305" /><g
           id="g4307"
           transform="translate(310.0635,396.457)"><path
             d="m 0,0 h 101.637 c 4.318,0 7.818,3.5 7.818,7.818 V 21.5 c 0,4.317 -3.5,7.818 -7.818,7.818 L 0,29.318 c -4.318,0 -7.818,-3.501 -7.818,-7.818 V 7.818 C -7.818,3.5 -4.318,0 0,0"
             style="fill:#fec165;fill-opacity:1;fill-rule:nonzero;stroke:none"
             id="path4309" /></g><path
           d="m 315.927,396.457 h 89.91 V 337.82 h -89.91 z"
           style="fill:#fea713;fill-opacity:1;fill-rule:nonzero;stroke:none"
           id="path4311" /><g
           id="g4313"
           transform="translate(411.7002,425.7754)"><path
             d="m 0,0 h -28.346 c 4.318,0 7.818,-3.5 7.818,-7.818 V -21.5 c 0,-4.318 -3.5,-7.818 -7.818,-7.818 H 0 c 4.318,0 7.818,3.5 7.818,7.818 V -7.818 C 7.818,-3.5 4.318,0 0,0"
             style="fill:#fdb541;fill-opacity:1;fill-rule:nonzero;stroke:none"
             id="path4315" /></g><g
           id="g4317"
           transform="translate(442.5181,30.9736)"><path
             d="m 0,0 -14.205,320.244 c -0.371,8.359 -7.255,14.943 -15.621,14.943 h -106.455 c -8.366,0 -15.25,-6.584 -15.621,-14.943 L -166.107,0 c -0.567,-12.792 9.65,-23.474 22.456,-23.474 H -22.456 C -9.651,-23.474 0.567,-12.792 0,0"
             style="fill:#fec165;fill-opacity:1;fill-rule:nonzero;stroke:none"
             id="path4319" /></g><g
           id="g4321"
           transform="translate(441.6992,113.3301)"><path
             d="m 0,0 h -9.358 v 147.072 h 2.835 l -4.029,90.816 c -0.37,8.358 -7.255,14.943 -15.621,14.943 H -54.52 c 8.367,0 15.251,-6.585 15.622,-14.943 l 14.205,-320.244 c 0.568,-12.792 -9.651,-23.474 -22.455,-23.474 h 28.346 c 12.805,0 23.023,10.682 22.455,23.474 z"
             style="fill:#fdb541;fill-opacity:1;fill-rule:nonzero;stroke:none"
             id="path4323" /></g><g
           id="g4325"
           transform="translate(286.585,260.3301)"><path
             d="M 0,0 -6.521,-147 H 152.28 L 145.759,0 Z"
             style="fill:#ffeed2;fill-opacity:1;fill-rule:nonzero;stroke:none"
             id="path4327" /></g><g
           id="g4329"
           transform="translate(435.1787,260.3301)"><path
             d="m 0,0 h -28.346 l 6.52,-147 H 6.521 Z"
             style="fill:#fee8c7;fill-opacity:1;fill-rule:nonzero;stroke:none"
             id="path4331" /></g><g
           id="g4333"
           transform="translate(213.1333,15)"><path
             d="m 0,0 h -124.03 c -8.259,0 -14.978,6.711 -14.978,14.959 0,0.533 3.326,75.34 3.35,75.872 H 11.627 L 14.963,15.64 c 0.01,-0.228 0.015,-0.455 0.015,-0.682 C 14.978,6.71 8.259,0 0,0 M -129.137,237.831 H 5.107 c 0.326,-7.345 5.532,-124.713 5.855,-132 h -145.955 c 0.259,5.833 5.646,127.276 5.856,132 m 29.667,136.126 h 74.909 V 358.661 H -99.47 Z m -13.682,29 c 0,0.176 0.143,0.318 0.319,0.318 0.494,0 101.955,0.177 101.955,-0.318 v -13.682 c 0,-0.175 -0.143,-0.318 -0.319,-0.318 -0.504,0 -101.955,-0.186 -101.955,0.318 z M -69.899,482 h 15.768 l 6.486,-63.725 H -76.386 Z M 15.743,336.551 c -0.428,9.641 -6.891,18.089 -16.082,21.019 -0.001,0 -0.002,0.001 -0.004,0.001 -2.268,0.724 -4.633,1.09 -7.028,1.09 h -2.19 v 15.386 c 7.68,0.82 13.683,7.335 13.683,15.228 v 13.682 c 0,8.446 -6.872,15.318 -15.319,15.318 h -21.37 l -6.97,68.472 C -40.132,492.592 -45.012,497 -50.887,497 h -22.256 c -5.876,0 -10.755,-4.408 -11.35,-10.253 l -6.97,-68.472 h -21.37 c -8.447,0 -15.319,-6.872 -15.319,-15.318 v -13.682 c 0,-7.893 6.003,-14.408 13.682,-15.228 v -15.386 h -2.19 c -12.411,0 -22.564,-9.712 -23.113,-22.111 l -0.968,-21.813 c -0.184,-4.137 3.022,-7.64 7.16,-7.824 4.114,-0.21 7.641,3.021 7.825,7.16 l 0.968,21.813 c 0.193,4.36 3.764,7.775 8.128,7.775 H -7.371 c 0.942,0 1.923,-0.181 2.49,-0.387 3.223,-1.034 5.488,-4.002 5.639,-7.388 l 3.684,-83.055 h -132.914 l 1.165,26.276 c 0.184,4.138 -3.022,7.641 -7.16,7.825 -4.144,0.205 -7.641,-3.022 -7.825,-7.161 -0.082,-1.834 -11.716,-263.757 -11.716,-264.812 0,-16.52 13.448,-29.959 29.978,-29.959 L 0,-15 c 16.53,0 29.978,13.439 29.978,29.958 0,0.447 -0.01,0.897 -0.03,1.348 z"
             style="fill:#000000;fill-opacity:1;fill-rule:nonzero;stroke:none"
             id="path4335" /></g><g
           id="g4337"
           transform="translate(306.2373,358.6611)"><path
             d="m 0,0 h 9.69 99.599 c 4.365,0 7.935,-3.415 8.128,-7.775 l 3.685,-83.055 H -11.813 l 3.685,83.054 C -7.935,-3.416 -4.364,0 0,0 M 17.19,30.296 H 92.1 V 15 H 17.19 Z m -13.682,29 c 0,0.176 0.142,0.318 0.318,0.318 h 101.637 c 0.176,0 0.318,-0.142 0.318,-0.318 V 45.614 c 0,-0.612 -102.273,-0.368 -102.273,0 z m 43.253,79.043 H 62.529 L 69.015,74.614 H 40.274 Z M -18.333,-237.83 c 0.065,1.464 5.731,129.204 5.855,132 h 134.245 c 0.29,-6.537 5.541,-124.911 5.855,-132 z m 164.941,-89.525 -1.229,27.698 c -0.183,4.138 -3.691,7.377 -7.825,7.16 -4.137,-0.184 -7.344,-3.687 -7.16,-7.824 l 1.229,-27.7 c 0.01,-0.228 0.015,-0.456 0.015,-0.681 0,-8.248 -6.72,-14.959 -14.978,-14.959 H -7.371 c -8.484,0 -15.345,7.081 -14.962,15.641 l 3.335,75.19 h 147.285 l 0.556,-12.526 c 0.183,-4.139 3.679,-7.379 7.825,-7.161 4.138,0.184 7.344,3.687 7.16,7.825 -0.342,7.72 -10.756,242.487 -11.425,257.581 C 131.853,5.288 121.7,15 109.289,15 H 107.1 v 15.386 c 7.679,0.82 13.681,7.336 13.681,15.228 v 13.682 c 0,8.446 -6.871,15.318 -15.318,15.318 h -21.37 l -6.97,68.472 c -0.595,5.845 -5.475,10.253 -11.351,10.253 H 43.517 c -5.876,0 -10.755,-4.408 -11.35,-10.253 L 25.197,74.614 H 3.826 c -8.447,0 -15.318,-6.872 -15.318,-15.318 V 45.614 c 0,-7.893 6.002,-14.408 13.682,-15.228 L 2.19,15 H 0 C -12.411,15 -22.563,5.288 -23.114,-7.111 l -14.205,-320.243 c -0.02,-0.452 -0.03,-0.902 -0.03,-1.349 0,-16.519 13.449,-29.958 29.978,-29.958 H 116.66 c 16.529,0 29.978,13.439 29.978,29.959 0,0.446 -0.01,0.896 -0.03,1.347"
             style="fill:#000000;fill-opacity:1;fill-rule:nonzero;stroke:none"
             id="path4339" /></g></g></g></g></svg>
