<svg id="Capa_1" enable-background="new 0 0 512 512" height="512" viewBox="0 0 512 512" width="512" xmlns="http://www.w3.org/2000/svg"><g><path d="m228.876 160.449c-.428-9.642-6.891-18.089-16.082-21.02-.001 0-.002-.001-.004-.001-2.269-.724-4.633-1.09-7.028-1.09h-2.19v-15.386c7.68-.82 13.682-7.335 13.682-15.228v-13.681c0-8.446-6.872-15.318-15.318-15.318h-21.37l-6.97-68.472c-.595-5.845-5.474-10.253-11.35-10.253h-22.256c-5.875 0-10.755 4.408-11.35 10.253l-6.97 68.472h-21.37c-8.447 0-15.318 6.872-15.318 15.318v13.682c0 7.893 6.002 14.408 13.682 15.228v15.386h-2.19c-12.411 0-22.564 9.712-23.114 22.111l-.968 21.813c-.184 4.138 3.022 7.641 7.16 7.824 4.114.21 7.641-3.021 7.825-7.16l.968-21.813c.193-4.36 3.764-7.775 8.128-7.775h109.289c.942 0 1.923.181 2.49.387 3.223 1.034 5.488 4.002 5.639 7.389l3.684 83.055h-132.914l1.166-26.276c.184-4.138-3.022-7.641-7.16-7.824-4.144-.205-7.642 3.021-7.825 7.16-.081 1.835-11.716 263.758-11.716 264.813 0 16.52 13.448 29.959 29.978 29.959h124.03c16.53 0 29.978-13.439 29.978-29.958 0-.447-.01-.897-.03-1.348zm-85.642-145.449h15.768l6.487 63.725h-28.741zm-43.253 79.043c0-.176.143-.318.318-.318.495 0 101.955-.176 101.955.318v13.682c0 .176-.143.318-.318.318-.504 0-101.955.185-101.955-.318zm13.683 44.296v-15.296h74.909v15.296zm-29.668 120.83h134.244c.326 7.345 5.532 124.713 5.855 132h-145.954c.258-5.833 5.646-127.276 5.855-132zm129.137 237.831h-124.03c-8.259 0-14.978-6.711-14.978-14.959 0-.533 3.327-75.34 3.35-75.872h147.286l3.335 75.191c.01.228.015.455.015.682 0 8.248-6.719 14.958-14.978 14.958z"/><path d="m452.845 480.694-1.229-27.698c-.184-4.139-3.691-7.377-7.825-7.16-4.138.184-7.344 3.687-7.16 7.824l1.229 27.7c.01.228.015.455.015.681 0 8.248-6.719 14.959-14.978 14.959h-124.03c-8.484 0-15.345-7.081-14.963-15.642l3.335-75.189h147.285l.556 12.526c.184 4.139 3.679 7.379 7.825 7.16 4.138-.184 7.344-3.687 7.16-7.824-.342-7.721-10.756-242.487-11.425-257.581-.55-12.399-10.703-22.111-23.114-22.111h-2.189v-15.386c7.68-.82 13.682-7.335 13.682-15.228v-13.682c0-8.446-6.872-15.318-15.318-15.318h-21.37l-6.97-68.472c-.596-5.845-5.475-10.253-11.351-10.253h-22.255c-5.876 0-10.755 4.408-11.351 10.253l-6.97 68.472h-21.371c-8.447 0-15.318 6.872-15.318 15.318v13.682c0 7.893 6.002 14.408 13.682 15.228v15.386h-2.19c-12.411 0-22.563 9.712-23.114 22.111l-14.205 320.242c-.02.452-.03.902-.03 1.35 0 16.519 13.448 29.958 29.978 29.958h124.03c16.53 0 29.978-13.439 29.978-29.959.001-.446-.009-.896-.029-1.347zm-164.941-89.525c.065-1.464 5.731-129.204 5.855-132h134.244c.29 6.537 5.541 124.911 5.855 132zm65.094-376.169h15.768l6.486 63.725h-28.741zm-43.253 79.043c0-.176.143-.318.318-.318h101.637c.176 0 .318.143.318.318v13.682c0 .612-102.273.369-102.273 0zm13.682 29h74.91v15.296h-74.91zm-17.19 30.296h9.69 99.599c4.365 0 7.935 3.415 8.128 7.775l3.684 83.055h-132.913l3.684-83.054c.193-4.36 3.764-7.776 8.128-7.776z"/></g></svg>