<svg id="Layer_1" enable-background="new 0 0 512 512" viewBox="0 0 512 512" xmlns="http://www.w3.org/2000/svg"><g><g><path clip-rule="evenodd" d="m323.393 302.505c6.72 25.748 17.297 59.974 17.297 88.359 0 22.373-7.231 44.945-14.178 65.872-3.289 10.01-2.439 20.02 2.524 29.179 6.806 12.59 22.628 19.623 35.19 19.623 8.819 0 17.269-2.58 25.152-7.316 9.698-5.841 20.275-5.841 29.973 0 10.35 6.238 21.778 8.677 33.319 6.579 9.641-1.786 22.09-9.726 27.024-18.885 4.962-9.159 5.813-19.169 2.524-29.179-6.947-20.927-14.178-43.499-14.178-65.872 0-28.385 10.577-62.611 17.297-88.359 3.743-14.292 5.898-23.876 5.643-38.905-.907-53.821-55.238-136.735-56.259-214.431h-60.711c-1.021 77.697-55.352 160.611-56.259 214.431-.256 15.027 1.899 24.612 5.642 38.904z" fill="#e6f3ff" fill-rule="evenodd"/></g><g><path clip-rule="evenodd" d="m433.416 504.147c6.267 1.56 12.732 1.843 19.254.652 9.641-1.786 22.09-9.726 27.024-18.885 4.962-9.159 5.813-19.169 2.524-29.179-6.947-20.927-14.178-43.499-14.178-65.872 0-28.385 10.577-62.611 17.297-88.359 3.743-14.292 5.898-23.876 5.643-38.905-.907-53.821-55.238-136.735-56.259-214.431h-22.005c1.021 77.697 55.352 160.611 56.259 214.431.255 15.029-1.9 24.613-5.643 38.905-6.72 25.748-17.297 59.974-17.297 88.359 0 22.373 7.231 44.945 14.178 65.872 3.289 10.01 2.439 20.02-2.524 29.179-4.48 8.308-15.142 15.624-24.273 18.233z" fill="#c8e1ff" fill-rule="evenodd"/></g><g><path clip-rule="evenodd" d="m456.782 148.586c-62.724 16.192-41.769-56.146-95.873-26.825-16.419 53.622-42.535 104.663-43.159 141.839-.255 15.029 1.9 24.613 5.643 38.905 6.72 25.748 17.297 59.974 17.297 88.359 0 22.373-7.231 44.945-14.178 65.872-3.289 10.01-2.439 20.02 2.524 29.179 6.806 12.59 22.628 19.623 35.19 19.623 8.819 0 17.269-2.58 25.152-7.316 9.698-5.841 20.275-5.841 29.973 0 10.35 6.238 21.778 8.677 33.319 6.579 9.641-1.786 22.09-9.726 27.024-18.885 4.962-9.159 5.813-19.169 2.524-29.179-6.947-20.927-14.178-43.499-14.178-65.872 0-28.385 10.577-62.611 17.297-88.359 3.743-14.292 5.898-23.876 5.643-38.905-.511-30.91-18.659-71.403-34.198-115.015z" fill="#ad6643" fill-rule="evenodd"/></g><g><path clip-rule="evenodd" d="m456.782 148.586c-8.365 2.155-15.227 2.751-20.984 2.212 15.369 42.762 32.922 82.404 33.432 112.802.255 15.029-1.9 24.613-5.643 38.905-6.749 25.748-17.297 59.974-17.297 88.359 0 22.373 7.231 44.945 14.15 65.872 3.318 10.01 2.439 20.02-2.495 29.179-4.509 8.365-15.227 15.681-24.415 18.262 6.238 1.56 12.675 1.786 19.141.624 9.641-1.786 22.09-9.726 27.024-18.885 4.962-9.159 5.813-19.169 2.524-29.179-6.947-20.927-14.178-43.499-14.178-65.872 0-28.385 10.577-62.611 17.297-88.359 3.743-14.292 5.898-23.876 5.643-38.905-.512-30.91-18.66-71.403-34.199-115.015z" fill="#95573a" fill-rule="evenodd"/></g><g><path clip-rule="evenodd" d="m334.055 197.047h140.62c8.961 24.812 15.993 47.497 16.305 66.553.255 15.029-1.9 24.613-5.643 38.905-1.219 4.736-2.581 9.726-3.998 14.915h-153.948c-1.418-5.189-2.779-10.18-3.998-14.915-3.743-14.292-5.898-23.876-5.643-38.905.312-19.056 7.344-41.741 16.305-66.553z" fill="#ff526e" fill-rule="evenodd"/></g><g><path clip-rule="evenodd" d="m452.925 197.047h21.749c8.961 24.812 15.993 47.497 16.305 66.553.255 15.029-1.9 24.613-5.643 38.905-1.219 4.736-2.581 9.726-3.998 14.915h-21.749c1.39-5.189 2.751-10.18 3.998-14.915 3.743-14.292 5.898-23.876 5.643-38.905-.34-19.056-7.344-41.741-16.305-66.553z" fill="#d92534" fill-rule="evenodd"/></g><g><path clip-rule="evenodd" d="m369.869 6.463h68.991c5.813 0 10.577 4.764 10.577 10.577v34.34h-90.145v-34.34c0-5.813 4.764-10.577 10.577-10.577z" fill="#ff526e" fill-rule="evenodd"/></g><g><path clip-rule="evenodd" d="m234.382 494.421c3.573-3.091 6.721-6.777 9.244-10.974 8.365 28.13 45.087 28.3 53.65.227 4.225 6.919 10.123 12.392 16.787 16.021 9.783 5.331 20.757 5.104 30.341-.567 9.556-5.7 15.001-15.256 15.001-26.372 0-14.745 0-29.491 0-44.236 0-10.52-1.872-19.509-6.04-29.15-6.806-15.738-6.777-34.708 0-50.446 4.168-9.67 6.04-18.659 6.04-29.15 0-52.091 0-104.153 0-156.244-15.142-32.61-33.716-53.792-54.643-78.434v-42.025h-66.439v42.024c-20.955 24.642-39.5 45.824-54.643 78.434v156.244c0 10.492 1.872 19.481 6.04 29.15 6.777 15.738 6.777 34.708 0 50.446-4.168 9.641-6.04 18.63-6.04 29.15v42.62c0 12.278 6.721 22.77 17.893 27.903 11.145 5.105 23.508 3.376 32.809-4.621z" fill="#e6f3ff" fill-rule="evenodd"/></g><g><path clip-rule="evenodd" d="m318.232 501.595c8.649 3.261 17.95 2.41 26.173-2.467 9.556-5.7 15.001-15.256 15.001-26.372 0-14.745 0-29.491 0-44.236 0-10.52-1.872-19.509-6.04-29.15-6.806-15.738-6.777-34.708 0-50.446 4.168-9.67 6.04-18.659 6.04-29.15 0-52.091 0-104.153 0-156.244-15.142-32.61-33.716-53.792-54.643-78.434v-42.025h-21.012v42.024c20.955 24.642 39.501 45.824 54.643 78.434v156.244c0 10.492-1.872 19.481-6.04 29.15-6.777 15.738-6.777 34.708 0 50.446 4.197 9.641 6.04 18.63 6.04 29.15v44.236c0 11.116-5.444 20.672-15.001 26.372-1.673.994-3.403 1.816-5.161 2.468z" fill="#c8e1ff" fill-rule="evenodd"/></g><g><path clip-rule="evenodd" d="m240.819 6.463h61.448c5.189 0 9.414 4.225 9.414 9.414v30.597h-80.277v-30.596c.001-5.19 4.226-9.415 9.415-9.415z" fill="#6ccf58" fill-rule="evenodd"/></g><g><path clip-rule="evenodd" d="m183.681 181.933h175.725v127.604h-175.725z" fill="#6ccf58" fill-rule="evenodd"/></g><g><path clip-rule="evenodd" d="m271.529 269.554c18.942 0 34.396-10.69 34.396-23.819s-15.454-23.819-34.396-23.819-34.368 10.69-34.368 23.819 15.426 23.819 34.368 23.819z" fill="#ffc839" fill-rule="evenodd"/></g><g><path clip-rule="evenodd" d="m338.394 181.933h21.012v127.604h-21.012z" fill="#5cbf49" fill-rule="evenodd"/></g><g><path clip-rule="evenodd" d="m179.853 181.933h-129.419c-6.324 0-11.484 4.906-11.484 10.889 0 6.012 5.161 10.889 11.484 10.889h129.419c6.323 0 11.484-4.877 11.484-10.889 0-5.983-5.161-10.889-11.484-10.889z" fill="#b9d6ff" fill-rule="evenodd"/></g><g><path clip-rule="evenodd" d="m179.853 203.711h-64.709-64.71l-29.434 47.1v209.724c0 11.683 10.067 21.239 22.373 21.239h71.77 71.77c12.307 0 22.373-9.556 22.373-21.239v-209.724z" fill="#ff526e" fill-rule="evenodd"/></g><g><path clip-rule="evenodd" d="m175.996 504.629h-121.706l-10.917-22.855h143.541z" fill="#b9d6ff" fill-rule="evenodd"/></g><g><path clip-rule="evenodd" d="m21 289.432h188.287v130.553h-188.287z" fill="#ffc839" fill-rule="evenodd"/></g><g><path clip-rule="evenodd" d="m60.614 289.432c-16.191 35.389 26.655 84.786 8.422 130.553h-48.036v-130.553z" fill="#f79600" fill-rule="evenodd"/></g></g><path d="m492.03 304.265c3.722-14.21 6.142-24.726 5.868-40.785-.339-19.929-7.552-43.378-16.607-68.474-.042-.136-.095-.268-.145-.4-2.521-6.975-5.181-14.076-7.874-21.263-3.298-8.804-6.697-17.881-9.989-27.132-.003-.01-.007-.02-.011-.03-10.14-28.496-19.25-58.659-21.216-87.725h7.313c3.867 0 7.002-3.135 7.002-7.001v-34.328c0-9.691-7.885-17.575-17.575-17.575h-68.967c-9.69 0-17.575 7.884-17.575 17.575v34.328c0 3.867 3.135 7.001 7.002 7.001h7.319c-1.148 17.028-4.832 35.862-11.196 57.309-1.101 3.707 1.013 7.604 4.72 8.704.665.197 1.335.291 1.995.291 3.02 0 5.807-1.969 6.709-5.012 6.776-22.835 10.652-42.965 11.798-61.292h47.427c1.783 28.481 9.936 57.439 19.431 84.953-20.791 3.202-28.003-6.324-36.209-17.193-3.726-4.934-7.577-10.036-12.762-13.64-3.175-2.208-7.538-1.424-9.746 1.752-2.207 3.175-1.423 7.538 1.752 9.746 3.35 2.329 6.376 6.336 9.58 10.58 7.676 10.167 17.631 23.353 39.799 23.353 3.743 0 7.844-.387 12.33-1.217 2.648 7.296 5.333 14.466 7.956 21.467 1.487 3.969 2.964 7.91 4.41 11.813h-80.197c-3.867 0-7.002 3.135-7.002 7.001s3.135 7.001 7.002 7.001h85.288c7.893 22.269 13.951 42.832 14.236 59.646.244 14.303-1.882 23.52-5.414 37.004-.812 3.108-1.681 6.346-2.579 9.677h-91.531c-3.867 0-7.002 3.135-7.002 7.001s3.135 7.001 7.002 7.001h87.781c-5.58 21.206-11.189 45.337-11.189 66.416 0 24.286 8.057 48.554 14.523 68.034 2.701 8.222 2.02 16.178-2.035 23.662-4.015 7.453-14.683 13.936-22.104 15.311-9.551 1.737-19.389-.229-28.441-5.686-11.989-7.222-25.196-7.222-37.178-.006-4.146 2.488-8.396 4.256-12.632 5.255-3.763.888-6.094 4.659-5.206 8.422s4.654 6.093 8.423 5.207c5.644-1.332 11.235-3.646 16.63-6.883 7.438-4.48 15.3-4.48 22.736-.001 9.127 5.501 18.937 8.314 28.815 8.313 3.126 0 6.261-.282 9.382-.849 10.669-1.978 25.477-10.515 31.895-22.428 5.871-10.836 6.914-22.832 3.011-34.709-6.155-18.543-13.815-41.621-13.815-63.643 0-23.238 7.681-51.682 13.853-74.538 1.123-4.16 2.209-8.183 3.209-12.013zm-125.772-259.812v-27.326c0-1.936 1.635-3.572 3.571-3.572h68.967c1.937 0 3.571 1.636 3.571 3.572v27.326zm-53.499 39.321-1.011-1.189v-29.038c3.827-.047 6.916-3.159 6.916-6.997v-30.585c0-9.05-7.363-16.413-16.413-16.413h-61.427c-9.05 0-16.413 7.363-16.413 16.413v30.585c0 3.838 3.09 6.951 6.917 6.997v29.036l-.84.988c-18.412 21.635-35.803 42.069-50.156 70.86-1.726 3.46-.319 7.665 3.142 9.39 1.003.5 2.069.737 3.118.737 2.571 0 5.047-1.422 6.271-3.879 13.593-27.263 29.671-46.156 48.289-68.033l2.512-2.953c1.077-1.266 1.668-2.874 1.668-4.535v-31.606h52.412v31.606c0 1.66.591 3.267 1.665 4.532l2.682 3.155c19.464 22.893 36.316 42.714 50.276 72.277v9.837h-137.706c-3.867 0-7.002 3.135-7.002 7.001s3.135 7.001 7.002 7.001h137.706v113.556h-118.062c-3.867 0-7.002 3.135-7.002 7.001s3.135 7.001 7.002 7.001h118.063v3.231c0 9.467-1.686 17.6-5.463 26.361-7.579 17.528-7.579 38.458 0 55.986 3.778 8.738 5.463 16.869 5.463 26.361v44.22c0 8.668-4.112 15.895-11.559 20.337-7.503 4.44-15.816 4.597-23.416.444-5.784-3.151-10.679-7.825-14.154-13.516-1.438-2.354-4.132-3.643-6.855-3.297-2.735.347-5.013 2.266-5.817 4.903-3.599 11.798-12.717 15.997-20.077 15.997-.022 0-.046 0-.068 0-7.389-.026-16.543-4.289-20.078-16.176-.791-2.66-3.077-4.601-5.83-4.95-2.745-.352-5.451.959-6.881 3.338-2.094 3.48-4.725 6.604-7.794 9.259-5.623 4.813-12.551 6.736-19.511 5.413-3.797-.716-7.463 1.774-8.186 5.573-.722 3.799 1.773 7.463 5.572 8.185 11.063 2.103 22.442-1.009 31.257-8.556 1.134-.98 2.221-2.004 3.261-3.07 6.433 9.326 16.611 14.948 28.141 14.989h.126c11.507-.001 21.695-5.578 28.155-14.877 3.544 3.596 7.598 6.664 12.033 9.08 11.925 6.517 25.504 6.267 37.275-.698 11.699-6.979 18.41-18.779 18.41-32.375v-44.22c0-11.497-2.04-21.341-6.613-31.919-6.075-14.048-6.075-30.823.003-44.878 4.571-10.604 6.61-20.446 6.61-31.912v-156.188c0-1.019-.223-2.025-.651-2.949-14.889-32.062-33.383-53.812-52.962-76.841zm-8.099-44.225h-66.245v-23.584c0-1.329 1.08-2.41 2.409-2.41h61.427c1.329 0 2.409 1.081 2.409 2.41zm-33.136 237.005c23.207 0 41.387-13.534 41.387-30.813s-18.18-30.813-41.387-30.813c-23.19 0-41.357 13.534-41.357 30.813s18.166 30.813 41.357 30.813zm0-47.622c14.843 0 27.383 7.698 27.383 16.81s-12.54 16.81-27.383 16.81c-14.827 0-27.354-7.698-27.354-16.81s12.527-16.81 27.354-16.81zm-55.219 231.533v-209.65c0-1.312-.369-2.598-1.064-3.71l-24.532-39.257v-.536c4.628-3.254 7.654-8.517 7.654-14.464 0-6.715-3.848-12.57-9.517-15.629-1.279-1.385-3.105-2.258-5.14-2.258-.509 0-1.003.057-1.481.16-.77-.095-1.549-.16-2.345-.16h-129.373c-10.191 0-18.482 8.024-18.482 17.887 0 6.047 3.125 11.392 7.885 14.631l-24.764 39.627c-.695 1.113-1.064 2.398-1.064 3.71v209.65c0 14.07 10.763 25.767 24.788 27.888l9.175 19.209c1.162 2.434 3.62 3.984 6.317 3.984h121.663c2.697 0 5.155-1.55 6.317-3.984l9.176-19.209c14.025-2.122 24.787-13.818 24.787-27.889zm-165.798-271.502h129.373c2.428 0 4.479 1.779 4.479 3.884 0 1.602-1.124 2.979-2.725 3.572-.012.004-.023.008-.036.012-.529.192-1.108.299-1.718.299h-129.373c-2.47 0-4.479-1.742-4.479-3.883.001-2.105 2.051-3.884 4.479-3.884zm-22.422 107.461h22.985c-3.492 16.593 1.635 34.541 7.019 53.357 6.021 21.043 12.232 42.756 6.052 63.147h-36.056zm143.525 201.118h-112.833l-4.225-8.844h121.282zm30.691-37.077c0 7.846-6.892 14.23-15.363 14.23h-143.49c-8.472 0-15.363-6.384-15.363-14.23v-33.534h41.017 133.199zm0-47.536h-123.662c5.496-23.01-1.142-46.221-7.087-66.999-5.219-18.242-10.173-35.564-6.028-49.505h136.777zm0-130.508h-174.216v-29.599l26.303-42.09h121.611l26.302 42.09z"/></svg>