<svg height="512pt" viewBox="-39 0 512 512.00014" width="512pt" xmlns="http://www.w3.org/2000/svg"><path d="m186.214844 414.34375c6.917968-13.789062 17.9375-42.226562 15.804687-80.5625-1.78125-32.042969-11.28125-52.867188-19.660156-71.238281-9.210937-20.183594-16.546875-36.273438-11.195313-62.074219h7.65625c12.429688 0 22.539063-10.109375 22.539063-22.539062 0-9.816407-6.3125-18.183594-15.089844-21.265626 3.976563-10.257812 6.058594-21.261718 6.058594-32.328124 0-39.917969-26.371094-73.789063-62.605469-85.113282v-13.554687c0-34.171875-53.089844-34.273438-53.089844 0v13.550781c-36.238281 11.324219-62.609374 45.199219-62.609374 85.117188 0 11.066406 2.082031 22.070312 6.058593 32.324218-8.777343 3.085938-15.085937 11.449219-15.085937 21.269532 0 12.425781 10.109375 22.539062 22.535156 22.539062h7.65625c5.351562 25.796875-1.984375 41.890625-11.191406 62.074219-8.382813 18.371093-17.882813 39.195312-19.664063 71.234375-2.128906 38.335937 8.886719 66.777344 15.808594 80.566406-11.816406 4.933594-20.140625 16.605469-20.140625 30.1875v53.703125c0 7.589844 6.175781 13.765625 13.769531 13.765625h178.816407c7.589843 0 13.769531-6.175781 13.769531-13.765625v-53.703125c-.003907-13.582031-8.328125-25.253906-20.140625-30.1875zm-94.558594-388.675781c0-14.824219 23.039062-14.925781 23.039062 0v10.257812c-3.769531-.488281-7.617187-.742187-11.519531-.742187-3.902343 0-7.746093.253906-11.519531.742187zm11.519531 24.542969c40.875 0 74.128907 33.253906 74.128907 74.125 0 10.542968-2.261719 21.015624-6.570313 30.554687h-135.113281c-4.308594-9.539063-6.570313-20.011719-6.570313-30.554687 0-40.871094 33.25-74.125 74.125-74.125zm-83.839843 284.402343c1.621093-29.214843 10.117187-47.832031 18.328124-65.835937 9.226563-20.222656 17.972657-39.402344 12.824219-68.308594h9.113281c9.691407 0 9.691407-15.027344 0-15.027344h-32.070312c-9.6875 0-9.6875-15.027344 0-15.027344h151.289062c9.6875 0 9.6875 15.027344 0 15.027344h-85.160156c-9.691406 0-9.691406 15.027344 0 15.027344h62.203125c-5.148437 28.90625 3.59375 48.085938 12.824219 68.308594 8.210938 18.003906 16.707031 36.621094 18.328125 65.835937 2.207031 39.648438-11.320313 67.945313-16.503906 77.214844h-134.671875c-5.183594-9.269531-18.707032-37.566406-16.503906-77.214844zm-4.308594 162.359375v-16.027344h124.710937c9.691407 0 9.691407-15.023437 0-15.023437h-124.710937v-21.390625c0-9.746094 7.929687-17.675781 17.675781-17.675781h140.945313c9.746093 0 17.679687 7.929687 17.679687 17.675781v21.390625h-17.53125c-9.691406 0-9.691406 15.023437 0 15.023437h17.53125v16.027344zm0 0"/><path d="m122.050781 83.855469c8.203125 3.515625 16.21875 11.277343 21.4375 20.765625 4.628907 8.414062 17.851563 1.277344 13.164063-7.242188-6.777344-12.324218-17.5-22.542968-28.683594-27.335937-8.90625-3.820313-14.824219 9.992187-5.917969 13.8125zm0 0"/><path d="m426.230469 396.300781c4.148437 0 7.511719-3.363281 7.511719-7.511719v-127.980468c0-4.34375-.742188-8.625-2.207032-12.71875l-13.089844-36.597656c-3.675781-10.273438-11.550781-18.230469-21.265624-22.222657v-30.875h8.445312c11.085938 0 20.101562-9.015625 20.101562-20.101562 0-41.386719-33.667968-75.0625-75.058593-75.0625h-40.707031c-9.691407 0-9.691407 15.027343 0 15.027343h40.707031c33.101562 0 60.035156 26.929688 60.035156 60.035157 0 2.800781-2.277344 5.078125-5.078125 5.078125h-150.621094c-2.800781 0-5.078125-2.277344-5.078125-5.078125 0-21.277344 11.433594-41.160157 29.832031-51.894531 8.371094-4.886719.796876-17.863282-7.570312-12.980469-23 13.417969-37.285156 38.277343-37.285156 64.875 0 11.085937 9.015625 20.101562 20.101562 20.101562h7.945313v30.875c-9.714844 3.988281-17.589844 11.949219-21.261719 22.21875l-13.09375 36.601563c-1.464844 4.09375-2.207031 8.375-2.207031 12.71875v213.421875c0 20.828125 16.941406 37.769531 37.769531 37.769531h131.816406c20.824219 0 37.769532-16.941406 37.769532-37.769531v-49.378907c0-9.691406-15.027344-9.691406-15.027344 0v49.378907c0 12.542969-10.203125 22.742187-22.742188 22.742187h-131.816406c-12.539062 0-22.742188-10.199218-22.742188-22.742187v-213.421875c0-2.617188.445313-5.191406 1.328126-7.660156l13.089843-36.597657c3.226563-9.019531 11.835938-15.082031 21.414063-15.082031h105.632812c9.582032 0 18.1875 6.0625 21.414063 15.082031l13.09375 36.597657c.882812 2.46875 1.328125 5.042968 1.328125 7.660156v127.980468c0 4.148438 3.367187 7.511719 7.515625 7.511719zm-148.253907-209.859375v-28.046875h104.175782v28.046875zm0 0"/><path d="m356.925781 258.066406v191.328125c0 9.6875 15.027344 9.6875 15.027344 0v-191.328125c0-9.691406-15.027344-9.691406-15.027344 0zm0 0"/><path d="m288.179688 321.171875v128.222656c0 9.6875 15.023437 9.6875 15.023437 0v-128.222656c0-9.6875-15.023437-9.6875-15.023437 0zm0 0"/><path d="m307.277344 105.804688c9.667968 0 9.683594-15.023438 0-15.023438-9.671875 0-9.6875 15.023438 0 15.023438zm0 0"/><path d="m353.355469 90.78125c-9.667969 0-9.683594 15.023438 0 15.023438 9.667969 0 9.683593-15.023438 0-15.023438zm0 0"/><path d="m284.238281 128.84375c9.667969 0 9.683594-15.023438 0-15.023438-9.671875 0-9.6875 15.023438 0 15.023438zm0 0"/><path d="m330.316406 113.820312c-9.667968 0-9.6875 15.023438 0 15.023438 9.667969 0 9.683594-15.023438 0-15.023438zm0 0"/><path d="m376.394531 113.820312c-9.667969 0-9.683593 15.023438 0 15.023438 9.667969 0 9.683594-15.023438 0-15.023438zm0 0"/></svg>