<?xml version="1.0" encoding="UTF-8" standalone="no"?>
<!-- Created with Inkscape (http://www.inkscape.org/) -->

<svg
   version="1.1"
   id="svg3084"
   xml:space="preserve"
   width="682.66669"
   height="682.66669"
   viewBox="0 0 682.66669 682.66669"
   xmlns="http://www.w3.org/2000/svg"
   xmlns:svg="http://www.w3.org/2000/svg"><defs
     id="defs3088"><clipPath
       clipPathUnits="userSpaceOnUse"
       id="clipPath3098"><path
         d="M 0,512 H 512 V 0 H 0 Z"
         id="path3096" /></clipPath></defs><g
     id="g3090"
     transform="matrix(1.3333333,0,0,-1.3333333,0,682.66667)"><g
       id="g3092"><g
         id="g3094"
         clip-path="url(#clipPath3098)"><g
           id="g3100"
           transform="translate(248.708,225.0024)"><path
             d="m 0,0 111.283,-195.789 c 3.95,-6.951 1.532,-15.813 -5.402,-19.793 v -0.001 c -6.935,-3.98 -15.758,-1.572 -19.709,5.379 L -25.111,-14.415"
             style="fill:none;stroke:#060606;stroke-width:15;stroke-linecap:round;stroke-linejoin:round;stroke-miterlimit:10;stroke-dasharray:none;stroke-opacity:1"
             id="path3102" /></g><g
           id="g3104"
           transform="translate(84.1323,404.0273)"><path
             d="m 0,0 c 21.186,26.424 56.667,39.255 91.302,29.804 37.288,-10.176 59.231,-48.783 49.011,-86.23 -8.175,-29.959 -38.985,-47.645 -68.815,-39.505 -23.865,6.513 -37.909,31.221 -31.368,55.187 5.232,19.174 25.426,31.997 44.042,25.283 33.71,-12.156 13.148,-54.307 -9.904,-38.503 -8.603,5.897 -2.705,17.608 5.652,14.418"
             style="fill:none;stroke:#060606;stroke-width:15;stroke-linecap:round;stroke-linejoin:round;stroke-miterlimit:10;stroke-dasharray:none;stroke-opacity:1"
             id="path3106" /></g><g
           id="g3108"
           transform="translate(293.9336,293.1689)"><path
             d="m 0,0 c -31.909,-47.454 -91.436,-71.628 -149.444,-55.798 -58.262,15.899 -92.549,76.221 -76.58,134.734"
             style="fill:none;stroke:#060606;stroke-width:15;stroke-linecap:round;stroke-linejoin:round;stroke-miterlimit:10;stroke-dasharray:none;stroke-opacity:1"
             id="path3110" /></g><g
           id="g3112"
           transform="translate(300.7568,290.2314)"><path
             d="m 0,0 c -12.7,-29.486 -34.679,-55.257 -64.604,-72.437 -73.381,-42.125 -166.763,-16.642 -208.573,56.918 -41.81,73.561 -16.217,167.342 57.164,209.468 73.381,42.125 166.763,16.642 208.573,-56.918 C 4.595,115.856 11.045,93.006 12.378,70.195"
             style="fill:none;stroke:#060606;stroke-width:15;stroke-linecap:round;stroke-linejoin:round;stroke-miterlimit:10;stroke-dasharray:none;stroke-opacity:1"
             id="path3114" /></g><g
           id="g3116"
           transform="translate(458.8721,187.6562)"><path
             d="m 0,0 c -16.044,10.193 -36.626,12.668 -55.537,4.837 -30.911,-12.799 -45.653,-48.284 -32.928,-79.256 12.726,-30.973 48.1,-45.705 79.011,-32.905 30.911,12.8 45.653,48.284 32.928,79.256"
             style="fill:none;stroke:#060606;stroke-width:15;stroke-linecap:round;stroke-linejoin:round;stroke-miterlimit:10;stroke-dasharray:none;stroke-opacity:1"
             id="path3118" /></g><g
           id="g3120"
           transform="translate(373.9551,264.0005)"><path
             d="m 0,0 c 7.009,2.902 14.802,0.872 19.59,-4.474 1.134,0.844 2.374,1.578 3.739,2.143 8.897,3.684 19.078,-0.556 22.74,-9.47 10.392,-25.292 -13.679,-58.46 -13.679,-58.46 l -6.02,-2.492 c 0,0 -40.364,6.486 -50.756,31.778 -3.663,8.914 0.58,19.127 9.478,22.811 1.364,0.565 2.759,0.922 4.156,1.126 C -11.11,-9.858 -7.01,-2.902 0,0 Z"
             style="fill:none;stroke:#060606;stroke-width:15;stroke-linecap:round;stroke-linejoin:round;stroke-miterlimit:10;stroke-dasharray:none;stroke-opacity:1"
             id="path3122" /></g><g
           id="g3124"
           transform="translate(478.7979,8.8252)"><path
             d="m 0,0 c -7.009,-2.902 -14.802,-0.872 -19.59,4.474 -1.134,-0.844 -2.374,-1.578 -3.738,-2.143 -8.898,-3.684 -19.079,0.556 -22.741,9.471 -10.392,25.291 13.679,58.459 13.679,58.459 l 6.02,2.492 c 0,0 40.364,-6.486 50.756,-31.778 C 28.049,32.061 23.806,21.848 14.908,18.164 13.544,17.599 12.149,17.242 10.752,17.038 11.11,9.858 7.01,2.902 0,0 Z"
             style="fill:none;stroke:#060606;stroke-width:15;stroke-linecap:round;stroke-linejoin:round;stroke-miterlimit:10;stroke-dasharray:none;stroke-opacity:1"
             id="path3126" /></g><g
           id="g3128"
           transform="translate(333.4834,351.3594)"><path
             d="M 0,0 C 18.437,-27.917 56.076,-35.651 84.067,-17.275 112.06,1.102 119.805,38.63 101.366,66.548 82.929,94.465 45.291,102.2 17.299,83.823 -10.692,65.446 -18.437,27.917 0,0 Z"
             style="fill:none;stroke:#060606;stroke-width:15;stroke-linecap:round;stroke-linejoin:round;stroke-miterlimit:10;stroke-dasharray:none;stroke-opacity:1"
             id="path3130" /></g><g
           id="g3132"
           transform="translate(268.8584,308.9326)"><path
             d="m 0,0 c -4.181,6.33 -3.667,14.367 0.672,20.083 -1.044,0.954 -2.001,2.031 -2.815,3.264 -5.306,8.035 -3.077,18.837 4.98,24.126 22.857,15.006 59.993,-2.328 59.993,-2.328 l 3.59,-5.436 c 0,0 1.299,-40.862 -21.559,-55.868 -8.056,-5.289 -18.889,-3.063 -24.196,4.972 -0.814,1.232 -1.43,2.534 -1.895,3.867 C 11.789,-9.035 4.181,-6.331 0,0 Z"
             style="fill:none;stroke:#060606;stroke-width:15;stroke-linecap:round;stroke-linejoin:round;stroke-miterlimit:10;stroke-dasharray:none;stroke-opacity:1"
             id="path3134" /></g><g
           id="g3136"
           transform="translate(499.4756,460.334)"><path
             d="m 0,0 c 4.181,-6.33 3.667,-14.367 -0.672,-20.083 1.044,-0.953 2,-2.031 2.815,-3.264 5.306,-8.035 3.077,-18.837 -4.98,-24.126 -22.857,-15.006 -59.993,2.328 -59.993,2.328 l -3.591,5.437 c 0,0 -1.299,40.861 21.56,55.867 8.056,5.289 18.889,3.063 24.196,-4.972 0.813,-1.232 1.43,-2.534 1.894,-3.867 C -11.789,9.036 -4.181,6.331 0,0 Z"
             style="fill:none;stroke:#060606;stroke-width:15;stroke-linecap:round;stroke-linejoin:round;stroke-miterlimit:10;stroke-dasharray:none;stroke-opacity:1"
             id="path3138" /></g><g
           id="g3140"
           transform="translate(80.2358,108.3389)"><path
             d="M 0,0 C 12.676,31.029 48.034,45.937 78.975,33.298 109.916,20.659 124.722,-14.741 112.045,-45.77 99.369,-76.799 64.011,-91.708 33.07,-79.068 2.13,-66.429 -12.676,-31.029 0,0 Z"
             style="fill:none;stroke:#060606;stroke-width:15;stroke-linecap:round;stroke-linejoin:round;stroke-miterlimit:10;stroke-dasharray:none;stroke-opacity:1"
             id="path3142" /></g><g
           id="g3144"
           transform="translate(8.8018,137.519)"><path
             d="m 0,0 c -2.874,-7.036 -0.824,-14.839 4.524,-19.618 -0.839,-1.14 -1.567,-2.385 -2.127,-3.755 -3.648,-8.931 0.613,-19.12 9.518,-22.757 25.266,-10.322 58.285,13.929 58.285,13.929 l 2.468,6.042 c 0,0 -6.594,40.432 -31.86,50.753 C 31.903,28.231 21.726,23.941 18.077,15.01 17.518,13.64 17.166,12.241 16.967,10.84 9.802,11.172 2.875,7.036 0,0 Z"
             style="fill:none;stroke:#060606;stroke-width:15;stroke-linecap:round;stroke-linejoin:round;stroke-miterlimit:10;stroke-dasharray:none;stroke-opacity:1"
             id="path3146" /></g><g
           id="g3148"
           transform="translate(263.7148,33.3882)"><path
             d="m 0,0 c 2.874,7.036 0.824,14.839 -4.523,19.619 0.838,1.139 1.567,2.385 2.127,3.755 3.648,8.93 -0.614,19.119 -9.519,22.757 -25.266,10.321 -58.284,-13.929 -58.284,-13.929 l -2.468,-6.042 c 0,0 6.594,-40.432 31.859,-50.754 8.906,-3.637 19.082,0.654 22.731,9.584 0.559,1.37 0.911,2.77 1.111,4.171 C -9.802,-11.172 -2.874,-7.036 0,0 Z"
             style="fill:none;stroke:#060606;stroke-width:15;stroke-linecap:round;stroke-linejoin:round;stroke-miterlimit:10;stroke-dasharray:none;stroke-opacity:1"
             id="path3150" /></g></g></g></g></svg>
