<svg xmlns="http://www.w3.org/2000/svg" xmlns:xlink="http://www.w3.org/1999/xlink" width="500" zoomAndPan="magnify" viewBox="0 0 375 127.500001" height="170" preserveAspectRatio="xMidYMid meet" version="1.0"><defs><g/><clipPath id="20e31c3cdb"><path d="M 0.730469 0 L 374.265625 0 L 374.265625 127.003906 L 0.730469 127.003906 Z M 0.730469 0 " clip-rule="nonzero"/></clipPath><clipPath id="663dc1d204"><path d="M 18 4.875 L 63 4.875 L 63 38 L 18 38 Z M 18 4.875 " clip-rule="nonzero"/></clipPath></defs><g clip-path="url(#20e31c3cdb)"><path fill="#ffffff" d="M 0.730469 0 L 374.265625 0 L 374.265625 127.003906 L 0.730469 127.003906 Z M 0.730469 0 " fill-opacity="1" fill-rule="nonzero"/><path fill="#ffffff" d="M 0.730469 0 L 374.265625 0 L 374.265625 127.003906 L 0.730469 127.003906 Z M 0.730469 0 " fill-opacity="1" fill-rule="nonzero"/></g><g fill="#e7191f" fill-opacity="1"><g transform="translate(16.616574, 92.969017)"><g><path d="M 2.921875 0 L 2.921875 -50.53125 L 16.515625 -50.53125 L 16.515625 0 Z M 2.921875 0 "/></g></g></g><g fill="#e7191f" fill-opacity="1"><g transform="translate(36.050149, 92.969017)"><g><path d="M 1.9375 0 L 1.9375 -11.65625 L 8.75 -11.65625 C 10.5 -11.65625 11.582031 -12.238281 12 -13.40625 C 12.414062 -14.570312 12.625 -16.257812 12.625 -18.46875 L 12.625 -31.09375 L 27.203125 -31.09375 L 27.203125 -19.4375 C 27.203125 -15.09375 26.78125 -11.476562 25.9375 -8.59375 C 25.101562 -5.71875 23.566406 -3.566406 21.328125 -2.140625 C 19.097656 -0.710938 15.875 0 11.65625 0 Z M 12.625 -37.890625 L 12.625 -50.53125 L 27.203125 -50.53125 L 27.203125 -37.890625 Z M 12.625 -37.890625 "/></g></g></g><g fill="#e7191f" fill-opacity="1"><g transform="translate(66.172205, 92.969017)"><g><path d="M 1.9375 -38.875 L 1.9375 -63.15625 L 15.546875 -63.15625 L 15.546875 -50.53125 L 42.75 -50.53125 L 37.40625 -38.875 Z M 4.859375 0 L 19.4375 -31.09375 L 34.015625 -31.09375 L 20.40625 0 Z M 4.859375 0 "/></g></g></g><g fill="#e7191f" fill-opacity="1"><g transform="translate(109.703424, 92.969017)"><g><path d="M 31.09375 1.9375 C 29.476562 1.9375 27.46875 1.628906 25.0625 1.015625 C 22.664062 0.398438 20.1875 -0.597656 17.625 -1.984375 C 15.070312 -3.378906 12.675781 -5.273438 10.4375 -7.671875 C 8.207031 -10.066406 6.394531 -13.03125 5 -16.5625 C 3.613281 -20.09375 2.921875 -24.289062 2.921875 -29.15625 L 2.921875 -50.53125 L 16.515625 -50.53125 L 16.515625 -27.203125 C 16.515625 -24.160156 17.113281 -21.3125 18.3125 -18.65625 C 19.507812 -16 21.273438 -13.84375 23.609375 -12.1875 C 25.941406 -10.539062 28.757812 -9.71875 32.0625 -9.71875 C 35.5625 -9.71875 38.378906 -10.539062 40.515625 -12.1875 C 42.660156 -13.84375 44.21875 -16 45.1875 -18.65625 C 46.15625 -21.3125 46.640625 -24.160156 46.640625 -27.203125 L 46.640625 -50.53125 L 60.25 -50.53125 L 60.25 -29.15625 C 60.25 -23.0625 59.304688 -18.003906 57.421875 -13.984375 C 55.546875 -9.972656 53.101562 -6.800781 50.09375 -4.46875 C 47.082031 -2.132812 43.890625 -0.484375 40.515625 0.484375 C 37.148438 1.453125 34.007812 1.9375 31.09375 1.9375 Z M 24.296875 -21.375 L 24.296875 -52.46875 L 37.890625 -52.46875 L 37.890625 -21.375 Z M 24.296875 -21.375 "/></g></g></g><g clip-path="url(#663dc1d204)"><path fill="#ffa073" d="M 18.765625 36.554688 C 18.765625 36.554688 28.890625 21.109375 45.757812 19.136719 C 45.757812 19.136719 30.054688 26.835938 23.421875 37.429688 C 58.011719 42.324219 62.835938 4.910156 62.835938 4.910156 C 21.609375 7.300781 18.765625 36.554688 18.765625 36.554688 " fill-opacity="1" fill-rule="nonzero"/></g><g fill="#845333" fill-opacity="1"><g transform="translate(181.952355, 88.818715)"><g><path d="M 1.71875 0 L 1.71875 -18.296875 L 9.71875 -18.296875 L 9.71875 -6.859375 L 18.875 -6.859375 L 18.875 -19.4375 C 18.875 -21.726562 17.726562 -22.875 15.4375 -22.875 L 1.71875 -22.875 L 1.71875 -29.734375 L 16.578125 -29.734375 C 20.273438 -29.734375 22.914062 -28.96875 24.5 -27.4375 C 26.082031 -25.914062 26.875 -23.441406 26.875 -20.015625 L 26.875 0 Z M 1.71875 0 "/></g></g></g><g fill="#845333" fill-opacity="1"><g transform="translate(210.540261, 88.818715)"><g><path d="M 1.71875 -11.4375 L 1.71875 -29.734375 L 9.71875 -29.734375 L 9.71875 -11.4375 Z M 1.71875 -11.4375 "/></g></g></g><g fill="#845333" fill-opacity="1"><g transform="translate(221.975425, 88.818715)"><g><path d="M 1.140625 0 L 1.140625 -6.859375 L 4.578125 -6.859375 L 4.578125 -18.296875 L 12.578125 -18.296875 L 12.578125 -6.859375 L 16.015625 -6.859375 C 17.421875 -6.859375 18.34375 -7.144531 18.78125 -7.71875 C 19.21875 -8.289062 19.4375 -9.335938 19.4375 -10.859375 L 19.4375 -29.734375 L 27.453125 -29.734375 L 27.453125 -9.71875 C 27.453125 -6.25 26.671875 -3.757812 25.109375 -2.25 C 23.546875 -0.75 21.085938 0 17.734375 0 Z M 4.578125 -22.59375 L 4.578125 -29.734375 L 12.578125 -29.734375 L 12.578125 -22.59375 Z M 4.578125 -22.59375 "/></g></g></g><g fill="#845333" fill-opacity="1"><g transform="translate(251.13509, 88.818715)"><g><path d="M 1.71875 0 L 1.71875 -6.859375 L 17.15625 -6.859375 C 17 -9.523438 15.851562 -10.859375 13.71875 -10.859375 C 12.613281 -10.859375 11.375 -11.039062 10 -11.40625 C 8.632812 -11.769531 7.320312 -12.425781 6.0625 -13.375 C 4.800781 -14.332031 3.757812 -15.71875 2.9375 -17.53125 C 2.125 -19.34375 1.71875 -21.695312 1.71875 -24.59375 L 1.71875 -29.734375 L 9.71875 -29.734375 L 9.71875 -22.875 C 9.71875 -21.351562 10.085938 -20.207031 10.828125 -19.4375 C 11.578125 -18.675781 12.539062 -18.296875 13.71875 -18.296875 C 17.6875 -18.296875 20.582031 -17.113281 22.40625 -14.75 C 24.238281 -12.382812 25.15625 -9.179688 25.15625 -5.140625 L 25.15625 0 Z M 17.15625 -22.296875 L 17.15625 -29.734375 L 25.15625 -29.734375 L 25.15625 -22.296875 Z M 17.15625 -22.296875 "/></g></g></g><g fill="#845333" fill-opacity="1"><g transform="translate(278.007726, 88.818715)"><g><path d="M 13.890625 -18.875 C 13.890625 -20.4375 13.679688 -21.492188 13.265625 -22.046875 C 12.847656 -22.597656 11.914062 -22.875 10.46875 -22.875 L 2.453125 -22.875 L 2.453125 -29.734375 L 12.75 -29.734375 C 15.988281 -29.734375 18.320312 -28.941406 19.75 -27.359375 C 21.1875 -25.773438 21.90625 -23.132812 21.90625 -19.4375 L 21.90625 -11.4375 L 13.890625 -11.4375 Z M 1.3125 0 L 1.3125 -6.859375 L 24.765625 -6.859375 L 24.765625 0 Z M 1.3125 0 "/></g></g></g><g fill="#845333" fill-opacity="1"><g transform="translate(304.022717, 88.818715)"><g><path d="M 1.71875 0 L 1.71875 -29.734375 L 9.71875 -29.734375 L 9.71875 -24.015625 C 10.632812 -25.003906 11.578125 -25.972656 12.546875 -26.921875 C 13.523438 -27.878906 14.488281 -28.816406 15.4375 -29.734375 C 18.675781 -29.546875 21.34375 -28.71875 23.4375 -27.25 C 25.539062 -25.78125 27.113281 -23.945312 28.15625 -21.75 C 29.207031 -19.5625 29.734375 -17.269531 29.734375 -14.875 C 29.734375 -12.3125 29.160156 -9.894531 28.015625 -7.625 C 26.878906 -5.363281 25.128906 -3.523438 22.765625 -2.109375 C 20.398438 -0.703125 17.382812 0 13.71875 0 L 12.578125 0 L 12.578125 -6.859375 C 15.554688 -6.859375 17.828125 -7.628906 19.390625 -9.171875 C 20.953125 -10.722656 21.734375 -12.625 21.734375 -14.875 C 21.734375 -17.382812 21 -19.34375 19.53125 -20.75 C 18.0625 -22.164062 16.125 -22.875 13.71875 -22.875 L 9.71875 -22.875 L 9.71875 0 Z M 1.71875 0 "/></g></g></g><g fill="#845333" fill-opacity="1"><g transform="translate(334.897662, 88.818715)"><g><path d="M 19.4375 -14.875 C 19.4375 -15.707031 19.300781 -16.585938 19.03125 -17.515625 C 18.769531 -18.453125 18.285156 -19.320312 17.578125 -20.125 C 16.878906 -20.925781 15.890625 -21.582031 14.609375 -22.09375 C 13.335938 -22.613281 11.707031 -22.875 9.71875 -22.875 L 1.71875 -22.875 L 1.71875 -29.734375 L 11.4375 -29.734375 C 14.375 -29.734375 16.859375 -29.273438 18.890625 -28.359375 C 20.929688 -27.453125 22.582031 -26.265625 23.84375 -24.796875 C 25.101562 -23.328125 26.019531 -21.722656 26.59375 -19.984375 C 27.164062 -18.253906 27.453125 -16.550781 27.453125 -14.875 L 27.453125 0 L 19.4375 0 Z M 1.71875 0 L 1.71875 -18.296875 L 9.71875 -18.296875 L 9.71875 0 Z M 1.71875 0 "/></g></g></g></svg>