<svg xmlns="http://www.w3.org/2000/svg" xmlns:xlink="http://www.w3.org/1999/xlink" viewBox="0 0 3710 3710"><defs><style>.cls-1{fill:none;}.cls-2{isolation:isolate;}.cls-3{fill:#f4f7fa;}.cls-4{fill:url(#linear-gradient);}.cls-5{fill:#26264f;}.cls-6{fill:url(#linear-gradient-2);}.cls-7{fill:url(#linear-gradient-3);}.cls-48,.cls-53,.cls-8,.cls-9{fill:#fff;}.cls-9{opacity:0.48;}.cls-52,.cls-53,.cls-9{mix-blend-mode:soft-light;}.cls-10{fill:url(#linear-gradient-4);}.cls-11{fill:url(#linear-gradient-5);}.cls-12{fill:url(#linear-gradient-6);}.cls-13{fill:url(#linear-gradient-7);}.cls-14,.cls-15{fill:#d8dee8;}.cls-15,.cls-29,.cls-48{opacity:0.3;}.cls-15,.cls-29,.cls-42{mix-blend-mode:multiply;}.cls-16{fill:url(#linear-gradient-8);}.cls-17{fill:url(#linear-gradient-9);}.cls-18{fill:url(#linear-gradient-10);}.cls-19{fill:url(#linear-gradient-11);}.cls-20{fill:url(#linear-gradient-12);}.cls-21{fill:url(#linear-gradient-13);}.cls-22{fill:url(#linear-gradient-14);}.cls-23{fill:url(#linear-gradient-15);}.cls-24,.cls-29{fill:#a2a7ae;}.cls-25{clip-path:url(#clip-path);}.cls-26{fill:url(#linear-gradient-16);}.cls-27{fill:url(#linear-gradient-17);}.cls-28{fill:#97a6b7;}.cls-30{fill:url(#linear-gradient-18);}.cls-31{fill:url(#linear-gradient-19);}.cls-32{fill:#34680d;}.cls-33{fill:url(#linear-gradient-20);}.cls-34{fill:url(#linear-gradient-21);}.cls-35{fill:url(#linear-gradient-22);}.cls-36{fill:url(#linear-gradient-23);}.cls-37{fill:url(#linear-gradient-24);}.cls-38{fill:url(#linear-gradient-25);}.cls-39{fill:url(#linear-gradient-26);}.cls-40{fill:url(#linear-gradient-27);}.cls-41{fill:url(#linear-gradient-28);}.cls-42{opacity:0.1;fill:url(#linear-gradient-29);}.cls-43{fill:url(#linear-gradient-30);}.cls-44{fill:url(#linear-gradient-31);}.cls-45{fill:url(#linear-gradient-32);}.cls-46{fill:#fc77ae;}.cls-47{fill:url(#linear-gradient-33);}.cls-49{fill:url(#linear-gradient-34);}.cls-50{fill:url(#linear-gradient-35);}.cls-51{fill:url(#linear-gradient-36);}.cls-52,.cls-53,.cls-57{opacity:0.5;}.cls-54{fill:url(#linear-gradient-37);}.cls-55{fill:url(#linear-gradient-38);}.cls-56{fill:url(#linear-gradient-39);}.cls-58{fill:url(#linear-gradient-40);}</style><linearGradient id="linear-gradient" x1="458.32" y1="2943.58" x2="3281.08" y2="2943.58" gradientUnits="userSpaceOnUse"><stop offset="0" stop-color="#3c9116"/><stop offset="1" stop-color="#e7191f"/></linearGradient><linearGradient id="linear-gradient-2" x1="458.32" y1="2141.82" x2="2332.09" y2="2141.82" gradientUnits="userSpaceOnUse"><stop offset="0" stop-color="#3c4316"/><stop offset="1" stop-color="#e7191f"/></linearGradient><linearGradient id="linear-gradient-3" x1="535.28" y1="2129.51" x2="2268.73" y2="2129.51" gradientUnits="userSpaceOnUse"><stop offset="0" stop-color="#e7191f"/><stop offset="1" stop-color="#ffa073"/></linearGradient><linearGradient id="linear-gradient-4" x1="458.32" y1="2862.29" x2="3281.08" y2="2862.29" gradientUnits="userSpaceOnUse"><stop offset="0" stop-color="#e7191f"/><stop offset="1" stop-color="#26264f"/></linearGradient><linearGradient id="linear-gradient-5" x1="735.14" y1="2837.39" x2="2803.36" y2="2837.39" gradientUnits="userSpaceOnUse"><stop offset="0" stop-color="#ffa073"/><stop offset="1" stop-color="#e7191f"/></linearGradient><linearGradient id="linear-gradient-6" x1="641.79" y1="1681.93" x2="2783.5" y2="1681.93" gradientUnits="userSpaceOnUse"><stop offset="0" stop-color="#845300"/><stop offset="1" stop-color="#845333"/></linearGradient><linearGradient id="linear-gradient-7" x1="1903.98" y1="763.25" x2="1010.13" y2="2224.5" gradientUnits="userSpaceOnUse"><stop offset="0" stop-color="#845333"/><stop offset="1" stop-color="#c05633"/></linearGradient><linearGradient id="linear-gradient-8" x1="1298.73" y1="1117.72" x2="983.84" y2="3794.28" gradientUnits="userSpaceOnUse"><stop offset="0" stop-color="#845333"/><stop offset="1" stop-color="#ffc444"/></linearGradient><linearGradient id="linear-gradient-9" x1="1227.81" y1="1447.33" x2="1009.84" y2="3300.11" gradientUnits="userSpaceOnUse"><stop offset="0" stop-color="#7bdc34"/><stop offset="1" stop-color="#ffa073"/></linearGradient><linearGradient id="linear-gradient-10" x1="1355.52" y1="1533.27" x2="1134.45" y2="3412.33" gradientUnits="userSpaceOnUse"><stop offset="0" stop-color="#87dc34"/><stop offset="1" stop-color="#8ddcb1"/></linearGradient><linearGradient id="linear-gradient-11" x1="437.17" y1="792.25" x2="7.05" y2="1314.42" gradientTransform="translate(781.35 844.42) rotate(-19.24)" xlink:href="#linear-gradient-8"/><linearGradient id="linear-gradient-12" x1="3853.13" y1="1641.63" x2="3423.01" y2="2163.8" gradientTransform="matrix(0.8, 0.6, -0.6, 0.8, -532.78, -2146.36)" xlink:href="#linear-gradient-8"/><linearGradient id="linear-gradient-13" x1="6595.34" y1="-1978.62" x2="6165.22" y2="-1456.45" gradientTransform="translate(2505.18 -5302.47) rotate(114.13)" xlink:href="#linear-gradient-8"/><linearGradient id="linear-gradient-14" x1="3671.93" y1="1887.1" x2="4027.18" y2="1887.1" gradientTransform="matrix(-1, 0, 0, 1, 6348.52, 0)" xlink:href="#linear-gradient"/><linearGradient id="linear-gradient-15" x1="3671.93" y1="1887.07" x2="4002.69" y2="1887.07" gradientTransform="matrix(-1, 0, 0, 1, 6348.52, 0)" gradientUnits="userSpaceOnUse"><stop offset="0" stop-color="#aa80f9"/><stop offset="1" stop-color="#6165d7"/></linearGradient><clipPath id="clip-path"><path class="cls-1" d="M1968.32,2707.26l153.89-3.38,149.62,91.41c3.72,2.28,2.42,9-1.77,9.05l-137.89,3Z"/></clipPath><linearGradient id="linear-gradient-16" x1="3180.51" y1="2063.49" x2="3358.43" y2="2063.49" gradientTransform="matrix(-1, 0, 0, 1, 6348.52, 0)" gradientUnits="userSpaceOnUse"><stop offset="0" stop-color="#6b3976"/><stop offset="1" stop-color="#311944"/></linearGradient><linearGradient id="linear-gradient-17" x1="3366.23" y1="2072.84" x2="4133.48" y2="2388.35" gradientTransform="matrix(-1, 0, 0, 1, 6348.52, 0)" gradientUnits="userSpaceOnUse"><stop offset="0" stop-color="#ff9085"/><stop offset="1" stop-color="#fb6fbb"/></linearGradient><linearGradient id="linear-gradient-18" x1="899.98" y1="3863.22" x2="998.22" y2="3863.22" gradientTransform="matrix(0.99, 0.11, -0.11, 0.99, 1558.36, -1240.92)" gradientUnits="userSpaceOnUse"><stop offset="0" stop-color="#444b8c"/><stop offset="1" stop-color="#26264f"/></linearGradient><linearGradient id="linear-gradient-19" x1="-923.93" y1="2578.69" x2="-890.17" y2="2508.82" gradientTransform="matrix(1, 0.02, -0.02, 1, 3071.91, 156.77)" gradientUnits="userSpaceOnUse"><stop offset="0" stop-color="#ffc444"/><stop offset="1" stop-color="#f36f56"/></linearGradient><linearGradient id="linear-gradient-20" x1="184.23" y1="3214.83" x2="286.68" y2="3214.83" gradientTransform="translate(1815.52 -446.47) rotate(-1.88)" xlink:href="#linear-gradient-18"/><linearGradient id="linear-gradient-21" x1="-1301.78" y1="2267.33" x2="-1262.82" y2="2186.71" gradientTransform="translate(3261.07 380.39) rotate(-5.69)" xlink:href="#linear-gradient-19"/><linearGradient id="linear-gradient-22" x1="-2109.04" y1="2334.3" x2="-1768.86" y2="2814.83" gradientTransform="translate(4584.15)" gradientUnits="userSpaceOnUse"><stop offset="0" stop-color="#3c9a16"/><stop offset="1" stop-color="#e7191f"/></linearGradient><linearGradient id="linear-gradient-23" x1="2463.83" y1="1003.26" x2="2473.3" y2="750.92" gradientTransform="matrix(-0.92, 0.4, 0.4, 0.92, 4643.64, -184.89)" xlink:href="#linear-gradient-19"/><linearGradient id="linear-gradient-24" x1="463.76" y1="1952.44" x2="393.03" y2="1772.81" gradientTransform="translate(2406.47 -323.46) rotate(3.04)" gradientUnits="userSpaceOnUse"><stop offset="0" stop-color="#311944"/><stop offset="1" stop-color="#6b3976"/></linearGradient><linearGradient id="linear-gradient-25" x1="986.16" y1="1837.32" x2="983.21" y2="2075.3" gradientTransform="matrix(-0.99, -0.11, -0.11, 0.99, 3909.62, -192.69)" xlink:href="#linear-gradient-19"/><linearGradient id="linear-gradient-26" x1="3795.09" y1="2752.27" x2="4004.19" y2="2752.27" gradientTransform="matrix(-1, 0, 0, 1, 6348.52, 0)" xlink:href="#linear-gradient-22"/><linearGradient id="linear-gradient-27" x1="3828.12" y1="2748.56" x2="3952.46" y2="2748.56" gradientTransform="matrix(-1, 0, 0, 1, 6348.52, 0)" gradientUnits="userSpaceOnUse"><stop offset="0" stop-color="#c35633"/><stop offset="1" stop-color="#845333"/></linearGradient><linearGradient id="linear-gradient-28" x1="2108.36" y1="1735.1" x2="2014.47" y2="2716.06" gradientTransform="translate(644.24 -230.08) rotate(6.96)" xlink:href="#linear-gradient-18"/><linearGradient id="linear-gradient-29" x1="-1147.12" y1="-1157.73" x2="-1331.65" y2="-371.05" gradientTransform="translate(4529.34 244.16) rotate(6.96)" xlink:href="#linear-gradient-18"/><linearGradient id="linear-gradient-30" x1="3346.32" y1="1936.63" x2="3776.95" y2="1936.63" gradientTransform="matrix(-1, 0, 0, 1, 6348.52, 0)" xlink:href="#linear-gradient-22"/><linearGradient id="linear-gradient-31" x1="-3999.81" y1="1991.65" x2="-3895.44" y2="2629.93" gradientTransform="translate(6532.73)" xlink:href="#linear-gradient-19"/><linearGradient id="linear-gradient-32" x1="3098.53" y1="2532.67" x2="3757.84" y2="2532.67" xlink:href="#linear-gradient-27"/><linearGradient id="linear-gradient-33" x1="3159.28" y1="2528.62" x2="3660.8" y2="2528.62" xlink:href="#linear-gradient-27"/><linearGradient id="linear-gradient-34" x1="3115.68" y1="2528.9" x2="3717.9" y2="2528.9" gradientTransform="matrix(-1, 0, 0, 1, 6348.52, 0)" xlink:href="#linear-gradient-22"/><linearGradient id="linear-gradient-35" x1="3902.75" y1="2106.26" x2="4518.67" y2="1631.72" gradientTransform="matrix(-1, -0.07, -0.07, 1, 6513.64, 289.46)" xlink:href="#linear-gradient-19"/><linearGradient id="linear-gradient-36" x1="1609.13" y1="1169.83" x2="2166.36" y2="664.15" xlink:href="#linear-gradient"/><linearGradient id="linear-gradient-37" x1="2494.05" y1="1158.41" x2="3011.27" y2="689.05" xlink:href="#linear-gradient"/><linearGradient id="linear-gradient-38" x1="618" y1="1172.31" x2="1221.82" y2="624.36" xlink:href="#linear-gradient"/><linearGradient id="linear-gradient-39" x1="459.41" y1="2674.62" x2="1366.26" y2="2674.62" gradientUnits="userSpaceOnUse"><stop offset="0" stop-color="#88dc46"/><stop offset="1" stop-color="#e7191f"/></linearGradient><linearGradient id="linear-gradient-40" x1="1766.48" y1="1438.36" x2="2469.59" y2="1438.36" gradientTransform="translate(-1325.47 3886.23) rotate(-56.8)" gradientUnits="userSpaceOnUse"><stop offset="0" stop-color="#3c7516"/><stop offset="1" stop-color="#3c9116"/></linearGradient></defs><g class="cls-2"><g id="Illustration"><path class="cls-3" d="M3194.2,1614c-55.33-366.16-99.74-619.21-299.53-757.88-337-233.89-713.34,145.81-1190.7-109-235-125.44-243.85-270.88-442.9-290.19C908.9,422.8,620.49,847.75,595.5,884.2c-151.87,221.42-202.59,491.42-141,748.83,40,167.2,67,340.23,59.59,512-12.91,299-5.48,578.1,281.5,756.41,256.24,159.22,578.72,299.64,886.38,324.23,209.07,16.72,443.54-10.33,645-65.37C3354,2879.83,3270.27,2117.46,3194.2,1614Z"/><path class="cls-4" d="M3281.08,2841.77,458.32,2817.7v71.2c0,19.32,12.31,35.75,29,38.68l798.19,140.19a112.22,112.22,0,0,0,28.64,1.31L3250.4,2909.24c17.29-1.42,30.68-17.9,30.68-37.76Z"/><path class="cls-5" d="M2256.71,2727.68,487.51,2857.91c-31.66,2.33-57.4-22.43-57.4-55.31V1485.12c0-32.88,25.74-59.54,57.4-59.54h1769.2c26.08,0,47.17,24.1,47.17,53.83v1191C2303.88,2700.1,2282.79,2725.76,2256.71,2727.68Z"/><path class="cls-6" d="M2284.92,2727.68,515.72,2857.91c-31.66,2.33-57.4-22.43-57.4-55.31V1485.12c0-32.88,25.74-59.54,57.4-59.54h1769.2c26.08,0,47.17,24.1,47.17,53.83v1191C2332.09,2700.1,2311,2725.76,2284.92,2727.68Z"/><path class="cls-7" d="M2229.81,2643.71,582,2756.84c-25.76,1.77-46.7-18.56-46.7-45.4V1558c0-26.85,20.94-48.7,46.7-48.81l1647.83-7.11c21.51-.09,38.92,19.66,38.92,44.11V2596.77C2268.73,2621.22,2251.32,2642.23,2229.81,2643.71Z"/><path class="cls-8" d="M1462.81,1461.62c0,12.24-9.11,22.19-20.36,22.23s-20.39-9.88-20.39-22.15,9.14-22.23,20.39-22.23S1462.81,1449.38,1462.81,1461.62Z"/><path class="cls-9" d="M515.72,2857.91,2276,2728.34l9-.66c12-.88,22.85-6.8,31.16-15.77-126.67-6.94-205.34-51.89-256.1-98.34-101.92-93.27-84.24-185.26-194.15-246.59-137.09-76.49-244.88,20.44-348.91-75.2-63.06-58-32.1-101.21-109.7-187.86-86-96-141.91-63.7-228.29-150.07-109.22-109.21-54.6-194.18-148.68-272.59-114.13-95.12-237.22-7.08-345.87-98.3-46.86-39.34-72.57-96.54-86-157.38H515.72c-31.66,0-57.4,26.66-57.4,59.54V2802.6C458.32,2835.48,484.06,2860.24,515.72,2857.91Z"/><path class="cls-10" d="M2355.44,2720.45,458.32,2857.54l827.18,145.28a112.22,112.22,0,0,0,28.64,1.32l1966.94-162.37-895.47-120.39A147.77,147.77,0,0,0,2355.44,2720.45Z"/><polygon class="cls-11" points="735.14 2858.72 2314.55 2742.89 2803.36 2808.07 1237.56 2931.89 735.14 2858.72"/><path class="cls-12" d="M2783.5,1034V2315.81c0,34.38-22.49,36.92-51.2,38.35l-712.88,45.05L726.32,2480.9l-17.25,1.1c-37.11,1.88-67.31-28.45-67.28-67.72l.87-1353.64,0-110.68c0-39.24,30-69.74,67.14-68.11l2.42.11,481.26,20.85,1538.88,66.75C2761.05,970.79,2783.5,999.66,2783.5,1034Z"/><path class="cls-8" d="M2810.76,1136.65V2314.59c0,34.46-22.46,63.53-51.21,65l-736.3,37L735.72,2481.15a62.25,62.25,0,0,1-9.49-.25c-32.59-3.29-58-31.73-58-67.63L669,1067.6v-10.43l575,21.3,1538.64,57.12Z"/><path class="cls-13" d="M2810.76,1030.45v106.2l-28-.91-1538.62-49.58L669,1067.6v-10.43l.38-110.89c0-30,17.79-55,42.71-64.32a62.83,62.83,0,0,1,24.83-3.91l453.86,19.7,1568.83,68.14C2788.28,967.13,2810.76,996,2810.76,1030.45Z"/><path class="cls-8" d="M825.45,973.34c0,17.31-13.24,30.87-29.57,30.28s-29.63-15.16-29.62-32.54,13.31-30.93,29.66-30.28S825.46,956,825.45,973.34Z"/><polygon class="cls-14" points="2668.87 1619.28 854.9 1615.33 854.9 1223.2 2668.87 1270.44 2668.87 1619.28"/><polygon class="cls-14" points="1631.2 2309.74 854.9 2342.4 854.9 1770.55 1631.2 1764.88 1631.2 2309.74"/><polygon class="cls-14" points="2668.87 2266.09 1791.14 2302.98 1791.14 1763.73 2668.87 1757.37 2668.87 2266.09"/><path class="cls-15" d="M2023.62,2416.52,735.91,2481.15a62.28,62.28,0,0,1-9.59-.25l-17.25,1.1c-37.11,1.88-67.31-28.45-67.28-67.72l.87-1353.64,0-110.68c0-39.24,30-69.74,67.14-68.11l2.42.11a62.41,62.41,0,0,1,24.75-3.91l453.82,19.7c.94,1.67,1.82,3.35,2.69,5.06,24.22,45.94,44.87,104.49,50.8,175.66.2,2.55.4,5.1.53,7.69,5.19,76.72-6.79,167.73-49.41,273-117.73,291.13,13.22,580.4,191,695.39q8.24,5.34,16.61,10.13c54.66,31.52,113,46.59,169.54,40.36,102.84-11.34,206.41,12.4,289.44,68.8q15.93,10.83,30.81,23.24c58.77,49.1,104.09,116.82,126.67,202.08Q2021.72,2407.76,2023.62,2416.52Z"/><path class="cls-16" d="M1516.37,1582.9a17,17,0,0,0-16.86-3.06L1112,1721.06a17,17,0,0,0-5.06,29l65.3,54.39-.34.25c-2.19,1.71-4.35,3.52-6.46,5.37q-58.39,51.27-116.77,102.56-66.39,58.33-132.75,116.7a17,17,0,0,0,.31,25.77q111.54,93.65,222.27,186.58a17.48,17.48,0,0,0,1.88,1.35h0s24.84,22,49.68-10.47c-6.88-1.81-14.19-4-19.38-5.68q33.36-52.82,66.83-105.53,52.39-82.44,105.1-164.6c1.48-2.27,2.84-4.59,4.17-6.92l68.85,57.35a12.65,12.65,0,0,0,1.58,1.15,17,17,0,0,0,4.33,2c5.32,1.84,14.34,2.94,27.6-1.94,23.22-8.56,23.18-19,24.06-23.39.5-2.54-13.94-4.84-26.33-6.34L1522,1599.09A17,17,0,0,0,1516.37,1582.9Z"/><path class="cls-17" d="M1366.54,1779.37c-38.59-32.16-110.77-24.31-165.31,16.53-2.19,1.72-4.36,3.52-6.47,5.37q-58.4,51.27-116.77,102.56-66.39,58.34-132.74,116.7a17,17,0,0,0,.31,25.78l222.26,186.57a17,17,0,0,0,25.3-3.93q36.78-58.26,73.71-116.39,52.38-82.44,105.09-164.59c1.52-2.34,2.93-4.72,4.29-7.13C1408.1,1881.54,1405,1811.31,1366.54,1779.37Z"/><path class="cls-18" d="M1545.7,1574.1a17,17,0,0,0-16.87-3.06l-387.51,141.22a17,17,0,0,0-5,29L1445,1998.39a17,17,0,0,0,27.52-9.75l78.84-398.35A17,17,0,0,0,1545.7,1574.1Z"/><path class="cls-19" d="M1484.91,1439.19c8.4,48.64,9.82,89.15,3.48,91.48-6.42,2.12-30.52-30.48-54.19-73.78s-26.26-87.06-4.6-94.68S1476.52,1390.61,1484.91,1439.19Z"/><path class="cls-20" d="M1660,1484.59c-35.78,34-68.68,57.68-74.14,53.71-5.33-4.17,8.39-42.31,31.26-86s57.81-70.18,76.17-56.41S1695.71,1450.63,1660,1484.59Z"/><path class="cls-21" d="M1659.75,1671.83c-41.12-27.29-71.54-54.08-68.89-60.29,2.87-6.11,43.11-1.25,90.85,11.28s81.32,40.69,72,61.67S1700.83,1699.09,1659.75,1671.83Z"/><path class="cls-22" d="M2343.06,1978.35c10.5,17.56,27.53,39.52,49.15,40.23,42.14,1.39,74.72-78.82,85.79-106.08,48.21-118.68,22.48-211,72.82-255.56,28.88-25.54,61.62-29.67,61.62-29.67,2.27-.28,24.9-2.71,34.1,2,124.44,63.2-168,823.85-325.21,380.51C2347.57,1997.3,2337.93,1987.46,2343.06,1978.35Z"/><path class="cls-23" d="M2504.66,1987.46c3.33-36.65-13.33-76.63,0-109.94,10-23.33,46.64-36.65,53.3-70,6.38-51-17.7-98.92-8.15-149.64.34-.32.65-.66,1-1,28.88-25.54,61.62-29.67,61.62-29.67,2.27-.28,24.9-2.71,34.1,2,118.23,60-139.8,749.59-300.71,438.1,38-25.6,86.69-34.48,128.84-53.21C2484.67,2007.45,2501.33,2000.79,2504.66,1987.46Z"/><path class="cls-24" d="M2048.74,2712.47a15.07,15.07,0,0,1-14.07-20.35L2171.87,2328a107.53,107.53,0,0,1,111.22-69.06l150.67,15a15,15,0,1,1-3,29.92l-150.66-15a77.51,77.51,0,0,0-80.11,49.74l-137.2,364.15A15,15,0,0,1,2048.74,2712.47Z"/><g class="cls-2"><g class="cls-25"><path class="cls-24" d="M2286.06,2804l-148.26-90.58a60.11,60.11,0,0,0-32.82-9.15l-118.28,2.6c-4.53.1-5.85,8.06-1.76,10.56l131.63,80.42a60.14,60.14,0,0,0,32.83,9.15l136.66-3Z"/></g></g><path class="cls-26" d="M3005.14,2267a14.81,14.81,0,0,1-2.55-.22,15,15,0,0,1-12.29-17.35l55.9-327.28c5.05-29.53,16.12-50.25,31.19-58.36a30.09,30.09,0,0,1,26.91-1.11l54.72,24.06a15,15,0,1,1-12.11,27.53l-54.72-24.06c-2.87.48-11.8,10.4-16.35,37l-55.9,327.29A15,15,0,0,1,3005.14,2267Z"/><path class="cls-27" d="M2388.37,2410.91c108.48,33.07,248.39,30.63,341.45,36.34s102.59,2.84,154.34-32,67.53-67.92,83.21-129.59c33.61-132.25,51.17-282.73,71.52-420.54,3.16-21.39,89.54-32.74-1.24-36.14-13.29-.5-218.43,14.31-226,14.84-59.56,4.14-50.83,12.67-54.78,35-22.2,125.38-41.41,277.6-63.61,394.89-13.84,73.17-45.53,101.1-108.84,110.47-60.22,8.91-114.2-19.05-172.47-34.71-17.47-4.69-36.41,5.6-42.6,22.22S2363.32,2403,2388.37,2410.91Z"/><path class="cls-28" d="M2388.37,2410.91c108.48,33.07,282.34,46.49,375.4,52.19s75.84-5.81,127.59-40.68,60.33-75.12,76-136.79c33.61-132.25,51.17-282.73,71.52-420.54,3.16-21.39,89.54-32.74-1.24-36.14-13.29-.5-218.43,14.31-226,14.84-59.56,4.14-50.83,12.67-54.78,35-22.2,125.38-41.41,277.6-63.61,394.89-13.84,73.17-45.53,101.1-108.84,110.47-60.22,8.91-114.2-19.05-172.47-34.71-17.47-4.69-36.41,5.6-42.6,22.22S2363.32,2403,2388.37,2410.91Z"/><path class="cls-28" d="M2743,2456.8c18.7,2.32,43.77,6.32,63.26,6.3,50.31,0,91.44-12.35,131.08-47.87s67.21-68.41,81.08-130.3c29.76-132.73,52-285.47,70-422.55,3.21-24.4-8.9-33.29-27.46-34s-34,9.52-37.63,33.27c-20.47,133.48-39.42,290.21-69.87,417.18-19,79.21-69.62,111.67-138.86,118.93-20,2.1-45.52-6.77-64.95-5.69s-29.51,12.51-31.21,29.63S2724.34,2454.47,2743,2456.8Z"/><path class="cls-29" d="M2939,2377.45c43.62-18.45,53.68-68.78,60.39-112.4,8.39-60.39-18.45-120.79,3.36-177.83,6.71-18.45,30.2-33.55,35.23-52,12.67-63.37-19.55-157.45,22.34-206.88h.72c18.56.75,30.67,9.64,27.46,34-18,137.08-40.24,289.82-70,422.55-13.87,61.89-41.43,94.78-81.08,130.3s-80.77,47.83-131.08,47.87c-1.58,0-3.2,0-4.84-.08.54-.56,1.08-1.1,1.61-1.68C2841.66,2419.4,2887,2397.59,2939,2377.45Z"/><path class="cls-8" d="M2918.17,1635.88c-33.28-9.36-108.13-18.59-167.85-22-85.19-4.81-127.78-7.22-158,13.06-69.71,46.86-15.74,155-44.28,423-12.12,113.93-17.59,106.56,9.74,147.11,55.53,82.39,211.51,89.14,283,17.71,37.77-37.75,92.74,33.44,93.65-9.64C2938,2035.16,3023.9,1883.94,2918.17,1635.88Z"/><path class="cls-30" d="M2104.34,2701.37c6.39,8,7.32,17.66-1.63,23.7s-21.95-3-33.39-5.18c-12.26-2.35-29.65-1.9-42.25-8.55-5.09-2.68-16.51-6.11-14.59-14.55,1.34-5.93,18.67-4.94,24.26-5.45,7.93-.73,24.49-3.46,30.56-2.92C2082.55,2689.75,2095.89,2690.82,2104.34,2701.37Z"/><path class="cls-31" d="M2097.53,2661.54c-6.25,10.77-13.44,20.94-19.79,31.65,5.88,7.26,13.28,9.51,22.41,9.61,7.87-10.51,16.8-20.09,25.21-30.16C2116.06,2669,2106.76,2665.36,2097.53,2661.54Z"/><path class="cls-32" d="M2796.29,2282.89c65.95,112.93-27.58,41.36-107.75,36.62-84.44-5-297.8-18.26-369.62,79.07-53.49,72.49-44.86,187.81-130.91,256.1-15.15,12-38.69,26.06-55.33,33.13-18.62-9.06-33.2-23.71-53.53-29.1,8.37-128.13,28.55-208.74,98.89-325.18,17-28.15,90.11-106.83,129.23-127.62C2413,2149.72,2735.46,2178.75,2796.29,2282.89Z"/><path class="cls-33" d="M2203.12,2748.67c6.93,8.61,5.78,18.92-3.23,25.73s-23.47-.62-35.6-2c-13-1.51-30.75.87-44.23-5.11-5.45-2.41-16.95-5-14.88-13.91,1.45-6.28,19.56-6.76,25.56-7.92,8.52-1.63,26.53-5.83,32.92-6C2179.73,2739.15,2194,2737.31,2203.12,2748.67Z"/><path class="cls-34" d="M2201,2705.57c-7.49,13.1-16.14,25.45-23.59,38.57,6,7.4,14.22,8.7,23.32,7.94,9.7-12.53,19.94-24.64,29.51-37.27C2220.49,2711.84,2210.73,2708.84,2201,2705.57Z"/><path class="cls-35" d="M2893.47,2152c57.05,41.53,32.94,85.14,27.92,130.14-11.26,101-186.85,128.27-248.6,130.81-75.14,3.1-179.45-50.82-223.85-30.59-69,31.44-66.24,241.38-153.91,315.22-15.06,12.68-36.22,30.61-55.24,41.1-18.86-9.52-37.33-18.66-55.09-30.81,14.14-60.93,30.58-133.32,47.31-190.57,23.61-80.81,32.73-134.71,76.71-211.6,21.19-37,62.78-87.69,113.78-113.47,31.81-16.07,137-15.59,167.11-19.93C2657.48,2162.55,2854,2123.3,2893.47,2152Z"/><path class="cls-36" d="M2744,1520.84a294.12,294.12,0,0,0,5.27,59c3.05,15.72,5.25,19.78,8.06,23.07,4.22,5,10.63,9.12,46.82,18.09,19.69,4.88,22.22,4.75,22.66,6.71,2.12,9.53-51.58,42-107.06,34.19-33.95-4.79-64.84-24.16-62.94-34.34s35.82-4.74,45.93-23.26c7-12.88-.85-31.17-10.17-46.32C2701.55,1541.07,2734.93,1537.75,2744,1520.84Z"/><path class="cls-37" d="M2659.23,1510.71c2.55-7.66,9.08-8.19,11.45-17.46,2.77-10.8-4.6-16-2-22.37,4.59-11.41,34.19-10.63,52.41-7.62,20.24,3.34,42.59,7,54.13,26.1,11.18,18.48,9,46.08-3,53.63-6.55,4.12-12-.3-22.49,2.72-13.46,3.85-21.91,16-27.08,26.2a89.75,89.75,0,0,0-4.2-14.94c-4.11-10.84-5.69-16.43-9.44-17.79-7.36-2.67-12.8,11.57-23.63,11.6C2671,1550.82,2654.14,1526,2659.23,1510.71Z"/><path class="cls-38" d="M2741.5,1561.11s-15.39,22.66-43.66,19.42c-25.3-2.91-26.21-60-9.4-71.31,5.61-3.76,16.53-4.9,25.22-2,5.13,1.72,6.78,4,15.22,6.61,7.79,2.43,10.06,1.67,12.34,3.79,2.85,2.65,4.73,8.9-1.06,25.3,5.08-4.66,11-6.26,15-4.11a8.62,8.62,0,0,1,3.22,3.46C2761.62,1549,2755.27,1557,2741.5,1561.11Z"/><path class="cls-24" d="M2930.74,2660.82a14.93,14.93,0,0,1-1.88-.11l-602.79-75.26a15,15,0,1,1,3.73-29.84l602.78,75.26a15,15,0,0,1-1.84,30Z"/><path class="cls-24" d="M2244.82,2808.86a15,15,0,0,1-14.07-20.34L2384,2381.79a118.48,118.48,0,0,1,122.41-76l157.09,15.64a15,15,0,1,1-3,29.92l-157.08-15.64a88.33,88.33,0,0,0-91.3,56.69l-153.23,406.72A15,15,0,0,1,2244.82,2808.86Z"/><path class="cls-24" d="M2448.88,2814.89a15.42,15.42,0,0,1-4.16-.59,15,15,0,0,1-10.29-18.61l58.06-201.75a15,15,0,1,1,28.9,8.31L2463.33,2804A15.06,15.06,0,0,1,2448.88,2814.89Z"/><path class="cls-39" d="M2344.33,2752.27a104.55,104.55,0,1,1,104.55,104.55A104.67,104.67,0,0,1,2344.33,2752.27Zm60.91,0a43.64,43.64,0,1,0,43.64-43.63A43.68,43.68,0,0,0,2405.24,2752.27Z"/><circle class="cls-40" cx="2458.23" cy="2748.56" r="62.17"/><path class="cls-41" d="M2302.84,1857.87c76.82,1.65,157.32,4.37,234.57,6.88,6.48.21,9.08,2.07,11.13,8.19,33,98.47,62,201.14,92.64,300,3.25,10.47-1.61,16.16-12.09,15.7-73.9-3.23-151-4.33-225.29-5.6-6.25-.11-9-1.92-11-8.18-32.67-99.88-68-201.77-101.77-300.89C2287.45,1863.5,2291.87,1857.64,2302.84,1857.87Z"/><path class="cls-42" d="M2471.18,2112.82c-10.5-47.37,12.31-89.9-13.62-130.59-26.66-41.86-77-37.07-111.72-71.56-11.06-11-24.34-34.92-28.13-52.52-4.53.08-11.42-1.23-15.23-.5-8.38,1.61-15.31,5.64-11.68,16.15,34.34,99.55,69.12,201,102,301.09,2.06,6.28,4.75,7.85,10.95,8,37.42,1.16,76.57,1,114.18,1.59C2497,2168.19,2476.19,2135.41,2471.18,2112.82Z"/><path class="cls-43" d="M2903.61,2231.86c43.83-23.4,35.52-91.25,73.38-222.86,15.28-53.13,23.72-93.12,25.06-142.06.7-25.62-1.2-50.22-4.93-77.78-1.76-13-18.36-126.84-78.95-153.28a94.11,94.11,0,0,0-34-7.28c-33.09.18-57.08,21.32-69,31.82s-19.22,19.78-32.41,39.41c-11.93,17.76-26.77,38.25-33.74,72.2-11.38,55.41,5.78,125.45,13,187.82,3.31,28.41,32.79,100.71,14.5,129.23-16.13,25.15-145.45-47.58-168.21-61.06-6.13.32-17.13,1.88-26.05,9.84a42.2,42.2,0,0,0-9.82,14.29c-10.17,25.47,66.06,167.61,203.2,187.74C2802.45,2243.82,2867.11,2251.35,2903.61,2231.86Z"/><path class="cls-44" d="M2596.79,2041.59c-28.12-29-66.12-71-106.71-77s12.35,76.57,23.76,83.24,28.8,12.37,38,12.46,4.57-.46,11.18-.37c4.26,2.81,9.54,5.49,14.21,8.29C2590.49,2063.49,2597.66,2056.93,2596.79,2041.59Z"/><path class="cls-45" d="M2686.18,2796.2c-61.59-70.54-95.51-164.13-95.51-263.53s33.92-193,95.51-263.54c62.35-71.41,145.51-110.74,234.15-110.74s171.79,39.33,234.14,110.74c61.59,70.55,95.51,164.14,95.51,263.54s-33.92,193-95.51,263.53c-62.35,71.41-145.5,110.74-234.14,110.74S2748.53,2867.61,2686.18,2796.2ZM2636,2532.67c0,181.4,127.56,329,284.36,329s284.36-147.58,284.36-329-127.57-329-284.36-329S2636,2351.27,2636,2532.67Z"/><path class="cls-46" d="M3075.45,2743.05l-.83,0-102.51-8.51c-15.68-1.3-28.88-8.22-38.17-20-11.16-14.17-15.44-34.1-12-56.12L2972.66,2329a10,10,0,0,1,19.7,3l-50.77,329.38c-2.54,16.51.3,31,8,40.75,5.78,7.33,14.14,11.65,24.16,12.48l102.52,8.51a10,10,0,0,1-.82,19.89Z"/><ellipse class="cls-47" cx="2938.48" cy="2528.62" rx="250.76" ry="294.28"/><ellipse class="cls-48" cx="2955.61" cy="2523.28" rx="37.88" ry="50.19"/><path class="cls-49" d="M2717.42,2768c-56-64.07-86.81-149-86.81-239.11s30.83-175.05,86.81-239.11c57-65.22,133.1-101.14,214.3-101.14S3089,2224.57,3146,2289.79c56,64.06,86.8,149,86.8,239.11S3202,2703.94,3146,2768c-57,65.21-133.1,101.13-214.31,101.13S2774.41,2833.22,2717.42,2768Zm-30-243.32c0,159,111.25,288.31,248,288.31s248-129.34,248-288.31-111.26-288.31-248-288.31S2687.44,2365.71,2687.44,2524.69Z"/><path class="cls-50" d="M2348.82,2043.61c8.17-.82,14-18.93,14.67-32.33,2.21-44.54-50.47-82.17-59.29-76.14-3.23,2.21.17,13,7,34.59C2319.26,1995.41,2334.88,2045,2348.82,2043.61Z"/><path class="cls-5" d="M1479.28,997.62c0-175.48,158.59-313.93,345.45-309.44,177.82,4.27,315.78,137.62,315.78,298s-138,298.53-315.78,308.93C1637.87,1306.07,1479.28,1173.1,1479.28,997.62Z"/><path class="cls-51" d="M1500,983.79c0-175.29,153.71-313.59,334.91-309.1,172.53,4.27,306.46,137.62,306.46,298s-133.93,298.38-306.46,308.61C1653.66,1292.06,1500,1159.08,1500,983.79Z"/><g class="cls-52"><path class="cls-8" d="M1552.85,982.87c0-146.86,128.59-263.06,280.62-259.7,145.19,3.22,258.19,115.27,258.19,250.4s-113,251.08-258.19,259.31C1681.44,1241.5,1552.85,1129.73,1552.85,982.87Z"/></g><path class="cls-53" d="M1823.08,745.19c145.35,3,258.48,115,258.48,250.23a244.26,244.26,0,0,1-18,91.84,245.57,245.57,0,0,0,28.14-113.69c0-135.13-113-247.18-258.19-250.4-117-2.59-220.16,65.75-261.49,164.66C1618.77,801,1715,742.93,1823.08,745.19Z"/><path class="cls-8" d="M1862.06,985.31c0,24.71-20.5,44.61-45.89,44.46s-46.11-20.36-46.11-45.19,20.66-44.72,46.11-44.46S1862.06,960.61,1862.06,985.31Z"/><path class="cls-8" d="M1816.17,886.43c-81.63-1.09-153.93,37.57-195.27,97,41.34,60.05,113.64,99.86,195.27,100.08,80.93.22,151.44-38.56,191.27-97C1967.61,927.4,1897.1,887.5,1816.17,886.43Zm0,177.12c-44.65-.17-81-35.65-81-79.25s36.35-78.49,81-77.95c44.45.54,80.32,36,80.32,79.24S1860.62,1063.71,1816.17,1063.55Z"/><path class="cls-8" d="M1862.06,985.31c0,24.71-20.5,44.61-45.89,44.46s-46.11-20.36-46.11-45.19,20.66-44.72,46.11-44.46S1862.06,960.61,1862.06,985.31Z"/><path class="cls-5" d="M2380.11,999.08c0-167.16,144-299.17,313.73-295,161.71,3.92,287.27,131.05,287.27,284.11s-125.56,284.75-287.27,294.56C2524.08,1293,2380.11,1166.24,2380.11,999.08Z"/><path class="cls-54" d="M2398.87,985.9c0-167,139.54-298.86,304.18-294.73,156.9,3.92,278.79,131.05,278.79,284.1S2860,1259.89,2703.05,1269.54C2538.41,1279.67,2398.87,1152.89,2398.87,985.9Z"/><g class="cls-52"><path class="cls-8" d="M2446.89,985c0-139.92,116.76-250.73,254.89-247.63,132,3,234.86,109.77,234.86,238.69s-102.83,239.49-234.86,247.27C2563.65,1231.5,2446.89,1125,2446.89,985Z"/></g><path class="cls-53" d="M2692.34,758.4c132.17,2.8,235.1,109.55,235.1,238.54a242.73,242.73,0,0,1-16.42,87.61,243.24,243.24,0,0,0,25.62-108.46c0-128.91-102.83-235.73-234.86-238.7-106.35-2.38-200,62.81-237.53,157.08C2506.73,811.75,2594.14,756.31,2692.34,758.4Z"/><path class="cls-8" d="M2857.92,1022.64a9.58,9.58,0,0,1-9.49,9.73l-44.44-.25a9.76,9.76,0,0,1-9.55-9.88h0a9.62,9.62,0,0,1,9.55-9.77l44.44.31a9.73,9.73,0,0,1,9.49,9.86Z"/><path class="cls-8" d="M2832.7,958.23c2.29,4.63-.06,10.56-5.25,13.24l-19.29,10c-5.2,2.69-11.28,1.11-13.58-3.53l-.1-.21c-2.3-4.64-.3-11.32,4.91-14l19.3-10c5.19-2.68,11.62-.36,13.91,4.27Z"/><path class="cls-8" d="M2826.36,1089.4c2.28-4.61-.07-10.57-5.26-13.32l-19.3-10.22c-5.21-2.76-11.29-1.26-13.59,3.36l-.1.21c-2.3,4.61-.31,11.32,4.91,14.07l19.32,10.21c5.19,2.75,11.62.5,13.91-4.1Z"/><path class="cls-8" d="M2685.68,818.29c-51.07-.91-93,39.69-95.75,90.58l-.17.36,0,1.43.07,1.06c0,1-.08,2.14-.08,3.2a99.88,99.88,0,0,0,1.47,17l-.15,1.55L2601.27,1080v.07a83.2,83.2,0,0,0,1.3,12.24A80.85,80.85,0,0,0,2606,1106c8.89,27.81,31.66,47.54,58.21,47.51a54.39,54.39,0,0,0,36.75-14.54c10.54-9.71,19.07-22.11,22.27-36.37a86,86,0,0,0,2-17.88,76.28,76.28,0,0,1,1.35-13.34c3.7-20,14.26-38.83,21.82-57.14,12.85-31.1,32.15-62,32.15-96.94C2780.54,863.75,2738.2,819.22,2685.68,818.29Zm39.55,120.41a8.86,8.86,0,0,1-10.42-6.91c-.34-1.57-8.9-38.44-43.62-38.91-18-.25-26.15,12.41-29.42,20-7,16.11-4.58,36.8,5.54,48.1,1.69,1.89,3.56,3.93,5.56,6.1,19,20.7,47.65,51.89,44.92,84.69-1.32,15.81-9.81,29.8-25.23,41.58a8.68,8.68,0,0,1-12.33-1.83,9.08,9.08,0,0,1,1.76-12.58c11.42-8.71,17.4-18.12,18.29-28.78,2.07-24.81-23.36-52.48-40.24-70.83-2.05-2.23-4-4.32-5.72-6.26-14.85-16.56-18.53-45-8.75-67.62,8.53-19.71,25.17-30.83,45.62-30.53,39.16.57,56.83,35.06,60.71,53.21A8.85,8.85,0,0,1,2725.23,938.7Z"/><path class="cls-5" d="M469.27,984.85c0-184.81,175.83-330.36,382.79-325.33,196.76,4.77,349.28,145.18,349.28,313.81s-152.52,313.83-349.28,324.81C645.1,1309.68,469.27,1169.66,469.27,984.85Z"/><path class="cls-55" d="M492.19,970.3c0-184.6,170.4-330,371.08-325,190.9,4.77,339,145.18,339,313.8s-148.06,313.68-339,324.45C662.59,1294.93,492.19,1154.9,492.19,970.3Z"/><g class="cls-52"><path class="cls-8" d="M550.85,969.38c0-154.64,142.52-276.8,310.88-273C1022.39,700,1147.34,817.93,1147.34,960s-124.95,264-285.61,272.63C693.37,1241.7,550.85,1124,550.85,969.38Z"/></g><path class="cls-53" d="M850.23,719.5c160.85,3.42,286,121.31,286,263.47a245.79,245.79,0,0,1-20,96.55c19.89-36.32,31.11-76.94,31.11-119.52,0-142.07-124.95-260-285.61-263.65-129.59-2.9-243.86,68.88-289.67,173C623.93,778,730.56,717,850.23,719.5Z"/><path class="cls-8" d="M886.48,877.45a235.5,235.5,0,0,0-44-55.75,21.12,21.12,0,0,1-1.1-30.24l1-1c9.21-9.75,25.46-9.86,35.39-.43a281.39,281.39,0,0,1,49.43,61.77Z"/><path class="cls-8" d="M906.22,1147.6c-8.34,10.48-24.43,12.31-35.1,3.8l-1-.83c-9.47-7.58-11.16-20.68-3.72-30,34.06-42.49,52.41-96,47.89-152.95,0-.62-.11-1.23-.19-1.85L959.42,937a247.16,247.16,0,0,1,3.72,27.69C968.57,1032.71,946.74,1096.7,906.22,1147.6Z"/><path class="cls-8" d="M818.81,920.06a155.76,155.76,0,0,0-30-41.85c-8.57-8.56-9.12-21.54-.91-30.17l.15-.18c9.35-9.84,26-10.1,35.79-.35a204.07,204.07,0,0,1,35.35,47.11Z"/><path class="cls-8" d="M882.07,986.08c-.39,41-14.39,79.38-38.29,111.18-8.11,10.82-24.7,12.58-35.47,3.94l-.2-.14a21.32,21.32,0,0,1-3.86-29.93,148.29,148.29,0,0,0,24.9-51.46Z"/><path class="cls-8" d="M790.07,938.14l-42.84,27a74.46,74.46,0,0,0-14.75-28.69c-7.58-9.21-7.58-21.86.56-30.46l.08-.11c10-10.54,28-10,37.49,1.13A123.1,123.1,0,0,1,790.07,938.14Z"/><path class="cls-8" d="M1033.84,851.09l-13.89-19a11.49,11.49,0,0,0-15.18-2.82l-356.41,224.8a9.84,9.84,0,0,0-2.86,14.44l14.43,19.16a12,12,0,0,0,15.72,2.66l355.43-225.15A9.71,9.71,0,0,0,1033.84,851.09Z"/><path class="cls-56" d="M1038.91,3165.55c54.61-7,124-25.58,189.21-72.81,70.55-51.11,160.72-153.51,133-214-10.35-22.58-37.91-41-61.21-38-34.43,4.43-36.15,52.63-93.66,107.73-10.63,10.18-65.58,62.82-94.9,47.38-14.57-7.68-19.88-30.64-18.41-48.36,4.29-51.81,66.77-62.73,124.53-121.37,58.56-59.45,104.91-160.47,72.52-225.72-18.61-37.49-64.44-65.61-93.21-55.71-12.29,4.23-19.7,14.8-53.63,98.39-27.85,68.6-33.82,88.5-53.55,95.83-20.3,7.53-52.75.85-65.9-18.88-34.27-51.37,99.12-136.05,104.47-284.7,2.4-66.61-20.26-164.07-81.35-182.27-41.3-12.3-98.12,12.24-117.25,50.5-17.25,34.49,6.87,58.67-3.89,134.81-3.27,23.11-10,70.66-28.83,74-22.12,4-49.9-54.92-56.36-69.27-48.61-108.08-1.64-167.11-45.06-218.62-33.86-40.17-104-53.6-157.89-29.9-47.17,20.73-83.31,70.5-83.5,120.3-.19,50.66,44.73,98.93,134.56,195.47,42.6,45.78,76.22,76.48,76.67,124,.22,23.16-7.38,56.12-23.8,59.89-36.23,8.3-61.28-138-149-156.58-44.89-9.5-98.89,16-121.19,57.13-27.31,50.39-4.11,118.84,34.91,153.55,50.9,45.28,99,6.7,193,53.46,41.68,20.74,107.77,65.95,100.35,106.31-3.23,17.57-20.63,35.46-40.51,38.69-44.57,7.24-62.89-65.49-136.47-94.31-53-20.77-124.67-14.81-140.31,15.27-22.08,42.48,67.89,132.19,115.32,171.47C654.9,3086.74,789,3175.56,1038.91,3165.55Z"/><g class="cls-57"><path class="cls-8" d="M1015.91,3143.22c1.36-123.61-92.2-370.55-157.2-486.24C795.36,2544.25,731.26,2364,730.62,2362.23l-8.75,3.1c.64,1.81,65,182.76,128.75,296.19,64.51,114.81,157.36,359.5,156,481.6Z"/></g><path class="cls-58" d="M1168.89,3175.37c38.52-59.29,94.12-165.6,98.34-304.46,1.74-57.22,5.14-169-67.58-261.74-36.24-46.24-111.63-113.58-159.29-90.83-30.67,14.64-47.7,65.55-37,103.14,10.75,37.89,43.31,39.89,81.7,103.23,14.2,23.44,30.47,51,19.78,67.48-8.93,13.79-35.09,17.48-55.18,10.43-41.5-14.56-31.21-65.85-77-100.09-32.53-24.35-85.28-34-106.78-11.75-18.66,19.32-13.19,62.1,5.45,89.9,29.85,44.51,78.8,28.69,113.53,77.25,15.41,21.54,27.21,54.63,15.3,68.51-13.58,15.82-56.3,4.75-84.08-10.68-36.68-20.37-39.12-43.8-62.72-45.62-26.32-2-57.84,24.46-61.63,52.27-5.31,39,44,78.32,82.43,94.61,49.13,20.86,84.16,5.56,109.13,36.07,9.16,11.2,18,29.78,11.45,41.62-9.29,16.9-45.94,13.22-70.28,10.79-59.24-5.94-76.45-26.49-97-15.12-20.83,11.52-30.14,47.48-19.72,71.9,5.79,13.57,22.22,34.23,99.2,44C960.79,3213.07,1050.87,3215.36,1168.89,3175.37Z"/></g></g></svg>