<svg xmlns="http://www.w3.org/2000/svg" viewBox="0 0 3410.75 3295.04"><defs><style>.cls-1{fill:none;stroke:#383838;stroke-linecap:round;stroke-linejoin:round;stroke-width:79.94px;}.cls-2{fill:#ffa073;fill-rule:evenodd;}</style></defs><g id="Layer_2" data-name="Layer 2"><g id="Layer_1-2" data-name="Layer 1"><path class="cls-1" d="M2378.2,1135.61l927.19,25.15a74.11,74.11,0,0,1,57.08,107.67L3134.81,2310.17c-30.5,74.6-80.33,135.12-142.73,177-62.67,42.07-137.46,65.36-217.61,65.36H1617.75c-79.35,0-153.38-22.72-215.63-63.93-61.95-41-111.72-100.38-142.87-173.83L788.74,1205.71a73.86,73.86,0,0,1,76.75-102v-.22l981.43,27m264.46,1000.76-12.66-619.91m-435.54,633-147-602.36m1030.71,602.36,147-602.36m138.32,1252.12H1621.47c-43.8,0-100.33-18.35-143.18-57.72-34.1-31.32-60.3-75.6-66.18-134l-11.53-114M40,920.24l302.73,0a476.16,476.16,0,0,1,106.41,6.7,423,423,0,0,1,92.53,27.51h.29c157.43,67.62,225.75,218,265.21,294.69"/><path class="cls-2" d="M2668.08,2891.51a201.27,201.27,0,0,1,142.39,59.1l.4.41a201.06,201.06,0,0,1-.15,284.61l-.25.25a201.07,201.07,0,0,1-284.77,0l-.25-.25a201.07,201.07,0,0,1,0-284.77l.25-.25a200.84,200.84,0,0,1,142.38-59.1ZM2409.26,714.17a24.25,24.25,0,0,0-20.54-37.11H2251.1a24.29,24.29,0,0,1-24.24-24.23V35.23A35.32,35.32,0,0,0,2191.62,0H1962.07a35.3,35.3,0,0,0-35.22,35.23v617.6a24.28,24.28,0,0,1-24.22,24.23H1765a24.25,24.25,0,0,0-20.55,37.11l311.86,361.62a24.24,24.24,0,0,0,41.1,0l311.85-361.62ZM1739.39,2891.45a201.22,201.22,0,0,1,142.42,59.12l.4.41a201.13,201.13,0,0,1-.13,284.69l-.26.26a201.15,201.15,0,0,1-284.86,0l-.25-.26a201.14,201.14,0,0,1,0-284.85l.25-.26a201,201,0,0,1,142.43-59.11Z"/></g></g></svg>