<svg xmlns="http://www.w3.org/2000/svg" viewBox="0 0 461.93 420.43"><defs><style>.cls-1,.cls-5{fill:#92e3a9;}.cls-11,.cls-2,.cls-3{fill:#fff;}.cls-2{opacity:0.7;}.cls-10,.cls-11,.cls-12,.cls-3,.cls-5,.cls-6,.cls-7,.cls-8,.cls-9{stroke:#263238;}.cls-11,.cls-12,.cls-3{stroke-linecap:round;stroke-linejoin:round;}.cls-12,.cls-4,.cls-7{fill:#263238;}.cls-10,.cls-5,.cls-6,.cls-7,.cls-8,.cls-9{stroke-miterlimit:10;}.cls-6{fill:#ccc;}.cls-8{fill:#bdbdbd;}.cls-9{fill:none;}.cls-10{fill:#d6d6d6;}.cls-11{stroke-width:0.75px;}</style></defs><g id="Background_Simple" data-name="Background Simple"><path class="cls-1" d="M311.74,39.89s-78.57-24.38-150,23.1S59.6,199.85,32.76,271.53,30.35,413.85,90.18,443.91s94.87-19.69,174.94-25.57S367.71,423.23,430.59,374,496.72,214.69,437.68,136,311.74,39.89,311.74,39.89Z" transform="translate(-20.43 -33.63)"/><path class="cls-2" d="M311.74,39.89s-78.57-24.38-150,23.1S59.6,199.85,32.76,271.53,30.35,413.85,90.18,443.91s94.87-19.69,174.94-25.57S367.71,423.23,430.59,374,496.72,214.69,437.68,136,311.74,39.89,311.74,39.89Z" transform="translate(-20.43 -33.63)"/></g><g id="Cereal"><rect class="cls-3" x="157.31" y="114.3" width="110.27" height="161.87" transform="translate(-48.33 1.98) rotate(-8.99)"/><rect class="cls-3" x="169.85" y="112.32" width="110.27" height="161.87" transform="translate(-47.87 3.91) rotate(-8.99)"/><polygon class="cls-1" points="199.53 116.7 194.03 120.65 198.43 125.79 191.91 127.61 194.28 133.95 187.53 133.44 187.6 140.2 181.44 137.41 179.18 143.79 174.34 139.06 170.04 144.28 167.11 138.18 161.29 141.62 160.62 134.89 153.97 136.12 155.65 129.57 148.97 128.46 152.79 122.87 146.9 119.54 152.4 115.6 148 110.46 154.52 108.63 152.14 102.3 158.89 102.81 158.83 96.05 164.99 98.84 167.25 92.46 172.09 97.19 176.39 91.96 179.31 98.06 185.14 94.63 185.81 101.36 192.46 100.12 190.78 106.68 197.46 107.79 193.63 113.38 199.53 116.7"/><path class="cls-4" d="M187.87,211.05a8.3,8.3,0,0,1-4.51,0,5.38,5.38,0,0,1-2.87-2.21,12.51,12.51,0,0,1-1.65-4l-2.05-8.53a12.48,12.48,0,0,1-.37-4.38,5.31,5.31,0,0,1,1.56-3.27,8.42,8.42,0,0,1,4-2,8.63,8.63,0,0,1,4.34-.13,5,5,0,0,1,2.67,1.91,9.92,9.92,0,0,1,1.48,3.42l.49,2-5.14,1.24-.57-2.37a12.21,12.21,0,0,0-.39-1.33,2.08,2.08,0,0,0-.68-1,1.55,1.55,0,0,0-1.31-.14,1.61,1.61,0,0,0-1.11.74,2.11,2.11,0,0,0-.24,1.21,10.73,10.73,0,0,0,.23,1.42l2.68,11.13a8,8,0,0,0,.48,1.41,2.14,2.14,0,0,0,.78.93,1.6,1.6,0,0,0,1.26.11,1.49,1.49,0,0,0,1.07-.7,2.21,2.21,0,0,0,.18-1.2A9.8,9.8,0,0,0,188,204l-.59-2.48,5.13-1.24.49,2.05a10.18,10.18,0,0,1,.27,3.75,5.1,5.1,0,0,1-1.48,3A8.12,8.12,0,0,1,187.87,211.05Z" transform="translate(-20.43 -33.63)"/><path class="cls-4" d="M200,203l-6.46-23.47,10.59-2.92,1,3.54-5.39,1.48,1.61,5.82,4.1-1.13,1,3.6L202.28,191l1.93,7,5.45-1.5,1,3.51Z" transform="translate(-20.43 -33.63)"/><path class="cls-4" d="M213.94,204.07l-3.81-24,6.65-1.05a14.89,14.89,0,0,1,4.32-.13,5.17,5.17,0,0,1,3.09,1.47,6.63,6.63,0,0,1,1.61,3.75,12.87,12.87,0,0,1,.18,2.68,4.58,4.58,0,0,1-2.17,3.84L229,201.69l-5.51.88-4.36-10.36-1.52.24,1.7,10.78Zm3.14-14.68,1.49-.23a3.35,3.35,0,0,0,1.7-.68,2.22,2.22,0,0,0,.7-1.3,6.27,6.27,0,0,0,0-1.87,4.37,4.37,0,0,0-1-2.31,2.35,2.35,0,0,0-2.22-.53l-1.73.27Z" transform="translate(-20.43 -33.63)"/><path class="cls-4" d="M229.24,195.14l-3.81-24,10.86-1.72.57,3.62-5.52.87.95,6,4.2-.67.58,3.69-4.2.66L234,190.7l5.57-.88.57,3.59Z" transform="translate(-20.43 -33.63)"/><path class="cls-4" d="M241.84,198.88l.76-24.77,6.08-1L257,196.48l-4.92.78-1.61-4.95-3.55.57,0,5.2Zm5-9.26,2.57-.4L246.68,180Z" transform="translate(-20.43 -33.63)"/><path class="cls-4" d="M259.5,194.53l.34-24.34,5.4.08L265,191l5.62.08-.05,3.64Z" transform="translate(-20.43 -33.63)"/><path class="cls-5" d="M187.79,229.65c4.94,20,25.38,33.11,47.24,29.65s37.26-22.24,35.78-42.79Z" transform="translate(-20.43 -33.63)"/><ellipse class="cls-5" cx="228.9" cy="220.53" rx="42.42" ry="22.64" transform="translate(-52.09 4.86) rotate(-8.99)"/><path class="cls-3" d="M227.27,206.57c-19.8,3.14-34.34,15.31-32.45,27.19a13.56,13.56,0,0,0,1.91,5.09c8.5,4.52,21.58,6.29,35.71,4.05,15.16-2.4,27.77-8.8,34.1-16.41a13.29,13.29,0,0,0,0-4.08C264.65,210.53,247.07,203.44,227.27,206.57Z" transform="translate(-20.43 -33.63)"/></g><g id="Bread"><path class="cls-3" d="M396.59,41.72c-2-4.39-5.43-7.37-10.92-7.32-11.73.1-16.2,15.31-18.8,24.34-15.29,53.05-23.76,108.13-32,162.85-1.58,10.48-3.63,20.89-5.12,31.38-1.33,9.32-3.76,20.64-1.13,29.88,1.91,6.72,10,12.47,17.07,10.08,7.35-2.49,8.63-12.77,10.64-19.16,8.9-28.3,15.32-57.27,21.42-86.28,6.15-29.29,12.17-58.63,17-88.18q.68-4.05,1.32-8.12C398.52,76,403.39,56.37,396.59,41.72Z" transform="translate(-20.43 -33.63)"/><path class="cls-3" d="M396.22,62.34a2.71,2.71,0,0,0-3.76-3.88c-3.54,3-8.47,7.23-13.78,12.16-10.37,9.64-14.82,15.94-17,21.12s-4.1,9.35-1.87,8.94,6.31-8.94,12.24-15.6,20-18.16,24.08-22.61Z" transform="translate(-20.43 -33.63)"/><path class="cls-3" d="M390.66,97.17a2.71,2.71,0,0,0-3.76-3.88c-3.54,3-8.46,7.23-13.78,12.16-10.37,9.64-14.82,15.94-17,21.12s-4.1,9.35-1.87,8.94,6.31-8.94,12.24-15.61,20-18.15,24.09-22.6Z" transform="translate(-20.43 -33.63)"/><path class="cls-3" d="M383.62,136.82a2.71,2.71,0,0,0-3.76-3.88c-3.54,3-8.46,7.23-13.78,12.16-10.37,9.63-14.82,15.93-17,21.12s-4.1,9.34-1.87,8.93,6.31-8.93,12.24-15.6,20-18.15,24.09-22.6Z" transform="translate(-20.43 -33.63)"/><path class="cls-3" d="M375.84,177.57a2.71,2.71,0,0,0-3.76-3.88c-3.54,3-8.46,7.23-13.78,12.17-10.37,9.63-14.82,15.93-17,21.12s-4.1,9.34-1.87,8.93,6.31-8.93,12.24-15.6,20-18.16,24.09-22.6Z" transform="translate(-20.43 -33.63)"/><path class="cls-3" d="M369.17,218a2.71,2.71,0,0,0-3.76-3.88c-3.54,3-8.46,7.23-13.78,12.16-10.37,9.64-14.82,15.94-17,21.12s-4.1,9.35-1.87,8.94S339,247.36,345,240.7s20-18.16,24.09-22.61Z" transform="translate(-20.43 -33.63)"/><path class="cls-3" d="M349.41,40.61c-3-3.81-7-5.93-12.32-4.63-11.38,2.8-12.24,18.62-12.7,28-2.68,55.14,1.72,110.69,6.28,165.84.87,10.56,1.27,21.16,2.23,31.72.85,9.37,1.08,20.95,5.77,29.33,3.4,6.11,12.58,9.85,18.93,5.89,6.57-4.11,5.46-14.41,5.95-21.08,2.16-29.6,1.75-59.26,1-88.9-.74-29.92-1.62-59.86-3.67-89.74-.19-2.73-.38-5.46-.59-8.2C359.16,73.51,359.4,53.29,349.41,40.61Z" transform="translate(-20.43 -33.63)"/><path class="cls-3" d="M353.78,60.76a2.71,2.71,0,0,0-4.54-2.92c-2.77,3.71-6.58,9-10.62,15-7.88,11.76-10.76,18.91-11.74,24.47s-1.84,10,.24,9.12,4.09-10.14,8.33-18,15.3-22.26,18.25-27.53A1.09,1.09,0,0,1,353.78,60.76Z" transform="translate(-20.43 -33.63)"/><path class="cls-3" d="M356.38,95.93A2.71,2.71,0,0,0,351.83,93c-2.76,3.71-6.58,9-10.62,15-7.88,11.76-10.76,18.91-11.73,24.47s-1.85,10,.23,9.13,4.09-10.15,8.33-18,15.3-22.27,18.25-27.53Z" transform="translate(-20.43 -33.63)"/><path class="cls-3" d="M358.63,136.13a2.71,2.71,0,0,0-4.55-2.91c-2.76,3.71-6.57,9-10.61,15-7.88,11.75-10.77,18.91-11.74,24.47s-1.84,10,.24,9.12,4.09-10.15,8.33-18,15.3-22.27,18.25-27.53C358.57,136.24,358.6,136.19,358.63,136.13Z" transform="translate(-20.43 -33.63)"/><path class="cls-3" d="M360.42,177.59a2.7,2.7,0,0,0-4.54-2.91c-2.77,3.71-6.58,9-10.62,15-7.88,11.76-10.76,18.91-11.74,24.47s-1.84,10,.24,9.12,4.09-10.14,8.33-18,15.3-22.27,18.25-27.53Z" transform="translate(-20.43 -33.63)"/><path class="cls-3" d="M363.21,218.43a2.71,2.71,0,0,0-4.55-2.91c-2.76,3.71-6.57,9-10.61,15-7.89,11.76-10.77,18.91-11.74,24.47s-1.84,10,.24,9.12,4.09-10.14,8.33-18,15.3-22.27,18.24-27.53Z" transform="translate(-20.43 -33.63)"/><polygon class="cls-6" points="381.96 81.68 377.05 79.12 376.76 79.1 371.56 81.06 366.5 78.42 361.16 80.43 356.11 77.79 350.77 79.81 345.71 77.17 340.38 79.18 335.32 76.55 329.98 78.56 324.93 75.92 319.59 77.93 314.53 75.3 309.19 77.31 304.14 74.67 298.8 76.69 293.74 74.05 288.41 76.06 283.35 73.42 278.02 75.44 272.96 72.8 267.63 74.81 262.57 72.18 257.24 74.19 254.91 72.98 243.46 261.04 346.25 269.66 386.08 80.13 381.96 81.68"/></g><g id="Fruits"><path class="cls-7" d="M119.54,114.6l-.91-14.78,7.24,14.78s2.72-8.45,3.92-11.77,2.42-6,2.42-6l3.62,17.5L144,101.63l2.41,10-.9,10H120.14Z" transform="translate(-20.43 -33.63)"/><path class="cls-8" d="M114.71,140.24s-3-8.75-5.73-16-8.44-16-8.44-16,5.73,5.43,9,8.75a78.79,78.79,0,0,1,6.93,8.45s-1.81-9.66-3.32-14.18-5.12-14.48-5.12-14.48,8.44,8.75,10.55,10.86a46.34,46.34,0,0,1,3.92,4.53l-1.8-11.77,6.63,10.86,4.52,6.33s2.72-8.44,4.83-12.06,4.53-6.94,5.13-7.84-2.72,14.17-2.72,14.17l9.35-15.08,4.83-6.33s-4.22,19.3-4.22,23.22a35.38,35.38,0,0,1-1.51,8.75L154.53,108a104.36,104.36,0,0,1-.31,19.61c-1.2,10-.6,11.16-2.71,16.59s-4.83,12.06-4.83,12.06L144,159.84l-22.92-.9Z" transform="translate(-20.43 -33.63)"/><path class="cls-8" d="M115.62,157.73s-8.15-12.07-8.75-17.8-2.41-14.47-2.41-14.47a50.77,50.77,0,0,0,9.05,10,54.69,54.69,0,0,1,9,9.65,96.52,96.52,0,0,1-.9-11.16c0-4.82,1.81-13,1.81-13s7.84,16,9.35,19.61a65.87,65.87,0,0,1,5.13-9.35c2.41-3.32,7.54-9.65,7.54-9.65s-.82,12.53.6,16.89.6,17.79.6,17.79,6.94-15.68,8.75-19.3,11.76-12.67,11.76-12.67-3.62,13-4.52,17.49A37.7,37.7,0,0,1,158.75,152c-.6.9-2.11,4.22-2.11,4.22L150,167.08l-6.94,8.44-19-1.5Z" transform="translate(-20.43 -33.63)"/><path class="cls-8" d="M115,164.06a25.62,25.62,0,0,1-7.23-10.85c-2.12-6.64-3.32-11.16-3.32-11.16s5.13,4.52,9.35,8.74a108.86,108.86,0,0,0,11.46,9.35s-.3-9.35,1.51-16S131,130.58,131,130.58s6,23.53,6.64,26.55,1,6.21,1,6.21,2.88-16.47,5-21,5.43-10,5.43-10-.3,14.48,0,19.31a102.29,102.29,0,0,1,0,10.25,35.56,35.56,0,0,1,5.43-7.84c3-3,19-10.86,19-10.86s-9.35,8.75-10.86,11.16-14.09,14.7-14.09,14.7l-28.74,1.59Z" transform="translate(-20.43 -33.63)"/><path class="cls-5" d="M121.3,175.63s-13.5,5.19-20.87,25.11-5.05,41.35-.55,50.76,12.28,17.74,29.48,18.7,29.06-2.32,36.7-19.38,6.28-37.25,2.19-49.4-13-20-16.38-22.79C145.59,173.59,130.31,170,121.3,175.63Z" transform="translate(-20.43 -33.63)"/><path class="cls-9" d="M126,211.63c1.37,2.75,1.62,3.25,1.62,3.88" transform="translate(-20.43 -33.63)"/><path class="cls-9" d="M113.09,217.88a10.58,10.58,0,0,1,2.25-7.25c2.75-3.63,3.25-4.38,5-4a9.1,9.1,0,0,1,5,3.87" transform="translate(-20.43 -33.63)"/><path class="cls-9" d="M123.85,206.62a18.07,18.07,0,0,1,3.38-4.5,26.74,26.74,0,0,1,2.88-2.51s6.38,2.38,7.5,6.76" transform="translate(-20.43 -33.63)"/><path class="cls-9" d="M137.49,214.63s-1.13-2.75-.25-4.25,2.13-4.88,4.38-4.38,7,1,7.88,4.38" transform="translate(-20.43 -33.63)"/><path class="cls-9" d="M126.73,222.89s.5-4.75,2.37-6.38,4.63-3.26,4.89-3.63,4.75,1.75,6.63,4.63,1.5,4.38,1.5,4.38" transform="translate(-20.43 -33.63)"/><path class="cls-9" d="M138.74,228.65a48.37,48.37,0,0,1,2.75-4.76" transform="translate(-20.43 -33.63)"/><path class="cls-9" d="M143.25,222.14s1.12-2.5,2.62-2.25,5.51,2.63,6.26,4.13a6,6,0,0,1,.75,2.37" transform="translate(-20.43 -33.63)"/><path class="cls-9" d="M149.25,219.51s-.5-4,.88-6,1-2.62,2.38-3.25,5.5,1.25,6.13,3.63" transform="translate(-20.43 -33.63)"/><path class="cls-9" d="M107.54,221.35a32.55,32.55,0,0,0,3.17-3.59,34.71,34.71,0,0,0,4.13,3.88,7.35,7.35,0,0,1,2.63,3.75" transform="translate(-20.43 -33.63)"/><path class="cls-9" d="M105.7,224.52a2.48,2.48,0,0,1,.82-2.21" transform="translate(-20.43 -33.63)"/><path class="cls-9" d="M129.36,228.08a5.81,5.81,0,0,1,.87,2.69" transform="translate(-20.43 -33.63)"/><path class="cls-9" d="M118.33,226.75a8.81,8.81,0,0,1,1.64-2.23,7.57,7.57,0,0,0,2-2.13s4.63,1.13,6.51,4.13" transform="translate(-20.43 -33.63)"/><path class="cls-9" d="M116,231.78s.49-1.23,1.18-2.71" transform="translate(-20.43 -33.63)"/><path class="cls-9" d="M128.23,236a19.69,19.69,0,0,1,4.88-5.38c2.88-2,7.26-.13,9.51,3.13" transform="translate(-20.43 -33.63)"/><path class="cls-9" d="M150.13,234.15s1.25-6.88,4.13-8.63,7.26-1.38,8,4.25" transform="translate(-20.43 -33.63)"/><path class="cls-9" d="M159.64,222.52a6.69,6.69,0,0,1,.63-4.89c1.37-2.75,1.75-3,2.12-3.12s1.88.25,3.26,1.87a13.67,13.67,0,0,1,2,3.13" transform="translate(-20.43 -33.63)"/><path class="cls-9" d="M162.19,203.59a25.9,25.9,0,0,1,2.08,3" transform="translate(-20.43 -33.63)"/><path class="cls-9" d="M155.89,209a6.79,6.79,0,0,1,.25-4.51,12,12,0,0,1,2.12-3.37,15,15,0,0,1,2.48,1.21" transform="translate(-20.43 -33.63)"/><path class="cls-9" d="M143.7,202.09a4.56,4.56,0,0,1,.42-2.6,17,17,0,0,1,3.26-3.88c.37-.25,1.87.5,3.37,1.75s2.26,2,2.51,3.63" transform="translate(-20.43 -33.63)"/><path class="cls-9" d="M144.37,205.37a15.36,15.36,0,0,1-.53-2.17" transform="translate(-20.43 -33.63)"/><path class="cls-9" d="M131.61,199.49a5,5,0,0,1,.87-3.88,47.06,47.06,0,0,1,4.63-5.13s3.88,1.62,5.13,3.25a13,13,0,0,1,1.88,4" transform="translate(-20.43 -33.63)"/><path class="cls-9" d="M159.24,195.08c.75,2,1.15,3.53,1.15,3.53" transform="translate(-20.43 -33.63)"/><path class="cls-9" d="M151.26,195.23s-2.26-2.25-.76-4.88,2.51-2.88,2.51-2.88a10.12,10.12,0,0,1,4.88,4.51q.33.68.63,1.35" transform="translate(-20.43 -33.63)"/><path class="cls-9" d="M125.24,196.45a4,4,0,0,1,.61.79,8.09,8.09,0,0,1,.63,4.38" transform="translate(-20.43 -33.63)"/><path class="cls-9" d="M113.84,201.87s.5-3.51,1.62-4.38,5-4.51,5-4.51a31.94,31.94,0,0,1,4,2.71" transform="translate(-20.43 -33.63)"/><path class="cls-9" d="M106.86,205.67a60.77,60.77,0,0,1,4.72-4.3s1.51.12,2.63,2.62a18.11,18.11,0,0,1,1.38,5" transform="translate(-20.43 -33.63)"/><path class="cls-9" d="M105,210.88a4.68,4.68,0,0,1,.62-3.67" transform="translate(-20.43 -33.63)"/><path class="cls-9" d="M100,219.64s-1-2.88,0-4.63a20.61,20.61,0,0,1,3.63-4,6.15,6.15,0,0,1,2.5,3.13,11,11,0,0,1,1,4.63" transform="translate(-20.43 -33.63)"/><path class="cls-9" d="M104.2,200.74a6.43,6.43,0,0,1,1.75-4.26,15.59,15.59,0,0,1,3.26-2.37,7.66,7.66,0,0,1,.37,4.5,20.41,20.41,0,0,1-.87,2.63" transform="translate(-20.43 -33.63)"/><path class="cls-9" d="M110.33,193a12.93,12.93,0,0,1,3.13-2.25,20.3,20.3,0,0,1,4.13-1.88,29.46,29.46,0,0,1,.75,3.38,4.23,4.23,0,0,1-.37,2.13" transform="translate(-20.43 -33.63)"/><path class="cls-9" d="M134.24,191.85s-2-4.5-3.13-5.38-5.51,1.63-7.14,5.38" transform="translate(-20.43 -33.63)"/><path class="cls-9" d="M142.49,239.28c1.38-1.87,4.13-5.75,4.39-6.13s3.5.13,6,3.26a12.19,12.19,0,0,1,2.63,6.5" transform="translate(-20.43 -33.63)"/><path class="cls-9" d="M141.12,244.42a12.16,12.16,0,0,1,.73-3.95" transform="translate(-20.43 -33.63)"/><path class="cls-9" d="M163.8,243.71a9.54,9.54,0,0,1,.35,1.71" transform="translate(-20.43 -33.63)"/><path class="cls-9" d="M154.38,249.8s-.12-7.39,4.13-9.26a3.3,3.3,0,0,1,4.65,1.63" transform="translate(-20.43 -33.63)"/><path class="cls-9" d="M160.32,234.75c.62-2,1.64-4.2,3.2-5,3-1.5,4.25,3.38,4.38,4.51" transform="translate(-20.43 -33.63)"/><path class="cls-9" d="M159.51,238.16s.15-1,.48-2.27" transform="translate(-20.43 -33.63)"/><path class="cls-9" d="M166.52,228.4a19.47,19.47,0,0,1,.75-6.64c1-2.62,2-5.63,3.13-5.38" transform="translate(-20.43 -33.63)"/><path class="cls-9" d="M132,241.77a13,13,0,0,1,.46,2.9" transform="translate(-20.43 -33.63)"/><path class="cls-9" d="M120.09,246.42s.38-4.76,2.13-7.26,2.5-3,3.63-3.13,4.12,1.76,5.43,3.81" transform="translate(-20.43 -33.63)"/><path class="cls-9" d="M130.86,252.55s1.37-6.51,5.63-8,8,3,8,5.38v3" transform="translate(-20.43 -33.63)"/><path class="cls-9" d="M112.34,254.55a8.07,8.07,0,0,1,2.5-6.88c3.25-3.38,8.38,1,9,3.75" transform="translate(-20.43 -33.63)"/><path class="cls-9" d="M114,244.1a10.55,10.55,0,0,0-2.69-3.44c-2.5-2-4.25-1.5-6.38,1.25s-2.25,4.88-2.13,6" transform="translate(-20.43 -33.63)"/><path class="cls-9" d="M114.84,246a11.5,11.5,0,0,0-.48-1.24" transform="translate(-20.43 -33.63)"/><path class="cls-9" d="M110.46,235.15c1.25-2.25,1.88-3.12,2.88-3.25s4.63-1,6.38,4.51" transform="translate(-20.43 -33.63)"/><path class="cls-9" d="M109.08,238.53a7.39,7.39,0,0,1,.67-2" transform="translate(-20.43 -33.63)"/><path class="cls-9" d="M111.08,230.77s-5.88-7.75-7.76-5.88-2.87,5.26-3,7.64" transform="translate(-20.43 -33.63)"/><path class="cls-9" d="M145.75,259.18s0-3.25,1.38-4.75a66.66,66.66,0,0,1,5.13-4.51s4.13,2.38,4.5,4.38a11.05,11.05,0,0,1,.13,3.51" transform="translate(-20.43 -33.63)"/><path class="cls-9" d="M123,260.58a13.53,13.53,0,0,0-.14,2.73" transform="translate(-20.43 -33.63)"/><path class="cls-9" d="M136,263.94a13.44,13.44,0,0,0-1.75-5.76c-1.63-2.63-5.51-3.88-5.51-3.88a9.26,9.26,0,0,0-4.63,3.13,6,6,0,0,0-.65,1.32" transform="translate(-20.43 -33.63)"/><path class="cls-9" d="M117.22,261.69s-2.13-4.13-3.76-5-4.88-1.38-6.26-.13" transform="translate(-20.43 -33.63)"/><path class="cls-9" d="M116.59,265.94a5,5,0,0,1,1.88-2.5c1.37-.88,7.76,1.37,9.13,2.88a5.22,5.22,0,0,1,1.5,2.62" transform="translate(-20.43 -33.63)"/><path class="cls-9" d="M139.4,260.35a27.72,27.72,0,0,1,4.47-3.17,18.64,18.64,0,0,0,3.88,3.63c2,1.25,1.63,4.25,1.38,4.75" transform="translate(-20.43 -33.63)"/><path class="cls-9" d="M138.11,268.07a5.5,5.5,0,0,1-.75-5.13,5.35,5.35,0,0,1,.82-1.31" transform="translate(-20.43 -33.63)"/><path class="cls-6" d="M118.94,173.41s-10.86-12.66-17.2-15.38l-6.33-2.71a80.41,80.41,0,0,1,13,3.31,39.41,39.41,0,0,1,11.76,6.64,15,15,0,0,1,.3-8.45,81.31,81.31,0,0,1,3.32-8.74s3,6.33,4.22,8.74,2.42,5.74,2.42,5.74,1.2-3,3-8.15,4.23-7.24,4.23-7.24-.61,6.94,0,10l.6,3s4.22-2.11,5.43-3.32S153,152,153,152s-1.51,4.52-2.11,6.33A18.21,18.21,0,0,1,149.1,162s5.73-2.71,10-3.32a32.47,32.47,0,0,1,9,.31s-12.37,4.22-17.19,13l-3,5.12-6.63-4.82-10.56,6L127.38,174Z" transform="translate(-20.43 -33.63)"/><path class="cls-10" d="M121.3,175.63s-3.24.5-5.3-3.63-6.6-7.83-6.6-7.83,7,2.88,8.25,3.71a37.29,37.29,0,0,0,4.12,2.06l2.89-7,8.25,6.18,5.77-5.77,2.47,6.6,8.25-5.36-.82,4.53s3.71-1.64,4.94-2.06,7-1.23,7-1.23-4.95,3.71-7,7a9.12,9.12,0,0,0-1.65,5.8l2.07,4.92-6.19-2.06-6.6,7-8.66-7.43-10.31,5.78,2.07-6.6-4.13.41Z" transform="translate(-20.43 -33.63)"/><path class="cls-3" d="M192.76,242.3a54.2,54.2,0,0,1-29.28,17.81c-19.33,4.51-41.62-2.56-42.81.72s6.94,14.05,31.11,19.12,40.66-7.15,48.14-16.47-.58-18.15-2-22.65,7.49-9.32,2.85-12.42-5.36-5-7.78.25S192.76,242.3,192.76,242.3Z" transform="translate(-20.43 -33.63)"/><path class="cls-11" d="M195.69,249.82s-7.75,15.35-20.68,18.85" transform="translate(-20.43 -33.63)"/><path class="cls-11" d="M166.84,270.65a85.26,85.26,0,0,1-31.35-3.8" transform="translate(-20.43 -33.63)"/><path class="cls-3" d="M188.39,238.35a54.09,54.09,0,0,1-33.54,7.05c-19.72-2.18-38.38-16.27-40.6-13.57s1.86,15.56,23,28.39,40.71,6.8,50.88.5,5.49-17.31,5.63-22,10.16-6.3,6.82-10.77-3.38-6.51-7.42-2.35S188.39,238.35,188.39,238.35Z" transform="translate(-20.43 -33.63)"/><path class="cls-11" d="M188.65,246.42s-12.41,11.9-25.77,10.9" transform="translate(-20.43 -33.63)"/><path class="cls-11" d="M154.51,256.46a85.18,85.18,0,0,1-28.3-14" transform="translate(-20.43 -33.63)"/><path class="cls-3" d="M184.92,224.41a49,49,0,0,1-31-.83C137,217.53,123.51,201.2,121,203.11s-1.62,14.1,14.27,29.82,34.43,14.53,44.71,11.12,8.47-14.1,9.58-18.22,10.27-3.42,8.26-8.05-1.6-6.45-6-3.63S184.92,224.41,184.92,224.41Z" transform="translate(-20.43 -33.63)"/><path class="cls-3" d="M158.47,235.76c11.56,3.69,25-4.19,25-4.19" transform="translate(-20.43 -33.63)"/><path class="cls-3" d="M151.28,233.25s-6.73-2.46-14.14-10.91" transform="translate(-20.43 -33.63)"/><path class="cls-3" d="M196.53,230.71a54.08,54.08,0,0,1-29.27,17.81c-19.33,4.52-41.62-2.56-42.81.73s6.94,14.05,31.11,19.11,40.65-7.14,48.14-16.46-.58-18.15-2-22.65,7.49-9.32,2.84-12.42-5.35-5-7.77.25S196.53,230.71,196.53,230.71Z" transform="translate(-20.43 -33.63)"/><path class="cls-11" d="M199.47,238.23s-7.75,15.35-20.68,18.86" transform="translate(-20.43 -33.63)"/><path class="cls-11" d="M170.62,259.07a85.31,85.31,0,0,1-31.36-3.8" transform="translate(-20.43 -33.63)"/><path class="cls-3" d="M192.17,226.77a54.2,54.2,0,0,1-33.54,7c-19.72-2.18-38.38-16.27-40.6-13.57s1.86,15.56,23,28.38,40.71,6.8,50.88.5,5.49-17.31,5.63-22,10.16-6.3,6.82-10.76-3.38-6.52-7.42-2.35S192.17,226.77,192.17,226.77Z" transform="translate(-20.43 -33.63)"/><path class="cls-11" d="M192.43,234.84s-12.41,11.9-25.77,10.89" transform="translate(-20.43 -33.63)"/><path class="cls-11" d="M158.29,244.88a85.32,85.32,0,0,1-28.3-14" transform="translate(-20.43 -33.63)"/><path class="cls-3" d="M188.7,212.83a49,49,0,0,1-31-.83c-16.91-6.06-30.39-22.38-32.91-20.47s-1.63,14.1,14.27,29.82,34.43,14.53,44.71,11.11,8.47-14.09,9.58-18.22,10.27-3.41,8.26-8.05-1.6-6.44-6-3.63S188.7,212.83,188.7,212.83Z" transform="translate(-20.43 -33.63)"/><path class="cls-3" d="M162.25,224.18c11.56,3.68,25-4.19,25-4.19" transform="translate(-20.43 -33.63)"/><path class="cls-3" d="M155.06,221.67s-6.73-2.46-14.14-10.91" transform="translate(-20.43 -33.63)"/></g><g id="Shopping_Cart" data-name="Shopping Cart"><path class="cls-5" d="M100,278.14h0A1.16,1.16,0,0,1,98.81,277L101,153a1.18,1.18,0,0,1,1.19-1.14,1.16,1.16,0,0,1,1.14,1.18L101.14,277A1.17,1.17,0,0,1,100,278.14Z" transform="translate(-20.43 -33.63)"/><path class="cls-5" d="M111.7,279.3h0a1.16,1.16,0,0,1-1.11-1.21l5.11-126.56a1.16,1.16,0,1,1,2.32.1l-5.11,126.55A1.16,1.16,0,0,1,111.7,279.3Z" transform="translate(-20.43 -33.63)"/><path class="cls-5" d="M123.43,280.46h-.08a1.16,1.16,0,0,1-1.09-1.23l8-129.16a1.17,1.17,0,0,1,2.33.14l-8,129.16A1.17,1.17,0,0,1,123.43,280.46Z" transform="translate(-20.43 -33.63)"/><path class="cls-5" d="M135.15,281.62h-.1a1.16,1.16,0,0,1-1.06-1.25L144.9,148.59a1.15,1.15,0,0,1,1.25-1.07,1.18,1.18,0,0,1,1.07,1.26L136.31,280.55A1.16,1.16,0,0,1,135.15,281.62Z" transform="translate(-20.43 -33.63)"/><path class="cls-5" d="M146.88,282.78h-.12a1.17,1.17,0,0,1-1-1.28l13.8-134.37a1.17,1.17,0,0,1,2.32.23L148,281.73A1.16,1.16,0,0,1,146.88,282.78Z" transform="translate(-20.43 -33.63)"/><path class="cls-5" d="M158.6,283.93h-.14a1.16,1.16,0,0,1-1-1.29l16.71-137a1.16,1.16,0,1,1,2.31.29l-16.7,137A1.17,1.17,0,0,1,158.6,283.93Z" transform="translate(-20.43 -33.63)"/><path class="cls-5" d="M170.33,285.09h-.17a1.17,1.17,0,0,1-1-1.31l19.6-139.6a1.17,1.17,0,0,1,2.31.33l-19.6,139.59A1.16,1.16,0,0,1,170.33,285.09Z" transform="translate(-20.43 -33.63)"/><path class="cls-5" d="M182.05,286.25h-.18a1.16,1.16,0,0,1-1-1.33l22.5-142.2a1.16,1.16,0,1,1,2.3.36l-22.5,142.2A1.17,1.17,0,0,1,182.05,286.25Z" transform="translate(-20.43 -33.63)"/><path class="cls-5" d="M193.78,287.41h-.21a1.17,1.17,0,0,1-.94-1.35L218,141.24a1.16,1.16,0,1,1,2.29.4l-25.4,144.81A1.17,1.17,0,0,1,193.78,287.41Z" transform="translate(-20.43 -33.63)"/><path class="cls-5" d="M205.5,288.57a.82.82,0,0,1-.22,0,1.15,1.15,0,0,1-.92-1.36l28.29-147.42a1.17,1.17,0,0,1,2.29.44l-28.3,147.42A1.16,1.16,0,0,1,205.5,288.57Z" transform="translate(-20.43 -33.63)"/><path class="cls-5" d="M217.23,289.73l-.24,0a1.17,1.17,0,0,1-.91-1.38l31.2-150a1.16,1.16,0,1,1,2.28.48l-31.2,150A1.15,1.15,0,0,1,217.23,289.73Z" transform="translate(-20.43 -33.63)"/><path class="cls-5" d="M229,290.89a1.07,1.07,0,0,1-.25,0,1.17,1.17,0,0,1-.89-1.39l34.1-152.63a1.18,1.18,0,0,1,1.39-.89,1.16,1.16,0,0,1,.88,1.39L230.09,290A1.18,1.18,0,0,1,229,290.89Z" transform="translate(-20.43 -33.63)"/><path class="cls-5" d="M240.68,292.05a1.33,1.33,0,0,1-.28,0,1.17,1.17,0,0,1-.86-1.4l37-155.25a1.18,1.18,0,0,1,1.41-.86,1.16,1.16,0,0,1,.86,1.4l-37,155.24A1.17,1.17,0,0,1,240.68,292.05Z" transform="translate(-20.43 -33.63)"/><path class="cls-5" d="M252.4,293.21a1,1,0,0,1-.29,0,1.16,1.16,0,0,1-.84-1.41l39.89-157.85a1.17,1.17,0,1,1,2.26.57L253.53,292.33A1.16,1.16,0,0,1,252.4,293.21Z" transform="translate(-20.43 -33.63)"/><path class="cls-5" d="M264.13,294.37a1.15,1.15,0,0,1-.31,0,1.16,1.16,0,0,1-.82-1.43l42.79-160.46a1.16,1.16,0,0,1,2.25.6L265.25,293.5A1.16,1.16,0,0,1,264.13,294.37Z" transform="translate(-20.43 -33.63)"/><path class="cls-5" d="M275.85,295.53a1.25,1.25,0,0,1-.32,0,1.15,1.15,0,0,1-.8-1.43L320.42,131a1.16,1.16,0,1,1,2.24.63L277,294.68A1.16,1.16,0,0,1,275.85,295.53Z" transform="translate(-20.43 -33.63)"/><path class="cls-5" d="M287.57,296.69a1.25,1.25,0,0,1-.32-.05,1.16,1.16,0,0,1-.79-1.44L335,129.52a1.17,1.17,0,0,1,2.24.65L288.69,295.85A1.16,1.16,0,0,1,287.57,296.69Z" transform="translate(-20.43 -33.63)"/><path class="cls-5" d="M299.3,297.85a1.33,1.33,0,0,1-.34-.05,1.16,1.16,0,0,1-.77-1.46l51.48-168.29a1.17,1.17,0,1,1,2.23.69L300.41,297A1.16,1.16,0,0,1,299.3,297.85Z" transform="translate(-20.43 -33.63)"/><path class="cls-5" d="M311,299a1.12,1.12,0,0,1-.35-.06,1.17,1.17,0,0,1-.76-1.46l54.39-170.9a1.16,1.16,0,0,1,1.46-.75,1.17,1.17,0,0,1,.76,1.46L312.13,298.19A1.15,1.15,0,0,1,311,299Z" transform="translate(-20.43 -33.63)"/><path class="cls-5" d="M322.75,300.17a1.24,1.24,0,0,1-.37-.06,1.16,1.16,0,0,1-.74-1.47l57.29-173.51a1.16,1.16,0,0,1,2.21.73L323.85,299.37A1.17,1.17,0,0,1,322.75,300.17Z" transform="translate(-20.43 -33.63)"/><path class="cls-5" d="M334.47,301.32a1.19,1.19,0,0,1-.37-.06,1.17,1.17,0,0,1-.73-1.48l60.18-176.11a1.17,1.17,0,0,1,2.21.75L335.58,300.54A1.17,1.17,0,0,1,334.47,301.32Z" transform="translate(-20.43 -33.63)"/><path class="cls-5" d="M346.2,302.48a1.32,1.32,0,0,1-.39-.06,1.17,1.17,0,0,1-.71-1.49l63.08-178.72a1.16,1.16,0,0,1,1.48-.71,1.17,1.17,0,0,1,.72,1.49L347.3,301.71A1.16,1.16,0,0,1,346.2,302.48Z" transform="translate(-20.43 -33.63)"/><rect class="cls-5" x="345.46" y="365.22" width="23.01" height="4.15"/><circle class="cls-12" cx="390.76" cy="430.25" r="23.31" transform="translate(-109.61 68.8) rotate(-13.42)"/><circle class="cls-3" cx="390.76" cy="430.25" r="14.29" transform="translate(-109.3 68.36) rotate(-13.37)"/><path class="cls-5" d="M391.87,403.05h-26v6.66s12.78,7.67,15.34,14.38,3.84,13.43,10.23,12.79,5.43-4.8,4.15-10.55C394.48,421.24,392.35,408.1,391.87,403.05Z" transform="translate(-20.43 -33.63)"/><circle class="cls-5" cx="370.33" cy="396.62" r="3.13"/><rect class="cls-5" x="63.77" y="365.22" width="23.01" height="4.15"/><circle class="cls-12" cx="108.5" cy="430.25" r="23.31" transform="translate(-281.09 150.44) rotate(-42.15)"/><circle class="cls-3" cx="108.5" cy="430.25" r="14.29" transform="translate(-281.92 151.69) rotate(-42.34)"/><path class="cls-5" d="M110.18,403.05h-26v6.66S97,417.38,99.54,424.09s3.83,13.43,10.22,12.79,5.43-4.8,4.16-10.55C112.78,421.24,110.65,408.1,110.18,403.05Z" transform="translate(-20.43 -33.63)"/><circle class="cls-5" cx="88.64" cy="396.62" r="3.13"/><path class="cls-5" d="M383.73,400.7h-.66L63.24,398.85a4.08,4.08,0,0,1,0-8.15h0l319.93,1.84a13.53,13.53,0,0,0,10.92-4.93l2.52-3.1a13.38,13.38,0,0,0,.88-15.68l-31.07-48.42a10.44,10.44,0,0,0-7.8-4.78l-123-12.18a4.08,4.08,0,0,1,.81-8.12l123,12.18A18.59,18.59,0,0,1,373.33,316l31.07,48.43A21.53,21.53,0,0,1,403,389.65l-2.52,3.1A21.69,21.69,0,0,1,383.73,400.7Z" transform="translate(-20.43 -33.63)"/><path class="cls-5" d="M369.77,306.65h-.17L89.35,279.05a1.76,1.76,0,0,1-1.58-1.75L89,152.2a1.75,1.75,0,0,1,1.58-1.73l345.87-33.11A1.7,1.7,0,0,1,438,118a1.74,1.74,0,0,1,.27,1.66L371.41,305.5A1.73,1.73,0,0,1,369.77,306.65ZM91.28,275.73,368.59,303,434,121.1,92.48,153.8Z" transform="translate(-20.43 -33.63)"/><path class="cls-5" d="M85.84,190.14a1.75,1.75,0,0,1-.07-3.49l335.61-13.78a1.75,1.75,0,1,1,.14,3.49L85.91,190.14Z" transform="translate(-20.43 -33.63)"/><path class="cls-5" d="M404.73,226.32h0L84.6,223.87a1.75,1.75,0,0,1,0-3.5h0l320.11,2.46a1.75,1.75,0,0,1,0,3.49Z" transform="translate(-20.43 -33.63)"/><path class="cls-5" d="M386.59,275.4h-.11L84.37,256.58a1.74,1.74,0,1,1,.22-3.48L386.7,271.91a1.75,1.75,0,0,1-.11,3.49Z" transform="translate(-20.43 -33.63)"/><path class="cls-5" d="M84.61,155.8a1.75,1.75,0,0,1-.17-3.49l356.91-35.56a1.74,1.74,0,1,1,.34,3.47L84.79,155.79Z" transform="translate(-20.43 -33.63)"/><rect class="cls-12" x="60.7" y="111.59" width="22.69" height="17.17" rx="2.42"/><path class="cls-5" d="M274,311.09a2.91,2.91,0,0,1-2.39-4.57c1.49-2.14,149.18-214,155.74-218.37,6.33-4.22,35.54-3.76,41.33-3.62a2.91,2.91,0,0,1-.13,5.82c-16-.37-34.41.5-37.87,2.59-6.77,6.41-111.55,155.53-154.29,216.9A2.88,2.88,0,0,1,274,311.09Z" transform="translate(-20.43 -33.63)"/><path class="cls-5" d="M354,320.28a2.94,2.94,0,0,1-1-.18,2.9,2.9,0,0,1-1.73-3.73c5.43-14.84,16.43-45.24,28.08-77.43,26.47-73.16,45.31-125.14,46.58-127.68.34-.68.68-1.43,1.05-2.23,2.36-5.13,5.59-12.14,12.8-14.54s33-2.15,35.9-2.11a2.91,2.91,0,0,1-.08,5.82c-7.61-.11-28.57,0-34,1.81-4.81,1.61-7.33,7.07-9.35,11.45-.39.86-.77,1.67-1.13,2.4-1.45,3.08-26.33,71.83-46.32,127.07-11.65,32.19-22.65,62.59-28.08,77.44A2.92,2.92,0,0,1,354,320.28Z" transform="translate(-20.43 -33.63)"/><path class="cls-12" d="M427.58,48.58h23.3a8.79,8.79,0,0,1,8.79,8.79v2.89a8.79,8.79,0,0,1-8.79,8.79h-23.3a0,0,0,0,1,0,0V48.58A0,0,0,0,1,427.58,48.58Z"/></g><g id="Floor"><line class="cls-9" x1="444.55" y1="419.93" x2="461.93" y2="419.93"/><line class="cls-9" x1="57.87" y1="419.93" x2="435.74" y2="419.93"/><line class="cls-9" y1="419.93" x2="47.03" y2="419.93"/></g></svg>