<svg xmlns="http://www.w3.org/2000/svg" viewBox="0 0 2156.64 2059.23"><defs><style>.cls-1{fill:#e7191f;}.cls-2{fill:#333;}</style></defs><g id="Layer_2" data-name="Layer 2"><g id="Layer_1-2" data-name="Layer 1"><path class="cls-1" d="M2145.33,606.17a33.46,33.46,0,0,0-32.31-24.5H1788c-4.11-16.46-9.09-32.88-14.81-48.9l13.68-13.68,24.84-24.85,104.51-104.51-30.84-30.84-16.4-16.4-128.69-128.7-108,108A522.8,522.8,0,0,0,773.63,581.67H474.11l-15.92-68.89L409.52,302.16a33.36,33.36,0,0,0-32.66-26H85.51a33.53,33.53,0,0,0,0,67.06H350.19l64.58,279.52,57.4,248.43L551,1212.35l71.5,309.43a33.32,33.32,0,0,0,30.1,25.88c.85.06,1.7.1,2.56.1h88.17q-4.12,4.52-7.94,9.22a203.68,203.68,0,0,0-45.7,129c0,101.06,73.4,185.3,169.69,202.2a206.28,206.28,0,0,0,82.76-2.38c90.55-21.36,158.14-102.84,158.14-199.82a203.77,203.77,0,0,0-53.65-138.24H1511c-1.62,1.77-3.19,3.55-4.74,5.36A203.66,203.66,0,0,0,1457.38,1686c0,113.2,92.09,205.29,205.29,205.29a204.27,204.27,0,0,0,124.83-42.41,206.7,206.7,0,0,0,43.09-44.89,205.52,205.52,0,0,0,29-176.17v0a203.9,203.9,0,0,0-45.29-80h91a36.28,36.28,0,0,0,4.06-.24,33.35,33.35,0,0,0,28.6-25.74l5-21.62,5.45-23.56,108.19-468.29,78.83-341.19,10.25-44.37A33.44,33.44,0,0,0,2145.33,606.17ZM1739.58,309.32l.7-.7,20.49,20.49,16.4,16.41,44.21,44.21L1246.72,964.39,1019.35,737l4.74-4.74,76.36-76.36,146.27,146.28,71.35-71.35ZM954.71,390.73h0c82.8-84.92,198.4-137.73,326.1-137.73a455.11,455.11,0,0,1,195.41,43.86h0a452.61,452.61,0,0,1,108.58,72.37L1246.72,707.35,1100.45,561.07,924.51,737,1149.39,961.9l97.33,97.33,204.15-204.15,250.72-250.73,18.22-18.22c2.49,8.94,4.72,18,6.65,27.06,0,0,0,0,0,0,.51,2.37,1,4.74,1.46,7.11.11.68.24,1.38.42,2.18a459.62,459.62,0,0,1,8.11,86.13c0,251.23-204.4,455.64-455.64,455.64-229,0-419.08-169.81-450.94-390.13,0,0,0,0,0,0a456.48,456.48,0,0,1-4.7-65.5C825.18,585.1,874.6,472.89,954.71,390.73Zm28,1402h0A137.67,137.67,0,0,1,895,1824.24c-76.22,0-138.24-62-138.24-138.24s62-138.23,138.24-138.23a137.63,137.63,0,0,1,68.84,18.39h0a138.15,138.15,0,0,1,18.9,226.58Zm680,31.5c-3.07,0-6.12-.11-9.14-.3-71.24-4.68-127.93-63.57-129.08-135.71,0-.74,0-1.48,0-2.23A138.39,138.39,0,0,1,1601,1562.29h0a137.35,137.35,0,0,1,61.64-14.52c76.23,0,138.24,62,138.24,138.23a138.31,138.31,0,0,1-138.24,138.24Zm328.11-828.9v0L1912,1336.46v0l-12.23,52.93-5.44,23.57-15.65,67.72H681.82L537,854l0-.07L495,671.9l-5.36-23.18H761.51A531.18,531.18,0,0,0,763.79,786v0a523.84,523.84,0,0,0,275.4,386.2l.15.08q18.59,9.68,38,17.9a522.31,522.31,0,0,0,573.08-112q9-9,17.51-18.36l0-.05a521.08,521.08,0,0,0,135.53-351.19,531.86,531.86,0,0,0-3.39-59.93h270.73Z"/><path class="cls-1" d="M1985.23,1448.12a33.35,33.35,0,0,1-30.87,28.08l-5.94.4-84.85,5.62a203.89,203.89,0,0,1,62.67,134.39c5.15,77.79-33.93,148.47-95.65,187.38a206.7,206.7,0,0,1-43.09,44.89c99.48-30.05,169-125.77,161.83-233.8A227.41,227.41,0,0,0,1930,1537c-.49-1.1-1-2.2-1.5-3.29a226.29,226.29,0,0,0-17.81-31.37l32.26-2.13,12.91-.86a56.4,56.4,0,0,0,52.2-47.47l127.36-784.71-78.83,341.19Z"/><path class="cls-1" d="M1506.29,1553.12c1.55-1.81,3.12-3.59,4.74-5.36h-2.74Q1507.26,1550.42,1506.29,1553.12Z"/><path class="cls-1" d="M1524.45,1688.23c1.15,72.14,57.84,131,129.08,135.71A206.1,206.1,0,0,1,1524.45,1688.23Z"/><path class="cls-1" d="M781.74,509a522.52,522.52,0,0,1,819.15-238.09l100.59-114.88L1888.67,320,1869,342.49l16.4,16.4,20.72-23.66,15.25-17.41-17.41-15.25L1716.74,138.65l-17.42-15.26-15.25,17.43-86.34,98.58A546,546,0,0,0,742,565.12L492.32,581.67h270A522.8,522.8,0,0,1,781.74,509Z"/><path class="cls-1" d="M2141.88,493.81a56.36,56.36,0,0,0-45.68-18.42l-284.5,18.85-24.84,24.85,310.88-20.6a33.52,33.52,0,0,1,35.3,38.83L2125.46,584a33.69,33.69,0,0,1,19.87,22.13L2155.9,541A56.41,56.41,0,0,0,2141.88,493.81Z"/><path class="cls-1" d="M1111.53,1547.76a203.56,203.56,0,0,1,48.68,119.61c7.49,113-78.32,210.93-191.27,218.42a205,205,0,0,1-26.81,0c-101.25-6.46-184.73-87.4-191.61-191.3A203.76,203.76,0,0,1,794.91,1553l-59.53,4-28.44,1.88a33.38,33.38,0,0,1-34.31-23.76L472.17,871.18,405.92,651.77,323,377.13,58.9,394.63a33.53,33.53,0,1,1-4.43-66.91l2.67-.18a33.43,33.43,0,0,1-4.78-22.87,56.67,56.67,0,0,0,8.07,113.06l245.73-16.28,77.6,257L551,1212.35l99.47,329.44a54.58,54.58,0,0,0,2.13,5.87,56.36,56.36,0,0,0,55.87,34.3l9.91-.65,32.47-2.15a226.54,226.54,0,0,0-23.42,116.89c5.71,86.13,58.71,158.07,132,192.15a227,227,0,0,0,111.1,20.69c125.69-8.33,221.17-117.36,212.84-243.05a226.62,226.62,0,0,0-38.63-112.78l80-5.3Z"/><polygon class="cls-1" points="479 581.67 458.19 512.78 474.11 581.67 479 581.67"/><path class="cls-1" d="M1859.33,1621.05c-5-76.06-71-133.84-147.08-128.8s-133.83,71-128.79,147.08,71,133.83,147.07,128.79S1864.37,1697.1,1859.33,1621.05ZM1729,1745a115.09,115.09,0,1,1,107.23-122.44A115.21,115.21,0,0,1,1729,1745Z"/><path class="cls-1" d="M1923.31,1411.06,2060.1,568.19,1790,586.09a531.25,531.25,0,0,1,7.34,59.57A522.7,522.7,0,1,1,754.2,714.78a534.44,534.44,0,0,1-.59-60l-271.31,18,246.81,817.45ZM729.89,679.53c0,12.27.4,24.56,1.21,36.78a545.85,545.85,0,1,0,1089.31-72.18c-.81-12.21-2-24.46-3.65-36.62l215.83-14.3-129.18,796L746,1465.87l-233.07-772Z"/><path class="cls-1" d="M946.23,1543c-76.06,5-133.84,71-128.8,147.07s71,133.84,147.08,128.8,133.83-71,128.79-147.08S1022.28,1538,946.23,1543ZM963,1795.78a115.09,115.09,0,1,1,107.22-122.44A115.23,115.23,0,0,1,963,1795.78Z"/><path class="cls-1" d="M1707.76,250.69,1247.92,775.8,1092.29,639.52l-75.57,86.29,241.92,211.85,535.41-611.4ZM1256.48,905,1049.39,723.64l45.06-51.45,138.22,121,17.41,15.25,15.25-17.42,444.59-507.69,51.46,45.06Z"/><path class="cls-1" d="M1716.05,562.55c-3-11.27-6.47-22.54-10.36-33.61l-440.78,503.35-2.9-2.55L922.1,732.08,1086,544.89l155.63,136.29,315-359.74a453.5,453.5,0,0,0-311-95.88C994.94,242.17,804.5,459.65,821.11,710.34s234.08,441.13,484.77,424.52S1747,900.78,1730.4,650.09a459.71,459.71,0,0,0-13.79-85.4C1716.38,563.9,1716.2,563.21,1716.05,562.55Zm-411.7,549.21c-238,15.77-444.37-165-460.14-403s165-444.38,403-460.15a431,431,0,0,1,275.55,76.42L1239.48,648.51l-138.21-121-17.41-15.25-15.26,17.41L904.68,716.83l-15.25,17.41,17.42,15.26,339.91,297.66,2.9,2.54,17.42,15.26,15.25-17.42,413.19-471.85a436.3,436.3,0,0,1,11.78,75.93C1723.07,889.58,1542.3,1096,1304.35,1111.76Z"/><path class="cls-1" d="M2054.37,1265.35l-3.08,20a18.71,18.71,0,1,0,37,5.69l3.07-20a18.28,18.28,0,0,0,.21-3.45,18.71,18.71,0,0,0-37.19-2.24Z"/><path class="cls-1" d="M2041.62,1348.2l-3.08,20a18.71,18.71,0,1,0,37,5.69l3.07-20a18.28,18.28,0,0,0,.21-3.45,18.71,18.71,0,0,0-37.19-2.24Z"/><path class="cls-1" d="M2050.21,1415.4a18.71,18.71,0,0,0-21.34,15.64l-3.08,20a18.71,18.71,0,1,0,37,5.69l3.07-20a18.28,18.28,0,0,0,.21-3.45A18.71,18.71,0,0,0,2050.21,1415.4Z"/><path class="cls-1" d="M2114.6,1005.69a18.72,18.72,0,0,0-21.34,15.65l-3.07,20a18.71,18.71,0,1,0,37,5.69l3.08-20a19.09,19.09,0,0,0,.21-3.44A18.73,18.73,0,0,0,2114.6,1005.69Z"/><path class="cls-1" d="M2101.85,1088.54a18.72,18.72,0,0,0-21.34,15.65l-3.07,20a18.71,18.71,0,1,0,37,5.69l3.08-20a19.09,19.09,0,0,0,.21-3.44A18.72,18.72,0,0,0,2101.85,1088.54Z"/><path class="cls-1" d="M2101.67,1212.7l3.08-20a19.15,19.15,0,0,0,.21-3.45,18.71,18.71,0,0,0-37.2-2.24l-3.07,20a18.71,18.71,0,1,0,37,5.69Z"/><path class="cls-1" d="M958.74,203.11c4.81-3.07,9.7-6.17,14.54-9.2.46-.28.9-.58,1.33-.9A21.33,21.33,0,0,0,953,156.48h0a20.71,20.71,0,0,0-2.36,1.29c-5,3.11-10,6.27-14.87,9.4a21.32,21.32,0,0,0,23,35.94Z"/><path class="cls-1" d="M893.29,252.68c.2-.15.4-.3.59-.46,4.47-3.52,9-7.08,13.56-10.58A21.33,21.33,0,0,0,884.34,206a22.31,22.31,0,0,0-3,1.95c-4.67,3.61-9.33,7.26-13.86,10.83a21.32,21.32,0,0,0,25.81,33.94Z"/><path class="cls-1" d="M811.43,308.63a21.37,21.37,0,0,0,27.13,1.58,20.49,20.49,0,0,0,3-2.68c3.62-3.89,7.47-8,11.75-12.49a21.32,21.32,0,0,0-27.64-32.19,21.64,21.64,0,0,0-3.25,2.8c-4.42,4.65-8.38,8.85-12.09,12.85A21.34,21.34,0,0,0,811.43,308.63Z"/><path class="cls-1" d="M766.41,373.51a21.26,21.26,0,0,0,29.86-4.2l1-1.3c3.11-4.15,6.26-8.25,9.35-12.2A21.32,21.32,0,1,0,773,329.53c-3.28,4.2-6.59,8.52-9.84,12.84l-1,1.28a21.32,21.32,0,0,0,4.19,29.86Z"/><path class="cls-1" d="M728,447a21.28,21.28,0,0,0,28.62-9.48c2.19-4.36,4.74-9.26,7.79-15a21.32,21.32,0,0,0-33.88-25.13,20.88,20.88,0,0,0-3.74,5c-3.22,6-5.93,11.24-8.28,15.91A21.34,21.34,0,0,0,728,447Z"/><path class="cls-1" d="M699.69,528.93A21.29,21.29,0,0,0,727.39,517c1.81-4.53,3.93-9.63,6.48-15.58A21.32,21.32,0,0,0,698,479.31a21,21,0,0,0-3.3,5.35c-2.69,6.29-4.94,11.71-6.88,16.56A21.36,21.36,0,0,0,699.69,528.93Z"/><path class="cls-1" d="M346.41,1266.15l-30.34,30.34a16.36,16.36,0,0,0,23.14,23.14l30.34-30.34a16.36,16.36,0,1,0-23.14-23.14Z"/><path class="cls-1" d="M475.05,1137.51l-30.34,30.34A16.36,16.36,0,1,0,467.85,1191l30.34-30.34a16.36,16.36,0,1,0-23.14-23.14Z"/><path class="cls-1" d="M467.85,1266.15a16.36,16.36,0,1,0-23.14,23.14l30.34,30.34a16.36,16.36,0,0,0,23.14-23.14Z"/><path class="cls-1" d="M339.21,1137.51a16.36,16.36,0,1,0-23.14,23.14L346.41,1191a16.36,16.36,0,1,0,23.14-23.14Z"/><path class="cls-1" d="M890,2018.08l-21.43,21.43a11.56,11.56,0,0,0,16.35,16.34l21.43-21.43A11.56,11.56,0,0,0,890,2018.08Z"/><path class="cls-1" d="M980.83,1927.21l-21.43,21.43A11.55,11.55,0,0,0,975.74,1965l21.43-21.43a11.55,11.55,0,0,0-16.34-16.34Z"/><path class="cls-1" d="M975.74,2018.08a11.55,11.55,0,1,0-16.34,16.34l21.43,21.43a11.55,11.55,0,0,0,16.34-16.34Z"/><path class="cls-1" d="M884.88,1927.21a11.56,11.56,0,0,0-16.35,16.34L890,1965a11.56,11.56,0,0,0,16.35-16.34Z"/><path class="cls-1" d="M2000.16,1632.65l-21.43,21.43a11.56,11.56,0,0,0,16.35,16.34l21.43-21.43a11.56,11.56,0,0,0-16.35-16.34Z"/><path class="cls-1" d="M2091,1541.78l-21.43,21.43a11.55,11.55,0,1,0,16.34,16.34l21.43-21.43a11.55,11.55,0,0,0-16.34-16.34Z"/><path class="cls-1" d="M2085.94,1632.65A11.55,11.55,0,0,0,2069.6,1649l21.43,21.43a11.55,11.55,0,0,0,16.34-16.34Z"/><path class="cls-1" d="M1995.08,1541.78a11.56,11.56,0,1,0-16.35,16.34l21.43,21.43a11.56,11.56,0,1,0,16.35-16.34Z"/><path class="cls-1" d="M1014.44,132l21.44-21.43a11.56,11.56,0,0,0-16.35-16.34L998.1,115.68A11.55,11.55,0,1,0,1014.44,132Z"/><path class="cls-1" d="M1105.31,41.16l21.43-21.43A11.56,11.56,0,1,0,1110.4,3.38L1089,24.81a11.56,11.56,0,1,0,16.34,16.35Z"/><path class="cls-1" d="M1110.4,132a11.55,11.55,0,1,0,16.34-16.34l-21.43-21.43A11.55,11.55,0,1,0,1089,110.59Z"/><path class="cls-1" d="M1019.53,41.16a11.56,11.56,0,0,0,16.35-16.34L1014.44,3.38A11.56,11.56,0,1,0,998.1,19.73Z"/><path class="cls-1" d="M1949.64,458.81l21.43-21.43A11.55,11.55,0,1,0,1954.73,421l-21.43,21.43a11.55,11.55,0,0,0,16.34,16.34Z"/><path class="cls-1" d="M2040.51,367.94l21.43-21.43a11.55,11.55,0,0,0-16.34-16.34l-21.43,21.43a11.55,11.55,0,0,0,16.34,16.34Z"/><path class="cls-1" d="M2045.6,458.81a11.55,11.55,0,0,0,16.34-16.34L2040.51,421a11.55,11.55,0,0,0-16.34,16.34Z"/><path class="cls-1" d="M1954.73,367.94a11.55,11.55,0,1,0,16.34-16.34l-21.43-21.43a11.55,11.55,0,0,0-16.34,16.34Z"/><path class="cls-1" d="M2145.33,606.17a33.46,33.46,0,0,0-32.31-24.5H1788c-4.11-16.46-9.09-32.88-14.81-48.9l13.68-13.68,24.84-24.85,104.51-104.51-30.84-30.84-16.4-16.4-128.69-128.7-108,108A522.8,522.8,0,0,0,773.63,581.67H474.11l-15.92-68.89L409.52,302.16a33.36,33.36,0,0,0-32.66-26H85.51a33.53,33.53,0,0,0,0,67.06H350.19l64.58,279.52,57.4,248.43L551,1212.35l71.5,309.43a33.32,33.32,0,0,0,30.1,25.88c.85.06,1.7.1,2.56.1h88.17q-4.12,4.52-7.94,9.22a203.68,203.68,0,0,0-45.7,129c0,101.06,73.4,185.3,169.69,202.2a206.28,206.28,0,0,0,82.76-2.38c90.55-21.36,158.14-102.84,158.14-199.82a203.77,203.77,0,0,0-53.65-138.24H1511c-1.62,1.77-3.19,3.55-4.74,5.36A203.66,203.66,0,0,0,1457.38,1686c0,113.2,92.09,205.29,205.29,205.29a204.27,204.27,0,0,0,124.83-42.41,206.7,206.7,0,0,0,43.09-44.89,205.52,205.52,0,0,0,29-176.17v0a203.9,203.9,0,0,0-45.29-80h91a36.28,36.28,0,0,0,4.06-.24,33.35,33.35,0,0,0,28.6-25.74l5-21.62,5.45-23.56,108.19-468.29,78.83-341.19,10.25-44.37A33.44,33.44,0,0,0,2145.33,606.17ZM1739.58,309.32l.7-.7,20.49,20.49,16.4,16.41,44.21,44.21L1246.72,964.39,1019.35,737l4.74-4.74,76.36-76.36,146.27,146.28,71.35-71.35ZM954.71,390.73h0c82.8-84.92,198.4-137.73,326.1-137.73a455.11,455.11,0,0,1,195.41,43.86h0a452.61,452.61,0,0,1,108.58,72.37L1246.72,707.35,1100.45,561.07,924.51,737,1149.39,961.9l97.33,97.33,204.15-204.15,250.72-250.73,18.22-18.22c2.49,8.94,4.72,18,6.65,27.06,0,0,0,0,0,0,.51,2.37,1,4.74,1.46,7.11.11.68.24,1.38.42,2.18a459.62,459.62,0,0,1,8.11,86.13c0,251.23-204.4,455.64-455.64,455.64-229,0-419.08-169.81-450.94-390.13,0,0,0,0,0,0a456.48,456.48,0,0,1-4.7-65.5C825.18,585.1,874.6,472.89,954.71,390.73Zm28,1402h0A137.67,137.67,0,0,1,895,1824.24c-76.22,0-138.24-62-138.24-138.24s62-138.23,138.24-138.23a137.63,137.63,0,0,1,68.84,18.39h0a138.15,138.15,0,0,1,18.9,226.58Zm680,31.5c-3.07,0-6.12-.11-9.14-.3-71.24-4.68-127.93-63.57-129.08-135.71,0-.74,0-1.48,0-2.23A138.39,138.39,0,0,1,1601,1562.29h0a137.35,137.35,0,0,1,61.64-14.52c76.23,0,138.24,62,138.24,138.23a138.31,138.31,0,0,1-138.24,138.24Zm328.11-828.9v0L1912,1336.46v0l-12.23,52.93-5.44,23.57-15.65,67.72H681.82L537,854l0-.07L495,671.9l-5.36-23.18H761.51A531.18,531.18,0,0,0,763.79,786v0a523.84,523.84,0,0,0,275.4,386.2l.15.08q18.59,9.68,38,17.9a522.31,522.31,0,0,0,573.08-112q9-9,17.51-18.36l0-.05a521.08,521.08,0,0,0,135.53-351.19,531.86,531.86,0,0,0-3.39-59.93h270.73Z"/><path class="cls-2" d="M1985.23,1448.12a33.35,33.35,0,0,1-30.87,28.08l-5.94.4-84.85,5.62a203.89,203.89,0,0,1,62.67,134.39c5.15,77.79-33.93,148.47-95.65,187.38a206.7,206.7,0,0,1-43.09,44.89c99.48-30.05,169-125.77,161.83-233.8A227.41,227.41,0,0,0,1930,1537c-.49-1.1-1-2.2-1.5-3.29a226.29,226.29,0,0,0-17.81-31.37l32.26-2.13,12.91-.86a56.4,56.4,0,0,0,52.2-47.47l127.36-784.71-78.83,341.19Z"/><path class="cls-2" d="M1506.29,1553.12c1.55-1.81,3.12-3.59,4.74-5.36h-2.74Q1507.26,1550.42,1506.29,1553.12Z"/><path class="cls-2" d="M1524.45,1688.23c1.15,72.14,57.84,131,129.08,135.71A206.1,206.1,0,0,1,1524.45,1688.23Z"/><path class="cls-2" d="M781.74,509a522.52,522.52,0,0,1,819.15-238.09l100.59-114.88L1888.67,320,1869,342.49l16.4,16.4,20.72-23.66,15.25-17.41-17.41-15.25L1716.74,138.65l-17.42-15.26-15.25,17.43-86.34,98.58A546,546,0,0,0,742,565.12L492.32,581.67h270A522.8,522.8,0,0,1,781.74,509Z"/><path class="cls-2" d="M2141.88,493.81a56.36,56.36,0,0,0-45.68-18.42l-284.5,18.85-24.84,24.85,310.88-20.6a33.52,33.52,0,0,1,35.3,38.83L2125.46,584a33.69,33.69,0,0,1,19.87,22.13L2155.9,541A56.41,56.41,0,0,0,2141.88,493.81Z"/><path class="cls-2" d="M1111.53,1547.76a203.56,203.56,0,0,1,48.68,119.61c7.49,113-78.32,210.93-191.27,218.42a205,205,0,0,1-26.81,0c-101.25-6.46-184.73-87.4-191.61-191.3A203.76,203.76,0,0,1,794.91,1553l-59.53,4-28.44,1.88a33.38,33.38,0,0,1-34.31-23.76L472.17,871.18,405.92,651.77,323,377.13,58.9,394.63a33.53,33.53,0,1,1-4.43-66.91l2.67-.18a33.43,33.43,0,0,1-4.78-22.87,56.67,56.67,0,0,0,8.07,113.06l245.73-16.28,77.6,257L551,1212.35l99.47,329.44a54.58,54.58,0,0,0,2.13,5.87,56.36,56.36,0,0,0,55.87,34.3l9.91-.65,32.47-2.15a226.54,226.54,0,0,0-23.42,116.89c5.71,86.13,58.71,158.07,132,192.15a227,227,0,0,0,111.1,20.69c125.69-8.33,221.17-117.36,212.84-243.05a226.62,226.62,0,0,0-38.63-112.78l80-5.3Z"/><polygon class="cls-2" points="479 581.67 458.19 512.78 474.11 581.67 479 581.67"/><path class="cls-2" d="M1859.33,1621.05c-5-76.06-71-133.84-147.08-128.8s-133.83,71-128.79,147.08,71,133.83,147.07,128.79S1864.37,1697.1,1859.33,1621.05ZM1729,1745a115.09,115.09,0,1,1,107.23-122.44A115.21,115.21,0,0,1,1729,1745Z"/><path class="cls-2" d="M1923.31,1411.06,2060.1,568.19,1790,586.09a531.25,531.25,0,0,1,7.34,59.57A522.7,522.7,0,1,1,754.2,714.78a534.44,534.44,0,0,1-.59-60l-271.31,18,246.81,817.45ZM729.89,679.53c0,12.27.4,24.56,1.21,36.78a545.85,545.85,0,1,0,1089.31-72.18c-.81-12.21-2-24.46-3.65-36.62l215.83-14.3-129.18,796L746,1465.87l-233.07-772Z"/><path class="cls-2" d="M946.23,1543c-76.06,5-133.84,71-128.8,147.07s71,133.84,147.08,128.8,133.83-71,128.79-147.08S1022.28,1538,946.23,1543ZM963,1795.78a115.09,115.09,0,1,1,107.22-122.44A115.23,115.23,0,0,1,963,1795.78Z"/><path class="cls-2" d="M1707.76,250.69,1247.92,775.8,1092.29,639.52l-75.57,86.29,241.92,211.85,535.41-611.4ZM1256.48,905,1049.39,723.64l45.06-51.45,138.22,121,17.41,15.25,15.25-17.42,444.59-507.69,51.46,45.06Z"/><path class="cls-2" d="M1716.05,562.55c-3-11.27-6.47-22.54-10.36-33.61l-440.78,503.35-2.9-2.55L922.1,732.08,1086,544.89l155.63,136.29,315-359.74a453.5,453.5,0,0,0-311-95.88C994.94,242.17,804.5,459.65,821.11,710.34s234.08,441.13,484.77,424.52S1747,900.78,1730.4,650.09a459.71,459.71,0,0,0-13.79-85.4C1716.38,563.9,1716.2,563.21,1716.05,562.55Zm-411.7,549.21c-238,15.77-444.37-165-460.14-403s165-444.38,403-460.15a431,431,0,0,1,275.55,76.42L1239.48,648.51l-138.21-121-17.41-15.25-15.26,17.41L904.68,716.83l-15.25,17.41,17.42,15.26,339.91,297.66,2.9,2.54,17.42,15.26,15.25-17.42,413.19-471.85a436.3,436.3,0,0,1,11.78,75.93C1723.07,889.58,1542.3,1096,1304.35,1111.76Z"/><path class="cls-2" d="M2054.37,1265.35l-3.08,20a18.71,18.71,0,1,0,37,5.69l3.07-20a18.28,18.28,0,0,0,.21-3.45,18.71,18.71,0,0,0-37.19-2.24Z"/><path class="cls-2" d="M2041.62,1348.2l-3.08,20a18.71,18.71,0,1,0,37,5.69l3.07-20a18.28,18.28,0,0,0,.21-3.45,18.71,18.71,0,0,0-37.19-2.24Z"/><path class="cls-2" d="M2050.21,1415.4a18.71,18.71,0,0,0-21.34,15.64l-3.08,20a18.71,18.71,0,1,0,37,5.69l3.07-20a18.28,18.28,0,0,0,.21-3.45A18.71,18.71,0,0,0,2050.21,1415.4Z"/><path class="cls-2" d="M2114.6,1005.69a18.72,18.72,0,0,0-21.34,15.65l-3.07,20a18.71,18.71,0,1,0,37,5.69l3.08-20a19.09,19.09,0,0,0,.21-3.44A18.73,18.73,0,0,0,2114.6,1005.69Z"/><path class="cls-2" d="M2101.85,1088.54a18.72,18.72,0,0,0-21.34,15.65l-3.07,20a18.71,18.71,0,1,0,37,5.69l3.08-20a19.09,19.09,0,0,0,.21-3.44A18.72,18.72,0,0,0,2101.85,1088.54Z"/><path class="cls-2" d="M2101.67,1212.7l3.08-20a19.15,19.15,0,0,0,.21-3.45,18.71,18.71,0,0,0-37.2-2.24l-3.07,20a18.71,18.71,0,1,0,37,5.69Z"/><path class="cls-2" d="M958.74,203.11c4.81-3.07,9.7-6.17,14.54-9.2.46-.28.9-.58,1.33-.9A21.33,21.33,0,0,0,953,156.48h0a20.71,20.71,0,0,0-2.36,1.29c-5,3.11-10,6.27-14.87,9.4a21.32,21.32,0,0,0,23,35.94Z"/><path class="cls-2" d="M893.29,252.68c.2-.15.4-.3.59-.46,4.47-3.52,9-7.08,13.56-10.58A21.33,21.33,0,0,0,884.34,206a22.31,22.31,0,0,0-3,1.95c-4.67,3.61-9.33,7.26-13.86,10.83a21.32,21.32,0,0,0,25.81,33.94Z"/><path class="cls-2" d="M811.43,308.63a21.37,21.37,0,0,0,27.13,1.58,20.49,20.49,0,0,0,3-2.68c3.62-3.89,7.47-8,11.75-12.49a21.32,21.32,0,0,0-27.64-32.19,21.64,21.64,0,0,0-3.25,2.8c-4.42,4.65-8.38,8.85-12.09,12.85A21.34,21.34,0,0,0,811.43,308.63Z"/><path class="cls-2" d="M766.41,373.51a21.26,21.26,0,0,0,29.86-4.2l1-1.3c3.11-4.15,6.26-8.25,9.35-12.2A21.32,21.32,0,1,0,773,329.53c-3.28,4.2-6.59,8.52-9.84,12.84l-1,1.28a21.32,21.32,0,0,0,4.19,29.86Z"/><path class="cls-2" d="M728,447a21.28,21.28,0,0,0,28.62-9.48c2.19-4.36,4.74-9.26,7.79-15a21.32,21.32,0,0,0-33.88-25.13,20.88,20.88,0,0,0-3.74,5c-3.22,6-5.93,11.24-8.28,15.91A21.34,21.34,0,0,0,728,447Z"/><path class="cls-2" d="M699.69,528.93A21.29,21.29,0,0,0,727.39,517c1.81-4.53,3.93-9.63,6.48-15.58A21.32,21.32,0,0,0,698,479.31a21,21,0,0,0-3.3,5.35c-2.69,6.29-4.94,11.71-6.88,16.56A21.36,21.36,0,0,0,699.69,528.93Z"/><path class="cls-2" d="M346.41,1266.15l-30.34,30.34a16.36,16.36,0,0,0,23.14,23.14l30.34-30.34a16.36,16.36,0,1,0-23.14-23.14Z"/><path class="cls-2" d="M475.05,1137.51l-30.34,30.34A16.36,16.36,0,1,0,467.85,1191l30.34-30.34a16.36,16.36,0,1,0-23.14-23.14Z"/><path class="cls-2" d="M467.85,1266.15a16.36,16.36,0,1,0-23.14,23.14l30.34,30.34a16.36,16.36,0,0,0,23.14-23.14Z"/><path class="cls-2" d="M339.21,1137.51a16.36,16.36,0,1,0-23.14,23.14L346.41,1191a16.36,16.36,0,1,0,23.14-23.14Z"/><path class="cls-2" d="M890,2018.08l-21.43,21.43a11.56,11.56,0,0,0,16.35,16.34l21.43-21.43A11.56,11.56,0,0,0,890,2018.08Z"/><path class="cls-2" d="M980.83,1927.21l-21.43,21.43A11.55,11.55,0,0,0,975.74,1965l21.43-21.43a11.55,11.55,0,0,0-16.34-16.34Z"/><path class="cls-2" d="M975.74,2018.08a11.55,11.55,0,1,0-16.34,16.34l21.43,21.43a11.55,11.55,0,0,0,16.34-16.34Z"/><path class="cls-2" d="M884.88,1927.21a11.56,11.56,0,0,0-16.35,16.34L890,1965a11.56,11.56,0,0,0,16.35-16.34Z"/><path class="cls-2" d="M2000.16,1632.65l-21.43,21.43a11.56,11.56,0,0,0,16.35,16.34l21.43-21.43a11.56,11.56,0,0,0-16.35-16.34Z"/><path class="cls-2" d="M2091,1541.78l-21.43,21.43a11.55,11.55,0,1,0,16.34,16.34l21.43-21.43a11.55,11.55,0,0,0-16.34-16.34Z"/><path class="cls-2" d="M2085.94,1632.65A11.55,11.55,0,0,0,2069.6,1649l21.43,21.43a11.55,11.55,0,0,0,16.34-16.34Z"/><path class="cls-2" d="M1995.08,1541.78a11.56,11.56,0,1,0-16.35,16.34l21.43,21.43a11.56,11.56,0,1,0,16.35-16.34Z"/><path class="cls-2" d="M1014.44,132l21.44-21.43a11.56,11.56,0,0,0-16.35-16.34L998.1,115.68A11.55,11.55,0,1,0,1014.44,132Z"/><path class="cls-2" d="M1105.31,41.16l21.43-21.43A11.56,11.56,0,1,0,1110.4,3.38L1089,24.81a11.56,11.56,0,1,0,16.34,16.35Z"/><path class="cls-2" d="M1110.4,132a11.55,11.55,0,1,0,16.34-16.34l-21.43-21.43A11.55,11.55,0,1,0,1089,110.59Z"/><path class="cls-2" d="M1019.53,41.16a11.56,11.56,0,0,0,16.35-16.34L1014.44,3.38A11.56,11.56,0,1,0,998.1,19.73Z"/><path class="cls-2" d="M1949.64,458.81l21.43-21.43A11.55,11.55,0,1,0,1954.73,421l-21.43,21.43a11.55,11.55,0,0,0,16.34,16.34Z"/><path class="cls-2" d="M2040.51,367.94l21.43-21.43a11.55,11.55,0,0,0-16.34-16.34l-21.43,21.43a11.55,11.55,0,0,0,16.34,16.34Z"/><path class="cls-2" d="M2045.6,458.81a11.55,11.55,0,0,0,16.34-16.34L2040.51,421a11.55,11.55,0,0,0-16.34,16.34Z"/><path class="cls-2" d="M1954.73,367.94a11.55,11.55,0,1,0,16.34-16.34l-21.43-21.43a11.55,11.55,0,0,0-16.34,16.34Z"/></g></g></svg>