<svg xmlns="http://www.w3.org/2000/svg" xmlns:xlink="http://www.w3.org/1999/xlink" width="500" viewBox="0 0 375 127.500001" height="170" preserveAspectRatio="xMidYMid meet"><defs><g></g><clipPath id="5ff0b9ca56"><path d="M 0.730469 0 L 374.265625 0 L 374.265625 127.003906 L 0.730469 127.003906 Z M 0.730469 0 " clip-rule="nonzero"></path></clipPath><clipPath id="89d28a94dc"><path d="M 55 16.664062 L 93 16.664062 L 93 45 L 55 45 Z M 55 16.664062 " clip-rule="nonzero"></path></clipPath></defs><g clip-path="url(#5ff0b9ca56)"><path fill="#f9fafb" d="M 0.730469 0 L 374.265625 0 L 374.265625 127.003906 L 0.730469 127.003906 Z M 0.730469 0 " fill-opacity="1" fill-rule="nonzero"></path><path fill="#f9fafb" d="M 0.730469 0 L 374.265625 0 L 374.265625 127.003906 L 0.730469 127.003906 Z M 0.730469 0 " fill-opacity="1" fill-rule="nonzero"></path></g><g fill="#3c6d16" fill-opacity="1"><g transform="translate(17.874247, 88.59272)"><g><path d="M 2.21875 0 L 34.640625 0 L 34.640625 -25.796875 C 34.640625 -34.640625 30.890625 -38.328125 21.375 -38.328125 L 2.21875 -38.328125 L 2.21875 -29.484375 L 19.90625 -29.484375 C 23 -29.484375 24.328125 -28.015625 24.328125 -25.0625 L 24.328125 -8.84375 L 12.53125 -8.84375 L 12.53125 -23.59375 L 2.21875 -23.59375 Z M 2.21875 0 "></path></g></g></g><g fill="#3c6d16" fill-opacity="1"><g transform="translate(54.734621, 88.59272)"><g><path d="M 2.21875 -14.75 L 12.53125 -14.75 L 12.53125 -38.328125 L 2.21875 -38.328125 Z M 2.21875 -14.75 "></path></g></g></g><g fill="#3c6d16" fill-opacity="1"><g transform="translate(69.478768, 88.59272)"><g><path d="M 2.21875 0 L 32.4375 0 L 32.4375 -6.640625 C 32.4375 -17.03125 27.9375 -23.59375 17.6875 -23.59375 C 14.59375 -23.59375 12.53125 -25.5 12.53125 -29.484375 L 12.53125 -38.328125 L 2.21875 -38.328125 L 2.21875 -31.703125 C 2.21875 -16.734375 12.015625 -14 17.6875 -14 C 20.5625 -14 21.890625 -12.3125 22.109375 -8.84375 L 2.21875 -8.84375 Z M 22.109375 -28.75 L 32.4375 -28.75 L 32.4375 -38.328125 L 22.109375 -38.328125 Z M 22.109375 -28.75 "></path></g></g></g><g fill="#3c6d16" fill-opacity="1"><g transform="translate(104.127524, 88.59272)"><g><path d="M 2.21875 -14.75 L 12.53125 -14.75 L 12.53125 -38.328125 L 2.21875 -38.328125 Z M 2.21875 -14.75 "></path></g></g></g><g fill="#3c6d16" fill-opacity="1"><g transform="translate(118.871671, 88.59272)"><g><path d="M 1.46875 -29.484375 L 28.375 -29.484375 L 32.4375 -38.328125 L 11.796875 -38.328125 L 11.796875 -47.921875 L 1.46875 -47.921875 Z M 3.6875 0 L 15.484375 0 L 25.796875 -23.59375 L 14.75 -23.59375 Z M 3.6875 0 "></path></g></g></g><g fill="#3c6d16" fill-opacity="1"><g transform="translate(151.898571, 88.59272)"><g><path d="M 2.21875 0 L 12.53125 0 L 12.53125 -29.484375 L 17.6875 -29.484375 C 23.890625 -29.484375 28.015625 -25.65625 28.015625 -19.171875 C 28.015625 -13.34375 23.890625 -8.84375 16.21875 -8.84375 L 16.21875 0 L 17.6875 0 C 31.765625 0 38.328125 -9.28125 38.328125 -19.171875 C 38.328125 -28.375 32.359375 -37.515625 19.90625 -38.328125 C 17.390625 -35.96875 14.890625 -33.546875 12.53125 -30.96875 L 12.53125 -38.328125 L 2.21875 -38.328125 Z M 2.21875 0 "></path></g></g></g><g fill="#3c6d16" fill-opacity="1"><g transform="translate(191.707776, 88.59272)"><g><path d="M 2.21875 0 L 12.53125 0 L 12.53125 -29.484375 L 17.6875 -29.484375 C 23.890625 -29.484375 28.015625 -25.65625 28.015625 -19.171875 C 28.015625 -13.34375 23.890625 -8.84375 16.21875 -8.84375 L 16.21875 0 L 17.6875 0 C 31.765625 0 38.328125 -9.28125 38.328125 -19.171875 C 38.328125 -28.375 32.359375 -37.515625 19.90625 -38.328125 C 17.390625 -35.96875 14.890625 -33.546875 12.53125 -30.96875 L 12.53125 -38.328125 L 2.21875 -38.328125 Z M 2.21875 0 "></path></g></g></g><g clip-path="url(#89d28a94dc)"><path fill="#afdc34" d="M 55.273438 43.636719 C 55.273438 43.636719 63.910156 30.488281 78.296875 28.808594 C 78.296875 28.808594 64.902344 35.363281 59.246094 44.382812 C 88.75 48.550781 92.863281 16.691406 92.863281 16.691406 C 57.699219 18.730469 55.273438 43.636719 55.273438 43.636719 " fill-opacity="1" fill-rule="nonzero"></path></g><g fill="#845333" fill-opacity="1"><g transform="translate(235.960462, 88.194569)"><g><path d="M 20.703125 -13.453125 L 20.703125 0 L 27.9375 0 L 27.9375 -13.453125 C 27.9375 -19.609375 23.8125 -26.90625 13.96875 -26.90625 L 5.171875 -26.90625 L 5.171875 -20.703125 L 12.421875 -20.703125 C 18.0625 -20.703125 20.703125 -18.171875 20.703125 -13.453125 Z M 1.03125 0 L 4.140625 0 C 10.875 0 12.421875 -3.421875 12.421875 -10.34375 L 12.421875 -16.5625 L 5.171875 -16.5625 L 5.171875 -9.828125 C 5.171875 -7.5 4.453125 -6.203125 2.59375 -6.203125 L 1.03125 -6.203125 Z M 1.03125 0 "></path></g></g></g><g fill="#845333" fill-opacity="1"><g transform="translate(265.451329, 88.194569)"><g><path d="M 1.546875 0 L 8.796875 0 L 8.796875 -26.90625 L 1.546875 -26.90625 Z M 1.546875 0 "></path></g></g></g><g fill="#845333" fill-opacity="1"><g transform="translate(275.799, 88.194569)"><g><path d="M 1.546875 0 L 8.796875 0 L 8.796875 -20.703125 C 15.984375 -20.703125 17.59375 -16.515625 17.59375 -13.453125 L 17.59375 0 L 24.84375 0 L 24.84375 -13.453125 C 24.84375 -19.453125 21.015625 -26.90625 10.34375 -26.90625 L 1.546875 -26.90625 Z M 1.546875 0 "></path></g></g></g><g fill="#845333" fill-opacity="1"><g transform="translate(302.185565, 88.194569)"><g><path d="M 1.546875 0 L 8.796875 0 L 8.796875 -26.90625 L 1.546875 -26.90625 Z M 1.546875 0 "></path></g></g></g><g fill="#845333" fill-opacity="1"><g transform="translate(312.533236, 88.194569)"><g><path d="M 1.546875 10.34375 L 8.796875 10.34375 L 8.796875 0 L 16.8125 0 L 25.609375 -16.5625 L 17.59375 -16.5625 L 8.796875 -0.515625 L 8.796875 -16.5625 L 1.546875 -16.5625 Z M 1.546875 -20.703125 L 25.875 -20.703125 L 25.875 -26.90625 L 1.546875 -26.90625 Z M 1.546875 -20.703125 "></path></g></g></g><g fill="#845333" fill-opacity="1"><g transform="translate(339.954565, 88.194569)"><g><path d="M 1.03125 -20.703125 L 19.921875 -20.703125 L 22.765625 -26.90625 L 8.28125 -26.90625 L 8.28125 -33.640625 L 1.03125 -33.640625 Z M 2.59375 0 L 10.875 0 L 18.109375 -16.5625 L 10.34375 -16.5625 Z M 2.59375 0 "></path></g></g></g></svg>