<?xml version="1.0" encoding="utf-8"?>
<!-- Generator: Adobe Illustrator 27.5.0, SVG Export Plug-In . SVG Version: 6.00 Build 0)  -->
<svg version="1.1" id="Layer_1" xmlns="http://www.w3.org/2000/svg" xmlns:xlink="http://www.w3.org/1999/xlink" x="0px" y="0px"
	 viewBox="0 0 4000 4000" style="enable-background:new 0 0 4000 4000;" xml:space="preserve">
<!-- <rect style="fill:#FFFFFF;" width="4000" height="4000"/> -->
<g>
	<path style="fill:#e7191f;" d="M2756.85,915.325l-199.83-199.83l-77.62-77.62h-16.48h-42.43H851.58v2680.74h1108.34h282.67h885.83
		v-85.01v-27.13v-1919.58L2756.85,915.325z M2832.59,1197.165l49.22,49.22l43.84,43.84h-20.6h-428.98v-4.91v-81.06v-296.61v-35v-32
		L2832.59,1197.165z M997.32,3172.875v-1261.25v-282.67v-737.48v-27.13v-80.73h1421.72l3.33,3.34v41.39v35v135.27v291.86v53.45
		h487.84h27.11h42.03l3.33,3.34v1825.61H997.32z"/>
	<path style="fill:#e7191f;" d="M1481.831,2389.369h1016.338c14.803,0,26.847-12.043,26.847-26.847s-12.043-26.847-26.847-26.847
		H1481.831c-14.803,0-26.847,12.043-26.847,26.847S1467.028,2389.369,1481.831,2389.369z"/>
	<path style="fill:#e7191f;" d="M2498.17,1951.395h-603.63h-282.59h-130.12c-14.8,0-26.85,12.05-26.85,26.85
		c0,0.53,0.02,1.06,0.05,1.59c0.6,10.35,7.1,19.14,16.18,23.07c3.26,1.41,6.85,2.19,10.62,2.19h1016.34
		c14.8,0,26.85-12.05,26.85-26.85c0-2.71-0.4-5.33-1.16-7.8C2520.51,1959.435,2510.26,1951.395,2498.17,1951.395z"/>
	<path style="fill:#e7191f;" d="M2511.33,1570.585c-3.89-2.2-8.38-3.46-13.16-3.46h-60.02h-956.32c-9.71,0-18.23,5.18-22.95,12.92
		c-2.47,4.06-3.9,8.83-3.9,13.92c0,4.8,1.27,9.32,3.5,13.23c4.61,8.13,13.35,13.62,23.35,13.62h396.86h282.6h336.88
		c14.8,0,26.85-12.04,26.85-26.85C2525.02,1583.945,2519.5,1575.195,2511.33,1570.585z"/>
	<path style="fill:#e7191f;" d="M2498.17,2719.955h-4.81h-562.08H1648.7h-166.87c-14.8,0-26.85,12.04-26.85,26.85
		c0,14.8,12.05,26.84,26.85,26.84h32.52h27.67h391.89h282.6h281.66c14.8,0,26.85-12.04,26.85-26.84c0-0.93-0.05-1.85-0.14-2.76
		C2523.49,2730.525,2512.04,2719.955,2498.17,2719.955z"/>
</g>
<g>
	<polygon style="fill:#333333;" points="994.83,3411.235 985.94,3318.615 851.58,1918.565 738.74,742.765 851.58,731.935 
		1831.67,637.875 2359.12,587.255 2420.49,637.875 2462.92,637.875 2376.3,566.425 2367.67,559.305 2356.54,560.375 
		1549.01,637.875 851.58,704.805 736.16,715.885 709.28,718.465 711.86,745.335 851.58,2201.175 958.82,3318.615 967.96,3413.815 
		970.54,3440.695 997.41,3438.115 2242.59,3318.615 1959.92,3318.615 	"/>
	<polygon style="fill:#333333;" points="3128.42,1526.865 3102.95,1261.425 3094.05,1168.725 3092.98,1157.585 3084.35,1150.475 
		2557.02,715.495 2756.85,915.325 3067.17,1171.295 3072.94,1231.415 3128.42,1809.525 3261.26,3193.725 3128.42,3206.475 
		3128.42,3233.605 3263.84,3220.605 3290.72,3218.025 3288.14,3191.155 	"/>
	<polygon style="fill:#333333;" points="2476.07,872.645 2476.07,907.645 2798.18,1173.345 2476.07,1204.255 2461.35,1205.665 
		2442.41,1207.485 2440.6,1188.545 2422.37,998.615 2408.27,851.715 2422.37,863.345 2422.37,828.345 2375.17,789.415 
		2413.72,1191.125 2416.65,1221.675 2418.12,1236.945 2422.37,1236.535 2433.39,1235.475 2463.93,1232.545 2476.07,1231.385 
		2832.59,1197.165 2865.65,1193.995 2658.78,1023.355 	"/>
	<polygon style="fill:#333333;" points="2903.25,1271.445 2905.05,1290.225 2925.65,1290.225 2881.81,1246.385 2476.07,1285.315 
		2422.37,1290.475 2369.8,1295.515 2320.67,783.615 2316.59,741.095 2312.95,738.095 1838.6,783.615 997.32,864.345 997.32,891.475 
		2121.19,783.615 2291.97,767.225 2293.54,783.615 2342.92,1298.095 2345.5,1324.975 2372.38,1322.395 2422.37,1317.595 
		2707.57,1290.225 	"/>
	<polygon style="fill:#333333;" points="2937.32,1343.925 2910.21,1343.925 2982.68,2099.115 3072.81,3038.285 2982.68,3046.935 
		1670.35,3172.875 1150.28,3222.785 1145.49,3172.875 997.32,1628.955 997.32,1911.625 1118.36,3172.875 1125.98,3252.245 
		1953.03,3172.875 2982.68,3074.065 3102.27,3062.585 2982.68,1816.515 	"/>
	<path style="fill:#333333;" d="M1572.72,2835.435l643.79-61.79h-282.6l-363.77,34.91c-14.73,1.41-27.87-9.42-29.29-24.16
		c-0.36-3.74,0.07-7.38,1.17-10.75h-27.67c-0.66,4.32-0.81,8.79-0.37,13.33C1516.81,2816.535,1543.16,2838.265,1572.72,2835.435z"/>
	<path style="fill:#333333;" d="M2581.83,2711.465l-88.47,8.49h4.81c13.87,0,25.32,10.57,26.71,24.09l59.53-5.71
		c29.56-2.83,51.29-29.18,48.46-58.74c-2.84-29.55-29.19-51.29-58.75-48.46l-925.42,88.82h282.58l645.42-61.94
		c14.74-1.41,27.88,9.42,29.29,24.16C2607.4,2696.915,2596.57,2710.045,2581.83,2711.465z"/>
	<path style="fill:#333333;" d="M1536.01,2452.911l1011.69-97.092c29.555-2.836,51.293-29.189,48.456-58.744
		s-29.189-51.293-58.744-48.456l-1011.69,97.092c-29.555,2.836-51.293,29.189-48.456,58.745
		C1480.102,2434.01,1506.454,2455.748,1536.01,2452.911z M1528.301,2372.587l1011.69-97.092
		c14.736-1.414,27.874,9.424,29.289,24.159c1.414,14.736-9.423,27.874-24.159,29.289l-1011.69,97.092
		c-14.736,1.414-27.874-9.423-29.289-24.159C1502.728,2387.14,1513.565,2374.001,1528.301,2372.587z"/>
	<path style="fill:#333333;" d="M1499.3,2070.395l680.36-65.3l331.33-31.8c4.49-0.43,8.8-1.4,12.87-2.85
		c22.72-8.06,37.99-30.82,35.59-55.89c-2.84-29.56-29.19-51.29-58.75-48.46l-888.75,85.3h282.59l608.74-58.42
		c14.74-1.41,27.87,9.42,29.29,24.16c1.41,14.73-9.42,27.87-24.16,29.29l-51.79,4.97l-559.56,53.7l-400.34,38.42
		c-14.74,1.41-27.87-9.42-29.29-24.16c-0.57-5.97,0.87-11.68,3.78-16.45c-9.08-3.93-15.58-12.72-16.18-23.07
		c-10.3,10.91-16.02,26.03-14.48,42.1C1443.39,2051.495,1469.74,2073.225,1499.3,2070.395z"/>
	<path style="fill:#333333;" d="M2471.7,1563.905l-33.55,3.22h60.02c4.78,0,9.27,1.26,13.16,3.46c8.34-10.53,12.78-24.16,11.4-38.55
		c-2.83-29.56-29.18-51.29-58.74-48.46l-870.51,83.55l-134.6,12.92l-6.58,0.63c-29.55,2.83-51.29,29.18-48.46,58.74
		c2.84,29.56,29.19,51.29,58.75,48.46l698.7-67.06h-282.6l-418.68,40.18c-14.74,1.41-27.88-9.42-29.29-24.16
		c-1.41-14.74,9.42-27.87,24.16-29.29l3.6-0.35l417.58-40.07l590.51-56.67c14.74-1.41,27.87,9.42,29.29,24.16
		C2497.27,1549.345,2486.43,1562.485,2471.7,1563.905z"/>
	<path style="fill:#333333;" d="M1217.591,3435.946l-23.459,2.275c-11.993,1.168-20.779,11.832-19.615,23.828
		c1.163,11.996,11.831,20.779,23.827,19.615l23.459-2.275c1.363-0.132,2.683-0.386,3.954-0.752
		c9.909-2.851,16.692-12.443,15.661-23.076C1240.255,3443.564,1229.587,3434.782,1217.591,3435.946z"/>
	<path style="fill:#333333;" d="M1120.279,3445.38l-23.459,2.275c-11.995,1.163-20.779,11.831-19.616,23.828
		c1.163,11.996,11.831,20.779,23.827,19.615l23.46-2.275c1.363-0.132,2.683-0.386,3.954-0.752
		c9.909-2.851,16.692-12.443,15.661-23.076C1142.943,3452.999,1132.275,3444.216,1120.279,3445.38z"/>
	<path style="fill:#333333;" d="M1022.966,3454.815l-23.459,2.275c-11.998,1.167-20.779,11.833-19.615,23.828
		c1.163,11.996,11.831,20.779,23.827,19.615l23.459-2.275c1.363-0.132,2.683-0.386,3.954-0.752
		c9.909-2.852,16.692-12.443,15.661-23.076C1045.631,3462.433,1034.963,3453.651,1022.966,3454.815z"/>
	<path style="fill:#333333;" d="M1504.582,3409.676l-23.459,2.274c-11.993,1.168-20.779,11.832-19.615,23.828
		c1.163,11.997,11.831,20.779,23.827,19.615l23.46-2.275c1.363-0.133,2.683-0.386,3.954-0.752
		c9.908-2.852,16.692-12.443,15.661-23.076C1527.246,3417.295,1516.579,3408.513,1504.582,3409.676z"/>
	<path style="fill:#333333;" d="M1407.27,3419.111l-23.458,2.274c-11.995,1.163-20.779,11.831-19.615,23.828
		c1.163,11.997,11.831,20.779,23.827,19.615l23.459-2.274c1.363-0.133,2.683-0.386,3.954-0.752
		c9.909-2.852,16.692-12.443,15.661-23.076C1429.934,3426.729,1419.266,3417.947,1407.27,3419.111z"/>
	<path style="fill:#333333;" d="M1309.957,3428.545l-23.458,2.275c-11.998,1.167-20.779,11.832-19.615,23.828
		c1.163,11.997,11.832,20.779,23.827,19.615l23.46-2.275c1.363-0.132,2.683-0.386,3.954-0.752
		c9.909-2.852,16.692-12.443,15.661-23.076C1332.622,3436.164,1321.954,3427.382,1309.957,3428.545z"/>
	<path style="fill:#333333;" d="M2698.76,792.462l18.087,15.112c1.051,0.878,2.159,1.64,3.311,2.288
		c8.986,5.056,20.579,3.155,27.428-5.043c7.728-9.249,6.495-23.012-2.755-30.74l-18.086-15.111
		c-9.25-7.722-23.012-6.494-30.74,2.755C2688.278,770.972,2689.511,784.735,2698.76,792.462z"/>
	<path style="fill:#333333;" d="M2623.733,729.776l18.088,15.112c1.051,0.878,2.158,1.64,3.311,2.288
		c8.986,5.056,20.579,3.155,27.428-5.043c7.728-9.249,6.495-23.012-2.755-30.74l-18.087-15.111
		c-9.248-7.727-23.012-6.495-30.74,2.755C2613.25,708.286,2614.484,722.048,2623.733,729.776z"/>
	<path style="fill:#333333;" d="M2545.951,636.35c-7.728,9.249-6.494,23.012,2.755,30.739l18.087,15.112
		c1.051,0.878,2.159,1.64,3.311,2.288c8.987,5.056,20.579,3.155,27.429-5.043c7.728-9.249,6.494-23.012-2.755-30.74l-18.087-15.111
		C2567.438,625.869,2553.678,627.101,2545.951,636.35z"/>
	<path style="fill:#333333;" d="M2918.922,978.427l18.088,15.112c1.051,0.878,2.158,1.64,3.311,2.288
		c8.986,5.056,20.579,3.154,27.429-5.044c7.728-9.249,6.494-23.012-2.755-30.739l-18.087-15.111
		c-9.25-7.722-23.012-6.494-30.74,2.755C2908.439,956.937,2909.673,970.7,2918.922,978.427z"/>
	<path style="fill:#333333;" d="M2843.895,915.741l18.087,15.112c1.051,0.878,2.158,1.64,3.311,2.288
		c8.986,5.056,20.579,3.154,27.429-5.043c7.728-9.249,6.494-23.012-2.755-30.74l-18.087-15.111
		c-9.248-7.727-23.012-6.495-30.74,2.755C2833.412,894.251,2834.645,908.013,2843.895,915.741z"/>
	<path style="fill:#333333;" d="M2768.867,853.054l18.088,15.112c1.051,0.878,2.159,1.64,3.311,2.288
		c8.986,5.056,20.58,3.155,27.429-5.044c7.728-9.249,6.494-23.012-2.755-30.74l-18.087-15.111
		c-9.252-7.726-23.013-6.494-30.74,2.755C2758.385,831.564,2759.618,845.327,2768.867,853.054z"/>
	<path style="fill:#333333;" d="M3224.561,2017.83l35.385-35.385c7.452-7.452,7.452-19.534,0-26.985
		c-7.452-7.452-19.534-7.452-26.985,0l-35.386,35.385c-7.452,7.452-7.452,19.534,0,26.985
		C3205.027,2025.282,3217.109,2025.282,3224.561,2017.83z"/>
	<path style="fill:#333333;" d="M3374.6,1867.791l35.385-35.385c7.452-7.452,7.452-19.534,0-26.985
		c-7.452-7.452-19.533-7.452-26.985,0l-35.385,35.385c-7.452,7.452-7.452,19.534,0,26.985S3367.148,1875.243,3374.6,1867.791z"/>
	<path style="fill:#333333;" d="M3374.6,1955.459c-7.452-7.452-19.534-7.452-26.986,0c-7.452,7.452-7.452,19.534,0,26.986
		L3383,2017.83c7.452,7.452,19.534,7.452,26.985,0c7.452-7.452,7.452-19.534,0-26.985L3374.6,1955.459z"/>
	<path style="fill:#333333;" d="M3232.961,1867.791c7.452,7.452,19.533,7.452,26.985,0c7.452-7.452,7.452-19.534,0-26.985
		l-35.385-35.385c-7.452-7.452-19.534-7.452-26.986,0c-7.452,7.452-7.452,19.534,0,26.986L3232.961,1867.791z"/>
	<path style="fill:#333333;" d="M2454.012,585.689l24.995-24.995c5.264-5.264,5.264-13.798,0-19.062
		c-5.264-5.264-13.798-5.264-19.062,0l-24.995,24.995c-5.264,5.264-5.264,13.798,0,19.061
		C2440.214,590.953,2448.748,590.953,2454.012,585.689z"/>
	<path style="fill:#333333;" d="M2559.994,479.706l24.995-24.995c5.264-5.264,5.264-13.798,0-19.062
		c-5.264-5.264-13.798-5.264-19.062,0l-24.995,24.995c-5.264,5.264-5.264,13.798,0,19.062
		C2546.197,484.97,2554.731,484.97,2559.994,479.706z"/>
	<path style="fill:#333333;" d="M2565.928,585.689c5.264,5.264,13.798,5.264,19.062,0c5.264-5.264,5.264-13.798,0-19.062
		l-24.995-24.995c-5.264-5.264-13.798-5.264-19.062,0c-5.264,5.264-5.264,13.798,0,19.062L2565.928,585.689z"/>
	<path style="fill:#333333;" d="M2459.945,479.707c5.264,5.264,13.798,5.264,19.062,0c5.264-5.264,5.264-13.798,0-19.062
		l-24.995-24.995c-5.264-5.264-13.798-5.264-19.062,0c-5.264,5.264-5.264,13.798,0,19.061L2459.945,479.707z"/>
	<path style="fill:#333333;" d="M2616.266,3440.536l-24.995,24.995c-5.264,5.264-5.264,13.798,0,19.062
		c5.264,5.264,13.798,5.264,19.062,0l24.995-24.995c5.264-5.264,5.264-13.798,0-19.062S2621.529,3435.272,2616.266,3440.536z"/>
	<path style="fill:#333333;" d="M2722.248,3334.553l-24.995,24.995c-5.264,5.264-5.264,13.798,0,19.062
		c5.264,5.264,13.798,5.264,19.062,0l24.995-24.995c5.264-5.264,5.264-13.798,0-19.062
		C2736.046,3329.289,2727.512,3329.289,2722.248,3334.553z"/>
	<path style="fill:#333333;" d="M2716.315,3440.536c-5.264-5.264-13.798-5.264-19.062,0c-5.264,5.264-5.264,13.798,0,19.062
		l24.995,24.995c5.264,5.264,13.798,5.264,19.062,0s5.264-13.798,0-19.062L2716.315,3440.536z"/>
	<path style="fill:#333333;" d="M2610.332,3334.553c-5.264-5.264-13.798-5.264-19.062,0c-5.264,5.264-5.264,13.798,0,19.062
		l24.995,24.995c5.264,5.264,13.798,5.264,19.062,0s5.264-13.798,0-19.062L2610.332,3334.553z"/>
	<path style="fill:#333333;" d="M802.556,3449.97l-24.995,24.995c-5.264,5.264-5.264,13.798,0,19.062
		c5.264,5.264,13.798,5.264,19.062,0l24.995-24.995c5.264-5.264,5.264-13.798,0-19.062
		C816.353,3444.706,807.819,3444.706,802.556,3449.97z"/>
	<path style="fill:#333333;" d="M908.538,3343.988l-24.995,24.995c-5.264,5.264-5.264,13.798,0,19.062
		c5.264,5.264,13.798,5.264,19.062,0l24.995-24.995c5.264-5.264,5.264-13.798,0-19.062
		C922.336,3338.724,913.802,3338.724,908.538,3343.988z"/>
	<path style="fill:#333333;" d="M902.604,3449.97c-5.264-5.264-13.798-5.264-19.062,0c-5.264,5.264-5.264,13.798,0,19.062
		l24.995,24.995c5.264,5.264,13.798,5.264,19.062,0c5.264-5.264,5.264-13.798,0-19.062L902.604,3449.97z"/>
	<path style="fill:#333333;" d="M796.622,3343.988c-5.264-5.264-13.798-5.264-19.062,0c-5.264,5.264-5.264,13.798,0,19.062
		l24.995,24.995c5.264,5.264,13.798,5.264,19.062,0c5.264-5.264,5.264-13.798,0-19.062L796.622,3343.988z"/>
	<path style="fill:#333333;" d="M585.288,1064.54l-24.995,24.995c-5.264,5.264-5.264,13.798,0,19.062
		c5.264,5.264,13.798,5.264,19.062,0l24.995-24.995c5.264-5.264,5.264-13.798,0-19.062
		C599.086,1059.277,590.552,1059.277,585.288,1064.54z"/>
	<path style="fill:#333333;" d="M691.271,958.558l-24.995,24.995c-5.264,5.264-5.264,13.798,0,19.062
		c5.264,5.264,13.798,5.264,19.062,0l24.995-24.995c5.264-5.264,5.264-13.798,0-19.061
		C705.068,953.294,696.534,953.294,691.271,958.558z"/>
	<path style="fill:#333333;" d="M685.337,1064.541c-5.264-5.264-13.798-5.264-19.062,0c-5.264,5.264-5.264,13.798,0,19.062
		l24.995,24.995c5.264,5.264,13.798,5.264,19.062,0c5.264-5.264,5.264-13.798,0-19.062L685.337,1064.541z"/>
	<path style="fill:#333333;" d="M579.355,958.558c-5.264-5.264-13.798-5.264-19.062,0c-5.264,5.264-5.264,13.798,0,19.062
		l24.995,24.995c5.264,5.264,13.798,5.264,19.062,0c5.264-5.264,5.264-13.798,0-19.062L579.355,958.558z"/>
</g>
</svg>
