<svg xmlns="http://www.w3.org/2000/svg" viewBox="0 0 1391.79 1342.21"><defs><style>.cls-1{fill:#fff;}.cls-2{fill:#ffa073;}.cls-3{fill:#e0deda;}.cls-4{fill:silver;}.cls-5{fill:#d72626;}</style></defs><g id="Layer_2" data-name="Layer 2"><g id="Layer_1-2" data-name="Layer 1"><path class="cls-1" d="M1098.4,470.07v755.17a107,107,0,0,1-107,107H376.94a107,107,0,0,1-107-107V320.9a107,107,0,0,1,107-107H857.05A50.24,50.24,0,0,1,893.87,230L1085,435.9A50.24,50.24,0,0,1,1098.4,470.07Z"/><path class="cls-2" d="M991.44,1342.21H376.94a117.11,117.11,0,0,1-117-117V320.9a117.11,117.11,0,0,1,117-117H857.05a60.42,60.42,0,0,1,44.15,19.26l191.12,205.9a60.09,60.09,0,0,1,16.08,41v755.17A117.1,117.1,0,0,1,991.44,1342.21ZM376.94,223.93a97.08,97.08,0,0,0-97,97v904.34a97.08,97.08,0,0,0,97,97h614.5a97.07,97.07,0,0,0,97-97V470.07a40.12,40.12,0,0,0-10.74-27.37L886.54,236.8a40.34,40.34,0,0,0-29.49-12.87Z"/><path class="cls-3" d="M1082.88,450.35H884.43a5.47,5.47,0,0,1-5.47-5.46V233.55a7.7,7.7,0,0,1,13.35-5.24L1087.84,439A6.77,6.77,0,0,1,1082.88,450.35Z"/><path class="cls-2" d="M1082.88,460.35H884.43A15.49,15.49,0,0,1,869,444.89V233.55a17.71,17.71,0,0,1,30.68-12l195.53,210.66a16.77,16.77,0,0,1-12.29,28.18ZM889,440.35h186.52L889,239.4Z"/><rect class="cls-4" x="366.73" y="338.09" width="349.46" height="33.79"/><rect class="cls-4" x="366.73" y="1034.09" width="463.39" height="33.79"/><rect class="cls-4" x="366.73" y="1118.09" width="589.39" height="33.79"/><rect class="cls-4" x="661.43" y="1191.59" width="294.7" height="33.79"/><circle class="cls-5" cx="684.15" cy="722.2" r="231.45"/><path class="cls-1" d="M684.15,490.75c-127.83,0-231.45,103.62-231.45,231.45S556.32,953.65,684.15,953.65,915.6,850,915.6,722.2,812,490.75,684.15,490.75Zm0,439.16c-113.41,0-205.34-91.94-205.34-205.34s91.93-205.34,205.34-205.34,205.34,91.93,205.34,205.34S797.55,929.91,684.15,929.91Z"/><path class="cls-5" d="M684.15,958.15A236,236,0,1,1,851,889,234.41,234.41,0,0,1,684.15,958.15Zm0-462.9c-125.14,0-226.95,101.81-226.95,227S559,949.15,684.15,949.15s227-101.81,227-226.95S809.29,495.25,684.15,495.25Zm0,439.16c-115.71,0-209.84-94.14-209.84-209.84s94.13-209.84,209.84-209.84S894,608.86,894,724.57,799.85,934.41,684.15,934.41Zm0-410.68c-110.74,0-200.84,90.1-200.84,200.84s90.1,200.84,200.84,200.84S885,835.31,885,724.57,794.89,523.73,684.15,523.73Z"/><path class="cls-1" d="M571.9,680.54l175.83,151a41.53,41.53,0,0,0,58.55-4.44h0a41.51,41.51,0,0,0-4.44-58.54L626,617.56A41.51,41.51,0,0,0,567.46,622h0A41.51,41.51,0,0,0,571.9,680.54Z"/><path class="cls-1" d="M801.84,680.54,626,831.58a41.51,41.51,0,0,1-58.54-4.44h0a41.51,41.51,0,0,1,4.44-58.54l175.83-151A41.53,41.53,0,0,1,806.28,622h0A41.51,41.51,0,0,1,801.84,680.54Z"/><circle class="cls-2" cx="153.39" cy="1013.55" r="32.25" transform="translate(-671.76 405.33) rotate(-45)"/><polygon class="cls-2" points="1230.43 1077.44 1196.62 1028.75 1204.84 1023.04 1233.3 1064.04 1280.08 1035.9 1311.21 1080.74 1357.98 1052.6 1391.79 1101.29 1383.57 1106.99 1355.11 1066 1308.34 1094.14 1277.21 1049.3 1230.43 1077.44"/><polygon class="cls-2" points="26.82 321.64 0 268.77 8.92 264.25 31.5 308.76 81.69 287.29 106.39 335.97 156.58 314.5 183.39 367.37 174.47 371.89 151.9 327.38 101.71 348.85 77.01 300.17 26.82 321.64"/><polygon class="cls-2" points="58.5 1228.21 3.79 1205.38 7.65 1196.15 53.7 1215.37 77.97 1166.47 128.35 1187.49 152.61 1138.6 207.31 1161.42 203.46 1170.65 157.41 1151.43 133.14 1200.33 82.77 1179.31 58.5 1228.21"/><polygon class="cls-2" points="1268.99 402.8 1328.13 406.84 1327.45 416.81 1277.66 413.42 1270.39 467.52 1215.93 463.8 1208.67 517.9 1149.53 513.86 1150.22 503.89 1200 507.29 1207.27 453.19 1261.73 456.91 1268.99 402.8"/><polygon class="cls-2" points="814.15 23.46 860.17 0 864.12 7.76 825.38 27.51 844.17 71.22 801.79 92.81 820.58 136.51 774.56 159.96 770.61 152.2 809.35 132.45 790.56 88.76 832.94 67.16 814.15 23.46"/><circle class="cls-2" cx="1214.04" cy="628.98" r="27.53" transform="translate(-89.17 1042.68) rotate(-45)"/><circle class="cls-2" cx="1181.79" cy="1184.14" r="32.25"/><circle class="cls-2" cx="61.69" cy="490.75" r="32.25"/></g></g></svg>