<svg id="objects" xmlns="http://www.w3.org/2000/svg" viewBox="0 0 484.05 498.46"><defs><style>.cls-1{fill:#ffa073;}</style></defs><path class="cls-1" d="M353.2,294.78c-50.46,91-77.51,167.13-77.51,167.13C217.31,357.54,115.51,318.28,115.51,318.28c85.38-3.15,147.32,42.19,147.32,42.19C320.53,254.37,413,148.88,479.41,112.72,479.41,112.72,401.52,207.68,353.2,294.78Z" transform="translate(-57.97 -50.77)"/><path class="cls-1" d="M535,248.3a247.06,247.06,0,0,0-29-69.44l-13.58,8.46a228.82,228.82,0,0,1,35.07,134.9c-2.46,47.1-19.86,94.2-49.49,131a239.66,239.66,0,0,1-24.17,26.2,246.81,246.81,0,0,1-27.94,22.18l-7.48,4.88c-58.91,38.35-132.36,42.5-198.21,22.3-2.86-.88-5.64-2-8.44-3.09a237.56,237.56,0,0,1-55-30.3,242.43,242.43,0,0,1-27.16-23.66C104,446,85.44,414.22,73.62,380.07A248.72,248.72,0,0,1,65,344.93,260.86,260.86,0,0,1,62,308.84a236.87,236.87,0,0,1,115.46-205c32.38-18.2,60.37-25.75,68.85-25,0,0-45.79,13.4-74.18,41.11,0,0,14.27,22.08,42.62,16.76,33.44-6.27,37-40.79,81.68-59.83,0,0-32.33-31.95-75-25.13-25.33,4.05-54.53,26.92-55.58,54.38a30.77,30.77,0,0,0,.1,4.1q-6.24,4.1-12.23,8.56A238.47,238.47,0,0,0,58,308.85a263.16,263.16,0,0,0,2.63,36.77,250.85,250.85,0,0,0,8.26,36A238.78,238.78,0,0,0,125,476.28a247.61,247.61,0,0,0,27.47,24.61c19.45,14.89,41.75,27.9,65.16,35.46C289.8,559.67,367.66,551.43,432,510.78a258.62,258.62,0,0,0,29.61-22.86,252.45,252.45,0,0,0,25.76-27.16A234,234,0,0,0,508.72,430c3.26-5.35,6-11,8.9-16.53C531.5,386.3,539,353.78,541.49,323.1A247.63,247.63,0,0,0,535,248.3Z" transform="translate(-57.97 -50.77)"/></svg>