<?xml version="1.0" encoding="UTF-8"?>
<svg id="Layer_2" data-name="Layer 2" xmlns="http://www.w3.org/2000/svg" viewBox="0 0 1101.83 1334.19">
  <defs>
    <style>
      .cls-1 {
        fill: #6f6f6f;
      }

      .cls-2 {
        fill: #dadada;
      }

      .cls-3 {
        fill: gray;
      }

      .cls-4 {
        fill: #fff;
      }

      .cls-5 {
        fill: #ccc;
      }

      .cls-6 {
        fill: #1a1a1a;
      }

      .cls-7 {
        fill: #b3b3b3;
      }

      .cls-8 {
        fill: #999;
      }

      .cls-9 {
        fill: #3e3e3e;
      }

      .cls-10 {
        fill: #595959;
      }

      .cls-11 {
        fill: #797979;
      }

      .cls-12 {
        fill: #696969;
      }
    </style>
  </defs>
  <g id="Layer_1-2" data-name="Layer 1">
    <g>
      <path class="cls-4" d="M550.89,628.6c-.22,0-.44,0-.66,0-.07,0-.14,0-.21,0-.22.02-.45.05-.67.09-.22.02-.44.05-.66.08-.22.04-.44.09-.66.14-.2.04-.39.08-.59.13h-.09c-.06.03-.13.06-.19.09-.29.09-.58.19-.87.29-.21.08-.41.16-.61.25-.21.09-.41.18-.61.28-.2.1-.39.2-.59.31-.19.1-.39.22-.58.33-.19.12-.37.24-.55.36-.18.13-.36.26-.54.39-.18.14-.34.28-.52.42-.17.14-.33.29-.5.45-.16.15-.32.31-.47.47-.16.16-.31.32-.45.49-.15.17-.29.34-.43.51-.14.18-.27.35-.4.54-.13.18-.25.36-.37.55-.12.19-.24.38-.35.57-.11.2-.21.4-.31.6-.1.2-.19.39-.28.59-.09.2-.18.41-.26.62-.08.21-.15.41-.22.62-.07.21-.14.43-.2.64-.06.21-.11.43-.16.64-.05.22-.09.44-.12.66-.04.22-.07.44-.1.66-.03.22-.06.45-.09.67,0,.22,0,.44,0,.66v.26c0,.22,0,.44,0,.66,0,.07,0,.14,0,.22.02.22.05.44.09.66.02.22.06.44.09.66.04.22.09.44.14.66.04.2.08.39.12.59v.09c.03.06.06.13.09.19.09.29.18.58.29.87.08.21.16.42.25.62.09.2.17.4.27.6.1.2.2.39.31.59.1.2.21.39.33.58.12.19.24.38.37.56.12.18.25.37.38.54.14.18.27.35.42.52.14.17.29.34.44.5.15.16.31.32.47.47.16.15.32.3.49.45.17.14.34.28.52.43.18.14.35.27.53.4.18.13.36.25.55.38.18.12.38.23.57.34.19.11.39.22.59.31.2.1.4.2.61.29.2.09.41.17.61.25.21.09.42.16.63.23.21.07.43.13.64.18.21.06.43.12.65.17.21.04.43.09.65.12.22.04.44.07.66.1.22.04.44.07.66.09.22,0,.45,0,.67,0,.09,0,.17,0,.26,0,.22,0,.44,0,.66,0,.07,0,.14,0,.2,0,.23-.03.45-.05.68-.09.22-.02.44-.06.66-.09.22-.04.43-.09.65-.14.2-.04.4-.08.6-.13h.09c.07-.03.13-.06.19-.09.3-.09.59-.18.88-.29.2-.08.41-.16.61-.25.21-.09.41-.18.61-.27.2-.1.39-.2.59-.31.2-.1.39-.21.58-.33.19-.12.38-.24.56-.36.18-.12.37-.25.54-.39.18-.13.35-.27.52-.42.17-.14.34-.29.5-.43.16-.15.32-.31.47-.47.15-.16.3-.32.45-.48.14-.17.29-.34.43-.51.14-.18.27-.35.4-.53.13-.18.25-.36.38-.55.12-.18.23-.38.34-.57.11-.19.21-.4.31-.6.1-.19.2-.39.29-.59.09-.2.17-.41.25-.61.08-.21.16-.42.23-.63.07-.21.13-.42.19-.63.06-.22.12-.43.17-.65.05-.21.09-.43.12-.66.04-.22.07-.44.1-.66.04-.22.07-.45.09-.67,0-.22,0-.44,0-.66v-.26c0-.22,0-.44,0-.67,0-.07,0-.14,0-.21-.02-.22-.06-.45-.09-.67-.02-.22-.05-.44-.09-.66-.04-.22-.09-.44-.14-.66-.04-.2-.08-.4-.12-.59v-.09c-.03-.07-.06-.13-.09-.2-.09-.29-.19-.58-.29-.87-.08-.21-.16-.41-.25-.62-.08-.2-.17-.41-.27-.6-.1-.2-.2-.4-.31-.59-.11-.19-.21-.39-.33-.58-.12-.19-.24-.37-.36-.55-.12-.18-.26-.37-.39-.54-.14-.18-.27-.35-.42-.52-.15-.17-.29-.34-.45-.5-.15-.16-.31-.32-.47-.47-.16-.16-.32-.3-.49-.45-.17-.14-.34-.28-.51-.42-.18-.14-.35-.27-.54-.4-.18-.13-.37-.25-.56-.38-.19-.12-.38-.23-.57-.34-.2-.11-.39-.21-.59-.31-.2-.1-.4-.2-.61-.29-.2-.09-.41-.17-.61-.25-.2-.08-.41-.16-.62-.23-.21-.07-.43-.13-.64-.18-.22-.06-.43-.12-.65-.17-.22-.04-.43-.09-.65-.12-.22-.04-.44-.07-.66-.1-.22-.03-.44-.07-.66-.09-.22,0-.44,0-.67,0-.08,0-.16,0-.25,0v-.02Z"/>
      <path class="cls-4" d="M550.89,628.6c-.22,0-.44,0-.66,0-.07,0-.14,0-.21,0-.22.02-.45.05-.67.09-.22.02-.44.05-.66.08-.22.04-.44.09-.66.14-.2.04-.39.08-.59.13h-.09c-.06.03-.13.06-.19.09-.29.09-.58.19-.87.29-.21.08-.41.16-.61.25-.21.09-.41.18-.61.28-.2.1-.39.2-.59.31-.19.1-.39.22-.58.33-.19.12-.37.24-.55.36-.18.13-.36.26-.54.39-.18.14-.34.28-.52.42-.17.14-.33.29-.5.45-.16.15-.32.31-.47.47-.16.16-.31.32-.45.49-.15.17-.29.34-.43.51-.14.18-.27.35-.4.54-.13.18-.25.36-.37.55-.12.19-.24.38-.35.57-.11.2-.21.4-.31.6-.1.2-.19.39-.28.59-.09.2-.18.41-.26.62-.08.21-.15.41-.22.62-.07.21-.14.43-.2.64-.06.21-.11.43-.16.64-.05.22-.09.44-.12.66-.04.22-.07.44-.1.66-.03.22-.06.45-.09.67,0,.22,0,.44,0,.66v.26c0,.22,0,.44,0,.66,0,.07,0,.14,0,.22.02.22.05.44.09.66.02.23.06.45.09.68.04.22.09.44.14.66.04.2.08.39.12.59v.09c.03.06.06.13.09.19.09.29.18.58.29.87.08.21.16.42.25.62.09.2.17.4.27.6.1.2.2.39.31.59.1.2.21.39.33.58.12.19.24.38.37.56.12.18.25.37.38.54.14.18.27.35.42.52.14.17.29.34.44.5.15.16.31.32.47.47.16.15.32.3.49.45.17.14.34.28.52.43.18.14.35.27.53.4.18.13.36.25.55.38.18.12.38.23.57.34.19.11.39.22.59.31.2.1.4.2.61.29.2.09.41.17.61.25.21.09.42.16.63.23.21.07.43.13.64.18.21.06.43.11.65.16.21.05.43.09.65.12.22.04.44.07.66.1.22.03.44.07.66.09.22,0,.45,0,.67,0h.26c.22,0,.44,0,.66,0,.07,0,.14,0,.2,0,.23-.02.45-.05.68-.09.22-.02.44-.05.66-.09.22-.04.43-.09.65-.14.2-.04.4-.08.6-.12h.09c.07-.03.13-.06.19-.09.3-.09.59-.19.88-.29.2-.08.41-.16.61-.25.21-.09.41-.18.61-.28.2-.1.39-.2.59-.31.2-.1.39-.21.58-.33.19-.12.38-.24.56-.36.18-.13.37-.26.54-.4.18-.13.35-.27.52-.41.17-.14.34-.29.5-.44.16-.15.32-.31.47-.47.15-.16.3-.32.45-.48.14-.17.29-.34.43-.51.14-.18.27-.35.4-.53.13-.18.25-.37.38-.55.12-.19.23-.38.34-.57.11-.19.21-.39.31-.59.1-.2.2-.4.29-.59.09-.2.17-.41.25-.61.08-.21.16-.42.23-.63.07-.21.13-.42.19-.63.06-.21.12-.43.17-.65.05-.22.09-.44.12-.66.04-.22.07-.44.1-.66.04-.22.07-.44.09-.66,0-.22,0-.44,0-.66v-.26c0-.23,0-.45,0-.68,0-.07,0-.14,0-.2-.02-.23-.06-.45-.09-.68-.02-.22-.05-.44-.09-.66-.04-.22-.09-.44-.14-.66-.04-.2-.08-.39-.12-.59v-.09c-.03-.07-.06-.13-.09-.2-.09-.3-.19-.59-.29-.87-.08-.21-.16-.42-.25-.62-.08-.21-.17-.41-.27-.6-.1-.2-.2-.4-.31-.59-.11-.2-.21-.39-.33-.58-.12-.19-.24-.37-.36-.55-.12-.18-.26-.36-.39-.54-.14-.17-.27-.34-.42-.51-.15-.17-.29-.34-.45-.51-.15-.16-.31-.32-.47-.47-.16-.16-.32-.31-.49-.45-.17-.15-.34-.29-.51-.43-.18-.14-.35-.27-.54-.4-.18-.13-.37-.25-.56-.37-.19-.12-.38-.24-.57-.35-.2-.11-.39-.21-.59-.31-.2-.1-.4-.2-.61-.29-.2-.09-.41-.17-.61-.25-.2-.08-.41-.16-.62-.23-.21-.07-.43-.13-.64-.19-.22-.06-.43-.12-.65-.17-.22-.05-.43-.09-.65-.13-.22-.04-.44-.07-.66-.1-.22-.04-.44-.07-.66-.09-.22,0-.44,0-.67,0h-.26Z"/>
      <path class="cls-4" d="M550.89,628.6c-.22,0-.44,0-.66,0-.07,0-.14,0-.21,0-.22.02-.45.05-.67.09-.22.02-.44.05-.66.08-.22.04-.44.09-.66.14-.2.04-.39.08-.59.13h-.09c-.06.03-.13.06-.19.09-.29.09-.58.19-.87.29-.21.08-.41.16-.61.25-.21.09-.41.18-.61.28-.2.1-.39.2-.59.31-.19.1-.39.22-.58.33-.19.12-.37.24-.55.36-.18.13-.36.26-.54.39-.18.14-.34.28-.52.42-.17.14-.33.29-.5.45-.16.15-.32.31-.47.47-.16.16-.31.32-.45.49-.15.17-.29.34-.43.51-.14.18-.27.35-.4.54-.13.18-.25.36-.37.55-.12.19-.24.38-.35.57-.11.2-.21.4-.31.6-.1.2-.19.39-.28.59-.09.2-.18.41-.26.62-.08.21-.15.41-.22.62-.07.21-.14.43-.2.64-.06.21-.11.43-.16.64-.05.22-.09.44-.12.66-.04.22-.07.44-.1.66-.03.22-.06.45-.09.67,0,.22,0,.44,0,.66v.26c0,.22,0,.44,0,.66,0,.07,0,.14,0,.22.02.22.05.44.09.66.02.23.06.45.09.68.04.22.09.44.14.66.04.2.08.39.12.59v.09c.03.06.06.13.09.19.09.29.18.58.29.87.08.21.16.42.25.62.09.2.17.4.27.6.1.2.2.39.31.59.1.2.21.39.33.58.12.19.24.38.37.56.12.18.25.37.38.54.14.18.27.35.42.52.14.17.29.34.44.5.15.16.31.32.47.47.16.15.32.3.49.45.17.14.34.28.52.43.18.14.35.27.53.4.18.13.36.25.55.38.18.12.38.23.57.34.19.11.39.22.59.31.2.1.4.2.61.29.2.09.41.17.61.25.21.09.42.16.63.23.21.07.43.13.64.18.21.06.43.11.65.16.21.05.43.09.65.12.22.04.44.07.66.1.22.03.44.07.66.09.22,0,.45,0,.67,0h.26c.22,0,.44,0,.66,0,.07,0,.14,0,.2,0,.23-.02.45-.05.68-.09.22-.02.44-.05.66-.09.22-.04.43-.09.65-.14.2-.04.4-.08.6-.12h.09c.07-.03.13-.06.19-.09.3-.09.59-.19.88-.29.2-.08.41-.16.61-.25.21-.09.41-.18.61-.28.2-.1.39-.2.59-.31.2-.1.39-.21.58-.33.19-.12.38-.24.56-.36.18-.13.37-.26.54-.4.18-.13.35-.27.52-.41.17-.14.34-.29.5-.44.16-.15.32-.31.47-.47.15-.16.3-.32.45-.48.14-.17.29-.34.43-.51.14-.18.27-.35.4-.53.13-.18.25-.37.38-.55.12-.19.23-.38.34-.57.11-.19.21-.39.31-.59.1-.2.2-.4.29-.59.09-.2.17-.41.25-.61.08-.21.16-.42.23-.63.07-.21.13-.42.19-.63.06-.21.12-.43.17-.65.05-.22.09-.44.12-.66.04-.22.07-.44.1-.66.04-.22.07-.44.09-.66,0-.22,0-.44,0-.66v-.26c0-.23,0-.45,0-.68,0-.07,0-.14,0-.2-.02-.23-.06-.45-.09-.68-.02-.22-.05-.44-.09-.66-.04-.22-.09-.44-.14-.66-.04-.2-.08-.39-.12-.59v-.09c-.03-.07-.06-.13-.09-.2-.09-.3-.19-.59-.29-.87-.08-.21-.16-.42-.25-.62-.08-.21-.17-.41-.27-.6-.1-.2-.2-.4-.31-.59-.11-.2-.21-.39-.33-.58-.12-.19-.24-.37-.36-.55-.12-.18-.26-.36-.39-.54-.14-.17-.27-.34-.42-.51-.15-.17-.29-.34-.45-.51-.15-.16-.31-.32-.47-.47-.16-.16-.32-.31-.49-.45-.17-.15-.34-.29-.51-.43-.18-.14-.35-.27-.54-.4-.18-.13-.37-.25-.56-.37-.19-.12-.38-.24-.57-.35-.2-.11-.39-.21-.59-.31-.2-.1-.4-.2-.61-.29-.2-.09-.41-.17-.61-.25-.2-.08-.41-.16-.62-.23-.21-.07-.43-.13-.64-.19-.22-.06-.43-.12-.65-.17-.22-.05-.43-.09-.65-.13-.22-.04-.44-.07-.66-.1-.22-.04-.44-.07-.66-.09-.22,0-.44,0-.67,0h-.26Z"/>
      <path class="cls-4" d="M550.89,628.6c-.22,0-.44,0-.66,0-.07,0-.14,0-.21,0-.22.02-.45.05-.67.09-.22.02-.44.05-.66.08-.22.04-.44.09-.66.14-.2.04-.39.08-.59.13h-.09c-.06.03-.13.06-.19.09-.29.09-.58.19-.87.29-.21.08-.41.16-.61.25-.21.09-.41.18-.61.28-.2.1-.39.2-.59.31-.19.1-.39.22-.58.33-.19.12-.37.24-.55.36-.18.13-.36.26-.54.39-.18.14-.34.28-.52.42-.17.14-.33.29-.5.45-.16.15-.32.31-.47.47-.16.16-.31.32-.45.49-.15.17-.29.34-.43.51-.14.18-.27.35-.4.54-.13.18-.25.36-.37.55-.12.19-.24.38-.35.57-.11.2-.21.4-.31.6-.1.2-.19.39-.28.59-.09.2-.18.41-.26.62-.08.21-.15.41-.22.62-.07.21-.14.43-.2.64-.06.21-.11.43-.16.64-.05.22-.09.44-.12.66-.04.22-.07.44-.1.66-.03.22-.06.45-.09.67,0,.22,0,.44,0,.66v.26c0,.22,0,.44,0,.66,0,.07,0,.14,0,.22.02.22.05.44.09.66.02.23.06.45.09.68.04.22.09.44.14.66.04.2.08.39.12.59v.09c.03.06.06.13.09.19.09.29.18.58.29.87.08.21.16.42.25.62.09.2.17.4.27.6.1.2.2.39.31.59.1.2.21.39.33.58.12.19.24.38.37.56.12.18.25.37.38.54.14.18.27.35.42.52.14.17.29.34.44.5.15.16.31.32.47.47.16.15.32.3.49.45.17.14.34.28.52.43.18.14.35.27.53.4.18.13.36.25.55.38.18.12.38.23.57.34.19.11.39.22.59.31.2.1.4.2.61.29.2.09.41.17.61.25.21.09.42.16.63.23.21.07.43.13.64.18.21.06.43.11.65.16.21.05.43.09.65.12.22.04.44.07.66.1.22.03.44.07.66.09.22,0,.45,0,.67,0h.26c.22,0,.44,0,.66,0,.07,0,.14,0,.2,0,.23-.02.45-.05.68-.09.22-.02.44-.05.66-.09.22-.04.43-.09.65-.14.2-.04.4-.08.6-.12h.09c.07-.03.13-.06.19-.09.3-.09.59-.19.88-.29.2-.08.41-.16.61-.25.21-.09.41-.18.61-.28.2-.1.39-.2.59-.31.2-.1.39-.21.58-.33.19-.12.38-.24.56-.36.18-.13.37-.26.54-.4.18-.13.35-.27.52-.41.17-.14.34-.29.5-.44.16-.15.32-.31.47-.47.15-.16.3-.32.45-.48.14-.17.29-.34.43-.51.14-.18.27-.35.4-.53.13-.18.25-.37.38-.55.12-.19.23-.38.34-.57.11-.19.21-.39.31-.59.1-.2.2-.4.29-.59.09-.2.17-.41.25-.61.08-.21.16-.42.23-.63.07-.21.13-.42.19-.63.06-.21.12-.43.17-.65.05-.22.09-.44.12-.66.04-.22.07-.44.1-.66.04-.22.07-.44.09-.66,0-.22,0-.44,0-.66v-.26c0-.23,0-.45,0-.68,0-.07,0-.14,0-.2-.02-.23-.06-.45-.09-.68-.02-.22-.05-.44-.09-.66-.04-.22-.09-.44-.14-.66-.04-.2-.08-.39-.12-.59v-.09c-.03-.07-.06-.13-.09-.2-.09-.3-.19-.59-.29-.87-.08-.21-.16-.42-.25-.62-.08-.21-.17-.41-.27-.6-.1-.2-.2-.4-.31-.59-.11-.2-.21-.39-.33-.58-.12-.19-.24-.37-.36-.55-.12-.18-.26-.36-.39-.54-.14-.17-.27-.34-.42-.51-.15-.17-.29-.34-.45-.51-.15-.16-.31-.32-.47-.47-.16-.16-.32-.31-.49-.45-.17-.15-.34-.29-.51-.43-.18-.14-.35-.27-.54-.4-.18-.13-.37-.25-.56-.37-.19-.12-.38-.24-.57-.35-.2-.11-.39-.21-.59-.31-.2-.1-.4-.2-.61-.29-.2-.09-.41-.17-.61-.25-.2-.08-.41-.16-.62-.23-.21-.07-.43-.13-.64-.19-.22-.06-.43-.12-.65-.17-.22-.05-.43-.09-.65-.13-.22-.04-.44-.07-.66-.1-.22-.04-.44-.07-.66-.09-.22,0-.44,0-.67,0h-.26Z"/>
      <path class="cls-4" d="M550.89,628.6c-.22,0-.44,0-.66,0-.07,0-.14,0-.21,0-.22.02-.45.05-.67.09-.22.02-.44.05-.66.08-.22.04-.44.09-.66.14-.2.04-.39.08-.59.13h-.09c-.06.03-.13.06-.19.09-.29.09-.58.19-.87.29-.21.08-.41.16-.61.25-.21.09-.41.18-.61.28-.2.1-.39.2-.59.31-.19.1-.39.22-.58.33-.19.12-.37.24-.55.36-.18.13-.36.26-.54.39-.18.14-.34.28-.52.42-.17.14-.33.29-.5.45-.16.15-.32.31-.47.47-.16.16-.31.32-.45.49-.15.17-.29.34-.43.51-.14.18-.27.35-.4.54-.13.18-.25.36-.37.55-.12.19-.24.38-.35.57-.11.2-.21.4-.31.6-.1.2-.19.39-.28.59-.09.2-.18.41-.26.62-.08.21-.15.41-.22.62-.07.21-.14.43-.2.64-.06.21-.11.43-.16.64-.05.22-.09.44-.12.66-.04.22-.07.44-.1.66-.03.22-.06.45-.09.67,0,.22,0,.44,0,.66v.26c0,.22,0,.44,0,.66,0,.07,0,.14,0,.22.02.22.05.44.09.66.02.23.06.45.09.68.04.22.09.44.14.66.04.2.08.39.12.59v.09c.03.06.06.13.09.19.09.29.18.58.29.87.08.21.16.42.25.62.09.2.17.4.27.6.1.2.2.39.31.59.1.2.21.39.33.58.12.19.24.38.37.56.12.18.25.37.38.54.14.18.27.35.42.52.14.17.29.34.44.5.15.16.31.32.47.47.16.15.32.3.49.45.17.14.34.28.52.43.18.14.35.27.53.4.18.13.36.25.55.38.18.12.38.23.57.34.19.11.39.22.59.31.2.1.4.2.61.29.2.09.41.17.61.25.21.09.42.16.63.23.21.07.43.13.64.18.21.06.43.11.65.16.21.05.43.09.65.12.22.04.44.07.66.1.22.03.44.07.66.09.22,0,.45,0,.67,0h.26c.22,0,.44,0,.66,0,.07,0,.14,0,.2,0,.23-.02.45-.05.68-.09.22-.02.44-.05.66-.09.22-.04.43-.09.65-.14.2-.04.4-.08.6-.12h.09c.07-.03.13-.06.19-.09.3-.09.59-.19.88-.29.2-.08.41-.16.61-.25.21-.09.41-.18.61-.28.2-.1.39-.2.59-.31.2-.1.39-.21.58-.33.19-.12.38-.24.56-.36.18-.13.37-.26.54-.4.18-.13.35-.27.52-.41.17-.14.34-.29.5-.44.16-.15.32-.31.47-.47.15-.16.3-.32.45-.48.14-.17.29-.34.43-.51.14-.18.27-.35.4-.53.13-.18.25-.37.38-.55.12-.19.23-.38.34-.57.11-.19.21-.39.31-.59.1-.2.2-.4.29-.59.09-.2.17-.41.25-.61.08-.21.16-.42.23-.63.07-.21.13-.42.19-.63.06-.21.12-.43.17-.65.05-.22.09-.44.12-.66.04-.22.07-.44.1-.66.04-.22.07-.44.09-.66,0-.22,0-.44,0-.66v-.26c0-.23,0-.45,0-.68,0-.07,0-.14,0-.2-.02-.23-.06-.45-.09-.68-.02-.22-.05-.44-.09-.66-.04-.22-.09-.44-.14-.66-.04-.2-.08-.39-.12-.59v-.09c-.03-.07-.06-.13-.09-.2-.09-.3-.19-.59-.29-.87-.08-.21-.16-.42-.25-.62-.08-.21-.17-.41-.27-.6-.1-.2-.2-.4-.31-.59-.11-.2-.21-.39-.33-.58-.12-.19-.24-.37-.36-.55-.12-.18-.26-.36-.39-.54-.14-.17-.27-.34-.42-.51-.15-.17-.29-.34-.45-.51-.15-.16-.31-.32-.47-.47-.16-.16-.32-.31-.49-.45-.17-.15-.34-.29-.51-.43-.18-.14-.35-.27-.54-.4-.18-.13-.37-.25-.56-.37-.19-.12-.38-.24-.57-.35-.2-.11-.39-.21-.59-.31-.2-.1-.4-.2-.61-.29-.2-.09-.41-.17-.61-.25-.2-.08-.41-.16-.62-.23-.21-.07-.43-.13-.64-.19-.22-.06-.43-.12-.65-.17-.22-.05-.43-.09-.65-.13-.22-.04-.44-.07-.66-.1-.22-.04-.44-.07-.66-.09-.22,0-.44,0-.67,0h-.26Z"/>
      <path class="cls-4" d="M550.89,628.6c-.22,0-.44,0-.66,0-.07,0-.14,0-.21,0-.22.02-.45.05-.67.09-.22.02-.44.05-.66.08-.22.04-.44.09-.66.14-.2.04-.39.08-.59.13h-.09c-.06.03-.13.06-.19.09-.29.09-.58.19-.87.29-.21.08-.41.16-.61.25-.21.09-.41.18-.61.28-.2.1-.39.2-.59.31-.19.1-.39.22-.58.33-.19.12-.37.24-.55.36-.18.13-.36.26-.54.39-.18.14-.34.28-.52.42-.17.14-.33.29-.5.45-.16.15-.32.31-.47.47-.16.16-.31.32-.45.49-.15.17-.29.34-.43.51-.14.18-.27.35-.4.54-.13.18-.25.36-.37.55-.12.19-.24.38-.35.57-.11.2-.21.4-.31.6-.1.2-.19.39-.28.59-.09.2-.18.41-.26.62-.08.21-.15.41-.22.62-.07.21-.14.43-.2.64-.06.21-.11.43-.16.64-.05.22-.09.44-.12.66-.04.22-.07.44-.1.66-.03.22-.06.45-.09.67,0,.22,0,.44,0,.66v.26c0,.22,0,.44,0,.66,0,.07,0,.14,0,.22.02.22.05.44.09.66.02.23.06.45.09.68.04.22.09.44.14.66.04.2.08.39.12.59v.09c.03.06.06.13.09.19.09.29.18.58.29.87.08.21.16.42.25.62.09.2.17.4.27.6.1.2.2.39.31.59.1.2.21.39.33.58.12.19.24.38.37.56.12.18.25.37.38.54.14.18.27.35.42.52.14.17.29.34.44.5.15.16.31.32.47.47.16.15.32.3.49.45.17.14.34.28.52.43.18.14.35.27.53.4.18.13.36.25.55.38.18.12.38.23.57.34.19.11.39.22.59.31.2.1.4.2.61.29.2.09.41.17.61.25.21.09.42.16.63.23.21.07.43.13.64.18.21.06.43.11.65.16.21.05.43.09.65.12.22.04.44.07.66.1.22.03.44.07.66.09.22,0,.45,0,.67,0h.26c.22,0,.44,0,.66,0,.07,0,.14,0,.2,0,.23-.02.45-.05.68-.09.22-.02.44-.05.66-.09.22-.04.43-.09.65-.14.2-.04.4-.08.6-.12h.09c.07-.03.13-.06.19-.09.3-.09.59-.19.88-.29.2-.08.41-.16.61-.25.21-.09.41-.18.61-.28.2-.1.39-.2.59-.31.2-.1.39-.21.58-.33.19-.12.38-.24.56-.36.18-.13.37-.26.54-.4.18-.13.35-.27.52-.41.17-.14.34-.29.5-.44.16-.15.32-.31.47-.47.15-.16.3-.32.45-.48.14-.17.29-.34.43-.51.14-.18.27-.35.4-.53.13-.18.25-.37.38-.55.12-.19.23-.38.34-.57.11-.19.21-.39.31-.59.1-.2.2-.4.29-.59.09-.2.17-.41.25-.61.08-.21.16-.42.23-.63.07-.21.13-.42.19-.63.06-.21.12-.43.17-.65.05-.22.09-.44.12-.66.04-.22.07-.44.1-.66.04-.22.07-.44.09-.66,0-.22,0-.44,0-.66v-.26c0-.23,0-.45,0-.68,0-.07,0-.14,0-.2-.02-.23-.06-.45-.09-.68-.02-.22-.05-.44-.09-.66-.04-.22-.09-.44-.14-.66-.04-.2-.08-.39-.12-.59v-.09c-.03-.07-.06-.13-.09-.2-.09-.3-.19-.59-.29-.87-.08-.21-.16-.42-.25-.62-.08-.21-.17-.41-.27-.6-.1-.2-.2-.4-.31-.59-.11-.2-.21-.39-.33-.58-.12-.19-.24-.37-.36-.55-.12-.18-.26-.36-.39-.54-.14-.17-.27-.34-.42-.51-.15-.17-.29-.34-.45-.51-.15-.16-.31-.32-.47-.47-.16-.16-.32-.31-.49-.45-.17-.15-.34-.29-.51-.43-.18-.14-.35-.27-.54-.4-.18-.13-.37-.25-.56-.37-.19-.12-.38-.24-.57-.35-.2-.11-.39-.21-.59-.31-.2-.1-.4-.2-.61-.29-.2-.09-.41-.17-.61-.25-.2-.08-.41-.16-.62-.23-.21-.07-.43-.13-.64-.19-.22-.06-.43-.12-.65-.17-.22-.05-.43-.09-.65-.13-.22-.04-.44-.07-.66-.1-.22-.04-.44-.07-.66-.09-.22,0-.44,0-.67,0h-.26Z"/>
      <path class="cls-4" d="M550.89,628.6c-.22,0-.44,0-.66,0-.07,0-.14,0-.21,0-.22.02-.45.05-.67.09-.22.02-.44.05-.66.08-.22.04-.44.09-.66.14-.2.04-.39.08-.59.13h-.09c-.06.03-.13.06-.19.09-.29.09-.58.19-.87.29-.21.08-.41.16-.61.25-.21.09-.41.18-.61.28-.2.1-.39.2-.59.31-.19.1-.39.22-.58.33-.19.12-.37.24-.55.36-.18.13-.36.26-.54.39-.18.14-.34.28-.52.42-.17.14-.33.29-.5.45-.16.15-.32.31-.47.47-.16.16-.31.32-.45.49-.15.17-.29.34-.43.51-.14.18-.27.35-.4.54-.13.18-.25.36-.37.55-.12.19-.24.38-.35.57-.11.2-.21.4-.31.6-.1.2-.19.39-.28.59-.09.2-.18.41-.26.62-.08.21-.15.41-.22.62-.07.21-.14.43-.2.64-.06.21-.11.43-.16.64-.05.22-.09.44-.12.66-.04.22-.07.44-.1.66-.03.22-.06.45-.09.67,0,.22,0,.44,0,.66v.26c0,.22,0,.44,0,.66,0,.07,0,.14,0,.22.02.22.05.44.09.66.02.23.06.45.09.68.04.22.09.44.14.66.04.2.08.39.12.59v.09c.03.06.06.13.09.19.09.29.18.58.29.87.08.21.16.42.25.62.09.2.17.4.27.6.1.2.2.39.31.59.1.2.21.39.33.58.12.19.24.38.37.56.12.18.25.37.38.54.14.18.27.35.42.52.14.17.29.34.44.5.15.16.31.32.47.47.16.15.32.3.49.45.17.14.34.28.52.43.18.14.35.27.53.4.18.13.36.25.55.38.18.12.38.23.57.34.19.11.39.22.59.31.2.1.4.2.61.29.2.09.41.17.61.25.21.09.42.16.63.23.21.07.43.13.64.18.21.06.43.11.65.16.21.05.43.09.65.12.22.04.44.07.66.1.22.03.44.07.66.09.22,0,.45,0,.67,0h.26c.22,0,.44,0,.66,0,.07,0,.14,0,.2,0,.23-.02.45-.05.68-.09.22-.02.44-.05.66-.09.22-.04.43-.09.65-.14.2-.04.4-.08.6-.12h.09c.07-.03.13-.06.19-.09.3-.09.59-.19.88-.29.2-.08.41-.16.61-.25.21-.09.41-.18.61-.28.2-.1.39-.2.59-.31.2-.1.39-.21.58-.33.19-.12.38-.24.56-.36.18-.13.37-.26.54-.4.18-.13.35-.27.52-.41.17-.14.34-.29.5-.44.16-.15.32-.31.47-.47.15-.16.3-.32.45-.48.14-.17.29-.34.43-.51.14-.18.27-.35.4-.53.13-.18.25-.37.38-.55.12-.19.23-.38.34-.57.11-.19.21-.39.31-.59.1-.2.2-.4.29-.59.09-.2.17-.41.25-.61.08-.21.16-.42.23-.63.07-.21.13-.42.19-.63.06-.21.12-.43.17-.65.05-.22.09-.44.12-.66.04-.22.07-.44.1-.66.04-.22.07-.44.09-.66,0-.22,0-.44,0-.66v-.26c0-.23,0-.45,0-.68,0-.07,0-.14,0-.2-.02-.23-.06-.45-.09-.68-.02-.22-.05-.44-.09-.66-.04-.22-.09-.44-.14-.66-.04-.2-.08-.39-.12-.59v-.09c-.03-.07-.06-.13-.09-.2-.09-.3-.19-.59-.29-.87-.08-.21-.16-.42-.25-.62-.08-.21-.17-.41-.27-.6-.1-.2-.2-.4-.31-.59-.11-.2-.21-.39-.33-.58-.12-.19-.24-.37-.36-.55-.12-.18-.26-.36-.39-.54-.14-.17-.27-.34-.42-.51-.15-.17-.29-.34-.45-.51-.15-.16-.31-.32-.47-.47-.16-.16-.32-.31-.49-.45-.17-.15-.34-.29-.51-.43-.18-.14-.35-.27-.54-.4-.18-.13-.37-.25-.56-.37-.19-.12-.38-.24-.57-.35-.2-.11-.39-.21-.59-.31-.2-.1-.4-.2-.61-.29-.2-.09-.41-.17-.61-.25-.2-.08-.41-.16-.62-.23-.21-.07-.43-.13-.64-.19-.22-.06-.43-.12-.65-.17-.22-.05-.43-.09-.65-.13-.22-.04-.44-.07-.66-.1-.22-.04-.44-.07-.66-.09-.22,0-.44,0-.67,0h-.26Z"/>
      <path class="cls-4" d="M550.89,628.6c-.22,0-.44,0-.66,0-.07,0-.14,0-.21,0-.22.02-.45.05-.67.09-.22.02-.44.05-.66.08-.22.04-.44.09-.66.14-.2.04-.39.08-.59.13h-.09c-.06.03-.13.06-.19.09-.29.09-.58.19-.87.29-.21.08-.41.16-.61.25-.21.09-.41.18-.61.28-.2.1-.39.2-.59.31-.19.1-.39.22-.58.33-.19.12-.37.24-.55.36-.18.13-.36.26-.54.39-.18.14-.34.28-.52.42-.17.14-.33.29-.5.45-.16.15-.32.31-.47.47-.16.16-.31.32-.45.49-.15.17-.29.34-.43.51-.14.18-.27.35-.4.54-.13.18-.25.36-.37.55-.12.19-.24.38-.35.57-.11.2-.21.4-.31.6-.1.2-.19.39-.28.59-.09.2-.18.41-.26.62-.08.21-.15.41-.22.62-.07.21-.14.43-.2.64-.06.21-.11.43-.16.64-.05.22-.09.44-.12.66-.04.22-.07.44-.1.66-.03.22-.06.45-.09.67,0,.22,0,.44,0,.66v.26c0,.22,0,.44,0,.66,0,.07,0,.14,0,.22.02.22.05.44.09.66.02.23.06.45.09.68.04.22.09.44.14.66.04.2.08.39.12.59v.09c.03.06.06.13.09.19.09.29.18.58.29.87.08.21.16.42.25.62.09.2.17.4.27.6.1.2.2.39.31.59.1.2.21.39.33.58.12.19.24.38.37.56.12.18.25.37.38.54.14.18.27.35.42.52.14.17.29.34.44.5.15.16.31.32.47.47.16.15.32.3.49.45.17.14.34.28.52.43.18.14.35.27.53.4.18.13.36.25.55.38.18.12.38.23.57.34.19.11.39.22.59.31.2.1.4.2.61.29.2.09.41.17.61.25.21.09.42.16.63.23.21.07.43.13.64.18.21.06.43.11.65.16.21.05.43.09.65.12.22.04.44.07.66.1.22.03.44.07.66.09.22,0,.45,0,.67,0h.26c.22,0,.44,0,.66,0,.07,0,.14,0,.2,0,.23-.02.45-.05.68-.09.22-.02.44-.05.66-.09.22-.04.43-.09.65-.14.2-.04.4-.08.6-.12h.09c.07-.03.13-.06.19-.09.3-.09.59-.19.88-.29.2-.08.41-.16.61-.25.21-.09.41-.18.61-.28.2-.1.39-.2.59-.31.2-.1.39-.21.58-.33.19-.12.38-.24.56-.36.18-.13.37-.26.54-.4.18-.13.35-.27.52-.41.17-.14.34-.29.5-.44.16-.15.32-.31.47-.47.15-.16.3-.32.45-.48.14-.17.29-.34.43-.51.14-.18.27-.35.4-.53.13-.18.25-.37.38-.55.12-.19.23-.38.34-.57.11-.19.21-.39.31-.59.1-.2.2-.4.29-.59.09-.2.17-.41.25-.61.08-.21.16-.42.23-.63.07-.21.13-.42.19-.63.06-.21.12-.43.17-.65.05-.22.09-.44.12-.66.04-.22.07-.44.1-.66.04-.22.07-.44.09-.66,0-.22,0-.44,0-.66v-.26c0-.23,0-.45,0-.68,0-.07,0-.14,0-.2-.02-.23-.06-.45-.09-.68-.02-.22-.05-.44-.09-.66-.04-.22-.09-.44-.14-.66-.04-.2-.08-.39-.12-.59v-.09c-.03-.07-.06-.13-.09-.2-.09-.3-.19-.59-.29-.87-.08-.21-.16-.42-.25-.62-.08-.21-.17-.41-.27-.6-.1-.2-.2-.4-.31-.59-.11-.2-.21-.39-.33-.58-.12-.19-.24-.37-.36-.55-.12-.18-.26-.36-.39-.54-.14-.17-.27-.34-.42-.51-.15-.17-.29-.34-.45-.51-.15-.16-.31-.32-.47-.47-.16-.16-.32-.31-.49-.45-.17-.15-.34-.29-.51-.43-.18-.14-.35-.27-.54-.4-.18-.13-.37-.25-.56-.37-.19-.12-.38-.24-.57-.35-.2-.11-.39-.21-.59-.31-.2-.1-.4-.2-.61-.29-.2-.09-.41-.17-.61-.25-.2-.08-.41-.16-.62-.23-.21-.07-.43-.13-.64-.19-.22-.06-.43-.12-.65-.17-.22-.05-.43-.09-.65-.13-.22-.04-.44-.07-.66-.1-.22-.04-.44-.07-.66-.09-.22,0-.44,0-.67,0h-.26Z"/>
      <path class="cls-4" d="M550.89,628.6c-.22,0-.44,0-.66,0-.07,0-.14,0-.21,0-.22.02-.45.05-.67.09-.22.02-.44.05-.66.08-.22.04-.44.09-.66.14-.2.04-.39.08-.59.13h-.09c-.06.03-.13.06-.19.09-.29.09-.58.19-.87.29-.21.08-.41.16-.61.25-.21.09-.41.18-.61.28-.2.1-.39.2-.59.31-.19.1-.39.22-.58.33-.19.12-.37.24-.55.36-.18.13-.36.26-.54.39-.18.14-.34.28-.52.42-.17.14-.33.29-.5.45-.16.15-.32.31-.47.47-.16.16-.31.32-.45.49-.15.17-.29.34-.43.51-.14.18-.27.35-.4.54-.13.18-.25.36-.37.55-.12.19-.24.38-.35.57-.11.2-.21.4-.31.6-.1.2-.19.39-.28.59-.09.2-.18.41-.26.62-.08.21-.15.41-.22.62-.07.21-.14.43-.2.64-.06.21-.11.43-.16.64-.05.22-.09.44-.12.66-.04.22-.07.44-.1.66-.03.22-.06.45-.09.67,0,.22,0,.44,0,.66v.26c0,.22,0,.44,0,.66,0,.07,0,.14,0,.22.02.22.05.44.09.66.02.23.06.45.09.68.04.22.09.44.14.66.04.2.08.39.12.59v.09c.03.06.06.13.09.19.09.29.18.58.29.87.08.21.16.42.25.62.09.2.17.4.27.6.1.2.2.39.31.59.1.2.21.39.33.58.12.19.24.38.37.56.12.18.25.37.38.54.14.18.27.35.42.52.14.17.29.34.44.5.15.16.31.32.47.47.16.15.32.3.49.45.17.14.34.28.52.43.18.14.35.27.53.4.18.13.36.25.55.38.18.12.38.23.57.34.19.11.39.22.59.31.2.1.4.2.61.29.2.09.41.17.61.25.21.09.42.16.63.23.21.07.43.13.64.18.21.06.43.11.65.16.21.05.43.09.65.12.22.04.44.07.66.1.22.03.44.07.66.09.22,0,.45,0,.67,0h.26c.22,0,.44,0,.66,0,.07,0,.14,0,.2,0,.23-.02.45-.05.68-.09.22-.02.44-.05.66-.09.22-.04.43-.09.65-.14.2-.04.4-.08.6-.12h.09c.07-.03.13-.06.19-.09.3-.09.59-.19.88-.29.2-.08.41-.16.61-.25.21-.09.41-.18.61-.28.2-.1.39-.2.59-.31.2-.1.39-.21.58-.33.19-.12.38-.24.56-.36.18-.13.37-.26.54-.4.18-.13.35-.27.52-.41.17-.14.34-.29.5-.44.16-.15.32-.31.47-.47.15-.16.3-.32.45-.48.14-.17.29-.34.43-.51.14-.18.27-.35.4-.53.13-.18.25-.37.38-.55.12-.19.23-.38.34-.57.11-.19.21-.39.31-.59.1-.2.2-.4.29-.59.09-.2.17-.41.25-.61.08-.21.16-.42.23-.63.07-.21.13-.42.19-.63.06-.21.12-.43.17-.65.05-.22.09-.44.12-.66.04-.22.07-.44.1-.66.04-.22.07-.44.09-.66,0-.22,0-.44,0-.66v-.26c0-.23,0-.45,0-.68,0-.07,0-.14,0-.2-.02-.23-.06-.45-.09-.68-.02-.22-.05-.44-.09-.66-.04-.22-.09-.44-.14-.66-.04-.2-.08-.39-.12-.59v-.09c-.03-.07-.06-.13-.09-.2-.09-.3-.19-.59-.29-.87-.08-.21-.16-.42-.25-.62-.08-.21-.17-.41-.27-.6-.1-.2-.2-.4-.31-.59-.11-.2-.21-.39-.33-.58-.12-.19-.24-.37-.36-.55-.12-.18-.26-.36-.39-.54-.14-.17-.27-.34-.42-.51-.15-.17-.29-.34-.45-.51-.15-.16-.31-.32-.47-.47-.16-.16-.32-.31-.49-.45-.17-.15-.34-.29-.51-.43-.18-.14-.35-.27-.54-.4-.18-.13-.37-.25-.56-.37-.19-.12-.38-.24-.57-.35-.2-.11-.39-.21-.59-.31-.2-.1-.4-.2-.61-.29-.2-.09-.41-.17-.61-.25-.2-.08-.41-.16-.62-.23-.21-.07-.43-.13-.64-.19-.22-.06-.43-.12-.65-.17-.22-.05-.43-.09-.65-.13-.22-.04-.44-.07-.66-.1-.22-.04-.44-.07-.66-.09-.22,0-.44,0-.67,0h-.26Z"/>
      <path class="cls-4" d="M550.89,628.6c-.22,0-.44,0-.66,0-.07,0-.14,0-.21,0-.22.02-.45.05-.67.09-.22.02-.44.05-.66.08-.22.04-.44.09-.66.14-.2.04-.39.08-.59.13h-.09c-.06.03-.13.06-.19.09-.29.09-.58.19-.87.29-.21.08-.41.16-.61.25-.21.09-.41.18-.61.28-.2.1-.39.2-.59.31-.19.1-.39.22-.58.33-.19.12-.37.24-.55.36-.18.13-.36.26-.54.39-.18.14-.34.28-.52.42-.17.14-.33.29-.5.45-.16.15-.32.31-.47.47-.16.16-.31.32-.45.49-.15.17-.29.34-.43.51-.14.18-.27.35-.4.54-.13.18-.25.36-.37.55-.12.19-.24.38-.35.57-.11.2-.21.4-.31.6-.1.2-.19.39-.28.59-.09.2-.18.41-.26.62-.08.21-.15.41-.22.62-.07.21-.14.43-.2.64-.06.21-.11.43-.16.64-.05.22-.09.44-.12.66-.04.22-.07.44-.1.66-.03.22-.06.45-.09.67,0,.22,0,.44,0,.66v.26c0,.22,0,.44,0,.66,0,.07,0,.14,0,.22.02.22.05.44.09.66.02.23.06.45.09.68.04.22.09.44.14.66.04.2.08.39.12.59v.09c.03.06.06.13.09.19.09.29.18.58.29.87.08.21.16.42.25.62.09.2.17.4.27.6.1.2.2.39.31.59.1.2.21.39.33.58.12.19.24.38.37.56.12.18.25.37.38.54.14.18.27.35.42.52.14.17.29.34.44.5.15.16.31.32.47.47.16.15.32.3.49.45.17.14.34.28.52.43.18.14.35.27.53.4.18.13.36.25.55.38.18.12.38.23.57.34.19.11.39.22.59.31.2.1.4.2.61.29.2.09.41.17.61.25.21.09.42.16.63.23.21.07.43.13.64.18.21.06.43.11.65.16.21.05.43.09.65.12.22.04.44.07.66.1.22.03.44.07.66.09.22,0,.45,0,.67,0h.26c.22,0,.44,0,.66,0,.07,0,.14,0,.2,0,.23-.02.45-.05.68-.09.22-.02.44-.05.66-.09.22-.04.43-.09.65-.14.2-.04.4-.08.6-.12h.09c.07-.03.13-.06.19-.09.3-.09.59-.19.88-.29.2-.08.41-.16.61-.25.21-.09.41-.18.61-.28.2-.1.39-.2.59-.31.2-.1.39-.21.58-.33.19-.12.38-.24.56-.36.18-.13.37-.26.54-.4.18-.13.35-.27.52-.41.17-.14.34-.29.5-.44.16-.15.32-.31.47-.47.15-.16.3-.32.45-.48.14-.17.29-.34.43-.51.14-.18.27-.35.4-.53.13-.18.25-.37.38-.55.12-.19.23-.38.34-.57.11-.19.21-.39.31-.59.1-.2.2-.4.29-.59.09-.2.17-.41.25-.61.08-.21.16-.42.23-.63.07-.21.13-.42.19-.63.06-.21.12-.43.17-.65.05-.22.09-.44.12-.66.04-.22.07-.44.1-.66.04-.22.07-.44.09-.66,0-.22,0-.44,0-.66v-.26c0-.23,0-.45,0-.68,0-.07,0-.14,0-.2-.02-.23-.06-.45-.09-.68-.02-.22-.05-.44-.09-.66-.04-.22-.09-.44-.14-.66-.04-.2-.08-.39-.12-.59v-.09c-.03-.07-.06-.13-.09-.2-.09-.3-.19-.59-.29-.87-.08-.21-.16-.42-.25-.62-.08-.21-.17-.41-.27-.6-.1-.2-.2-.4-.31-.59-.11-.2-.21-.39-.33-.58-.12-.19-.24-.37-.36-.55-.12-.18-.26-.36-.39-.54-.14-.17-.27-.34-.42-.51-.15-.17-.29-.34-.45-.51-.15-.16-.31-.32-.47-.47-.16-.16-.32-.31-.49-.45-.17-.15-.34-.29-.51-.43-.18-.14-.35-.27-.54-.4-.18-.13-.37-.25-.56-.37-.19-.12-.38-.24-.57-.35-.2-.11-.39-.21-.59-.31-.2-.1-.4-.2-.61-.29-.2-.09-.41-.17-.61-.25-.2-.08-.41-.16-.62-.23-.21-.07-.43-.13-.64-.19-.22-.06-.43-.12-.65-.17-.22-.05-.43-.09-.65-.13-.22-.04-.44-.07-.66-.1-.22-.04-.44-.07-.66-.09-.22,0-.44,0-.67,0h-.26Z"/>
      <path class="cls-5" d="M869.58,1254.52c0,21.13-33.57,41.39-93.34,56.33-59.76,14.94-140.81,23.33-225.33,23.33s-165.57-8.39-225.33-23.33c-59.76-14.94-93.33-35.21-93.33-56.33,0-44,142.67-79.67,318.66-79.67s318.66,35.67,318.66,79.67h0Z"/>
      <path class="cls-1" d="M457.94,1046.06c0,81.69-27.25,197.82-60.85,197.82s-60.85-116.13-60.85-197.82,35.97-98.01,60.85-98.01,60.85,16.32,60.85,98.01h0Z"/>
      <path class="cls-6" d="M397.09,931.06c-16.16,0-37.11,5.95-52.72,24.38-15.61,18.43-25.12,47.27-25.12,90.61s6.93,93.07,18.45,134.13c5.76,20.53,12.55,38.67,21.12,52.98,8.57,14.32,20.07,27.68,38.26,27.68s29.69-13.37,38.25-27.68c8.57-14.31,15.36-32.45,21.12-52.98,11.52-41.06,18.45-91.4,18.45-134.13s-9.51-72.18-25.12-90.61c-15.6-18.43-36.56-24.38-52.71-24.38h0ZM397.09,965.03c8.73,0,18.2,2.21,26.79,12.36,8.6,10.15,17.08,30.31,17.08,68.66s-6.69,87.53-17.19,124.96c-5.25,18.71-11.57,34.71-17.56,44.72-4.5,7.51-8.15,10.04-9.11,10.83-.97-.79-4.62-3.32-9.12-10.83-5.99-10.01-12.31-26.01-17.56-44.72-10.5-37.43-17.19-86-17.19-124.96s8.48-58.51,17.08-68.66c8.6-10.15,18.07-12.36,26.8-12.36h0Z"/>
      <path class="cls-1" d="M765.59,1046.06c0,81.69-27.24,197.82-60.85,197.82s-60.85-116.13-60.85-197.82,35.97-98.01,60.85-98.01,60.85,16.32,60.85,98.01h0Z"/>
      <path class="cls-6" d="M704.74,931.06c-16.16,0-37.11,5.95-52.72,24.38-15.61,18.43-25.12,47.27-25.12,90.61s6.93,93.07,18.45,134.13c5.76,20.53,12.56,38.67,21.12,52.98,8.57,14.32,20.07,27.68,38.26,27.68s29.69-13.37,38.25-27.68c8.57-14.31,15.36-32.45,21.12-52.98,11.52-41.06,18.45-91.4,18.45-134.13s-9.51-72.18-25.12-90.61c-15.6-18.43-36.56-24.38-52.71-24.38h0ZM704.74,965.03c8.73,0,18.2,2.21,26.79,12.36,8.6,10.15,17.07,30.31,17.07,68.66s-6.69,87.53-17.19,124.96c-5.25,18.71-11.57,34.71-17.56,44.72-4.5,7.51-8.15,10.04-9.11,10.83-.97-.79-4.62-3.32-9.12-10.83-5.99-10.01-12.31-26.01-17.56-44.72-10.5-37.43-17.19-86-17.19-124.96s8.48-58.51,17.07-68.66c8.6-10.15,18.07-12.36,26.8-12.36h0Z"/>
      <path class="cls-1" d="M164.69,648.4c-31.26,75.47-100.87,172.34-131.92,159.48-31.05-12.86-11.78-130.57,19.49-206.05,31.26-75.47,70.74-76.79,93.73-67.27,22.99,9.52,49.97,38.36,18.71,113.84h0Z"/>
      <path class="cls-6" d="M152.48,518.88c-14.92-6.18-36.56-8.71-58.03,2.35-21.47,11.05-41.29,34.07-57.88,74.1-16.35,39.48-29.21,88.64-34.28,130.99-2.54,21.17-3.2,40.53-.77,57.04,2.44,16.51,7.95,33.26,24.75,40.21,16.8,6.96,32.54-.99,45.93-10.93,13.39-9.94,26.61-24.11,39.79-40.87,26.36-33.53,52.03-77.38,68.38-116.86,16.59-40.04,18.84-70.33,11.47-93.33-7.37-23-24.45-36.52-39.38-42.7h0ZM139.48,550.26c8.07,3.34,15.97,9.01,20.03,21.68,4.05,12.67,4.17,34.53-10.51,69.97-14.91,35.99-39.68,78.31-63.7,108.86-12.01,15.28-23.97,27.64-33.34,34.6-7.03,5.21-11.37,6.15-12.56,6.51-.59-1.1-3-4.83-4.28-13.49-1.71-11.54-1.42-28.74.89-48.04,4.62-38.59,17.03-86.03,31.94-122.02,14.68-35.43,30.22-50.81,42.05-56.9,11.83-6.09,21.43-4.51,29.49-1.17h0Z"/>
      <path class="cls-1" d="M1049.58,601.83c31.26,75.47,50.53,193.19,19.48,206.05-31.05,12.86-100.66-84-131.92-159.48-31.26-75.47-4.28-104.31,18.71-113.84,22.99-9.52,62.47-8.21,93.73,67.27h0Z"/>
      <path class="cls-6" d="M949.35,518.88c-14.92,6.18-32,19.7-39.37,42.7-7.37,23-5.11,53.29,11.47,93.33,16.35,39.48,42.02,83.33,68.38,116.86,13.18,16.77,26.39,30.93,39.79,40.87,13.39,9.95,29.14,17.89,45.94,10.93,16.8-6.96,22.31-23.71,24.75-40.21,2.44-16.5,1.77-35.86-.76-57.04-5.07-42.35-17.93-91.5-34.28-130.99-16.59-40.04-36.41-63.05-57.88-74.1-21.47-11.06-43.11-8.53-58.03-2.35h0ZM962.35,550.26c8.06-3.34,17.66-4.92,29.49,1.17,11.82,6.09,27.37,21.47,42.05,56.9,14.91,35.99,27.32,83.43,31.94,122.02,2.31,19.3,2.59,36.5.89,48.04-1.28,8.66-3.69,12.39-4.28,13.49-1.19-.36-5.54-1.3-12.56-6.51-9.37-6.96-21.33-19.32-33.34-34.6-24.02-30.55-48.79-72.87-63.7-108.86-14.68-35.44-14.56-57.31-10.5-69.97,4.06-12.67,11.96-18.34,20.03-21.68h0Z"/>
      <path class="cls-6" d="M550.91,124.27c-28.77,0-57.5,2.4-85.88,7.17l-17.22,2.9-19.94,74.45c-33.53,9.53-65.79,22.89-96.24,39.87l-66.74-38.54-14.22,10.12c-46.96,33.44-88.02,74.49-121.46,121.45l-10.13,14.22,38.54,66.75c-16.98,30.45-30.34,62.71-39.87,96.24l-74.44,19.94-2.89,17.23c-4.77,28.38-7.17,57.1-7.17,85.88s2.4,57.5,7.17,85.88l2.89,17.22,74.44,19.95c9.53,33.53,22.89,65.79,39.87,96.24l-38.53,66.74,10.13,14.22c33.44,46.97,74.49,88.01,121.45,121.45l14.22,10.13,66.74-38.53c30.45,16.97,62.71,30.34,96.24,39.86l19.95,74.44,17.22,2.9c28.38,4.78,57.1,7.18,85.88,7.18s57.51-2.4,85.89-7.18l17.22-2.9,19.95-74.44c33.53-9.52,65.79-22.89,96.24-39.86l66.74,38.53,14.23-10.13c46.97-33.44,88.01-74.49,121.45-121.46l10.13-14.23-38.54-66.74c16.98-30.44,30.34-62.7,39.87-96.23l74.44-19.95,2.9-17.22c4.77-28.38,7.17-57.1,7.17-85.88s-2.4-57.5-7.18-85.88l-2.9-17.22-74.44-19.94c-9.53-33.53-22.89-65.8-39.87-96.24l38.53-66.73-10.13-14.23c-33.44-46.97-74.49-88.02-121.45-121.46l-14.23-10.13-66.74,38.54c-30.44-16.97-62.7-30.34-96.23-39.86l-19.95-74.45-17.22-2.9c-28.38-4.77-57.11-7.17-85.89-7.18h0ZM550.91,178.62c20.03,0,40,1.69,59.85,4.29l18.84,70.33,15.62,3.82c39.18,9.6,76.66,25.13,111.16,46.05l13.75,8.34,63.05-36.41c31.77,24.45,60.19,52.86,84.63,84.64l-36.4,63.05,8.34,13.75c20.92,34.5,36.44,71.98,46.05,111.16l3.83,15.62,70.32,18.84c2.59,19.86,4.29,39.82,4.29,59.85s-1.7,39.99-4.29,59.84l-70.32,18.85-3.83,15.62c-9.6,39.18-25.13,76.66-46.05,111.16l-8.34,13.75,36.41,63.05c-24.44,31.77-52.86,60.19-84.63,84.64l-63.06-36.4-13.75,8.34c-34.5,20.92-71.98,36.45-111.16,46.04l-15.62,3.83-18.84,70.32c-19.85,2.59-39.81,4.29-59.84,4.29s-40-1.7-59.85-4.29l-18.84-70.33-15.62-3.83c-39.18-9.6-76.67-25.12-111.17-46.04l-13.75-8.34-63.05,36.4c-31.77-24.45-60.19-52.86-84.63-84.64l36.4-63.05-8.34-13.75c-20.92-34.5-36.44-71.98-46.05-111.16l-3.82-15.62-70.32-18.84c-2.59-19.85-4.29-39.82-4.29-59.85s1.7-40,4.29-59.85l70.32-18.84,3.83-15.62c9.6-39.18,25.13-76.66,46.05-111.16l8.34-13.75-36.4-63.06c24.44-31.77,52.86-60.19,84.64-84.64l63.05,36.41,13.75-8.34c34.5-20.92,71.98-36.45,111.16-46.05l15.62-3.82,18.84-70.33c19.86-2.59,39.81-4.28,59.84-4.28h0Z"/>
      <path class="cls-7" d="M550.91,151.44c-27.27,0-54.49,2.27-81.37,6.8l-19.41,72.42c-41.87,10.26-81.93,26.85-118.78,49.2l-64.93-37.48c-44.5,31.68-83.4,70.58-115.08,115.08l37.49,64.93c-22.35,36.86-38.94,76.91-49.2,118.78l-72.41,19.4c-4.53,26.89-6.8,54.1-6.8,81.37s2.27,54.48,6.8,81.37l72.41,19.4c10.26,41.87,26.85,81.93,49.2,118.79l-37.49,64.93c31.68,44.5,70.58,83.39,115.08,115.08l64.93-37.48c36.86,22.35,76.92,38.94,118.79,49.2l19.41,72.42c26.89,4.52,54.1,6.8,81.37,6.8s54.48-2.28,81.37-6.8l19.41-72.41c41.87-10.26,81.93-26.85,118.78-49.2l64.93,37.48c44.5-31.68,83.4-70.58,115.08-115.08l-37.49-64.93c22.35-36.86,38.94-76.91,49.2-118.79l72.42-19.41c4.52-26.89,6.8-54.1,6.8-81.37,0-27.27-2.28-54.49-6.8-81.37l-72.42-19.4c-10.26-41.87-26.85-81.92-49.2-118.78l37.48-64.93c-31.68-44.5-70.58-83.39-115.07-115.08l-64.93,37.49c-36.85-22.35-76.91-38.94-118.78-49.2l-19.41-72.42c-26.89-4.52-54.11-6.8-81.38-6.8h0Z"/>
      <path class="cls-2" d="M810.15,382.45L291.17,901.44c68.82,68.82,162.16,107.49,259.49,107.49s190.67-38.66,259.49-107.48c68.82-68.82,107.48-162.16,107.48-259.5s-38.66-190.67-107.48-259.49h0Z"/>
      <path class="cls-2" d="M685.66,240.51L149.48,776.68c9.95,29.64,23.14,58.09,39.36,84.82l-37.49,64.93c31.68,44.5,70.58,83.39,115.08,115.08l64.93-37.48c26.73,16.21,55.18,29.41,84.82,39.35L952.35,507.2c-9.95-29.64-23.15-58.09-39.35-84.82l37.48-64.93c-31.68-44.5-70.58-83.39-115.07-115.08l-64.93,37.49c-26.73-16.21-55.18-29.41-84.82-39.36h0Z"/>
      <path class="cls-6" d="M550.91,144.65c-27.64,0-55.23,2.3-82.49,6.89l-4.31.72-19.54,72.93c-39.77,10.14-77.85,25.92-113.15,46.86l-65.38-37.75-3.55,2.53c-45.12,32.12-84.55,71.56-116.68,116.67l-2.53,3.56,37.75,65.39c-20.94,35.29-36.71,73.38-46.86,113.15l-72.93,19.54-.72,4.31c-4.59,27.26-6.89,54.85-6.89,82.5,0,27.64,2.31,55.24,6.89,82.5l.72,4.3,72.93,19.54c10.15,39.77,25.92,77.86,46.86,113.16l-37.75,65.38,2.53,3.55c32.12,45.11,71.56,84.55,116.67,116.67l3.55,2.53,65.38-37.75c35.3,20.94,73.39,36.71,113.15,46.86l19.54,72.92,4.3.73c27.26,4.59,54.85,6.89,82.49,6.89s55.24-2.31,82.5-6.89l4.31-.73,19.54-72.92c39.76-10.15,77.85-25.92,113.15-46.86l65.39,37.75,3.55-2.53c45.12-32.12,84.55-71.55,116.67-116.67l2.53-3.56-37.75-65.38c20.94-35.3,36.71-73.39,46.86-113.15l72.93-19.54.72-4.31c4.59-27.26,6.89-54.85,6.9-82.5,0-27.65-2.31-55.24-6.9-82.5l-.72-4.31-72.93-19.54c-10.15-39.77-25.92-77.85-46.86-113.15l37.75-65.38-2.53-3.56c-32.13-45.12-71.56-84.55-116.67-116.68l-3.55-2.53-65.38,37.75c-35.29-20.94-73.38-36.72-113.15-46.86l-19.54-72.93-4.3-.72c-27.26-4.59-54.86-6.89-82.51-6.89h0ZM550.91,158.23c25.46,0,50.86,2.17,76,6.17l19.26,71.9,3.91.95c41.19,10.1,80.6,26.42,116.87,48.41l3.44,2.09,64.46-37.22c41.27,29.94,77.52,66.2,107.46,107.47l-37.21,64.46,2.09,3.44c21.99,36.27,38.32,75.68,48.41,116.88l.95,3.91,71.9,19.26c4,25.14,6.17,50.53,6.18,75.99,0,25.46-2.17,50.85-6.17,75.99l-71.9,19.26-.95,3.91c-10.1,41.19-26.42,80.61-48.41,116.88l-2.09,3.44,37.22,64.46c-29.94,41.27-66.19,77.53-107.46,107.47l-64.46-37.21-3.44,2.09c-36.27,21.99-75.68,38.32-116.88,48.41l-3.91.96-19.26,71.9c-25.14,4-50.54,6.17-76,6.17-25.46,0-50.85-2.17-75.98-6.17l-19.26-71.9-3.91-.96c-41.2-10.09-80.62-26.41-116.89-48.41l-3.44-2.09-64.46,37.21c-41.27-29.94-77.52-66.2-107.47-107.47l37.22-64.46-2.09-3.44c-21.99-36.27-38.32-75.68-48.41-116.88l-.95-3.91-71.89-19.26c-4-25.14-6.17-50.54-6.17-76s2.17-50.86,6.17-75.99l71.89-19.26.95-3.91c10.1-41.2,26.42-80.61,48.41-116.88l2.09-3.44-37.22-64.46c29.94-41.27,66.2-77.52,107.47-107.46l64.46,37.21,3.44-2.09c36.27-21.99,75.68-38.32,116.88-48.41l3.91-.95,19.26-71.9c25.14-4,50.53-6.17,75.99-6.17h0Z"/>
      <path class="cls-12" d="M892.67,641.95c0,188.89-153.12,342.01-342.01,342.01s-342.01-153.13-342.01-342.01c0-90.71,36.03-177.7,100.17-241.84,64.14-64.14,151.13-100.18,241.84-100.18s177.7,36.04,241.84,100.18c64.14,64.14,100.17,151.13,100.17,241.84h0Z"/>
      <path class="cls-3" d="M891.59,641.95c0,179.95-145.88,325.84-325.83,325.84-86.41,0-169.29-34.33-230.4-95.43-61.1-61.1-95.43-143.98-95.43-230.4s34.33-169.29,95.43-230.4c61.11-61.1,143.98-95.43,230.4-95.43,179.95,0,325.83,145.88,325.83,325.83h0Z"/>
      <path class="cls-12" d="M550.66,293.14c-192.56,0-348.81,156.25-348.81,348.81s156.25,348.81,348.81,348.81,348.8-156.25,348.8-348.81-156.25-348.81-348.8-348.81h0ZM550.66,306.72c185.21,0,335.22,150,335.22,335.22s-150,335.23-335.22,335.23-335.22-150.01-335.22-335.23,150-335.22,335.22-335.22h0Z"/>
      <path class="cls-8" d="M804.32,623.28c0,68.22-27.1,133.65-75.34,181.89-48.24,48.24-113.67,75.34-181.89,75.34-142.06,0-257.23-115.17-257.23-257.23s115.17-257.24,257.23-257.24c68.22,0,133.65,27.1,181.89,75.34,48.24,48.24,75.34,113.67,75.34,181.9h0Z"/>
      <path class="cls-6" d="M461.33,486.75c9.48,11.94,15.17,27.04,15.17,43.54v35.07c0,38.78-31.21,69.98-69.99,69.98s-69.99-31.21-69.99-69.98v-26.92l124.81-51.7Z"/>
      <path class="cls-4" d="M447.25,561.05c0,12.48-10.11,22.59-22.59,22.59s-22.59-10.11-22.59-22.59,10.11-22.59,22.59-22.59c5.99,0,11.74,2.38,15.97,6.62,4.24,4.23,6.62,9.98,6.62,15.97h0Z"/>
      <path class="cls-6" d="M640.5,486.75l124.81,51.7v26.92c0,38.78-31.21,69.98-69.99,69.98s-69.99-31.21-69.99-69.98v-35.07c0-16.5,5.7-31.6,15.18-43.54h0Z"/>
      <path class="cls-4" d="M736.05,561.05c0,12.48-10.11,22.59-22.59,22.59s-22.59-10.11-22.59-22.59c0-5.99,2.38-11.74,6.62-15.97,4.23-4.24,9.98-6.62,15.97-6.62s11.74,2.38,15.98,6.62c4.24,4.23,6.62,9.98,6.62,15.97h0Z"/>
      <path class="cls-6" d="M721.29,673.87c-25.51.51-58.73,9.63-87.66,42.36l10.18,9c26.39-29.85,55.13-37.32,77.75-37.77,22.62-.45,38.41,6.32,38.41,6.32l5.35-12.49s-18.51-7.92-44.02-7.41h0Z"/>
      <path class="cls-6" d="M300.41,0l17.76,47.89,4.75,12.8c-70.38-7.55-141.72-31.81-141.72-31.81l-41.72-14.65,5.77,43.84c28.72,218.17,207.01,335.73,375.69,361.64,84.34,12.95,167.29,4.24,232.06-27.34,64.77-31.57,111.62-90.16,111.62-166.58,0-42.61-13.49-87.63-47.98-122.39-34.49-34.76-88.06-57.79-162.94-63.3-108.06-7.95-193.73-1.45-303.66-28.07L300.41,0ZM386.2,75.01c95.26,16.74,174.71,12.76,263.52,19.3,65.85,4.85,105.15,23.99,128.35,47.38,23.2,23.38,32.21,52.48,32.21,84.11,0,55.42-29.56,92.61-81.08,117.73-51.53,25.12-124.77,34.02-199.99,22.46-138.85-21.33-280.94-108.15-321.89-272.34,39.24,10.76,98.83,23.98,155.67,23.66l38.83-.22-15.61-42.09Z"/>
      <path class="cls-10" d="M343.65,38.44l19.18,51.7c-87.81.49-190.63-35.61-190.63-35.61,54,410.17,665.25,434.94,665.25,171.27,0-74.25-45.01-148.23-185.74-158.59-105.82-7.79-194.05-1.15-308.06-28.77h0Z"/>
      <path class="cls-11" d="M343.65,38.44l19.18,51.7c-87.81.49-190.63-35.61-190.63-35.61,142.56,185.79,561.87,209.18,636.14,80.55-27.43-35.45-76.51-61.97-156.63-67.87-105.82-7.79-194.05-1.15-308.06-28.77h0Z"/>
      <path class="cls-9" d="M172.2,54.52c54,410.17,665.25,434.94,665.25,171.27,0-12.14-1.23-24.26-3.86-36.11C735.82,425.72,243.81,321.78,172.2,54.52h0Z"/>
      <path class="cls-6" d="M332.84,28.83l4.44,11.97,15.71,42.35c-83.72-2.07-178.54-35.04-178.54-35.04l-10.43-3.66,1.44,10.96c27.43,208.35,196.74,319.3,358.58,344.15,80.92,12.43,160.23,3.65,220.03-25.5,59.81-29.16,100.17-79.72,100.17-148.26,0-38.5-11.81-77.54-42.07-108.04-30.25-30.49-78.47-52.06-149.97-57.32-106.38-7.83-193.97-1.23-306.96-28.6l-12.41-3ZM354.38,47.84c109.09,24.5,195.38,18.67,296.83,26.14,69.24,5.1,113.89,25.7,141.32,53.35,27.43,27.65,38.12,62.72,38.12,98.47,0,63.29-36.04,108.51-92.54,136.05-56.49,27.54-133.38,36.37-212.02,24.29-154.44-23.72-314.62-126.94-345.5-321.74,24.31,7.97,106.19,32.96,182.26,32.54l9.71-.05-18.18-49.04Z"/>
    </g>
  </g>
</svg>