<svg xmlns="http://www.w3.org/2000/svg" xmlns:xlink="http://www.w3.org/1999/xlink" width="500" zoomAndPan="magnify" viewBox="0 0 375 149.999998" height="200" preserveAspectRatio="xMidYMid meet" version="1.2"><defs><clipPath id="e9649dc60e"><path d="M 83 8.1875 L 117.71875 8.1875 L 117.71875 68.9375 L 83 68.9375 Z M 83 8.1875 "/></clipPath><clipPath id="0f9afb32bb"><path d="M 55.46875 11 L 82 11 L 82 58 L 55.46875 58 Z M 55.46875 11 "/></clipPath><clipPath id="ac9e864b0a"><path d="M 61.761719 11.882812 C 61.179688 14.804688 62.636719 17.816406 64.742188 19.921875 C 66.84375 22.023438 69.535156 23.421875 72.105469 24.925781 C 74.675781 26.429688 77.238281 28.136719 78.855469 30.640625 C 80.261719 32.816406 80.832031 35.421875 81.128906 38 C 81.488281 41.113281 81.4375 44.394531 80.445312 47.332031 C 79.722656 45.5625 78.785156 43.867188 77.710938 42.285156 C 75.609375 39.167969 73.019531 36.417969 70.445312 33.683594 C 67.433594 30.488281 64.425781 27.296875 61.414062 24.101562 C 64.53125 29.945312 69.359375 34.648438 73.445312 39.867188 C 77.527344 45.078125 81.007812 51.300781 80.625 57.914062 C 80.324219 54.53125 77.578125 51.847656 74.601562 50.210938 C 71.625 48.574219 68.285156 47.664062 65.347656 45.957031 C 59.796875 42.707031 56.0625 36.550781 55.773438 30.132812 C 55.480469 23.640625 58.445312 17.472656 61.761719 11.882812 Z M 61.761719 11.882812 "/></clipPath><linearGradient x1="-1204.20996" gradientTransform="matrix(-0.0606045,0,0,0.0606045,-4.43842,8.187502)" y1="60.999882" x2="-1204.20996" gradientUnits="userSpaceOnUse" y2="820.499935" id="0a229d74aa"><stop style="stop-color:#88bf42;stop-opacity:1;" offset="0"/><stop style="stop-color:#88bf42;stop-opacity:1;" offset="0.125"/><stop style="stop-color:#88be42;stop-opacity:1;" offset="0.25"/><stop style="stop-color:#87be42;stop-opacity:1;" offset="0.375"/><stop style="stop-color:#87bd42;stop-opacity:1;" offset="0.5"/><stop style="stop-color:#86bd42;stop-opacity:1;" offset="0.625"/><stop style="stop-color:#86bc41;stop-opacity:1;" offset="0.75"/><stop style="stop-color:#85bb41;stop-opacity:1;" offset="0.875"/><stop style="stop-color:#85bb41;stop-opacity:1;" offset="1"/></linearGradient><clipPath id="da0749e484"><path d="M 59.554688 120.363281 L 162.710938 120.363281 L 162.710938 129.410156 L 59.554688 129.410156 Z M 59.554688 120.363281 "/></clipPath><clipPath id="637b203bdc"><path d="M 64.078125 120.363281 L 158.171875 120.363281 C 159.371094 120.363281 160.523438 120.839844 161.371094 121.6875 C 162.21875 122.539062 162.695312 123.6875 162.695312 124.886719 C 162.695312 126.085938 162.21875 127.238281 161.371094 128.085938 C 160.523438 128.933594 159.371094 129.410156 158.171875 129.410156 L 64.078125 129.410156 C 62.878906 129.410156 61.730469 128.933594 60.878906 128.085938 C 60.03125 127.238281 59.554688 126.085938 59.554688 124.886719 C 59.554688 123.6875 60.03125 122.539062 60.878906 121.6875 C 61.730469 120.839844 62.878906 120.363281 64.078125 120.363281 Z M 64.078125 120.363281 "/></clipPath><clipPath id="2c4e433cf9"><path d="M 143.554688 50.765625 L 319 50.765625 L 319 59.8125 L 143.554688 59.8125 Z M 143.554688 50.765625 "/></clipPath><clipPath id="e97ec3f185"><path d="M 148.078125 50.765625 L 314.472656 50.765625 C 315.671875 50.765625 316.824219 51.242188 317.671875 52.089844 C 318.519531 52.9375 318.996094 54.085938 318.996094 55.289062 C 318.996094 56.488281 318.519531 57.636719 317.671875 58.484375 C 316.824219 59.335938 315.671875 59.8125 314.472656 59.8125 L 148.078125 59.8125 C 146.878906 59.8125 145.730469 59.335938 144.878906 58.484375 C 144.03125 57.636719 143.554688 56.488281 143.554688 55.289062 C 143.554688 54.085938 144.03125 52.9375 144.878906 52.089844 C 145.730469 51.242188 146.878906 50.765625 148.078125 50.765625 Z M 148.078125 50.765625 "/></clipPath></defs><g id="83d61ca9ba"><rect x="0" width="375" y="0" height="149.999998" style="fill:#ffffff;fill-opacity:1;stroke:none;"/><rect x="0" width="375" y="0" height="149.999998" style="fill:#ffffff;fill-opacity:1;stroke:none;"/><g style="fill:#e7191f;fill-opacity:1;"><g transform="translate(54.593545, 97.062499)"><path style="stroke:none" d="M 8.5625 0 L 8.5625 -12.484375 L 0.84375 -12.484375 L 0.84375 -20.3125 L 14.765625 -20.3125 L 14.765625 0 Z M 8.5625 0 "/></g></g><g style="fill:#e7191f;fill-opacity:1;"><g transform="translate(71.672919, 97.062499)"><path style="stroke:none" d="M 4.796875 -4.703125 L 0.84375 -4.703125 L 0.84375 0 L 4.796875 0 Z M 4.796875 -4.703125 "/></g></g><g style="fill:#e7191f;fill-opacity:1;"><g transform="translate(78.619186, 97.062499)"><path style="stroke:none" d="M 18.421875 -20.3125 L 18.421875 0 L 12.21875 0 L 12.21875 -12.484375 L 9.328125 -12.484375 L 9.328125 0 L 1 0 L 1 -7.8125 L 3.125 -7.8125 L 3.125 -12.484375 L 1.3125 -12.484375 L 1.3125 -20.3125 Z M 18.421875 -20.3125 "/></g></g><g style="fill:#e7191f;fill-opacity:1;"><g transform="translate(99.355869, 97.062499)"><path style="stroke:none" d="M 4.796875 -4.703125 L 0.84375 -4.703125 L 0.84375 0 L 4.796875 0 Z M 4.796875 -4.703125 "/></g></g><g style="fill:#e7191f;fill-opacity:1;"><g transform="translate(106.302135, 97.062499)"><path style="stroke:none" d="M 8.71875 -20.3125 L 8.71875 -7.859375 L 2.515625 -7.859375 L 2.515625 -12.515625 L 0.5 -12.515625 L 0.5 -20.3125 Z M 8.71875 -20.3125 "/></g></g><g style="fill:#e7191f;fill-opacity:1;"><g transform="translate(117.341909, 97.062499)"><path style="stroke:none" d=""/></g></g><g style="fill:#e7191f;fill-opacity:1;"><g transform="translate(124.690816, 97.062499)"><path style="stroke:none" d="M 20.578125 0 L 12.515625 0 L 7.015625 -8.125 L 7.015625 0 L 0.8125 0 L 0.8125 -20.265625 L 7.015625 -20.265625 L 11.484375 -13.59375 L 11.484375 -20.265625 L 18.015625 -20.265625 L 18.015625 -11.171875 L 13.09375 -11.171875 Z M 20.578125 0 "/></g></g><g style="fill:#e7191f;fill-opacity:1;"><g transform="translate(146.232782, 97.062499)"><path style="stroke:none" d="M 8.5625 0 L 8.5625 -12.484375 L 0.84375 -12.484375 L 0.84375 -20.3125 L 14.765625 -20.3125 L 14.765625 0 Z M 8.5625 0 "/></g></g><g style="fill:#e7191f;fill-opacity:1;"><g transform="translate(163.312156, 97.062499)"><path style="stroke:none" d="M 8.71875 -20.3125 L 8.71875 -7.859375 L 2.515625 -7.859375 L 2.515625 -12.515625 L 0.5 -12.515625 L 0.5 -20.3125 Z M 8.71875 -20.3125 "/></g></g><g style="fill:#e7191f;fill-opacity:1;"><g transform="translate(174.35193, 97.062499)"><path style="stroke:none" d="M 17.953125 0 L 1 0 L 1 -7.8125 L 11.71875 -7.8125 L 11.71875 -12.484375 L 7.21875 -12.484375 L 7.21875 -9.828125 L 1 -9.828125 L 1 -20.3125 L 17.953125 -20.3125 Z M 17.953125 0 "/></g></g><g style="fill:#e7191f;fill-opacity:1;"><g transform="translate(194.618878, 97.062499)"><path style="stroke:none" d="M 18.859375 -20.3125 L 25.875 -20.3125 L 21.6875 0 L 0.84375 0 L 0.84375 -20.3125 L 7.625 -20.3125 L 7.625 -12.71875 L 9.5 -20.3125 L 16.484375 -20.3125 L 13.890625 -9.875 L 7.625 -9.875 L 7.625 -7.625 L 15.84375 -7.625 Z M 18.859375 -20.3125 "/></g></g><g style="fill:#e7191f;fill-opacity:1;"><g transform="translate(221.965587, 97.062499)"><path style="stroke:none" d=""/></g></g><g style="fill:#e7191f;fill-opacity:1;"><g transform="translate(229.314494, 97.062499)"><path style="stroke:none" d="M 18.59375 0 L 1.984375 0 L 1.984375 -12.484375 L 0.5 -12.484375 L 0.5 -20.3125 L 18.59375 -20.3125 Z M 8.1875 -12.484375 L 8.1875 -7.625 L 12.390625 -7.625 L 12.390625 -12.484375 Z M 8.1875 -12.484375 "/></g></g><g style="fill:#e7191f;fill-opacity:1;"><g transform="translate(250.218961, 97.062499)"><path style="stroke:none" d="M 8.71875 -20.3125 L 8.71875 -7.859375 L 2.515625 -7.859375 L 2.515625 -12.515625 L 0.5 -12.515625 L 0.5 -20.3125 Z M 8.71875 -20.3125 "/></g></g><g style="fill:#e7191f;fill-opacity:1;"><g transform="translate(261.258735, 97.062499)"><path style="stroke:none" d="M 11.3125 0 L 11.3125 -12.484375 L 7.21875 -12.484375 L 7.21875 0 L 1 0 L 1 -20.3125 L 17.546875 -20.3125 L 17.546875 0 Z M 11.3125 0 "/></g></g><g style="fill:#e7191f;fill-opacity:1;"><g transform="translate(281.123042, 97.062499)"><path style="stroke:none" d="M 20.578125 0 L 12.515625 0 L 7.015625 -8.125 L 7.015625 0 L 0.8125 0 L 0.8125 -20.265625 L 7.015625 -20.265625 L 11.484375 -13.59375 L 11.484375 -20.265625 L 18.015625 -20.265625 L 18.015625 -11.171875 L 13.09375 -11.171875 Z M 20.578125 0 "/></g></g><g style="fill:#e7191f;fill-opacity:1;"><g transform="translate(302.665007, 97.062499)"><path style="stroke:none" d="M 10.375 0 L 10.375 -12.484375 L 0.84375 -12.484375 L 0.84375 -20.3125 L 16.609375 -20.3125 L 16.609375 0 Z M 0.84375 0 L 0.84375 -9.9375 L 7.046875 -9.9375 L 7.046875 0 Z M 0.84375 0 "/></g></g><g style="fill:#e7191f;fill-opacity:1;"><g transform="translate(321.599425, 97.062499)"><path style="stroke:none" d=""/></g></g><g clip-rule="nonzero" clip-path="url(#e9649dc60e)"><path style=" stroke:none;fill-rule:nonzero;fill:#55833d;fill-opacity:1;" d="M 109.1875 8.1875 C 109.957031 12.042969 108.03125 16.019531 105.253906 18.792969 C 102.480469 21.574219 98.929688 23.417969 95.539062 25.398438 C 92.148438 27.382812 88.757812 29.640625 86.632812 32.945312 C 84.777344 35.816406 84.019531 39.257812 83.632812 42.652344 C 83.148438 46.773438 83.214844 51.09375 84.523438 54.972656 C 85.472656 52.636719 86.714844 50.398438 88.128906 48.308594 C 90.90625 44.191406 94.324219 40.5625 97.722656 36.949219 C 101.699219 32.730469 105.667969 28.519531 109.644531 24.300781 C 105.527344 32.011719 99.152344 38.230469 93.765625 45.109375 C 88.378906 51.992188 83.785156 60.210938 84.285156 68.9375 C 84.6875 64.472656 88.3125 60.925781 92.242188 58.769531 C 96.175781 56.609375 100.582031 55.40625 104.457031 53.148438 C 111.78125 48.882812 116.710938 40.75 117.089844 32.277344 C 117.480469 23.707031 113.570312 15.558594 109.1875 8.1875 Z M 109.1875 8.1875 "/></g><g clip-rule="nonzero" clip-path="url(#0f9afb32bb)"><g clip-rule="nonzero" clip-path="url(#ac9e864b0a)"><path style=" stroke:none;fill-rule:nonzero;fill:url(#0a229d74aa);" d="M 81.488281 11.882812 L 81.488281 57.914062 L 55.480469 57.914062 L 55.480469 11.882812 Z M 81.488281 11.882812 "/></g></g><g style="fill:#0d0d0d;fill-opacity:1;"><g transform="translate(188.9762, 133.807785)"><path style="stroke:none" d="M -5.140625 11.875 C -5.359375 11.789062 -5.53125 11.601562 -5.65625 11.3125 C -5.78125 11.019531 -5.84375 10.671875 -5.84375 10.265625 C -5.84375 9.753906 -5.742188 9.203125 -5.546875 8.609375 C -5.359375 8.015625 -5.085938 7.445312 -4.734375 6.90625 C -4.328125 6.300781 -3.546875 4.566406 -2.390625 1.703125 C -1.242188 -1.148438 -0.0703125 -4.285156 1.125 -7.703125 C 2.320312 -11.117188 3.222656 -13.941406 3.828125 -16.171875 C 4.117188 -17.316406 4.5625 -18.453125 5.15625 -19.578125 C 5.75 -20.710938 6.457031 -21.28125 7.28125 -21.28125 C 7.375 -21.28125 7.53125 -21.257812 7.75 -21.21875 C 8.46875 -20.988281 8.828125 -20.347656 8.828125 -19.296875 C 8.828125 -18.441406 8.601562 -17.378906 8.15625 -16.109375 C 7.039062 -12.710938 5.75 -9.15625 4.28125 -5.4375 C 2.8125 -1.71875 1.453125 1.550781 0.203125 4.375 C -1.046875 7.207031 -1.882812 8.957031 -2.3125 9.625 C -2.851562 10.476562 -3.285156 11.082031 -3.609375 11.4375 C -3.929688 11.800781 -4.285156 11.984375 -4.671875 11.984375 C -4.796875 11.984375 -4.953125 11.945312 -5.140625 11.875 Z M -5.140625 11.875 "/></g></g><g style="fill:#0d0d0d;fill-opacity:1;"><g transform="translate(197.667239, 133.807785)"><path style="stroke:none" d="M -0.703125 0.46875 C -1.015625 0.332031 -1.171875 0 -1.171875 -0.53125 C -1.171875 -1.050781 -1.035156 -1.769531 -0.765625 -2.6875 C -0.722656 -2.863281 -0.476562 -3.507812 -0.03125 -4.625 C 0.84375 -6.914062 1.625 -9.03125 2.3125 -10.96875 C 3.007812 -12.914062 3.660156 -14.929688 4.265625 -17.015625 C 4.640625 -18.359375 5.039062 -19.347656 5.46875 -19.984375 C 5.894531 -20.617188 6.441406 -20.9375 7.109375 -20.9375 C 8.390625 -20.9375 9.03125 -20.234375 9.03125 -18.828125 C 9.03125 -18.179688 8.894531 -17.421875 8.625 -16.546875 C 8.195312 -15.140625 7.523438 -13.304688 6.609375 -11.046875 C 5.691406 -8.785156 4.773438 -6.648438 3.859375 -4.640625 C 2.941406 -2.640625 2.316406 -1.375 1.984375 -0.84375 C 1.359375 0.144531 0.71875 0.640625 0.0625 0.640625 C -0.15625 0.640625 -0.410156 0.582031 -0.703125 0.46875 Z M -0.703125 0.46875 "/></g></g><g style="fill:#0d0d0d;fill-opacity:1;"><g transform="translate(206.794476, 133.807785)"><path style="stroke:none" d="M 8.59375 -14.96875 C 9.53125 -15.21875 10.535156 -15.34375 11.609375 -15.34375 C 13.242188 -15.34375 14.585938 -14.929688 15.640625 -14.109375 C 16.691406 -13.296875 17.21875 -11.914062 17.21875 -9.96875 C 17.21875 -7.957031 16.472656 -6.082031 14.984375 -4.34375 C 13.492188 -2.613281 11.742188 -1.15625 9.734375 0.03125 C 7.722656 1.21875 5.8125 2.144531 4 2.8125 C 2.925781 3.195312 1.875 3.390625 0.84375 3.390625 C -0.28125 3.390625 -1.207031 3.179688 -1.9375 2.765625 C -2.675781 2.347656 -3.046875 1.835938 -3.046875 1.234375 C -3.046875 0.703125 -2.84375 0.367188 -2.4375 0.234375 C -2.039062 0.0976562 -1.632812 0.03125 -1.21875 0.03125 C -0.8125 0.03125 -0.539062 0.03125 -0.40625 0.03125 C 0.976562 -0.101562 2.554688 -0.578125 4.328125 -1.390625 C 6.097656 -2.210938 7.722656 -3.113281 9.203125 -4.09375 C 10.410156 -4.894531 11.4375 -5.847656 12.28125 -6.953125 C 13.132812 -8.066406 13.5625 -9.0625 13.5625 -9.9375 C 13.5625 -10.582031 13.300781 -11.082031 12.78125 -11.4375 C 12.425781 -11.6875 11.9375 -11.8125 11.3125 -11.8125 C 10.550781 -11.8125 9.742188 -11.671875 8.890625 -11.390625 C 8.046875 -11.109375 6.953125 -10.691406 5.609375 -10.140625 C 4.617188 -9.734375 4.035156 -9.507812 3.859375 -9.46875 C 3.765625 -9.445312 3.628906 -9.4375 3.453125 -9.4375 C 2.847656 -9.4375 2.351562 -9.644531 1.96875 -10.0625 C 1.59375 -10.488281 1.40625 -10.984375 1.40625 -11.546875 C 1.40625 -12.054688 1.585938 -12.492188 1.953125 -12.859375 C 2.285156 -13.191406 3.613281 -14.738281 5.9375 -17.5 C 8.269531 -20.257812 9.710938 -22 10.265625 -22.71875 C 10.609375 -23.144531 10.976562 -23.46875 11.375 -23.6875 C 11.78125 -23.914062 12.179688 -24.03125 12.578125 -24.03125 C 13.023438 -24.03125 13.453125 -23.894531 13.859375 -23.625 C 14.378906 -23.289062 14.640625 -22.789062 14.640625 -22.125 C 14.640625 -21.71875 14.539062 -21.304688 14.34375 -20.890625 C 14.15625 -20.472656 13.882812 -20.097656 13.53125 -19.765625 Z M 8.59375 -14.96875 "/></g></g><g style="fill:#0d0d0d;fill-opacity:1;"><g transform="translate(226.256142, 133.807785)"><path style="stroke:none" d="M 16.171875 -20.875 C 16.867188 -20.539062 17.21875 -19.957031 17.21875 -19.125 C 17.21875 -18.550781 17.015625 -17.769531 16.609375 -16.78125 C 16.273438 -15.976562 15.84375 -15.007812 15.3125 -13.875 C 14.789062 -12.75 14.421875 -11.953125 14.203125 -11.484375 C 12.359375 -7.628906 11.015625 -4.515625 10.171875 -2.140625 C 9.898438 -1.378906 9.550781 -0.789062 9.125 -0.375 C 8.695312 0.03125 8.25 0.234375 7.78125 0.234375 C 7.601562 0.234375 7.414062 0.203125 7.21875 0.140625 C 6.632812 -0.0859375 6.113281 -0.585938 5.65625 -1.359375 C 5.195312 -2.128906 4.832031 -3.1875 4.5625 -4.53125 C 4.445312 -5.15625 4.367188 -5.738281 4.328125 -6.28125 C 3.472656 -4.082031 2.585938 -2.390625 1.671875 -1.203125 C 1.335938 -0.785156 1.019531 -0.457031 0.71875 -0.21875 C 0.414062 0.0195312 0.0976562 0.140625 -0.234375 0.140625 C -0.484375 0.140625 -0.707031 0.0820312 -0.90625 -0.03125 C -1.414062 -0.300781 -1.671875 -0.691406 -1.671875 -1.203125 C -1.671875 -1.566406 -1.566406 -2.007812 -1.359375 -2.53125 C -1.148438 -3.0625 -0.832031 -3.738281 -0.40625 -4.5625 C 0.21875 -5.769531 0.816406 -7.082031 1.390625 -8.5 C 1.960938 -9.925781 2.304688 -10.773438 2.421875 -11.046875 L 2.890625 -12.1875 C 3.378906 -13.394531 3.785156 -14.238281 4.109375 -14.71875 C 4.429688 -15.195312 4.804688 -15.4375 5.234375 -15.4375 C 5.304688 -15.4375 5.429688 -15.414062 5.609375 -15.375 C 6.054688 -15.257812 6.375 -15.0625 6.5625 -14.78125 C 6.75 -14.5 6.863281 -14.15625 6.90625 -13.75 C 6.957031 -13.351562 6.992188 -12.742188 7.015625 -11.921875 C 7.015625 -10.390625 7.082031 -9.125 7.21875 -8.125 C 7.332031 -7.25 7.398438 -6.5 7.421875 -5.875 C 8.023438 -7.570312 9.035156 -10.035156 10.453125 -13.265625 C 11.867188 -16.503906 12.789062 -18.492188 13.21875 -19.234375 C 13.875 -20.460938 14.601562 -21.078125 15.40625 -21.078125 C 15.65625 -21.078125 15.910156 -21.007812 16.171875 -20.875 Z M 16.171875 -20.875 "/></g></g><g style="fill:#0d0d0d;fill-opacity:1;"><g transform="translate(242.66446, 133.807785)"><path style="stroke:none" d=""/></g></g><g style="fill:#0d0d0d;fill-opacity:1;"><g transform="translate(253.704233, 133.807785)"><path style="stroke:none" d="M 9.390625 -2.34375 C 8.972656 -2.75 8.765625 -3.1875 8.765625 -3.65625 C 8.765625 -4.414062 9.242188 -5.175781 10.203125 -5.9375 C 11.390625 -6.851562 12.304688 -7.921875 12.953125 -9.140625 C 13.597656 -10.359375 13.921875 -11.550781 13.921875 -12.71875 C 13.921875 -13.96875 13.566406 -14.960938 12.859375 -15.703125 C 12.410156 -16.171875 11.671875 -16.40625 10.640625 -16.40625 C 9.921875 -16.40625 8.800781 -16.257812 7.28125 -15.96875 C 6.96875 -15.925781 6.648438 -15.851562 6.328125 -15.75 C 6.003906 -15.65625 5.773438 -15.585938 5.640625 -15.546875 C 5.078125 -15.316406 4.628906 -15.203125 4.296875 -15.203125 C 3.804688 -15.203125 3.359375 -15.503906 2.953125 -16.109375 C 2.773438 -16.398438 2.6875 -16.679688 2.6875 -16.953125 C 2.6875 -17.640625 3.222656 -18.265625 4.296875 -18.828125 C 5.367188 -19.390625 6.78125 -19.789062 8.53125 -20.03125 C 9.132812 -20.125 9.75 -20.171875 10.375 -20.171875 C 12.945312 -20.171875 14.878906 -19.351562 16.171875 -17.71875 C 17.160156 -16.46875 17.65625 -14.867188 17.65625 -12.921875 C 17.65625 -11.492188 17.367188 -10.050781 16.796875 -8.59375 C 16.222656 -7.132812 15.421875 -5.890625 14.390625 -4.859375 C 13.472656 -3.941406 12.648438 -3.253906 11.921875 -2.796875 C 11.203125 -2.335938 10.597656 -2.109375 10.109375 -2.109375 C 9.785156 -2.109375 9.546875 -2.1875 9.390625 -2.34375 Z M -2.75 8.015625 C -3.082031 7.796875 -3.25 7.425781 -3.25 6.90625 C -3.25 6.394531 -3.0625 5.738281 -2.6875 4.9375 C -1.769531 3.125 -0.269531 -0.613281 1.8125 -6.28125 C 2.6875 -8.582031 3.191406 -9.898438 3.328125 -10.234375 C 3.546875 -10.816406 3.820312 -11.265625 4.15625 -11.578125 C 4.5 -11.890625 4.878906 -12.046875 5.296875 -12.046875 C 5.585938 -12.046875 5.847656 -11.988281 6.078125 -11.875 C 6.796875 -11.5625 7.15625 -10.972656 7.15625 -10.109375 C 7.15625 -9.660156 7.039062 -9.144531 6.8125 -8.5625 C 5.78125 -5.894531 4.59375 -2.898438 3.25 0.421875 C 1.90625 3.742188 1.035156 5.71875 0.640625 6.34375 C -0.210938 7.644531 -1.050781 8.296875 -1.875 8.296875 C -2.21875 8.296875 -2.507812 8.203125 -2.75 8.015625 Z M -2.75 8.015625 "/></g></g><g style="fill:#0d0d0d;fill-opacity:1;"><g transform="translate(272.998135, 133.807785)"><path style="stroke:none" d="M -0.703125 0.46875 C -1.015625 0.332031 -1.171875 0 -1.171875 -0.53125 C -1.171875 -1.050781 -1.035156 -1.769531 -0.765625 -2.6875 C -0.722656 -2.863281 -0.476562 -3.507812 -0.03125 -4.625 C 0.84375 -6.914062 1.625 -9.03125 2.3125 -10.96875 C 3.007812 -12.914062 3.660156 -14.929688 4.265625 -17.015625 C 4.640625 -18.359375 5.039062 -19.347656 5.46875 -19.984375 C 5.894531 -20.617188 6.441406 -20.9375 7.109375 -20.9375 C 8.390625 -20.9375 9.03125 -20.234375 9.03125 -18.828125 C 9.03125 -18.179688 8.894531 -17.421875 8.625 -16.546875 C 8.195312 -15.140625 7.523438 -13.304688 6.609375 -11.046875 C 5.691406 -8.785156 4.773438 -6.648438 3.859375 -4.640625 C 2.941406 -2.640625 2.316406 -1.375 1.984375 -0.84375 C 1.359375 0.144531 0.71875 0.640625 0.0625 0.640625 C -0.15625 0.640625 -0.410156 0.582031 -0.703125 0.46875 Z M -0.703125 0.46875 "/></g></g><g style="fill:#0d0d0d;fill-opacity:1;"><g transform="translate(282.125372, 133.807785)"><path style="stroke:none" d="M -0.703125 0.46875 C -1.015625 0.332031 -1.171875 0 -1.171875 -0.53125 C -1.171875 -1.050781 -1.035156 -1.769531 -0.765625 -2.6875 C -0.722656 -2.863281 -0.476562 -3.507812 -0.03125 -4.625 C 0.84375 -6.914062 1.625 -9.03125 2.3125 -10.96875 C 3.007812 -12.914062 3.660156 -14.929688 4.265625 -17.015625 C 4.640625 -18.359375 5.039062 -19.347656 5.46875 -19.984375 C 5.894531 -20.617188 6.441406 -20.9375 7.109375 -20.9375 C 8.390625 -20.9375 9.03125 -20.234375 9.03125 -18.828125 C 9.03125 -18.179688 8.894531 -17.421875 8.625 -16.546875 C 8.195312 -15.140625 7.523438 -13.304688 6.609375 -11.046875 C 5.691406 -8.785156 4.773438 -6.648438 3.859375 -4.640625 C 2.941406 -2.640625 2.316406 -1.375 1.984375 -0.84375 C 1.359375 0.144531 0.71875 0.640625 0.0625 0.640625 C -0.15625 0.640625 -0.410156 0.582031 -0.703125 0.46875 Z M -0.703125 0.46875 "/></g></g><g style="fill:#0d0d0d;fill-opacity:1;"><g transform="translate(291.252609, 133.807785)"><path style="stroke:none" d="M 2.078125 -7.6875 C 1.546875 -7.90625 1.28125 -8.375 1.28125 -9.09375 C 1.28125 -9.613281 1.382812 -10.210938 1.59375 -10.890625 C 1.800781 -11.578125 2.117188 -12.476562 2.546875 -13.59375 C 3.085938 -15.019531 3.425781 -15.984375 3.5625 -16.484375 C 3.757812 -17.171875 4.0625 -17.722656 4.46875 -18.140625 C 4.882812 -18.554688 5.332031 -18.765625 5.8125 -18.765625 C 6.03125 -18.765625 6.195312 -18.738281 6.3125 -18.6875 C 7.1875 -18.375 7.625 -17.769531 7.625 -16.875 C 7.625 -16.382812 7.488281 -15.757812 7.21875 -15 L 6.953125 -14.203125 C 6.316406 -12.390625 5.65625 -10.832031 4.96875 -9.53125 C 4.289062 -8.226562 3.507812 -7.578125 2.625 -7.578125 C 2.46875 -7.578125 2.285156 -7.613281 2.078125 -7.6875 Z M 2.078125 -7.6875 "/></g></g><g style="fill:#0d0d0d;fill-opacity:1;"><g transform="translate(299.507449, 133.807785)"><path style="stroke:none" d="M 20.078125 -17.828125 C 19.710938 -15.492188 18.003906 -13.203125 14.953125 -10.953125 C 11.898438 -8.703125 8.582031 -6.785156 5 -5.203125 C 5.332031 -3.992188 5.859375 -3.253906 6.578125 -2.984375 C 7.085938 -2.785156 7.59375 -2.6875 8.09375 -2.6875 C 9.25 -2.6875 10.347656 -3.140625 11.390625 -4.046875 C 12.429688 -4.953125 13.234375 -6.007812 13.796875 -7.21875 C 14.460938 -8.664062 15.234375 -9.390625 16.109375 -9.390625 C 16.335938 -9.390625 16.550781 -9.347656 16.75 -9.265625 C 17.375 -8.992188 17.6875 -8.488281 17.6875 -7.75 C 17.6875 -7.238281 17.53125 -6.601562 17.21875 -5.84375 C 16.363281 -3.78125 15.160156 -2.148438 13.609375 -0.953125 C 12.054688 0.242188 10.394531 0.84375 8.625 0.84375 C 8.25 0.84375 7.867188 0.804688 7.484375 0.734375 C 5.941406 0.515625 4.65625 0.00390625 3.625 -0.796875 C 2.59375 -1.609375 1.878906 -2.617188 1.484375 -3.828125 L 1.046875 -3.71875 C 0.972656 -3.695312 0.859375 -3.6875 0.703125 -3.6875 C 0.347656 -3.6875 0.078125 -3.78125 -0.109375 -3.96875 C -0.304688 -4.164062 -0.40625 -4.421875 -0.40625 -4.734375 C -0.40625 -5.109375 -0.25 -5.519531 0.0625 -5.96875 C 0.195312 -6.175781 0.535156 -6.445312 1.078125 -6.78125 C 1.117188 -7.5 1.207031 -8.125 1.34375 -8.65625 C 2.144531 -12.039062 3.460938 -14.8125 5.296875 -16.96875 C 7.140625 -19.125 9.09375 -20.675781 11.15625 -21.625 C 13.226562 -22.582031 15.082031 -23.0625 16.71875 -23.0625 C 17.832031 -23.0625 18.6875 -22.726562 19.28125 -22.0625 C 19.875 -21.40625 20.171875 -20.460938 20.171875 -19.234375 C 20.171875 -18.804688 20.140625 -18.335938 20.078125 -17.828125 Z M 9.5625 -11.40625 C 11.175781 -12.457031 12.523438 -13.503906 13.609375 -14.546875 C 14.691406 -15.585938 15.492188 -16.519531 16.015625 -17.34375 C 16.546875 -18.175781 16.8125 -18.828125 16.8125 -19.296875 C 16.8125 -19.492188 16.78125 -19.640625 16.71875 -19.734375 C 16.625 -19.890625 16.410156 -19.96875 16.078125 -19.96875 C 15.472656 -19.96875 14.632812 -19.707031 13.5625 -19.1875 C 12.488281 -18.675781 11.363281 -17.976562 10.1875 -17.09375 C 9.007812 -16.21875 7.984375 -15.253906 7.109375 -14.203125 C 5.898438 -12.703125 5.140625 -10.890625 4.828125 -8.765625 C 6.847656 -9.765625 8.425781 -10.644531 9.5625 -11.40625 Z M 9.5625 -11.40625 "/></g></g><g clip-rule="nonzero" clip-path="url(#da0749e484)"><g clip-rule="nonzero" clip-path="url(#637b203bdc)"><path style=" stroke:none;fill-rule:nonzero;fill:#fb6117;fill-opacity:1;" d="M 59.554688 120.363281 L 162.710938 120.363281 L 162.710938 129.410156 L 59.554688 129.410156 Z M 59.554688 120.363281 "/></g></g><g clip-rule="nonzero" clip-path="url(#2c4e433cf9)"><g clip-rule="nonzero" clip-path="url(#e97ec3f185)"><path style=" stroke:none;fill-rule:nonzero;fill:#fb6117;fill-opacity:1;" d="M 143.554688 50.765625 L 318.980469 50.765625 L 318.980469 59.8125 L 143.554688 59.8125 Z M 143.554688 50.765625 "/></g></g></g></svg>