<svg xmlns="http://www.w3.org/2000/svg" xmlns:xlink="http://www.w3.org/1999/xlink" width="396" zoomAndPan="magnify" viewBox="0 0 297 147.750002" height="197" preserveAspectRatio="xMidYMid meet" version="1.0"><defs><g/><clipPath id="de60da2aa3"><path d="M 44 0 L 78.714844 0 L 78.714844 60.648438 L 44 60.648438 Z M 44 0 " clip-rule="nonzero"/></clipPath><clipPath id="858406be11"><path d="M 16.570312 3 L 43 3 L 43 50 L 16.570312 50 Z M 16.570312 3 " clip-rule="nonzero"/></clipPath><clipPath id="a71a293ccb"><path d="M 22.867188 3.699219 C 22.28125 6.621094 23.746094 9.636719 25.847656 11.742188 C 27.953125 13.84375 30.644531 15.246094 33.21875 16.75 C 35.789062 18.253906 38.351562 19.964844 39.972656 22.46875 C 41.378906 24.644531 41.949219 27.253906 42.246094 29.828125 C 42.605469 32.945312 42.554688 36.226562 41.5625 39.167969 C 40.839844 37.398438 39.898438 35.699219 38.828125 34.117188 C 36.722656 31 34.132812 28.246094 31.554688 25.511719 C 28.542969 22.316406 25.535156 19.121094 22.519531 15.925781 C 25.636719 21.769531 30.46875 26.476562 34.558594 31.699219 C 38.644531 36.914062 42.125 43.140625 41.742188 49.757812 C 41.441406 46.375 38.691406 43.6875 35.714844 42.050781 C 32.738281 40.410156 29.398438 39.503906 26.457031 37.792969 C 20.902344 34.542969 17.164062 28.378906 16.875 21.957031 C 16.582031 15.464844 19.546875 9.289062 22.867188 3.699219 Z M 22.867188 3.699219 " clip-rule="nonzero"/></clipPath><linearGradient x1="-1204.20996" gradientTransform="matrix(-0.0606422, 0, 0, 0.0606422, -43.374043, 0.00000698818)" y1="60.999998" x2="-1204.20996" gradientUnits="userSpaceOnUse" y2="820.500034" id="a78335c031"><stop stop-opacity="1" stop-color="rgb(53.503418%, 74.87793%, 25.770569%)" offset="0"/><stop stop-opacity="1" stop-color="rgb(53.413391%, 74.772644%, 25.761414%)" offset="0.125"/><stop stop-opacity="1" stop-color="rgb(53.234863%, 74.565125%, 25.744629%)" offset="0.25"/><stop stop-opacity="1" stop-color="rgb(53.05481%, 74.356079%, 25.727844%)" offset="0.375"/><stop stop-opacity="1" stop-color="rgb(52.876282%, 74.147034%, 25.71106%)" offset="0.5"/><stop stop-opacity="1" stop-color="rgb(52.696228%, 73.939514%, 25.694275%)" offset="0.625"/><stop stop-opacity="1" stop-color="rgb(52.5177%, 73.730469%, 25.67749%)" offset="0.75"/><stop stop-opacity="1" stop-color="rgb(52.337646%, 73.522949%, 25.660706%)" offset="0.875"/><stop stop-opacity="1" stop-color="rgb(52.157593%, 73.313904%, 25.645447%)" offset="1"/></linearGradient><clipPath id="80a33c0ce8"><path d="M 20.648438 111.988281 L 123.632812 111.988281 L 123.632812 121.019531 L 20.648438 121.019531 Z M 20.648438 111.988281 " clip-rule="nonzero"/></clipPath><clipPath id="54116cfad4"><path d="M 25.167969 111.988281 L 119.101562 111.988281 C 120.296875 111.988281 121.445312 112.464844 122.292969 113.308594 C 123.140625 114.15625 123.617188 115.304688 123.617188 116.503906 C 123.617188 117.699219 123.140625 118.847656 122.292969 119.695312 C 121.445312 120.542969 120.296875 121.019531 119.101562 121.019531 L 25.167969 121.019531 C 23.96875 121.019531 22.820312 120.542969 21.972656 119.695312 C 21.125 118.847656 20.648438 117.699219 20.648438 116.503906 C 20.648438 115.304688 21.125 114.15625 21.972656 113.308594 C 22.820312 112.464844 23.96875 111.988281 25.167969 111.988281 Z M 25.167969 111.988281 " clip-rule="nonzero"/></clipPath><clipPath id="3eb764460b"><path d="M 104.507812 42.503906 L 279.671875 42.503906 L 279.671875 51.535156 L 104.507812 51.535156 Z M 104.507812 42.503906 " clip-rule="nonzero"/></clipPath><clipPath id="ed753c86b7"><path d="M 109.023438 42.503906 L 275.136719 42.503906 C 276.335938 42.503906 277.484375 42.980469 278.328125 43.828125 C 279.175781 44.675781 279.652344 45.824219 279.652344 47.019531 C 279.652344 48.21875 279.175781 49.367188 278.328125 50.214844 C 277.484375 51.0625 276.335938 51.535156 275.136719 51.535156 L 109.023438 51.535156 C 107.828125 51.535156 106.679688 51.0625 105.832031 50.214844 C 104.984375 49.367188 104.507812 48.21875 104.507812 47.019531 C 104.507812 45.824219 104.984375 44.675781 105.832031 43.828125 C 106.679688 42.980469 107.828125 42.503906 109.023438 42.503906 Z M 109.023438 42.503906 " clip-rule="nonzero"/></clipPath></defs><g fill="#e7191f" fill-opacity="1"><g transform="translate(15.696649, 88.724888)"><g><path d="M 8.546875 0 L 8.546875 -12.46875 L 0.84375 -12.46875 L 0.84375 -20.28125 L 14.75 -20.28125 L 14.75 0 Z M 8.546875 0 "/></g></g></g><g fill="#e7191f" fill-opacity="1"><g transform="translate(32.747186, 88.724888)"><g><path d="M 4.796875 -4.6875 L 0.84375 -4.6875 L 0.84375 0 L 4.796875 0 Z M 4.796875 -4.6875 "/></g></g></g><g fill="#e7191f" fill-opacity="1"><g transform="translate(39.681732, 88.724888)"><g><path d="M 18.40625 -20.28125 L 18.40625 0 L 12.203125 0 L 12.203125 -12.46875 L 9.3125 -12.46875 L 9.3125 0 L 1 0 L 1 -7.8125 L 3.109375 -7.8125 L 3.109375 -12.46875 L 1.3125 -12.46875 L 1.3125 -20.28125 Z M 18.40625 -20.28125 "/></g></g></g><g fill="#e7191f" fill-opacity="1"><g transform="translate(60.383401, 88.724888)"><g><path d="M 4.796875 -4.6875 L 0.84375 -4.6875 L 0.84375 0 L 4.796875 0 Z M 4.796875 -4.6875 "/></g></g></g><g fill="#e7191f" fill-opacity="1"><g transform="translate(67.317948, 88.724888)"><g><path d="M 8.71875 -20.28125 L 8.71875 -7.84375 L 2.515625 -7.84375 L 2.515625 -12.5 L 0.5 -12.5 L 0.5 -20.28125 Z M 8.71875 -20.28125 "/></g></g></g><g fill="#e7191f" fill-opacity="1"><g transform="translate(78.339088, 88.724888)"><g/></g></g><g fill="#e7191f" fill-opacity="1"><g transform="translate(85.675596, 88.724888)"><g><path d="M 20.546875 0 L 12.5 0 L 7 -8.109375 L 7 0 L 0.796875 0 L 0.796875 -20.25 L 7 -20.25 L 11.46875 -13.578125 L 11.46875 -20.25 L 18 -20.25 L 18 -11.15625 L 13.078125 -11.15625 Z M 20.546875 0 "/></g></g></g><g fill="#e7191f" fill-opacity="1"><g transform="translate(107.181189, 88.724888)"><g><path d="M 8.546875 0 L 8.546875 -12.46875 L 0.84375 -12.46875 L 0.84375 -20.28125 L 14.75 -20.28125 L 14.75 0 Z M 8.546875 0 "/></g></g></g><g fill="#e7191f" fill-opacity="1"><g transform="translate(124.231723, 88.724888)"><g><path d="M 8.71875 -20.28125 L 8.71875 -7.84375 L 2.515625 -7.84375 L 2.515625 -12.5 L 0.5 -12.5 L 0.5 -20.28125 Z M 8.71875 -20.28125 "/></g></g></g><g fill="#e7191f" fill-opacity="1"><g transform="translate(135.252859, 88.724888)"><g><path d="M 17.9375 0 L 1 0 L 1 -7.8125 L 11.703125 -7.8125 L 11.703125 -12.46875 L 7.203125 -12.46875 L 7.203125 -9.8125 L 1 -9.8125 L 1 -20.28125 L 17.9375 -20.28125 Z M 17.9375 0 "/></g></g></g><g fill="#e7191f" fill-opacity="1"><g transform="translate(155.485583, 88.724888)"><g><path d="M 18.828125 -20.28125 L 25.84375 -20.28125 L 21.65625 0 L 0.84375 0 L 0.84375 -20.28125 L 7.609375 -20.28125 L 7.609375 -12.703125 L 9.484375 -20.28125 L 16.453125 -20.28125 L 13.875 -9.859375 L 7.609375 -9.859375 L 7.609375 -7.609375 L 15.8125 -7.609375 Z M 18.828125 -20.28125 "/></g></g></g><g fill="#e7191f" fill-opacity="1"><g transform="translate(182.786108, 88.724888)"><g/></g></g><g fill="#e7191f" fill-opacity="1"><g transform="translate(190.122622, 88.724888)"><g><path d="M 18.5625 0 L 1.984375 0 L 1.984375 -12.46875 L 0.5 -12.46875 L 0.5 -20.28125 L 18.5625 -20.28125 Z M 8.171875 -12.46875 L 8.171875 -7.609375 L 12.375 -7.609375 L 12.375 -12.46875 Z M 8.171875 -12.46875 "/></g></g></g><g fill="#e7191f" fill-opacity="1"><g transform="translate(210.991797, 88.724888)"><g><path d="M 8.71875 -20.28125 L 8.71875 -7.84375 L 2.515625 -7.84375 L 2.515625 -12.5 L 0.5 -12.5 L 0.5 -20.28125 Z M 8.71875 -20.28125 "/></g></g></g><g fill="#e7191f" fill-opacity="1"><g transform="translate(222.012942, 88.724888)"><g><path d="M 11.296875 0 L 11.296875 -12.46875 L 7.203125 -12.46875 L 7.203125 0 L 1 0 L 1 -20.28125 L 17.53125 -20.28125 L 17.53125 0 Z M 11.296875 0 "/></g></g></g><g fill="#e7191f" fill-opacity="1"><g transform="translate(241.843714, 88.724888)"><g><path d="M 20.546875 0 L 12.5 0 L 7 -8.109375 L 7 0 L 0.796875 0 L 0.796875 -20.25 L 7 -20.25 L 11.46875 -13.578125 L 11.46875 -20.25 L 18 -20.25 L 18 -11.15625 L 13.078125 -11.15625 Z M 20.546875 0 "/></g></g></g><g fill="#e7191f" fill-opacity="1"><g transform="translate(263.349312, 88.724888)"><g><path d="M 10.359375 0 L 10.359375 -12.46875 L 0.84375 -12.46875 L 0.84375 -20.28125 L 16.59375 -20.28125 L 16.59375 0 Z M 0.84375 0 L 0.84375 -9.921875 L 7.03125 -9.921875 L 7.03125 0 Z M 0.84375 0 "/></g></g></g><g fill="#e7191f" fill-opacity="1"><g transform="translate(282.251514, 88.724888)"><g/></g></g><g clip-path="url(#de60da2aa3)"><path fill="#55833d" d="M 70.324219 0 C 71.09375 3.855469 69.164062 7.835938 66.386719 10.613281 C 63.609375 13.394531 60.058594 15.238281 56.667969 17.222656 C 53.269531 19.207031 49.882812 21.46875 47.753906 24.773438 C 45.898438 27.648438 45.140625 31.089844 44.75 34.488281 C 44.265625 38.609375 44.332031 42.933594 45.640625 46.816406 C 46.59375 44.476562 47.835938 42.238281 49.25 40.144531 C 52.027344 36.027344 55.449219 32.394531 58.851562 28.78125 C 62.828125 24.558594 66.800781 20.34375 70.777344 16.125 C 66.660156 23.839844 60.28125 30.058594 54.890625 36.941406 C 49.5 43.832031 44.902344 52.054688 45.40625 60.789062 C 45.804688 56.320312 49.433594 52.769531 53.367188 50.613281 C 57.304688 48.453125 61.710938 47.246094 65.585938 44.992188 C 72.917969 40.722656 77.851562 32.582031 78.230469 24.105469 C 78.621094 15.53125 74.707031 7.375 70.324219 0 Z M 70.324219 0 " fill-opacity="1" fill-rule="nonzero"/></g><g clip-path="url(#858406be11)"><g clip-path="url(#a71a293ccb)"><path fill="url(#a78335c031)" d="M 42.605469 3.699219 L 42.605469 49.757812 L 16.582031 49.757812 L 16.582031 3.699219 Z M 42.605469 3.699219 " fill-rule="nonzero"/></g></g><g fill="#0d0d0d" fill-opacity="1"><g transform="translate(149.852318, 125.408104)"><g><path d="M -5.125 11.859375 C -5.351562 11.773438 -5.523438 11.585938 -5.640625 11.296875 C -5.765625 11.003906 -5.828125 10.65625 -5.828125 10.25 C -5.828125 9.738281 -5.734375 9.1875 -5.546875 8.59375 C -5.359375 8 -5.082031 7.4375 -4.71875 6.90625 C -4.320312 6.300781 -3.546875 4.566406 -2.390625 1.703125 C -1.242188 -1.148438 -0.0703125 -4.28125 1.125 -7.6875 C 2.320312 -11.09375 3.222656 -13.914062 3.828125 -16.15625 C 4.109375 -17.289062 4.546875 -18.421875 5.140625 -19.546875 C 5.734375 -20.679688 6.441406 -21.25 7.265625 -21.25 C 7.359375 -21.25 7.515625 -21.226562 7.734375 -21.1875 C 8.453125 -20.957031 8.8125 -20.316406 8.8125 -19.265625 C 8.8125 -18.421875 8.585938 -17.363281 8.140625 -16.09375 C 7.023438 -12.695312 5.734375 -9.140625 4.265625 -5.421875 C 2.804688 -1.710938 1.453125 1.550781 0.203125 4.375 C -1.046875 7.195312 -1.882812 8.945312 -2.3125 9.625 C -2.84375 10.46875 -3.269531 11.066406 -3.59375 11.421875 C -3.925781 11.785156 -4.28125 11.96875 -4.65625 11.96875 C -4.789062 11.96875 -4.945312 11.929688 -5.125 11.859375 Z M -5.125 11.859375 "/></g></g></g><g fill="#0d0d0d" fill-opacity="1"><g transform="translate(158.528689, 125.408104)"><g><path d="M -0.703125 0.46875 C -1.015625 0.332031 -1.171875 0 -1.171875 -0.53125 C -1.171875 -1.050781 -1.035156 -1.769531 -0.765625 -2.6875 C -0.722656 -2.863281 -0.476562 -3.507812 -0.03125 -4.625 C 0.84375 -6.90625 1.625 -9.015625 2.3125 -10.953125 C 3.007812 -12.898438 3.65625 -14.914062 4.25 -17 C 4.632812 -18.332031 5.035156 -19.316406 5.453125 -19.953125 C 5.878906 -20.585938 6.429688 -20.90625 7.109375 -20.90625 C 8.378906 -20.90625 9.015625 -20.203125 9.015625 -18.796875 C 9.015625 -18.148438 8.878906 -17.390625 8.609375 -16.515625 C 8.191406 -15.109375 7.523438 -13.273438 6.609375 -11.015625 C 5.691406 -8.765625 4.773438 -6.640625 3.859375 -4.640625 C 2.941406 -2.640625 2.316406 -1.375 1.984375 -0.84375 C 1.347656 0.144531 0.707031 0.640625 0.0625 0.640625 C -0.15625 0.640625 -0.410156 0.582031 -0.703125 0.46875 Z M -0.703125 0.46875 "/></g></g></g><g fill="#0d0d0d" fill-opacity="1"><g transform="translate(167.640522, 125.408104)"><g><path d="M 8.578125 -14.953125 C 9.515625 -15.191406 10.519531 -15.3125 11.59375 -15.3125 C 13.226562 -15.3125 14.566406 -14.90625 15.609375 -14.09375 C 16.660156 -13.28125 17.1875 -11.898438 17.1875 -9.953125 C 17.1875 -7.941406 16.441406 -6.070312 14.953125 -4.34375 C 13.472656 -2.613281 11.726562 -1.15625 9.71875 0.03125 C 7.707031 1.21875 5.796875 2.144531 3.984375 2.8125 C 2.910156 3.195312 1.863281 3.390625 0.84375 3.390625 C -0.28125 3.390625 -1.207031 3.179688 -1.9375 2.765625 C -2.675781 2.347656 -3.046875 1.835938 -3.046875 1.234375 C -3.046875 0.703125 -2.84375 0.367188 -2.4375 0.234375 C -2.039062 0.0976562 -1.632812 0.03125 -1.21875 0.03125 C -0.8125 0.03125 -0.539062 0.03125 -0.40625 0.03125 C 0.976562 -0.101562 2.550781 -0.578125 4.3125 -1.390625 C 6.082031 -2.203125 7.707031 -3.101562 9.1875 -4.09375 C 10.394531 -4.894531 11.421875 -5.847656 12.265625 -6.953125 C 13.117188 -8.054688 13.546875 -9.046875 13.546875 -9.921875 C 13.546875 -10.566406 13.285156 -11.066406 12.765625 -11.421875 C 12.410156 -11.671875 11.921875 -11.796875 11.296875 -11.796875 C 10.535156 -11.796875 9.726562 -11.65625 8.875 -11.375 C 8.03125 -11.09375 6.9375 -10.675781 5.59375 -10.125 C 4.613281 -9.71875 4.035156 -9.492188 3.859375 -9.453125 C 3.765625 -9.429688 3.628906 -9.421875 3.453125 -9.421875 C 2.847656 -9.421875 2.351562 -9.628906 1.96875 -10.046875 C 1.59375 -10.472656 1.40625 -10.96875 1.40625 -11.53125 C 1.40625 -12.039062 1.582031 -12.476562 1.9375 -12.84375 C 2.28125 -13.175781 3.613281 -14.722656 5.9375 -17.484375 C 8.257812 -20.242188 9.695312 -21.976562 10.25 -22.6875 C 10.59375 -23.113281 10.960938 -23.4375 11.359375 -23.65625 C 11.765625 -23.882812 12.164062 -24 12.5625 -24 C 13.007812 -24 13.4375 -23.863281 13.84375 -23.59375 C 14.351562 -23.257812 14.609375 -22.757812 14.609375 -22.09375 C 14.609375 -21.6875 14.515625 -21.273438 14.328125 -20.859375 C 14.140625 -20.453125 13.863281 -20.078125 13.5 -19.734375 Z M 8.578125 -14.953125 "/></g></g></g><g fill="#0d0d0d" fill-opacity="1"><g transform="translate(187.069326, 125.408104)"><g><path d="M 16.15625 -20.84375 C 16.84375 -20.507812 17.1875 -19.929688 17.1875 -19.109375 C 17.1875 -18.523438 16.988281 -17.742188 16.59375 -16.765625 C 16.257812 -15.953125 15.828125 -14.984375 15.296875 -13.859375 C 14.773438 -12.734375 14.398438 -11.9375 14.171875 -11.46875 C 12.335938 -7.625 11 -4.515625 10.15625 -2.140625 C 9.882812 -1.378906 9.535156 -0.789062 9.109375 -0.375 C 8.691406 0.03125 8.25 0.234375 7.78125 0.234375 C 7.59375 0.234375 7.398438 0.203125 7.203125 0.140625 C 6.617188 -0.0859375 6.097656 -0.585938 5.640625 -1.359375 C 5.179688 -2.128906 4.820312 -3.1875 4.5625 -4.53125 C 4.445312 -5.15625 4.367188 -5.734375 4.328125 -6.265625 C 3.472656 -4.078125 2.585938 -2.390625 1.671875 -1.203125 C 1.335938 -0.773438 1.019531 -0.441406 0.71875 -0.203125 C 0.414062 0.0234375 0.0976562 0.140625 -0.234375 0.140625 C -0.484375 0.140625 -0.707031 0.0820312 -0.90625 -0.03125 C -1.414062 -0.300781 -1.671875 -0.691406 -1.671875 -1.203125 C -1.671875 -1.566406 -1.5625 -2.007812 -1.34375 -2.53125 C -1.132812 -3.050781 -0.820312 -3.726562 -0.40625 -4.5625 C 0.21875 -5.769531 0.816406 -7.082031 1.390625 -8.5 C 1.960938 -9.914062 2.300781 -10.757812 2.40625 -11.03125 L 2.875 -12.171875 C 3.375 -13.367188 3.785156 -14.207031 4.109375 -14.6875 C 4.429688 -15.175781 4.804688 -15.421875 5.234375 -15.421875 C 5.296875 -15.421875 5.414062 -15.394531 5.59375 -15.34375 C 6.039062 -15.238281 6.359375 -15.046875 6.546875 -14.765625 C 6.742188 -14.484375 6.863281 -14.140625 6.90625 -13.734375 C 6.945312 -13.335938 6.976562 -12.722656 7 -11.890625 C 7 -10.378906 7.066406 -9.117188 7.203125 -8.109375 C 7.316406 -7.234375 7.382812 -6.484375 7.40625 -5.859375 C 8.007812 -7.554688 9.019531 -10.019531 10.4375 -13.25 C 11.851562 -16.476562 12.773438 -18.460938 13.203125 -19.203125 C 13.847656 -20.429688 14.578125 -21.046875 15.390625 -21.046875 C 15.628906 -21.046875 15.882812 -20.976562 16.15625 -20.84375 Z M 16.15625 -20.84375 "/></g></g></g><g fill="#0d0d0d" fill-opacity="1"><g transform="translate(203.449942, 125.408104)"><g/></g></g><g fill="#0d0d0d" fill-opacity="1"><g transform="translate(214.471082, 125.408104)"><g><path d="M 9.390625 -2.34375 C 8.960938 -2.75 8.75 -3.1875 8.75 -3.65625 C 8.75 -4.414062 9.226562 -5.175781 10.1875 -5.9375 C 11.375 -6.851562 12.289062 -7.914062 12.9375 -9.125 C 13.582031 -10.34375 13.90625 -11.535156 13.90625 -12.703125 C 13.90625 -13.953125 13.550781 -14.945312 12.84375 -15.6875 C 12.394531 -16.15625 11.65625 -16.390625 10.625 -16.390625 C 9.90625 -16.390625 8.785156 -16.242188 7.265625 -15.953125 C 6.953125 -15.910156 6.632812 -15.835938 6.3125 -15.734375 C 5.988281 -15.628906 5.757812 -15.554688 5.625 -15.515625 C 5.070312 -15.296875 4.628906 -15.1875 4.296875 -15.1875 C 3.796875 -15.1875 3.347656 -15.488281 2.953125 -16.09375 C 2.773438 -16.375 2.6875 -16.648438 2.6875 -16.921875 C 2.6875 -17.617188 3.222656 -18.242188 4.296875 -18.796875 C 5.367188 -19.359375 6.773438 -19.765625 8.515625 -20.015625 C 9.117188 -20.097656 9.734375 -20.140625 10.359375 -20.140625 C 12.921875 -20.140625 14.851562 -19.328125 16.15625 -17.703125 C 17.132812 -16.441406 17.625 -14.84375 17.625 -12.90625 C 17.625 -11.476562 17.335938 -10.035156 16.765625 -8.578125 C 16.203125 -7.128906 15.40625 -5.890625 14.375 -4.859375 C 13.457031 -3.941406 12.632812 -3.253906 11.90625 -2.796875 C 11.1875 -2.335938 10.582031 -2.109375 10.09375 -2.109375 C 9.78125 -2.109375 9.546875 -2.1875 9.390625 -2.34375 Z M -2.75 8.015625 C -3.082031 7.785156 -3.25 7.414062 -3.25 6.90625 C -3.25 6.394531 -3.0625 5.734375 -2.6875 4.921875 C -1.769531 3.117188 -0.269531 -0.609375 1.8125 -6.265625 C 2.675781 -8.566406 3.175781 -9.882812 3.3125 -10.21875 C 3.539062 -10.800781 3.820312 -11.25 4.15625 -11.5625 C 4.488281 -11.875 4.867188 -12.03125 5.296875 -12.03125 C 5.585938 -12.03125 5.84375 -11.972656 6.0625 -11.859375 C 6.78125 -11.546875 7.140625 -10.957031 7.140625 -10.09375 C 7.140625 -9.644531 7.023438 -9.128906 6.796875 -8.546875 C 5.773438 -5.890625 4.59375 -2.90625 3.25 0.40625 C 1.90625 3.726562 1.035156 5.703125 0.640625 6.328125 C -0.210938 7.628906 -1.050781 8.28125 -1.875 8.28125 C -2.207031 8.28125 -2.5 8.191406 -2.75 8.015625 Z M -2.75 8.015625 "/></g></g></g><g fill="#0d0d0d" fill-opacity="1"><g transform="translate(233.732403, 125.408104)"><g><path d="M -0.703125 0.46875 C -1.015625 0.332031 -1.171875 0 -1.171875 -0.53125 C -1.171875 -1.050781 -1.035156 -1.769531 -0.765625 -2.6875 C -0.722656 -2.863281 -0.476562 -3.507812 -0.03125 -4.625 C 0.84375 -6.90625 1.625 -9.015625 2.3125 -10.953125 C 3.007812 -12.898438 3.65625 -14.914062 4.25 -17 C 4.632812 -18.332031 5.035156 -19.316406 5.453125 -19.953125 C 5.878906 -20.585938 6.429688 -20.90625 7.109375 -20.90625 C 8.378906 -20.90625 9.015625 -20.203125 9.015625 -18.796875 C 9.015625 -18.148438 8.878906 -17.390625 8.609375 -16.515625 C 8.191406 -15.109375 7.523438 -13.273438 6.609375 -11.015625 C 5.691406 -8.765625 4.773438 -6.640625 3.859375 -4.640625 C 2.941406 -2.640625 2.316406 -1.375 1.984375 -0.84375 C 1.347656 0.144531 0.707031 0.640625 0.0625 0.640625 C -0.15625 0.640625 -0.410156 0.582031 -0.703125 0.46875 Z M -0.703125 0.46875 "/></g></g></g><g fill="#0d0d0d" fill-opacity="1"><g transform="translate(242.844232, 125.408104)"><g><path d="M -0.703125 0.46875 C -1.015625 0.332031 -1.171875 0 -1.171875 -0.53125 C -1.171875 -1.050781 -1.035156 -1.769531 -0.765625 -2.6875 C -0.722656 -2.863281 -0.476562 -3.507812 -0.03125 -4.625 C 0.84375 -6.90625 1.625 -9.015625 2.3125 -10.953125 C 3.007812 -12.898438 3.65625 -14.914062 4.25 -17 C 4.632812 -18.332031 5.035156 -19.316406 5.453125 -19.953125 C 5.878906 -20.585938 6.429688 -20.90625 7.109375 -20.90625 C 8.378906 -20.90625 9.015625 -20.203125 9.015625 -18.796875 C 9.015625 -18.148438 8.878906 -17.390625 8.609375 -16.515625 C 8.191406 -15.109375 7.523438 -13.273438 6.609375 -11.015625 C 5.691406 -8.765625 4.773438 -6.640625 3.859375 -4.640625 C 2.941406 -2.640625 2.316406 -1.375 1.984375 -0.84375 C 1.347656 0.144531 0.707031 0.640625 0.0625 0.640625 C -0.15625 0.640625 -0.410156 0.582031 -0.703125 0.46875 Z M -0.703125 0.46875 "/></g></g></g><g fill="#0d0d0d" fill-opacity="1"><g transform="translate(251.956061, 125.408104)"><g><path d="M 2.078125 -7.671875 C 1.546875 -7.898438 1.28125 -8.367188 1.28125 -9.078125 C 1.28125 -9.597656 1.382812 -10.195312 1.59375 -10.875 C 1.800781 -11.550781 2.117188 -12.453125 2.546875 -13.578125 C 3.085938 -15.003906 3.421875 -15.960938 3.546875 -16.453125 C 3.753906 -17.148438 4.0625 -17.703125 4.46875 -18.109375 C 4.882812 -18.523438 5.328125 -18.734375 5.796875 -18.734375 C 6.023438 -18.734375 6.191406 -18.710938 6.296875 -18.671875 C 7.171875 -18.359375 7.609375 -17.753906 7.609375 -16.859375 C 7.609375 -16.367188 7.472656 -15.742188 7.203125 -14.984375 L 6.9375 -14.171875 C 6.3125 -12.367188 5.65625 -10.816406 4.96875 -9.515625 C 4.289062 -8.222656 3.503906 -7.578125 2.609375 -7.578125 C 2.453125 -7.578125 2.273438 -7.609375 2.078125 -7.671875 Z M 2.078125 -7.671875 "/></g></g></g><g fill="#0d0d0d" fill-opacity="1"><g transform="translate(260.196968, 125.408104)"><g><path d="M 20.046875 -17.796875 C 19.679688 -15.472656 17.972656 -13.1875 14.921875 -10.9375 C 11.878906 -8.695312 8.570312 -6.78125 5 -5.1875 C 5.332031 -3.988281 5.851562 -3.253906 6.5625 -2.984375 C 7.082031 -2.785156 7.585938 -2.6875 8.078125 -2.6875 C 9.234375 -2.6875 10.332031 -3.132812 11.375 -4.03125 C 12.414062 -4.9375 13.21875 -5.992188 13.78125 -7.203125 C 14.445312 -8.660156 15.21875 -9.390625 16.09375 -9.390625 C 16.3125 -9.390625 16.519531 -9.34375 16.71875 -9.25 C 17.34375 -8.976562 17.65625 -8.472656 17.65625 -7.734375 C 17.65625 -7.222656 17.5 -6.585938 17.1875 -5.828125 C 16.34375 -3.773438 15.144531 -2.148438 13.59375 -0.953125 C 12.039062 0.242188 10.378906 0.84375 8.609375 0.84375 C 8.234375 0.84375 7.851562 0.804688 7.46875 0.734375 C 5.925781 0.515625 4.640625 0.00390625 3.609375 -0.796875 C 2.585938 -1.609375 1.875 -2.617188 1.46875 -3.828125 L 1.03125 -3.71875 C 0.96875 -3.695312 0.859375 -3.6875 0.703125 -3.6875 C 0.347656 -3.6875 0.078125 -3.78125 -0.109375 -3.96875 C -0.304688 -4.15625 -0.40625 -4.40625 -0.40625 -4.71875 C -0.40625 -5.101562 -0.25 -5.519531 0.0625 -5.96875 C 0.195312 -6.164062 0.535156 -6.429688 1.078125 -6.765625 C 1.117188 -7.484375 1.207031 -8.109375 1.34375 -8.640625 C 2.144531 -12.015625 3.460938 -14.78125 5.296875 -16.9375 C 7.128906 -19.09375 9.078125 -20.644531 11.140625 -21.59375 C 13.210938 -22.550781 15.0625 -23.03125 16.6875 -23.03125 C 17.800781 -23.03125 18.65625 -22.695312 19.25 -22.03125 C 19.84375 -21.375 20.140625 -20.429688 20.140625 -19.203125 C 20.140625 -18.773438 20.109375 -18.304688 20.046875 -17.796875 Z M 9.546875 -11.390625 C 11.160156 -12.441406 12.507812 -13.488281 13.59375 -14.53125 C 14.675781 -15.570312 15.476562 -16.503906 16 -17.328125 C 16.53125 -18.148438 16.796875 -18.796875 16.796875 -19.265625 C 16.796875 -19.472656 16.757812 -19.617188 16.6875 -19.703125 C 16.601562 -19.859375 16.390625 -19.9375 16.046875 -19.9375 C 15.453125 -19.9375 14.617188 -19.679688 13.546875 -19.171875 C 12.472656 -18.660156 11.347656 -17.960938 10.171875 -17.078125 C 8.992188 -16.191406 7.972656 -15.222656 7.109375 -14.171875 C 5.898438 -12.679688 5.140625 -10.875 4.828125 -8.75 C 6.835938 -9.75 8.410156 -10.628906 9.546875 -11.390625 Z M 9.546875 -11.390625 "/></g></g></g><g clip-path="url(#80a33c0ce8)"><g clip-path="url(#54116cfad4)"><path fill="#fb6117" d="M 20.648438 111.988281 L 123.632812 111.988281 L 123.632812 121.019531 L 20.648438 121.019531 Z M 20.648438 111.988281 " fill-opacity="1" fill-rule="nonzero"/></g></g><g clip-path="url(#3eb764460b)"><g clip-path="url(#ed753c86b7)"><path fill="#fb6117" d="M 104.507812 42.503906 L 279.636719 42.503906 L 279.636719 51.535156 L 104.507812 51.535156 Z M 104.507812 42.503906 " fill-opacity="1" fill-rule="nonzero"/></g></g></svg>