<?xml version="1.0" encoding="UTF-8"?>
<svg id="Layer_2" data-name="Layer 2" xmlns="http://www.w3.org/2000/svg" viewBox="0 0 2172.01 1439.2">
  <defs>
    <style>
      .cls-1 {
        fill: #0b1020;
      }

      .cls-2, .cls-3 {
        fill: #fff;
      }

      .cls-3 {
        opacity: .5;
      }

      .cls-4 {
        fill: #853229;
      }

      .cls-5 {
        fill: #231f20;
      }

      .cls-6 {
        fill: #f75e6a;
      }

      .cls-7 {
        fill: #e7191f;
      }
    </style>
  </defs>
  <g id="Layer_1-2" data-name="Layer 1">
    <g>
      <g>
        <g>
          <path class="cls-2" d="M362.43,1168.57V386.86c0-18.74,15.25-33.99,33.99-33.99h1223.53c18.74,0,33.99,15.25,33.99,33.99v781.7H362.43Z"/>
          <path class="cls-5" d="M1619.95,318.89H396.41c-37.54,0-67.97,30.43-67.97,67.97v815.69h1359.48V386.86c0-37.54-30.43-67.97-67.97-67.97h0Z"/>
        </g>
        <rect class="cls-2" x="629.38" y="147.61" width="757.45" height="1229.41" transform="translate(1770.42 -245.79) rotate(90)"/>
        <path class="cls-5" d="M185.68,1202.55h1631.38v28.73c0,21.66-17.59,39.24-39.24,39.24H224.92c-21.66,0-39.24-17.59-39.24-39.24v-28.73h0Z"/>
      </g>
      <g>
        <path class="cls-4" d="M443.5,546.39h0c20.94,1.97,39.52-13.41,41.49-34.35l16.3-173.16-75.84-7.14-16.3,173.16c-1.97,20.94,13.41,39.52,34.35,41.49Z"/>
        <g>
          <path class="cls-4" d="M487.4,146.25c51.37,21.66,82.55,69.28,77.88,118.95l-.6,6.34c-4.19,44.53-36.51,82.54-83.47,98.17l-40.7,8.77,22.82-242.38,24.07,10.15Z"/>
          <polygon class="cls-7" points="171.75 .2 463.33 136.1 440.51 378.49 128.66 457.97 171.75 .2"/>
        </g>
        <ellipse class="cls-7" cx="149.42" cy="229.01" rx="229.9" ry="79.26" transform="translate(-92.58 356.31) rotate(-84.62)"/>
        <path class="cls-4" d="M129.49,440.73c25.17,2.37,69.5-76.66,81.67-205.9,12.17-129.24-16.63-215.16-41.81-217.53-25.17-2.37-69.5,76.67-81.67,205.91-12.17,129.24,16.63,215.16,41.81,217.53Z"/>
        <rect class="cls-7" x="123.58" y="201.06" width="113.4" height="62.01" transform="translate(-67.66 389.8) rotate(-84.62)"/>
        <ellipse class="cls-6" cx="150.19" cy="229.23" rx="56.7" ry="23.78" transform="translate(-92.11 357.27) rotate(-84.62)"/>
      </g>
      <g>
        <path class="cls-7" d="M1417.4,1439.15c-5.66.58-10.74-3.55-11.32-9.21l-69.66-677.84c-.58-5.66,3.55-10.74,9.21-11.32l500.47-51.43c5.66-.58,10.74,3.55,11.32,9.21l69.66,677.84c.58,5.66-3.55,10.74-9.21,11.32l-500.47,51.43Z"/>
        <rect class="cls-2" x="1465.85" y="769.75" width="274.12" height="27.81" transform="translate(-71.72 167.97) rotate(-5.87)"/>
        <rect class="cls-2" x="1399.97" y="870.17" width="425.68" height="19.53" transform="translate(-81.51 169.49) rotate(-5.87)"/>
        <rect class="cls-2" x="1404.81" y="917.26" width="425.68" height="19.53" transform="translate(-86.3 170.23) rotate(-5.87)"/>
        <rect class="cls-2" x="1409.65" y="964.34" width="425.68" height="19.53" transform="translate(-91.08 170.97) rotate(-5.87)"/>
        <rect class="cls-2" x="1414.49" y="1011.43" width="425.68" height="19.53" transform="translate(-95.87 171.72) rotate(-5.87)"/>
        <rect class="cls-2" x="1419.32" y="1058.52" width="425.68" height="19.53" transform="translate(-100.66 172.46) rotate(-5.87)"/>
        <rect class="cls-2" x="1424.16" y="1105.6" width="425.68" height="19.53" transform="translate(-105.45 173.2) rotate(-5.87)"/>
        <rect class="cls-2" x="1429" y="1152.69" width="425.68" height="19.53" transform="translate(-110.24 173.94) rotate(-5.87)"/>
        <rect class="cls-2" x="1433.84" y="1199.78" width="425.68" height="19.53" transform="translate(-115.03 174.68) rotate(-5.87)"/>
        <rect class="cls-2" x="1438.68" y="1246.86" width="425.68" height="19.53" transform="translate(-119.81 175.42) rotate(-5.87)"/>
        <rect class="cls-2" x="1443.52" y="1293.95" width="425.68" height="19.53" transform="translate(-124.6 176.16) rotate(-5.87)"/>
        <rect class="cls-2" x="1448.91" y="1351.87" width="213.85" height="19.53" transform="translate(-131.05 166.19) rotate(-5.87)"/>
      </g>
      <g>
        <rect class="cls-1" x="2110.12" y="518.52" width="53.31" height="70.35" rx="23" ry="23" transform="translate(444.05 1970.4) rotate(-54.45)"/>
        <rect class="cls-1" x="1779.4" y="829.7" width="258.21" height="87.63" transform="translate(88.26 1918.57) rotate(-54.45)"/>
        <g>
          <polygon class="cls-7" points="1800.99 962.08 1858.65 1003.27 1794.15 1032.61 1800.99 962.08"/>
          <path class="cls-1" d="M1796.99,953.26l-8.47,87.22,79.77-36.28-71.3-50.94ZM1805,970.89l44.01,31.44-49.24,22.39,5.23-53.83Z"/>
        </g>
        <g>
          <path class="cls-7" d="M1954.49,741.77l144.49-202.21,63.42,45.32-144.48,202.22-63.42-45.32ZM2117.35,689.71c-.35,0-.88-.08-1.4-.45-1.09-.78-1.34-2.3-.56-3.39l45.92-64.27,3.96,2.83-45.92,64.27c-.46.65-1.19,1.02-1.99,1.02Z"/>
          <path class="cls-7" d="M2168.94,621.1l-.06-.05-8.7-6.22-8.76-6.26,17.74-24.83-71.3-50.94-150.11,210.09,71.3,50.94,127.28-178.14,8.76,6.26-43.64,61.08c-2.33,3.27-1.58,7.81,1.69,10.14,1.28.92,2.76,1.36,4.22,1.36,2.27,0,4.5-1.06,5.92-3.05l48.73-68.21-3.07-2.19ZM2143.53,602.95l-5.63,7.88h0s-121.11,169.51-121.11,169.51l-55.54-39.69,138.85-194.33,55.54,39.69-12.11,16.95Z"/>
        </g>
      </g>
      <path class="cls-7" d="M985.7,476.85l-302.95,524.72c-6.96,12.06,1.74,27.14,15.67,27.14h605.89c13.93,0,22.63-15.08,15.67-27.14l-302.95-524.72c-6.96-12.06-24.37-12.06-31.34,0Z"/>
      <path class="cls-2" d="M976.46,885.62c0-4.97.65-9.18,1.96-12.65,1.31-3.46,3.07-6.27,5.3-8.43,2.22-2.16,4.83-3.73,7.84-4.71,3.01-.98,6.28-1.47,9.8-1.47s6.63.49,9.71,1.47c3.07.98,5.72,2.55,7.94,4.71,2.22,2.16,3.99,4.97,5.29,8.43,1.31,3.46,1.96,7.68,1.96,12.65s-.66,8.99-1.96,12.45c-1.31,3.46-3.07,6.31-5.29,8.53-2.22,2.22-4.87,3.85-7.94,4.9-3.07,1.04-6.31,1.57-9.71,1.57s-6.8-.52-9.8-1.57c-3.01-1.05-5.62-2.68-7.84-4.9-2.23-2.22-3.99-5.06-5.3-8.53-1.31-3.46-1.96-7.61-1.96-12.45ZM1013.52,826.2h-23.73l-10-205.5h43.73l-10,205.5Z"/>
      <g>
        <circle class="cls-3" cx="603" cy="885.77" r="199.28" transform="translate(-449.72 685.82) rotate(-45)"/>
        <path d="M62.81,1083.09c-26.57,7.17-53.91-8.56-61.08-35.13-7.17-26.57,8.56-53.91,35.13-61.08l240.51-64.88,25.95,96.2-240.51,64.88Z"/>
        <polygon points="344.93 981.19 351.42 1005.24 327.37 1011.73 301.41 915.52 325.47 909.03 331.95 933.09 356 926.6 362.49 950.65 368.98 974.7 344.93 981.19"/>
        <path d="M362.49,950.65c35.83,132.83,172.56,211.46,305.39,175.63,132.83-35.83,211.46-172.56,175.63-305.39-35.83-132.83-172.56-211.46-305.39-175.63-132.83,35.83-211.46,172.56-175.63,305.39ZM551.09,693.36c106.09-28.62,215.69,34.41,244.31,140.5,28.62,106.09-34.41,215.69-140.5,244.31-106.09,28.62-215.69-34.41-244.31-140.5-28.62-106.09,34.41-215.69,140.5-244.31Z"/>
        <g>
          <polygon class="cls-7" points="283.27 925.41 298.01 921.44 321.46 1008.34 306.71 1012.31 283.27 925.41"/>
          <path class="cls-7" d="M301.42,915.52l-24.05,6.49,25.95,96.2,24.05-6.49-25.95-96.2ZM289.17,928.8l5.46-1.47,20.93,77.61-5.46,1.47-20.93-77.61Z"/>
        </g>
      </g>
    </g>
  </g>
</svg>