<svg xmlns="http://www.w3.org/2000/svg" viewBox="0 0 316.99 444.87"><defs><style>.cls-1{fill:#e0bf7f;}.cls-2,.cls-3{fill:none;stroke:#984c22;stroke-linecap:round;}.cls-12,.cls-2,.cls-3{stroke-miterlimit:10;}.cls-2{stroke-width:8px;}.cls-3{stroke-width:7px;}.cls-4{fill:#f5851f;}.cls-5{fill:#faa819;}.cls-6{fill:#984c22;}.cls-7{fill:#38130f;}.cls-8{fill:#db5726;}.cls-9{fill:#345428;}.cls-10{fill:#49a046;}.cls-11{fill:#77b143;}.cls-12{fill:#fff;stroke:#38130f;stroke-width:5px;}</style></defs><g id="Layer_2" data-name="Layer 2"><g id="Layer_1-2" data-name="Layer 1"><ellipse class="cls-1" cx="158.5" cy="417.61" rx="110.58" ry="27.26"/><path class="cls-2" d="M20.35,385.57c1.7,2.1,7.85,15,16.91,18.47"/><path class="cls-2" d="M18.84,386.85A27.23,27.23,0,0,0,9,396C3,405.3,3.93,415.78,4.28,418.63"/><path class="cls-2" d="M18.9,387.72A30.71,30.71,0,0,0,11.67,402c-2.45,11.42-.38,20.18.8,22.5"/><path class="cls-2" d="M19.46,385.62c-.84,2.19-3.27,24.92,3.17,34.63"/><path class="cls-3" d="M26.18,268.87c-9.06,9.06-7,84.78-7,117.25"/><path class="cls-2" d="M296.64,385.57c-1.7,2.1-7.84,15-16.91,18.47"/><path class="cls-2" d="M298.15,386.85A27.15,27.15,0,0,1,308,396c6.06,9.33,5.08,19.81,4.73,22.66"/><path class="cls-2" d="M298.09,387.72A30.61,30.61,0,0,1,305.32,402c2.45,11.42.38,20.18-.8,22.5"/><path class="cls-2" d="M297.54,385.62c.83,2.19,3.26,24.92-3.18,34.63"/><path class="cls-3" d="M290.81,268.87c9.06,9.06,7,84.78,7,117.25"/><path class="cls-4" d="M211.68,60.81A147.44,147.44,0,1,1,36.56,295.19,152.45,152.45,0,1,0,211.68,60.81Z"/><path class="cls-5" d="M286.25,189A147.35,147.35,0,0,0,211.68,60.81,152.46,152.46,0,0,0,36.56,295.19,147.42,147.42,0,0,0,286.25,189Z"/><path class="cls-6" d="M158.5,360C72.29,360,2.15,289.91,2.15,203.7S72.29,47.36,158.5,47.36,314.84,117.49,314.84,203.7,244.7,360,158.5,360Zm0-304.89C76.58,55.15,10,121.79,10,203.7S76.58,352.25,158.5,352.25,307.05,285.61,307.05,203.7,240.41,55.15,158.5,55.15Z"/><path class="cls-7" d="M113,155.11c-10.92-1.74-25.06,2.07-31.79,5.76-5.18,2.84-12.65,9-10.5,16,2,6.52,7.15,3.59,10.53.43,8.89-8.29,19.5-16.36,31.76-18.41C114.94,158.54,114.87,155.4,113,155.11Z"/><path class="cls-7" d="M204,158.86c12.26,2,22.86,10.12,31.75,18.41,3.38,3.16,8.51,6.09,10.53-.43,2.15-7-5.32-13.13-10.49-16-6.73-3.69-20.88-7.5-31.79-5.76C202.13,155.4,202.05,158.54,204,158.86Z"/><ellipse class="cls-8" cx="97.03" cy="250.64" rx="13.17" ry="4.77"/><ellipse class="cls-8" cx="219.97" cy="250.64" rx="13.17" ry="4.77"/><path class="cls-9" d="M91.35,43.68A229.56,229.56,0,0,0,65,2.29,6.05,6.05,0,0,0,57.2.85,16.53,16.53,0,0,0,52,5.56a15.65,15.65,0,0,0-1.62,2.87,6,6,0,0,0,1.38,6.71C87.68,50.07,101.14,81.61,105.56,92c1.24,2.92,1.62,3.8,2.3,3.8a1.41,1.41,0,0,0,.49-.11l.49-.26L109,95C110,92.51,103.3,67.9,91.35,43.68Z"/><ellipse class="cls-9" cx="108.46" cy="94.69" rx="9.04" ry="3.41" transform="translate(-26.29 43.96) rotate(-20.49)"/><path class="cls-10" d="M59.78,163.82c-7-6.16-19.17-20-21-43.12-1.37-17.66,7.68-34,25.46-46.08l2-1.47,1.18,1.4.37.44C54.2,101,46.8,136.81,59.78,163.82Z"/><path class="cls-11" d="M53.05,131.48c0-19.63,6.15-40,14.81-56.49.81,1,1.6,1.92,2.36,2.85.12.13.21.26.32.4,21,25.84,17.81,37-3.85,72.15A88.59,88.59,0,0,0,62,159.06c-.33.68-.64,1.34-.91,1.94l-1.34,2.82C54.18,154.54,52.33,143.3,53.05,131.48Z"/><path class="cls-9" d="M82.66,43.53A135.57,135.57,0,0,0,58.41,89.45,137.71,137.71,0,0,0,53,140.55a136.34,136.34,0,0,1,8.15-50.18A131.21,131.21,0,0,1,87.12,47.32Z"/><circle class="cls-12" cx="107.48" cy="213.68" r="23.78"/><circle class="cls-12" cx="209.51" cy="213.68" r="23.78"/><path class="cls-7" d="M184.37,276.29a21.6,21.6,0,0,0-1.84-2.15c-.48-.5-1-1-1.55-1.46a33.64,33.64,0,0,0-16.11-7.34c-10.57-1.77-23.29,1.57-30.19,8.39a20.53,20.53,0,0,0-1.4,1.56,15.75,15.75,0,0,0-3.29,6.49A9.17,9.17,0,0,0,134.85,292c2.13-7.36,11.9-12.93,23.65-12.93,11.59,0,21.26,5.42,23.56,12.65.21-.11.43-.19.63-.31C187.64,288.61,189.05,282.68,184.37,276.29Z"/><path class="cls-8" d="M158.5,279.09c-11.75,0-21.52,5.57-23.65,12.93a13.44,13.44,0,0,0,3.35,1.3c3.58.9,6.69.24,10.11-.79a46.28,46.28,0,0,1,10.84-2.34c.61,0,1.23.1,1.86.19,5.62.85,14.91,4.27,21.05,1.36C179.76,284.51,170.09,279.09,158.5,279.09Z"/><path class="cls-3" d="M89.58,341.2c-.67,9.19-3.83,77.52,14.13,77.5,8,0,10.81-18,18.58-32.9"/><path class="cls-6" d="M133.71,366.08c-13.6.05-15.48,24.31-15.32,28.65.58,15.06,10.79,29.62,19.33,29.09,6.49-.39,11.05-11.64,12.54-18.56C153.94,388.2,143.46,366,133.71,366.08Z"/><path class="cls-3" d="M227.41,341.2c.67,9.19,3.84,77.52-14.13,77.5-8,0-10.81-18-18.58-32.9"/><path class="cls-6" d="M183.29,366.08c13.59.05,15.47,24.31,15.31,28.65-.58,15.06-10.78,29.62-19.33,29.09-6.49-.39-11.05-11.64-12.54-18.56C163.05,388.2,173.53,366,183.29,366.08Z"/></g></g></svg>