<svg xmlns="http://www.w3.org/2000/svg" xmlns:xlink="http://www.w3.org/1999/xlink" width="83" zoomAndPan="magnify" viewBox="0 0 62.25 61.499996" height="82" preserveAspectRatio="xMidYMid meet" version="1.0"><defs><clipPath id="91ab9688f0"><path d="M 27 0.117188 L 61.507812 0.117188 L 61.507812 60.144531 L 27 60.144531 Z M 27 0.117188 " clip-rule="nonzero"/></clipPath><clipPath id="deaaae3fff"><path d="M 0 3 L 26 3 L 26 50 L 0 50 Z M 0 3 " clip-rule="nonzero"/></clipPath><clipPath id="ce68efd6fd"><path d="M 6.230469 3.78125 C 5.65625 6.671875 7.101562 9.65625 9.183594 11.738281 C 11.265625 13.820312 13.933594 15.207031 16.476562 16.695312 C 19.023438 18.1875 21.5625 19.878906 23.164062 22.355469 C 24.554688 24.511719 25.121094 27.09375 25.414062 29.644531 C 25.769531 32.730469 25.71875 35.976562 24.734375 38.886719 C 24.023438 37.132812 23.089844 35.453125 22.027344 33.886719 C 19.945312 30.800781 17.382812 28.078125 14.832031 25.371094 C 11.847656 22.207031 8.871094 19.042969 5.890625 15.878906 C 8.972656 21.667969 13.757812 26.324219 17.804688 31.492188 C 21.847656 36.652344 25.292969 42.820312 24.914062 49.367188 C 24.617188 46.019531 21.898438 43.359375 18.949219 41.738281 C 16.003906 40.117188 12.695312 39.21875 9.785156 37.523438 C 4.285156 34.308594 0.589844 28.210938 0.300781 21.851562 C 0.0117188 15.425781 2.949219 9.3125 6.230469 3.78125 Z M 6.230469 3.78125 " clip-rule="nonzero"/></clipPath><linearGradient x1="-1204.20996" gradientTransform="matrix(-0.0600217, 0, 0, 0.0600217, -59.330471, 0.119044)" y1="60.999998" x2="-1204.20996" gradientUnits="userSpaceOnUse" y2="820.500034" id="f75e7fcc6e"><stop stop-opacity="1" stop-color="rgb(53.503418%, 74.87793%, 25.770569%)" offset="0"/><stop stop-opacity="1" stop-color="rgb(53.413391%, 74.772644%, 25.761414%)" offset="0.125"/><stop stop-opacity="1" stop-color="rgb(53.234863%, 74.565125%, 25.744629%)" offset="0.25"/><stop stop-opacity="1" stop-color="rgb(53.05481%, 74.356079%, 25.727844%)" offset="0.375"/><stop stop-opacity="1" stop-color="rgb(52.876282%, 74.147034%, 25.71106%)" offset="0.5"/><stop stop-opacity="1" stop-color="rgb(52.696228%, 73.939514%, 25.694275%)" offset="0.625"/><stop stop-opacity="1" stop-color="rgb(52.5177%, 73.730469%, 25.67749%)" offset="0.75"/><stop stop-opacity="1" stop-color="rgb(52.337646%, 73.522949%, 25.660706%)" offset="0.875"/><stop stop-opacity="1" stop-color="rgb(52.157593%, 73.313904%, 25.645447%)" offset="1"/></linearGradient><clipPath id="8a94a75b66"><path d="M 27 0.117188 L 61.507812 0.117188 L 61.507812 60.144531 L 27 60.144531 Z M 27 0.117188 " clip-rule="nonzero"/></clipPath><clipPath id="7bb4098580"><path d="M 0 3 L 26 3 L 26 50 L 0 50 Z M 0 3 " clip-rule="nonzero"/></clipPath><clipPath id="24135ef99e"><path d="M 6.230469 3.78125 C 5.65625 6.671875 7.101562 9.65625 9.183594 11.738281 C 11.265625 13.820312 13.933594 15.207031 16.476562 16.695312 C 19.023438 18.1875 21.5625 19.878906 23.164062 22.355469 C 24.554688 24.511719 25.121094 27.09375 25.414062 29.644531 C 25.769531 32.730469 25.71875 35.976562 24.734375 38.886719 C 24.023438 37.132812 23.089844 35.453125 22.027344 33.886719 C 19.945312 30.800781 17.382812 28.078125 14.832031 25.371094 C 11.847656 22.207031 8.871094 19.042969 5.890625 15.878906 C 8.972656 21.667969 13.757812 26.324219 17.804688 31.492188 C 21.847656 36.652344 25.292969 42.820312 24.914062 49.367188 C 24.617188 46.019531 21.898438 43.359375 18.949219 41.738281 C 16.003906 40.117188 12.695312 39.21875 9.785156 37.523438 C 4.285156 34.308594 0.589844 28.210938 0.300781 21.851562 C 0.0117188 15.425781 2.949219 9.3125 6.230469 3.78125 Z M 6.230469 3.78125 " clip-rule="nonzero"/></clipPath><linearGradient x1="-1204.20996" gradientTransform="matrix(-0.0600217, 0, 0, 0.0600217, -59.330471, 0.119044)" y1="60.999998" x2="-1204.20996" gradientUnits="userSpaceOnUse" y2="820.500034" id="c84ca7abcf"><stop stop-opacity="1" stop-color="rgb(53.503418%, 74.87793%, 25.770569%)" offset="0"/><stop stop-opacity="1" stop-color="rgb(53.413391%, 74.772644%, 25.761414%)" offset="0.125"/><stop stop-opacity="1" stop-color="rgb(53.234863%, 74.565125%, 25.744629%)" offset="0.25"/><stop stop-opacity="1" stop-color="rgb(53.05481%, 74.356079%, 25.727844%)" offset="0.375"/><stop stop-opacity="1" stop-color="rgb(52.876282%, 74.147034%, 25.71106%)" offset="0.5"/><stop stop-opacity="1" stop-color="rgb(52.696228%, 73.939514%, 25.694275%)" offset="0.625"/><stop stop-opacity="1" stop-color="rgb(52.5177%, 73.730469%, 25.67749%)" offset="0.75"/><stop stop-opacity="1" stop-color="rgb(52.337646%, 73.522949%, 25.660706%)" offset="0.875"/><stop stop-opacity="1" stop-color="rgb(52.157593%, 73.313904%, 25.645447%)" offset="1"/></linearGradient></defs><g clip-path="url(#91ab9688f0)"><path fill="#55833d" d="M 53.203125 0.117188 C 53.964844 3.9375 52.058594 7.875 49.308594 10.621094 C 46.558594 13.378906 43.042969 15.203125 39.6875 17.164062 C 36.324219 19.128906 32.972656 21.367188 30.863281 24.636719 C 29.027344 27.484375 28.277344 30.890625 27.894531 34.253906 C 27.414062 38.335938 27.480469 42.613281 28.773438 46.457031 C 29.71875 44.140625 30.949219 41.925781 32.347656 39.851562 C 35.09375 35.777344 38.480469 32.183594 41.847656 28.605469 C 45.785156 24.429688 49.71875 20.257812 53.652344 16.078125 C 49.578125 23.714844 43.265625 29.871094 37.929688 36.683594 C 32.59375 43.503906 28.042969 51.640625 28.542969 60.285156 C 28.9375 55.859375 32.527344 52.351562 36.421875 50.214844 C 40.316406 48.078125 44.679688 46.882812 48.515625 44.648438 C 55.773438 40.421875 60.652344 32.367188 61.03125 23.976562 C 61.414062 15.492188 57.542969 7.417969 53.203125 0.117188 Z M 53.203125 0.117188 " fill-opacity="1" fill-rule="nonzero"/></g><g clip-path="url(#deaaae3fff)"><g clip-path="url(#ce68efd6fd)"><path fill="url(#f75e7fcc6e)" d="M 25.769531 3.78125 L 25.769531 49.367188 L 0.0117188 49.367188 L 0.0117188 3.78125 Z M 25.769531 3.78125 " fill-rule="nonzero"/></g></g><g clip-path="url(#8a94a75b66)"><path fill="#55833d" d="M 53.203125 0.117188 C 53.964844 3.9375 52.058594 7.875 49.308594 10.621094 C 46.558594 13.378906 43.042969 15.203125 39.6875 17.164062 C 36.324219 19.128906 32.972656 21.367188 30.863281 24.636719 C 29.027344 27.484375 28.277344 30.890625 27.894531 34.253906 C 27.414062 38.335938 27.480469 42.613281 28.773438 46.457031 C 29.71875 44.140625 30.949219 41.925781 32.347656 39.851562 C 35.09375 35.777344 38.480469 32.183594 41.847656 28.605469 C 45.785156 24.429688 49.71875 20.257812 53.652344 16.078125 C 49.578125 23.714844 43.265625 29.871094 37.929688 36.683594 C 32.59375 43.503906 28.042969 51.640625 28.542969 60.285156 C 28.9375 55.859375 32.527344 52.351562 36.421875 50.214844 C 40.316406 48.078125 44.679688 46.882812 48.515625 44.648438 C 55.773438 40.421875 60.652344 32.367188 61.03125 23.976562 C 61.414062 15.492188 57.542969 7.417969 53.203125 0.117188 Z M 53.203125 0.117188 " fill-opacity="1" fill-rule="nonzero"/></g><g clip-path="url(#7bb4098580)"><g clip-path="url(#24135ef99e)"><path fill="url(#c84ca7abcf)" d="M 25.769531 3.78125 L 25.769531 49.367188 L 0.0117188 49.367188 L 0.0117188 3.78125 Z M 25.769531 3.78125 " fill-rule="nonzero"/></g></g></svg>