<svg fill="#fff" version="1.1" id="Capa_1" xmlns="http://www.w3.org/2000/svg" xmlns:xlink="http://www.w3.org/1999/xlink" x="0px" y="0px"
	 width="388.074px" height="388.074px" viewBox="0 0 388.074 388.074" style="enable-background:new 0 0 388.074 388.074;"
	 xml:space="preserve">
<g>
	<g>
		<path d="M387.422,145.808c-1.159-2.317-3.599-3.647-6.688-3.647h-17.181c-10.084-36.3-31.517-69.46-60.683-93.661
			C271.34,22.337,233.868,8.51,194.508,8.51c-72.891,0-136.88,42.777-163.021,108.978c-0.886,2.245,0.215,4.784,2.46,5.67
			c2.245,0.892,4.784-0.211,5.67-2.46c24.814-62.84,85.612-103.446,154.889-103.446c74.051,0,141.907,54.722,161.433,130.146
			c0.312,1.77,1.898,3.504,4.291,3.504c0.003,0,0.009-0.002,0.014-0.002h16.991l-35.186,46.896l-37.979-46.896h19.907
			c0.007,0,0.014,0.002,0.021,0.002c4.84,0,5.331-2.444,4.175-5.676C306.69,85.183,253.351,41.844,192.457,41.844
			c-28.425,0-55.543,8.292-78.425,23.982c-22.224,15.239-39.499,36.709-49.953,62.093c-0.92,2.231,0.145,4.788,2.376,5.708
			c2.231,0.915,4.786-0.145,5.707-2.376c20.495-49.754,66.587-80.662,120.295-80.662c55.202,0,105.977,37.365,125.459,91.571
			h-17.618c-3.107,0-5.545,1.336-6.687,3.667c-1.141,2.329-0.703,5.073,1.259,7.603l40.583,50.113
			c1.671,2.154,4.081,3.389,6.62,3.389c0.021,0,0.042,0,0.062,0c2.563-0.02,4.98-1.293,6.629-3.494l37.564-50.085
			C388.185,150.876,388.581,148.126,387.422,145.808z"/>
		<path d="M0.653,242.266c1.159,2.316,3.598,3.648,6.688,3.648h17.182c10.084,36.299,31.516,69.459,60.682,93.66
			c31.53,26.162,69.002,39.99,108.363,39.99c72.891,0,136.879-42.777,163.021-108.979c0.887-2.246-0.215-4.785-2.46-5.672
			c-2.245-0.891-4.784,0.213-5.671,2.461c-24.814,62.84-85.612,103.445-154.888,103.445c-74.052,0-141.907-54.721-161.432-130.146
			c-0.313-1.77-1.899-3.504-4.291-3.504c-0.003,0-0.009,0.002-0.012,0.002H10.843l35.185-46.895l37.979,46.895H64.1
			c-0.007,0-0.014-0.002-0.021-0.002c-4.84,0-5.332,2.445-4.176,5.676c21.485,60.045,74.825,103.383,135.719,103.383
			c28.424,0,55.543-8.291,78.425-23.98c22.224-15.24,39.498-36.711,49.953-62.094c0.919-2.232-0.146-4.789-2.377-5.709
			c-2.23-0.916-4.785,0.146-5.707,2.377c-20.495,49.754-66.589,80.662-120.294,80.662c-55.202,0-105.977-37.365-125.46-91.57H87.78
			c3.107,0,5.545-1.336,6.687-3.668c1.14-2.328,0.703-5.072-1.259-7.602L52.625,184.53c-1.672-2.154-4.082-3.389-6.62-3.389
			c-0.021,0-0.042,0-0.063,0c-2.563,0.021-4.98,1.294-6.629,3.496L1.749,234.723C-0.11,237.197-0.507,239.947,0.653,242.266z"/>
	</g>
</g>
<g>
</g>
<g>
</g>
<g>
</g>
<g>
</g>
<g>
</g>
<g>
</g>
<g>
</g>
<g>
</g>
<g>
</g>
<g>
</g>
<g>
</g>
<g>
</g>
<g>
</g>
<g>
</g>
<g>
</g>
</svg>
