<?xml version="1.0" encoding="iso-8859-1"?>
<!-- Generator: Adobe Illustrator 19.0.0, SVG Export Plug-In . SVG Version: 6.00 Build 0)  -->
<svg version="1.1" id="Capa_1" xmlns="http://www.w3.org/2000/svg" xmlns:xlink="http://www.w3.org/1999/xlink" x="0px" y="0px"
	 viewBox="0 0 512 512" style="enable-background:new 0 0 512 512;" xml:space="preserve">
<circle style="fill:#F2F2F2;" cx="256" cy="244.87" r="226.43"/>
<path style="fill:#D8DFE5;" d="M482.437,244.87c0,125.059-101.379,226.437-226.437,226.437
	c-101.567,0-187.514-66.867-216.212-158.984c41.309,44.081,100.057,71.627,165.245,71.627
	c125.059,0,226.437-101.379,226.437-226.437c0-23.491-3.577-46.148-10.205-67.443C459.204,130.563,482.437,185.009,482.437,244.87z"
	/>
<path style="fill:#ACD36E;" d="M256.995,138.406c0.304,0.297,0.747,0.509,1.365,0.749c0.719,0.28,1.442,0.548,2.172,0.798
	c2.201,0.757,4.448,1.383,6.72,1.889c6.502,1.447,13.273,1.904,19.882,0.966c8.398-1.193,16.266-4.762,22.643-10.365
	c9.147-8.038,14.778-19.348,18.407-30.795c0.879-2.774,1.647-5.584,2.323-8.415l0.153-0.619c0.707-2.861-1.217-5.706-4.136-6.113
	l-0.631-0.088c-12.764-1.887-26.342-2.122-38.639,2.305c-8.273,2.978-15.567,8.19-20.776,15.301
	c-4.124,5.63-6.861,12.184-8.435,18.961c-1.013,4.361-1.538,8.809-1.616,13.282C256.406,137.378,256.559,137.981,256.995,138.406z"
	/>
<path style="fill:#A0C15F;" d="M326.527,86.502c2.916,0.409,4.839,3.251,4.134,6.11l-0.152,0.617
	c-1.375,5.575-3.014,11.073-5.22,16.382c-4.215,10.147-10.488,19.759-19.659,26.066c-6.66,4.58-14.505,7.067-22.551,7.534
	c-6.236,0.361-12.526-0.416-18.55-2.036c-1.9-0.511-3.781-1.105-5.62-1.806c-0.5-0.19-1.047-0.357-1.519-0.61
	c-1.988-1.063-0.977-3.414-0.858-5.365c0.164-2.704,0.508-5.398,1.018-8.059c16.724,2.534,43.475-0.487,56.413-40.086
	c3.726,0.159,7.701,0.537,11.925,1.163L326.527,86.502z"/>
<path style="fill:#939494;" d="M489.887,244.871c0-60.387-22.944-117.703-64.604-161.39c-2.839-2.979-7.558-3.091-10.537-0.25
	c-2.979,2.841-3.091,7.558-0.25,10.537c39.004,40.902,60.485,94.564,60.485,151.103c0,58.492-22.778,113.483-64.138,154.844
	c-33.503,33.503-75.952,54.809-121.959,61.696l26.339-34.771c2.485-3.281,1.84-7.956-1.441-10.441
	c-3.282-2.486-7.956-1.839-10.441,1.441l-34.727,45.845c-4.185,0.236-8.389,0.369-12.615,0.369
	c-58.492,0-113.483-22.778-154.844-64.138c-41.36-41.36-64.138-96.351-64.138-154.844s22.778-113.483,64.138-154.843
	c20.902-20.902,45.29-37.05,71.847-47.919l-20.935,40.435c-1.892,3.655-0.464,8.153,3.192,10.045
	c1.096,0.567,2.266,0.836,3.421,0.836c2.696,0,5.299-1.468,6.624-4.028l28.218-54.5c20.022-5.928,41.012-9.007,62.477-9.007
	c42.333,0,83.407,12.096,118.781,34.982c3.459,2.237,8.07,1.247,10.306-2.209s1.247-8.07-2.209-10.305
	C345.086,23.907,301.212,10.984,256,10.984c-23.226,0-45.933,3.369-67.569,9.864L131.568,0.44c-3.868-1.389-8.14,0.622-9.532,4.497
	c-1.39,3.874,0.623,8.142,4.498,9.532l39.756,14.269c-27.953,11.603-53.626,28.704-75.673,50.75
	c-44.176,44.176-68.504,102.91-68.504,165.383c0,62.474,24.328,121.208,68.504,165.383S193.526,478.759,256,478.759
	c2.973,0,5.935-0.073,8.889-0.182c0.518,0.561,56.602,32.455,56.602,32.455c1.161,0.656,2.421,0.968,3.665,0.968
	c2.598,0,5.121-1.361,6.492-3.783c2.028-3.582,0.769-8.13-2.813-10.157l-38.495-21.792c49.44-7.231,95.069-30.039,131.042-66.013
	C465.559,366.079,489.887,307.345,489.887,244.871z"/>
<path style="fill:#AA7E68;" d="M256,191.433c-4.143,0-7.5-3.358-7.5-7.5V96.404c0-4.142,3.357-7.5,7.5-7.5
	c4.143,0,7.5,3.358,7.5,7.5v87.529C263.5,188.075,260.143,191.433,256,191.433z"/>
<path style="fill:#DD7D76;" d="M255.275,186.671c-0.522-0.283-1.098-0.882-1.776-1.876c-0.834-1.221-1.712-2.412-2.631-3.57
	c-1.836-2.311-3.838-4.491-5.985-6.516c-4.309-4.064-9.205-7.502-14.495-10.168c-5.4-2.721-11.202-4.631-17.162-5.647
	c-3.423-0.584-6.896-0.874-10.369-0.874c-100.418,0-86.021,205.403,3.018,205.403c10.225,0,19.99-2.939,28.715-8.196
	c6.367-3.836,13.825-11.252,21.756-10.913c8.941,0.382,13.907,6.601,21.065,10.913c8.726,5.257,18.49,8.196,28.716,8.196
	c89.039,0,103.436-205.403,3.018-205.403c-6.158,0-12.311,0.92-18.193,2.747c-5.706,1.772-11.142,4.391-16.09,7.738
	c-4.892,3.31-9.302,7.327-13.055,11.888c-0.937,1.139-1.834,2.312-2.687,3.515C257.624,186.018,256.63,187.407,255.275,186.671z"/>
<path style="fill:#CE5F5D;" d="M306.123,363.42c-8.238,0-16.178-1.908-23.521-5.396c65.635-22.627,76.814-169.239,9.818-197.689
	c5.436-1.54,11.08-2.315,16.724-2.315C409.558,158.02,395.16,363.42,306.123,363.42z"/>
<g>
</g>
<g>
</g>
<g>
</g>
<g>
</g>
<g>
</g>
<g>
</g>
<g>
</g>
<g>
</g>
<g>
</g>
<g>
</g>
<g>
</g>
<g>
</g>
<g>
</g>
<g>
</g>
<g>
</g>
</svg>
