<svg xmlns="http://www.w3.org/2000/svg" viewBox="0 0 475.43 432.81"><defs><style>.cls-1{fill:#92e3a9;}.cls-2{fill:#eaeee5;}.cls-3,.cls-5{fill:#fff;}.cls-10,.cls-12,.cls-3,.cls-4,.cls-6{stroke:#263238;stroke-linecap:round;stroke-linejoin:round;}.cls-4{fill:#263238;}.cls-6{fill:none;}.cls-7{fill:#4f6d25;}.cls-8{fill:#faffeb;}.cls-9{opacity:0.3;}.cls-10{fill:#8a8a8a;}.cls-11{opacity:0.2;}.cls-12{fill:#e0e0e0;}</style></defs><g id="Layer_2" data-name="Layer 2"><g id="Background_Simple" data-name="Background Simple"><path class="cls-1" d="M404,65.62a217.94,217.94,0,0,0-59.47-42.2C311.72,7.92,275.6.45,239.48,0c-105.57-1.3-113.6,124.06-146.06,141.5S2.14,161,.11,230.71C-1.17,274.56,9,319.65,37.43,353.82c26.09,31.3,64.4,47.16,102.15,58.87,42.4,13.16,87.35,26.07,131.95,17.19,45.76-9.11,77.91-45.74,115.49-70.49,23.66-15.58,44.9-32,59.51-57q2.61-4.49,4.94-9.14c19.55-38.86,23.39-83.68,12.6-125.73C454.39,129.79,432.55,93.85,404,65.62Z"/><path class="cls-2" d="M404,65.62a217.94,217.94,0,0,0-59.47-42.2C311.72,7.92,275.6.45,239.48,0c-105.57-1.3-113.6,124.06-146.06,141.5S2.14,161,.11,230.71C-1.17,274.56,9,319.65,37.43,353.82c26.09,31.3,64.4,47.16,102.15,58.87,42.4,13.16,87.35,26.07,131.95,17.19,45.76-9.11,77.91-45.74,115.49-70.49,23.66-15.58,44.9-32,59.51-57q2.61-4.49,4.94-9.14c19.55-38.86,23.39-83.68,12.6-125.73C454.39,129.79,432.55,93.85,404,65.62Z"/></g><g id="Floor"><line class="cls-3" x1="474.93" y1="419.81" x2="11" y2="419.81"/></g><g id="Door"><rect class="cls-4" x="277.92" y="131.99" width="158.18" height="288.33"/><rect class="cls-3" x="287.94" y="146" width="135.64" height="150.17"/><line class="cls-3" x1="347.53" y1="273.96" x2="334.95" y2="280.42"/><line class="cls-3" x1="419.21" y1="237.19" x2="363.21" y2="265.92"/><line class="cls-3" x1="311.26" y1="195.19" x2="305.79" y2="198"/><line class="cls-3" x1="342.47" y1="179.18" x2="318.09" y2="191.69"/><rect class="cls-3" x="287.94" y="312.19" width="135.64" height="92.1"/><rect class="cls-5" x="426.05" y="261.47" width="4.94" height="52.67"/><polyline class="cls-6" points="336.25 221.76 355.13 197.81 375.45 222.49"/><rect class="cls-7" x="325.19" y="218.69" width="60.97" height="31.94"/><line class="cls-3" x1="311.26" y1="373.97" x2="305.79" y2="376.78"/><line class="cls-3" x1="342.47" y1="357.96" x2="318.09" y2="370.46"/><path class="cls-8" d="M338.4,232c0-1.4-.65-2.1-1.94-2.1h-5.63v-3.12h6.76a5,5,0,0,1,3.65,1.31,5.54,5.54,0,0,1,1.35,4.12V243.3H338.4Z"/><path class="cls-8" d="M345.88,230.19l-.35-3.38h4.16l.35,3.38V243.3h-4.16Z"/><path class="cls-8" d="M358.71,243.3l-.52-3.09a9,9,0,0,1-1.89,2.2,8.65,8.65,0,0,1-2.68,1.44l-1.53-3.29q4.05-1.27,5.49-4.05V231.8a2.5,2.5,0,0,0-.32-1.47,1.53,1.53,0,0,0-1.07-.55l-1.82-.26.52-3.06,3.41.46a3.72,3.72,0,0,1,2.6,1.32,5,5,0,0,1,.84,3.1v5.49l.93,6.47Z"/><path class="cls-8" d="M376.77,241.12q-3.36,2.26-9.77,2.47l-1.59-13.66-.4-3.12h8.87a5.85,5.85,0,0,1,4.39,1.6,6.31,6.31,0,0,1,1.64,4.4l0,1Q380.12,238.86,376.77,241.12ZM373.83,239a3.7,3.7,0,0,0,1.59-2,9.59,9.59,0,0,0,.39-3.37v-.87a3.36,3.36,0,0,0-.6-2.1,2,2,0,0,0-1.65-.78h-4l1.07,10A6.94,6.94,0,0,0,373.83,239Z"/></g><g id="Window"><g class="cls-9"><rect x="39.14" y="363.88" width="23.95" height="11.4"/><rect x="66.51" y="363.88" width="23.95" height="11.4"/><rect x="66.51" y="392.96" width="23.95" height="11.4"/><rect x="205.07" y="392.96" width="23.95" height="11.4"/><rect x="246.69" y="392.96" width="23.95" height="11.4"/><rect x="39.14" y="392.96" width="23.95" height="11.4"/><rect x="137.22" y="392.96" width="23.95" height="11.4"/><rect x="109.28" y="392.96" width="23.95" height="11.4"/><rect x="52.26" y="378.13" width="23.95" height="11.4"/><rect x="79.06" y="378.13" width="23.95" height="11.4"/><rect x="108.14" y="363.88" width="23.95" height="11.4"/><rect x="135.5" y="363.88" width="23.95" height="11.4"/><rect x="121.25" y="378.13" width="23.95" height="11.4"/><rect x="177.13" y="363.88" width="23.95" height="11.4"/><rect x="204.5" y="363.88" width="23.95" height="11.4"/><rect x="190.24" y="378.13" width="23.95" height="11.4"/><rect x="217.61" y="378.13" width="23.95" height="11.4"/></g><rect class="cls-3" x="37.1" y="132.25" width="226.78" height="206.23"/><line class="cls-3" x1="72.5" y1="232.94" x2="59.92" y2="239.39"/><line class="cls-3" x1="221.57" y1="156.46" x2="88.18" y2="224.89"/><line class="cls-3" x1="135.4" y1="213.29" x2="59.92" y2="252.01"/><line class="cls-3" x1="158.09" y1="262.4" x2="145.51" y2="268.85"/><line class="cls-3" x1="229.77" y1="225.63" x2="173.77" y2="254.35"/><rect class="cls-10" x="28.93" y="322.81" width="239.7" height="29"/><rect class="cls-3" x="115.05" y="322.81" width="3.14" height="29"/><rect class="cls-3" x="136.72" y="322.81" width="3.14" height="29"/><rect class="cls-3" x="93.38" y="322.81" width="3.14" height="29"/><rect class="cls-3" x="50.04" y="322.81" width="3.14" height="29"/><rect class="cls-3" x="71.71" y="322.81" width="3.14" height="29"/><rect class="cls-3" x="158.39" y="322.81" width="3.14" height="29"/><rect class="cls-3" x="223.4" y="322.81" width="3.14" height="29"/><rect class="cls-3" x="245.07" y="322.81" width="3.14" height="29"/><rect class="cls-3" x="180.06" y="322.81" width="3.14" height="29"/><rect class="cls-3" x="201.73" y="322.81" width="3.14" height="29"/></g><g id="Awning"><path class="cls-11" d="M398.36,58.81H17.66V165.45a26.12,26.12,0,0,0,26.12,26.12H54.42a26.12,26.12,0,0,0,26.13-26.12,26.11,26.11,0,0,0,26.12,26.12h10.64a26.11,26.11,0,0,0,26.12-26.12v-3H144v3a26.12,26.12,0,0,0,26.13,26.12h10.64a26.12,26.12,0,0,0,26.12-26.12v-3h.57v3a26.12,26.12,0,0,0,26.12,26.12h10.64a26.12,26.12,0,0,0,26.13-26.12v-3h.57v3A26.11,26.11,0,0,0,297,191.57h10.64a26.11,26.11,0,0,0,26.12-26.12v-3h.58v3a26.11,26.11,0,0,0,26.12,26.12h10.64a26.11,26.11,0,0,0,26.12-26.12v-3h.57v3A26.12,26.12,0,0,0,424,191.57h10.63a26.12,26.12,0,0,0,26.13-26.12V58.81Z"/><path class="cls-7" d="M80.55,121h62.89a0,0,0,0,1,0,0v10.45a26.12,26.12,0,0,1-26.12,26.12H106.67a26.12,26.12,0,0,1-26.12-26.12V121A0,0,0,0,1,80.55,121Z"/><path class="cls-12" d="M17.66,121H80.55a0,0,0,0,1,0,0v10.45a26.12,26.12,0,0,1-26.12,26.12H43.78a26.12,26.12,0,0,1-26.12-26.12V121A0,0,0,0,1,17.66,121Z"/><path class="cls-12" d="M144,121h62.89a0,0,0,0,1,0,0v10.45a26.12,26.12,0,0,1-26.12,26.12H170.13A26.12,26.12,0,0,1,144,131.45V121A0,0,0,0,1,144,121Z"/><path class="cls-7" d="M207.46,121h62.89a0,0,0,0,1,0,0v10.45a26.12,26.12,0,0,1-26.12,26.12H233.58a26.12,26.12,0,0,1-26.12-26.12V121A0,0,0,0,1,207.46,121Z"/><path class="cls-12" d="M270.92,121H333.8a0,0,0,0,1,0,0v10.45a26.12,26.12,0,0,1-26.12,26.12H297a26.12,26.12,0,0,1-26.12-26.12V121a0,0,0,0,1,0,0Z"/><path class="cls-7" d="M334.38,121h62.89a0,0,0,0,1,0,0v10.45a26.12,26.12,0,0,1-26.12,26.12H360.5a26.12,26.12,0,0,1-26.12-26.12V121A0,0,0,0,1,334.38,121Z"/><path class="cls-12" d="M397.83,121h62.89a0,0,0,0,1,0,0v10.45a26.12,26.12,0,0,1-26.12,26.12H424a26.12,26.12,0,0,1-26.12-26.12V121A0,0,0,0,1,397.83,121Z"/><rect class="cls-3" x="17.66" y="24.81" width="443.06" height="103.68"/><rect class="cls-7" x="80.88" y="24.81" width="62.99" height="103.68"/><rect class="cls-7" x="207.56" y="24.81" width="62.99" height="103.68"/><rect class="cls-7" x="335.37" y="24.81" width="62.99" height="103.68"/><path class="cls-6" d="M410.6,41.88q4.29-1.52,8.4-3.07"/><path class="cls-6" d="M315.94,65.93c31.71-6.05,62.91-13.41,89.43-22.27"/><path class="cls-6" d="M147.82,88.39c30.67-2.66,96.44-9.2,161.38-21.19"/><path class="cls-6" d="M130,89.81s3.13-.21,8.8-.67"/><path class="cls-6" d="M202,73c12.59-1.54,25.19-3.57,37-6.22"/><path class="cls-6" d="M104,77.81a764.86,764.86,0,0,0,91.74-4"/></g></g></svg>