<svg xmlns="http://www.w3.org/2000/svg" clip-rule="evenodd" fill-rule="evenodd" stroke-linejoin="round" stroke-miterlimit="2" viewBox="0 0 510 510"><path d="m167.132 482.091h-152.132c-2.206 0-4.315-.912-5.827-2.519s-2.293-3.767-2.158-5.969l20-327.295c.258-4.221 3.756-7.513 7.985-7.513h23.605l10.52-57.488h-15.366c-9.423 0-17.062-7.639-17.062-17.062v-19.274c0-9.423 7.639-17.062 17.062-17.062h121.986c9.423 0 17.061 7.639 17.061 17.062v19.275c0 9.422-7.638 17.061-17.061 17.061h-15.366l10.519 57.488h23.606c4.228 0 7.727 3.292 7.985 7.513l1.545 25.295h235.684l52.656-18.296c2.446-.85 5.152-.463 7.263 1.037 2.11 1.501 3.363 3.93 3.363 6.52v313.227c0 4.418-3.582 8-8 8h-42.914c-4.418 0-8-3.582-8-8v-148.614h-268.954v148.614c0 4.418-3.582 8-8 8zm-92.261-343.296h79.761l-10.519-57.488h-58.722zm130.141 48.808 3.922 64.188 184.735-64.188zm-11.774 69.642-6.261-102.45h-144.451l-19.022 311.296h60.571v-165.227c0-3.406 2.157-6.439 5.374-7.557zm-17.493-213.336h-121.986c-.587 0-1.062.476-1.062 1.062v19.274c0 .587.475 1.062 1.062 1.062h121.986c.586 0 1.061-.475 1.061-1.062v-19.274c0-.586-.475-1.062-1.061-1.062zm-1.535 146.472v52.56c0 4.418-3.581 8-8 8h-103.203c-4.418 0-8-3.582-8-8v-52.56c0-4.419 3.582-8 8-8h103.203c4.419 0 8 3.581 8 8zm-16 8h-87.203v36.56h87.203zm.922 267.71v-148.614c0-4.418 3.582-8 8-8h284.954c4.418 0 8 3.582 8 8v148.614h26.914c0-47.837 0-293.978 0-293.978l-386.925 134.44v159.538zm193.662-223.15c5.194 0 9.411 4.217 9.411 9.411s-4.217 9.411-9.411 9.411-9.411-4.217-9.411-9.411 4.217-9.411 9.411-9.411zm24.441 0c5.194 0 9.411 4.217 9.411 9.411s-4.217 9.411-9.411 9.411c-5.195 0-9.412-4.217-9.412-9.411s4.217-9.411 9.412-9.411zm99.422-6.24v31.302c0 4.419-3.582 8-8 8h-67.641c-4.418 0-8-3.581-8-8v-31.302c0-4.419 3.582-8 8-8h67.641c4.418 0 8 3.581 8 8zm-16 8h-51.641v15.302h51.641zm-261.114 164.8h47.484c7.007 0 12.687 5.68 12.687 12.687v48.131c0 6.474-5.286 11.772-11.79 11.772h-49.277c-6.504 0-11.79-5.298-11.79-11.772v-48.131c0-7.007 5.68-12.687 12.686-12.687zm15.742 16h-12.428v40.59h40.857v-40.59h-12.429v8.624c0 4.416-3.584 8-8 8-4.415 0-8-3.584-8-8zm67.933-16h47.484c7.006 0 12.686 5.68 12.686 12.687v48.131c0 6.474-5.286 11.772-11.79 11.772h-49.277c-6.504 0-11.79-5.298-11.79-11.772v-48.131c0-7.007 5.68-12.687 12.687-12.687zm15.742 16h-12.429v40.59h40.857v-40.59h-12.428v8.624c0 4.416-3.585 8-8 8-4.416 0-8-3.584-8-8zm67.932-16h47.484c7.006 0 12.686 5.68 12.686 12.687v48.131c0 6.474-5.286 11.772-11.79 11.772h-49.277c-6.504 0-11.79-5.298-11.79-11.772v-48.131c0-7.007 5.68-12.687 12.687-12.687zm15.742 16h-12.429v40.59h40.858v-40.59h-12.429v8.624c0 4.416-3.585 8-8 8s-8-3.584-8-8zm-183.091-92.744h47.484c7.007 0 12.687 5.68 12.687 12.686v48.131c0 6.474-5.286 11.772-11.79 11.772h-49.277c-6.504 0-11.79-5.298-11.79-11.772v-48.131c0-7.006 5.68-12.686 12.686-12.686zm15.742 16h-12.428v40.589h40.857v-40.589h-12.429v8.624c0 4.415-3.584 8-8 8-4.415 0-8-3.585-8-8zm67.933-16h47.484c7.006 0 12.686 5.68 12.686 12.686v48.131c0 6.474-5.286 11.772-11.79 11.772h-49.277c-6.504 0-11.79-5.298-11.79-11.772v-48.131c0-7.006 5.68-12.686 12.687-12.686zm15.742 16h-12.429v40.589h40.857v-40.589h-12.428v8.624c0 4.415-3.585 8-8 8-4.416 0-8-3.585-8-8zm67.932-16h47.484c7.006 0 12.686 5.68 12.686 12.686v48.131c0 6.474-5.286 11.772-11.79 11.772h-49.277c-6.504 0-11.79-5.298-11.79-11.772v-48.131c0-7.006 5.68-12.686 12.687-12.686zm15.742 16h-12.429v40.589h40.858v-40.589h-12.429v8.624c0 4.415-3.585 8-8 8s-8-3.585-8-8z"></path></svg>