<svg xmlns="http://www.w3.org/2000/svg" height="512" viewBox="0 0 512 512" width="512"><g id="c"><g><path d="m492 312v-128c0-11.02783-8.97168-20-20-20h-96.03809c2.52295-3.34741 4.03809-7.49512 4.03809-12v-112c0-11.02783-8.97168-20-20-20h-192c-11.02832 0-20 8.97217-20 20v112c0 4.50488 1.51514 8.65259 4.03809 12h-112.03809c-11.02832 0-20 8.97217-20 20v128c0 6.54578 3.17529 12.34912 8.05078 16-4.87549 3.65088-8.05078 9.45422-8.05078 16v128c0 11.02783 8.97168 20 20 20h200c6.5459 0 12.34912-3.17529 16-8.0509 3.65088 4.87561 9.4541 8.0509 16 8.0509h200c11.02832 0 20-8.97217 20-20v-128c0-6.54578-3.17529-12.34912-8.05078-16 4.87549-3.65088 8.05078-9.45422 8.05078-16zm-56-128v1.37256c0 3.20557-1.24805 6.21875-3.51465 8.48535l-.48535.48535-5.17188-5.17188c-1.56055-1.56152-4.0957-1.56152-5.65625 0l-5.17188 5.17188-.48535-.48535c-2.2666-2.2666-3.51465-5.27979-3.51465-8.48535v-1.37256c0-6.6167 5.38281-12 12-12s12 5.3833 12 12zm-14.82812 26.82861 5.65625-5.65723-5.17139-5.17139 2.34326-2.34326 28 28v82.34326h-56v-82.34326l20-20zm-49.17188-170.82861v112c0 6.6167-5.38281 12-12 12h-20v-136h20c6.61719 0 12 5.3833 12 12zm-104 0v1.37256c0 3.20557-1.24805 6.21875-3.51465 8.48535l-.48535.48535-5.17188-5.17188c-1.56055-1.56152-4.0957-1.56152-5.65625 0l-5.17188 5.17188-.48535-.48535c-2.2666-2.2666-3.51465-5.27979-3.51465-8.48535v-1.37256c0-6.6167 5.38281-12 12-12s12 5.3833 12 12zm-14.82812 26.82861 5.65625-5.65723-5.17139-5.17139 2.34326-2.34326 28 28v66.34326h-56v-66.34325l20-20 5.17188 5.17188zm-97.17188 85.17139v-112c0-6.6167 5.38281-12 12-12h72.03809c-2.52295 3.34741-4.03809 7.49512-4.03809 12v1.37256c0 5.34229 2.08008 10.36475 5.8584 14.14258l.48486.48486-21.17139 21.17139c-.75.75049-1.17188 1.76758-1.17188 2.82861v72c0 2.20898 1.79102 4 4 4h64c2.20898 0 4-1.79102 4-4v-72c0-1.06104-.42188-2.07812-1.17188-2.82861l-21.17139-21.17139.48486-.48486c3.77832-3.77783 5.8584-8.80029 5.8584-14.14258v-1.37256c0-4.50488-1.51514-8.65259-4.03809-12h60.03809v136h-163.99998c-6.61719 0-12-5.3833-12-12zm48 32v1.37256c0 3.20557-1.24805 6.21875-3.51465 8.48535l-.48535.48535-5.17188-5.17188c-1.56055-1.56152-4.0957-1.56152-5.65625 0l-5.17188 5.17188-.48535-.48535c-2.2666-2.2666-3.51465-5.27979-3.51465-8.48535v-1.37256c0-6.6167 5.38281-12 12-12s12 5.3833 12 12zm-14.82812 26.82861 5.65625-5.65723-5.17139-5.17139 2.34326-2.34326 28 28v82.34326h-56v-82.34326l20-20zm-161.17188 101.17139v-128c0-6.6167 5.38281-12 12-12h136.03809c-2.52295 3.34741-4.03809 7.49512-4.03809 12v1.37256c0 5.34229 2.08008 10.36475 5.8584 14.14258l.48486.48486-21.17139 21.17139c-.75.75049-1.17188 1.76758-1.17188 2.82861v88c0 2.20898 1.79102 4 4 4h64c2.20898 0 4-1.79102 4-4v-88c0-1.06104-.42188-2.07812-1.17188-2.82861l-21.17139-21.17139.48486-.48486c3.77832-3.77783 5.8584-8.80029 5.8584-14.14258v-1.37256c0-4.50488-1.51514-8.65259-4.03809-12h32.03809c6.61719 0 12 5.3833 12 12v128c0 6.6167-5.38281 12-12 12h-199.99998c-6.61719 0-12-5.3833-12-12zm232.05078 16c-1.53711 1.15088-2.8999 2.51392-4.05078 4.0509-1.15088-1.53699-2.51367-2.90002-4.05078-4.0509 1.53711-1.15088 2.8999-2.51392 4.05078-4.0509 1.15088 1.53699 2.51367 2.90002 4.05078 4.0509zm-56.05078 16v1.37256c0 3.20557-1.24805 6.21875-3.51465 8.48535l-.48535.48535-5.17188-5.17188c-1.56055-1.56152-4.0957-1.56152-5.65625 0l-5.17188 5.17188-.48535-.48535c-2.2666-2.2666-3.51465-5.27979-3.51465-8.48535v-1.37256c0-6.6167 5.38281-12 12-12s12 5.3833 12 12zm-14.82812 26.82861 5.65625-5.65723-5.17139-5.17139 2.34326-2.34326 28 28v82.34326h-56v-82.34326l20-20zm50.82812 113.17139h-200c-6.61719 0-12-5.3833-12-12v-128c0-6.6167 5.38281-12 12-12h136.03809c-2.52295 3.34741-4.03809 7.49512-4.03809 12v1.37256c0 5.34229 2.08008 10.36475 5.8584 14.14258l.48486.48486-21.17139 21.17139c-.75.75049-1.17188 1.76758-1.17188 2.82861v88c0 2.20898 1.79102 4 4 4h64c2.20898 0 4-1.79102 4-4v-88c0-1.06104-.42188-2.07812-1.17188-2.82861l-21.17139-21.17139.48486-.48486c3.77832-3.77783 5.8584-8.80029 5.8584-14.14258v-1.37256c0-4.50488-1.51514-8.65259-4.03809-12h32.03809c6.61719 0 12 5.3833 12 12v128c0 6.6167-5.38281 12-12 12zm244-140v128c0 6.6167-5.38281 12-12 12h-200c-6.61719 0-12-5.3833-12-12v-128c0-6.6167 5.38281-12 12-12h136.03809c-2.52295 3.34741-4.03809 7.49512-4.03809 12v1.37256c0 5.34229 2.08008 10.36475 5.8584 14.14258l.48486.48486-21.17139 21.17139c-.75.75049-1.17188 1.76758-1.17188 2.82861v88c0 2.20898 1.79102 4 4 4h64c2.20898 0 4-1.79102 4-4v-88c0-1.06104-.42188-2.07812-1.17188-2.82861l-21.17139-21.17139.48486-.48486c3.77832-3.77783 5.8584-8.80029 5.8584-14.14258v-1.37256c0-4.50488-1.51514-8.65259-4.03809-12h32.03809c6.61719 0 12 5.3833 12 12zm-48 0v1.37256c0 3.20557-1.24805 6.21875-3.51465 8.48535l-.48535.48535-5.17188-5.17188c-1.56055-1.56152-4.0957-1.56152-5.65625 0l-5.17188 5.17188-.48535-.48535c-2.2666-2.2666-3.51465-5.27979-3.51465-8.48535v-1.37256c0-6.6167 5.38281-12 12-12s12 5.3833 12 12zm-14.82812 26.82861 5.65625-5.65723-5.17139-5.17139 2.34326-2.34326 28 28v82.34326h-56v-82.34326l20-20zm62.82812-58.82861c0 6.6167-5.38281 12-12 12h-200c-6.61719 0-12-5.3833-12-12v-128c0-6.6167 5.38281-12 12-12h136.03809c-2.52295 3.34741-4.03809 7.49512-4.03809 12v1.37256c0 5.34229 2.08008 10.36475 5.8584 14.14258l.48486.48486-21.17139 21.17139c-.75.75049-1.17188 1.76758-1.17188 2.82861v88c0 2.20898 1.79102 4 4 4h64c2.20898 0 4-1.79102 4-4v-88c0-1.06104-.42188-2.07812-1.17188-2.82861l-21.17139-21.17139.48486-.48486c3.77832-3.77783 5.8584-8.80029 5.8584-14.14258v-1.37256c0-4.50488-1.51514-8.65259-4.03809-12h32.03809c6.61719 0 12 5.3833 12 12v128z"></path><path d="m176 252h4v44h8v-48c0-2.20898-1.79102-4-4-4h-.52637l8.52637-12.78906 8.52637 12.78906h-.52637c-2.20898 0-4 1.79102-4 4v48h8v-44h4c1.47559 0 2.83105-.81201 3.52637-2.11279.69629-1.30029.62012-2.87842-.19824-4.10596l-16-24c-.74219-1.11279-1.99023-1.78125-3.32812-1.78125s-2.58594.66846-3.32812 1.78125l-16 24c-.81836 1.22754-.89453 2.80566-.19824 4.10596.69531 1.30078 2.05078 2.11279 3.52637 2.11279z"></path><path d="m118.02148 199.30615-21.66577 16.85071c-.41943-.25537-.84521-.50134-1.28101-.73181l8.9585-26.87573-7.58984-2.52979-8.95874 26.87598c-.48633-.07703-.97412-.1355-1.4624-.18286l-7.22241-26.4812-7.71875 2.10547 6.80981 24.96826c-2.38306.58594-4.69189 1.52808-6.84009 2.83398-6.12305 3.72217-10.27637 9.91699-11.39453 16.99561l-10.1875 64.52441c-1.03027 6.51855 2.7666 12.76416 9.02734 14.85107l.00098.00049c1.41504.47168 2.8584.69824 4.27832.69775 4.86035 0 9.46387-2.64844 11.85352-7.16162l30.56445-57.73291c3.35352-6.33301 3.74805-13.78027 1.08301-20.43213-.93506-2.33423-2.21655-4.47351-3.77148-6.37256l20.42871-15.88867-4.91211-6.31445zm-19.89844 45.26465-30.56445 57.73291c-1.25 2.36182-3.99902 3.46191-6.53125 2.61768l-.00098-.00049c-2.53516-.84473-4.07227-3.37354-3.65527-6.01318l4.71313-29.85132 13.42163-1.91772-1.13086-7.91992-10.98535 1.56958 2.19727-13.9165 17.50879-2.50122-1.13086-7.91992-15.07275 2.1532.6665-4.22107c.75-4.75146 3.53809-8.90918 7.64746-11.40771 2.58984-1.57422 5.52148-2.37891 8.47754-2.37891 1.7373 0 3.48242.27783 5.1709.84082 4.56348 1.521 8.20703 4.95459 9.99512 9.41992 1.78906 4.46484 1.52441 9.46338-.72656 13.71387z"></path><path d="m408 252h4v44h8v-48c0-2.20898-1.79102-4-4-4h-.52637l8.52637-12.78906 8.52637 12.78906h-.52637c-2.20898 0-4 1.79102-4 4v48h8v-44h4c1.47559 0 2.83105-.81201 3.52637-2.11279.69629-1.30029.62012-2.87842-.19824-4.10596l-16-24c-.74219-1.11279-1.99023-1.78125-3.32812-1.78125s-2.58594.66846-3.32812 1.78125l-16 24c-.81836 1.22754-.89453 2.80566-.19824 4.10596.69531 1.30078 2.05078 2.11279 3.52637 2.11279z"></path><path d="m240 106h4v36h8v-40c0-2.20898-1.79102-4-4-4h-.52637l8.52637-12.78906 8.52637 12.78906h-.52637c-2.20898 0-4 1.79102-4 4v40h8v-36h4c1.47559 0 2.83105-.81201 3.52637-2.11279.69629-1.30029.62012-2.87842-.19824-4.10596l-16-24c-.74219-1.11279-1.99023-1.78125-3.32812-1.78125s-2.58594.66846-3.32812 1.78125l-16 24c-.81836 1.22754-.89453 2.80566-.19824 4.10596.69531 1.30078 2.05078 2.11279 3.52637 2.11279z"></path><path d="m176 412h4v44h8v-48c0-2.20898-1.79102-4-4-4h-.52637l8.52637-12.78906 8.52637 12.78906h-.52637c-2.20898 0-4 1.79102-4 4v48h8v-44h4c1.47559 0 2.83105-.81201 3.52637-2.11279.69629-1.30029.62012-2.87842-.19824-4.10596l-16-24c-.74219-1.11279-1.99023-1.78125-3.32812-1.78125s-2.58594.66846-3.32812 1.78125l-16 24c-.81836 1.22754-.89453 2.80566-.19824 4.10596.69531 1.30078 2.05078 2.11279 3.52637 2.11279z"></path><path d="m92 369.88867v-17.88867c0-2.20898-1.79102-4-4-4h-24c-2.20898 0-4 1.79102-4 4v17.88867c0 8.61279-2.03613 17.23877-5.8877 24.94336-1.38184 2.76221-2.1123 5.85547-2.1123 8.94482v60.22314c0 6.6167 5.38281 12 12 12h24c6.61719 0 12-5.3833 12-12v-60.22314c0-3.08936-.73047-6.18262-2.11133-8.94385-3.85254-7.70557-5.88867-16.33154-5.88867-24.94434zm0 94.11133c0 2.20557-1.79395 4-4 4h-24c-2.20605 0-4-1.79443-4-4v-60.22314c0-1.85352.43848-3.70898 1.26758-5.3667 4.4043-8.81055 6.73242-18.67334 6.73242-28.52148v-13.88867h16v13.88867c0 9.84814 2.32812 19.71094 6.7334 28.52246.82812 1.65674 1.2666 3.51221 1.2666 5.36572z"></path><path d="m408 412h4v44h8v-48c0-2.20898-1.79102-4-4-4h-.52637l8.52637-12.78906 8.52637 12.78906h-.52637c-2.20898 0-4 1.79102-4 4v48h8v-44h4c1.47559 0 2.83105-.81201 3.52637-2.11279.69629-1.30029.62012-2.87842-.19824-4.10596l-16-24c-.74219-1.11279-1.99023-1.78125-3.32812-1.78125s-2.58594.66846-3.32812 1.78125l-16 24c-.81836 1.22754-.89453 2.80566-.19824 4.10596.69531 1.30078 2.05078 2.11279 3.52637 2.11279z"></path><path d="m324 356c-22.80371 0-40 8.59814-40 20v80c0 11.40186 17.19629 20 40 20s40-8.59814 40-20v-80c0-11.40186-17.19629-20-40-20zm23.83105 107.6582c-6.29883 2.7998-14.7627 4.3418-23.83105 4.3418s-17.53223-1.54199-23.83105-4.3418c-5.03906-2.23926-8.16895-5.17383-8.16895-7.6582v-67.71167c7.17822 4.74927 18.62061 7.71167 32 7.71167s24.82178-2.9624 32-7.71167v67.71167c0 2.48438-3.12988 5.41895-8.16895 7.6582zm0-80c-6.29883 2.7998-14.7627 4.3418-23.83105 4.3418-19.53418 0-32-7.10742-32-12 0-2.48438 3.12988-5.41895 8.16895-7.6582 6.29883-2.7998 14.7627-4.3418 23.83105-4.3418 19.53418 0 32 7.10742 32 12 0 2.48438-3.12988 5.41895-8.16895 7.6582z"></path><path d="m360.02246 207.67139c-.27832-.12061-.55859-.23389-.83984-.34033 2.87695-6.99219-.33203-15.03564-7.24023-18.02539-6.90918-2.98779-14.96777.17676-18.09766 7.06104-.27051-.13232-.54492-.25879-.82227-.37891-9.46777-4.09619-20.53613.3457-24.67188 9.90283-1.63086 3.76807-1.97266 7.9502-1.0625 11.86963-6.75488 1.94482-12.36523 6.81543-15.26172 13.50879-4.15625 9.60596-1.56445 20.50342 5.7959 27.15186-1.73145 1.70264-3.13574 3.73975-4.12012 6.01465-2 4.62207-2.10059 9.73975-.28418 14.41113 1.82422 4.68799 5.3584 8.36475 9.95312 10.35303l.83008.35913-6.87012 15.87622 7.3418 3.17676 6.87012-15.87598.82812.3584c2.36523 1.02393 4.86426 1.53613 7.36914 1.53613 2.36133 0 4.72852-.45557 6.99219-1.36768 4.64941-1.87305 8.31152-5.44971 10.31055-10.0708.98438-2.27539 1.50879-4.69287 1.56445-7.12061 9.88574.81055 19.60449-4.75928 23.76074-14.36377 2.89648-6.69238 2.60547-14.11719-.60059-20.37256 3.47949-2.01953 6.29395-5.13135 7.9248-8.8999 4.13574-9.55762-.20215-20.6665-9.66992-24.76367zm2.32812 21.58643c-1.375 3.17676-4.06445 5.46582-7.38867 6.29248-1.35156.27588-2.46973 1.23047-2.95117 2.53027-.49805 1.34521-.23828 2.854.68164 3.95459 3.84961 4.60498 4.74414 10.92578 2.33398 16.49512-3.32324 7.67969-11.96094 11.49121-19.69922 8.71191-.37012-.14551-.76562-.2373-1.17578-.26709-1.62988-.11865-3.14355.75293-3.86816 2.20117-.4873.97656-.55469 2.10742-.18945 3.13184.80762 2.52148.66895 5.25391-.39258 7.70605-1.1582 2.67725-3.27441 4.74707-5.95801 5.82812-2.66602 1.07471-5.57715 1.04199-8.19434-.08984l-.8291-.35876 7.48975-17.30823 24.24854-9.60059-2.94531-7.43848-16.81006 6.65552 7.18994-16.61597 17.80176-7.04834-2.94531-7.43848-10.36328 4.10315 5.90137-13.63733-7.3418-3.17676-5.90137 13.63745-4.10254-10.36304-7.4375 2.94434 7.04736 17.80139-7.19043 16.61731-6.65576-16.81079-7.4375 2.94531 9.6001 24.24829-7.48975 17.30835-.8291-.35889c-2.61719-1.13232-4.63281-3.23193-5.6748-5.91162-1.04883-2.69678-.98828-5.65625.16992-8.3335 1.07422-2.48193 3.00391-4.4707 5.43359-5.59961 1.3916-.64648 2.29004-2.03174 2.31445-3.56592.02344-1.53418-.83301-2.94678-2.2041-3.63574-7.38379-3.71045-10.55566-12.65625-7.21973-20.36572 2.41016-5.56982 7.62988-9.24463 13.62109-9.59082 1.42676-.08203 2.69043-.93555 3.33203-2.2124.60645-1.20557.55273-2.64551-.11719-3.80811-1.71094-3.00586-1.89746-6.56445-.51172-9.76611 2.38477-5.50977 8.73438-8.08301 14.15234-5.73877 1.47852.63965 2.75684 1.57764 3.7998 2.78809 1.15625 1.34229 3.05762 1.76221 4.67285 1.03564 1.61523-.72754 2.55957-2.43115 2.32129-4.18652-.14648-1.0752.00684-2.17822.44336-3.18701 1.29883-2.99805 4.74707-4.40234 7.68262-3.13232 2.93848 1.27148 4.27246 4.74512 2.97461 7.74414-.43652 1.00977-1.13379 1.87598-2.01758 2.50391-1.44336 1.02637-2.04004 2.88086-1.46582 4.55664.5752 1.67627 2.20898 2.76855 3.95312 2.69971 1.59961-.06982 3.1582.22217 4.63574.86133 5.41992 2.34521 7.88965 8.73584 5.50586 14.24463z"></path></g></g></svg>