<svg xmlns="http://www.w3.org/2000/svg" id="Layer_1" viewBox="0 0 512 512"><path d="m432.9 433.7h-1c.1-.6 2.6-24.2 2.6-23.7 0 0 2-18.4 2-18.4.8-7.2-1.7-14.5-7.1-19.5-5.5-5-33.8-30.9-38.7-35.4 1.2-.9 2-2.1 2.2-3.7 1.6-12.1-8.1-23-20.3-22.7h-46.4l2.9-26.9c1.2-9.2-6.3-17.6-15.6-17.4h-210.8c-9.1 0-17 7.1-18 16.3 0 0-3.4 31.5-3.4 31.5h-51.4c-2.9 0-5.3 2.4-5.3 5.3s2.4 5.3 5.3 5.3h50.3l-2.8 25.5h-71.1c-2.9 0-5.3 2.4-5.3 5.3s2.4 5.3 5.3 5.3h69.9c-1.8 17.1-6.1 56.7-7.9 73.2-4.8-.4-9.2 3.3-9.8 8.3 0 0-1.1 10.2-1.1 10.2-.6 4.9 3.2 9.5 8.2 9.4h33.8c8 36.8 58.5 32.8 70.1 0h148.4c8 36.8 58.5 32.8 70.1 0h43c4.5 0 8.5-3.6 9-8.3l1.1-10.2c.6-4.8-3.3-9.4-8.2-9.4zm-40.3-80.7 28.8 26.3h-50.4l2.5-26.3zm-67.6-31.9h47.5c4.2 0 7.9 2.4 9.2 6.2h-57.4zm-244 93.7h11c.1 3-1.6 6.1-4.9 6.1h-6.7zm18.8 31.5c-.4 1.6-.7 3.2-.9 4.8h-30.7l.7-6.8h31.3c-.1.7-.3 1.3-.4 2zm56.6 17.9c-18.4 26.3-56.8 10.3-44.3-21.2 17.2-33.5 64.9-13.4 44.3 21.2zm12.6-30.5c-12.4-26-49.8-22.9-63.9 0h-26.1l.2-2.2h7.9c7.7 0 14.4-6 15.2-13.7l.8-7.8c.4-3-2.2-5.9-5.3-5.9h-15.7l4.7-43.7h73c2.9 0 5.3-2.4 5.3-5.3s-2.4-5.3-5.3-5.3h-71.7l2.8-25.5h25.1c2.9 0 5.3-2.4 5.3-5.3s-2.4-5.3-5.3-5.3h-24l3.3-30.3c.4-3.7 3.8-6.8 7.5-6.8h210.8c3.1 0 5.4 2.5 5 5.7-3.6 32.8-12.7 117.3-16.4 151.4-.1 0-133.2 0-133.2 0zm149.6 11.2c-.6 2-1 4.1-1.2 6.3h-145.3c.3-1.2-.1-6.2-.1-6.8 4 0 147.5 0 146.7 0 0 .1 0 .3-.1.5zm54.1 22c-21 23.9-55.6 3.6-41.2-25.8 20.7-33.5 66.2-6.8 41.2 25.8zm14.8-33.2c-12.4-26-49.8-22.9-63.8 0h-10.8l10.4-95.8h52.9l4.9 4.5h-7.5c-5.2 0-9.6 4-10.2 9.2l-3 27.6c-.3 2.8.6 5.6 2.4 7.6s4.5 3.2 7.3 3.2h56c0 .2 0 .4-.1.6l-1.5 13.7h-16.9c-2.7 0-5 2-5.3 4.7-.7 5.8-2.3 13.7 2.4 18.3 3.8 4.9 11.1 4.5 16.7 4.4l-.2 2.2h-33.7zm35.8-18.9-.7 6.1c-1.6-.2-9 .7-10-.8-1.2-1.1-.4-3.9-.3-5.3zm6.2 36.3h-39c.1-2.3.1-4.5-.1-6.8h35.6 4.2zm-292.8-16.5c-21.3 0-25.8 32.8-2.5 33.8 21.2-.1 25.9-32.5 2.5-33.8zm5 17.1c-1.3 7-13.1 9-12.6.4.5-7.9 14-9.9 12.6-.4zm213.5-17.1c-21.3.2-25.9 32.6-2.5 33.8 21.2 0 25.8-32.6 2.5-33.8zm4.9 17.1c-1.3 7.1-13.1 9-12.6.4.7-7.9 14.1-9.9 12.6-.4zm75.7-391.2.9-8.5h3.9c17.7-.1 20.9-27 1.9-27.8h-48.4c-19.5.6-20.1 29.8.8 27.8l-.9 8.2c-79.8 13.5-130.6 117.1-73.7 180.4 18.1 20.2 43.8 31.3 72.3 31.3 121-.7 171.8-177.4 43.2-211.4zm-43.7-19.1c-4.7-.3-1.7-7 1.9-6.6h48.4c.8 0 1.4.3 1.9.7 1.8 2.4-1 6-3.7 5.9h-8.6c-6.4 0-34.1 0-39.9 0zm33.9 10.6-.7 6.8c-6.8-.6-13.7-.8-20.5-.1l.7-6.7zm73.8 112.5c-6.9 79.7-114.3 131.9-171.7 69-51.3-57.1-3.8-151.4 68.1-163 57.6-11.6 110.9 33.2 103.6 94zm-70.9-85.8c-53.3-10.9-108.2 32.7-113.3 85.8-6.1 47.4 31.2 89.5 79 88.5 100.3-.7 141.2-147.3 34.3-174.3zm52 85.8c-5.5 64-91.8 106.1-138.1 55.6-41.2-45.9-2.9-121.8 54.9-131 45.9-9.8 89.3 27.1 83.2 75.4zm-76.2-59.4 1-9c.8-6.9 11.3-5.8 10.6 1.1 0 0-1 9-1 9-.8 6.9-11.3 5.8-10.6-1.1zm-2.3 120-1 9c-.3 2.7-2.6 4.7-5.3 4.7-3.1 0-5.6-2.8-5.3-5.9 0 0 1-9 1-9 .8-6.8 11.3-5.7 10.6 1.2zm-53-60c0 2.9-2.4 5.3-5.3 5.3h-9c-2.9 0-5.3-2.4-5.3-5.3s2.4-5.3 5.3-5.3h9c2.9 0 5.3 2.4 5.3 5.3zm113.6-5.3h9c6.9 0 6.9 10.6 0 10.6h-9c-6.9 0-6.9-10.6 0-10.6zm-32.9 5.3c0 2.9-2.4 5.3-5.3 5.3h-21.2c-3.1.1-5.7-2.8-5.3-5.9 0 0 4-37.2 4-37.2.8-6.9 11.3-5.8 10.6 1.1 0 0-3.4 31.3-3.4 31.3h15.3c2.9.1 5.3 2.5 5.3 5.4zm-280.1-48.7c0-2.9 2.4-5.3 5.3-5.3h125.1c2.9 0 5.3 2.4 5.3 5.3s-2.4 5.3-5.3 5.3h-125.1c-3 0-5.3-2.4-5.3-5.3zm69.8-34c0-2.9 2.4-5.3 5.3-5.3h82.1c2.9 0 5.3 2.4 5.3 5.3s-2.4 5.3-5.3 5.3h-82.1c-2.9 0-5.3-2.3-5.3-5.3zm-143.5 72.2c0-2.9 2.4-5.3 5.3-5.3h184.6c6.9.1 7 10.5 0 10.6h-184.6c-2.9 0-5.3-2.4-5.3-5.3zm189.9 45.1h-92.3c-6.9 0-7-10.6 0-10.6h92.3c6.9 0 6.9 10.5 0 10.6zm-31.3 31.4c0-2.9 2.4-5.3 5.3-5.3h40.1c2.9 0 5.3 2.4 5.3 5.3s-2.4 5.3-5.3 5.3h-40.1c-2.9 0-5.3-2.4-5.3-5.3zm-179.4 154.7c0 2.9-2.4 5.3-5.3 5.3h-30.1c-2.9 0-5.3-2.4-5.3-5.3s2.4-5.3 5.3-5.3h30.1c2.9 0 5.3 2.4 5.3 5.3z"></path></svg>