<svg xmlns="http://www.w3.org/2000/svg" height="1.707in" style="enable-background:new 0 0 122.88 122.88;shape-rendering:geometricPrecision;text-rendering:geometricPrecision;image-rendering:optimizeQuality;fill-rule:evenodd;clip-rule:evenodd" viewBox="0 0 1707 1707" width="1.707in"><g id="Layer_x0020_1"><path d="m836 1256c-11 0-20-9-20-20v-485h-612c-5 0-10 5-10 11v474c0 27-40 27-40 0v-474c0-28 22-51 50-51h632c11 0 20 9 20 20v505c0 11-9 20-20 20z"></path><path d="m836 1256c-11 0-20-9-20-20v-505c0-11 9-20 20-20h632c28 0 51 23 51 51v236c0 26-40 26-40 0v-236c0-6-5-11-11-11h-612v485c0 11-9 20-20 20z"></path><path d="m1168 751c-11 0-20-9-20-20v-474c0-6-5-11-11-11h-601c-6 0-11 5-11 11v474c0 26-40 26-40 0v-474c0-29 23-51 51-51h601c28 0 51 22 51 51v474c0 11-9 20-20 20z"></path><path d="m932 447c-14 0-76-56-96-71l-83 67c-13 10-33 1-33-16v-202c0-26 40-26 40 0v160c91-72 62-72 152 0v-160c0-26 40-26 40 0v202c0 11-9 20-20 20z"></path><path d="m601 953c-14 0-77-56-96-72l-84 67c-13 11-32 1-32-15v-202c0-26 40-26 40 0v160c90-73 61-73 152 0v-160c0-26 40-26 40 0v202c0 11-9 20-20 20z"></path><path d="m1263 953c-13 0-76-56-96-72l-83 67c-13 11-32 1-32-15v-202c0-26 40-26 40 0v160c90-73 61-73 151 0v-160c0-26 40-26 40 0v202c0 11-9 20-20 20z"></path><path d="m1223 1366h-1185c-49 0-38-63-38-111 0-21 17-39 38-39h1159c26 0 26 40 0 40h-1157v70h1183c26 0 26 40 0 40z"></path><path d="m262 1451h-127c-11 0-20-9-20-20v-85c0-27 40-27 40 0v65h87c0-42-8-85 20-85 11 0 20 9 20 20v85c0 11-9 20-20 20z"></path><path d="m1442 1501c-146 0-265-119-265-265s119-264 265-264 265 118 265 264-119 265-265 265zm0-490c-124 0-225 101-225 225s101 225 225 225 225-101 225-225-101-225-225-225z"></path><path d="m1352 1346c-17 0-27-22-14-34l179-179c19-19 47 9 29 28l-180 179c-4 4-9 6-14 6z"></path><path d="m1525 1392c-96 0-96-145 0-145s96 145 0 145zm0-105c-29 0-44 35-23 55 30 31 76-15 46-46-6-6-15-9-23-9z"></path><path d="m1359 1226c-96 0-96-145 0-145s96 145 0 145zm0-105c-29 0-44 35-23 55 30 31 77-15 46-46-6-6-14-9-23-9z"></path><path d="m1013 1084h-105c-27 0-27-40 0-40h105c26 0 26 40 0 40z"></path><path d="m1013 1169h-105c-27 0-27-40 0-40h105c26 0 26 40 0 40z"></path><path d="m350 1084h-105c-26 0-26-40 0-40h105c27 0 27 40 0 40z"></path><path d="m350 1169h-105c-26 0-26-40 0-40h105c27 0 27 40 0 40z"></path><path d="m682 578h-105c-27 0-27-40 0-40h105c26 0 26 40 0 40z"></path><path d="m682 664h-105c-27 0-27-40 0-40h105c26 0 26 40 0 40z"></path></g></svg>