<svg xmlns="http://www.w3.org/2000/svg" xmlns:xlink="http://www.w3.org/1999/xlink" width="486" zoomAndPan="magnify" viewBox="0 0 364.5 129.750003" height="173" preserveAspectRatio="xMidYMid meet" version="1.0"><defs><g/><clipPath id="75d7035794"><path d="M 65 18.363281 L 100 18.363281 L 100 44 L 65 44 Z M 65 18.363281 " clip-rule="nonzero"/></clipPath></defs><g fill="#3c6d16" fill-opacity="1"><g transform="translate(20.760163, 86.232421)"><g><path d="M 29.609375 -19.25 C 29.609375 -22.601562 28.644531 -25.164062 26.71875 -26.9375 C 24.800781 -28.71875 21.816406 -29.609375 17.765625 -29.609375 L 7.40625 -29.609375 L 7.40625 -38.5 L 19.984375 -38.5 C 23.492188 -38.5 26.519531 -37.914062 29.0625 -36.75 C 31.601562 -35.59375 33.675781 -34.0625 35.28125 -32.15625 C 36.882812 -30.257812 38.066406 -28.1875 38.828125 -25.9375 C 39.597656 -23.695312 39.984375 -21.46875 39.984375 -19.25 L 39.984375 0 L 29.609375 0 Z M 1.484375 0 L 1.484375 -8.890625 L 3.703125 -8.890625 C 5.035156 -8.890625 5.984375 -9.332031 6.546875 -10.21875 C 7.117188 -11.101562 7.40625 -12.382812 7.40625 -14.0625 L 7.40625 -23.6875 L 17.765625 -23.6875 L 17.765625 -14.8125 C 17.765625 -11.5 17.441406 -8.742188 16.796875 -6.546875 C 16.160156 -4.347656 14.988281 -2.707031 13.28125 -1.625 C 11.582031 -0.539062 9.128906 0 5.921875 0 Z M 1.484375 0 "/></g></g></g><g fill="#3c6d16" fill-opacity="1"><g transform="translate(62.958497, 86.232421)"><g><path d="M 2.21875 0 L 2.21875 -38.5 L 12.578125 -38.5 L 12.578125 0 Z M 2.21875 0 "/></g></g></g><g fill="#3c6d16" fill-opacity="1"><g transform="translate(77.764925, 86.232421)"><g><path d="M 23.6875 1.484375 C 22.457031 1.484375 20.925781 1.25 19.09375 0.78125 C 17.269531 0.3125 15.382812 -0.453125 13.4375 -1.515625 C 11.488281 -2.578125 9.660156 -4.019531 7.953125 -5.84375 C 6.253906 -7.675781 4.875 -9.9375 3.8125 -12.625 C 2.75 -15.3125 2.21875 -18.503906 2.21875 -22.203125 L 2.21875 -38.5 L 12.578125 -38.5 L 12.578125 -20.734375 C 12.578125 -18.410156 13.035156 -16.234375 13.953125 -14.203125 C 14.867188 -12.179688 16.210938 -10.539062 17.984375 -9.28125 C 19.765625 -8.03125 21.914062 -7.40625 24.4375 -7.40625 C 27.09375 -7.40625 29.234375 -8.03125 30.859375 -9.28125 C 32.492188 -10.539062 33.679688 -12.179688 34.421875 -14.203125 C 35.160156 -16.234375 35.53125 -18.410156 35.53125 -20.734375 L 35.53125 -38.5 L 45.90625 -38.5 L 45.90625 -22.203125 C 45.90625 -17.566406 45.1875 -13.71875 43.75 -10.65625 C 42.320312 -7.601562 40.457031 -5.1875 38.15625 -3.40625 C 35.863281 -1.625 33.429688 -0.363281 30.859375 0.375 C 28.296875 1.113281 25.90625 1.484375 23.6875 1.484375 Z M 18.515625 -16.28125 L 18.515625 -39.984375 L 28.875 -39.984375 L 28.875 -16.28125 Z M 18.515625 -16.28125 "/></g></g></g><g fill="#3c6d16" fill-opacity="1"><g transform="translate(125.885824, 86.232421)"><g><path d="M 2.21875 -14.8125 L 2.21875 -38.5 L 12.578125 -38.5 L 12.578125 -14.8125 Z M 2.21875 -14.8125 "/></g></g></g><g fill="#3c6d16" fill-opacity="1"><g transform="translate(140.692252, 86.232421)"><g><path d="M 15.546875 0 C 11.253906 0 7.835938 -0.9375 5.296875 -2.8125 C 2.753906 -4.6875 1.484375 -7.695312 1.484375 -11.84375 C 1.484375 -15.988281 2.566406 -19 4.734375 -20.875 C 6.910156 -22.75 10.269531 -23.6875 14.8125 -23.6875 L 18.515625 -23.6875 L 18.515625 -38.5 L 28.875 -38.5 L 28.875 -14.8125 L 17.03125 -14.8125 C 15.351562 -14.8125 14.191406 -14.578125 13.546875 -14.109375 C 12.898438 -13.640625 12.578125 -12.882812 12.578125 -11.84375 C 12.578125 -10.90625 12.910156 -10.175781 13.578125 -9.65625 C 14.242188 -9.144531 15.394531 -8.890625 17.03125 -8.890625 L 28.875 -8.890625 L 28.875 0 Z M 15.546875 0 "/></g></g></g><g fill="#3c6d16" fill-opacity="1"><g transform="translate(171.785762, 86.232421)"><g><path d="M 1.484375 0 L 1.484375 -8.890625 L 6.65625 -8.890625 C 7.988281 -8.890625 8.816406 -9.332031 9.140625 -10.21875 C 9.460938 -11.101562 9.625 -12.382812 9.625 -14.0625 L 9.625 -23.6875 L 20.734375 -23.6875 L 20.734375 -14.8125 C 20.734375 -11.5 20.410156 -8.742188 19.765625 -6.546875 C 19.117188 -4.347656 17.945312 -2.707031 16.25 -1.625 C 14.550781 -0.539062 12.097656 0 8.890625 0 Z M 9.625 -28.875 L 9.625 -38.5 L 20.734375 -38.5 L 20.734375 -28.875 Z M 9.625 -28.875 "/></g></g></g><g clip-path="url(#75d7035794)"><path fill="#afdc34" d="M 65.6875 42.484375 C 65.6875 42.484375 73.371094 30.726562 86.171875 29.226562 C 86.171875 29.226562 74.253906 35.085938 69.222656 43.152344 C 95.46875 46.875 99.128906 18.390625 99.128906 18.390625 C 67.847656 20.214844 65.6875 42.484375 65.6875 42.484375 " fill-opacity="1" fill-rule="nonzero"/></g><g fill="#845333" fill-opacity="1"><g transform="translate(202.888514, 85.304459)"><g><path d="M 23.09375 -15 C 23.09375 -17.625 22.335938 -19.628906 20.828125 -21.015625 C 19.328125 -22.398438 17.003906 -23.09375 13.859375 -23.09375 L 5.765625 -23.09375 L 5.765625 -30.015625 L 15.578125 -30.015625 C 18.316406 -30.015625 20.675781 -29.5625 22.65625 -28.65625 C 24.632812 -27.75 26.25 -26.554688 27.5 -25.078125 C 28.75 -23.597656 29.671875 -21.984375 30.265625 -20.234375 C 30.867188 -18.484375 31.171875 -16.738281 31.171875 -15 L 31.171875 0 L 23.09375 0 Z M 1.15625 0 L 1.15625 -6.921875 L 2.890625 -6.921875 C 3.921875 -6.921875 4.65625 -7.265625 5.09375 -7.953125 C 5.539062 -8.648438 5.765625 -9.65625 5.765625 -10.96875 L 5.765625 -18.46875 L 13.859375 -18.46875 L 13.859375 -11.546875 C 13.859375 -8.960938 13.609375 -6.816406 13.109375 -5.109375 C 12.609375 -3.398438 11.691406 -2.117188 10.359375 -1.265625 C 9.035156 -0.421875 7.125 0 4.625 0 Z M 1.15625 0 "/></g></g></g><g fill="#845333" fill-opacity="1"><g transform="translate(235.783463, 85.304459)"><g><path d="M 16.15625 -14.78125 C 16.15625 -15.925781 15.859375 -17.144531 15.265625 -18.4375 C 14.671875 -19.726562 13.695312 -20.828125 12.34375 -21.734375 C 11 -22.640625 9.191406 -23.09375 6.921875 -23.09375 L 1.15625 -23.09375 L 1.15625 -30.015625 L 8.078125 -30.015625 C 11.046875 -30.015625 13.554688 -29.550781 15.609375 -28.625 C 17.671875 -27.707031 19.335938 -26.503906 20.609375 -25.015625 C 21.878906 -23.535156 22.800781 -21.921875 23.375 -20.171875 C 23.945312 -18.421875 24.234375 -16.695312 24.234375 -15 L 24.234375 0 L 16.15625 0 Z M 16.15625 -14.78125 "/></g></g></g><g fill="#845333" fill-opacity="1"><g transform="translate(261.753161, 85.304459)"><g><path d="M 19.625 -15 C 19.625 -15.851562 19.488281 -16.75 19.21875 -17.6875 C 18.945312 -18.632812 18.457031 -19.507812 17.75 -20.3125 C 17.039062 -21.125 16.039062 -21.789062 14.75 -22.3125 C 13.457031 -22.832031 11.8125 -23.09375 9.8125 -23.09375 L 1.734375 -23.09375 L 1.734375 -30.015625 L 11.546875 -30.015625 C 14.503906 -30.015625 17.007812 -29.550781 19.0625 -28.625 C 21.125 -27.707031 22.789062 -26.503906 24.0625 -25.015625 C 25.332031 -23.535156 26.253906 -21.921875 26.828125 -20.171875 C 27.410156 -18.421875 27.703125 -16.695312 27.703125 -15 L 27.703125 0 L 19.625 0 Z M 1.734375 0 L 1.734375 -18.46875 L 9.8125 -18.46875 L 9.8125 0 Z M 1.734375 0 "/></g></g></g><g fill="#845333" fill-opacity="1"><g transform="translate(291.185484, 85.304459)"><g><path d="M 1.734375 0 L 1.734375 -6.921875 L 17.3125 -6.921875 C 17.15625 -9.617188 16.003906 -10.96875 13.859375 -10.96875 C 12.734375 -10.96875 11.476562 -11.148438 10.09375 -11.515625 C 8.707031 -11.878906 7.378906 -12.539062 6.109375 -13.5 C 4.847656 -14.46875 3.800781 -15.863281 2.96875 -17.6875 C 2.144531 -19.519531 1.734375 -21.894531 1.734375 -24.8125 L 1.734375 -30.015625 L 9.8125 -30.015625 L 9.8125 -23.09375 C 9.8125 -21.550781 10.1875 -20.394531 10.9375 -19.625 C 11.6875 -18.851562 12.660156 -18.46875 13.859375 -18.46875 C 17.859375 -18.46875 20.78125 -17.273438 22.625 -14.890625 C 24.46875 -12.503906 25.390625 -9.269531 25.390625 -5.1875 L 25.390625 0 Z M 17.3125 -22.515625 L 17.3125 -30.015625 L 25.390625 -30.015625 L 25.390625 -22.515625 Z M 17.3125 -22.515625 "/></g></g></g><g fill="#845333" fill-opacity="1"><g transform="translate(318.309393, 85.304459)"><g><path d="M 19.625 -15 C 19.625 -15.851562 19.488281 -16.75 19.21875 -17.6875 C 18.945312 -18.632812 18.457031 -19.507812 17.75 -20.3125 C 17.039062 -21.125 16.039062 -21.789062 14.75 -22.3125 C 13.457031 -22.832031 11.8125 -23.09375 9.8125 -23.09375 L 1.734375 -23.09375 L 1.734375 -30.015625 L 11.546875 -30.015625 C 14.503906 -30.015625 17.007812 -29.550781 19.0625 -28.625 C 21.125 -27.707031 22.789062 -26.503906 24.0625 -25.015625 C 25.332031 -23.535156 26.253906 -21.921875 26.828125 -20.171875 C 27.410156 -18.421875 27.703125 -16.695312 27.703125 -15 L 27.703125 0 L 19.625 0 Z M 1.734375 0 L 1.734375 -18.46875 L 9.8125 -18.46875 L 9.8125 0 Z M 1.734375 0 "/></g></g></g></svg>