<svg xmlns="http://www.w3.org/2000/svg" xmlns:xlink="http://www.w3.org/1999/xlink" width="497" zoomAndPan="magnify" viewBox="0 0 372.75 93.749996" height="125" preserveAspectRatio="xMidYMid meet" version="1.0"><defs><g/><clipPath id="708fb14e11"><path d="M 78 13.816406 L 104 13.816406 L 104 32 L 78 32 Z M 78 13.816406 " clip-rule="nonzero"/></clipPath></defs><g fill="#3c6d16" fill-opacity="1"><g transform="translate(15.355674, 62.33711)"><g><path d="M 1.609375 0 L 1.609375 -17.125 L 9.09375 -17.125 L 9.09375 -6.421875 L 17.65625 -6.421875 L 17.65625 -18.203125 C 17.65625 -20.335938 16.585938 -21.40625 14.453125 -21.40625 L 1.609375 -21.40625 L 1.609375 -27.828125 L 15.515625 -27.828125 C 18.972656 -27.828125 21.441406 -27.113281 22.921875 -25.6875 C 24.410156 -24.257812 25.15625 -21.941406 25.15625 -18.734375 L 25.15625 0 Z M 1.609375 0 "/></g></g></g><g fill="#3c6d16" fill-opacity="1"><g transform="translate(42.114465, 62.33711)"><g><path d="M 1.609375 -10.703125 L 1.609375 -27.828125 L 9.09375 -27.828125 L 9.09375 -10.703125 Z M 1.609375 -10.703125 "/></g></g></g><g fill="#3c6d16" fill-opacity="1"><g transform="translate(52.81798, 62.33711)"><g><path d="M 1.078125 -21.40625 L 1.078125 -34.78125 L 8.5625 -34.78125 L 8.5625 -27.828125 L 23.546875 -27.828125 L 20.609375 -21.40625 Z M 2.671875 0 L 10.703125 -17.125 L 18.734375 -17.125 L 11.234375 0 Z M 2.671875 0 "/></g></g></g><g fill="#3c6d16" fill-opacity="1"><g transform="translate(76.79386, 62.33711)"><g><path d="M 1.609375 -10.703125 L 1.609375 -27.828125 L 9.09375 -27.828125 L 9.09375 -10.703125 Z M 1.609375 -10.703125 "/></g></g></g><g fill="#3c6d16" fill-opacity="1"><g transform="translate(87.497375, 62.33711)"><g><path d="M 1.609375 0 L 1.609375 -27.828125 L 10.703125 -27.828125 C 13.453125 -27.828125 15.78125 -27.398438 17.6875 -26.546875 C 19.59375 -25.691406 21.132812 -24.578125 22.3125 -23.203125 C 23.488281 -21.828125 24.34375 -20.328125 24.875 -18.703125 C 25.414062 -17.078125 25.6875 -15.484375 25.6875 -13.921875 L 25.6875 0 L 18.203125 0 L 18.203125 -13.921875 C 18.203125 -14.703125 18.078125 -15.53125 17.828125 -16.40625 C 17.578125 -17.28125 17.117188 -18.09375 16.453125 -18.84375 C 15.796875 -19.59375 14.867188 -20.207031 13.671875 -20.6875 C 12.472656 -21.164062 10.945312 -21.40625 9.09375 -21.40625 L 9.09375 0 Z M 1.609375 0 "/></g></g></g><g fill="#3c6d16" fill-opacity="1"><g transform="translate(114.791346, 62.33711)"><g><path d="M 21.40625 -13.921875 C 21.40625 -16.335938 20.707031 -18.1875 19.3125 -19.46875 C 17.925781 -20.757812 15.769531 -21.40625 12.84375 -21.40625 L 5.359375 -21.40625 L 5.359375 -27.828125 L 14.453125 -27.828125 C 16.984375 -27.828125 19.164062 -27.40625 21 -26.5625 C 22.84375 -25.726562 24.34375 -24.625 25.5 -23.25 C 26.65625 -21.875 27.507812 -20.375 28.0625 -18.75 C 28.625 -17.132812 28.90625 -15.523438 28.90625 -13.921875 L 28.90625 0 L 21.40625 0 Z M 1.078125 0 L 1.078125 -6.421875 L 2.671875 -6.421875 C 3.640625 -6.421875 4.328125 -6.738281 4.734375 -7.375 C 5.148438 -8.019531 5.359375 -8.953125 5.359375 -10.171875 L 5.359375 -17.125 L 12.84375 -17.125 L 12.84375 -10.703125 C 12.84375 -8.316406 12.609375 -6.328125 12.140625 -4.734375 C 11.679688 -3.148438 10.835938 -1.960938 9.609375 -1.171875 C 8.378906 -0.390625 6.601562 0 4.28125 0 Z M 1.078125 0 "/></g></g></g><g fill="#3c6d16" fill-opacity="1"><g transform="translate(145.296374, 62.33711)"><g><path d="M 1.609375 0 L 1.609375 -27.828125 L 9.09375 -27.828125 L 9.09375 -22.484375 C 9.945312 -23.410156 10.828125 -24.316406 11.734375 -25.203125 C 12.648438 -26.097656 13.554688 -26.972656 14.453125 -27.828125 C 17.484375 -27.648438 19.976562 -26.875 21.9375 -25.5 C 23.90625 -24.125 25.378906 -22.410156 26.359375 -20.359375 C 27.335938 -18.304688 27.828125 -16.160156 27.828125 -13.921875 C 27.828125 -11.523438 27.289062 -9.265625 26.21875 -7.140625 C 25.15625 -5.015625 23.515625 -3.289062 21.296875 -1.96875 C 19.085938 -0.65625 16.269531 0 12.84375 0 L 11.78125 0 L 11.78125 -6.421875 C 14.5625 -6.421875 16.679688 -7.140625 18.140625 -8.578125 C 19.609375 -10.023438 20.34375 -11.804688 20.34375 -13.921875 C 20.34375 -16.273438 19.65625 -18.109375 18.28125 -19.421875 C 16.90625 -20.742188 15.09375 -21.40625 12.84375 -21.40625 L 9.09375 -21.40625 L 9.09375 0 Z M 1.609375 0 "/></g></g></g><g fill="#3c6d16" fill-opacity="1"><g transform="translate(174.19587, 62.33711)"><g><path d="M 17.125 1.078125 C 16.226562 1.078125 15.117188 0.90625 13.796875 0.5625 C 12.484375 0.21875 11.117188 -0.332031 9.703125 -1.09375 C 8.296875 -1.863281 6.976562 -2.90625 5.75 -4.21875 C 4.519531 -5.539062 3.519531 -7.175781 2.75 -9.125 C 1.988281 -11.070312 1.609375 -13.382812 1.609375 -16.0625 L 1.609375 -27.828125 L 9.09375 -27.828125 L 9.09375 -14.984375 C 9.09375 -13.304688 9.421875 -11.734375 10.078125 -10.265625 C 10.742188 -8.804688 11.71875 -7.625 13 -6.71875 C 14.289062 -5.8125 15.84375 -5.359375 17.65625 -5.359375 C 19.582031 -5.359375 21.132812 -5.8125 22.3125 -6.71875 C 23.488281 -7.625 24.34375 -8.804688 24.875 -10.265625 C 25.414062 -11.734375 25.6875 -13.304688 25.6875 -14.984375 L 25.6875 -27.828125 L 33.1875 -27.828125 L 33.1875 -16.0625 C 33.1875 -12.707031 32.664062 -9.921875 31.625 -7.703125 C 30.59375 -5.492188 29.242188 -3.742188 27.578125 -2.453125 C 25.921875 -1.171875 24.164062 -0.265625 22.3125 0.265625 C 20.457031 0.804688 18.726562 1.078125 17.125 1.078125 Z M 13.375 -11.78125 L 13.375 -28.90625 L 20.875 -28.90625 L 20.875 -11.78125 Z M 13.375 -11.78125 "/></g></g></g><g clip-path="url(#708fb14e11)"><path fill="#afdc34" d="M 78.820312 31.265625 C 78.820312 31.265625 84.410156 22.757812 93.726562 21.671875 C 93.726562 21.671875 85.054688 25.910156 81.390625 31.75 C 100.492188 34.445312 103.152344 13.832031 103.152344 13.832031 C 80.390625 15.152344 78.820312 31.265625 78.820312 31.265625 " fill-opacity="1" fill-rule="nonzero"/></g><g fill="#845333" fill-opacity="1"><g transform="translate(214.448198, 61.666291)"><g><path d="M 1.25 -8.34375 L 1.25 -21.6875 L 7.09375 -21.6875 L 7.09375 -8.34375 Z M 1.25 -8.34375 "/></g></g></g><g fill="#845333" fill-opacity="1"><g transform="translate(222.791933, 61.666291)"><g><path d="M 0.828125 0 L 0.828125 -5 L 3.75 -5 C 4.5 -5 4.960938 -5.25 5.140625 -5.75 C 5.328125 -6.257812 5.421875 -6.984375 5.421875 -7.921875 L 5.421875 -13.34375 L 11.6875 -13.34375 L 11.6875 -8.34375 C 11.6875 -6.476562 11.503906 -4.925781 11.140625 -3.6875 C 10.773438 -2.445312 10.113281 -1.519531 9.15625 -0.90625 C 8.195312 -0.300781 6.8125 0 5 0 Z M 5.421875 -16.265625 L 5.421875 -21.6875 L 11.6875 -21.6875 L 11.6875 -16.265625 Z M 5.421875 -16.265625 "/></g></g></g><g fill="#845333" fill-opacity="1"><g transform="translate(235.724721, 61.666291)"><g><path d="M 1.25 0 L 1.25 -5 L 6.25 -5 C 8.425781 -5 10.097656 -5.515625 11.265625 -6.546875 C 12.429688 -7.578125 13.015625 -9.007812 13.015625 -10.84375 C 13.015625 -12.007812 12.75 -13.070312 12.21875 -14.03125 C 11.695312 -15 10.960938 -15.765625 10.015625 -16.328125 C 9.066406 -16.898438 7.953125 -17.1875 6.671875 -17.1875 C 5.617188 -17.1875 4.65625 -16.96875 3.78125 -16.53125 C 2.90625 -16.101562 2.0625 -15.320312 1.25 -14.1875 L 1.25 -20.4375 C 2.25 -21 3.191406 -21.414062 4.078125 -21.6875 C 4.972656 -21.96875 5.976562 -22.109375 7.09375 -22.109375 C 9.289062 -22.109375 11.265625 -21.609375 13.015625 -20.609375 C 14.765625 -19.609375 16.160156 -18.257812 17.203125 -16.5625 C 18.242188 -14.863281 18.765625 -12.957031 18.765625 -10.84375 C 18.765625 -8.5625 18.226562 -6.609375 17.15625 -4.984375 C 16.09375 -3.359375 14.59375 -2.117188 12.65625 -1.265625 C 10.726562 -0.421875 8.457031 0 5.84375 0 Z M 1.25 -8.34375 L 1.25 -13.34375 L 7.921875 -13.34375 L 7.921875 -8.34375 Z M 1.25 -8.34375 "/></g></g></g><g fill="#845333" fill-opacity="1"><g transform="translate(255.332501, 61.666291)"><g><path d="M 0.828125 -16.6875 L 0.828125 -27.109375 L 6.671875 -27.109375 L 6.671875 -21.6875 L 18.359375 -21.6875 L 16.0625 -16.6875 Z M 2.078125 0 L 8.34375 -13.34375 L 14.59375 -13.34375 L 8.765625 0 Z M 2.078125 0 "/></g></g></g><g fill="#845333" fill-opacity="1"><g transform="translate(274.022467, 61.666291)"><g/></g></g><g fill="#845333" fill-opacity="1"><g transform="translate(282.157605, 61.666291)"><g><path d="M 14.1875 -10.84375 C 14.1875 -11.457031 14.085938 -12.101562 13.890625 -12.78125 C 13.691406 -13.46875 13.335938 -14.101562 12.828125 -14.6875 C 12.316406 -15.269531 11.59375 -15.75 10.65625 -16.125 C 9.726562 -16.5 8.539062 -16.6875 7.09375 -16.6875 L 1.25 -16.6875 L 1.25 -21.6875 L 8.34375 -21.6875 C 10.488281 -21.6875 12.300781 -21.351562 13.78125 -20.6875 C 15.269531 -20.019531 16.472656 -19.148438 17.390625 -18.078125 C 18.304688 -17.015625 18.972656 -15.847656 19.390625 -14.578125 C 19.816406 -13.316406 20.03125 -12.070312 20.03125 -10.84375 L 20.03125 0 L 14.1875 0 Z M 1.25 0 L 1.25 -13.34375 L 7.09375 -13.34375 L 7.09375 0 Z M 1.25 0 "/></g></g></g><g fill="#845333" fill-opacity="1"><g transform="translate(303.434129, 61.666291)"><g><path d="M 1.25 -8.34375 L 1.25 -21.6875 L 7.09375 -21.6875 L 7.09375 -8.34375 Z M 1.25 -8.34375 "/></g></g></g><g fill="#845333" fill-opacity="1"><g transform="translate(311.777865, 61.666291)"><g><path d="M 1.25 -8.34375 L 1.25 -21.6875 L 7.09375 -21.6875 L 7.09375 -8.34375 Z M 1.25 -8.34375 "/></g></g></g><g fill="#845333" fill-opacity="1"><g transform="translate(320.121601, 61.666291)"><g><path d="M 0.828125 0 L 0.828125 -5 L 3.75 -5 C 4.5 -5 4.960938 -5.25 5.140625 -5.75 C 5.328125 -6.257812 5.421875 -6.984375 5.421875 -7.921875 L 5.421875 -13.34375 L 11.6875 -13.34375 L 11.6875 -8.34375 C 11.6875 -6.476562 11.503906 -4.925781 11.140625 -3.6875 C 10.773438 -2.445312 10.113281 -1.519531 9.15625 -0.90625 C 8.195312 -0.300781 6.8125 0 5 0 Z M 5.421875 -16.265625 L 5.421875 -21.6875 L 11.6875 -21.6875 L 11.6875 -16.265625 Z M 5.421875 -16.265625 "/></g></g></g><g fill="#845333" fill-opacity="1"><g transform="translate(333.054389, 61.666291)"><g><path d="M 13.34375 0.828125 C 12.65625 0.828125 11.796875 0.695312 10.765625 0.4375 C 9.734375 0.175781 8.664062 -0.25 7.5625 -0.84375 C 6.46875 -1.445312 5.441406 -2.265625 4.484375 -3.296875 C 3.523438 -4.328125 2.742188 -5.597656 2.140625 -7.109375 C 1.546875 -8.628906 1.25 -10.429688 1.25 -12.515625 L 1.25 -21.6875 L 7.09375 -21.6875 L 7.09375 -11.6875 C 7.09375 -10.375 7.347656 -9.144531 7.859375 -8 C 8.378906 -6.863281 9.140625 -5.941406 10.140625 -5.234375 C 11.140625 -4.523438 12.347656 -4.171875 13.765625 -4.171875 C 15.265625 -4.171875 16.472656 -4.523438 17.390625 -5.234375 C 18.304688 -5.941406 18.972656 -6.863281 19.390625 -8 C 19.816406 -9.144531 20.03125 -10.375 20.03125 -11.6875 L 20.03125 -21.6875 L 25.859375 -21.6875 L 25.859375 -12.515625 C 25.859375 -9.898438 25.457031 -7.726562 24.65625 -6 C 23.851562 -4.28125 22.800781 -2.921875 21.5 -1.921875 C 20.207031 -0.921875 18.835938 -0.210938 17.390625 0.203125 C 15.953125 0.617188 14.601562 0.828125 13.34375 0.828125 Z M 10.421875 -9.171875 L 10.421875 -22.53125 L 16.265625 -22.53125 L 16.265625 -9.171875 Z M 10.421875 -9.171875 "/></g></g></g></svg>