<svg xmlns="http://www.w3.org/2000/svg" xmlns:xlink="http://www.w3.org/1999/xlink" width="492" zoomAndPan="magnify" viewBox="0 0 369 129.750003" height="173" preserveAspectRatio="xMidYMid meet" version="1.0"><defs><g/><clipPath id="8aa5d78138"><path d="M 22 19.113281 L 56 19.113281 L 56 45 L 22 45 Z M 22 19.113281 " clip-rule="nonzero"/></clipPath></defs><g fill="#e7191f" fill-opacity="1"><g transform="translate(20.771013, 86.232415)"><g><path d="M 2.21875 0 L 2.21875 -38.5 L 12.578125 -38.5 L 12.578125 0 Z M 2.21875 0 "/></g></g></g><g fill="#e7191f" fill-opacity="1"><g transform="translate(35.57744, 86.232415)"><g><path d="M 1.484375 0 L 1.484375 -8.890625 L 6.65625 -8.890625 C 7.988281 -8.890625 8.816406 -9.332031 9.140625 -10.21875 C 9.460938 -11.101562 9.625 -12.382812 9.625 -14.0625 L 9.625 -23.6875 L 20.734375 -23.6875 L 20.734375 -14.8125 C 20.734375 -11.5 20.410156 -8.742188 19.765625 -6.546875 C 19.117188 -4.347656 17.945312 -2.707031 16.25 -1.625 C 14.550781 -0.539062 12.097656 0 8.890625 0 Z M 9.625 -28.875 L 9.625 -38.5 L 20.734375 -38.5 L 20.734375 -28.875 Z M 9.625 -28.875 "/></g></g></g><g fill="#e7191f" fill-opacity="1"><g transform="translate(58.527413, 86.232415)"><g><path d="M 1.484375 -29.609375 L 1.484375 -48.125 L 11.84375 -48.125 L 11.84375 -38.5 L 32.578125 -38.5 L 28.5 -29.609375 Z M 3.703125 0 L 14.8125 -23.6875 L 25.90625 -23.6875 L 15.546875 0 Z M 3.703125 0 "/></g></g></g><g fill="#e7191f" fill-opacity="1"><g transform="translate(91.693818, 86.232415)"><g><path d="M 23.6875 1.484375 C 22.457031 1.484375 20.925781 1.25 19.09375 0.78125 C 17.269531 0.3125 15.382812 -0.453125 13.4375 -1.515625 C 11.488281 -2.578125 9.660156 -4.019531 7.953125 -5.84375 C 6.253906 -7.675781 4.875 -9.9375 3.8125 -12.625 C 2.75 -15.3125 2.21875 -18.503906 2.21875 -22.203125 L 2.21875 -38.5 L 12.578125 -38.5 L 12.578125 -20.734375 C 12.578125 -18.410156 13.035156 -16.234375 13.953125 -14.203125 C 14.867188 -12.179688 16.210938 -10.539062 17.984375 -9.28125 C 19.765625 -8.03125 21.914062 -7.40625 24.4375 -7.40625 C 27.09375 -7.40625 29.234375 -8.03125 30.859375 -9.28125 C 32.492188 -10.539062 33.679688 -12.179688 34.421875 -14.203125 C 35.160156 -16.234375 35.53125 -18.410156 35.53125 -20.734375 L 35.53125 -38.5 L 45.90625 -38.5 L 45.90625 -22.203125 C 45.90625 -17.566406 45.1875 -13.71875 43.75 -10.65625 C 42.320312 -7.601562 40.457031 -5.1875 38.15625 -3.40625 C 35.863281 -1.625 33.429688 -0.363281 30.859375 0.375 C 28.296875 1.113281 25.90625 1.484375 23.6875 1.484375 Z M 18.515625 -16.28125 L 18.515625 -39.984375 L 28.875 -39.984375 L 28.875 -16.28125 Z M 18.515625 -16.28125 "/></g></g></g><g clip-path="url(#8aa5d78138)"><path fill="#ffa073" d="M 22.273438 43.230469 C 22.273438 43.230469 29.957031 31.472656 42.757812 29.972656 C 42.757812 29.972656 30.84375 35.832031 25.808594 43.898438 C 52.058594 47.625 55.71875 19.140625 55.71875 19.140625 C 24.433594 20.964844 22.273438 43.230469 22.273438 43.230469 " fill-opacity="1" fill-rule="nonzero"/></g><g fill="#845333" fill-opacity="1"><g transform="translate(145.521535, 86.05301)"><g><path d="M 23.09375 -15 C 23.09375 -17.625 22.335938 -19.628906 20.828125 -21.015625 C 19.328125 -22.398438 17.003906 -23.09375 13.859375 -23.09375 L 5.765625 -23.09375 L 5.765625 -30.015625 L 15.578125 -30.015625 C 18.316406 -30.015625 20.675781 -29.5625 22.65625 -28.65625 C 24.632812 -27.75 26.25 -26.554688 27.5 -25.078125 C 28.75 -23.597656 29.671875 -21.984375 30.265625 -20.234375 C 30.867188 -18.484375 31.171875 -16.738281 31.171875 -15 L 31.171875 0 L 23.09375 0 Z M 1.15625 0 L 1.15625 -6.921875 L 2.890625 -6.921875 C 3.921875 -6.921875 4.65625 -7.265625 5.09375 -7.953125 C 5.539062 -8.648438 5.765625 -9.65625 5.765625 -10.96875 L 5.765625 -18.46875 L 13.859375 -18.46875 L 13.859375 -11.546875 C 13.859375 -8.960938 13.609375 -6.816406 13.109375 -5.109375 C 12.609375 -3.398438 11.691406 -2.117188 10.359375 -1.265625 C 9.035156 -0.421875 7.125 0 4.625 0 Z M 1.15625 0 "/></g></g></g><g fill="#845333" fill-opacity="1"><g transform="translate(178.416481, 86.05301)"><g><path d="M 1.734375 0 L 1.734375 -30.015625 L 9.8125 -30.015625 L 9.8125 0 Z M 1.734375 0 "/></g></g></g><g fill="#845333" fill-opacity="1"><g transform="translate(189.958569, 86.05301)"><g><path d="M 1.734375 -11.546875 L 1.734375 -30.015625 L 9.8125 -30.015625 L 9.8125 -11.546875 Z M 1.734375 -11.546875 "/></g></g></g><g fill="#845333" fill-opacity="1"><g transform="translate(201.500657, 86.05301)"><g><path d="M 16.15625 -14.78125 C 16.15625 -15.925781 15.859375 -17.144531 15.265625 -18.4375 C 14.671875 -19.726562 13.695312 -20.828125 12.34375 -21.734375 C 11 -22.640625 9.191406 -23.09375 6.921875 -23.09375 L 1.15625 -23.09375 L 1.15625 -30.015625 L 8.078125 -30.015625 C 11.046875 -30.015625 13.554688 -29.550781 15.609375 -28.625 C 17.671875 -27.707031 19.335938 -26.503906 20.609375 -25.015625 C 21.878906 -23.535156 22.800781 -21.921875 23.375 -20.171875 C 23.945312 -18.421875 24.234375 -16.695312 24.234375 -15 L 24.234375 0 L 16.15625 0 Z M 16.15625 -14.78125 "/></g></g></g><g fill="#845333" fill-opacity="1"><g transform="translate(227.470352, 86.05301)"><g><path d="M 1.734375 0 L 1.734375 -30.015625 L 9.8125 -30.015625 L 9.8125 0 Z M 1.734375 0 "/></g></g></g><g fill="#845333" fill-opacity="1"><g transform="translate(239.01244, 86.05301)"><g><path d="M 12.125 0 C 8.769531 0 6.101562 -0.726562 4.125 -2.1875 C 2.144531 -3.65625 1.15625 -6.003906 1.15625 -9.234375 C 1.15625 -12.460938 2 -14.804688 3.6875 -16.265625 C 5.382812 -17.734375 8.003906 -18.46875 11.546875 -18.46875 L 14.4375 -18.46875 L 14.4375 -30.015625 L 22.515625 -30.015625 L 22.515625 -11.546875 L 13.28125 -11.546875 C 11.96875 -11.546875 11.0625 -11.363281 10.5625 -11 C 10.0625 -10.632812 9.8125 -10.046875 9.8125 -9.234375 C 9.8125 -8.503906 10.070312 -7.9375 10.59375 -7.53125 C 11.113281 -7.125 12.007812 -6.921875 13.28125 -6.921875 L 22.515625 -6.921875 L 22.515625 0 Z M 12.125 0 "/></g></g></g><g fill="#845333" fill-opacity="1"><g transform="translate(263.250818, 86.05301)"><g><path d="M 1.734375 0 L 1.734375 -30.015625 L 9.8125 -30.015625 L 9.8125 -6.921875 L 16.15625 -6.921875 C 18.46875 -6.921875 19.625 -8.078125 19.625 -10.390625 L 19.625 -18.46875 L 27.703125 -18.46875 L 27.703125 -9.8125 C 27.703125 -6.351562 26.804688 -3.851562 25.015625 -2.3125 C 23.234375 -0.769531 20.472656 0 16.734375 0 Z M 19.625 -23.09375 L 19.625 -30.015625 L 27.703125 -30.015625 L 27.703125 -23.09375 Z M 19.625 -23.09375 "/></g></g></g><g fill="#845333" fill-opacity="1"><g transform="translate(292.683139, 86.05301)"><g><path d="M 1.734375 11.546875 L 1.734375 -18.46875 L 9.8125 -18.46875 L 9.8125 -0.578125 L 19.625 -18.46875 L 28.578125 -18.46875 L 18.765625 0 L 9.8125 0 L 9.8125 11.546875 Z M 1.734375 -23.09375 L 1.734375 -30.015625 L 28.859375 -30.015625 L 28.859375 -23.09375 Z M 1.734375 -23.09375 "/></g></g></g><g fill="#845333" fill-opacity="1"><g transform="translate(323.269671, 86.05301)"><g><path d="M 19.625 -15 C 19.625 -15.851562 19.488281 -16.75 19.21875 -17.6875 C 18.945312 -18.632812 18.457031 -19.507812 17.75 -20.3125 C 17.039062 -21.125 16.039062 -21.789062 14.75 -22.3125 C 13.457031 -22.832031 11.8125 -23.09375 9.8125 -23.09375 L 1.734375 -23.09375 L 1.734375 -30.015625 L 11.546875 -30.015625 C 14.503906 -30.015625 17.007812 -29.550781 19.0625 -28.625 C 21.125 -27.707031 22.789062 -26.503906 24.0625 -25.015625 C 25.332031 -23.535156 26.253906 -21.921875 26.828125 -20.171875 C 27.410156 -18.421875 27.703125 -16.695312 27.703125 -15 L 27.703125 0 L 19.625 0 Z M 1.734375 0 L 1.734375 -18.46875 L 9.8125 -18.46875 L 9.8125 0 Z M 1.734375 0 "/></g></g></g></svg>