<svg xmlns="http://www.w3.org/2000/svg" xmlns:xlink="http://www.w3.org/1999/xlink" width="266" zoomAndPan="magnify" viewBox="0 0 199.5 129.749996" height="173" preserveAspectRatio="xMidYMid meet" version="1.0"><defs><g/><clipPath id="664ba4140b"><path d="M 24 19.140625 L 58 19.140625 L 58 45 L 24 45 Z M 24 19.140625 " clip-rule="nonzero"/></clipPath></defs><g fill="#e7191f" fill-opacity="1"><g transform="translate(20.35815, 86.220059)"><g><path d="M 17.984375 -24.421875 C 17.984375 -26.441406 17.707031 -27.804688 17.15625 -28.515625 C 16.613281 -29.234375 15.410156 -29.59375 13.546875 -29.59375 L 3.1875 -29.59375 L 3.1875 -38.46875 L 16.5 -38.46875 C 20.6875 -38.46875 23.707031 -37.441406 25.5625 -35.390625 C 27.414062 -33.347656 28.34375 -29.9375 28.34375 -25.15625 L 28.34375 -14.796875 L 17.984375 -14.796875 Z M 1.703125 0 L 1.703125 -8.875 L 32.03125 -8.875 L 32.03125 0 Z M 1.703125 0 "/></g></g></g><g fill="#e7191f" fill-opacity="1"><g transform="translate(54.023311, 86.220059)"><g><path d="M 1.484375 -29.59375 L 1.484375 -48.09375 L 11.84375 -48.09375 L 11.84375 -38.46875 L 32.546875 -38.46875 L 28.484375 -29.59375 Z M 3.703125 0 L 14.796875 -23.671875 L 25.890625 -23.671875 L 15.53125 0 Z M 3.703125 0 "/></g></g></g><g clip-path="url(#664ba4140b)"><path fill="#ffa073" d="M 24.21875 43.246094 C 24.21875 43.246094 31.898438 31.492188 44.691406 29.996094 C 44.691406 29.996094 32.78125 35.851562 27.75 43.910156 C 53.984375 47.636719 57.640625 19.167969 57.640625 19.167969 C 26.375 20.988281 24.21875 43.246094 24.21875 43.246094 " fill-opacity="1" fill-rule="nonzero"/></g><g fill="#845333" fill-opacity="1"><g transform="translate(90.809025, 86.040757)"><g><path d="M 1.734375 0 L 1.734375 -30 L 9.8125 -30 L 9.8125 0 Z M 1.734375 0 "/></g></g></g><g fill="#845333" fill-opacity="1"><g transform="translate(102.34444, 86.040757)"><g><path d="M 1.734375 0 L 1.734375 -30 L 9.8125 -30 L 9.8125 -24.234375 C 10.726562 -25.234375 11.675781 -26.210938 12.65625 -27.171875 C 13.644531 -28.128906 14.617188 -29.070312 15.578125 -30 C 18.847656 -29.800781 21.539062 -28.960938 23.65625 -27.484375 C 25.769531 -26.003906 27.351562 -24.160156 28.40625 -21.953125 C 29.46875 -19.742188 30 -17.425781 30 -15 C 30 -12.425781 29.421875 -9.992188 28.265625 -7.703125 C 27.109375 -5.410156 25.335938 -3.550781 22.953125 -2.125 C 20.578125 -0.707031 17.539062 0 13.84375 0 L 12.6875 0 L 12.6875 -6.921875 C 15.6875 -6.921875 17.972656 -7.695312 19.546875 -9.25 C 21.128906 -10.8125 21.921875 -12.726562 21.921875 -15 C 21.921875 -17.539062 21.179688 -19.519531 19.703125 -20.9375 C 18.222656 -22.363281 16.269531 -23.078125 13.84375 -23.078125 L 9.8125 -23.078125 L 9.8125 0 Z M 1.734375 0 "/></g></g></g><g fill="#845333" fill-opacity="1"><g transform="translate(133.490065, 86.040757)"><g><path d="M 1.734375 -11.53125 L 1.734375 -30 L 9.8125 -30 L 9.8125 -11.53125 Z M 1.734375 -11.53125 "/></g></g></g><g fill="#845333" fill-opacity="1"><g transform="translate(145.025481, 86.040757)"><g><path d="M 18.453125 1.15625 C 17.492188 1.15625 16.300781 0.972656 14.875 0.609375 C 13.457031 0.242188 11.988281 -0.347656 10.46875 -1.171875 C 8.945312 -2.003906 7.523438 -3.128906 6.203125 -4.546875 C 4.878906 -5.972656 3.800781 -7.734375 2.96875 -9.828125 C 2.144531 -11.929688 1.734375 -14.425781 1.734375 -17.3125 L 1.734375 -30 L 9.8125 -30 L 9.8125 -16.15625 C 9.8125 -14.34375 10.164062 -12.644531 10.875 -11.0625 C 11.582031 -9.488281 12.628906 -8.210938 14.015625 -7.234375 C 15.398438 -6.253906 17.070312 -5.765625 19.03125 -5.765625 C 21.113281 -5.765625 22.785156 -6.253906 24.046875 -7.234375 C 25.316406 -8.210938 26.238281 -9.488281 26.8125 -11.0625 C 27.394531 -12.644531 27.6875 -14.34375 27.6875 -16.15625 L 27.6875 -30 L 35.765625 -30 L 35.765625 -17.3125 C 35.765625 -13.695312 35.207031 -10.695312 34.09375 -8.3125 C 32.976562 -5.925781 31.523438 -4.039062 29.734375 -2.65625 C 27.953125 -1.269531 26.0625 -0.289062 24.0625 0.28125 C 22.0625 0.863281 20.191406 1.15625 18.453125 1.15625 Z M 14.421875 -12.6875 L 14.421875 -31.15625 L 22.5 -31.15625 L 22.5 -12.6875 Z M 14.421875 -12.6875 "/></g></g></g></svg>