<svg xmlns="http://www.w3.org/2000/svg" xmlns:xlink="http://www.w3.org/1999/xlink" width="415" zoomAndPan="magnify" viewBox="0 0 311.25 129.749996" height="173" preserveAspectRatio="xMidYMid meet" version="1.0"><defs><g/><clipPath id="1bbe8002a3"><path d="M 68 19.136719 L 102 19.136719 L 102 45 L 68 45 Z M 68 19.136719 " clip-rule="nonzero"/></clipPath></defs><g fill="#3c6d16" fill-opacity="1"><g transform="translate(23.505949, 86.222116)"><g><path d="M 29.59375 -19.234375 C 29.59375 -22.585938 28.628906 -25.148438 26.703125 -26.921875 C 24.785156 -28.703125 21.804688 -29.59375 17.765625 -29.59375 L 7.40625 -29.59375 L 7.40625 -38.484375 L 19.984375 -38.484375 C 23.484375 -38.484375 26.503906 -37.898438 29.046875 -36.734375 C 31.585938 -35.578125 33.660156 -34.046875 35.265625 -32.140625 C 36.867188 -30.242188 38.050781 -28.171875 38.8125 -25.921875 C 39.570312 -23.679688 39.953125 -21.453125 39.953125 -19.234375 L 39.953125 0 L 29.59375 0 Z M 1.484375 0 L 1.484375 -8.875 L 3.703125 -8.875 C 5.035156 -8.875 5.984375 -9.316406 6.546875 -10.203125 C 7.117188 -11.097656 7.40625 -12.382812 7.40625 -14.0625 L 7.40625 -23.6875 L 17.765625 -23.6875 L 17.765625 -14.796875 C 17.765625 -11.492188 17.441406 -8.742188 16.796875 -6.546875 C 16.160156 -4.347656 14.988281 -2.707031 13.28125 -1.625 C 11.582031 -0.539062 9.128906 0 5.921875 0 Z M 1.484375 0 "/></g></g></g><g fill="#3c6d16" fill-opacity="1"><g transform="translate(65.683953, 86.222116)"><g><path d="M 2.21875 0 L 2.21875 -38.484375 L 12.578125 -38.484375 L 12.578125 0 Z M 2.21875 0 "/></g></g></g><g fill="#3c6d16" fill-opacity="1"><g transform="translate(80.483247, 86.222116)"><g><path d="M 1.484375 0 L 1.484375 -8.875 L 6.65625 -8.875 C 7.988281 -8.875 8.816406 -9.316406 9.140625 -10.203125 C 9.460938 -11.097656 9.625 -12.382812 9.625 -14.0625 L 9.625 -23.6875 L 20.71875 -23.6875 L 20.71875 -14.796875 C 20.71875 -11.492188 20.394531 -8.742188 19.75 -6.546875 C 19.113281 -4.347656 17.941406 -2.707031 16.234375 -1.625 C 14.535156 -0.539062 12.082031 0 8.875 0 Z M 9.625 -28.859375 L 9.625 -38.484375 L 20.71875 -38.484375 L 20.71875 -28.859375 Z M 9.625 -28.859375 "/></g></g></g><g fill="#3c6d16" fill-opacity="1"><g transform="translate(103.422164, 86.222116)"><g><path d="M 2.21875 0 L 2.21875 -38.484375 L 12.578125 -38.484375 L 12.578125 0 Z M 2.21875 0 "/></g></g></g><g fill="#3c6d16" fill-opacity="1"><g transform="translate(118.221459, 86.222116)"><g><path d="M 23.6875 1.484375 C 22.445312 1.484375 20.914062 1.25 19.09375 0.78125 C 17.269531 0.3125 15.382812 -0.453125 13.4375 -1.515625 C 11.488281 -2.578125 9.660156 -4.019531 7.953125 -5.84375 C 6.253906 -7.664062 4.875 -9.921875 3.8125 -12.609375 C 2.75 -15.304688 2.21875 -18.503906 2.21875 -22.203125 L 2.21875 -38.484375 L 12.578125 -38.484375 L 12.578125 -20.71875 C 12.578125 -18.394531 13.03125 -16.222656 13.9375 -14.203125 C 14.851562 -12.179688 16.195312 -10.539062 17.96875 -9.28125 C 19.75 -8.03125 21.898438 -7.40625 24.421875 -7.40625 C 27.085938 -7.40625 29.234375 -8.03125 30.859375 -9.28125 C 32.484375 -10.539062 33.664062 -12.179688 34.40625 -14.203125 C 35.144531 -16.222656 35.515625 -18.394531 35.515625 -20.71875 L 35.515625 -38.484375 L 45.875 -38.484375 L 45.875 -22.203125 C 45.875 -17.566406 45.160156 -13.71875 43.734375 -10.65625 C 42.304688 -7.59375 40.441406 -5.171875 38.140625 -3.390625 C 35.847656 -1.617188 33.421875 -0.363281 30.859375 0.375 C 28.296875 1.113281 25.90625 1.484375 23.6875 1.484375 Z M 18.5 -16.28125 L 18.5 -39.953125 L 28.859375 -39.953125 L 28.859375 -16.28125 Z M 18.5 -16.28125 "/></g></g></g><g fill="#3c6d16" fill-opacity="1"><g transform="translate(166.319174, 86.222116)"><g><path d="M 2.21875 0 L 2.21875 -38.484375 L 12.578125 -38.484375 L 12.578125 0 Z M 2.21875 0 "/></g></g></g><g clip-path="url(#1bbe8002a3)"><path fill="#afdc34" d="M 68.132812 43.242188 C 68.132812 43.242188 75.816406 31.492188 88.609375 29.992188 C 88.609375 29.992188 76.699219 35.847656 71.667969 43.910156 C 97.902344 47.632812 101.5625 19.164062 101.5625 19.164062 C 70.292969 20.984375 68.132812 43.242188 68.132812 43.242188 " fill-opacity="1" fill-rule="nonzero"/></g><g fill="#845333" fill-opacity="1"><g transform="translate(189.188033, 85.2946)"><g><path d="M 1.734375 0 L 1.734375 -18.453125 L 9.8125 -18.453125 L 9.8125 -6.921875 L 19.03125 -6.921875 L 19.03125 -19.609375 C 19.03125 -21.921875 17.878906 -23.078125 15.578125 -23.078125 L 1.734375 -23.078125 L 1.734375 -30 L 16.734375 -30 C 20.460938 -30 23.125 -29.226562 24.71875 -27.6875 C 26.3125 -26.144531 27.109375 -23.644531 27.109375 -20.1875 L 27.109375 0 Z M 1.734375 0 "/></g></g></g><g fill="#845333" fill-opacity="1"><g transform="translate(218.029348, 85.2946)"><g><path d="M 1.734375 -11.53125 L 1.734375 -30 L 9.8125 -30 L 9.8125 -11.53125 Z M 1.734375 -11.53125 "/></g></g></g><g fill="#845333" fill-opacity="1"><g transform="translate(229.565876, 85.2946)"><g><path d="M 1.734375 0 L 1.734375 -6.921875 L 17.3125 -6.921875 C 17.15625 -9.609375 16 -10.953125 13.84375 -10.953125 C 12.726562 -10.953125 11.476562 -11.132812 10.09375 -11.5 C 8.707031 -11.875 7.378906 -12.539062 6.109375 -13.5 C 4.847656 -14.457031 3.800781 -15.847656 2.96875 -17.671875 C 2.144531 -19.503906 1.734375 -21.882812 1.734375 -24.8125 L 1.734375 -30 L 9.8125 -30 L 9.8125 -23.078125 C 9.8125 -21.535156 10.1875 -20.378906 10.9375 -19.609375 C 11.6875 -18.835938 12.65625 -18.453125 13.84375 -18.453125 C 17.84375 -18.453125 20.765625 -17.257812 22.609375 -14.875 C 24.453125 -12.5 25.375 -9.269531 25.375 -5.1875 L 25.375 0 Z M 17.3125 -22.5 L 17.3125 -30 L 25.375 -30 L 25.375 -22.5 Z M 17.3125 -22.5 "/></g></g></g><g fill="#845333" fill-opacity="1"><g transform="translate(256.676717, 85.2946)"><g><path d="M 1.734375 -11.53125 L 1.734375 -30 L 9.8125 -30 L 9.8125 -11.53125 Z M 1.734375 -11.53125 "/></g></g></g><g fill="#845333" fill-opacity="1"><g transform="translate(268.213245, 85.2946)"><g><path d="M 14.015625 -19.03125 C 14.015625 -20.613281 13.800781 -21.679688 13.375 -22.234375 C 12.957031 -22.796875 12.019531 -23.078125 10.5625 -23.078125 L 2.484375 -23.078125 L 2.484375 -30 L 12.859375 -30 C 16.128906 -30 18.484375 -29.195312 19.921875 -27.59375 C 21.367188 -26 22.09375 -23.335938 22.09375 -19.609375 L 22.09375 -11.53125 L 14.015625 -11.53125 Z M 1.328125 0 L 1.328125 -6.921875 L 24.984375 -6.921875 L 24.984375 0 Z M 1.328125 0 "/></g></g></g></svg>