<svg xmlns="http://www.w3.org/2000/svg" xmlns:xlink="http://www.w3.org/1999/xlink" width="450" zoomAndPan="magnify" viewBox="0 0 337.5 129.750003" height="173" preserveAspectRatio="xMidYMid meet" version="1.0"><defs><g/><clipPath id="f7e20532e2"><path d="M 70 18.363281 L 105 18.363281 L 105 44 L 70 44 Z M 70 18.363281 " clip-rule="nonzero"/></clipPath></defs><g fill="#3c6d16" fill-opacity="1"><g transform="translate(30.569677, 86.232415)"><g><path d="M 25.171875 -19.25 C 25.171875 -20.332031 25 -21.476562 24.65625 -22.6875 C 24.3125 -23.894531 23.679688 -25.015625 22.765625 -26.046875 C 21.847656 -27.085938 20.5625 -27.941406 18.90625 -28.609375 C 17.257812 -29.273438 15.148438 -29.609375 12.578125 -29.609375 L 2.21875 -29.609375 L 2.21875 -38.5 L 14.8125 -38.5 C 18.601562 -38.5 21.816406 -37.90625 24.453125 -36.71875 C 27.097656 -35.53125 29.234375 -33.988281 30.859375 -32.09375 C 32.492188 -30.195312 33.679688 -28.125 34.421875 -25.875 C 35.160156 -23.625 35.53125 -21.414062 35.53125 -19.25 L 35.53125 0 L 25.171875 0 Z M 2.21875 0 L 2.21875 -23.6875 L 12.578125 -23.6875 L 12.578125 0 Z M 2.21875 0 "/></g></g></g><g fill="#3c6d16" fill-opacity="1"><g transform="translate(68.326077, 86.232415)"><g><path d="M 2.21875 0 L 2.21875 -38.5 L 12.578125 -38.5 L 12.578125 -31.09375 C 13.765625 -32.375 14.988281 -33.628906 16.25 -34.859375 C 17.507812 -36.097656 18.753906 -37.3125 19.984375 -38.5 C 24.179688 -38.25 27.632812 -37.171875 30.34375 -35.265625 C 33.0625 -33.367188 35.097656 -31 36.453125 -28.15625 C 37.816406 -25.320312 38.5 -22.351562 38.5 -19.25 C 38.5 -15.9375 37.753906 -12.8125 36.265625 -9.875 C 34.785156 -6.945312 32.515625 -4.566406 29.453125 -2.734375 C 26.398438 -0.910156 22.503906 0 17.765625 0 L 16.28125 0 L 16.28125 -8.890625 C 20.132812 -8.890625 23.070312 -9.882812 25.09375 -11.875 C 27.113281 -13.875 28.125 -16.332031 28.125 -19.25 C 28.125 -22.507812 27.175781 -25.050781 25.28125 -26.875 C 23.382812 -28.695312 20.878906 -29.609375 17.765625 -29.609375 L 12.578125 -29.609375 L 12.578125 0 Z M 2.21875 0 "/></g></g></g><g fill="#3c6d16" fill-opacity="1"><g transform="translate(108.303437, 86.232415)"><g><path d="M 23.6875 1.484375 C 22.457031 1.484375 20.925781 1.25 19.09375 0.78125 C 17.269531 0.3125 15.382812 -0.453125 13.4375 -1.515625 C 11.488281 -2.578125 9.660156 -4.019531 7.953125 -5.84375 C 6.253906 -7.675781 4.875 -9.9375 3.8125 -12.625 C 2.75 -15.3125 2.21875 -18.503906 2.21875 -22.203125 L 2.21875 -38.5 L 12.578125 -38.5 L 12.578125 -20.734375 C 12.578125 -18.410156 13.035156 -16.234375 13.953125 -14.203125 C 14.867188 -12.179688 16.210938 -10.539062 17.984375 -9.28125 C 19.765625 -8.03125 21.914062 -7.40625 24.4375 -7.40625 C 27.09375 -7.40625 29.234375 -8.03125 30.859375 -9.28125 C 32.492188 -10.539062 33.679688 -12.179688 34.421875 -14.203125 C 35.160156 -16.234375 35.53125 -18.410156 35.53125 -20.734375 L 35.53125 -38.5 L 45.90625 -38.5 L 45.90625 -22.203125 C 45.90625 -17.566406 45.1875 -13.71875 43.75 -10.65625 C 42.320312 -7.601562 40.457031 -5.1875 38.15625 -3.40625 C 35.863281 -1.625 33.429688 -0.363281 30.859375 0.375 C 28.296875 1.113281 25.90625 1.484375 23.6875 1.484375 Z M 18.515625 -16.28125 L 18.515625 -39.984375 L 28.875 -39.984375 L 28.875 -16.28125 Z M 18.515625 -16.28125 "/></g></g></g><g fill="#3c6d16" fill-opacity="1"><g transform="translate(156.424332, 86.232415)"><g><path d="M 20.734375 -18.953125 C 20.734375 -20.429688 20.347656 -22 19.578125 -23.65625 C 18.816406 -25.3125 17.570312 -26.71875 15.84375 -27.875 C 14.113281 -29.03125 11.796875 -29.609375 8.890625 -29.609375 L 1.484375 -29.609375 L 1.484375 -38.5 L 10.359375 -38.5 C 14.160156 -38.5 17.378906 -37.90625 20.015625 -36.71875 C 22.660156 -35.53125 24.796875 -33.988281 26.421875 -32.09375 C 28.054688 -30.195312 29.242188 -28.125 29.984375 -25.875 C 30.722656 -23.625 31.09375 -21.414062 31.09375 -19.25 L 31.09375 0 L 20.734375 0 Z M 20.734375 -18.953125 "/></g></g></g><g fill="#3c6d16" fill-opacity="1"><g transform="translate(189.738801, 86.232415)"><g><path d="M 25.171875 -19.25 C 25.171875 -20.332031 25 -21.476562 24.65625 -22.6875 C 24.3125 -23.894531 23.679688 -25.015625 22.765625 -26.046875 C 21.847656 -27.085938 20.5625 -27.941406 18.90625 -28.609375 C 17.257812 -29.273438 15.148438 -29.609375 12.578125 -29.609375 L 2.21875 -29.609375 L 2.21875 -38.5 L 14.8125 -38.5 C 18.601562 -38.5 21.816406 -37.90625 24.453125 -36.71875 C 27.097656 -35.53125 29.234375 -33.988281 30.859375 -32.09375 C 32.492188 -30.195312 33.679688 -28.125 34.421875 -25.875 C 35.160156 -23.625 35.53125 -21.414062 35.53125 -19.25 L 35.53125 0 L 25.171875 0 Z M 2.21875 0 L 2.21875 -23.6875 L 12.578125 -23.6875 L 12.578125 0 Z M 2.21875 0 "/></g></g></g><g clip-path="url(#f7e20532e2)"><path fill="#afdc34" d="M 70.828125 42.484375 C 70.828125 42.484375 78.511719 30.726562 91.3125 29.226562 C 91.3125 29.226562 79.394531 35.085938 74.363281 43.152344 C 100.609375 46.875 104.269531 18.390625 104.269531 18.390625 C 72.984375 20.214844 70.828125 42.484375 70.828125 42.484375 " fill-opacity="1" fill-rule="nonzero"/></g><g fill="#845333" fill-opacity="1"><g transform="translate(235.784835, 85.304452)"><g><path d="M 1.734375 0 L 1.734375 -18.46875 L 9.8125 -18.46875 L 9.8125 -6.921875 L 19.046875 -6.921875 L 19.046875 -19.625 C 19.046875 -21.9375 17.890625 -23.09375 15.578125 -23.09375 L 1.734375 -23.09375 L 1.734375 -30.015625 L 16.734375 -30.015625 C 20.472656 -30.015625 23.140625 -29.242188 24.734375 -27.703125 C 26.328125 -26.160156 27.125 -23.660156 27.125 -20.203125 L 27.125 0 Z M 1.734375 0 "/></g></g></g><g fill="#845333" fill-opacity="1"><g transform="translate(264.64005, 85.304452)"><g><path d="M 1.734375 0 L 1.734375 -30.015625 L 9.8125 -30.015625 L 9.8125 0 Z M 1.734375 0 "/></g></g></g><g fill="#845333" fill-opacity="1"><g transform="translate(276.182138, 85.304452)"><g><path d="M 1.734375 -11.546875 L 1.734375 -30.015625 L 9.8125 -30.015625 L 9.8125 -11.546875 Z M 1.734375 -11.546875 "/></g></g></g><g fill="#845333" fill-opacity="1"><g transform="translate(287.724226, 85.304452)"><g><path d="M 16.734375 0.578125 C 13.691406 0.578125 11 -0.09375 8.65625 -1.4375 C 6.3125 -2.789062 4.472656 -4.640625 3.140625 -6.984375 C 1.816406 -9.328125 1.15625 -12 1.15625 -15 C 1.15625 -18.039062 1.789062 -20.722656 3.0625 -23.046875 C 4.332031 -25.378906 6.101562 -27.21875 8.375 -28.5625 C 10.644531 -29.914062 13.238281 -30.59375 16.15625 -30.59375 C 19.238281 -30.59375 21.941406 -29.9375 24.265625 -28.625 C 26.597656 -27.320312 28.425781 -25.492188 29.75 -23.140625 C 31.082031 -20.796875 31.75 -18.082031 31.75 -15 C 31.75 -12 31.113281 -9.328125 29.84375 -6.984375 C 28.570312 -4.640625 26.8125 -2.789062 24.5625 -1.4375 C 22.3125 -0.09375 19.703125 0.578125 16.734375 0.578125 Z M 9.234375 -15 C 9.234375 -12.3125 9.867188 -10.195312 11.140625 -8.65625 C 12.410156 -7.113281 14.273438 -6.34375 16.734375 -6.34375 C 19.160156 -6.34375 20.921875 -7.101562 22.015625 -8.625 C 23.117188 -10.144531 23.671875 -12.269531 23.671875 -15 C 23.671875 -17.65625 23.023438 -19.765625 21.734375 -21.328125 C 20.441406 -22.890625 18.582031 -23.671875 16.15625 -23.671875 C 13.738281 -23.671875 11.976562 -22.898438 10.875 -21.359375 C 9.78125 -19.816406 9.234375 -17.695312 9.234375 -15 Z M 9.234375 -15 "/></g></g></g></svg>