<svg xmlns="http://www.w3.org/2000/svg" xmlns:xlink="http://www.w3.org/1999/xlink" width="444" zoomAndPan="magnify" viewBox="0 0 333 129.750003" height="173" preserveAspectRatio="xMidYMid meet" version="1.0"><defs><g/><clipPath id="439103868e"><path d="M 68 18.363281 L 102 18.363281 L 102 44 L 68 44 Z M 68 18.363281 " clip-rule="nonzero"/></clipPath></defs><g fill="#3c6d16" fill-opacity="1"><g transform="translate(20.759543, 86.232421)"><g><path d="M 25.171875 -19.25 L 25.171875 0 L 35.53125 0 L 35.53125 -19.25 C 35.53125 -27.828125 30.0625 -38.5 14.8125 -38.5 L 2.21875 -38.5 L 2.21875 -29.609375 L 12.578125 -29.609375 C 22.875 -29.609375 25.171875 -23.609375 25.171875 -19.25 Z M 2.21875 0 L 12.578125 0 L 12.578125 -23.6875 L 2.21875 -23.6875 Z M 2.21875 0 "/></g></g></g><g fill="#3c6d16" fill-opacity="1"><g transform="translate(58.515945, 86.232421)"><g><path d="M 2.21875 0 L 12.578125 0 L 12.578125 -29.609375 L 17.765625 -29.609375 C 23.984375 -29.609375 28.125 -25.765625 28.125 -19.25 C 28.125 -13.40625 23.984375 -8.890625 16.28125 -8.890625 L 16.28125 0 L 17.765625 0 C 31.90625 0 38.5 -9.328125 38.5 -19.25 C 38.5 -28.5 32.5 -37.6875 19.984375 -38.5 C 17.46875 -36.125 14.953125 -33.6875 12.578125 -31.09375 L 12.578125 -38.5 L 2.21875 -38.5 Z M 2.21875 0 "/></g></g></g><g fill="#3c6d16" fill-opacity="1"><g transform="translate(98.493307, 86.232421)"><g><path d="M 21.46875 0.734375 C 32.796875 0.734375 40.71875 -7.703125 40.71875 -19.25 C 40.71875 -31.09375 32.5 -39.234375 20.734375 -39.234375 C 9.40625 -39.234375 1.484375 -30.875 1.484375 -19.25 C 1.484375 -7.625 9.765625 0.734375 21.46875 0.734375 Z M 11.84375 -19.25 C 11.84375 -26.140625 14.515625 -30.359375 20.734375 -30.359375 C 26.953125 -30.359375 30.359375 -26.0625 30.359375 -19.25 C 30.359375 -12.21875 27.6875 -8.140625 21.46875 -8.140625 C 15.171875 -8.140625 11.84375 -12.296875 11.84375 -19.25 Z M 11.84375 -19.25 "/></g></g></g><g fill="#3c6d16" fill-opacity="1"><g transform="translate(140.691641, 86.232421)"><g><path d="M 2.21875 -14.8125 L 12.578125 -14.8125 L 12.578125 -38.5 L 2.21875 -38.5 Z M 2.21875 -14.8125 "/></g></g></g><g fill="#3c6d16" fill-opacity="1"><g transform="translate(155.498069, 86.232421)"><g><path d="M 21.46875 0.734375 C 32.796875 0.734375 40.71875 -7.703125 40.71875 -19.25 C 40.71875 -31.09375 32.5 -39.234375 20.734375 -39.234375 C 9.40625 -39.234375 1.484375 -30.875 1.484375 -19.25 C 1.484375 -7.625 9.765625 0.734375 21.46875 0.734375 Z M 11.84375 -19.25 C 11.84375 -26.140625 14.515625 -30.359375 20.734375 -30.359375 C 26.953125 -30.359375 30.359375 -26.0625 30.359375 -19.25 C 30.359375 -12.21875 27.6875 -8.140625 21.46875 -8.140625 C 15.171875 -8.140625 11.84375 -12.296875 11.84375 -19.25 Z M 11.84375 -19.25 "/></g></g></g><g clip-path="url(#439103868e)"><path fill="#afdc34" d="M 68.03125 42.484375 C 68.03125 42.484375 75.714844 30.726562 88.515625 29.226562 C 88.515625 29.226562 76.597656 35.085938 71.566406 43.152344 C 97.8125 46.875 101.472656 18.390625 101.472656 18.390625 C 70.1875 20.214844 68.03125 42.484375 68.03125 42.484375 " fill-opacity="1" fill-rule="nonzero"/></g><g fill="#845333" fill-opacity="1"><g transform="translate(206.050342, 85.304459)"><g><path d="M 16.734375 0.578125 C 25.5625 0.578125 31.75 -6 31.75 -15 C 31.75 -24.234375 25.34375 -30.59375 16.15625 -30.59375 C 7.328125 -30.59375 1.15625 -24.0625 1.15625 -15 C 1.15625 -5.9375 7.625 0.578125 16.734375 0.578125 Z M 9.234375 -15 C 9.234375 -20.375 11.3125 -23.671875 16.15625 -23.671875 C 21.015625 -23.671875 23.671875 -20.3125 23.671875 -15 C 23.671875 -9.53125 21.59375 -6.34375 16.734375 -6.34375 C 11.828125 -6.34375 9.234375 -9.578125 9.234375 -15 Z M 9.234375 -15 "/></g></g></g><g fill="#845333" fill-opacity="1"><g transform="translate(238.945291, 85.304459)"><g><path d="M 1.734375 0 L 9.8125 0 L 9.8125 -30.015625 L 1.734375 -30.015625 Z M 1.734375 0 "/></g></g></g><g fill="#845333" fill-opacity="1"><g transform="translate(250.48738, 85.304459)"><g><path d="M 1.734375 0 L 8.078125 0 C 18.875 0 25.96875 -5.484375 25.96875 -15 C 25.96875 -23.78125 18.875 -30.59375 9.8125 -30.59375 C 6.703125 -30.59375 4.5 -29.78125 1.734375 -28.28125 L 1.734375 -19.625 C 3.984375 -22.796875 6.296875 -23.78125 9.234375 -23.78125 C 14.546875 -23.78125 18.015625 -19.796875 18.015625 -15 C 18.015625 -9.921875 14.65625 -6.921875 8.65625 -6.921875 L 1.734375 -6.921875 Z M 1.734375 -11.546875 L 10.96875 -11.546875 L 10.96875 -18.46875 L 1.734375 -18.46875 Z M 1.734375 -11.546875 "/></g></g></g><g fill="#845333" fill-opacity="1"><g transform="translate(277.611289, 85.304459)"><g><path d="M 1.734375 -11.546875 L 9.8125 -11.546875 L 9.8125 -30.015625 L 1.734375 -30.015625 Z M 1.734375 -11.546875 "/></g></g></g><g fill="#845333" fill-opacity="1"><g transform="translate(289.153378, 85.304459)"><g><path d="M 1.734375 0 L 9.8125 0 L 9.8125 -6.34375 C 13.328125 -1.609375 16.859375 0 23.671875 0 L 25.390625 0 L 25.390625 -6.921875 L 24.8125 -6.921875 C 20.140625 -6.921875 16.15625 -9.640625 16.15625 -15 C 16.15625 -19.796875 19.625 -22.515625 24.8125 -22.515625 L 25.390625 -22.515625 L 25.390625 -30.015625 L 23.671875 -30.015625 C 17.078125 -30.015625 13.453125 -28.578125 9.8125 -23.09375 L 9.8125 -30.015625 L 1.734375 -30.015625 Z M 1.734375 0 "/></g></g></g></svg>