<svg xmlns="http://www.w3.org/2000/svg" xmlns:xlink="http://www.w3.org/1999/xlink" width="757" zoomAndPan="magnify" viewBox="0 0 567.75 129.750003" height="173" preserveAspectRatio="xMidYMid meet" version="1.0"><defs><g/><clipPath id="4678c558a3"><path d="M 22 19.113281 L 56 19.113281 L 56 45 L 22 45 Z M 22 19.113281 " clip-rule="nonzero"/></clipPath></defs><g fill="#3c6d16" fill-opacity="1"><g transform="translate(20.837359, 86.232421)"><g><path d="M 2.21875 0 L 12.578125 0 L 12.578125 -38.5 L 2.21875 -38.5 Z M 2.21875 0 "/></g></g></g><g fill="#3c6d16" fill-opacity="1"><g transform="translate(35.643787, 86.232421)"><g><path d="M 1.484375 0 L 8.890625 0 C 18.515625 0 20.734375 -4.890625 20.734375 -14.8125 L 20.734375 -23.6875 L 9.625 -23.6875 L 9.625 -14.0625 C 9.625 -10.734375 9.328125 -8.890625 6.65625 -8.890625 L 1.484375 -8.890625 Z M 9.625 -28.875 L 20.734375 -28.875 L 20.734375 -38.5 L 9.625 -38.5 Z M 9.625 -28.875 "/></g></g></g><g fill="#3c6d16" fill-opacity="1"><g transform="translate(58.593761, 86.232421)"><g><path d="M 1.484375 -29.609375 L 28.5 -29.609375 L 32.578125 -38.5 L 11.84375 -38.5 L 11.84375 -48.125 L 1.484375 -48.125 Z M 3.703125 0 L 15.546875 0 L 25.90625 -23.6875 L 14.8125 -23.6875 Z M 3.703125 0 "/></g></g></g><g fill="#3c6d16" fill-opacity="1"><g transform="translate(91.760169, 86.232421)"><g><path d="M 23.6875 1.484375 C 32.640625 1.484375 45.90625 -3.625 45.90625 -22.203125 L 45.90625 -38.5 L 35.53125 -38.5 L 35.53125 -20.734375 C 35.53125 -13.765625 32.421875 -7.40625 24.4375 -7.40625 C 16.8125 -7.40625 12.578125 -13.765625 12.578125 -20.734375 L 12.578125 -38.5 L 2.21875 -38.5 L 2.21875 -22.203125 C 2.21875 -3.625 17.46875 1.484375 23.6875 1.484375 Z M 18.515625 -16.28125 L 28.875 -16.28125 L 28.875 -39.984375 L 18.515625 -39.984375 Z M 18.515625 -16.28125 "/></g></g></g><g clip-path="url(#4678c558a3)"><path fill="#afdc34" d="M 22.339844 43.230469 C 22.339844 43.230469 30.023438 31.472656 42.824219 29.972656 C 42.824219 29.972656 30.90625 35.832031 25.875 43.898438 C 52.125 47.625 55.785156 19.140625 55.785156 19.140625 C 24.5 20.964844 22.339844 43.230469 22.339844 43.230469 " fill-opacity="1" fill-rule="nonzero"/></g><g fill="#845333" fill-opacity="1"><g transform="translate(149.075709, 86.053017)"><g><path d="M 1.15625 -23.09375 L 22.21875 -23.09375 L 25.390625 -30.015625 L 9.234375 -30.015625 L 9.234375 -37.515625 L 1.15625 -37.515625 Z M 2.890625 0 L 12.125 0 L 20.203125 -18.46875 L 11.546875 -18.46875 Z M 2.890625 0 "/></g></g></g><g fill="#845333" fill-opacity="1"><g transform="translate(174.929985, 86.053017)"><g><path d="M 1.734375 0 L 9.8125 0 L 9.8125 -30.015625 L 1.734375 -30.015625 Z M 1.734375 0 "/></g></g></g><g fill="#845333" fill-opacity="1"><g transform="translate(186.472073, 86.053017)"><g><path d="M 14.03125 -19.046875 L 14.03125 -11.546875 L 22.109375 -11.546875 L 22.109375 -19.625 C 22.109375 -27.0625 19.390625 -30.015625 12.875 -30.015625 L 2.484375 -30.015625 L 2.484375 -23.09375 L 10.5625 -23.09375 C 13.453125 -23.09375 14.03125 -22.15625 14.03125 -19.046875 Z M 1.328125 0 L 25 0 L 25 -6.921875 L 1.328125 -6.921875 Z M 1.328125 0 "/></g></g></g><g fill="#845333" fill-opacity="1"><g transform="translate(212.730318, 86.053017)"><g><path d="M 1.734375 -11.546875 L 9.8125 -11.546875 L 9.8125 -30.015625 L 1.734375 -30.015625 Z M 1.734375 -11.546875 "/></g></g></g><g fill="#845333" fill-opacity="1"><g transform="translate(224.272407, 86.053017)"><g><path d="M 23.09375 -15 L 23.09375 0 L 31.171875 0 L 31.171875 -15 C 31.171875 -21.875 26.546875 -30.015625 15.578125 -30.015625 L 5.765625 -30.015625 L 5.765625 -23.09375 L 13.859375 -23.09375 C 20.140625 -23.09375 23.09375 -20.265625 23.09375 -15 Z M 1.15625 0 L 4.625 0 C 12.125 0 13.859375 -3.8125 13.859375 -11.546875 L 13.859375 -18.46875 L 5.765625 -18.46875 L 5.765625 -10.96875 C 5.765625 -8.375 4.96875 -6.921875 2.890625 -6.921875 L 1.15625 -6.921875 Z M 1.15625 0 "/></g></g></g><g fill="#845333" fill-opacity="1"><g transform="translate(257.167356, 86.053017)"><g><path d="M 19.625 -15 L 19.625 0 L 27.703125 0 L 27.703125 -15 C 27.703125 -21.703125 23.4375 -30.015625 11.546875 -30.015625 L 1.734375 -30.015625 L 1.734375 -23.09375 L 9.8125 -23.09375 C 17.828125 -23.09375 19.625 -18.40625 19.625 -15 Z M 1.734375 0 L 9.8125 0 L 9.8125 -18.46875 L 1.734375 -18.46875 Z M 1.734375 0 "/></g></g></g><g fill="#845333" fill-opacity="1"><g transform="translate(286.599679, 86.053017)"><g/></g></g><g fill="#845333" fill-opacity="1"><g transform="translate(297.85321, 86.053017)"><g><path d="M 1.734375 -11.546875 L 9.8125 -11.546875 L 9.8125 -30.015625 L 1.734375 -30.015625 Z M 1.734375 -11.546875 "/></g></g></g><g fill="#845333" fill-opacity="1"><g transform="translate(309.395298, 86.053017)"><g><path d="M 14.03125 -19.046875 L 14.03125 -11.546875 L 22.109375 -11.546875 L 22.109375 -19.625 C 22.109375 -27.0625 19.390625 -30.015625 12.875 -30.015625 L 2.484375 -30.015625 L 2.484375 -23.09375 L 10.5625 -23.09375 C 13.453125 -23.09375 14.03125 -22.15625 14.03125 -19.046875 Z M 1.328125 0 L 25 0 L 25 -6.921875 L 1.328125 -6.921875 Z M 1.328125 0 "/></g></g></g><g fill="#845333" fill-opacity="1"><g transform="translate(335.653533, 86.053017)"><g><path d="M 18.46875 1.15625 C 25.453125 1.15625 35.78125 -2.828125 35.78125 -17.3125 L 35.78125 -30.015625 L 27.703125 -30.015625 L 27.703125 -16.15625 C 27.703125 -10.734375 25.28125 -5.765625 19.046875 -5.765625 C 13.109375 -5.765625 9.8125 -10.734375 9.8125 -16.15625 L 9.8125 -30.015625 L 1.734375 -30.015625 L 1.734375 -17.3125 C 1.734375 -2.828125 13.625 1.15625 18.46875 1.15625 Z M 14.4375 -12.703125 L 22.515625 -12.703125 L 22.515625 -31.171875 L 14.4375 -31.171875 Z M 14.4375 -12.703125 "/></g></g></g><g fill="#845333" fill-opacity="1"><g transform="translate(373.165329, 86.053017)"><g><path d="M 1.15625 0 L 17.890625 0 C 24.640625 0 27.703125 -2.765625 27.703125 -9.8125 L 27.703125 -30.015625 L 19.625 -30.015625 L 19.625 -10.96875 C 19.625 -7.84375 18.984375 -6.921875 16.15625 -6.921875 L 12.703125 -6.921875 L 12.703125 -18.46875 L 4.625 -18.46875 L 4.625 -6.921875 L 1.15625 -6.921875 Z M 4.625 -22.796875 L 12.703125 -22.796875 L 12.703125 -30.015625 L 4.625 -30.015625 Z M 4.625 -22.796875 "/></g></g></g><g fill="#845333" fill-opacity="1"><g transform="translate(402.597663, 86.053017)"><g><path d="M 1.734375 0 L 9.8125 0 L 9.8125 -30.015625 L 1.734375 -30.015625 Z M 1.734375 0 "/></g></g></g><g fill="#845333" fill-opacity="1"><g transform="translate(414.139741, 86.053017)"><g/></g></g><g fill="#845333" fill-opacity="1"><g transform="translate(425.393272, 86.053017)"><g><path d="M 1.734375 0 L 27.125 0 L 27.125 -20.203125 C 27.125 -27.125 24.1875 -30.015625 16.734375 -30.015625 L 1.734375 -30.015625 L 1.734375 -23.09375 L 15.578125 -23.09375 C 18.015625 -23.09375 19.046875 -21.9375 19.046875 -19.625 L 19.046875 -6.921875 L 9.8125 -6.921875 L 9.8125 -18.46875 L 1.734375 -18.46875 Z M 1.734375 0 "/></g></g></g><g fill="#845333" fill-opacity="1"><g transform="translate(454.248489, 86.053017)"><g><path d="M 1.734375 -11.546875 L 9.8125 -11.546875 L 9.8125 -30.015625 L 1.734375 -30.015625 Z M 1.734375 -11.546875 "/></g></g></g><g fill="#845333" fill-opacity="1"><g transform="translate(465.790568, 86.053017)"><g><path d="M 1.15625 -23.09375 L 22.21875 -23.09375 L 25.390625 -30.015625 L 9.234375 -30.015625 L 9.234375 -37.515625 L 1.15625 -37.515625 Z M 2.890625 0 L 12.125 0 L 20.203125 -18.46875 L 11.546875 -18.46875 Z M 2.890625 0 "/></g></g></g><g fill="#845333" fill-opacity="1"><g transform="translate(491.644834, 86.053017)"><g><path d="M 1.15625 0 L 17.890625 0 C 24.640625 0 27.703125 -2.765625 27.703125 -9.8125 L 27.703125 -30.015625 L 19.625 -30.015625 L 19.625 -10.96875 C 19.625 -7.84375 18.984375 -6.921875 16.15625 -6.921875 L 12.703125 -6.921875 L 12.703125 -18.46875 L 4.625 -18.46875 L 4.625 -6.921875 L 1.15625 -6.921875 Z M 4.625 -22.796875 L 12.703125 -22.796875 L 12.703125 -30.015625 L 4.625 -30.015625 Z M 4.625 -22.796875 "/></g></g></g><g fill="#845333" fill-opacity="1"><g transform="translate(521.077167, 86.053017)"><g><path d="M 19.625 -15 L 19.625 0 L 27.703125 0 L 27.703125 -15 C 27.703125 -21.703125 23.4375 -30.015625 11.546875 -30.015625 L 1.734375 -30.015625 L 1.734375 -23.09375 L 9.8125 -23.09375 C 17.828125 -23.09375 19.625 -18.40625 19.625 -15 Z M 1.734375 0 L 9.8125 0 L 9.8125 -18.46875 L 1.734375 -18.46875 Z M 1.734375 0 "/></g></g></g></svg>