<svg xmlns="http://www.w3.org/2000/svg" xmlns:xlink="http://www.w3.org/1999/xlink" width="376" zoomAndPan="magnify" viewBox="0 0 282 129.750003" height="173" preserveAspectRatio="xMidYMid meet" version="1.0"><defs><g/><clipPath id="e5d46a01a9"><path d="M 22 19.113281 L 56 19.113281 L 56 45 L 22 45 Z M 22 19.113281 " clip-rule="nonzero"/></clipPath></defs><g fill="#3c6d16" fill-opacity="1"><g transform="translate(20.68736, 86.232415)"><g><path d="M 2.21875 0 L 2.21875 -38.5 L 12.578125 -38.5 L 12.578125 0 Z M 2.21875 0 "/></g></g></g><g fill="#3c6d16" fill-opacity="1"><g transform="translate(35.493787, 86.232415)"><g><path d="M 1.484375 0 L 1.484375 -8.890625 L 6.65625 -8.890625 C 7.988281 -8.890625 8.816406 -9.332031 9.140625 -10.21875 C 9.460938 -11.101562 9.625 -12.382812 9.625 -14.0625 L 9.625 -23.6875 L 20.734375 -23.6875 L 20.734375 -14.8125 C 20.734375 -11.5 20.410156 -8.742188 19.765625 -6.546875 C 19.117188 -4.347656 17.945312 -2.707031 16.25 -1.625 C 14.550781 -0.539062 12.097656 0 8.890625 0 Z M 9.625 -28.875 L 9.625 -38.5 L 20.734375 -38.5 L 20.734375 -28.875 Z M 9.625 -28.875 "/></g></g></g><g fill="#3c6d16" fill-opacity="1"><g transform="translate(58.44376, 86.232415)"><g><path d="M 1.484375 -29.609375 L 1.484375 -48.125 L 11.84375 -48.125 L 11.84375 -38.5 L 32.578125 -38.5 L 28.5 -29.609375 Z M 3.703125 0 L 14.8125 -23.6875 L 25.90625 -23.6875 L 15.546875 0 Z M 3.703125 0 "/></g></g></g><g fill="#3c6d16" fill-opacity="1"><g transform="translate(91.610166, 86.232415)"><g><path d="M 23.6875 1.484375 C 22.457031 1.484375 20.925781 1.25 19.09375 0.78125 C 17.269531 0.3125 15.382812 -0.453125 13.4375 -1.515625 C 11.488281 -2.578125 9.660156 -4.019531 7.953125 -5.84375 C 6.253906 -7.675781 4.875 -9.9375 3.8125 -12.625 C 2.75 -15.3125 2.21875 -18.503906 2.21875 -22.203125 L 2.21875 -38.5 L 12.578125 -38.5 L 12.578125 -20.734375 C 12.578125 -18.410156 13.035156 -16.234375 13.953125 -14.203125 C 14.867188 -12.179688 16.210938 -10.539062 17.984375 -9.28125 C 19.765625 -8.03125 21.914062 -7.40625 24.4375 -7.40625 C 27.09375 -7.40625 29.234375 -8.03125 30.859375 -9.28125 C 32.492188 -10.539062 33.679688 -12.179688 34.421875 -14.203125 C 35.160156 -16.234375 35.53125 -18.410156 35.53125 -20.734375 L 35.53125 -38.5 L 45.90625 -38.5 L 45.90625 -22.203125 C 45.90625 -17.566406 45.1875 -13.71875 43.75 -10.65625 C 42.320312 -7.601562 40.457031 -5.1875 38.15625 -3.40625 C 35.863281 -1.625 33.429688 -0.363281 30.859375 0.375 C 28.296875 1.113281 25.90625 1.484375 23.6875 1.484375 Z M 18.515625 -16.28125 L 18.515625 -39.984375 L 28.875 -39.984375 L 28.875 -16.28125 Z M 18.515625 -16.28125 "/></g></g></g><g clip-path="url(#e5d46a01a9)"><path fill="#afdc34" d="M 22.191406 43.230469 C 22.191406 43.230469 29.875 31.472656 42.675781 29.972656 C 42.675781 29.972656 30.757812 35.832031 25.726562 43.898438 C 51.972656 47.625 55.632812 19.140625 55.632812 19.140625 C 24.347656 20.964844 22.191406 43.230469 22.191406 43.230469 " fill-opacity="1" fill-rule="nonzero"/></g><g fill="#845333" fill-opacity="1"><g transform="translate(147.915091, 86.05301)"><g><path d="M 18.46875 1.15625 C 17.507812 1.15625 16.316406 0.972656 14.890625 0.609375 C 13.460938 0.242188 11.988281 -0.347656 10.46875 -1.171875 C 8.957031 -2.003906 7.535156 -3.132812 6.203125 -4.5625 C 4.878906 -5.988281 3.800781 -7.75 2.96875 -9.84375 C 2.144531 -11.9375 1.734375 -14.425781 1.734375 -17.3125 L 1.734375 -30.015625 L 9.8125 -30.015625 L 9.8125 -16.15625 C 9.8125 -14.351562 10.164062 -12.660156 10.875 -11.078125 C 11.59375 -9.503906 12.644531 -8.222656 14.03125 -7.234375 C 15.414062 -6.253906 17.085938 -5.765625 19.046875 -5.765625 C 21.117188 -5.765625 22.789062 -6.253906 24.0625 -7.234375 C 25.332031 -8.222656 26.253906 -9.503906 26.828125 -11.078125 C 27.410156 -12.660156 27.703125 -14.351562 27.703125 -16.15625 L 27.703125 -30.015625 L 35.78125 -30.015625 L 35.78125 -17.3125 C 35.78125 -13.695312 35.222656 -10.695312 34.109375 -8.3125 C 32.992188 -5.925781 31.539062 -4.039062 29.75 -2.65625 C 27.957031 -1.269531 26.0625 -0.289062 24.0625 0.28125 C 22.0625 0.863281 20.195312 1.15625 18.46875 1.15625 Z M 14.4375 -12.703125 L 14.4375 -31.171875 L 22.515625 -31.171875 L 22.515625 -12.703125 Z M 14.4375 -12.703125 "/></g></g></g><g fill="#845333" fill-opacity="1"><g transform="translate(185.426875, 86.05301)"><g><path d="M 14.03125 -19.046875 C 14.03125 -20.617188 13.816406 -21.6875 13.390625 -22.25 C 12.960938 -22.8125 12.019531 -23.09375 10.5625 -23.09375 L 2.484375 -23.09375 L 2.484375 -30.015625 L 12.875 -30.015625 C 16.144531 -30.015625 18.5 -29.210938 19.9375 -27.609375 C 21.382812 -26.015625 22.109375 -23.351562 22.109375 -19.625 L 22.109375 -11.546875 L 14.03125 -11.546875 Z M 1.328125 0 L 1.328125 -6.921875 L 25 -6.921875 L 25 0 Z M 1.328125 0 "/></g></g></g><g fill="#845333" fill-opacity="1"><g transform="translate(211.685118, 86.05301)"><g><path d="M 13.859375 -6.921875 C 13.859375 -8.503906 13.460938 -9.570312 12.671875 -10.125 C 11.878906 -10.6875 10.539062 -10.96875 8.65625 -10.96875 L 1.734375 -10.96875 L 1.734375 -18.46875 L 12.125 -18.46875 C 13.238281 -18.46875 13.992188 -18.660156 14.390625 -19.046875 C 14.796875 -19.429688 15 -20.007812 15 -20.78125 C 15 -22.320312 14.039062 -23.09375 12.125 -23.09375 L 1.734375 -23.09375 L 1.734375 -30.015625 L 12.125 -30.015625 C 15.394531 -30.015625 18.039062 -29.40625 20.0625 -28.1875 C 22.082031 -26.976562 23.09375 -24.894531 23.09375 -21.9375 C 23.09375 -17.851562 20.972656 -15.351562 16.734375 -14.4375 C 18.503906 -14.050781 19.8125 -13.382812 20.65625 -12.4375 C 21.507812 -11.5 21.9375 -10.046875 21.9375 -8.078125 L 21.9375 0 L 13.859375 0 Z M 13.859375 -6.921875 "/></g></g></g><g fill="#845333" fill-opacity="1"><g transform="translate(236.212054, 86.05301)"><g><path d="M 19.625 -15 C 19.625 -15.851562 19.488281 -16.75 19.21875 -17.6875 C 18.945312 -18.632812 18.457031 -19.507812 17.75 -20.3125 C 17.039062 -21.125 16.039062 -21.789062 14.75 -22.3125 C 13.457031 -22.832031 11.8125 -23.09375 9.8125 -23.09375 L 1.734375 -23.09375 L 1.734375 -30.015625 L 11.546875 -30.015625 C 14.503906 -30.015625 17.007812 -29.550781 19.0625 -28.625 C 21.125 -27.707031 22.789062 -26.503906 24.0625 -25.015625 C 25.332031 -23.535156 26.253906 -21.921875 26.828125 -20.171875 C 27.410156 -18.421875 27.703125 -16.695312 27.703125 -15 L 27.703125 0 L 19.625 0 Z M 1.734375 0 L 1.734375 -18.46875 L 9.8125 -18.46875 L 9.8125 0 Z M 1.734375 0 "/></g></g></g></svg>