<svg xmlns="http://www.w3.org/2000/svg" xmlns:xlink="http://www.w3.org/1999/xlink" width="502" zoomAndPan="magnify" viewBox="0 0 376.5 129.750003" height="173" preserveAspectRatio="xMidYMid meet" version="1.0"><defs><g/><clipPath id="a53baee93c"><path d="M 102 18.363281 L 136 18.363281 L 136 44 L 102 44 Z M 102 18.363281 " clip-rule="nonzero"/></clipPath></defs><g fill="#e7191f" fill-opacity="1"><g transform="translate(20.540279, 86.232421)"><g><path d="M 2.21875 0 L 12.578125 0 L 12.578125 -29.609375 C 22.875 -29.609375 25.171875 -23.609375 25.171875 -19.25 L 25.171875 0 L 35.53125 0 L 35.53125 -19.25 C 35.53125 -27.828125 30.0625 -38.5 14.8125 -38.5 L 2.21875 -38.5 Z M 2.21875 0 "/></g></g></g><g fill="#e7191f" fill-opacity="1"><g transform="translate(58.296681, 86.232421)"><g><path d="M 2.21875 0 L 12.578125 0 L 12.578125 -38.5 L 2.21875 -38.5 Z M 2.21875 0 "/></g></g></g><g fill="#e7191f" fill-opacity="1"><g transform="translate(73.103109, 86.232421)"><g><path d="M 1.484375 -29.609375 L 28.5 -29.609375 L 32.578125 -38.5 L 11.84375 -38.5 L 11.84375 -48.125 L 1.484375 -48.125 Z M 3.703125 0 L 15.546875 0 L 25.90625 -23.6875 L 14.8125 -23.6875 Z M 3.703125 0 "/></g></g></g><g fill="#e7191f" fill-opacity="1"><g transform="translate(106.269516, 86.232421)"><g><path d="M 23.6875 1.484375 C 32.640625 1.484375 45.90625 -3.625 45.90625 -22.203125 L 45.90625 -38.5 L 35.53125 -38.5 L 35.53125 -20.734375 C 35.53125 -13.765625 32.421875 -7.40625 24.4375 -7.40625 C 16.8125 -7.40625 12.578125 -13.765625 12.578125 -20.734375 L 12.578125 -38.5 L 2.21875 -38.5 L 2.21875 -22.203125 C 2.21875 -3.625 17.46875 1.484375 23.6875 1.484375 Z M 18.515625 -16.28125 L 28.875 -16.28125 L 28.875 -39.984375 L 18.515625 -39.984375 Z M 18.515625 -16.28125 "/></g></g></g><g fill="#e7191f" fill-opacity="1"><g transform="translate(154.390415, 86.232421)"><g><path d="M 2.21875 0 L 12.578125 0 L 12.578125 -29.609375 L 17.765625 -29.609375 C 23.984375 -29.609375 28.125 -25.765625 28.125 -19.25 C 28.125 -13.40625 23.984375 -8.890625 16.28125 -8.890625 L 16.28125 0 L 17.765625 0 C 31.90625 0 38.5 -9.328125 38.5 -19.25 C 38.5 -28.5 32.5 -37.6875 19.984375 -38.5 C 17.46875 -36.125 14.953125 -33.6875 12.578125 -31.09375 L 12.578125 -38.5 L 2.21875 -38.5 Z M 2.21875 0 "/></g></g></g><g fill="#e7191f" fill-opacity="1"><g transform="translate(194.367778, 86.232421)"><g><path d="M 1.484375 -29.609375 L 28.5 -29.609375 L 32.578125 -38.5 L 11.84375 -38.5 L 11.84375 -48.125 L 1.484375 -48.125 Z M 3.703125 0 L 15.546875 0 L 25.90625 -23.6875 L 14.8125 -23.6875 Z M 3.703125 0 "/></g></g></g><g clip-path="url(#a53baee93c)"><path fill="#ffa073" d="M 102.34375 42.484375 C 102.34375 42.484375 110.027344 30.726562 122.828125 29.226562 C 122.828125 29.226562 110.910156 35.085938 105.878906 43.152344 C 132.125 46.875 135.785156 18.390625 135.785156 18.390625 C 104.5 20.214844 102.34375 42.484375 102.34375 42.484375 " fill-opacity="1" fill-rule="nonzero"/></g><g fill="#845333" fill-opacity="1"><g transform="translate(232.90971, 85.304459)"><g><path d="M 23.09375 -15 L 23.09375 0 L 31.171875 0 L 31.171875 -15 C 31.171875 -21.875 26.546875 -30.015625 15.578125 -30.015625 L 5.765625 -30.015625 L 5.765625 -23.09375 L 13.859375 -23.09375 C 20.140625 -23.09375 23.09375 -20.265625 23.09375 -15 Z M 1.15625 0 L 4.625 0 C 12.125 0 13.859375 -3.8125 13.859375 -11.546875 L 13.859375 -18.46875 L 5.765625 -18.46875 L 5.765625 -10.96875 C 5.765625 -8.375 4.96875 -6.921875 2.890625 -6.921875 L 1.15625 -6.921875 Z M 1.15625 0 "/></g></g></g><g fill="#845333" fill-opacity="1"><g transform="translate(265.804659, 85.304459)"><g><path d="M 14.03125 -19.046875 L 14.03125 -11.546875 L 22.109375 -11.546875 L 22.109375 -19.625 C 22.109375 -27.0625 19.390625 -30.015625 12.875 -30.015625 L 2.484375 -30.015625 L 2.484375 -23.09375 L 10.5625 -23.09375 C 13.453125 -23.09375 14.03125 -22.15625 14.03125 -19.046875 Z M 1.328125 0 L 25 0 L 25 -6.921875 L 1.328125 -6.921875 Z M 1.328125 0 "/></g></g></g><g fill="#845333" fill-opacity="1"><g transform="translate(292.062903, 85.304459)"><g><path d="M 1.734375 0 L 9.8125 0 L 9.8125 -30.015625 L 1.734375 -30.015625 Z M 1.734375 0 "/></g></g></g><g fill="#845333" fill-opacity="1"><g transform="translate(303.604992, 85.304459)"><g><path d="M 23.09375 -15 L 23.09375 0 L 31.171875 0 L 31.171875 -15 C 31.171875 -21.875 26.546875 -30.015625 15.578125 -30.015625 L 5.765625 -30.015625 L 5.765625 -23.09375 L 13.859375 -23.09375 C 20.140625 -23.09375 23.09375 -20.265625 23.09375 -15 Z M 1.15625 0 L 4.625 0 C 12.125 0 13.859375 -3.8125 13.859375 -11.546875 L 13.859375 -18.46875 L 5.765625 -18.46875 L 5.765625 -10.96875 C 5.765625 -8.375 4.96875 -6.921875 2.890625 -6.921875 L 1.15625 -6.921875 Z M 1.15625 0 "/></g></g></g><g fill="#845333" fill-opacity="1"><g transform="translate(336.499941, 85.304459)"><g><path d="M 1.734375 0 L 5.765625 0 C 16.6875 0 21.9375 -7.15625 21.9375 -15 C 21.9375 -21.53125 18.0625 -30.015625 5.765625 -30.015625 L 1.734375 -30.015625 L 1.734375 -23.09375 L 5.1875 -23.09375 C 11.078125 -23.09375 13.859375 -19.796875 13.859375 -15 C 13.859375 -11.546875 11.078125 -6.921875 5.1875 -6.921875 L 1.734375 -6.921875 Z M 1.734375 0 "/></g></g></g></svg>