<svg xmlns="http://www.w3.org/2000/svg" xmlns:xlink="http://www.w3.org/1999/xlink" width="434" zoomAndPan="magnify" viewBox="0 0 325.5 129.750003" height="173" preserveAspectRatio="xMidYMid meet" version="1.0"><defs><g/><clipPath id="522d242a57"><path d="M 21 19.113281 L 56 19.113281 L 56 45 L 21 45 Z M 21 19.113281 " clip-rule="nonzero"/></clipPath></defs><g fill="#3c6d16" fill-opacity="1"><g transform="translate(20.47967, 86.232421)"><g><path d="M 2.21875 0 L 12.578125 0 L 12.578125 -38.5 L 2.21875 -38.5 Z M 2.21875 0 "/></g></g></g><g fill="#3c6d16" fill-opacity="1"><g transform="translate(35.286097, 86.232421)"><g><path d="M 1.484375 0 L 8.890625 0 C 18.515625 0 20.734375 -4.890625 20.734375 -14.8125 L 20.734375 -23.6875 L 9.625 -23.6875 L 9.625 -14.0625 C 9.625 -10.734375 9.328125 -8.890625 6.65625 -8.890625 L 1.484375 -8.890625 Z M 9.625 -28.875 L 20.734375 -28.875 L 20.734375 -38.5 L 9.625 -38.5 Z M 9.625 -28.875 "/></g></g></g><g fill="#3c6d16" fill-opacity="1"><g transform="translate(58.236072, 86.232421)"><g><path d="M 1.484375 -29.609375 L 28.5 -29.609375 L 32.578125 -38.5 L 11.84375 -38.5 L 11.84375 -48.125 L 1.484375 -48.125 Z M 3.703125 0 L 15.546875 0 L 25.90625 -23.6875 L 14.8125 -23.6875 Z M 3.703125 0 "/></g></g></g><g fill="#3c6d16" fill-opacity="1"><g transform="translate(91.402479, 86.232421)"><g><path d="M 23.6875 1.484375 C 32.640625 1.484375 45.90625 -3.625 45.90625 -22.203125 L 45.90625 -38.5 L 35.53125 -38.5 L 35.53125 -20.734375 C 35.53125 -13.765625 32.421875 -7.40625 24.4375 -7.40625 C 16.8125 -7.40625 12.578125 -13.765625 12.578125 -20.734375 L 12.578125 -38.5 L 2.21875 -38.5 L 2.21875 -22.203125 C 2.21875 -3.625 17.46875 1.484375 23.6875 1.484375 Z M 18.515625 -16.28125 L 28.875 -16.28125 L 28.875 -39.984375 L 18.515625 -39.984375 Z M 18.515625 -16.28125 "/></g></g></g><g clip-path="url(#522d242a57)"><path fill="#afdc34" d="M 21.980469 43.230469 C 21.980469 43.230469 29.667969 31.472656 42.46875 29.972656 C 42.46875 29.972656 30.550781 35.832031 25.515625 43.898438 C 51.765625 47.625 55.425781 19.140625 55.425781 19.140625 C 24.140625 20.964844 21.980469 43.230469 21.980469 43.230469 " fill-opacity="1" fill-rule="nonzero"/></g><g fill="#845333" fill-opacity="1"><g transform="translate(145.6735, 86.053017)"><g><path d="M 23.09375 -15 L 23.09375 0 L 31.171875 0 L 31.171875 -15 C 31.171875 -21.875 26.546875 -30.015625 15.578125 -30.015625 L 5.765625 -30.015625 L 5.765625 -23.09375 L 13.859375 -23.09375 C 20.140625 -23.09375 23.09375 -20.265625 23.09375 -15 Z M 1.15625 0 L 4.625 0 C 12.125 0 13.859375 -3.8125 13.859375 -11.546875 L 13.859375 -18.46875 L 5.765625 -18.46875 L 5.765625 -10.96875 C 5.765625 -8.375 4.96875 -6.921875 2.890625 -6.921875 L 1.15625 -6.921875 Z M 1.15625 0 "/></g></g></g><g fill="#845333" fill-opacity="1"><g transform="translate(178.568449, 86.053017)"><g><path d="M 1.734375 0 L 9.8125 0 L 9.8125 -30.015625 L 1.734375 -30.015625 Z M 1.734375 0 "/></g></g></g><g fill="#845333" fill-opacity="1"><g transform="translate(190.110538, 86.053017)"><g><path d="M 1.734375 -11.546875 L 9.8125 -11.546875 L 9.8125 -30.015625 L 1.734375 -30.015625 Z M 1.734375 -11.546875 "/></g></g></g><g fill="#845333" fill-opacity="1"><g transform="translate(201.652626, 86.053017)"><g><path d="M 1.15625 0 L 6.921875 0 C 14.4375 0 16.15625 -3.8125 16.15625 -11.546875 L 16.15625 -18.46875 L 7.5 -18.46875 L 7.5 -10.96875 C 7.5 -8.375 7.265625 -6.921875 5.1875 -6.921875 L 1.15625 -6.921875 Z M 7.5 -22.515625 L 16.15625 -22.515625 L 16.15625 -30.015625 L 7.5 -30.015625 Z M 7.5 -22.515625 "/></g></g></g><g fill="#845333" fill-opacity="1"><g transform="translate(219.54286, 86.053017)"><g><path d="M 1.734375 0 L 16.734375 0 C 24.1875 0 27.703125 -2.890625 27.703125 -9.8125 L 27.703125 -18.46875 L 19.625 -18.46875 L 19.625 -10.390625 C 19.625 -8.078125 18.578125 -6.921875 16.15625 -6.921875 L 9.8125 -6.921875 L 9.8125 -30.015625 L 1.734375 -30.015625 Z M 19.625 -23.09375 L 27.703125 -23.09375 L 27.703125 -30.015625 L 19.625 -30.015625 Z M 19.625 -23.09375 "/></g></g></g><g fill="#845333" fill-opacity="1"><g transform="translate(248.975183, 86.053017)"><g><path d="M 1.734375 11.546875 L 9.8125 11.546875 L 9.8125 0 L 18.765625 0 L 28.578125 -18.46875 L 19.625 -18.46875 L 9.8125 -0.578125 L 9.8125 -18.46875 L 1.734375 -18.46875 Z M 1.734375 -23.09375 L 28.859375 -23.09375 L 28.859375 -30.015625 L 1.734375 -30.015625 Z M 1.734375 -23.09375 "/></g></g></g><g fill="#845333" fill-opacity="1"><g transform="translate(279.561719, 86.053017)"><g><path d="M 19.625 -15 L 19.625 0 L 27.703125 0 L 27.703125 -15 C 27.703125 -21.703125 23.4375 -30.015625 11.546875 -30.015625 L 1.734375 -30.015625 L 1.734375 -23.09375 L 9.8125 -23.09375 C 17.828125 -23.09375 19.625 -18.40625 19.625 -15 Z M 1.734375 0 L 9.8125 0 L 9.8125 -18.46875 L 1.734375 -18.46875 Z M 1.734375 0 "/></g></g></g></svg>