<svg xmlns="http://www.w3.org/2000/svg" xmlns:xlink="http://www.w3.org/1999/xlink" width="252" zoomAndPan="magnify" viewBox="0 0 189 129.750003" height="173" preserveAspectRatio="xMidYMid meet" version="1.0"><defs><g/><clipPath id="ea643a1cc1"><path d="M 102 18.363281 L 137 18.363281 L 137 44 L 102 44 Z M 102 18.363281 " clip-rule="nonzero"/></clipPath></defs><g fill="#3c6d16" fill-opacity="1"><g transform="translate(20.528513, 86.232421)"><g><path d="M 25.171875 -19.25 L 25.171875 0 L 35.53125 0 L 35.53125 -19.25 C 35.53125 -27.828125 30.0625 -38.5 14.8125 -38.5 L 2.21875 -38.5 L 2.21875 -29.609375 L 12.578125 -29.609375 C 22.875 -29.609375 25.171875 -23.609375 25.171875 -19.25 Z M 2.21875 0 L 12.578125 0 L 12.578125 -23.6875 L 2.21875 -23.6875 Z M 2.21875 0 "/></g></g></g><g fill="#3c6d16" fill-opacity="1"><g transform="translate(58.284916, 86.232421)"><g><path d="M 21.46875 0.734375 C 32.796875 0.734375 40.71875 -7.703125 40.71875 -19.25 C 40.71875 -31.09375 32.5 -39.234375 20.734375 -39.234375 C 9.40625 -39.234375 1.484375 -30.875 1.484375 -19.25 C 1.484375 -7.625 9.765625 0.734375 21.46875 0.734375 Z M 11.84375 -19.25 C 11.84375 -26.140625 14.515625 -30.359375 20.734375 -30.359375 C 26.953125 -30.359375 30.359375 -26.0625 30.359375 -19.25 C 30.359375 -12.21875 27.6875 -8.140625 21.46875 -8.140625 C 15.171875 -8.140625 11.84375 -12.296875 11.84375 -19.25 Z M 11.84375 -19.25 "/></g></g></g><g fill="#3c6d16" fill-opacity="1"><g transform="translate(100.48325, 86.232421)"><g><path d="M 2.21875 -14.8125 L 12.578125 -14.8125 L 12.578125 -38.5 L 2.21875 -38.5 Z M 2.21875 -14.8125 "/></g></g></g><g fill="#3c6d16" fill-opacity="1"><g transform="translate(115.289678, 86.232421)"><g><path d="M 1.484375 0 L 8.890625 0 C 18.515625 0 20.734375 -4.890625 20.734375 -14.8125 L 20.734375 -23.6875 L 9.625 -23.6875 L 9.625 -14.0625 C 9.625 -10.734375 9.328125 -8.890625 6.65625 -8.890625 L 1.484375 -8.890625 Z M 9.625 -28.875 L 20.734375 -28.875 L 20.734375 -38.5 L 9.625 -38.5 Z M 9.625 -28.875 "/></g></g></g><g fill="#3c6d16" fill-opacity="1"><g transform="translate(138.239652, 86.232421)"><g><path d="M 2.21875 0 L 7.40625 0 C 21.390625 0 28.125 -9.1875 28.125 -19.25 C 28.125 -27.609375 23.171875 -38.5 7.40625 -38.5 L 2.21875 -38.5 L 2.21875 -29.609375 L 6.65625 -29.609375 C 14.21875 -29.609375 17.765625 -25.390625 17.765625 -19.25 C 17.765625 -14.8125 14.21875 -8.890625 6.65625 -8.890625 L 2.21875 -8.890625 Z M 2.21875 0 "/></g></g></g><g clip-path="url(#ea643a1cc1)"><path fill="#afdc34" d="M 102.765625 42.484375 C 102.765625 42.484375 110.449219 30.726562 123.25 29.226562 C 123.25 29.226562 111.332031 35.085938 106.300781 43.152344 C 132.546875 46.875 136.207031 18.390625 136.207031 18.390625 C 104.921875 20.214844 102.765625 42.484375 102.765625 42.484375 " fill-opacity="1" fill-rule="nonzero"/></g></svg>