<svg xmlns="http://www.w3.org/2000/svg" xmlns:xlink="http://www.w3.org/1999/xlink" width="500" viewBox="0 0 375 127.500001" height="170" preserveAspectRatio="xMidYMid meet"><defs><g></g><clipPath id="c9d293e0b6"><path d="M 0.730469 0 L 374.265625 0 L 374.265625 127.003906 L 0.730469 127.003906 Z M 0.730469 0 " clip-rule="nonzero"></path></clipPath><clipPath id="2e7be50611"><path d="M 35 4.90625 L 77 4.90625 L 77 37 L 35 37 Z M 35 4.90625 " clip-rule="nonzero"></path></clipPath></defs><g clip-path="url(#c9d293e0b6)"><path fill="#f9fafb" d="M 0.730469 0 L 374.265625 0 L 374.265625 127.003906 L 0.730469 127.003906 Z M 0.730469 0 " fill-opacity="1" fill-rule="nonzero"></path><path fill="#f9fafb" d="M 0.730469 0 L 374.265625 0 L 374.265625 127.003906 L 0.730469 127.003906 Z M 0.730469 0 " fill-opacity="1" fill-rule="nonzero"></path></g><g fill="#3c6d16" fill-opacity="1"><g transform="translate(29.353873, 84.946668)"><g><path d="M 2.453125 0 L 13.875 0 L 13.875 -42.4375 L 2.453125 -42.4375 Z M 2.453125 0 "></path></g></g></g><g fill="#3c6d16" fill-opacity="1"><g transform="translate(45.674811, 84.946668)"><g><path d="M 1.625 0 L 9.796875 0 C 20.40625 0 22.84375 -5.390625 22.84375 -16.328125 L 22.84375 -26.109375 L 10.609375 -26.109375 L 10.609375 -15.5 C 10.609375 -11.828125 10.28125 -9.796875 7.34375 -9.796875 L 1.625 -9.796875 Z M 10.609375 -31.828125 L 22.84375 -31.828125 L 22.84375 -42.4375 L 10.609375 -42.4375 Z M 10.609375 -31.828125 "></path></g></g></g><g fill="#3c6d16" fill-opacity="1"><g transform="translate(70.972279, 84.946668)"><g><path d="M 1.625 -32.640625 L 31.421875 -32.640625 L 35.90625 -42.4375 L 13.0625 -42.4375 L 13.0625 -53.046875 L 1.625 -53.046875 Z M 4.078125 0 L 17.140625 0 L 28.5625 -26.109375 L 16.328125 -26.109375 Z M 4.078125 0 "></path></g></g></g><g fill="#3c6d16" fill-opacity="1"><g transform="translate(107.531191, 84.946668)"><g><path d="M 26.109375 1.625 C 35.984375 1.625 50.59375 -4 50.59375 -24.484375 L 50.59375 -42.4375 L 39.171875 -42.4375 L 39.171875 -22.84375 C 39.171875 -15.171875 35.75 -8.15625 26.9375 -8.15625 C 18.53125 -8.15625 13.875 -15.171875 13.875 -22.84375 L 13.875 -42.4375 L 2.453125 -42.4375 L 2.453125 -24.484375 C 2.453125 -4 19.265625 1.625 26.109375 1.625 Z M 20.40625 -17.953125 L 31.828125 -17.953125 L 31.828125 -44.0625 L 20.40625 -44.0625 Z M 20.40625 -17.953125 "></path></g></g></g><g clip-path="url(#2e7be50611)"><path fill="#afdc34" d="M 35.144531 34.78125 C 35.144531 34.78125 44.675781 20.214844 60.550781 18.355469 C 60.550781 18.355469 45.773438 25.617188 39.53125 35.609375 C 72.085938 40.226562 76.625 4.933594 76.625 4.933594 C 37.824219 7.191406 35.144531 34.78125 35.144531 34.78125 " fill-opacity="1" fill-rule="nonzero"></path></g><g fill="#845333" fill-opacity="1"><g transform="translate(168.660861, 84.50593)"><g><path d="M 1.71875 0 L 26.921875 0 L 26.921875 -20.046875 C 26.921875 -26.921875 24 -29.78125 16.609375 -29.78125 L 1.71875 -29.78125 L 1.71875 -22.90625 L 15.46875 -22.90625 C 17.875 -22.90625 18.90625 -21.765625 18.90625 -19.46875 L 18.90625 -6.875 L 9.734375 -6.875 L 9.734375 -18.328125 L 1.71875 -18.328125 Z M 1.71875 0 "></path></g></g></g><g fill="#845333" fill-opacity="1"><g transform="translate(197.296582, 84.50593)"><g><path d="M 1.71875 -11.453125 L 9.734375 -11.453125 L 9.734375 -29.78125 L 1.71875 -29.78125 Z M 1.71875 -11.453125 "></path></g></g></g><g fill="#845333" fill-opacity="1"><g transform="translate(208.750868, 84.50593)"><g><path d="M 1.140625 0 L 17.75 0 C 24.453125 0 27.5 -2.75 27.5 -9.734375 L 27.5 -29.78125 L 19.46875 -29.78125 L 19.46875 -10.890625 C 19.46875 -7.796875 18.84375 -6.875 16.03125 -6.875 L 12.609375 -6.875 L 12.609375 -18.328125 L 4.578125 -18.328125 L 4.578125 -6.875 L 1.140625 -6.875 Z M 4.578125 -22.625 L 12.609375 -22.625 L 12.609375 -29.78125 L 4.578125 -29.78125 Z M 4.578125 -22.625 "></path></g></g></g><g fill="#845333" fill-opacity="1"><g transform="translate(237.959302, 84.50593)"><g><path d="M 1.71875 0 L 25.203125 0 L 25.203125 -5.15625 C 25.203125 -13.234375 21.703125 -18.328125 13.75 -18.328125 C 11.34375 -18.328125 9.734375 -19.8125 9.734375 -22.90625 L 9.734375 -29.78125 L 1.71875 -29.78125 L 1.71875 -24.625 C 1.71875 -13 9.34375 -10.890625 13.75 -10.890625 C 15.984375 -10.890625 17.015625 -9.5625 17.1875 -6.875 L 1.71875 -6.875 Z M 17.1875 -22.34375 L 25.203125 -22.34375 L 25.203125 -29.78125 L 17.1875 -29.78125 Z M 17.1875 -22.34375 "></path></g></g></g><g fill="#845333" fill-opacity="1"><g transform="translate(264.876873, 84.50593)"><g><path d="M 13.921875 -18.90625 L 13.921875 -11.453125 L 21.9375 -11.453125 L 21.9375 -19.46875 C 21.9375 -26.859375 19.25 -29.78125 12.78125 -29.78125 L 2.46875 -29.78125 L 2.46875 -22.90625 L 10.484375 -22.90625 C 13.34375 -22.90625 13.921875 -22 13.921875 -18.90625 Z M 1.3125 0 L 24.796875 0 L 24.796875 -6.875 L 1.3125 -6.875 Z M 1.3125 0 "></path></g></g></g><g fill="#845333" fill-opacity="1"><g transform="translate(290.935376, 84.50593)"><g><path d="M 1.71875 0 L 9.734375 0 L 9.734375 -22.90625 L 13.75 -22.90625 C 18.5625 -22.90625 21.765625 -19.9375 21.765625 -14.890625 C 21.765625 -10.375 18.5625 -6.875 12.609375 -6.875 L 12.609375 0 L 13.75 0 C 24.6875 0 29.78125 -7.21875 29.78125 -14.890625 C 29.78125 -22.046875 25.140625 -29.15625 15.46875 -29.78125 C 13.515625 -27.953125 11.578125 -26.0625 9.734375 -24.0625 L 9.734375 -29.78125 L 1.71875 -29.78125 Z M 1.71875 0 "></path></g></g></g><g fill="#845333" fill-opacity="1"><g transform="translate(321.861947, 84.50593)"><g><path d="M 19.46875 -14.890625 L 19.46875 0 L 27.5 0 L 27.5 -14.890625 C 27.5 -21.53125 23.25 -29.78125 11.453125 -29.78125 L 1.71875 -29.78125 L 1.71875 -22.90625 L 9.734375 -22.90625 C 17.703125 -22.90625 19.46875 -18.265625 19.46875 -14.890625 Z M 1.71875 0 L 9.734375 0 L 9.734375 -18.328125 L 1.71875 -18.328125 Z M 1.71875 0 "></path></g></g></g></svg>