<svg xmlns="http://www.w3.org/2000/svg" xmlns:xlink="http://www.w3.org/1999/xlink" width="463" zoomAndPan="magnify" viewBox="0 0 347.25 129.749996" height="173" preserveAspectRatio="xMidYMid meet" version="1.0"><defs><g/><clipPath id="521c5599d7"><path d="M 89 18.375 L 123 18.375 L 123 44 L 89 44 Z M 89 18.375 " clip-rule="nonzero"/></clipPath></defs><g fill="#e7191f" fill-opacity="1"><g transform="translate(20.411462, 86.227438)"><g><path d="M 2.21875 0 L 2.21875 -23.6875 L 12.578125 -23.6875 L 12.578125 -8.875 L 24.421875 -8.875 L 24.421875 -25.171875 C 24.421875 -28.128906 22.941406 -29.609375 19.984375 -29.609375 L 2.21875 -29.609375 L 2.21875 -38.484375 L 21.46875 -38.484375 C 26.25 -38.484375 29.660156 -37.492188 31.703125 -35.515625 C 33.753906 -33.546875 34.78125 -30.34375 34.78125 -25.90625 L 34.78125 0 Z M 2.21875 0 "/></g></g></g><g fill="#e7191f" fill-opacity="1"><g transform="translate(57.418925, 86.227438)"><g><path d="M 2.21875 0 L 2.21875 -38.484375 L 12.578125 -38.484375 L 12.578125 0 Z M 2.21875 0 "/></g></g></g><g fill="#e7191f" fill-opacity="1"><g transform="translate(72.221909, 86.227438)"><g><path d="M 1.484375 -29.609375 L 1.484375 -48.109375 L 11.84375 -48.109375 L 11.84375 -38.484375 L 32.5625 -38.484375 L 28.5 -29.609375 Z M 3.703125 0 L 14.796875 -23.6875 L 25.90625 -23.6875 L 15.546875 0 Z M 3.703125 0 "/></g></g></g><g fill="#e7191f" fill-opacity="1"><g transform="translate(105.380601, 86.227438)"><g><path d="M 23.6875 1.484375 C 22.445312 1.484375 20.914062 1.25 19.09375 0.78125 C 17.269531 0.3125 15.382812 -0.453125 13.4375 -1.515625 C 11.488281 -2.578125 9.660156 -4.019531 7.953125 -5.84375 C 6.253906 -7.664062 4.875 -9.921875 3.8125 -12.609375 C 2.75 -15.304688 2.21875 -18.503906 2.21875 -22.203125 L 2.21875 -38.484375 L 12.578125 -38.484375 L 12.578125 -20.71875 C 12.578125 -18.40625 13.035156 -16.234375 13.953125 -14.203125 C 14.867188 -12.179688 16.210938 -10.539062 17.984375 -9.28125 C 19.765625 -8.03125 21.910156 -7.40625 24.421875 -7.40625 C 27.085938 -7.40625 29.234375 -8.03125 30.859375 -9.28125 C 32.492188 -10.539062 33.679688 -12.179688 34.421875 -14.203125 C 35.160156 -16.234375 35.53125 -18.40625 35.53125 -20.71875 L 35.53125 -38.484375 L 45.890625 -38.484375 L 45.890625 -22.203125 C 45.890625 -17.566406 45.171875 -13.71875 43.734375 -10.65625 C 42.304688 -7.59375 40.445312 -5.171875 38.15625 -3.390625 C 35.863281 -1.617188 33.429688 -0.363281 30.859375 0.375 C 28.296875 1.113281 25.90625 1.484375 23.6875 1.484375 Z M 18.5 -16.28125 L 18.5 -39.96875 L 28.859375 -39.96875 L 28.859375 -16.28125 Z M 18.5 -16.28125 "/></g></g></g><g fill="#e7191f" fill-opacity="1"><g transform="translate(153.490305, 86.227438)"><g><path d="M 29.609375 -19.25 C 29.609375 -22.601562 28.644531 -25.164062 26.71875 -26.9375 C 24.789062 -28.71875 21.804688 -29.609375 17.765625 -29.609375 L 7.40625 -29.609375 L 7.40625 -38.484375 L 19.984375 -38.484375 C 23.484375 -38.484375 26.503906 -37.90625 29.046875 -36.75 C 31.585938 -35.59375 33.660156 -34.0625 35.265625 -32.15625 C 36.867188 -30.257812 38.050781 -28.1875 38.8125 -25.9375 C 39.582031 -23.695312 39.96875 -21.46875 39.96875 -19.25 L 39.96875 0 L 29.609375 0 Z M 1.484375 0 L 1.484375 -8.875 L 3.703125 -8.875 C 5.035156 -8.875 5.984375 -9.316406 6.546875 -10.203125 C 7.117188 -11.097656 7.40625 -12.382812 7.40625 -14.0625 L 7.40625 -23.6875 L 17.765625 -23.6875 L 17.765625 -14.796875 C 17.765625 -11.492188 17.441406 -8.742188 16.796875 -6.546875 C 16.160156 -4.347656 14.988281 -2.707031 13.28125 -1.625 C 11.582031 -0.539062 9.128906 0 5.921875 0 Z M 1.484375 0 "/></g></g></g><g clip-path="url(#521c5599d7)"><path fill="#ffa073" d="M 89.351562 42.488281 C 89.351562 42.488281 97.035156 30.734375 109.832031 29.234375 C 109.832031 29.234375 97.917969 35.09375 92.886719 43.15625 C 119.128906 46.878906 122.789062 18.402344 122.789062 18.402344 C 91.511719 20.226562 89.351562 42.488281 89.351562 42.488281 " fill-opacity="1" fill-rule="nonzero"/></g><g fill="#845333" fill-opacity="1"><g transform="translate(203.587863, 85.29969)"><g><path d="M 1.734375 -11.546875 L 1.734375 -30 L 9.8125 -30 L 9.8125 -11.546875 Z M 1.734375 -11.546875 "/></g></g></g><g fill="#845333" fill-opacity="1"><g transform="translate(215.127267, 85.29969)"><g><path d="M 1.15625 0 L 1.15625 -6.921875 L 4.609375 -6.921875 L 4.609375 -18.46875 L 12.6875 -18.46875 L 12.6875 -6.921875 L 16.15625 -6.921875 C 17.582031 -6.921875 18.515625 -7.207031 18.953125 -7.78125 C 19.398438 -8.363281 19.625 -9.425781 19.625 -10.96875 L 19.625 -30 L 27.703125 -30 L 27.703125 -9.8125 C 27.703125 -6.3125 26.910156 -3.800781 25.328125 -2.28125 C 23.753906 -0.757812 21.273438 0 17.890625 0 Z M 4.609375 -22.796875 L 4.609375 -30 L 12.6875 -30 L 12.6875 -22.796875 Z M 4.609375 -22.796875 "/></g></g></g><g fill="#845333" fill-opacity="1"><g transform="translate(244.552743, 85.29969)"><g><path d="M 1.734375 0 L 1.734375 -6.921875 L 17.3125 -6.921875 C 17.15625 -9.617188 16 -10.96875 13.84375 -10.96875 C 12.726562 -10.96875 11.476562 -11.148438 10.09375 -11.515625 C 8.707031 -11.878906 7.378906 -12.539062 6.109375 -13.5 C 4.847656 -14.457031 3.800781 -15.847656 2.96875 -17.671875 C 2.144531 -19.503906 1.734375 -21.882812 1.734375 -24.8125 L 1.734375 -30 L 9.8125 -30 L 9.8125 -23.078125 C 9.8125 -21.535156 10.1875 -20.378906 10.9375 -19.609375 C 11.6875 -18.847656 12.65625 -18.46875 13.84375 -18.46875 C 17.84375 -18.46875 20.765625 -17.273438 22.609375 -14.890625 C 24.460938 -12.503906 25.390625 -9.269531 25.390625 -5.1875 L 25.390625 0 Z M 17.3125 -22.5 L 17.3125 -30 L 25.390625 -30 L 25.390625 -22.5 Z M 17.3125 -22.5 "/></g></g></g><g fill="#845333" fill-opacity="1"><g transform="translate(271.670342, 85.29969)"><g><path d="M 1.734375 0 L 1.734375 -30 L 9.8125 -30 L 9.8125 -24.234375 C 10.726562 -25.234375 11.675781 -26.210938 12.65625 -27.171875 C 13.644531 -28.140625 14.617188 -29.082031 15.578125 -30 C 18.847656 -29.8125 21.539062 -28.976562 23.65625 -27.5 C 25.769531 -26.019531 27.351562 -24.171875 28.40625 -21.953125 C 29.46875 -19.742188 30 -17.425781 30 -15 C 30 -12.425781 29.421875 -9.992188 28.265625 -7.703125 C 27.117188 -5.410156 25.351562 -3.550781 22.96875 -2.125 C 20.582031 -0.707031 17.539062 0 13.84375 0 L 12.6875 0 L 12.6875 -6.921875 C 15.695312 -6.921875 17.988281 -7.695312 19.5625 -9.25 C 21.132812 -10.8125 21.921875 -12.726562 21.921875 -15 C 21.921875 -17.539062 21.179688 -19.519531 19.703125 -20.9375 C 18.222656 -22.363281 16.269531 -23.078125 13.84375 -23.078125 L 9.8125 -23.078125 L 9.8125 0 Z M 1.734375 0 "/></g></g></g><g fill="#845333" fill-opacity="1"><g transform="translate(302.826733, 85.29969)"><g><path d="M 1.734375 0 L 1.734375 -30 L 9.8125 -30 L 9.8125 -23.078125 C 11.039062 -24.921875 12.296875 -26.34375 13.578125 -27.34375 C 14.867188 -28.34375 16.320312 -29.035156 17.9375 -29.421875 C 19.5625 -29.804688 21.46875 -30 23.65625 -30 L 25.390625 -30 L 25.390625 -22.5 L 24.8125 -22.5 C 22.238281 -22.5 20.148438 -21.84375 18.546875 -20.53125 C 16.953125 -19.226562 16.15625 -17.382812 16.15625 -15 C 16.15625 -13.226562 16.546875 -11.738281 17.328125 -10.53125 C 18.117188 -9.320312 19.175781 -8.414062 20.5 -7.8125 C 21.832031 -7.21875 23.269531 -6.921875 24.8125 -6.921875 L 25.390625 -6.921875 L 25.390625 0 L 23.65625 0 C 21.382812 0 19.429688 -0.203125 17.796875 -0.609375 C 16.160156 -1.015625 14.71875 -1.675781 13.46875 -2.59375 C 12.21875 -3.519531 11 -4.769531 9.8125 -6.34375 L 9.8125 0 Z M 1.734375 0 "/></g></g></g></svg>