<svg xmlns="http://www.w3.org/2000/svg" xmlns:xlink="http://www.w3.org/1999/xlink" width="505" zoomAndPan="magnify" viewBox="0 0 378.75 129.750003" height="173" preserveAspectRatio="xMidYMid meet" version="1.0"><defs><g/><clipPath id="a90588ee40"><path d="M 22 19.113281 L 56 19.113281 L 56 45 L 22 45 Z M 22 19.113281 " clip-rule="nonzero"/></clipPath></defs><g fill="#3c6d16" fill-opacity="1"><g transform="translate(20.65563, 86.232421)"><g><path d="M 2.21875 0 L 12.578125 0 L 12.578125 -38.5 L 2.21875 -38.5 Z M 2.21875 0 "/></g></g></g><g fill="#3c6d16" fill-opacity="1"><g transform="translate(35.462058, 86.232421)"><g><path d="M 1.484375 0 L 8.890625 0 C 18.515625 0 20.734375 -4.890625 20.734375 -14.8125 L 20.734375 -23.6875 L 9.625 -23.6875 L 9.625 -14.0625 C 9.625 -10.734375 9.328125 -8.890625 6.65625 -8.890625 L 1.484375 -8.890625 Z M 9.625 -28.875 L 20.734375 -28.875 L 20.734375 -38.5 L 9.625 -38.5 Z M 9.625 -28.875 "/></g></g></g><g fill="#3c6d16" fill-opacity="1"><g transform="translate(58.412033, 86.232421)"><g><path d="M 1.484375 -29.609375 L 28.5 -29.609375 L 32.578125 -38.5 L 11.84375 -38.5 L 11.84375 -48.125 L 1.484375 -48.125 Z M 3.703125 0 L 15.546875 0 L 25.90625 -23.6875 L 14.8125 -23.6875 Z M 3.703125 0 "/></g></g></g><g fill="#3c6d16" fill-opacity="1"><g transform="translate(91.57844, 86.232421)"><g><path d="M 23.6875 1.484375 C 32.640625 1.484375 45.90625 -3.625 45.90625 -22.203125 L 45.90625 -38.5 L 35.53125 -38.5 L 35.53125 -20.734375 C 35.53125 -13.765625 32.421875 -7.40625 24.4375 -7.40625 C 16.8125 -7.40625 12.578125 -13.765625 12.578125 -20.734375 L 12.578125 -38.5 L 2.21875 -38.5 L 2.21875 -22.203125 C 2.21875 -3.625 17.46875 1.484375 23.6875 1.484375 Z M 18.515625 -16.28125 L 28.875 -16.28125 L 28.875 -39.984375 L 18.515625 -39.984375 Z M 18.515625 -16.28125 "/></g></g></g><g clip-path="url(#a90588ee40)"><path fill="#afdc34" d="M 22.160156 43.230469 C 22.160156 43.230469 29.84375 31.472656 42.644531 29.972656 C 42.644531 29.972656 30.726562 35.832031 25.695312 43.898438 C 51.941406 47.625 55.601562 19.140625 55.601562 19.140625 C 24.316406 20.964844 22.160156 43.230469 22.160156 43.230469 " fill-opacity="1" fill-rule="nonzero"/></g><g fill="#845333" fill-opacity="1"><g transform="translate(148.240182, 86.053017)"><g><path d="M 1.734375 0 L 27.125 0 L 27.125 -20.203125 C 27.125 -27.125 24.1875 -30.015625 16.734375 -30.015625 L 1.734375 -30.015625 L 1.734375 -23.09375 L 15.578125 -23.09375 C 18.015625 -23.09375 19.046875 -21.9375 19.046875 -19.625 L 19.046875 -6.921875 L 9.8125 -6.921875 L 9.8125 -18.46875 L 1.734375 -18.46875 Z M 1.734375 0 "/></g></g></g><g fill="#845333" fill-opacity="1"><g transform="translate(177.095399, 86.053017)"><g><path d="M 1.734375 -11.546875 L 9.8125 -11.546875 L 9.8125 -30.015625 L 1.734375 -30.015625 Z M 1.734375 -11.546875 "/></g></g></g><g fill="#845333" fill-opacity="1"><g transform="translate(188.637488, 86.053017)"><g><path d="M 16.15625 -14.78125 L 16.15625 0 L 24.234375 0 L 24.234375 -15 C 24.234375 -21.703125 19.96875 -30.015625 8.078125 -30.015625 L 1.15625 -30.015625 L 1.15625 -23.09375 L 6.921875 -23.09375 C 13.671875 -23.09375 16.15625 -18.1875 16.15625 -14.78125 Z M 16.15625 -14.78125 "/></g></g></g><g fill="#845333" fill-opacity="1"><g transform="translate(214.607185, 86.053017)"><g><path d="M 1.734375 0 L 5.765625 0 C 16.6875 0 21.9375 -7.15625 21.9375 -15 C 21.9375 -21.53125 18.0625 -30.015625 5.765625 -30.015625 L 1.734375 -30.015625 L 1.734375 -23.09375 L 5.1875 -23.09375 C 11.078125 -23.09375 13.859375 -19.796875 13.859375 -15 C 13.859375 -11.546875 11.078125 -6.921875 5.1875 -6.921875 L 1.734375 -6.921875 Z M 1.734375 0 "/></g></g></g><g fill="#845333" fill-opacity="1"><g transform="translate(237.691363, 86.053017)"><g><path d="M 1.734375 0 L 9.8125 0 L 9.8125 -23.09375 L 13.859375 -23.09375 C 18.703125 -23.09375 21.9375 -20.09375 21.9375 -15 C 21.9375 -10.453125 18.703125 -6.921875 12.703125 -6.921875 L 12.703125 0 L 13.859375 0 C 24.875 0 30.015625 -7.265625 30.015625 -15 C 30.015625 -22.21875 25.34375 -29.375 15.578125 -30.015625 C 13.625 -28.171875 11.65625 -26.265625 9.8125 -24.234375 L 9.8125 -30.015625 L 1.734375 -30.015625 Z M 1.734375 0 "/></g></g></g><g fill="#845333" fill-opacity="1"><g transform="translate(268.855004, 86.053017)"><g><path d="M 1.15625 0 L 6.921875 0 C 14.4375 0 16.15625 -3.8125 16.15625 -11.546875 L 16.15625 -18.46875 L 7.5 -18.46875 L 7.5 -10.96875 C 7.5 -8.375 7.265625 -6.921875 5.1875 -6.921875 L 1.15625 -6.921875 Z M 7.5 -22.515625 L 16.15625 -22.515625 L 16.15625 -30.015625 L 7.5 -30.015625 Z M 7.5 -22.515625 "/></g></g></g><g fill="#845333" fill-opacity="1"><g transform="translate(286.745238, 86.053017)"><g/></g></g><g fill="#845333" fill-opacity="1"><g transform="translate(297.998769, 86.053017)"><g><path d="M 1.734375 -11.546875 L 9.8125 -11.546875 L 9.8125 -30.015625 L 1.734375 -30.015625 Z M 1.734375 -11.546875 "/></g></g></g><g fill="#845333" fill-opacity="1"><g transform="translate(309.540858, 86.053017)"><g><path d="M 1.734375 0 L 5.765625 0 C 16.6875 0 21.9375 -7.15625 21.9375 -15 C 21.9375 -21.53125 18.0625 -30.015625 5.765625 -30.015625 L 1.734375 -30.015625 L 1.734375 -23.09375 L 5.1875 -23.09375 C 11.078125 -23.09375 13.859375 -19.796875 13.859375 -15 C 13.859375 -11.546875 11.078125 -6.921875 5.1875 -6.921875 L 1.734375 -6.921875 Z M 1.734375 0 "/></g></g></g><g fill="#845333" fill-opacity="1"><g transform="translate(332.625036, 86.053017)"><g><path d="M 19.625 -15 L 19.625 0 L 27.703125 0 L 27.703125 -15 C 27.703125 -21.703125 23.4375 -30.015625 11.546875 -30.015625 L 1.734375 -30.015625 L 1.734375 -23.09375 L 9.8125 -23.09375 C 17.828125 -23.09375 19.625 -18.40625 19.625 -15 Z M 1.734375 0 L 9.8125 0 L 9.8125 -18.46875 L 1.734375 -18.46875 Z M 1.734375 0 "/></g></g></g></svg>