<svg xmlns="http://www.w3.org/2000/svg" xmlns:xlink="http://www.w3.org/1999/xlink" width="541" zoomAndPan="magnify" viewBox="0 0 405.75 123.000003" height="164" preserveAspectRatio="xMidYMid meet" version="1.0"><defs><g/><clipPath id="dba0cf9d3e"><path d="M 75 17.378906 L 108 17.378906 L 108 42 L 75 42 Z M 75 17.378906 " clip-rule="nonzero"/></clipPath></defs><g fill="#3c6d16" fill-opacity="1"><g transform="translate(20.943412, 81.609981)"><g><path d="M 4.203125 -14.015625 L 4.203125 -36.4375 L 12.609375 -36.4375 L 11.90625 -14.015625 Z M 3.5 0 L 3.5 -8.40625 L 12.609375 -8.40625 L 12.609375 0 Z M 3.5 0 "/></g></g></g><g fill="#3c6d16" fill-opacity="1"><g transform="translate(37.548514, 81.609981)"><g><path d="M 23.828125 -18.21875 C 23.828125 -19.238281 23.660156 -20.320312 23.328125 -21.46875 C 23.003906 -22.613281 22.410156 -23.675781 21.546875 -24.65625 C 20.679688 -25.644531 19.460938 -26.453125 17.890625 -27.078125 C 16.328125 -27.710938 14.332031 -28.03125 11.90625 -28.03125 L 2.109375 -28.03125 L 2.109375 -36.4375 L 14.015625 -36.4375 C 17.609375 -36.4375 20.65625 -35.875 23.15625 -34.75 C 25.65625 -33.625 27.675781 -32.160156 29.21875 -30.359375 C 30.757812 -28.566406 31.878906 -26.609375 32.578125 -24.484375 C 33.273438 -22.359375 33.625 -20.269531 33.625 -18.21875 L 33.625 0 L 23.828125 0 Z M 2.109375 0 L 2.109375 -22.421875 L 11.90625 -22.421875 L 11.90625 0 Z M 2.109375 0 "/></g></g></g><g fill="#3c6d16" fill-opacity="1"><g transform="translate(73.281006, 81.609981)"><g><path d="M 2.109375 0 L 2.109375 -36.4375 L 14.015625 -36.4375 C 17.609375 -36.4375 20.65625 -35.875 23.15625 -34.75 C 25.65625 -33.625 27.675781 -32.160156 29.21875 -30.359375 C 30.757812 -28.566406 31.878906 -26.609375 32.578125 -24.484375 C 33.273438 -22.359375 33.625 -20.269531 33.625 -18.21875 L 33.625 0 L 23.828125 0 L 23.828125 -18.21875 C 23.828125 -19.238281 23.660156 -20.320312 23.328125 -21.46875 C 23.003906 -22.613281 22.410156 -23.675781 21.546875 -24.65625 C 20.679688 -25.644531 19.460938 -26.453125 17.890625 -27.078125 C 16.328125 -27.710938 14.332031 -28.03125 11.90625 -28.03125 L 11.90625 0 Z M 2.109375 0 "/></g></g></g><g fill="#3c6d16" fill-opacity="1"><g transform="translate(109.013498, 81.609981)"><g><path d="M 1.40625 -28.03125 L 1.40625 -45.546875 L 11.203125 -45.546875 L 11.203125 -36.4375 L 30.828125 -36.4375 L 26.96875 -28.03125 Z M 3.5 0 L 14.015625 -22.421875 L 24.515625 -22.421875 L 14.71875 0 Z M 3.5 0 "/></g></g></g><g fill="#3c6d16" fill-opacity="1"><g transform="translate(140.402039, 81.609981)"><g><path d="M 2.109375 0 L 2.109375 -8.40625 L 21.015625 -8.40625 C 20.828125 -11.675781 19.425781 -13.3125 16.8125 -13.3125 C 15.457031 -13.3125 13.9375 -13.53125 12.25 -13.96875 C 10.570312 -14.414062 8.960938 -15.222656 7.421875 -16.390625 C 5.878906 -17.554688 4.609375 -19.25 3.609375 -21.46875 C 2.609375 -23.6875 2.109375 -26.570312 2.109375 -30.125 L 2.109375 -36.4375 L 11.90625 -36.4375 L 11.90625 -28.03125 C 11.90625 -26.15625 12.359375 -24.75 13.265625 -23.8125 C 14.179688 -22.882812 15.363281 -22.421875 16.8125 -22.421875 C 21.664062 -22.421875 25.210938 -20.972656 27.453125 -18.078125 C 29.703125 -15.179688 30.828125 -11.257812 30.828125 -6.3125 L 30.828125 0 Z M 21.015625 -27.328125 L 21.015625 -36.4375 L 30.828125 -36.4375 L 30.828125 -27.328125 Z M 21.015625 -27.328125 "/></g></g></g><g fill="#3c6d16" fill-opacity="1"><g transform="translate(173.331981, 81.609981)"><g><path d="M 23.828125 -18.21875 C 23.828125 -19.238281 23.660156 -20.320312 23.328125 -21.46875 C 23.003906 -22.613281 22.410156 -23.675781 21.546875 -24.65625 C 20.679688 -25.644531 19.460938 -26.453125 17.890625 -27.078125 C 16.328125 -27.710938 14.332031 -28.03125 11.90625 -28.03125 L 2.109375 -28.03125 L 2.109375 -36.4375 L 14.015625 -36.4375 C 17.609375 -36.4375 20.65625 -35.875 23.15625 -34.75 C 25.65625 -33.625 27.675781 -32.160156 29.21875 -30.359375 C 30.757812 -28.566406 31.878906 -26.609375 32.578125 -24.484375 C 33.273438 -22.359375 33.625 -20.269531 33.625 -18.21875 L 33.625 0 L 23.828125 0 Z M 2.109375 0 L 2.109375 -22.421875 L 11.90625 -22.421875 L 11.90625 0 Z M 2.109375 0 "/></g></g></g><g fill="#3c6d16" fill-opacity="1"><g transform="translate(209.064472, 81.609981)"><g><path d="M 17.03125 -23.125 C 17.03125 -25.039062 16.769531 -26.335938 16.25 -27.015625 C 15.738281 -27.691406 14.597656 -28.03125 12.828125 -28.03125 L 3.015625 -28.03125 L 3.015625 -36.4375 L 15.625 -36.4375 C 19.59375 -36.4375 22.453125 -35.46875 24.203125 -33.53125 C 25.953125 -31.59375 26.828125 -28.359375 26.828125 -23.828125 L 26.828125 -14.015625 L 17.03125 -14.015625 Z M 1.609375 0 L 1.609375 -8.40625 L 30.34375 -8.40625 L 30.34375 0 Z M 1.609375 0 "/></g></g></g><g clip-path="url(#dba0cf9d3e)"><path fill="#afdc34" d="M 75.773438 40.246094 C 75.773438 40.246094 83.113281 29.097656 95.339844 27.675781 C 95.339844 27.675781 83.957031 33.230469 79.148438 40.878906 C 104.222656 44.410156 107.71875 17.402344 107.71875 17.402344 C 77.835938 19.128906 75.773438 40.246094 75.773438 40.246094 " fill-opacity="1" fill-rule="nonzero"/></g><g fill="#845333" fill-opacity="1"><g transform="translate(250.912032, 80.731759)"><g><path d="M 21.84375 -14.203125 C 21.84375 -16.679688 21.132812 -18.570312 19.71875 -19.875 C 18.300781 -21.1875 16.097656 -21.84375 13.109375 -21.84375 L 5.46875 -21.84375 L 5.46875 -28.40625 L 14.75 -28.40625 C 17.332031 -28.40625 19.5625 -27.976562 21.4375 -27.125 C 23.3125 -26.269531 24.835938 -25.140625 26.015625 -23.734375 C 27.203125 -22.328125 28.078125 -20.796875 28.640625 -19.140625 C 29.210938 -17.484375 29.5 -15.835938 29.5 -14.203125 L 29.5 0 L 21.84375 0 Z M 1.09375 0 L 1.09375 -6.5625 L 2.734375 -6.5625 C 3.710938 -6.5625 4.410156 -6.882812 4.828125 -7.53125 C 5.253906 -8.1875 5.46875 -9.132812 5.46875 -10.375 L 5.46875 -17.484375 L 13.109375 -17.484375 L 13.109375 -10.921875 C 13.109375 -8.484375 12.867188 -6.453125 12.390625 -4.828125 C 11.921875 -3.210938 11.054688 -2.003906 9.796875 -1.203125 C 8.546875 -0.398438 6.738281 0 4.375 0 Z M 1.09375 0 "/></g></g></g><g fill="#845333" fill-opacity="1"><g transform="translate(282.043664, 80.731759)"><g><path d="M 1.640625 0 L 1.640625 -28.40625 L 9.28125 -28.40625 L 9.28125 -22.9375 C 10.15625 -23.882812 11.054688 -24.8125 11.984375 -25.71875 C 12.921875 -26.632812 13.84375 -27.53125 14.75 -28.40625 C 17.84375 -28.21875 20.390625 -27.421875 22.390625 -26.015625 C 24.398438 -24.617188 25.90625 -22.875 26.90625 -20.78125 C 27.90625 -18.6875 28.40625 -16.492188 28.40625 -14.203125 C 28.40625 -11.765625 27.859375 -9.460938 26.765625 -7.296875 C 25.671875 -5.128906 23.992188 -3.367188 21.734375 -2.015625 C 19.484375 -0.671875 16.609375 0 13.109375 0 L 12.015625 0 L 12.015625 -6.5625 C 14.859375 -6.5625 17.023438 -7.296875 18.515625 -8.765625 C 20.003906 -10.242188 20.75 -12.054688 20.75 -14.203125 C 20.75 -16.609375 20.046875 -18.484375 18.640625 -19.828125 C 17.242188 -21.171875 15.398438 -21.84375 13.109375 -21.84375 L 9.28125 -21.84375 L 9.28125 0 Z M 1.640625 0 "/></g></g></g><g fill="#845333" fill-opacity="1"><g transform="translate(311.536793, 80.731759)"><g><path d="M 17.484375 1.09375 C 16.566406 1.09375 15.4375 0.914062 14.09375 0.5625 C 12.75 0.21875 11.351562 -0.34375 9.90625 -1.125 C 8.46875 -1.90625 7.117188 -2.96875 5.859375 -4.3125 C 4.609375 -5.664062 3.59375 -7.332031 2.8125 -9.3125 C 2.03125 -11.300781 1.640625 -13.660156 1.640625 -16.390625 L 1.640625 -28.40625 L 9.28125 -28.40625 L 9.28125 -15.296875 C 9.28125 -13.585938 9.617188 -11.984375 10.296875 -10.484375 C 10.972656 -8.992188 11.960938 -7.785156 13.265625 -6.859375 C 14.578125 -5.929688 16.164062 -5.46875 18.03125 -5.46875 C 19.988281 -5.46875 21.566406 -5.929688 22.765625 -6.859375 C 23.972656 -7.785156 24.847656 -8.992188 25.390625 -10.484375 C 25.941406 -11.984375 26.21875 -13.585938 26.21875 -15.296875 L 26.21875 -28.40625 L 33.875 -28.40625 L 33.875 -16.390625 C 33.875 -12.960938 33.34375 -10.117188 32.28125 -7.859375 C 31.226562 -5.609375 29.851562 -3.828125 28.15625 -2.515625 C 26.46875 -1.203125 24.675781 -0.273438 22.78125 0.265625 C 20.882812 0.816406 19.117188 1.09375 17.484375 1.09375 Z M 13.65625 -12.015625 L 13.65625 -29.5 L 21.296875 -29.5 L 21.296875 -12.015625 Z M 13.65625 -12.015625 "/></g></g></g><g fill="#845333" fill-opacity="1"><g transform="translate(347.037779, 80.731759)"><g><path d="M 15.296875 -13.984375 C 15.296875 -15.078125 15.015625 -16.234375 14.453125 -17.453125 C 13.890625 -18.671875 12.96875 -19.707031 11.6875 -20.5625 C 10.414062 -21.414062 8.707031 -21.84375 6.5625 -21.84375 L 1.09375 -21.84375 L 1.09375 -28.40625 L 7.640625 -28.40625 C 10.453125 -28.40625 12.832031 -27.96875 14.78125 -27.09375 C 16.726562 -26.21875 18.300781 -25.078125 19.5 -23.671875 C 20.695312 -22.273438 21.566406 -20.75 22.109375 -19.09375 C 22.660156 -17.4375 22.9375 -15.804688 22.9375 -14.203125 L 22.9375 0 L 15.296875 0 Z M 15.296875 -13.984375 "/></g></g></g><g fill="#845333" fill-opacity="1"><g transform="translate(371.615384, 80.731759)"><g><path d="M 1.09375 0 L 1.09375 -6.5625 L 4.921875 -6.5625 C 5.898438 -6.5625 6.503906 -6.882812 6.734375 -7.53125 C 6.972656 -8.1875 7.09375 -9.132812 7.09375 -10.375 L 7.09375 -17.484375 L 15.296875 -17.484375 L 15.296875 -10.921875 C 15.296875 -8.484375 15.054688 -6.453125 14.578125 -4.828125 C 14.109375 -3.210938 13.242188 -2.003906 11.984375 -1.203125 C 10.734375 -0.398438 8.925781 0 6.5625 0 Z M 7.09375 -21.296875 L 7.09375 -28.40625 L 15.296875 -28.40625 L 15.296875 -21.296875 Z M 7.09375 -21.296875 "/></g></g></g></svg>