<svg xmlns="http://www.w3.org/2000/svg" xmlns:xlink="http://www.w3.org/1999/xlink" width="318" zoomAndPan="magnify" viewBox="0 0 238.5 129.749996" height="173" preserveAspectRatio="xMidYMid meet" version="1.0"><defs><g/><clipPath id="d2fb101a5e"><path d="M 85 18.371094 L 119 18.371094 L 119 44 L 85 44 Z M 85 18.371094 " clip-rule="nonzero"/></clipPath></defs><g fill="#3c6d16" fill-opacity="1"><g transform="translate(20.44746, 86.228788)"><g><path d="M 25.171875 -19.25 L 25.171875 0 L 35.53125 0 L 35.53125 -19.25 C 35.53125 -27.828125 30.046875 -38.484375 14.796875 -38.484375 L 2.21875 -38.484375 L 2.21875 -29.609375 L 12.578125 -29.609375 C 22.875 -29.609375 25.171875 -23.609375 25.171875 -19.25 Z M 2.21875 0 L 12.578125 0 L 12.578125 -23.6875 L 2.21875 -23.6875 Z M 2.21875 0 "/></g></g></g><g fill="#3c6d16" fill-opacity="1"><g transform="translate(58.197467, 86.228788)"><g><path d="M 2.21875 0 L 12.578125 0 L 12.578125 -29.609375 L 17.765625 -29.609375 C 23.984375 -29.609375 28.125 -25.75 28.125 -19.25 C 28.125 -13.390625 23.984375 -8.875 16.28125 -8.875 L 16.28125 0 L 17.765625 0 C 31.90625 0 38.484375 -9.328125 38.484375 -19.25 C 38.484375 -28.5 32.5 -37.671875 19.984375 -38.484375 C 17.46875 -36.125 14.953125 -33.671875 12.578125 -31.09375 L 12.578125 -38.484375 L 2.21875 -38.484375 Z M 2.21875 0 "/></g></g></g><g fill="#3c6d16" fill-opacity="1"><g transform="translate(98.168058, 86.228788)"><g><path d="M 23.6875 1.484375 C 32.640625 1.484375 45.890625 -3.625 45.890625 -22.203125 L 45.890625 -38.484375 L 35.53125 -38.484375 L 35.53125 -20.71875 C 35.53125 -13.765625 32.421875 -7.40625 24.421875 -7.40625 C 16.796875 -7.40625 12.578125 -13.765625 12.578125 -20.71875 L 12.578125 -38.484375 L 2.21875 -38.484375 L 2.21875 -22.203125 C 2.21875 -3.625 17.46875 1.484375 23.6875 1.484375 Z M 18.5 -16.28125 L 28.859375 -16.28125 L 28.859375 -39.96875 L 18.5 -39.96875 Z M 18.5 -16.28125 "/></g></g></g><g fill="#3c6d16" fill-opacity="1"><g transform="translate(146.280806, 86.228788)"><g><path d="M 20.71875 -18.953125 L 20.71875 0 L 31.09375 0 L 31.09375 -19.25 C 31.09375 -27.828125 25.609375 -38.484375 10.359375 -38.484375 L 1.484375 -38.484375 L 1.484375 -29.609375 L 8.875 -29.609375 C 17.546875 -29.609375 20.71875 -23.3125 20.71875 -18.953125 Z M 20.71875 -18.953125 "/></g></g></g><g fill="#3c6d16" fill-opacity="1"><g transform="translate(179.589634, 86.228788)"><g><path d="M 25.171875 -19.25 L 25.171875 0 L 35.53125 0 L 35.53125 -19.25 C 35.53125 -27.828125 30.046875 -38.484375 14.796875 -38.484375 L 2.21875 -38.484375 L 2.21875 -29.609375 L 12.578125 -29.609375 C 22.875 -29.609375 25.171875 -23.609375 25.171875 -19.25 Z M 2.21875 0 L 12.578125 0 L 12.578125 -23.6875 L 2.21875 -23.6875 Z M 2.21875 0 "/></g></g></g><g clip-path="url(#d2fb101a5e)"><path fill="#afdc34" d="M 85.28125 42.488281 C 85.28125 42.488281 92.960938 30.730469 105.761719 29.230469 C 105.761719 29.230469 93.847656 35.089844 88.816406 43.15625 C 115.058594 46.878906 118.71875 18.398438 118.71875 18.398438 C 87.4375 20.222656 85.28125 42.488281 85.28125 42.488281 " fill-opacity="1" fill-rule="nonzero"/></g></svg>