<svg xmlns="http://www.w3.org/2000/svg" xmlns:xlink="http://www.w3.org/1999/xlink" width="493" zoomAndPan="magnify" viewBox="0 0 369.75 129.750003" height="173" preserveAspectRatio="xMidYMid meet" version="1.0"><defs><g/><clipPath id="cd073fd30e"><path d="M 48 18.363281 L 82 18.363281 L 82 44 L 48 44 Z M 48 18.363281 " clip-rule="nonzero"/></clipPath></defs><g fill="#3c6d16" fill-opacity="1"><g transform="translate(21.88509, 86.232421)"><g><path d="M 2.21875 0 L 34.796875 0 L 34.796875 -25.90625 C 34.796875 -34.796875 31.015625 -38.5 21.46875 -38.5 L 2.21875 -38.5 L 2.21875 -29.609375 L 19.984375 -29.609375 C 23.09375 -29.609375 24.4375 -28.125 24.4375 -25.171875 L 24.4375 -8.890625 L 12.578125 -8.890625 L 12.578125 -23.6875 L 2.21875 -23.6875 Z M 2.21875 0 "/></g></g></g><g fill="#3c6d16" fill-opacity="1"><g transform="translate(58.901164, 86.232421)"><g><path d="M 2.21875 -14.8125 L 12.578125 -14.8125 L 12.578125 -38.5 L 2.21875 -38.5 Z M 2.21875 -14.8125 "/></g></g></g><g fill="#3c6d16" fill-opacity="1"><g transform="translate(73.707592, 86.232421)"><g><path d="M 20.734375 -18.953125 L 20.734375 0 L 31.09375 0 L 31.09375 -19.25 C 31.09375 -27.828125 25.609375 -38.5 10.359375 -38.5 L 1.484375 -38.5 L 1.484375 -29.609375 L 8.890625 -29.609375 C 17.546875 -29.609375 20.734375 -23.3125 20.734375 -18.953125 Z M 20.734375 -18.953125 "/></g></g></g><g fill="#3c6d16" fill-opacity="1"><g transform="translate(107.022063, 86.232421)"><g><path d="M 2.21875 0 L 12.578125 0 L 12.578125 -38.5 L 2.21875 -38.5 Z M 2.21875 0 "/></g></g></g><g fill="#3c6d16" fill-opacity="1"><g transform="translate(121.828491, 86.232421)"><g><path d="M 23.6875 1.484375 C 32.640625 1.484375 45.90625 -3.625 45.90625 -22.203125 L 45.90625 -38.5 L 35.53125 -38.5 L 35.53125 -20.734375 C 35.53125 -13.765625 32.421875 -7.40625 24.4375 -7.40625 C 16.8125 -7.40625 12.578125 -13.765625 12.578125 -20.734375 L 12.578125 -38.5 L 2.21875 -38.5 L 2.21875 -22.203125 C 2.21875 -3.625 17.46875 1.484375 23.6875 1.484375 Z M 18.515625 -16.28125 L 28.875 -16.28125 L 28.875 -39.984375 L 18.515625 -39.984375 Z M 18.515625 -16.28125 "/></g></g></g><g fill="#3c6d16" fill-opacity="1"><g transform="translate(169.94939, 86.232421)"><g><path d="M 2.21875 14.8125 L 12.578125 14.8125 L 12.578125 0 L 24.0625 0 L 36.640625 -23.6875 L 25.171875 -23.6875 L 12.578125 -0.734375 L 12.578125 -23.6875 L 2.21875 -23.6875 Z M 2.21875 -29.609375 L 37.015625 -29.609375 L 37.015625 -38.5 L 2.21875 -38.5 Z M 2.21875 -29.609375 "/></g></g></g><g clip-path="url(#cd073fd30e)"><path fill="#afdc34" d="M 48.230469 42.484375 C 48.230469 42.484375 55.914062 30.726562 68.714844 29.226562 C 68.714844 29.226562 56.796875 35.085938 51.765625 43.152344 C 78.011719 46.875 81.675781 18.390625 81.675781 18.390625 C 50.390625 20.214844 48.230469 42.484375 48.230469 42.484375 " fill-opacity="1" fill-rule="nonzero"/></g><g fill="#845333" fill-opacity="1"><g transform="translate(217.006499, 86.053017)"><g><path d="M 1.734375 0 L 27.125 0 L 27.125 -20.203125 C 27.125 -27.125 24.1875 -30.015625 16.734375 -30.015625 L 1.734375 -30.015625 L 1.734375 -23.09375 L 15.578125 -23.09375 C 18.015625 -23.09375 19.046875 -21.9375 19.046875 -19.625 L 19.046875 -6.921875 L 9.8125 -6.921875 L 9.8125 -18.46875 L 1.734375 -18.46875 Z M 1.734375 0 "/></g></g></g><g fill="#845333" fill-opacity="1"><g transform="translate(245.861717, 86.053017)"><g><path d="M 1.734375 -11.546875 L 9.8125 -11.546875 L 9.8125 -30.015625 L 1.734375 -30.015625 Z M 1.734375 -11.546875 "/></g></g></g><g fill="#845333" fill-opacity="1"><g transform="translate(257.403805, 86.053017)"><g><path d="M 16.15625 -14.78125 L 16.15625 0 L 24.234375 0 L 24.234375 -15 C 24.234375 -21.703125 19.96875 -30.015625 8.078125 -30.015625 L 1.15625 -30.015625 L 1.15625 -23.09375 L 6.921875 -23.09375 C 13.671875 -23.09375 16.15625 -18.1875 16.15625 -14.78125 Z M 16.15625 -14.78125 "/></g></g></g><g fill="#845333" fill-opacity="1"><g transform="translate(283.373503, 86.053017)"><g><path d="M 1.734375 0 L 25.390625 0 L 25.390625 -5.1875 C 25.390625 -13.328125 21.875 -18.46875 13.859375 -18.46875 C 11.421875 -18.46875 9.8125 -19.96875 9.8125 -23.09375 L 9.8125 -30.015625 L 1.734375 -30.015625 L 1.734375 -24.8125 C 1.734375 -13.109375 9.40625 -10.96875 13.859375 -10.96875 C 16.109375 -10.96875 17.140625 -9.640625 17.3125 -6.921875 L 1.734375 -6.921875 Z M 17.3125 -22.515625 L 25.390625 -22.515625 L 25.390625 -30.015625 L 17.3125 -30.015625 Z M 17.3125 -22.515625 "/></g></g></g><g fill="#845333" fill-opacity="1"><g transform="translate(310.497412, 86.053017)"><g><path d="M 1.734375 0 L 9.8125 0 L 9.8125 -30.015625 L 1.734375 -30.015625 Z M 1.734375 0 "/></g></g></g><g fill="#845333" fill-opacity="1"><g transform="translate(322.039501, 86.053017)"><g><path d="M 1.734375 0 L 9.8125 0 L 9.8125 -23.09375 L 13.859375 -23.09375 C 18.703125 -23.09375 21.9375 -20.09375 21.9375 -15 C 21.9375 -10.453125 18.703125 -6.921875 12.703125 -6.921875 L 12.703125 0 L 13.859375 0 C 24.875 0 30.015625 -7.265625 30.015625 -15 C 30.015625 -22.21875 25.34375 -29.375 15.578125 -30.015625 C 13.625 -28.171875 11.65625 -26.265625 9.8125 -24.234375 L 9.8125 -30.015625 L 1.734375 -30.015625 Z M 1.734375 0 "/></g></g></g></svg>