<svg xmlns="http://www.w3.org/2000/svg" xmlns:xlink="http://www.w3.org/1999/xlink" width="433" zoomAndPan="magnify" viewBox="0 0 324.75 129.750003" height="173" preserveAspectRatio="xMidYMid meet" version="1.0"><defs><g/><clipPath id="bd76359341"><path d="M 79 18.363281 L 113 18.363281 L 113 44 L 79 44 Z M 79 18.363281 " clip-rule="nonzero"/></clipPath></defs><g fill="#3c6d16" fill-opacity="1"><g transform="translate(39.881244, 86.232421)"><g><path d="M 2.21875 0 L 34.796875 0 L 34.796875 -25.90625 C 34.796875 -34.796875 31.015625 -38.5 21.46875 -38.5 L 2.21875 -38.5 L 2.21875 -29.609375 L 19.984375 -29.609375 C 23.09375 -29.609375 24.4375 -28.125 24.4375 -25.171875 L 24.4375 -8.890625 L 12.578125 -8.890625 L 12.578125 -23.6875 L 2.21875 -23.6875 Z M 2.21875 0 "/></g></g></g><g fill="#3c6d16" fill-opacity="1"><g transform="translate(76.897318, 86.232421)"><g><path d="M 2.21875 -14.8125 L 12.578125 -14.8125 L 12.578125 -38.5 L 2.21875 -38.5 Z M 2.21875 -14.8125 "/></g></g></g><g fill="#3c6d16" fill-opacity="1"><g transform="translate(91.703746, 86.232421)"><g><path d="M 2.21875 0 L 21.46875 0 C 31.015625 0 35.53125 -3.703125 35.53125 -12.578125 L 35.53125 -23.6875 L 25.171875 -23.6875 L 25.171875 -13.328125 C 25.171875 -10.359375 23.84375 -8.890625 20.734375 -8.890625 L 12.578125 -8.890625 L 12.578125 -38.5 L 2.21875 -38.5 Z M 25.171875 -29.609375 L 35.53125 -29.609375 L 35.53125 -38.5 L 25.171875 -38.5 Z M 25.171875 -29.609375 "/></g></g></g><g fill="#3c6d16" fill-opacity="1"><g transform="translate(129.460149, 86.232421)"><g><path d="M 20.734375 -18.953125 L 20.734375 0 L 31.09375 0 L 31.09375 -19.25 C 31.09375 -27.828125 25.609375 -38.5 10.359375 -38.5 L 1.484375 -38.5 L 1.484375 -29.609375 L 8.890625 -29.609375 C 17.546875 -29.609375 20.734375 -23.3125 20.734375 -18.953125 Z M 20.734375 -18.953125 "/></g></g></g><g fill="#3c6d16" fill-opacity="1"><g transform="translate(162.774619, 86.232421)"><g><path d="M 2.21875 0 L 10.359375 0 C 24.203125 0 33.3125 -7.03125 33.3125 -19.25 C 33.3125 -30.5 24.203125 -39.234375 12.578125 -39.234375 C 8.59375 -39.234375 5.78125 -38.203125 2.21875 -36.28125 L 2.21875 -25.171875 C 5.109375 -29.25 8.0625 -30.5 11.84375 -30.5 C 18.65625 -30.5 23.09375 -25.390625 23.09375 -19.25 C 23.09375 -12.734375 18.796875 -8.890625 11.109375 -8.890625 L 2.21875 -8.890625 Z M 2.21875 -14.8125 L 14.0625 -14.8125 L 14.0625 -23.6875 L 2.21875 -23.6875 Z M 2.21875 -14.8125 "/></g></g></g><g clip-path="url(#bd76359341)"><path fill="#afdc34" d="M 79.035156 42.484375 C 79.035156 42.484375 86.71875 30.726562 99.519531 29.226562 C 99.519531 29.226562 87.601562 35.085938 82.570312 43.152344 C 108.816406 46.875 112.476562 18.390625 112.476562 18.390625 C 81.191406 20.214844 79.035156 42.484375 79.035156 42.484375 " fill-opacity="1" fill-rule="nonzero"/></g><g fill="#845333" fill-opacity="1"><g transform="translate(207.782827, 85.304459)"><g><path d="M 1.734375 5.1875 L 9.8125 5.1875 L 9.8125 -18.46875 L 1.734375 -18.46875 Z M 1.734375 -22.515625 L 9.8125 -22.515625 L 9.8125 -30.015625 L 1.734375 -30.015625 Z M 1.734375 -22.515625 "/></g></g></g><g fill="#845333" fill-opacity="1"><g transform="translate(219.324916, 85.304459)"><g><path d="M 1.734375 0 L 9.8125 0 L 9.8125 -30.015625 L 1.734375 -30.015625 Z M 1.734375 0 "/></g></g></g><g fill="#845333" fill-opacity="1"><g transform="translate(230.867004, 85.304459)"><g><path d="M 1.734375 0 L 5.765625 0 C 16.6875 0 21.9375 -7.15625 21.9375 -15 C 21.9375 -21.53125 18.0625 -30.015625 5.765625 -30.015625 L 1.734375 -30.015625 L 1.734375 -23.09375 L 5.1875 -23.09375 C 11.078125 -23.09375 13.859375 -19.796875 13.859375 -15 C 13.859375 -11.546875 11.078125 -6.921875 5.1875 -6.921875 L 1.734375 -6.921875 Z M 1.734375 0 "/></g></g></g><g fill="#845333" fill-opacity="1"><g transform="translate(253.951182, 85.304459)"><g><path d="M 13.859375 -6.921875 L 13.859375 0 L 21.9375 0 L 21.9375 -8.078125 C 21.9375 -12 20.265625 -13.671875 16.734375 -14.4375 C 21.015625 -15.359375 23.09375 -17.828125 23.09375 -21.9375 C 23.09375 -27.875 18.640625 -30.015625 12.125 -30.015625 L 1.734375 -30.015625 L 1.734375 -23.09375 L 12.125 -23.09375 C 14.078125 -23.09375 15 -22.28125 15 -20.78125 C 15 -19.21875 14.375 -18.46875 12.125 -18.46875 L 1.734375 -18.46875 L 1.734375 -10.96875 L 8.65625 -10.96875 C 12.40625 -10.96875 13.859375 -10.09375 13.859375 -6.921875 Z M 13.859375 -6.921875 "/></g></g></g><g fill="#845333" fill-opacity="1"><g transform="translate(278.47812, 85.304459)"><g><path d="M 1.15625 0 L 17.890625 0 C 24.640625 0 27.703125 -2.765625 27.703125 -9.8125 L 27.703125 -30.015625 L 19.625 -30.015625 L 19.625 -10.96875 C 19.625 -7.84375 18.984375 -6.921875 16.15625 -6.921875 L 12.703125 -6.921875 L 12.703125 -18.46875 L 4.625 -18.46875 L 4.625 -6.921875 L 1.15625 -6.921875 Z M 4.625 -22.796875 L 12.703125 -22.796875 L 12.703125 -30.015625 L 4.625 -30.015625 Z M 4.625 -22.796875 "/></g></g></g></svg>